<svg width="461" height="485" viewBox="0 0 461 485" fill="none" xmlns="http://www.w3.org/2000/svg">
<g id="carrito">
<g id="Group">
<path id="sombracarro" opacity="0.2" d="M232.104 484.263C358.284 484.263 460.573 468.164 460.573 448.305C460.573 428.446 358.284 412.347 232.104 412.347C105.924 412.347 3.63477 428.446 3.63477 448.305C3.63477 468.164 105.924 484.263 232.104 484.263Z" fill="#2D2D2D"/>
<path id="Vector" d="M334.548 325.719L232.104 340.113L272.753 363.874L367.721 350.902L334.548 325.719Z" fill="#6B2D25"/>
<g id="llantastraseras">
<path id="Vector_2" d="M393.559 402.876C393.559 435.1 373.177 458.085 346.704 458.085C317.269 458.085 292.726 446.162 292.726 402.876C292.726 351.734 320.237 347.667 346.704 347.667C373.177 347.667 393.559 370.349 393.559 402.876Z" fill="#2D2D2D"/>
<path id="Vector_3" d="M361.507 449.69C379.153 449.69 393.458 428.502 393.458 402.366C393.458 376.23 379.153 355.042 361.507 355.042C343.861 355.042 329.556 376.23 329.556 402.366C329.556 428.502 343.861 449.69 361.507 449.69Z" fill="#3D3D3D"/>
<g id="rinesllantastraseras">
<path id="Vector_4" d="M380.531 403.578C380.531 417.155 373.683 428.161 364.047 428.161C354.411 428.161 346.599 417.155 346.599 403.578C346.599 390.001 354.411 378.995 364.047 378.995C373.683 378.995 380.531 390.001 380.531 403.578Z" fill="#934538"/>
<path id="Vector_5" d="M376.293 403.578C376.293 413.897 369.734 425.28 360.758 425.28C351.782 425.28 346.599 416.224 346.599 403.578C346.599 390.932 351.782 382.103 360.758 382.103C368.704 382.103 376.293 392.439 376.293 403.578Z" fill="#AF5443"/>
<path id="Vector_6" d="M372.806 402.645C372.806 410.941 367.069 413.318 363.433 413.318C358.316 413.318 355.095 408.539 355.095 402.645C355.095 396.751 358.316 391.972 363.433 391.972C367.186 391.971 372.806 394.786 372.806 402.645Z" fill="#934538"/>
<path id="Vector_7" d="M372.102 402.645C372.102 408.482 369.841 410.155 368.408 410.155C366.391 410.155 365.122 406.793 365.122 402.645C365.122 398.497 366.391 395.135 368.408 395.135C369.887 395.135 372.102 397.115 372.102 402.645Z" fill="#AF5443"/>
<path id="Vector_8" opacity="0.2" d="M376.683 387.484C374.089 383.825 369.337 377.149 361.519 379.255C353.701 381.361 349.662 387.45 347.495 395.135C345.328 402.82 346.69 416.678 352.141 421.547C345.153 406.177 349.46 397.402 352.979 391.971C356.423 386.656 361.705 384.764 367.865 384.825L376.683 387.484Z" fill="#0B0A0C"/>
</g>
<path id="Vector_9" d="M217.248 450.531C243.721 450.531 265.182 425.813 265.182 395.322C265.182 364.831 243.721 340.113 217.248 340.113C190.775 340.113 169.314 364.831 169.314 395.322C169.314 425.813 190.775 450.531 217.248 450.531Z" fill="#2D2D2D"/>
<path id="Vector_10" d="M232.051 442.136C249.697 442.136 264.002 420.948 264.002 394.812C264.002 368.676 249.697 347.488 232.051 347.488C214.405 347.488 200.1 368.676 200.1 394.812C200.1 420.948 214.405 442.136 232.051 442.136Z" fill="#3D3D3D"/>
</g>
<g id="llantadelotroladoprincipal">
<path id="Vector_11" d="M126.894 460.223C158.051 460.223 183.308 432.779 183.308 398.926C183.308 365.073 158.051 337.629 126.894 337.629C95.7374 337.629 70.48 365.073 70.48 398.926C70.48 432.779 95.7374 460.223 126.894 460.223Z" fill="#2D2D2D"/>
<path id="Vector_12" d="M142.093 454.504C163.878 454.504 181.538 429.621 181.538 398.926C181.538 368.231 163.878 343.348 142.093 343.348C120.308 343.348 102.648 368.231 102.648 398.926C102.648 429.621 120.308 454.504 142.093 454.504Z" fill="#3D3D3D"/>
<path id="Vector_13" d="M161.104 398.926C161.104 414.139 153.43 426.472 142.633 426.472C131.836 426.472 123.083 414.139 123.083 398.926C123.083 383.713 131.836 371.38 142.633 371.38C153.43 371.38 161.104 383.713 161.104 398.926Z" fill="#303030"/>
</g>
<g id="Group_2">
<g id="Clip path group">
<mask id="mask0_43_41" style="mask-type:luminance" maskUnits="userSpaceOnUse" x="135" y="28" width="317" height="321">
<g id="SVGID_00000158711389999288123110000003754687225138163878_">
<path id="Vector_14" d="M434.211 346.395C434.211 346.395 422.482 348.759 414.087 348.096C412.021 340.692 402.862 341.352 402.862 341.352C402.862 341.352 391.025 345.887 368.552 342.1C362.164 333.095 357.056 333.636 357.056 333.636C357.056 333.636 325.582 331.519 303.183 320.624C304.931 312.149 296.57 307.946 296.57 307.946C296.57 307.946 256.219 302.17 218.069 248.304C197.903 219.831 98.4291 152.988 149.962 102.984C195.919 58.3901 392.551 28.6401 392.551 28.6401L365.844 80.4161C365.844 80.4161 416.89 74.0731 430.062 145.79C442.114 163.168 448.173 194.515 445.251 204.086C452.525 225.639 451.575 234.709 450.764 240.006C453.86 266.998 443.036 326.121 434.211 346.395Z" fill="white"/>
</g>
</mask>
<g mask="url(#mask0_43_41)">
<g id="Group_3">
<g id="Group_4">
<path id="Vector_15" d="M416.933 112.064C469.213 204.188 450.863 295.87 433.151 348.995C372.932 347.253 281.219 335.44 218.069 248.304C230.238 174.832 224.944 167.014 281.796 128.066C338.647 89.1161 344.217 89.9431 416.933 112.064Z" fill="url(#paint0_linear_43_41)"/>
<g id="Clip path group_2">
<mask id="mask1_43_41" style="mask-type:luminance" maskUnits="userSpaceOnUse" x="218" y="96" width="234" height="253">
<g id="SVGID_00000003804935138335256820000007501785829945674915_">
<path id="Vector_16" d="M416.933 112.064C469.213 204.188 450.863 295.87 433.151 348.995C372.932 347.253 281.219 335.44 218.069 248.304C230.238 174.832 224.944 167.014 281.796 128.066C338.647 89.1161 344.217 89.9431 416.933 112.064Z" fill="white"/>
</g>
</mask>
<g mask="url(#mask1_43_41)">
<g id="Group_5" opacity="0.3">
<path id="Vector_17" d="M451.295 222.9C451.295 222.9 453.618 312.739 405.826 356.697C358.033 400.654 386.355 356.697 386.355 356.697C386.355 356.697 451.627 308.005 451.295 222.9Z" fill="white"/>
<path id="Vector_18" d="M447.866 182.932C447.866 182.932 450.593 263.506 344.257 343.715C292.417 382.818 359.656 351.09 359.656 351.09C359.656 351.09 448.198 268.037 447.866 182.932Z" fill="white"/>
<path id="Vector_19" d="M430.607 136.025C430.607 136.025 435.552 241.85 283.984 314.214C225.387 342.191 297.463 323.655 297.463 323.655C297.463 323.655 427.043 260.649 430.607 136.025Z" fill="white"/>
</g>
</g>
</g>
</g>
<g id="Group_6" opacity="0.2">
<path id="Vector_20" d="M361.694 244.69C306.779 282.312 245.153 287.837 224.049 257.032C202.945 226.227 230.354 170.756 285.269 133.134C340.184 95.512 395.83 81.258 416.934 112.063C438.038 142.869 416.609 207.069 361.694 244.69Z" fill="#0B0A0C"/>
<g id="Clip path group_3">
<mask id="mask2_43_41" style="mask-type:luminance" maskUnits="userSpaceOnUse" x="246" y="70" width="152" height="234">
<g id="SVGID_00000025420361726423555030000017239386553708046228_">
<path id="Vector_21" d="M386.572 213.35C362.531 275.426 314.812 314.815 279.991 301.329C245.169 287.843 236.429 226.587 260.47 164.511C284.511 102.435 322.362 59.2245 357.184 72.7106C392.007 86.1976 410.613 151.274 386.572 213.35Z" fill="white"/>
</g>
</mask>
<g mask="url(#mask2_43_41)">
<path id="Vector_22" d="M361.735 244.711C416.652 207.088 444.061 151.615 422.956 120.808C401.851 90.0018 340.223 95.5278 285.306 133.151C230.389 170.774 202.98 226.247 224.085 257.053C245.19 287.859 306.818 282.333 361.735 244.711Z" fill="#0B0A0C"/>
</g>
</g>
<g id="Clip path group_4">
<mask id="mask3_43_41" style="mask-type:luminance" maskUnits="userSpaceOnUse" x="248" y="67" width="154" height="233">
<g id="SVGID_00000025420361726423555030000017239386553708046228__2">
<path id="Vector_23" d="M389.09 211.808C363.397 273.216 314.643 311.313 280.196 296.9C245.749 282.488 238.652 221.023 264.345 159.615C290.037 98.2063 329.03 56.0256 363.477 70.4383C397.925 84.8518 414.783 150.401 389.09 211.808Z" fill="white"/>
</g>
</mask>
<g mask="url(#mask3_43_41)">
<path id="Vector_24" opacity="0.4" d="M353.007 233.284C408.674 197.297 438.916 145.098 420.554 116.694C402.192 88.2896 342.179 94.4369 286.511 130.424C230.843 166.411 200.601 218.611 218.964 247.015C237.326 275.419 297.339 269.272 353.007 233.284Z" fill="#0B0A0C"/>
</g>
</g>
</g>
<g id="Group_7">
<path id="Vector_25" d="M355.754 235.982C410.671 198.359 438.081 142.886 416.976 112.079C395.87 81.2731 334.243 86.799 279.326 124.422C224.409 162.045 196.999 217.518 218.104 248.324C239.21 279.131 300.838 273.605 355.754 235.982Z" fill="#DC7E68"/>
<g id="Clip path group_5">
<mask id="mask4_43_41" style="mask-type:luminance" maskUnits="userSpaceOnUse" x="240" y="65" width="155" height="231">
<g id="SVGID_00000097484212860846727370000017746899359294294405_">
<path id="Vector_26" d="M380.636 204.615C404.678 142.537 395.937 81.2801 361.114 67.7935C326.29 54.3068 278.57 93.6978 254.529 155.776C230.487 217.854 239.227 279.111 274.051 292.597C308.874 306.084 356.594 266.693 380.636 204.615Z" fill="white"/>
</g>
</mask>
<g mask="url(#mask4_43_41)">
<path id="Vector_27" d="M355.754 235.982C410.671 198.359 438.081 142.886 416.976 112.079C395.87 81.2729 334.243 86.7988 279.326 124.422C224.409 162.045 196.999 217.518 218.104 248.324C239.21 279.13 300.838 273.605 355.754 235.982Z" fill="#AF5443"/>
</g>
</g>
<g id="Clip path group_6">
<mask id="mask5_43_41" style="mask-type:luminance" maskUnits="userSpaceOnUse" x="242" y="62" width="157" height="230">
<g id="SVGID_00000097484212860846727370000017746899359294294405__2">
<path id="Vector_28" d="M383.155 203.075C408.848 141.665 401.751 80.198 367.302 65.7848C332.853 51.3716 284.098 89.4701 258.404 150.88C232.711 212.29 239.808 273.757 274.257 288.17C308.706 302.584 357.461 264.485 383.155 203.075Z" fill="white"/>
</g>
</mask>
<g mask="url(#mask5_43_41)">
<path id="Vector_29" opacity="0.4" d="M347.027 224.555C402.694 188.568 432.936 136.369 414.574 107.965C396.212 79.5606 336.199 85.7078 280.531 121.695C224.863 157.682 194.621 209.882 212.984 238.286C231.346 266.69 291.359 260.542 347.027 224.555Z" fill="#DC7E68"/>
</g>
</g>
</g>
</g>
</g>
</g>
<g id="Clip path group_7">
<mask id="mask6_43_41" style="mask-type:luminance" maskUnits="userSpaceOnUse" x="135" y="28" width="317" height="321">
<g id="SVGID_00000158711389999288123110000003754687225138163878__2">
<path id="Vector_30" d="M434.211 346.395C434.211 346.395 422.482 348.759 414.087 348.096C412.021 340.692 402.862 341.352 402.862 341.352C402.862 341.352 391.025 345.887 368.552 342.1C362.164 333.095 357.056 333.636 357.056 333.636C357.056 333.636 325.582 331.519 303.183 320.624C304.931 312.149 296.57 307.946 296.57 307.946C296.57 307.946 256.219 302.17 218.069 248.304C197.903 219.831 98.4291 152.988 149.962 102.984C195.919 58.3901 392.551 28.6401 392.551 28.6401L365.844 80.4161C365.844 80.4161 416.89 74.0731 430.062 145.79C442.114 163.168 448.173 194.515 445.251 204.086C452.525 225.639 451.575 234.709 450.764 240.006C453.86 266.998 443.036 326.121 434.211 346.395Z" fill="white"/>
</g>
</mask>
<g mask="url(#mask6_43_41)">
<g id="Group_8">
<path id="Vector_31" opacity="0.1" d="M346.866 113.683C331.078 114.014 314.56 131.818 294.65 145.512C274.74 159.206 260.312 175.981 254.355 190.606C247.074 195.614 242.543 198.73 242.543 198.73L256.164 223.088C267.115 238.72 302.815 228.342 336.017 206.046C376.188 179.07 386.428 142.842 375.748 127.024C375.748 127.024 368.857 113.097 346.866 113.683Z" fill="#0B0A0C"/>
<path id="Vector_32" d="M354.37 109.131C354.149 109.283 349.834 112.251 342.964 116.976C327.176 117.307 306.35 124.78 286.44 138.475C266.53 152.169 252.103 168.944 246.146 183.569C238.865 188.577 234.333 191.693 234.333 191.693L245.953 208.587L246.366 208.303C257.317 223.935 292.794 218.283 325.745 195.619C358.696 172.955 376.664 141.847 365.984 126.029L365.99 126.025L354.37 109.131Z" fill="#934538"/>
<path id="Vector_33" d="M311.976 175.592C345.01 152.871 364.064 123.219 354.534 109.364C345.004 95.509 310.499 102.697 277.465 125.419C244.431 148.14 225.377 177.792 234.907 191.647C244.437 205.502 278.942 198.314 311.976 175.592Z" fill="#DC7E68"/>
<path id="Vector_34" opacity="0.2" d="M329.602 124.313C339.088 135.146 324.777 152.094 311.048 160.873C294.153 171.677 271.779 172.228 265.938 167.642C250.303 155.369 264.972 133.918 281.772 122.967C298.571 112.016 321.063 114.563 329.602 124.313Z" fill="#0B0A0C"/>
</g>
</g>
</g>
<g id="Clip path group_8">
<mask id="mask7_43_41" style="mask-type:luminance" maskUnits="userSpaceOnUse" x="135" y="28" width="317" height="321">
<g id="SVGID_00000158711389999288123110000003754687225138163878__3">
<path id="Vector_35" d="M434.211 346.395C434.211 346.395 422.482 348.759 414.087 348.096C412.021 340.692 402.862 341.352 402.862 341.352C402.862 341.352 391.025 345.887 368.552 342.1C362.164 333.095 357.056 333.636 357.056 333.636C357.056 333.636 325.582 331.519 303.183 320.624C304.931 312.149 296.57 307.946 296.57 307.946C296.57 307.946 256.219 302.17 218.069 248.304C197.903 219.831 98.4291 152.988 149.962 102.984C195.919 58.3901 392.551 28.6401 392.551 28.6401L365.844 80.4161C365.844 80.4161 416.89 74.0731 430.062 145.79C442.114 163.168 448.173 194.515 445.251 204.086C452.525 225.639 451.575 234.709 450.764 240.006C453.86 266.998 443.036 326.121 434.211 346.395Z" fill="white"/>
</g>
</mask>
<g mask="url(#mask7_43_41)">
<g id="Group_9">
<path id="Vector_36" d="M278.844 160.294L312.947 56.689L329.416 73.898L302.21 147.276L278.844 160.294Z" fill="#934538"/>
<path id="Vector_37" d="M278.844 160.294L312.947 56.689L302.142 63.34L276.139 151.608L278.844 160.294Z" fill="#55305E"/>
<path id="Vector_38" d="M236.048 121.207L312.947 56.689L329.416 73.898L244.209 131.103L236.048 121.207Z" fill="#934538"/>
<path id="Vector_39" d="M236.048 121.207L312.947 56.689L298.633 59.768L235.352 108.365L236.048 121.207Z" fill="#55305E"/>
</g>
</g>
</g>
<g id="Clip path group_9">
<mask id="mask8_43_41" style="mask-type:luminance" maskUnits="userSpaceOnUse" x="135" y="28" width="317" height="321">
<g id="SVGID_00000158711389999288123110000003754687225138163878__4">
<path id="Vector_40" d="M434.211 346.395C434.211 346.395 422.482 348.759 414.087 348.096C412.021 340.692 402.862 341.352 402.862 341.352C402.862 341.352 391.025 345.887 368.552 342.1C362.164 333.095 357.056 333.636 357.056 333.636C357.056 333.636 325.582 331.519 303.183 320.624C304.931 312.149 296.57 307.946 296.57 307.946C296.57 307.946 256.219 302.17 218.069 248.304C197.903 219.831 98.4291 152.988 149.962 102.984C195.919 58.3901 392.551 28.6401 392.551 28.6401L365.844 80.4161C365.844 80.4161 416.89 74.0731 430.062 145.79C442.114 163.168 448.173 194.515 445.251 204.086C452.525 225.639 451.575 234.709 450.764 240.006C453.86 266.998 443.036 326.121 434.211 346.395Z" fill="white"/>
</g>
</mask>
<g mask="url(#mask8_43_41)">
<g id="Group_10">
<g id="Clip path group_10">
<mask id="mask9_43_41" style="mask-type:luminance" maskUnits="userSpaceOnUse" x="254" y="109" width="70" height="61">
<g id="SVGID_00000138562418590731910810000009824721671812189624_">
<path id="Vector_41" d="M321.001 123.399C329.241 135.208 319.247 149.008 302.447 159.96C285.648 170.912 268.511 171.463 261.768 165.047C247.369 151.345 254.548 127.224 271.347 116.272C288.147 105.319 309.643 107.121 321.001 123.399Z" fill="white"/>
</g>
</mask>
<g mask="url(#mask9_43_41)">
<g id="Group_11">
<g id="Clip path group_11">
<mask id="mask10_43_41" style="mask-type:luminance" maskUnits="userSpaceOnUse" x="254" y="114" width="70" height="56">
<g id="SVGID_00000003088044706749145930000012461536163404630665_">
<path id="Vector_42" d="M321.001 123.399C327.876 135.974 319.247 149.008 302.447 159.96C285.648 170.912 268.511 171.463 261.768 165.047C247.369 151.345 256.835 125.197 270.594 118.362C274.212 116.565 280.492 114.92 286.298 117.12L285.394 120.187C291.639 113.37 313.86 110.336 321.001 123.399Z" fill="white"/>
</g>
</mask>
<g mask="url(#mask10_43_41)">
<g id="Group_12">
<path id="Vector_43" d="M321.001 123.399C329.241 135.208 319.247 149.008 302.447 159.96C285.648 170.912 268.511 171.463 261.768 165.047C247.369 151.345 254.548 127.224 271.347 116.272C288.147 105.319 309.643 107.121 321.001 123.399Z" fill="#AF5443"/>
<g id="Group_13">
<g id="Clip path group_12">
<mask id="mask11_43_41" style="mask-type:luminance" maskUnits="userSpaceOnUse" x="258" y="107" width="74" height="76">
<g id="SVGID_00000092441612296058120900000006325009008664343991_">
<path id="Vector_44" d="M331.829 114.617C331.829 114.617 296.461 101.731 282.736 123.892C273.722 138.445 271.19 155.881 278.278 171.38C285.366 186.879 264.775 182.062 264.775 182.062C264.775 182.062 253.56 159.487 260.67 135.208C265.791 117.723 276.878 111.832 290.638 108.635C308.887 104.394 331.829 114.617 331.829 114.617Z" fill="white"/>
</g>
</mask>
<g mask="url(#mask11_43_41)">
<path id="Vector_45" d="M331.829 114.617C331.829 114.617 296.911 104.011 283.186 126.172C274.172 140.725 271.19 155.881 278.278 171.38C285.366 186.879 276.815 180.67 276.815 180.67C276.815 180.67 254.021 158.086 261.065 133.78C266.1 116.407 277.25 115.303 291.55 114.584C310.261 113.642 331.829 114.617 331.829 114.617Z" fill="#77342B"/>
</g>
</g>
<g id="Clip path group_13">
<mask id="mask12_43_41" style="mask-type:luminance" maskUnits="userSpaceOnUse" x="258" y="107" width="74" height="76">
<g id="SVGID_00000092441612296058120900000006325009008664343991__2">
<path id="Vector_46" d="M331.829 114.617C331.829 114.617 296.461 101.731 282.736 123.892C273.722 138.445 271.19 155.881 278.278 171.38C285.366 186.879 264.775 182.062 264.775 182.062C264.775 182.062 253.56 159.487 260.67 135.208C265.791 117.723 276.878 111.832 290.638 108.635C308.887 104.394 331.829 114.617 331.829 114.617Z" fill="white"/>
</g>
</mask>
<g mask="url(#mask12_43_41)">
<path id="Vector_47" d="M253.639 179.599L304.265 135.207L297.009 176.602L270.346 188.485L253.639 179.599Z" fill="#DC7E68"/>
</g>
</g>
<g id="Clip path group_14">
<mask id="mask13_43_41" style="mask-type:luminance" maskUnits="userSpaceOnUse" x="258" y="107" width="74" height="76">
<g id="SVGID_00000092441612296058120900000006325009008664343991__3">
<path id="Vector_48" d="M331.829 114.617C331.829 114.617 296.461 101.731 282.736 123.892C273.722 138.445 271.19 155.881 278.278 171.38C285.366 186.879 264.775 182.062 264.775 182.062C264.775 182.062 253.56 159.487 260.67 135.208C265.791 117.723 276.878 111.832 290.638 108.635C308.887 104.394 331.829 114.617 331.829 114.617Z" fill="white"/>
</g>
</mask>
<g mask="url(#mask13_43_41)">
<path id="Vector_49" opacity="0.2" d="M253.639 179.599L304.265 135.207L297.009 176.602L270.346 188.485L253.639 179.599Z" fill="#0B0A0C"/>
</g>
</g>
<g id="Clip path group_15">
<mask id="mask14_43_41" style="mask-type:luminance" maskUnits="userSpaceOnUse" x="258" y="107" width="74" height="76">
<g id="SVGID_00000092441612296058120900000006325009008664343991__4">
<path id="Vector_50" d="M331.829 114.617C331.829 114.617 296.461 101.731 282.736 123.892C273.722 138.445 271.19 155.881 278.278 171.38C285.366 186.879 264.775 182.062 264.775 182.062C264.775 182.062 253.56 159.487 260.67 135.208C265.791 117.723 276.878 111.832 290.638 108.635C308.887 104.394 331.829 114.617 331.829 114.617Z" fill="white"/>
</g>
</mask>
<g mask="url(#mask14_43_41)">
<path id="Vector_51" d="M284.697 166.126C294.87 166.126 303.116 157.88 303.116 147.707C303.116 137.535 294.87 129.288 284.697 129.288C274.525 129.288 266.278 137.535 266.278 147.707C266.278 157.88 274.525 166.126 284.697 166.126Z" fill="#55305E"/>
</g>
</g>
</g>
</g>
</g>
</g>
</g>
</g>
</g>
</g>
</g>
</g>
<g id="Clip path group_16">
<mask id="mask15_43_41" style="mask-type:luminance" maskUnits="userSpaceOnUse" x="135" y="28" width="317" height="321">
<g id="SVGID_00000158711389999288123110000003754687225138163878__5">
<path id="Vector_52" d="M434.211 346.395C434.211 346.395 422.482 348.759 414.087 348.096C412.021 340.692 402.862 341.352 402.862 341.352C402.862 341.352 391.025 345.887 368.552 342.1C362.164 333.095 357.056 333.636 357.056 333.636C357.056 333.636 325.582 331.519 303.183 320.624C304.931 312.149 296.57 307.946 296.57 307.946C296.57 307.946 256.219 302.17 218.069 248.304C197.903 219.831 98.4291 152.988 149.962 102.984C195.919 58.3901 392.551 28.6401 392.551 28.6401L365.844 80.4161C365.844 80.4161 416.89 74.0731 430.062 145.79C442.114 163.168 448.173 194.515 445.251 204.086C452.525 225.639 451.575 234.709 450.764 240.006C453.86 266.998 443.036 326.121 434.211 346.395Z" fill="white"/>
</g>
</mask>
<g mask="url(#mask15_43_41)">
<path id="Vector_53" opacity="0.2" d="M280.925 127.023C280.925 127.023 302.455 134.252 307.556 156.368L327.196 163.85L331.755 191.27C331.755 191.27 353.024 203.115 353.024 204.288C353.024 205.461 339.24 229.406 339.24 229.406L348.456 240.724L354.355 270.442L363.448 275.85L372.198 320.459L384.389 324.276L408.414 335.161C408.414 335.161 417.575 333.5 423.564 335.161C429.553 336.822 427.343 347.489 427.343 347.489L337.566 371.381C337.566 371.381 206.121 260.399 205.535 256.392C204.949 252.385 147.304 161.946 147.304 161.946L280.925 127.023Z" fill="#0B0A0C"/>
</g>
</g>
</g>
<path id="Vector_54" d="M146.474 392.042L272.753 402.366V422.869L145.073 406.787C141.15 406.354 138.255 402.92 138.493 398.98C138.742 394.84 142.34 391.712 146.474 392.042Z" fill="url(#paint1_linear_43_41)"/>
<g id="llantaprincipal">
<path id="Vector_55" d="M311.685 406.48C311.685 442.654 287.507 467.777 256.35 467.777C225.193 467.777 199.936 440.333 199.936 406.48C199.936 372.627 225.194 345.183 256.35 345.183C287.506 345.183 311.685 370.619 311.685 406.48Z" fill="#2D2D2D"/>
<path id="Vector_56" d="M271.549 462.058C293.334 462.058 310.994 437.175 310.994 406.48C310.994 375.785 293.334 350.902 271.549 350.902C249.764 350.902 232.104 375.785 232.104 406.48C232.104 437.175 249.764 462.058 271.549 462.058Z" fill="#3D3D3D"/>
<path id="Vector_57" d="M290.919 406.48C290.919 421.693 283.245 434.026 272.448 434.026C261.651 434.026 252.898 421.693 252.898 406.48C252.898 391.267 261.651 378.934 272.448 378.934C283.246 378.934 290.919 391.267 290.919 406.48Z" fill="#934538"/>
<path id="Vector_58" d="M286.17 406.48C286.17 418.043 278.821 430.798 268.763 430.798C258.706 430.798 252.898 420.651 252.898 406.48C252.898 392.309 258.705 382.417 268.763 382.417C277.667 382.417 286.17 393.999 286.17 406.48Z" fill="#AF5443"/>
<path id="Vector_59" d="M282.263 405.434C282.263 414.729 275.835 417.394 271.76 417.394C266.026 417.394 262.417 412.039 262.417 405.434C262.417 398.829 266.026 393.474 271.76 393.474C275.966 393.475 282.263 396.629 282.263 405.434Z" fill="#934538"/>
<path id="Vector_60" d="M281.474 405.434C281.474 411.974 278.941 413.849 277.335 413.849C275.075 413.849 273.653 410.082 273.653 405.434C273.653 400.786 275.075 397.019 277.335 397.019C278.992 397.019 281.474 399.239 281.474 405.434Z" fill="#AF5443"/>
<path id="Vector_61" opacity="0.2" d="M286.607 388.447C283.7 384.348 278.376 376.866 269.616 379.226C260.856 381.586 256.33 388.409 253.902 397.019C251.474 405.629 253 421.158 259.108 426.614C251.278 409.392 256.104 399.56 260.047 393.474C263.906 387.518 269.825 385.399 276.726 385.467L286.607 388.447Z" fill="#0B0A0C"/>
</g>
<g id="Group_14">
<path id="Vector_62" d="M182.773 5.80005H181.97L175.871 106.596L187.822 106.81L182.773 5.80005Z" fill="#8F3C81"/>
<path id="Vector_63" d="M229.586 131.262C229.586 146.344 207.668 158.57 180.632 158.57C153.595 158.57 131.677 146.344 131.677 131.262C131.677 116.18 153.595 94.3159 180.632 94.3159C207.668 94.3159 229.586 116.18 229.586 131.262Z" fill="#B547B2"/>
<g id="Group_15">
<g id="Clip path group_17">
<mask id="mask16_43_41" style="mask-type:luminance" maskUnits="userSpaceOnUse" x="176" y="0" width="13" height="12">
<g id="SVGID_00000038399804466721620390000004181689957287014067_">
<path id="Vector_64" d="M182.325 11.474C185.493 11.474 188.062 8.90546 188.062 5.737C188.062 2.56854 185.493 0 182.325 0C179.156 0 176.588 2.56854 176.588 5.737C176.588 8.90546 179.156 11.474 182.325 11.474Z" fill="white"/>
</g>
</mask>
<g mask="url(#mask16_43_41)">
<path id="Vector_65" d="M182.325 11.474C185.493 11.474 188.062 8.90546 188.062 5.737C188.062 2.56854 185.493 0 182.325 0C179.156 0 176.588 2.56854 176.588 5.737C176.588 8.90546 179.156 11.474 182.325 11.474Z" fill="#B547B2"/>
</g>
</g>
<g id="Clip path group_18">
<mask id="mask17_43_41" style="mask-type:luminance" maskUnits="userSpaceOnUse" x="176" y="0" width="13" height="12">
<g id="SVGID_00000038399804466721620390000004181689957287014067__2">
<path id="Vector_66" d="M182.325 11.474C185.493 11.474 188.062 8.90546 188.062 5.737C188.062 2.56854 185.493 0 182.325 0C179.156 0 176.588 2.56854 176.588 5.737C176.588 8.90546 179.156 11.474 182.325 11.474Z" fill="white"/>
</g>
</mask>
<g mask="url(#mask17_43_41)">
<path id="Vector_67" opacity="0.1" d="M187.305 2.49103C188.16 4.92303 186.409 7.75303 183.395 8.81403C180.38 9.87403 177.243 8.76306 176.387 6.33106C175.532 3.89906 177.282 1.06906 180.297 0.00805819C183.312 -1.05194 186.45 0.0600295 187.305 2.49103Z" fill="white"/>
</g>
</g>
<g id="Clip path group_19">
<mask id="mask18_43_41" style="mask-type:luminance" maskUnits="userSpaceOnUse" x="176" y="0" width="13" height="12">
<g id="SVGID_00000038399804466721620390000004181689957287014067__3">
<path id="Vector_68" d="M182.325 11.474C185.493 11.474 188.062 8.90546 188.062 5.737C188.062 2.56854 185.493 0 182.325 0C179.156 0 176.588 2.56854 176.588 5.737C176.588 8.90546 179.156 11.474 182.325 11.474Z" fill="white"/>
</g>
</mask>
<g mask="url(#mask18_43_41)">
<path id="Vector_69" opacity="0.2" d="M183.519 0.607045C184.743 1.96205 184.347 4.31603 182.634 5.86303C180.921 7.41103 178.539 7.56605 177.315 6.21105C176.091 4.85605 176.487 2.50201 178.2 0.955007C179.913 -0.592993 182.294 -0.748955 183.519 0.607045Z" fill="white"/>
</g>
</g>
</g>
</g>
<g id="Group_16">
<path id="Vector_70" d="M334.548 325.719L292.951 335.16L285.428 319.45L334.548 325.719Z" fill="#CC6B5E"/>
<path id="Vector_71" d="M271.412 115.625L175.682 95.9761L177.262 139.962L271.779 156.368L271.412 115.625Z" fill="#AF5443"/>
<path id="Vector_72" d="M193.22 161.282L89.8018 151.045L177.262 140.183L271.779 156.368L193.22 161.282Z" fill="#7C352C"/>
<path id="Vector_73" d="M90.5448 114.795L175.682 95.9761L177.262 139.962L89.8018 151.045L90.5448 114.795Z" fill="#DC7E68"/>
<path id="Vector_74" d="M90.772 116.406L126.556 108.602L126.64 146.498L90.772 149.206V116.406Z" fill="url(#paint2_linear_43_41)"/>
<path id="Vector_75" d="M308.726 293.368L305.547 209.007L253.124 285.213L276.725 298.578L308.726 293.368Z" fill="#AF5443"/>
<path id="Vector_76" d="M308.726 293.368L292.951 335.16L276.725 298.578L283.236 282.512L308.726 293.368Z" fill="#934538"/>
<path id="Vector_77" d="M305.547 209.007L253.124 183.651L222.147 160.485L278.348 188.242L305.547 209.007Z" fill="#CC6B5E"/>
<path id="Vector_78" d="M266.379 149.206L222.762 136.467L222.478 160.485L266.379 182.34V149.206Z" fill="#934538"/>
<g id="Group_17">
<g id="Clip path group_20">
<mask id="mask19_43_41" style="mask-type:luminance" maskUnits="userSpaceOnUse" x="90" y="108" width="37" height="42">
<g id="SVGID_00000121281652641815784970000014510624067491285677_">
<path id="Vector_79" d="M90.772 116.406L126.556 108.602L126.64 146.498L90.772 149.206V116.406Z" fill="white"/>
</g>
</mask>
<g mask="url(#mask19_43_41)">
<g id="Group_18">
<path id="Vector_80" d="M90.772 116.406L98.621 117.087V149.89L90.772 149.206V116.406Z" fill="#934538"/>
<path id="Vector_81" opacity="0.15" d="M90.772 116.406L98.621 117.087V149.89L90.772 149.206V116.406Z" fill="white"/>
<path id="Vector_82" d="M91.9561 116.406L98.106 117.087L129.033 110.506V107.113L91.9561 116.406Z" fill="#934538"/>
<g id="Group_19">
<path id="Vector_83" d="M101.975 115.658L100.896 153.937H101.78L101.975 115.658Z" fill="#161616"/>
<path id="Vector_84" d="M112.354 113.235V153.937H112.401L112.354 113.235Z" fill="#161616"/>
<path id="Vector_85" d="M124.128 111.225L122.137 152.956H124.128V111.225Z" fill="#161616"/>
<path id="Vector_86" d="M116.279 112.733H117.712L116.279 151.955V112.733Z" fill="#161616"/>
<path id="Vector_87" d="M106.469 114.695H107.091L106.469 153.725V114.695Z" fill="#161616"/>
<path id="Vector_88" d="M132.898 113L133.108 113.86L97.0889 121.88L132.898 113Z" fill="#161616"/>
<path id="Vector_89" d="M134.715 122.031L134.917 122.893L97.0889 130.988L134.715 122.031Z" fill="#161616"/>
<path id="Vector_90" d="M134.072 133.703L134.233 134.573L97.356 140.485L134.072 133.703Z" fill="#161616"/>
<path id="Vector_91" d="M134.957 128.392L96.8687 135.24L97.0457 135.964L134.957 128.392Z" fill="#161616"/>
<path id="Vector_92" d="M132.757 118.657L96.6587 125.877V125.029L132.757 118.657Z" fill="#161616"/>
<path id="Vector_93" d="M136.572 138.946L95.6777 145.731V145.096L136.572 138.946Z" fill="#161616"/>
</g>
</g>
</g>
</g>
</g>
<path id="Vector_94" d="M316.39 370.582L292.951 335.16L334.548 325.719L366.852 348.029L316.39 370.582Z" fill="#DC7E68"/>
<path id="Vector_95" d="M316.39 370.582L292.951 335.16L222.841 337.629L236.061 355.511C265.182 333.118 299.732 350.902 316.39 370.582Z" fill="#934538"/>
<path id="Vector_96" d="M316.39 370.582L367.721 350.902L392.349 352.368L366.852 348.029L316.39 370.582Z" fill="#934538"/>
<path id="Vector_97" d="M334.548 325.719L390.024 346.961L392.349 352.368L366.852 348.029L334.548 325.719Z" fill="#AF5443"/>
<g id="Group_20">
<g id="Clip path group_21">
<mask id="mask20_43_41" style="mask-type:luminance" maskUnits="userSpaceOnUse" x="129" y="98" width="46" height="47">
<g id="SVGID_00000080175231578077535840000002122113682268787390_">
<path id="Vector_98" d="M129.714 108.241L173.027 98.6311L174.26 139.601L129.213 144.536L129.714 108.241Z" fill="white"/>
</g>
</mask>
<g mask="url(#mask20_43_41)">
<g id="Group_21">
<path id="Vector_99" d="M129.714 108.241L173.027 98.6311L174.26 139.601L129.213 144.536L129.714 108.241Z" fill="url(#paint3_linear_43_41)"/>
<path id="Vector_100" d="M129.714 108.241L136.74 109.326L137.478 145.023L129.213 144.536L129.714 108.241Z" fill="#934538"/>
<path id="Vector_101" opacity="0.15" d="M129.714 108.241L136.74 109.326L137.478 145.023L129.213 144.536L129.714 108.241Z" fill="white"/>
<path id="Vector_102" d="M129.665 108.241L136.666 109.326L174.161 101.803V97.5251L129.665 108.241Z" fill="#934538"/>
<g id="Group_22">
<path id="Vector_103" d="M142.768 107.344V148.051H144.169L142.768 107.344Z" fill="#161616"/>
<path id="Vector_104" d="M155.747 104.578L155.769 146.327L155.472 145.728L155.747 104.578Z" fill="#161616"/>
<path id="Vector_105" d="M167.096 102.356L168.829 144.322L168.055 144.302L167.096 102.356Z" fill="#161616"/>
<path id="Vector_106" d="M160.956 103.748L161.634 103.777L162.185 145.023L160.956 103.748Z" fill="#161616"/>
<path id="Vector_107" d="M149.27 105.878L150.024 105.905L149.574 146.645L149.27 105.878Z" fill="#161616"/>
<path id="Vector_108" d="M176.714 105.563L176.9 106.428L135.597 114.416L176.714 105.563Z" fill="#161616"/>
<path id="Vector_109" d="M178.29 114.639L178.469 115.506L135.597 123.875L178.29 114.639Z" fill="#161616"/>
<path id="Vector_110" d="M177.336 126.289L177.474 127.164L135.597 134.025L177.336 126.289Z" fill="#161616"/>
<path id="Vector_111" d="M178.665 121.005L135.9 128.55V129.316L178.665 121.005Z" fill="#161616"/>
<path id="Vector_112" d="M176.852 111.225L135.788 118.47L135.78 117.686L176.852 111.225Z" fill="#161616"/>
<path id="Vector_113" d="M180.3 132.9L135.9 138.35V139.286L180.3 132.9Z" fill="#161616"/>
</g>
</g>
</g>
</g>
</g>
<path id="Vector_114" opacity="0.3" d="M129.714 108.241L173.027 98.6311L173.21 104.69L139.757 112.803L138.758 143.49L129.213 144.536L129.714 108.241Z" fill="#0B0A0C"/>
<path id="Vector_115" d="M114.369 144.875L222.542 136.467L222.147 160.485L110.493 161.945L114.369 144.875Z" fill="#CC6B5E"/>
<path id="Vector_116" d="M114.369 144.875L60.9641 163.147L57.9961 176.819L110.493 161.945L114.369 144.875Z" fill="#EA9381"/>
<path id="Vector_117" d="M147.304 184.081L253.124 183.175L222.147 160.485L116.176 157.26L147.304 184.081Z" fill="#DC7E68"/>
<path id="Vector_118" d="M133.053 321.884C145.739 312.739 166.239 292.53 183.425 288.916C200.611 285.302 253.419 272.321 276.726 298.578C300.032 324.834 292.952 335.16 292.952 335.16L252.047 336.625L165.8 370.267C165.8 370.267 113.582 390.033 88.2108 385.313C62.8398 380.593 44.8438 364.662 45.1388 344.306C45.4328 323.949 133.053 321.884 133.053 321.884Z" fill="#AF5443"/>
<path id="Vector_119" opacity="0.15" d="M133.053 321.884C145.739 312.739 166.239 292.53 183.425 288.916C200.611 285.302 253.419 272.321 276.726 298.578C300.032 324.834 292.952 335.16 292.952 335.16L251.912 338.379L165.8 370.267C165.8 370.267 113.582 390.033 88.2108 385.313C62.8398 380.593 44.8438 364.662 45.1388 344.306C45.4328 323.949 133.053 321.884 133.053 321.884Z" fill="url(#paint4_linear_43_41)"/>
<path id="Vector_120" opacity="0.2" d="M45.8618 351.712C53.3548 388.447 112.277 377.04 138.479 362.209C164.681 347.378 192.927 300.463 192.927 300.463L248.975 288.917L276.726 298.579L249.027 285.387L183.501 288.548L45.8618 351.712Z" fill="#0B0A0C"/>
<path id="Vector_121" d="M305.547 209.007L253.124 183.651L252.31 278.082L283.236 282.512L305.547 209.007Z" fill="#BF6056"/>
<path id="Vector_122" d="M276.725 298.578L249.027 285.386L252.31 278.082L283.236 282.512L276.725 298.578Z" fill="#A3493D"/>
<path id="Vector_123" d="M132.048 191.288L111.882 163.821L57.9961 179.335L66.6301 166.115L116.176 157.26L146.814 183.593L248.975 285.386L183.399 288.916L132.048 191.288Z" fill="#934538"/>
<path id="Vector_124" d="M147.304 184.081L253.124 183.175L252.31 278.381L188.442 280.69L147.304 184.081Z" fill="#CC6B5E"/>
<path id="Vector_125" d="M183.425 288.916L249.027 285.386L252.31 278.082L188.442 281.047L183.425 288.916Z" fill="#AF5443"/>
<path id="Vector_126" d="M103.256 345.191C131.672 337.307 139.836 331.905 155.944 319.451C165.425 312.12 176.924 299.394 183.501 288.548C147.061 302.309 108.635 314.907 72.194 328.668C59.168 333.587 39.067 336.109 32.145 348.19C32.145 348.19 52.218 359.351 103.256 345.191Z" fill="#A3493D"/>
<path id="Vector_127" d="M9.20311 219.361L45.1351 182.34L80.9821 217.449L97.3561 325.719L85.9981 339.88L18.0671 337.662L5.01611 325.719L9.20311 219.361Z" fill="url(#paint5_linear_43_41)"/>
<path id="Vector_128" opacity="0.3" d="M21.9811 332.423L23.3841 225.513L57.9961 199.4L44.9541 192.889L14.6811 221.874L13.1611 324.275L21.9811 332.423Z" fill="#0B0A0C"/>
<path id="Vector_129" d="M41.8942 249.36L21.1762 300.416C17.0222 311.209 22.7332 324.133 31.7382 324.318L81.2922 325.333C91.4472 325.541 97.2702 309.789 91.0442 298.95L62.2082 246.878C56.7932 237.45 45.9682 238.773 41.8942 249.36Z" fill="#2D2D2D"/>
<path id="Vector_130" opacity="0.15" d="M46.7679 256.521L28.0019 302.766C24.2399 312.542 29.4119 324.248 37.5679 324.415L82.4519 325.335C91.6499 325.523 96.9239 311.256 91.2849 301.438L65.1669 254.274C60.2629 245.733 50.4579 246.931 46.7679 256.521Z" fill="url(#paint6_linear_43_41)"/>
<path id="Vector_131" d="M2.21297 215.162L34.518 183.633L45.096 192.889L14.752 221.874L13.48 324.275L0.000976562 325.719L2.21297 215.162Z" fill="#934538"/>
<path id="Vector_132" d="M142.788 187.062L70.8042 215.384L97.3562 325.719L183.5 288.548L142.788 187.062Z" fill="#DC7E68"/>
<path id="Vector_133" d="M142.788 187.062L70.8041 215.384L34.5181 183.633L114.172 160.806L142.788 187.062Z" fill="#EA9381"/>
<path id="Vector_134" d="M34.5181 183.633L66.0901 168.543L114.172 160.806L34.5181 183.633Z" fill="#F4A698"/>
<path id="Vector_135" opacity="0.15" d="M2.213 215.162C2.213 216.49 14.751 221.874 14.751 221.874L13.479 324.275L0 325.719L2.213 215.162Z" fill="white"/>
<path id="Vector_136" d="M34.223 335.16C34.223 335.16 47.434 339.783 68.15 337.373C87.179 335.16 97.357 325.719 97.357 325.719C97.357 325.719 90.8029 347.785 66.3799 350.471C48.6789 352.418 14.752 350.648 0.00195312 325.719L13.481 324.275C13.481 324.275 19.029 329.85 34.223 335.16Z" fill="#EA9381"/>
<path id="Vector_137" d="M166.172 368.202C166.172 368.202 192.548 322.258 225.982 317.681C266.399 312.149 299.339 333.71 299.339 333.71L316.389 370.582C316.389 370.582 299.551 339.044 266.13 343.196C243.334 346.028 221.221 362.209 217.866 407.644C193.676 401.744 166.172 368.202 166.172 368.202Z" fill="#CC6B5E"/>
<path id="Vector_138" d="M70.8042 379.808C106.957 398.091 187.531 412.816 217.867 407.644C203.285 400.72 176.458 379.342 166.172 368.202C154.763 376.776 106.56 389.769 70.8042 379.808Z" fill="#934538"/>
<path id="Vector_139" opacity="0.3" d="M126.556 108.602L90.772 116.406V149.162L99.718 148.539L101.781 120.427L126.629 113.193L126.556 108.602Z" fill="#0B0A0C"/>
</g>
<path id="Vector_140" d="M70.804 215.384L34.517 183.633L2.213 215.163L0 325.72C0 325.72 9.792 347.72 47.931 351.067C91.754 354.913 97.355 325.72 97.355 325.72L70.804 215.384ZM45.096 347.012C10.333 342.196 3.66701 325.159 3.66701 325.159L5.01601 217.249L34.517 188.912L66.899 217.375L92.016 325.547C92.016 325.547 83.762 352.368 45.096 347.012Z" fill="#CC6B5E"/>
<path id="Vector_141" opacity="0.2" d="M319.592 121.522C319.942 122.142 344.308 103.099 344.308 103.099C344.308 103.099 350.311 104.08 353.796 108.403L361.537 101.568L338.949 99.4619L333.818 102.467C333.818 102.467 327.55 102.87 323.58 103.969L316.916 107.61L313.596 116.566C313.596 116.566 317.975 118.658 319.592 121.522Z" fill="#0B0A0C"/>
</g>
</g>
<defs>
<linearGradient id="paint0_linear_43_41" x1="426.257" y1="118.118" x2="296.362" y2="318.138" gradientUnits="userSpaceOnUse">
<stop stop-color="#8F3097"/>
<stop offset="1" stop-color="#4F1657"/>
</linearGradient>
<linearGradient id="paint1_linear_43_41" x1="138.479" y1="407.443" x2="272.753" y2="407.443" gradientUnits="userSpaceOnUse">
<stop stop-color="#8F3097"/>
<stop offset="1" stop-color="#4F1657"/>
</linearGradient>
<linearGradient id="paint2_linear_43_41" x1="90.7724" y1="128.904" x2="126.64" y2="128.904" gradientUnits="userSpaceOnUse">
<stop stop-color="#8F3097"/>
<stop offset="1" stop-color="#4F1657"/>
</linearGradient>
<linearGradient id="paint3_linear_43_41" x1="129.213" y1="121.584" x2="174.26" y2="121.584" gradientUnits="userSpaceOnUse">
<stop stop-color="#8F3097"/>
<stop offset="1" stop-color="#4F1657"/>
</linearGradient>
<linearGradient id="paint4_linear_43_41" x1="137.652" y1="409.586" x2="203.371" y2="261.978" gradientUnits="userSpaceOnUse">
<stop stop-color="white"/>
<stop offset="1" stop-color="white"/>
</linearGradient>
<linearGradient id="paint5_linear_43_41" x1="5.01621" y1="261.11" x2="97.356" y2="261.11" gradientUnits="userSpaceOnUse">
<stop stop-color="#8F3097"/>
<stop offset="1" stop-color="#4F1657"/>
</linearGradient>
<linearGradient id="paint6_linear_43_41" x1="26.7512" y1="286.936" x2="93.6093" y2="286.936" gradientUnits="userSpaceOnUse">
<stop stop-color="white"/>
<stop offset="1" stop-color="white"/>
</linearGradient>
</defs>
</svg>
