<svg width="273" height="588" viewBox="0 0 273 588" fill="none" xmlns="http://www.w3.org/2000/svg">
<g id="cohete">
<g id="Group">
<path id="Vector" d="M176.653 482.259C176.653 482.259 176.497 410.504 124.781 346.576C61.8854 268.828 162.562 283.966 162.562 283.966C155.925 274.506 239.754 402.045 176.653 482.259Z" fill="#823479"/>
<path id="Vector_2" d="M176.653 482.259C176.653 482.259 189.143 410.297 139.374 343.024C79.7398 262.419 165.181 283.966 165.181 283.966C157.836 275.303 249.197 388.932 176.653 482.259Z" fill="#631E5E"/>
<path id="Vector_3" opacity="0.2" d="M166.456 437.221C166.456 437.221 155.565 373.086 127.067 346.575C54.4833 279.057 164.847 283.965 164.847 283.965C156.338 275.038 218.032 354.54 166.456 437.221Z" fill="#0B0A0C"/>
<path id="Vector_4" d="M26.6055 479.949C26.6055 479.949 40.3229 402.283 77.0048 371.06C149.895 309.017 52.5089 269.253 52.5089 269.253C52.5089 269.253 -41.4316 358.109 26.6055 479.949Z" fill="url(#paint0_linear_43_766)"/>
<path id="Vector_5" d="M26.6061 479.949C26.6061 479.949 34.7495 402.283 64.9284 371.06C131.852 301.821 43.2189 269.253 43.2189 269.253C43.2189 269.253 -41.431 358.109 26.6061 479.949Z" fill="#823479"/>
<path id="Vector_6" opacity="0.2" d="M48.0675 397.08C48.0675 397.08 55.0887 383.947 64.9286 371.061C123.787 293.973 43.2191 269.254 43.2191 269.254C43.2191 269.254 7.49758 327.792 48.0675 397.08Z" fill="#0B0A0C"/>
<g id="Group_2">
<path id="Vector_7" d="M252.142 285.01C252.142 382.037 201.654 427.232 139.374 427.232C77.0943 427.232 26.606 379.81 26.606 285.01C26.606 168.893 104.233 74.7629 141.232 74.7629C182.464 74.7629 252.142 168.893 252.142 285.01Z" fill="url(#paint1_linear_43_766)"/>
<g id="Clip path group">
<mask id="mask0_43_766" style="mask-type:luminance" maskUnits="userSpaceOnUse" x="26" y="74" width="227" height="354">
<g id="SVGID_00000158025584334059189310000012017291091320089764_">
<path id="Vector_8" d="M252.142 285.01C252.142 382.037 201.654 427.232 139.374 427.232C77.0943 427.232 26.606 379.81 26.606 285.01C26.606 168.893 104.233 74.7629 141.232 74.7629C182.464 74.7629 252.142 168.893 252.142 285.01Z" fill="white"/>
</g>
</mask>
<g mask="url(#mask0_43_766)">
<g id="Group_3">
<path id="Vector_9" opacity="0.2" d="M252.141 330.429C288.373 134.689 72.0455 -56.407 45.0358 52.9811C18.0261 162.37 -28.4246 280.011 -18.2059 308.68C-7.98618 337.349 6.87829 237.461 6.87829 225.764C6.87829 214.066 13.2212 284.347 40.013 200.595C66.3351 118.314 104.214 110.606 126.752 109.855C167.599 108.492 247.495 176.21 252.141 330.429Z" fill="#962245"/>
<path id="Vector_10" opacity="0.2" d="M187.183 80.4866C209.405 158.415 256.379 325.726 151.806 355.143C31.9607 388.856 18.0254 247.551 18.0254 247.551C18.0254 247.551 21.2485 488.498 26.6046 490.527C31.9607 492.555 296.733 463.909 296.733 463.909V128.758L187.183 80.4866Z" fill="#962245"/>
<path id="Vector_11" opacity="0.2" d="M187.183 80.4866C255.857 218.203 240.063 374.6 143.107 390.636C24.839 410.196 104.077 427.232 104.077 427.232C104.077 427.232 21.2494 488.497 26.6054 490.527C31.9615 492.555 296.733 463.909 296.733 463.909V128.758L187.183 80.4866Z" fill="#962245"/>
<path id="Vector_12" opacity="0.2" d="M187.183 80.4866C255.857 218.203 240.063 374.6 143.107 390.636C24.839 410.196 104.077 427.232 104.077 427.232C104.077 427.232 21.2494 488.497 26.6054 490.527C31.9615 492.555 296.733 463.909 296.733 463.909V128.758L187.183 80.4866Z" fill="#962245"/>
<path id="Vector_13" opacity="0.7" d="M187.183 80.4866C276.295 212.839 268.399 414.458 154.593 432.478C36.2075 451.223 104.077 427.232 104.077 427.232C104.077 427.232 21.2494 488.497 26.6054 490.527C31.9615 492.555 296.733 463.909 296.733 463.909V128.758L187.183 80.4866Z" fill="#B547B2"/>
<path id="Vector_14" opacity="0.2" d="M232.631 167.313C254.671 110.225 72.0445 -56.4069 45.0349 52.9813C18.0252 162.37 -28.4256 280.011 -18.2068 308.681C-7.98716 337.349 57.9738 445.762 57.9738 434.064C57.9738 422.367 22.671 316.589 48.6833 232.56C74.6956 148.53 100.371 106.074 143.106 89.1836C185.842 72.2928 232.631 167.313 232.631 167.313Z" fill="white"/>
<path id="Vector_15" opacity="0.2" d="M139.373 101.691C164.909 101.81 202.105 120.826 195.453 214.765C192.382 258.139 154.055 317.957 94.2065 313.623C39.1936 309.639 1.03891 252.99 31.3873 190.38C61.7356 127.769 105.946 101.536 139.373 101.691Z" fill="white"/>
<path id="Vector_16" opacity="0.4" d="M130.464 83.2734C156 83.3923 181.46 112.095 177.745 193.388C175.759 236.834 153.98 282.081 94.1329 277.747C39.12 273.763 26.8421 217.114 45.2716 173.616C72.4831 109.394 97.0387 83.1192 130.464 83.2734Z" fill="url(#paint2_radial_43_766)"/>
<path id="Vector_17" opacity="0.4" d="M130.465 83.2734C156 83.3923 222.692 151.491 228.866 232.615C245.37 449.456 129.409 445.827 77.507 408.08C5.70973 355.863 26.8414 217.113 45.2709 173.616C72.4833 109.394 97.0389 83.1192 130.465 83.2734Z" fill="url(#paint3_radial_43_766)"/>
</g>
</g>
</g>
<g id="Clip path group_2">
<mask id="mask1_43_766" style="mask-type:luminance" maskUnits="userSpaceOnUse" x="26" y="74" width="227" height="354">
<g id="SVGID_00000158025584334059189310000012017291091320089764__2">
<path id="Vector_18" d="M252.142 285.01C252.142 382.037 201.654 427.232 139.374 427.232C77.0943 427.232 26.606 379.81 26.606 285.01C26.606 168.893 104.233 74.7629 141.232 74.7629C182.464 74.7629 252.142 168.893 252.142 285.01Z" fill="white"/>
</g>
</mask>
<g mask="url(#mask1_43_766)">
<path id="Vector_19" opacity="0.2" d="M23.4463 293.209C31.874 294.813 258.645 293.209 258.645 293.209L257.392 275.325L23.4463 281.659V293.209Z" fill="#0B0A0C"/>
</g>
</g>
</g>
<path id="Vector_20" d="M139.374 439.665C131.147 439.665 126.137 439.235 118.271 436.988C118.271 445.111 125.584 451.695 130.021 451.695H148.728C153.166 451.695 160.479 445.111 160.479 436.988C152.324 439.467 148.692 439.665 139.374 439.665Z" fill="url(#paint4_linear_43_766)"/>
<path id="Vector_21" opacity="0.2" d="M139.374 439.665C131.147 439.665 126.137 439.235 118.271 436.988C118.271 445.111 123.396 446.205 127.434 446.835L148.728 447.453C153.166 447.453 160.479 446.835 160.479 436.989C152.324 439.467 148.692 439.665 139.374 439.665Z" fill="#0B0A0C"/>
<path id="Vector_22" d="M139.374 427.803C122.939 427.803 112.927 427.372 97.2114 425.126C97.2114 433.248 104.397 439.832 113.262 439.832H165.483C174.348 439.832 181.534 433.248 181.534 425.126C165.244 427.603 157.99 427.803 139.374 427.803Z" fill="url(#paint5_linear_43_766)"/>
<path id="Vector_23" opacity="0.2" d="M139.374 427.803C122.939 427.803 112.927 427.372 97.2114 425.126C97.2114 433.248 104.397 435.878 113.262 435.878L165.483 436.866C174.348 436.866 181.534 433.248 181.534 425.126C165.244 427.603 157.99 427.803 139.374 427.803Z" fill="#0B0A0C"/>
<path id="Vector_24" d="M139.374 414.623C116.503 414.623 102.572 413.927 80.7031 410.296C80.7031 423.422 90.7031 434.063 103.039 434.063H175.709C188.045 434.063 198.045 423.422 198.045 410.296C175.375 414.301 165.279 414.623 139.374 414.623Z" fill="url(#paint6_linear_43_766)"/>
<path id="Vector_25" opacity="0.2" d="M139.374 414.623C116.503 414.623 102.572 413.927 80.7031 410.296C80.7031 414.979 90.5998 418.806 106.854 420.645C107.813 420.754 108.779 420.823 109.743 420.867L159.475 423.167C190.208 423.167 198.045 419.73 198.045 410.295C175.375 414.301 165.279 414.623 139.374 414.623Z" fill="#0B0A0C"/>
<path id="Vector_26" d="M140.738 3.37646H140.361L137.5 62.168L143.107 62.1468L140.738 3.37646Z" fill="#8F3C81"/>
<path id="Vector_27" d="M164.828 79.5945C164.828 90.4583 153.847 73.7993 140.303 73.7993C126.759 73.7993 115.779 90.4583 115.779 79.5945C115.779 68.7308 126.759 52.981 140.303 52.981C153.848 52.981 164.828 68.7308 164.828 79.5945Z" fill="#B547B2"/>
<g id="Group_4">
<g id="Clip path group_3">
<mask id="mask2_43_766" style="mask-type:luminance" maskUnits="userSpaceOnUse" x="136" y="0" width="8" height="8">
<g id="SVGID_00000167374254760229547950000003987236683818581404_">
<path id="Vector_28" d="M140.304 7.06911C142.139 7.06911 143.626 5.48664 143.626 3.53456C143.626 1.58247 142.139 0 140.304 0C138.47 0 136.982 1.58247 136.982 3.53456C136.982 5.48664 138.47 7.06911 140.304 7.06911Z" fill="white"/>
</g>
</mask>
<g mask="url(#mask2_43_766)">
<path id="Vector_29" d="M143.301 3.7008C143.301 5.56131 141.885 7.06905 140.136 7.06905C138.388 7.06905 136.971 5.56131 136.971 3.7008C136.971 1.84029 138.388 0.33252 140.136 0.33252C141.885 0.33252 143.301 1.84029 143.301 3.7008Z" fill="#B547B2"/>
</g>
</g>
<g id="Clip path group_4">
<mask id="mask3_43_766" style="mask-type:luminance" maskUnits="userSpaceOnUse" x="136" y="0" width="8" height="8">
<g id="SVGID_00000167374254760229547950000003987236683818581404__2">
<path id="Vector_30" d="M140.304 7.06911C142.139 7.06911 143.626 5.48664 143.626 3.53456C143.626 1.58247 142.139 0 140.304 0C138.47 0 136.982 1.58247 136.982 3.53456C136.982 5.48664 138.47 7.06911 140.304 7.06911Z" fill="white"/>
</g>
</mask>
<g mask="url(#mask3_43_766)">
<path id="Vector_31" opacity="0.1" d="M142.883 2.02179C143.355 3.44892 142.389 5.1119 140.726 5.73375C139.062 6.35661 137.331 5.7035 136.859 4.27637C136.388 2.84823 137.354 1.18629 139.017 0.564438C140.68 -0.0584202 142.412 0.593649 142.883 2.02179Z" fill="white"/>
</g>
</g>
<g id="Clip path group_5">
<mask id="mask4_43_766" style="mask-type:luminance" maskUnits="userSpaceOnUse" x="136" y="0" width="8" height="8">
<g id="SVGID_00000167374254760229547950000003987236683818581404__3">
<path id="Vector_32" d="M140.304 7.06911C142.139 7.06911 143.626 5.48664 143.626 3.53456C143.626 1.58247 142.139 0 140.304 0C138.47 0 136.982 1.58247 136.982 3.53456C136.982 5.48664 138.47 7.06911 140.304 7.06911Z" fill="white"/>
</g>
</mask>
<g mask="url(#mask4_43_766)">
<path id="Vector_33" opacity="0.2" d="M140.794 0.915056C141.469 1.71127 141.251 3.09205 140.305 4.00114C139.36 4.90922 138.046 5.00091 137.37 4.2057C136.695 3.4105 136.914 2.02875 137.859 1.11966C138.805 0.210565 140.119 0.118847 140.794 0.915056Z" fill="white"/>
</g>
</g>
</g>
<g id="Group_5">
<path id="Vector_34" opacity="0.3" d="M85.79 116.163C97.3622 108.873 138.468 84.1169 195.454 112.972C193.474 105.965 191.118 102.07 191.118 102.07C191.118 102.07 123.391 76.824 105.073 92.1657C88.4392 106.095 85.79 116.163 85.79 116.163Z" fill="#0B0A0C"/>
<path id="Vector_35" d="M194.371 110.321C168.52 93.4629 116.499 92.0649 86.7518 113.625L83.6973 115.215C83.6973 115.215 108.857 63.1494 141.278 63.1494C171.984 63.1494 196.91 110.871 196.91 110.871L194.371 110.321Z" fill="url(#paint7_linear_43_766)"/>
<g id="Group_6">
<g id="Clip path group_6">
<mask id="mask5_43_766" style="mask-type:luminance" maskUnits="userSpaceOnUse" x="83" y="57" width="114" height="59">
<g id="SVGID_00000145019851787806491830000015862301563860783263_">
<path id="Vector_36" d="M196.91 110.871C169.689 90.5662 115.322 87.9942 83.6973 115.215C84.5412 108.57 106.214 57.45 141.278 57.45C174.826 57.451 196.91 103.97 196.91 110.871Z" fill="white"/>
</g>
</mask>
<g mask="url(#mask5_43_766)">
<path id="Vector_37" d="M196.91 110.871C169.689 90.5662 115.322 87.9942 83.6973 115.215C84.5412 108.57 106.214 57.45 141.278 57.45C174.826 57.451 196.91 103.97 196.91 110.871Z" fill="url(#paint8_linear_43_766)"/>
</g>
</g>
<g id="Clip path group_7">
<mask id="mask6_43_766" style="mask-type:luminance" maskUnits="userSpaceOnUse" x="83" y="57" width="114" height="59">
<g id="SVGID_00000145019851787806491830000015862301563860783263__2">
<path id="Vector_38" d="M196.91 110.871C169.689 90.5662 115.322 87.9942 83.6973 115.215C84.5412 108.57 106.214 57.45 141.278 57.45C174.826 57.451 196.91 103.97 196.91 110.871Z" fill="white"/>
</g>
</mask>
<g mask="url(#mask6_43_766)">
<path id="Vector_39" opacity="0.4" d="M118.776 127.11C106.607 130.201 89.6927 119.426 83.6982 115.217C84.5421 108.571 121.606 12.9782 170.375 69.5646C137.28 49.8024 118.049 115.217 118.776 127.11Z" fill="url(#paint9_radial_43_766)"/>
</g>
</g>
<g id="Clip path group_8">
<mask id="mask7_43_766" style="mask-type:luminance" maskUnits="userSpaceOnUse" x="83" y="57" width="114" height="59">
<g id="SVGID_00000145019851787806491830000015862301563860783263__3">
<path id="Vector_40" d="M196.91 110.871C169.689 90.5662 115.322 87.9942 83.6973 115.215C84.5412 108.57 106.214 57.45 141.278 57.45C174.826 57.451 196.91 103.97 196.91 110.871Z" fill="white"/>
</g>
</mask>
<g mask="url(#mask7_43_766)">
<path id="Vector_41" opacity="0.2" d="M83.6971 115.216C75.8443 74.252 174.655 -30.9989 196.91 110.872C174.655 50.5007 118.991 46.7747 83.6971 115.216Z" fill="#BF2B52"/>
</g>
</g>
<g id="Clip path group_9">
<mask id="mask8_43_766" style="mask-type:luminance" maskUnits="userSpaceOnUse" x="83" y="57" width="114" height="59">
<g id="SVGID_00000145019851787806491830000015862301563860783263__4">
<path id="Vector_42" d="M196.91 110.871C169.689 90.5662 115.322 87.9942 83.6973 115.215C84.5412 108.57 106.214 57.45 141.278 57.45C174.826 57.451 196.91 103.97 196.91 110.871Z" fill="white"/>
</g>
</mask>
<g mask="url(#mask8_43_766)">
<path id="Vector_43" opacity="0.2" d="M173.418 109.181C168.441 71.0804 157.816 61.1872 148.529 51.8726C143.75 47.0812 187.752 52.4843 196.911 110.871C184.231 110.394 178.13 108.548 173.418 109.181Z" fill="#962245"/>
</g>
</g>
<g id="Clip path group_10">
<mask id="mask9_43_766" style="mask-type:luminance" maskUnits="userSpaceOnUse" x="83" y="57" width="114" height="59">
<g id="SVGID_00000145019851787806491830000015862301563860783263__5">
<path id="Vector_44" d="M196.91 110.871C169.689 90.5662 115.322 87.9942 83.6973 115.215C84.5412 108.57 106.214 57.45 141.278 57.45C174.826 57.451 196.91 103.97 196.91 110.871Z" fill="white"/>
</g>
</mask>
<g mask="url(#mask9_43_766)">
<path id="Vector_45" opacity="0.7" d="M190.089 114.553C185.112 76.4531 166.256 66.7645 156.968 57.4499C152.189 52.6585 187.751 52.4832 196.911 110.871C184.23 110.394 194.8 113.92 190.089 114.553Z" fill="#B547B2"/>
</g>
</g>
<g id="Clip path group_11">
<mask id="mask10_43_766" style="mask-type:luminance" maskUnits="userSpaceOnUse" x="83" y="57" width="114" height="59">
<g id="SVGID_00000145019851787806491830000015862301563860783263__6">
<path id="Vector_46" d="M196.91 110.871C169.689 90.5662 115.322 87.9942 83.6973 115.215C84.5412 108.57 106.214 57.45 141.278 57.45C174.826 57.451 196.91 103.97 196.91 110.871Z" fill="white"/>
</g>
</mask>
<g mask="url(#mask10_43_766)">
<path id="Vector_47" opacity="0.4" d="M138.841 61.0542C118.92 60.6077 107.282 73.3208 104.568 85.4293C101.214 100.4 119.937 92.8804 124.436 88.4559C128.935 84.0324 145.193 61.1963 138.841 61.0542Z" fill="url(#paint10_radial_43_766)"/>
</g>
</g>
</g>
</g>
<path id="Vector_48" d="M234.537 497.308C234.537 497.308 253.735 423.356 231.568 283.966L252.136 283.278C252.136 283.278 307.044 407.231 234.537 497.308Z" fill="url(#paint11_linear_43_766)"/>
<path id="Vector_49" d="M234.537 497.308C234.537 497.308 224.294 414.179 207.444 390.637C239.823 326.546 231.567 283.966 231.567 283.966C231.567 283.966 287.511 392.876 234.537 497.308Z" fill="#823479"/>
<path id="Vector_50" opacity="0.2" d="M57.9465 183.077C66.0768 152.177 95.1815 131.419 121.135 139.151C147.089 146.884 164.747 178.747 155.296 213.722C146.962 244.56 114.034 263.256 88.6358 254.139C63.0989 244.972 49.8162 213.976 57.9465 183.077Z" fill="#0B0A0C"/>
<path id="Vector_51" d="M54.5603 181.275C62.6906 150.375 91.301 129.47 116.669 137.028C142.038 144.586 161.18 174.104 151.366 211.337C143.222 242.233 110.757 260.972 84.2173 252.03C59.1028 243.568 46.4301 212.175 54.5603 181.275Z" fill="url(#paint12_linear_43_766)"/>
<path id="Vector_52" d="M52.7445 179.948C60.8075 149.303 88.9452 128.499 113.825 135.912C138.703 143.325 157.413 172.518 147.679 209.444C139.603 240.085 107.688 258.753 81.6626 249.972C57.0341 241.663 44.6805 210.593 52.7445 179.948Z" fill="url(#paint13_linear_43_766)"/>
<g id="Group_7">
<path id="Vector_53" d="M147.917 191.999C147.917 194.196 146.244 195.975 144.18 195.975C142.117 195.975 140.444 194.196 140.444 191.999C140.444 189.803 142.117 188.023 144.18 188.023C146.244 188.023 147.917 189.803 147.917 191.999Z" fill="#682563"/>
<path id="Vector_54" d="M148.129 192.226C148.129 194.422 146.456 196.201 144.392 196.201C142.328 196.201 140.656 194.422 140.656 192.226C140.656 190.029 142.328 188.25 144.392 188.25C146.456 188.25 148.129 190.029 148.129 192.226Z" fill="url(#paint14_linear_43_766)"/>
<path id="Vector_55" d="M141.423 194.667L146.494 188.938L146.96 189.321L147.396 189.862L141.645 194.916L141.423 194.667Z" fill="url(#paint15_linear_43_766)"/>
</g>
<g id="Group_8">
<path id="Vector_56" d="M143.039 165.277C143.039 167.381 141.435 169.088 139.458 169.088C137.48 169.088 135.876 167.381 135.876 165.277C135.876 163.173 137.48 161.466 139.458 161.466C141.435 161.466 143.039 163.173 143.039 165.277Z" fill="#682563"/>
<path id="Vector_57" d="M142.871 165.212C142.871 167.316 141.268 169.022 139.29 169.022C137.313 169.022 135.709 167.316 135.709 165.212C135.709 163.107 137.313 161.401 139.29 161.401C141.268 161.401 142.871 163.107 142.871 165.212Z" fill="url(#paint16_linear_43_766)"/>
<path id="Vector_58" d="M136.444 167.553L141.305 162.061L141.752 162.429L142.17 162.947L136.657 167.792L136.444 167.553Z" fill="url(#paint17_linear_43_766)"/>
</g>
<g id="Group_9">
<path id="Vector_59" d="M127.96 149.508C126.629 150.576 124.736 150.292 123.732 148.875C122.729 147.458 122.995 145.445 124.327 144.376C125.659 143.309 127.551 143.592 128.555 145.009C129.557 146.426 129.291 148.441 127.96 149.508Z" fill="#682563"/>
<path id="Vector_60" d="M127.794 149.508C126.462 150.576 124.57 150.292 123.566 148.875C122.563 147.458 122.829 145.445 124.16 144.376C125.492 143.309 127.385 143.592 128.389 145.009C129.392 146.426 129.125 148.441 127.794 149.508Z" fill="url(#paint18_linear_43_766)"/>
<path id="Vector_61" d="M123.052 146.092L128.993 146.787L128.987 147.294L128.872 147.856L123.01 146.365L123.052 146.092Z" fill="url(#paint19_linear_43_766)"/>
</g>
<g id="Group_10">
<path id="Vector_62" d="M108.723 143.862C107.058 143.768 105.779 142.256 105.868 140.484C105.956 138.713 107.376 137.352 109.041 137.446C110.706 137.539 111.985 139.051 111.897 140.823C111.809 142.595 110.388 143.955 108.723 143.862Z" fill="#682563"/>
<path id="Vector_63" d="M108.543 144.034C106.878 143.94 105.6 142.429 105.688 140.657C105.776 138.885 107.197 137.524 108.862 137.618C110.527 137.712 111.805 139.224 111.717 140.995C111.629 142.767 110.208 144.128 108.543 144.034Z" fill="url(#paint20_linear_43_766)"/>
<path id="Vector_64" d="M106.977 138.173L111.107 142.77L110.795 143.154L110.367 143.506L106.779 138.353L106.977 138.173Z" fill="url(#paint21_linear_43_766)"/>
</g>
<g id="Group_11">
<path id="Vector_65" d="M89.8624 143.011C88.6832 141.757 88.6832 139.723 89.8624 138.469C91.0416 137.214 92.953 137.214 94.1313 138.469C95.3095 139.724 95.3105 141.758 94.1313 143.011C92.953 144.266 91.0416 144.266 89.8624 143.011Z" fill="#682563"/>
<path id="Vector_66" d="M91.7554 143.953C93.4225 143.953 94.7739 142.515 94.7739 140.741C94.7739 138.967 93.4225 137.529 91.7554 137.529C90.0883 137.529 88.7368 138.967 88.7368 140.741C88.7368 142.515 90.0883 143.953 91.7554 143.953Z" fill="url(#paint22_linear_43_766)"/>
<path id="Vector_67" d="M92.1397 137.54L92.3197 143.896L91.8471 143.961L91.3071 143.916L91.8792 137.533L92.1397 137.54Z" fill="url(#paint23_linear_43_766)"/>
</g>
<g id="Group_12">
<path id="Vector_68" d="M140.444 219.805C140.444 222.001 138.772 223.781 136.708 223.781C134.644 223.781 132.971 222.001 132.971 219.805C132.971 217.609 134.644 215.829 136.708 215.829C138.772 215.829 140.444 217.609 140.444 219.805Z" fill="#682563"/>
<path id="Vector_69" d="M140.655 220.03C140.655 222.226 138.982 224.006 136.919 224.006C134.855 224.006 133.182 222.226 133.182 220.03C133.182 217.834 134.855 216.054 136.919 216.054C138.982 216.054 140.655 217.834 140.655 220.03Z" fill="url(#paint24_linear_43_766)"/>
<path id="Vector_70" d="M133.95 222.473L139.021 216.742L139.488 217.126L139.923 217.667L134.172 222.722L133.95 222.473Z" fill="url(#paint25_linear_43_766)"/>
</g>
<g id="Group_13">
<path id="Vector_71" d="M125.018 238.199C125.018 240.185 123.505 241.796 121.638 241.796C119.771 241.796 118.258 240.185 118.258 238.199C118.258 236.212 119.771 234.602 121.638 234.602C123.505 234.602 125.018 236.212 125.018 238.199Z" fill="#682563"/>
<path id="Vector_72" d="M125.21 238.403C125.21 240.389 123.697 242 121.83 242C119.963 242 118.45 240.389 118.45 238.403C118.45 236.416 119.963 234.806 121.83 234.806C123.697 234.806 125.21 236.416 125.21 238.403Z" fill="url(#paint26_linear_43_766)"/>
<path id="Vector_73" d="M119.144 240.613L123.732 235.428L124.153 235.775L124.548 236.265L119.344 240.837L119.144 240.613Z" fill="url(#paint27_linear_43_766)"/>
</g>
<g id="Group_14">
<path id="Vector_74" d="M98.7508 250.448C97.1293 249.464 96.5649 247.268 97.4893 245.541C98.4146 243.816 100.478 243.215 102.101 244.199C103.723 245.182 104.287 247.379 103.362 249.106C102.437 250.832 100.372 251.433 98.7508 250.448Z" fill="#682563"/>
<path id="Vector_75" d="M98.4896 250.525C96.868 249.54 96.3036 247.344 97.228 245.618C98.1534 243.892 100.217 243.292 101.84 244.275C103.461 245.26 104.026 247.457 103.101 249.183C102.176 250.908 100.111 251.509 98.4896 250.525Z" fill="url(#paint28_linear_43_766)"/>
<path id="Vector_76" d="M99.6914 243.822L101.65 250.631L101.158 250.849L100.564 250.971L99.4082 243.896L99.6914 243.822Z" fill="url(#paint29_linear_43_766)"/>
</g>
<g id="Group_15">
<path id="Vector_77" d="M79.8216 248.45C78.3185 247.271 77.9974 245.02 79.1047 243.42C80.2119 241.821 82.3278 241.479 83.8309 242.657C85.334 243.836 85.655 246.087 84.5478 247.687C83.4416 249.287 81.3247 249.628 79.8216 248.45Z" fill="#682563"/>
<path id="Vector_78" d="M79.555 248.493C78.0519 247.315 77.7308 245.062 78.8381 243.463C79.9453 241.863 82.0612 241.522 83.5643 242.701C85.0674 243.879 85.3885 246.131 84.2803 247.73C83.174 249.331 81.0581 249.671 79.555 248.493Z" fill="url(#paint30_linear_43_766)"/>
<path id="Vector_79" d="M81.4813 241.984L82.6822 248.99L82.1688 249.145L81.5655 249.194L81.1914 242.024L81.4813 241.984Z" fill="url(#paint31_linear_43_766)"/>
</g>
<g id="Group_16">
<path id="Vector_80" d="M62.8095 233.591C63.4005 231.706 65.3156 230.689 67.0868 231.318C68.858 231.947 69.8136 233.985 69.2226 235.869C68.6316 237.754 66.7164 238.771 64.9452 238.142C63.1741 237.513 62.2175 235.475 62.8095 233.591Z" fill="#682563"/>
<path id="Vector_81" d="M62.6885 233.334C63.2795 231.449 65.1947 230.432 66.9658 231.061C68.737 231.69 69.6926 233.728 69.1016 235.612C68.5106 237.497 66.5955 238.514 64.8243 237.885C63.0532 237.255 62.0975 235.217 62.6885 233.334Z" fill="url(#paint32_linear_43_766)"/>
<path id="Vector_82" d="M69.1004 233.282L63.2063 236.654L62.909 236.182L62.6797 235.584L68.9773 233L69.1004 233.282Z" fill="url(#paint33_linear_43_766)"/>
</g>
<g id="Group_17">
<path id="Vector_83" d="M53.519 218.108C53.4281 216.435 54.6281 215.002 56.1985 214.906C57.7698 214.809 59.1176 216.086 59.2086 217.758C59.2995 219.43 58.0994 220.863 56.529 220.96C54.9567 221.055 53.6099 219.779 53.519 218.108Z" fill="#682563"/>
<path id="Vector_84" d="M53.3486 217.945C53.2577 216.273 54.4577 214.84 56.028 214.743C57.5994 214.646 58.9462 215.923 59.038 217.594C59.1299 219.265 57.929 220.699 56.3586 220.797C54.7863 220.894 53.4395 219.617 53.3486 217.945Z" fill="url(#paint34_linear_43_766)"/>
<path id="Vector_85" d="M58.3522 215.771L54.7294 220.372L54.358 220.101L54.0039 219.711L58.1732 215.592L58.3522 215.771Z" fill="url(#paint35_linear_43_766)"/>
</g>
<g id="Group_18">
<path id="Vector_86" d="M50.6813 199.969C50.4341 198.315 51.494 196.761 53.0482 196.499C54.6025 196.235 56.063 197.363 56.3092 199.017C56.5564 200.671 55.4966 202.225 53.9423 202.487C52.389 202.75 50.9285 201.622 50.6813 199.969Z" fill="#682563"/>
<path id="Vector_87" d="M50.4967 199.827C50.2495 198.173 51.3093 196.619 52.8635 196.357C54.4178 196.095 55.8783 197.221 56.1245 198.875C56.3708 200.529 55.312 202.083 53.7577 202.345C52.2044 202.608 50.7439 201.481 50.4967 199.827Z" fill="url(#paint36_linear_43_766)"/>
<path id="Vector_88" d="M55.2731 197.132L52.0982 202.094L51.7033 201.864L51.314 201.514L55.0779 196.973L55.2731 197.132Z" fill="url(#paint37_linear_43_766)"/>
</g>
<g id="Group_19">
<path id="Vector_89" d="M52.5957 184.916C52.2357 183.285 53.1866 181.654 54.7191 181.272C56.2516 180.889 57.7851 181.901 58.144 183.531C58.504 185.162 57.553 186.794 56.0205 187.176C54.489 187.558 52.9556 186.547 52.5957 184.916Z" fill="#682563"/>
<path id="Vector_90" d="M52.4023 184.788C52.0424 183.157 52.9933 181.526 54.5257 181.144C56.0582 180.761 57.5917 181.773 57.9507 183.403C58.3106 185.034 57.3596 186.666 55.8271 187.048C54.2947 187.43 52.7613 186.418 52.4023 184.788Z" fill="url(#paint38_linear_43_766)"/>
<path id="Vector_91" d="M56.9805 181.731L54.1533 186.926L53.745 186.727L53.332 186.407L56.7749 181.588L56.9805 181.731Z" fill="url(#paint39_linear_43_766)"/>
</g>
<g id="Group_20">
<path id="Vector_92" d="M59.5607 165.305C59.6214 163.632 60.9455 162.328 62.5187 162.392C64.091 162.457 65.3165 163.866 65.2559 165.539C65.1952 167.212 63.8712 168.516 62.298 168.452C60.7257 168.388 59.5001 166.979 59.5607 165.305Z" fill="#682563"/>
<path id="Vector_93" d="M59.406 165.127C59.4666 163.454 60.7907 162.149 62.3639 162.214C63.9362 162.278 65.1618 163.687 65.1012 165.361C65.0406 167.034 63.7164 168.338 62.1432 168.273C60.571 168.21 59.3453 166.801 59.406 165.127Z" fill="url(#paint40_linear_43_766)"/>
<path id="Vector_94" d="M64.584 163.476L60.5615 167.684L60.2167 167.376L59.8984 166.951L64.4211 163.279L64.584 163.476Z" fill="url(#paint41_linear_43_766)"/>
</g>
<g id="Group_21">
<path id="Vector_95" d="M70.6731 152.706C70.1276 151.135 70.8814 149.391 72.358 148.81C73.8337 148.23 75.4732 149.032 76.0187 150.603C76.5643 152.175 75.8104 153.918 74.3338 154.499C72.8572 155.079 71.2187 154.276 70.6731 152.706Z" fill="#682563"/>
<path id="Vector_96" d="M70.4656 152.604C69.9201 151.033 70.674 149.289 72.1506 148.709C73.6272 148.128 75.2658 148.931 75.8113 150.502C76.3569 152.073 75.603 153.817 74.1264 154.397C72.6508 154.978 71.0112 154.176 70.4656 152.604Z" fill="url(#paint42_linear_43_766)"/>
<path id="Vector_97" d="M74.6558 148.971L72.4527 154.496L72.0236 154.353L71.5767 154.089L74.4351 148.855L74.6558 148.971Z" fill="url(#paint43_linear_43_766)"/>
</g>
<path id="Vector_98" d="M59.0842 181.533C65.9832 155.314 88.8463 139.205 110.15 145.552C131.455 151.9 143.132 178.3 136.233 204.519C129.334 230.738 106.471 246.847 85.1667 240.5C63.8627 234.152 52.1853 207.752 59.0842 181.533Z" fill="url(#paint44_linear_43_766)"/>
<g id="Group_22">
<g id="Clip path group_12">
<mask id="mask11_43_766" style="mask-type:luminance" maskUnits="userSpaceOnUse" x="57" y="145" width="80" height="96">
<g id="SVGID_00000034775957443868631290000014801815944499218816_">
<path id="Vector_99" d="M134.198 204.042C140.857 178.732 129.598 153.252 109.05 147.131C88.5027 141.01 66.4476 156.565 59.7888 181.875C53.13 207.185 64.389 232.665 84.9364 238.786C105.484 244.907 127.539 229.352 134.198 204.042Z" fill="white"/>
</g>
</mask>
<g mask="url(#mask11_43_766)">
<g id="Group_23">
<g id="Clip path group_13">
<mask id="mask12_43_766" style="mask-type:luminance" maskUnits="userSpaceOnUse" x="42" y="141" width="115" height="100">
<g id="SVGID_00000018941179526545905090000014252179619439785656_">
<path id="Vector_100" d="M156.867 240.033H42.4976C42.4976 192.19 68.0998 141.177 99.6822 141.177C131.265 141.177 156.867 192.189 156.867 240.033Z" fill="white"/>
</g>
</mask>
<g mask="url(#mask12_43_766)">
<path id="Vector_101" d="M156.867 240.033H42.4976C42.4976 192.19 68.0998 141.177 99.6822 141.177C131.265 141.177 156.867 192.189 156.867 240.033Z" fill="#08AAAC"/>
</g>
</g>
<g id="Clip path group_14">
<mask id="mask13_43_766" style="mask-type:luminance" maskUnits="userSpaceOnUse" x="42" y="141" width="115" height="100">
<g id="SVGID_00000018941179526545905090000014252179619439785656__2">
<path id="Vector_102" d="M156.867 240.033H42.4976C42.4976 192.19 68.0998 141.177 99.6822 141.177C131.265 141.177 156.867 192.189 156.867 240.033Z" fill="white"/>
</g>
</mask>
<g mask="url(#mask13_43_766)">
<g id="Group_24">
<path id="Vector_103" d="M47.3925 247.746H151.703C155.208 247.746 157.961 243.564 157.706 238.661C155.054 187.644 130.032 141.197 99.5565 141.197C69.0178 141.197 43.9563 185.92 41.3905 238.682C41.1518 243.578 43.8938 247.746 47.3925 247.746Z" fill="#1CACB7"/>
<path id="Vector_104" opacity="0.2" d="M47.3925 247.746H151.703C155.208 247.746 157.961 243.564 157.706 238.661C155.054 187.644 130.032 141.197 99.5565 141.197C69.0178 141.197 43.9563 185.92 41.3905 238.682C41.1518 243.578 43.8938 247.746 47.3925 247.746Z" fill="white"/>
<path id="Vector_105" d="M54.2572 243.895L146.554 244.858C150.059 244.858 152.812 240.675 152.557 235.773C149.905 184.755 132.791 143.4 99.5563 143.4C63.4758 143.4 47.2256 192.492 47.2256 234.828C47.2246 239.738 50.7576 243.895 54.2572 243.895Z" fill="#1CACB7"/>
<path id="Vector_106" opacity="0.2" d="M91.0239 237.636C94.2726 237.636 120.438 231.377 125.841 203.711C131.072 176.927 127.526 143.401 99.5795 143.401C66.1358 143.401 55.1055 173.152 55.1055 212.393C55.1064 226.681 79.448 240.033 91.0239 237.636Z" fill="white"/>
<path id="Vector_107" opacity="0.2" d="M89.3166 234.405C100.1 234.959 119.519 223.764 122.337 203.105C126.034 175.999 115.316 148.38 99.9559 148.178C71.4734 147.803 55.1626 182.368 62.6848 216.076C65.3539 228.038 86.0736 234.405 89.3166 234.405Z" fill="white"/>
<path id="Vector_108" opacity="0.2" d="M75.464 218.856C80.3512 216.029 82.8601 214.832 85.4411 195.027C90.0291 159.814 105.106 153.517 99.9571 150.87C83.7287 148.945 55.931 177.639 62.9711 211.552C64.5538 219.183 71.3448 222.262 75.464 218.856Z" fill="white"/>
<path id="Vector_109" opacity="0.3" d="M109.812 146.359C109.812 146.359 156.306 155.649 147.149 239.472C144.527 263.474 67.7889 260.118 45.263 247.265C40.2289 244.393 41.3161 237.509 41.9024 231.243C42.3049 226.942 57.2973 181.771 57.9177 194.637C59.7106 231.781 110.632 244.494 127.207 213.875C150.93 170.054 109.812 146.359 109.812 146.359Z" fill="#376F89"/>
<path id="Vector_110" opacity="0.4" d="M112.78 239.536C119.048 241.682 139.642 242.986 143.589 232.074C152.492 207.463 151.252 172.138 133.919 169.731C121.457 168 93.3725 191.637 99.6549 221.964C102.149 234.001 109.537 239.536 112.78 239.536Z" fill="url(#paint45_radial_43_766)"/>
<path id="Vector_111" opacity="0.4" d="M69.2428 215.236C75.5101 217.381 96.1047 218.685 100.051 207.773C108.955 183.162 107.715 147.837 90.3812 145.43C77.9196 143.7 49.8349 167.336 56.1173 197.665C58.6102 209.701 65.9989 215.236 69.2428 215.236Z" fill="url(#paint46_radial_43_766)"/>
<path id="Vector_112" opacity="0.7" d="M123.773 144.302C149.73 163.61 170.056 225.003 160.502 250.229C150.948 275.454 134.025 238.594 134.025 238.594C134.025 238.594 156.009 210.723 123.773 144.302Z" fill="url(#paint47_linear_43_766)"/>
</g>
</g>
</g>
</g>
</g>
</g>
</g>
<path id="Vector_113" d="M23.4463 283.323C31.874 284.927 258.645 283.323 258.645 283.323L257.392 265.439L23.4463 271.773V283.323Z" fill="url(#paint48_linear_43_766)"/>
<g id="espumacohete">
<path id="Vector_114" d="M99.8906 539.875C110.561 517.873 128.984 522.014 132.155 519.092C135.327 516.163 123.001 502.032 139.586 491.206C156.178 480.387 145.791 468.444 141.723 467.488C137.656 466.525 136.139 468.989 132.408 467.246C128.739 465.529 127.613 460.5 127.582 460.345C127.797 460.507 131.412 463.179 138.49 463.004C145.791 462.823 158.913 464.56 166.496 468.505C174.072 472.45 171.353 486.285 169.246 489.113C167.14 491.94 166.519 497.804 166.519 497.804C166.519 497.804 176.807 492.465 187.455 495.663C189.416 496.249 190.526 497.117 191.024 498.141C193.238 502.658 183.563 510.219 183.563 510.219C183.563 510.219 204.162 501.682 201.205 519.758C198.294 537.505 176.455 525.966 175.673 525.548C176.018 525.885 180.683 530.557 173.076 534.018C165.179 537.613 161.318 529.972 161.318 529.972C157.097 540.723 144.082 539.565 144.082 539.565C144.082 539.565 154.845 544.54 143.424 554.854C132.01 565.168 123.101 552.801 123.101 552.801C123.101 552.801 121.592 553.272 121.607 556.187C121.623 559.096 146.572 581.723 121.531 586.867C112.806 588.658 106.394 588.22 101.568 586.295C92.5444 582.686 89.105 573.86 86.6001 564.603C82.747 550.398 96.9644 545.9 99.8906 539.875Z" fill="white"/>
<path id="Vector_115" d="M203.897 539.301C203.409 537.463 201.318 536.321 199.228 536.75C197.136 537.179 195.837 539.017 196.325 540.855C196.813 542.692 198.904 543.834 200.995 543.405C203.086 542.976 204.385 541.139 203.897 539.301Z" fill="#BFB8B5"/>
</g>
</g>
</g>
<defs>
<linearGradient id="paint0_linear_43_766" x1="52.9772" y1="269.253" x2="52.9772" y2="479.949" gradientUnits="userSpaceOnUse">
<stop stop-color="#691E53"/>
<stop offset="0.2195" stop-color="#A04896"/>
<stop offset="0.3049" stop-color="#913C84"/>
<stop offset="0.4371" stop-color="#7F2F6E"/>
<stop offset="0.5834" stop-color="#73255F"/>
<stop offset="0.7529" stop-color="#6B2056"/>
<stop offset="1" stop-color="#691E53"/>
</linearGradient>
<linearGradient id="paint1_linear_43_766" x1="26.6058" y1="250.998" x2="252.141" y2="250.998" gradientUnits="userSpaceOnUse">
<stop stop-color="#EFBD50"/>
<stop offset="0.2069" stop-color="#F4BC71"/>
<stop offset="1" stop-color="#C16000"/>
</linearGradient>
<radialGradient id="paint2_radial_43_766" cx="0" cy="0" r="1" gradientUnits="userSpaceOnUse" gradientTransform="translate(107.691 180.654) scale(81.6499 86.8841)">
<stop stop-color="white"/>
<stop offset="1" stop-color="white"/>
</radialGradient>
<radialGradient id="paint3_radial_43_766" cx="0" cy="0" r="1" gradientUnits="userSpaceOnUse" gradientTransform="translate(128.942 255.543) scale(135.12 143.782)">
<stop stop-color="white"/>
<stop offset="1" stop-color="white"/>
</radialGradient>
<linearGradient id="paint4_linear_43_766" x1="118.27" y1="444.342" x2="160.478" y2="444.342" gradientUnits="userSpaceOnUse">
<stop stop-color="#C64473"/>
<stop offset="0.3498" stop-color="#B72358"/>
<stop offset="1" stop-color="#930035"/>
</linearGradient>
<linearGradient id="paint5_linear_43_766" x1="97.2115" y1="432.479" x2="181.535" y2="432.479" gradientUnits="userSpaceOnUse">
<stop stop-color="#EFBD50"/>
<stop offset="0.2463" stop-color="#F4BC71"/>
<stop offset="0.4975" stop-color="#C64200"/>
<stop offset="0.7488" stop-color="#9B1600"/>
<stop offset="1" stop-color="#AA00CE"/>
</linearGradient>
<linearGradient id="paint6_linear_43_766" x1="80.7028" y1="422.18" x2="198.044" y2="422.18" gradientUnits="userSpaceOnUse">
<stop stop-color="#EFBD50"/>
<stop offset="0.2463" stop-color="#F4BC71"/>
<stop offset="0.4975" stop-color="#C64200"/>
<stop offset="0.7488" stop-color="#9B1600"/>
<stop offset="1" stop-color="#AA00CE"/>
</linearGradient>
<linearGradient id="paint7_linear_43_766" x1="83.6975" y1="89.1833" x2="196.91" y2="89.1833" gradientUnits="userSpaceOnUse">
<stop stop-color="#C64200"/>
<stop offset="0.7488" stop-color="#9B1600"/>
<stop offset="1" stop-color="#AA00CE"/>
</linearGradient>
<linearGradient id="paint8_linear_43_766" x1="83.6975" y1="86.3333" x2="196.91" y2="86.3333" gradientUnits="userSpaceOnUse">
<stop stop-color="#EFBD50"/>
<stop offset="0.2463" stop-color="#F4BC71"/>
<stop offset="0.4975" stop-color="#C64200"/>
<stop offset="0.7488" stop-color="#9B1600"/>
<stop offset="1" stop-color="#AA00CE"/>
</linearGradient>
<radialGradient id="paint9_radial_43_766" cx="0" cy="0" r="1" gradientUnits="userSpaceOnUse" gradientTransform="translate(127.036 89.6967) scale(34.9146 56.0205)">
<stop stop-color="white"/>
<stop offset="1" stop-color="white"/>
</radialGradient>
<radialGradient id="paint10_radial_43_766" cx="0" cy="0" r="1" gradientUnits="userSpaceOnUse" gradientTransform="translate(122.231 77.676) scale(14.7265 23.6287)">
<stop stop-color="white"/>
<stop offset="1" stop-color="white"/>
</radialGradient>
<linearGradient id="paint11_linear_43_766" x1="251.811" y1="283.278" x2="251.811" y2="497.308" gradientUnits="userSpaceOnUse">
<stop stop-color="#691E53"/>
<stop offset="0.2195" stop-color="#A04896"/>
<stop offset="0.3049" stop-color="#913C84"/>
<stop offset="0.4371" stop-color="#7F2F6E"/>
<stop offset="0.5834" stop-color="#73255F"/>
<stop offset="0.7529" stop-color="#6B2056"/>
<stop offset="1" stop-color="#691E53"/>
</linearGradient>
<linearGradient id="paint12_linear_43_766" x1="102.885" y1="135.467" x2="102.525" y2="254.281" gradientUnits="userSpaceOnUse">
<stop stop-color="#930035"/>
<stop offset="1" stop-color="#790D2B"/>
</linearGradient>
<linearGradient id="paint13_linear_43_766" x1="50.289" y1="193.277" x2="150.302" y2="193.277" gradientUnits="userSpaceOnUse">
<stop stop-color="#C64473"/>
<stop offset="0.3498" stop-color="#B72358"/>
<stop offset="1" stop-color="#930035"/>
</linearGradient>
<linearGradient id="paint14_linear_43_766" x1="140.656" y1="192.225" x2="148.129" y2="192.225" gradientUnits="userSpaceOnUse">
<stop stop-color="#EFBD50"/>
<stop offset="0.2069" stop-color="#F4BC71"/>
<stop offset="1" stop-color="#C16000"/>
</linearGradient>
<linearGradient id="paint15_linear_43_766" x1="141.423" y1="191.927" x2="147.397" y2="191.927" gradientUnits="userSpaceOnUse">
<stop stop-color="#C64473"/>
<stop offset="0.3498" stop-color="#B72358"/>
<stop offset="1" stop-color="#930035"/>
</linearGradient>
<linearGradient id="paint16_linear_43_766" x1="135.709" y1="165.212" x2="142.872" y2="165.212" gradientUnits="userSpaceOnUse">
<stop stop-color="#EFBD50"/>
<stop offset="0.2069" stop-color="#F4BC71"/>
<stop offset="1" stop-color="#C16000"/>
</linearGradient>
<linearGradient id="paint17_linear_43_766" x1="136.444" y1="164.926" x2="142.17" y2="164.926" gradientUnits="userSpaceOnUse">
<stop stop-color="#C64473"/>
<stop offset="0.3498" stop-color="#B72358"/>
<stop offset="1" stop-color="#930035"/>
</linearGradient>
<linearGradient id="paint18_linear_43_766" x1="122.959" y1="146.942" x2="128.996" y2="146.943" gradientUnits="userSpaceOnUse">
<stop stop-color="#EFBD50"/>
<stop offset="0.2069" stop-color="#F4BC71"/>
<stop offset="1" stop-color="#C16000"/>
</linearGradient>
<linearGradient id="paint19_linear_43_766" x1="124.715" y1="144.759" x2="127.853" y2="148.673" gradientUnits="userSpaceOnUse">
<stop stop-color="#C64473"/>
<stop offset="0.3498" stop-color="#B72358"/>
<stop offset="1" stop-color="#930035"/>
</linearGradient>
<linearGradient id="paint20_linear_43_766" x1="105.682" y1="140.823" x2="111.719" y2="140.823" gradientUnits="userSpaceOnUse">
<stop stop-color="#EFBD50"/>
<stop offset="0.2069" stop-color="#F4BC71"/>
<stop offset="1" stop-color="#C16000"/>
</linearGradient>
<linearGradient id="paint21_linear_43_766" x1="109.056" y1="138.29" x2="108.768" y2="143.416" gradientUnits="userSpaceOnUse">
<stop stop-color="#C64473"/>
<stop offset="0.3498" stop-color="#B72358"/>
<stop offset="1" stop-color="#930035"/>
</linearGradient>
<linearGradient id="paint22_linear_43_766" x1="88.7362" y1="140.74" x2="94.7738" y2="140.74" gradientUnits="userSpaceOnUse">
<stop stop-color="#EFBD50"/>
<stop offset="0.2069" stop-color="#F4BC71"/>
<stop offset="1" stop-color="#C16000"/>
</linearGradient>
<linearGradient id="paint23_linear_43_766" x1="93.6115" y1="139.105" x2="89.987" y2="142.512" gradientUnits="userSpaceOnUse">
<stop stop-color="#C64473"/>
<stop offset="0.3498" stop-color="#B72358"/>
<stop offset="1" stop-color="#930035"/>
</linearGradient>
<linearGradient id="paint24_linear_43_766" x1="133.183" y1="220.03" x2="140.655" y2="220.03" gradientUnits="userSpaceOnUse">
<stop stop-color="#EFBD50"/>
<stop offset="0.2069" stop-color="#F4BC71"/>
<stop offset="1" stop-color="#C16000"/>
</linearGradient>
<linearGradient id="paint25_linear_43_766" x1="133.95" y1="219.732" x2="139.924" y2="219.732" gradientUnits="userSpaceOnUse">
<stop stop-color="#C64473"/>
<stop offset="0.3498" stop-color="#B72358"/>
<stop offset="1" stop-color="#930035"/>
</linearGradient>
<linearGradient id="paint26_linear_43_766" x1="118.45" y1="238.403" x2="125.211" y2="238.403" gradientUnits="userSpaceOnUse">
<stop stop-color="#EFBD50"/>
<stop offset="0.2069" stop-color="#F4BC71"/>
<stop offset="1" stop-color="#C16000"/>
</linearGradient>
<linearGradient id="paint27_linear_43_766" x1="119.143" y1="238.133" x2="124.548" y2="238.133" gradientUnits="userSpaceOnUse">
<stop stop-color="#C64473"/>
<stop offset="0.3498" stop-color="#B72358"/>
<stop offset="1" stop-color="#930035"/>
</linearGradient>
<linearGradient id="paint28_linear_43_766" x1="96.7809" y1="247.388" x2="103.543" y2="247.388" gradientUnits="userSpaceOnUse">
<stop stop-color="#EFBD50"/>
<stop offset="0.2069" stop-color="#F4BC71"/>
<stop offset="1" stop-color="#C16000"/>
</linearGradient>
<linearGradient id="paint29_linear_43_766" x1="101.716" y1="245.05" x2="98.7788" y2="249.889" gradientUnits="userSpaceOnUse">
<stop stop-color="#C64473"/>
<stop offset="0.3498" stop-color="#B72358"/>
<stop offset="1" stop-color="#930035"/>
</linearGradient>
<linearGradient id="paint30_linear_43_766" x1="78.179" y1="245.597" x2="84.9403" y2="245.597" gradientUnits="userSpaceOnUse">
<stop stop-color="#EFBD50"/>
<stop offset="0.2069" stop-color="#F4BC71"/>
<stop offset="1" stop-color="#C16000"/>
</linearGradient>
<linearGradient id="paint31_linear_43_766" x1="83.3568" y1="243.455" x2="79.8885" y2="247.88" gradientUnits="userSpaceOnUse">
<stop stop-color="#C64473"/>
<stop offset="0.3498" stop-color="#B72358"/>
<stop offset="1" stop-color="#930035"/>
</linearGradient>
<linearGradient id="paint32_linear_43_766" x1="62.5134" y1="234.473" x2="69.2761" y2="234.473" gradientUnits="userSpaceOnUse">
<stop stop-color="#EFBD50"/>
<stop offset="0.2069" stop-color="#F4BC71"/>
<stop offset="1" stop-color="#C16000"/>
</linearGradient>
<linearGradient id="paint33_linear_43_766" x1="68.3625" y1="235.634" x2="63.1751" y2="234.006" gradientUnits="userSpaceOnUse">
<stop stop-color="#C64473"/>
<stop offset="0.3498" stop-color="#B72358"/>
<stop offset="1" stop-color="#930035"/>
</linearGradient>
<linearGradient id="paint34_linear_43_766" x1="53.3434" y1="217.77" x2="59.0426" y2="217.77" gradientUnits="userSpaceOnUse">
<stop stop-color="#EFBD50"/>
<stop offset="0.2069" stop-color="#F4BC71"/>
<stop offset="1" stop-color="#C16000"/>
</linearGradient>
<linearGradient id="paint35_linear_43_766" x1="58.466" y1="217.857" x2="53.9163" y2="218.105" gradientUnits="userSpaceOnUse">
<stop stop-color="#C64473"/>
<stop offset="0.3498" stop-color="#B72358"/>
<stop offset="1" stop-color="#930035"/>
</linearGradient>
<linearGradient id="paint36_linear_43_766" x1="50.4615" y1="199.351" x2="56.1612" y2="199.351" gradientUnits="userSpaceOnUse">
<stop stop-color="#EFBD50"/>
<stop offset="0.2069" stop-color="#F4BC71"/>
<stop offset="1" stop-color="#C16000"/>
</linearGradient>
<linearGradient id="paint37_linear_43_766" x1="55.5812" y1="199.197" x2="51.0689" y2="199.871" gradientUnits="userSpaceOnUse">
<stop stop-color="#C64473"/>
<stop offset="0.3498" stop-color="#B72358"/>
<stop offset="1" stop-color="#930035"/>
</linearGradient>
<linearGradient id="paint38_linear_43_766" x1="52.3258" y1="184.095" x2="58.0261" y2="184.096" gradientUnits="userSpaceOnUse">
<stop stop-color="#EFBD50"/>
<stop offset="0.2069" stop-color="#F4BC71"/>
<stop offset="1" stop-color="#C16000"/>
</linearGradient>
<linearGradient id="paint39_linear_43_766" x1="57.4292" y1="183.766" x2="52.9666" y2="184.75" gradientUnits="userSpaceOnUse">
<stop stop-color="#C64473"/>
<stop offset="0.3498" stop-color="#B72358"/>
<stop offset="1" stop-color="#930035"/>
</linearGradient>
<linearGradient id="paint40_linear_43_766" x1="59.4039" y1="165.244" x2="65.103" y2="165.244" gradientUnits="userSpaceOnUse">
<stop stop-color="#EFBD50"/>
<stop offset="0.2069" stop-color="#F4BC71"/>
<stop offset="1" stop-color="#C16000"/>
</linearGradient>
<linearGradient id="paint41_linear_43_766" x1="64.508" y1="165.564" x2="59.9548" y2="165.399" gradientUnits="userSpaceOnUse">
<stop stop-color="#C64473"/>
<stop offset="0.3498" stop-color="#B72358"/>
<stop offset="1" stop-color="#930035"/>
</linearGradient>
<linearGradient id="paint42_linear_43_766" x1="70.2884" y1="151.553" x2="75.9891" y2="151.553" gradientUnits="userSpaceOnUse">
<stop stop-color="#EFBD50"/>
<stop offset="0.2069" stop-color="#F4BC71"/>
<stop offset="1" stop-color="#C16000"/>
</linearGradient>
<linearGradient id="paint43_linear_43_766" x1="75.3368" y1="150.931" x2="71.0028" y2="152.436" gradientUnits="userSpaceOnUse">
<stop stop-color="#C64473"/>
<stop offset="0.3498" stop-color="#B72358"/>
<stop offset="1" stop-color="#930035"/>
</linearGradient>
<linearGradient id="paint44_linear_43_766" x1="57.1006" y1="193.018" x2="138.217" y2="193.003" gradientUnits="userSpaceOnUse">
<stop stop-color="#930035"/>
<stop offset="1" stop-color="#790D2B"/>
</linearGradient>
<radialGradient id="paint45_radial_43_766" cx="0" cy="0" r="1" gradientUnits="userSpaceOnUse" gradientTransform="translate(123.888 205.319) scale(25.2868 35.4684)">
<stop stop-color="white"/>
<stop offset="1" stop-color="white"/>
</radialGradient>
<radialGradient id="paint46_radial_43_766" cx="0" cy="0" r="1" gradientUnits="userSpaceOnUse" gradientTransform="translate(80.3501 181.019) scale(25.2868 35.4684)">
<stop stop-color="white"/>
<stop offset="1" stop-color="white"/>
</radialGradient>
<linearGradient id="paint47_linear_43_766" x1="129.325" y1="203.001" x2="158.973" y2="199.086" gradientUnits="userSpaceOnUse">
<stop stop-color="#BC2FB9"/>
<stop offset="0.3399" stop-color="#BC2FB9"/>
<stop offset="1" stop-color="#FF005C"/>
</linearGradient>
<linearGradient id="paint48_linear_43_766" x1="23.4462" y1="274.738" x2="258.644" y2="274.738" gradientUnits="userSpaceOnUse">
<stop stop-color="#EFBD50"/>
<stop offset="0.2463" stop-color="#F4BC71"/>
<stop offset="0.4975" stop-color="#C64200"/>
<stop offset="0.7488" stop-color="#9B1600"/>
<stop offset="1" stop-color="#AA00CE"/>
</linearGradient>
</defs>
</svg>
