<svg width="223" height="330" viewBox="0 0 223 330" fill="none" xmlns="http://www.w3.org/2000/svg">
<g id="Group">
<path id="Vector" d="M199.368 147.983L181.82 203.034C176.792 218.808 161.621 229.808 144.115 230.36C121.842 231.062 95.0892 231.554 95.4782 229.851C95.8822 228.085 88.2402 180.179 82.1642 142.755C78.3942 119.534 97.5131 98.6128 122.498 98.6128H160.285C187.61 98.6128 207.212 123.374 199.368 147.983Z" fill="url(#paint0_linear_43_934)"/>
<path id="Vector_2" d="M58.9531 154.437C65.5941 127.63 85.5771 140.685 85.0121 157.482C84.4481 174.279 70.8231 194.187 57.1431 203.756C44.6301 212.509 34.0721 212.88 34.0721 212.88L25.7861 195.018C25.7861 195.018 54.4291 172.701 58.9531 154.437Z" fill="#B3B3B3"/>
<path id="Vector_3" opacity="0.1" d="M66.1822 158.637C73.7712 132.082 85.5772 140.685 85.0132 157.482C84.4492 174.279 70.8242 194.187 57.1442 203.756C44.6312 212.509 34.0732 212.88 34.0732 212.88L30.7412 205.697C30.7412 205.697 53.2322 203.949 66.1822 158.637Z" fill="#2B0C4C"/>
<path id="Vector_4" d="M64.7703 133.368C64.7703 133.368 49.0283 252.34 110.536 252.34C169.033 252.34 176.21 212.762 176.21 178.839C176.21 144.916 172.464 130.481 172.464 130.481L64.7703 133.368Z" fill="url(#paint1_linear_43_934)"/>
<path id="Vector_5" opacity="0.05" d="M170.26 146.051C163.823 191.512 118.271 219.219 74.273 206.095C69.094 204.55 66.647 206.439 68.727 213.675C74.876 235.062 87.097 252.341 110.537 252.341C169.034 252.341 176.211 212.763 176.211 178.84C176.211 144.917 172.465 130.482 172.465 130.482L170.26 146.051Z" fill="#2B0C4C"/>
<path id="Vector_6" d="M62.9663 158.056C78.5213 161.398 139.255 163.843 175.847 157.482L176.059 163.291C176.059 163.291 131.62 173.831 62.9663 164.336V158.056Z" fill="#B3B3B3"/>
<path id="Vector_7" d="M110.155 235.184C120.35 224.885 162.04 172.916 168.633 152.245L172.644 156.219C172.644 156.219 153.295 191.276 111.257 238.846L110.155 235.184Z" fill="#B3B3B3"/>
<path id="Vector_8" d="M62.9663 164.335L64.1163 164.49C74.6093 196.868 90.4633 212.56 109.656 235.892V239.489C109.656 239.489 78.7113 215.094 62.9663 170.79V164.335Z" fill="#B3B3B3"/>
<path id="Vector_9" d="M69.8462 217.313C83.6422 218.793 138.326 220.023 170.78 217.206L169.769 219.778C149.525 220.46 133.2 223.478 70.8792 220.284L69.8462 217.313Z" fill="#B3B3B3"/>
<path id="Vector_10" d="M69.8462 233.031C83.6422 234.511 138.326 235.741 170.78 232.924L169.769 235.496C149.525 236.178 133.2 239.196 70.8792 236.002L69.8462 233.031Z" fill="#808080"/>
<path id="Vector_11" d="M79.0103 172.916L95.7213 208.652L119.521 209.906L137.522 174.402L79.0103 172.916Z" fill="url(#paint2_linear_43_934)"/>
<path id="sombraastonauta" opacity="0.2" d="M121.373 330.001C167.468 330.001 204.835 324.432 204.835 317.563C204.835 310.694 167.468 305.125 121.373 305.125C75.2783 305.125 37.9111 310.694 37.9111 317.563C37.9111 324.432 75.2783 330.001 121.373 330.001Z" fill="#2D2D2D"/>
<path id="Vector_12" d="M86.082 176.043L97.597 206.778H117.507L129.27 176.043H86.082Z" fill="#2B0C4C"/>
<path id="Vector_13" d="M169.769 219.778C151.633 222.563 139.376 223.486 121.372 251.844C124.804 260.352 131.824 271.56 136.452 285.202C141.543 300.209 141.543 300.209 141.543 300.209L163.447 301.324C163.447 301.324 185.344 250.618 169.769 219.778Z" fill="#B3B3B3"/>
<path id="Vector_14" opacity="0.1" d="M169.769 219.778C151.633 222.563 139.376 223.486 121.372 251.844C124.804 260.352 131.824 271.56 136.452 285.202C141.543 300.209 141.543 300.209 141.543 300.209L131.83 267.443C127.586 253.125 135.198 243.668 145.571 232.924C149.148 229.219 155.689 224.276 169.769 219.778Z" fill="#2B0C4C"/>
<path id="Vector_15" opacity="0.1" d="M169.769 219.778C164.668 220.561 159.566 221.2 155.194 222.34C151.794 223.227 178.481 239.489 151.664 292.221C155.095 300.728 145.995 298.469 136.451 285.202C141.542 300.209 141.542 300.209 141.542 300.209L151.663 300.724L163.445 301.324C163.447 301.324 185.344 250.618 169.769 219.778Z" fill="#2B0C4C"/>
<path id="Vector_16" d="M70.8803 220.284C86.9523 229.159 87.4583 245.386 112.982 252.34C112.982 263.499 112.027 266.157 108.476 280.108C105.888 290.274 105.539 300.781 105.539 300.781L83.0823 301.896C83.0823 301.896 55.4153 251.124 70.8803 220.284Z" fill="#B3B3B3"/>
<path id="Vector_17" opacity="0.1" d="M70.8799 220.284C86.9519 229.159 87.4579 245.386 112.982 252.34C112.982 263.499 112.027 266.157 108.476 280.108C105.888 290.274 105.539 300.781 105.539 300.781L104.996 290.385C104.066 272.579 99.0309 258.61 93.8569 250.719C89.8399 244.594 77.7039 232.728 70.8799 220.284Z" fill="#2B0C4C"/>
<path id="Vector_18" d="M110.904 163.488C154.229 163.488 189.351 128.366 189.351 85.041C189.351 41.7159 154.229 6.59399 110.904 6.59399C67.579 6.59399 32.457 41.7159 32.457 85.041C32.457 128.366 67.579 163.488 110.904 163.488Z" fill="url(#paint3_linear_43_934)"/>
<path id="Vector_19" d="M148.416 138.431C173.817 113.03 173.817 71.8475 148.416 46.4468C123.016 21.0462 81.833 21.0462 56.4324 46.4468C31.0317 71.8474 31.0317 113.03 56.4324 138.431C81.833 163.831 123.016 163.831 148.416 138.431Z" fill="#323232"/>
<g id="Group_2">
<g id="Clip path group">
<mask id="mask0_43_934" style="mask-type:luminance" maskUnits="userSpaceOnUse" x="37" y="27" width="128" height="128">
<g id="SVGID_00000090996384784720825750000011428655369597037500_">
<path id="Vector_20" d="M162.662 105.974C170.949 71.885 150.032 37.533 115.942 29.2467C81.8535 20.9603 47.5015 41.8776 39.2151 75.9666C30.9288 110.056 51.846 144.408 85.935 152.694C120.024 160.98 154.376 140.063 162.662 105.974Z" fill="white"/>
</g>
</mask>
<g mask="url(#mask0_43_934)">
<g id="Group_3">
<g id="Clip path group_2">
<mask id="mask1_43_934" style="mask-type:luminance" maskUnits="userSpaceOnUse" x="36" y="25" width="132" height="133">
<g id="SVGID_00000090265064322798146110000000167270211396158369_">
<path id="Vector_21" d="M148.016 134.7C173.781 107.131 173.962 65.431 148.419 41.5597C122.877 17.6884 81.2841 20.6859 55.519 48.2547C29.7539 75.8235 29.5734 117.524 55.1158 141.395C80.6582 165.266 122.251 162.269 148.016 134.7Z" fill="white"/>
</g>
</mask>
<g mask="url(#mask1_43_934)">
<g id="Group_4">
<g id="Clip path group_3">
<mask id="mask2_43_934" style="mask-type:luminance" maskUnits="userSpaceOnUse" x="10" y="18" width="193" height="140">
<g id="SVGID_00000029044735210361046540000006141741370259866516_">
<path id="Vector_22" d="M202.326 157.288H10.2212C10.2212 90.2828 53.2252 18.8389 106.274 18.8389C159.323 18.8389 202.326 90.2828 202.326 157.288Z" fill="white"/>
</g>
</mask>
<g mask="url(#mask2_43_934)">
<path id="Vector_23" d="M202.326 157.288H10.2212C10.2212 90.2828 53.2252 18.8389 106.274 18.8389C159.323 18.8389 202.326 90.2828 202.326 157.288Z" fill="#08AAAC"/>
</g>
</g>
<g id="Clip path group_4">
<mask id="mask3_43_934" style="mask-type:luminance" maskUnits="userSpaceOnUse" x="10" y="18" width="193" height="140">
<g id="SVGID_00000029044735210361046540000006141741370259866516__2">
<path id="Vector_24" d="M202.326 157.288H10.2212C10.2212 90.2828 53.2252 18.8389 106.274 18.8389C159.323 18.8389 202.326 90.2828 202.326 157.288Z" fill="white"/>
</g>
</mask>
<g mask="url(#mask3_43_934)">
<g id="Group_5">
<path id="Vector_25" d="M18.4432 168.092H193.652C199.538 168.092 204.163 162.234 203.735 155.368C199.28 83.916 157.251 18.8679 106.061 18.8679C54.7662 18.8679 12.6702 81.503 8.36016 155.395C7.96016 162.252 12.5652 168.092 18.4432 168.092Z" fill="#1CACB7"/>
<path id="Vector_26" opacity="0.2" d="M18.4432 168.092H193.652C199.538 168.092 204.163 162.234 203.735 155.368C199.28 83.916 157.251 18.8679 106.061 18.8679C54.7662 18.8679 12.6702 81.503 8.36016 155.395C7.96016 162.252 12.5652 168.092 18.4432 168.092Z" fill="white"/>
<path id="Vector_27" d="M29.9731 162.698L185.004 164.046C190.89 164.046 195.515 158.188 195.087 151.322C190.632 79.8699 161.884 21.9539 106.061 21.9539C45.4571 21.9539 18.1611 90.7079 18.1611 150.001C18.1611 156.875 24.0961 162.698 29.9731 162.698Z" fill="#1CACB7"/>
<path id="Vector_28" opacity="0.2" d="M91.7324 153.932C97.1884 153.932 141.14 145.165 150.215 106.419C159.001 68.9081 153.045 21.9551 106.104 21.9551C49.9304 21.9551 31.4014 63.621 31.4014 118.58C31.4004 138.589 72.2874 157.288 91.7324 153.932Z" fill="white"/>
<path id="Vector_29" opacity="0.2" d="M88.863 149.407C106.976 150.184 139.595 134.503 144.327 105.571C150.537 67.6078 132.533 28.9278 106.733 28.6448C58.891 28.1208 31.495 76.5299 44.129 123.738C48.613 140.49 83.415 149.407 88.863 149.407Z" fill="white"/>
<path id="Vector_30" opacity="0.2" d="M65.5941 127.63C73.8021 123.671 78.0171 121.995 82.3521 94.2579C90.0591 44.9419 115.382 36.1239 106.734 32.4159C79.4761 29.7189 32.783 69.9069 44.608 117.401C47.269 128.089 58.6751 132.4 65.5941 127.63Z" fill="white"/>
<path id="Vector_31" opacity="0.3" d="M123.289 26.0989C123.289 26.0989 201.385 39.1089 186.005 156.503C181.601 190.119 52.7042 185.418 14.8682 167.419C6.41217 163.396 8.23921 153.755 9.22321 144.979C9.89921 138.955 35.0812 75.6919 36.1242 93.7109C39.1362 145.73 124.667 163.537 152.508 120.654C192.354 59.2819 123.289 26.0989 123.289 26.0989Z" fill="#376F89"/>
<path id="Vector_32" opacity="0.4" d="M128.275 156.593C138.802 159.598 173.394 161.425 180.024 146.143C194.978 111.674 192.896 62.2011 163.781 58.8301C142.849 56.4071 95.6761 89.5091 106.228 131.984C110.416 148.841 122.827 156.593 128.275 156.593Z" fill="url(#paint4_radial_43_934)"/>
<path id="Vector_33" opacity="0.4" d="M55.1452 122.56C65.6722 125.565 100.264 127.392 106.894 112.11C121.848 77.641 119.766 28.168 90.6512 24.797C69.7192 22.373 22.5463 55.476 33.0983 97.951C37.2853 114.809 49.6972 122.56 55.1452 122.56Z" fill="url(#paint5_radial_43_934)"/>
<path id="Vector_34" opacity="0.7" d="M146.741 23.2148C190.34 50.2568 224.481 136.238 208.433 171.567C192.385 206.896 163.961 155.272 163.961 155.272C163.961 155.272 200.884 116.239 146.741 23.2148Z" fill="url(#paint6_linear_43_934)"/>
</g>
</g>
</g>
</g>
</g>
</g>
</g>
</g>
</g>
</g>
<path id="Vector_35" d="M119.821 183.322C121.196 183.322 122.311 182.207 122.311 180.832C122.311 179.457 121.196 178.342 119.821 178.342C118.446 178.342 117.331 179.457 117.331 180.832C117.331 182.207 118.446 183.322 119.821 183.322Z" fill="#B3B3B3"/>
<path id="Vector_36" d="M110.725 183.61C112.101 183.61 113.215 182.495 113.215 181.12C113.215 179.745 112.101 178.63 110.725 178.63C109.35 178.63 108.235 179.745 108.235 181.12C108.235 182.495 109.35 183.61 110.725 183.61Z" fill="#B3B3B3"/>
<path id="Vector_37" d="M103.103 183.61C104.479 183.61 105.593 182.495 105.593 181.12C105.593 179.745 104.479 178.63 103.103 178.63C101.728 178.63 100.613 179.745 100.613 181.12C100.613 182.495 101.728 183.61 103.103 183.61Z" fill="#B3B3B3"/>
<path id="Vector_38" d="M95.531 183.044C96.9062 183.044 98.021 181.929 98.021 180.554C98.021 179.179 96.9062 178.064 95.531 178.064C94.1558 178.064 93.041 179.179 93.041 180.554C93.041 181.929 94.1558 183.044 95.531 183.044Z" fill="#B3B3B3"/>
<g id="Group_6">
<path id="Vector_39" d="M144.618 260.47C146.066 260.111 147.609 260.064 149.123 260.473C150.634 260.89 152.023 261.804 153.152 262.943C155.42 265.262 156.519 268.406 156.777 271.481C156.897 273.031 156.819 274.59 156.538 276.114C156.386 276.874 156.241 277.631 155.988 278.367C155.766 279.107 155.486 279.836 155.092 280.52C154.715 281.205 154.239 281.874 153.56 282.368C152.926 282.817 152.285 283.193 151.618 283.563C150.279 284.271 148.873 284.89 147.351 285.279C145.838 285.664 144.178 285.801 142.528 285.432C140.876 285.081 139.302 284.157 138.113 282.895C135.796 280.307 135.02 276.841 134.799 273.918C134.695 272.384 134.619 270.835 134.839 269.242C135.056 267.665 135.564 266.032 136.536 264.656C137.504 263.267 138.918 262.322 140.325 261.746C141.752 261.179 143.187 260.828 144.618 260.47ZM144.692 260.761C143.282 261.13 141.886 261.65 140.716 262.468C139.53 263.267 138.703 264.405 138.287 265.613C137.852 266.826 137.766 268.135 137.737 269.472C137.698 270.811 137.843 272.204 137.987 273.593L138.268 275.691C138.416 276.334 138.498 277.011 138.669 277.637C138.872 278.246 139.013 278.9 139.321 279.44C139.55 280.042 139.917 280.521 140.254 281.038C141.757 282.91 144.303 283.843 147.091 283.66C148.467 283.559 149.87 283.233 151.167 282.652C151.824 282.385 152.445 282.003 153.026 281.63C153.559 281.277 153.948 280.697 154.23 280.082C154.804 278.837 154.929 277.385 154.887 275.992C154.839 274.586 154.596 273.194 154.305 271.839C153.687 269.137 152.94 266.496 151.64 264.114C150.965 262.959 150.09 261.827 148.841 261.192C147.614 260.526 146.088 260.395 144.692 260.761Z" fill="#808080"/>
</g>
<path id="Vector_40" d="M177.774 92.4389C177.774 92.4389 169.748 22.0159 103.592 22.0159C39.4372 22.0159 35.0972 88.8659 35.0972 88.8659C35.0972 88.8659 42.3682 29.4549 103.592 30.0259C164.815 30.5959 177.774 92.4389 177.774 92.4389Z" fill="url(#paint7_linear_43_934)"/>
<g id="Group_7">
<path id="Vector_41" d="M80.3731 262.768C82.8261 262.748 85.0291 264.504 86.4201 266.593C87.8451 268.714 88.4391 271.22 88.4961 273.639C88.5151 274.866 88.4191 276.04 88.2351 277.275C88.0341 278.551 87.6032 279.765 86.9732 280.844C85.7352 282.972 83.6691 284.75 80.9511 285.011C79.6141 285.112 78.1721 284.739 77.0271 283.928C75.8711 283.127 75.0271 281.988 74.4511 280.803C73.8591 279.624 73.4961 278.335 73.2261 277.194C72.9351 276.018 72.7161 274.813 72.6181 273.58C72.4341 271.148 72.5581 268.465 73.9631 266.141C74.6441 264.997 75.6661 264.031 76.8151 263.478C77.9741 262.93 79.1891 262.761 80.3731 262.768ZM80.3731 263.068C79.2341 263.074 78.0771 263.44 77.2851 264.19C76.4701 264.918 76.0731 265.934 75.8761 266.938C75.6811 267.954 75.6421 268.995 75.6391 270.054C75.6261 271.112 75.7091 272.195 75.8211 273.283C75.9381 274.372 76.0822 275.473 76.2542 276.582C76.4422 277.724 76.6232 278.719 76.9862 279.671C77.3392 280.62 77.8372 281.463 78.4862 282.149C79.1272 282.84 79.9812 283.337 80.9782 283.493C81.9712 283.639 83.0652 283.4 83.9812 282.829C84.8892 282.254 85.6511 281.394 86.0531 280.38C86.4841 279.378 86.5841 278.267 86.4531 277.215C86.3221 276.12 86.1211 274.961 85.9441 273.866C85.5691 271.655 85.2921 269.504 84.7461 267.383C84.4551 266.336 84.0451 265.282 83.3111 264.449C82.6051 263.599 81.5101 263.056 80.3731 263.068Z" fill="#808080"/>
</g>
<path id="Vector_42" d="M178.003 110.697C185.491 110.697 191.56 101.673 191.56 90.541C191.56 79.4092 185.491 70.385 178.003 70.385C170.516 70.385 164.446 79.4092 164.446 90.541C164.446 101.673 170.516 110.697 178.003 110.697Z" fill="url(#paint8_linear_43_934)"/>
<path id="Vector_43" d="M179.315 110.697C186.449 110.697 192.232 101.673 192.232 90.541C192.232 79.4092 186.449 70.385 179.315 70.385C172.181 70.385 166.398 79.4092 166.398 90.541C166.398 101.673 172.181 110.697 179.315 110.697Z" fill="#B3B3B3"/>
<g id="Group_8">
<path id="Vector_44" d="M215.684 54.8919L215.418 54.6299L179.871 86.6579L183.835 90.5409L215.684 54.8919Z" fill="url(#paint9_linear_43_934)"/>
<path id="Vector_45" opacity="0.25" d="M215.684 54.8919L215.418 54.6299L182.42 89.1549L183.835 90.5409L215.684 54.8919Z" fill="#2B0C4C"/>
<g id="Group_9">
<g id="Clip path group_5">
<mask id="mask4_43_934" style="mask-type:luminance" maskUnits="userSpaceOnUse" x="211" y="52" width="7" height="7">
<g id="SVGID_00000021824570001929675900000010641851162097259160_">
<path id="Vector_46" d="M217.726 56.6419C217.148 58.3479 215.289 59.2489 213.574 58.6529C211.859 58.0569 210.937 56.1909 211.515 54.4849C212.093 52.7789 213.952 51.8779 215.667 52.4739C217.382 53.0699 218.304 54.9359 217.726 56.6419Z" fill="white"/>
</g>
</mask>
<g mask="url(#mask4_43_934)">
<path id="Vector_47" d="M217.373 56.6819C216.822 58.3079 215.051 59.1659 213.416 58.5979C211.781 58.0299 210.903 56.2519 211.454 54.6259C212.005 52.9999 213.776 52.1419 215.411 52.7099C217.045 53.2779 217.924 55.0569 217.373 56.6819Z" fill="#B547B2"/>
</g>
</g>
<g id="Clip path group_6">
<mask id="mask5_43_934" style="mask-type:luminance" maskUnits="userSpaceOnUse" x="211" y="52" width="7" height="7">
<g id="SVGID_00000021824570001929675900000010641851162097259160__2">
<path id="Vector_48" d="M217.726 56.6419C217.148 58.3479 215.289 59.2489 213.574 58.6529C211.859 58.0569 210.937 56.1909 211.515 54.4849C212.093 52.7789 213.952 51.8779 215.667 52.4739C217.382 53.0699 218.304 54.9359 217.726 56.6419Z" fill="white"/>
</g>
</mask>
<g mask="url(#mask5_43_934)">
<path id="Vector_49" opacity="0.1" d="M217.48 55.0788C217.499 56.4798 216.103 57.6188 214.364 57.6228C212.624 57.6268 211.199 56.4948 211.181 55.0938C211.162 53.6928 212.558 52.5538 214.297 52.5498C216.036 52.5458 217.461 53.6778 217.48 55.0788Z" fill="white"/>
</g>
</g>
<g id="Clip path group_7">
<mask id="mask6_43_934" style="mask-type:luminance" maskUnits="userSpaceOnUse" x="211" y="52" width="7" height="7">
<g id="SVGID_00000021824570001929675900000010641851162097259160__3">
<path id="Vector_50" d="M217.726 56.6419C217.148 58.3479 215.289 59.2489 213.574 58.6529C211.859 58.0569 210.937 56.1909 211.515 54.4849C212.093 52.7789 213.952 51.8779 215.667 52.4739C217.382 53.0699 218.304 54.9359 217.726 56.6419Z" fill="white"/>
</g>
</mask>
<g mask="url(#mask6_43_934)">
<path id="Vector_51" opacity="0.2" d="M215.854 53.4338C216.25 54.3488 215.637 55.4848 214.484 55.9728C213.331 56.4598 212.076 56.1138 211.68 55.1988C211.284 54.2838 211.898 53.1478 213.05 52.6598C214.203 52.1718 215.458 52.5188 215.854 53.4338Z" fill="white"/>
</g>
</g>
</g>
</g>
<g id="Group_10">
<path id="Vector_52" d="M23.72 56.6428L23.436 56.7138L33.1671 92.0628L37.394 91.0078L23.72 56.6428Z" fill="url(#paint10_linear_43_934)"/>
<g id="Group_11">
<g id="Clip path group_8">
<mask id="mask7_43_934" style="mask-type:luminance" maskUnits="userSpaceOnUse" x="21" y="55" width="6" height="6">
<g id="SVGID_00000064318420667926391240000002624056695374058376_">
<path id="Vector_53" d="M25.7199 56.0028C26.7229 57.0368 26.6799 58.5858 25.6239 59.4618C24.5679 60.3388 22.8979 60.2108 21.8949 59.1768C20.8919 58.1428 20.9349 56.5938 21.9909 55.7178C23.0479 54.8418 24.7169 54.9688 25.7199 56.0028Z" fill="white"/>
</g>
</mask>
<g mask="url(#mask7_43_934)">
<path id="Vector_54" d="M25.6187 56.2458C26.5747 57.2308 26.5337 58.7068 25.5267 59.5418C24.5197 60.3768 22.9297 60.2558 21.9737 59.2708C21.0177 58.2858 21.0587 56.8098 22.0657 55.9748C23.0717 55.1398 24.6627 55.2608 25.6187 56.2458Z" fill="#B547B2"/>
</g>
</g>
<g id="Clip path group_9">
<mask id="mask8_43_934" style="mask-type:luminance" maskUnits="userSpaceOnUse" x="21" y="55" width="6" height="6">
<g id="SVGID_00000064318420667926391240000002624056695374058376__2">
<path id="Vector_55" d="M25.7199 56.0028C26.7229 57.0368 26.6799 58.5858 25.6239 59.4618C24.5679 60.3388 22.8979 60.2108 21.8949 59.1768C20.8919 58.1428 20.9349 56.5938 21.9909 55.7178C23.0479 54.8418 24.7169 54.9688 25.7199 56.0028Z" fill="white"/>
</g>
</mask>
<g mask="url(#mask8_43_934)">
<path id="Vector_56" opacity="0.1" d="M24.5159 55.5569C25.5209 56.0869 25.8189 57.4289 25.1809 58.5539C24.5429 59.6789 23.2109 60.1599 22.2059 59.6299C21.2009 59.0989 20.9029 57.7579 21.5409 56.6329C22.1779 55.5069 23.5099 55.0259 24.5159 55.5569Z" fill="white"/>
</g>
</g>
<g id="Clip path group_10">
<mask id="mask9_43_934" style="mask-type:luminance" maskUnits="userSpaceOnUse" x="21" y="55" width="6" height="6">
<g id="SVGID_00000064318420667926391240000002624056695374058376__3">
<path id="Vector_57" d="M25.7199 56.0028C26.7229 57.0368 26.6799 58.5858 25.6239 59.4618C24.5679 60.3388 22.8979 60.2108 21.8949 59.1768C20.8919 58.1428 20.9349 56.5938 21.9909 55.7178C23.0479 54.8418 24.7169 54.9688 25.7199 56.0028Z" fill="white"/>
</g>
</mask>
<g mask="url(#mask9_43_934)">
<path id="Vector_58" opacity="0.2" d="M22.7439 55.9689C23.5419 56.0679 24.1258 56.9038 24.0478 57.8368C23.9698 58.7698 23.2609 59.4458 22.4629 59.3468C21.6649 59.2478 21.0808 58.4119 21.1588 57.4789C21.2368 56.5459 21.9459 55.8699 22.7439 55.9689Z" fill="white"/>
</g>
</g>
</g>
</g>
<path id="Vector_59" d="M38.2834 92.2979C38.6744 101.163 37.5634 108.413 35.8044 108.49C34.0444 108.567 32.3014 101.444 31.9114 92.5779C31.5204 83.7129 32.6304 76.4629 34.3904 76.3859C36.1494 76.3089 37.8924 83.4329 38.2834 92.2979Z" fill="#B3B3B3"/>
<path id="Vector_60" d="M109.656 213.735C109.656 213.735 109.999 220.284 110.837 228.93C112.583 246.944 119.589 251.914 119.589 251.914L112.982 251.69C112.982 251.69 108.595 244.615 106.083 233.545C103.5 222.163 102.927 215.566 103.103 213.835C105.513 213.545 109.656 213.735 109.656 213.735Z" fill="url(#paint11_linear_43_934)"/>
<path id="Vector_61" d="M121.366 251.745C119.884 251.964 118.922 252.036 117.664 252.133C116.405 252.226 115.357 252.341 113.576 252.304C112.309 252.242 111.002 252.156 109.732 251.914C108.461 251.69 107.471 251.61 106.233 251.028L107.493 250.221C107.419 254.712 106.604 259.189 106.261 263.637C105.916 268.091 105.725 272.612 105.214 277.013C104.835 281.441 104.561 285.873 104.204 290.309C103.862 294.748 103.555 299.194 103.173 303.665L102.973 303.671C102.662 301.44 102.501 299.199 102.392 296.957C102.265 294.714 102.248 292.469 102.269 290.223C102.311 285.731 102.707 281.246 103.342 276.795C103.913 272.325 105.036 268.003 105.626 263.568C105.91 261.356 106.063 259.126 105.995 256.899C105.965 254.672 105.993 253.292 105.949 251.062L105.855 249.843L107.492 250.22C108.573 250.538 109.339 250.611 110.386 250.811C111.749 251.033 113.011 251.168 114.23 251.311C116.86 251.531 118.867 251.525 121.366 251.745Z" fill="#808080"/>
<path id="Vector_62" d="M167.328 290.542H138.264L139.91 304.675C135.514 309.531 132.903 320.337 139.91 323.223C147.899 326.513 158.53 323.885 164.707 319.668C167.161 317.992 167.76 316.91 167.75 313.938C167.741 311.188 167.732 307.446 167.732 303.094L167.328 290.542Z" fill="#808080"/>
<path id="Vector_63" opacity="0.1" d="M167.328 290.542L157.969 291.211L160.312 308.539C160.312 311.346 156.832 324.705 139.91 323.223C147.899 326.513 158.53 323.885 164.707 319.668C167.161 317.992 167.76 316.91 167.75 313.938C167.741 311.188 167.732 307.446 167.732 303.094L167.328 290.542Z" fill="#2B0C4C"/>
<path id="Vector_64" d="M160.313 308.54C154.027 309.931 140.808 311.477 139.756 305.294C135.721 310.208 136.376 313.084 142.7 314.736C149.011 316.384 159.009 312.472 160.313 308.54Z" fill="#B3B3B3"/>
<path id="Vector_65" d="M163.642 290.526C163.446 287.546 163.463 284.593 163.56 281.649C163.59 280.175 163.695 278.709 163.759 277.239C163.871 275.774 163.96 274.306 164.093 272.843L164.325 270.651C164.426 269.923 164.528 269.195 164.601 268.457L165.155 264.07C165.542 261.156 165.919 258.251 166.211 255.334C166.496 252.417 166.702 249.489 166.789 246.556C166.895 243.62 166.844 240.701 166.508 237.796C166.19 234.895 165.593 232.026 164.719 229.261C164.282 227.879 163.764 226.526 163.175 225.217C162.593 223.929 161.904 222.595 161.162 221.541L160.91 221.183L161.007 220.683C162.226 214.378 163.347 207.996 163.902 201.628C164.039 200.036 164.146 198.446 164.194 196.862C164.246 195.258 164.205 193.751 164.174 192.102C164.093 188.805 164.147 185.55 164.251 182.308C164.418 175.828 164.61 169.392 164.417 162.945C164.256 156.5 163.761 150.058 162.977 143.608L163.271 143.55C164.945 149.84 166.071 156.3 166.679 162.807C167.283 169.314 167.44 175.865 167.375 182.356C167.384 185.601 167.302 188.834 167.367 192.024C167.475 195.306 167.25 198.681 166.875 201.931C166.075 208.469 164.823 214.873 163.073 221.195L162.918 220.338C163.749 221.773 164.281 223.132 164.797 224.57C165.293 225.995 165.713 227.437 166.042 228.895C166.733 231.803 167.164 234.749 167.446 237.699C167.718 240.648 167.832 243.621 167.843 246.568C167.861 249.519 167.849 252.474 167.776 255.43C167.645 261.361 167.18 267.221 166.775 273.088C166.634 274.554 166.449 276.016 166.288 277.481C166.078 278.941 165.909 280.404 165.666 281.86C165.215 284.775 164.684 287.681 163.941 290.56L163.642 290.526Z" fill="#808080"/>
<path id="Vector_66" d="M138.264 290.542C140.723 290.443 143.133 290.394 145.547 290.353L152.781 290.223C155.193 290.214 157.607 290.178 160.029 290.226C162.451 290.257 164.877 290.33 167.328 290.543C164.944 291.16 162.526 291.523 160.102 291.785C157.678 292.056 155.242 292.178 152.803 292.222C150.363 292.222 147.92 292.164 145.485 291.907C143.052 291.653 140.618 291.265 138.264 290.542Z" fill="#2B0C4C"/>
<path id="Vector_67" d="M145.905 291.906C145.955 293.397 145.979 294.858 146 296.322L146.065 300.709C146.069 302.172 146.087 303.636 146.063 305.105C146.047 306.574 146.011 308.045 145.905 309.531C145.597 308.085 145.415 306.619 145.284 305.149C145.149 303.679 145.088 302.202 145.066 300.723C145.066 299.244 145.095 297.762 145.223 296.285C145.35 294.81 145.544 293.334 145.905 291.906Z" fill="#2B0C4C"/>
<path id="Vector_68" d="M167.735 307.381C166.966 308.102 166.524 308.83 166.146 309.634C165.77 310.424 165.479 311.242 165.228 312.085C164.983 312.928 164.763 313.793 164.59 314.697C164.402 315.603 164.261 316.534 164.014 317.564C163.436 316.681 163.141 315.67 163.019 314.635C162.903 313.598 163.012 312.532 163.312 311.515C163.616 310.5 164.127 309.524 164.87 308.725C165.592 307.941 166.66 307.301 167.735 307.381Z" fill="#2B0C4C"/>
<path id="Vector_69" d="M167.735 314.736C167.259 316.213 166.256 317.516 165.069 318.571C163.854 319.596 162.483 320.425 161.057 321.077C158.207 322.392 155.205 323.257 152.096 323.766C148.991 324.197 145.799 324.255 142.691 323.566C141.918 323.375 141.144 323.187 140.396 322.863C139.647 322.558 138.902 322.125 138.293 321.605C137.064 320.555 136.139 319.19 135.72 317.7C136.535 319.001 137.614 320.084 138.861 320.815C140.079 321.58 141.501 321.831 142.961 322.039C145.882 322.373 148.87 322.237 151.798 321.792C153.267 321.578 154.72 321.266 156.165 320.898C157.627 320.551 159.051 320.101 160.46 319.628C163.238 318.627 165.979 317.316 167.735 314.736Z" fill="#2B0C4C"/>
<path id="Vector_70" d="M179.814 105.819C185.777 105.819 190.61 98.9788 190.61 90.541C190.61 82.1031 185.777 75.2629 179.814 75.2629C173.852 75.2629 169.018 82.1031 169.018 90.541C169.018 98.9788 173.852 105.819 179.814 105.819Z" fill="#323232"/>
<path id="Vector_71" d="M180.739 105.819C186.191 105.819 190.61 98.9788 190.61 90.541C190.61 82.1031 186.191 75.2629 180.739 75.2629C175.288 75.2629 170.868 82.1031 170.868 90.541C170.868 98.9788 175.288 105.819 180.739 105.819Z" fill="url(#paint12_linear_43_934)"/>
<path id="Vector_72" d="M36.725 92.2909C37.365 100.704 36.823 107.605 35.515 107.705C34.207 107.804 32.628 101.065 31.989 92.6509C31.349 84.2379 31.891 77.3369 33.199 77.2369C34.507 77.1379 36.086 83.8779 36.725 92.2909Z" fill="url(#paint13_linear_43_934)"/>
<path id="Vector_73" d="M174.531 129.169C171.966 134.391 166.896 137.155 163.206 135.342C159.516 133.53 158.604 127.827 161.168 122.605C163.733 117.383 168.803 114.619 172.493 116.432C176.184 118.245 177.096 123.947 174.531 129.169Z" fill="url(#paint14_linear_43_934)"/>
<path id="Vector_74" d="M177.407 130.582C174.842 135.804 169.772 138.568 166.082 136.755C162.392 134.942 161.479 129.24 164.044 124.018C166.609 118.796 171.679 116.032 175.369 117.845C179.06 119.657 179.972 125.36 177.407 130.582Z" fill="#B3B3B3"/>
<path id="Vector_75" d="M44.607 129.532C47.196 134.742 51.045 139.532 53.045 137.47C53.96 136.527 50.657 133.224 47.744 128.188C45.006 123.454 42.848 119.327 41.607 119.759C38.669 120.782 42.018 124.322 44.607 129.532Z" fill="url(#paint15_linear_43_934)"/>
<path id="Vector_76" d="M44.0439 129.844C46.6329 135.054 50.9299 138.554 52.1069 137.969C53.2839 137.384 49.9739 133.545 46.9719 128.562C42.5809 121.274 41.8219 119.638 40.6449 120.223C39.4679 120.808 41.4549 124.634 44.0439 129.844Z" fill="#B3B3B3"/>
<path id="Vector_77" d="M46.5364 128.843C44.4764 125.811 43.3684 122.912 41.6064 122.927C36.5454 122.97 28.0094 129.341 24.2314 136.135C19.9634 143.812 20.0804 157.536 32.4564 165.177C41.4414 170.725 42.2313 171.468 48.4703 172.915C50.2623 171 54.6064 164.968 56.4764 160.923C47.8534 157.666 41.5284 154.437 39.2314 149.472C36.6254 143.84 45.3484 140.106 50.2314 135.969C50.2314 135.969 50.2734 134.344 46.5364 128.843Z" fill="#808080"/>
<g id="Group_12">
<path id="Vector_78" d="M106.727 290.542H77.6633L79.3093 304.675C74.9133 309.531 72.3023 320.337 79.3093 323.223C87.2983 326.513 97.9293 323.885 104.106 319.668C106.56 317.992 107.159 316.91 107.149 313.938C107.14 311.188 107.131 307.446 107.131 303.094L106.727 290.542Z" fill="#808080"/>
<path id="Vector_79" opacity="0.1" d="M106.727 290.542L99.3324 290.225L99.7124 308.539C86.5064 311.794 66.1824 308.232 79.3104 323.223C87.2994 326.513 97.9304 323.885 104.107 319.668C106.561 317.992 107.16 316.91 107.15 313.938C107.141 311.188 107.132 307.446 107.132 303.094L106.727 290.542Z" fill="#2B0C4C"/>
<path id="Vector_80" d="M99.7125 308.54C93.4265 309.931 80.2075 311.477 79.1555 305.294C75.1205 310.208 75.7755 313.084 82.0995 314.736C88.4105 316.384 98.4085 312.472 99.7125 308.54Z" fill="#B3B3B3"/>
<path id="Vector_81" d="M107.134 307.381C106.365 308.102 105.923 308.83 105.545 309.634C105.169 310.424 104.878 311.242 104.627 312.085C104.382 312.928 104.161 313.793 103.989 314.697C103.801 315.603 103.661 316.534 103.414 317.564C102.836 316.681 102.541 315.67 102.419 314.635C102.303 313.598 102.411 312.532 102.711 311.515C103.014 310.5 103.526 309.524 104.269 308.725C104.991 307.941 106.06 307.301 107.134 307.381Z" fill="#2B0C4C"/>
<path id="Vector_82" d="M107.134 314.736C106.658 316.213 105.655 317.516 104.468 318.571C103.253 319.596 101.882 320.425 100.456 321.077C97.6061 322.392 94.6041 323.257 91.4951 323.766C88.3901 324.197 85.1981 324.255 82.0901 323.566C81.3171 323.375 80.5431 323.187 79.7951 322.863C79.0461 322.558 78.3011 322.125 77.6921 321.605C76.4631 320.555 75.5371 319.19 75.1191 317.7C75.9341 319.001 77.0131 320.084 78.2601 320.815C79.4781 321.58 80.9001 321.831 82.3601 322.039C85.2811 322.373 88.2681 322.237 91.1971 321.792C92.6661 321.578 94.1191 321.266 95.5641 320.898C97.0261 320.551 98.4501 320.101 99.8601 319.628C102.637 318.627 105.378 317.316 107.134 314.736Z" fill="#2B0C4C"/>
<path id="Vector_83" d="M77.7041 290.542C80.1481 290.443 82.5431 290.394 84.9411 290.353L92.1292 290.223C94.5261 290.214 96.9251 290.178 99.3321 290.226C101.739 290.257 104.15 290.33 106.586 290.543C104.217 291.16 101.815 291.523 99.4061 291.785C96.9971 292.056 94.5761 292.178 92.1521 292.222C89.7281 292.222 87.2992 292.164 84.8792 291.907C82.4602 291.653 80.0421 291.265 77.7041 290.542Z" fill="#2B0C4C"/>
</g>
<path id="Vector_84" d="M83.405 291.531C83.455 293.022 83.4789 294.483 83.4999 295.947L83.5649 300.334C83.5689 301.797 83.5869 303.261 83.5629 304.73C83.5469 306.199 83.511 307.67 83.405 309.156C83.097 307.71 82.9149 306.244 82.7839 304.774C82.6489 303.304 82.5879 301.827 82.5659 300.348C82.5659 298.869 82.595 297.387 82.723 295.91C82.849 294.435 83.044 292.959 83.405 291.531Z" fill="#2B0C4C"/>
<path id="Vector_85" d="M34.0731 212.88L25.7871 195.018C25.7871 195.018 11.5221 191.422 9.9361 194.928C8.3501 198.433 15.6162 200.978 15.6162 200.978C15.6162 200.978 0.37413 207.171 0.0131301 211.068C-0.34787 214.966 13.8222 209.434 13.8222 209.434C13.8222 209.434 0.0251153 214.735 2.49812 218.261C4.97012 221.788 14.5651 215.783 14.5651 215.783C14.5651 215.783 3.93115 221.971 7.59815 223.841C11.2652 225.711 18.9551 217.75 18.9551 217.75C18.9551 217.75 9.01714 222.965 11.2651 225.712C13.5141 228.458 21.1891 222.441 22.9021 220.835C24.6141 219.227 28.7691 217.162 34.0731 212.88Z" fill="#808080"/>
<path id="Vector_86" d="M168.398 121.719C176.984 116.177 186.197 122.45 191.559 125.887C199.949 131.266 208.98 126.859 218.064 137.635C228.814 150.387 219.897 163.487 202.42 172.951C195.473 176.712 188.794 183.905 187.329 175.542C185.864 167.179 185.991 168.859 191.558 163.488C197.125 158.117 213.73 154.437 206.99 146.867C201.336 140.516 194.157 148.047 181.273 137.414C175.963 133.032 175.181 138.359 168.23 135.552C164.484 134.039 163.449 124.914 168.398 121.719Z" fill="#808080"/>
<g id="Group_13">
<path id="Vector_87" d="M176.211 119.528C175.088 119.647 173.982 119.835 172.929 120.186C171.87 120.501 170.856 120.948 169.953 121.545C168.133 122.719 166.82 124.533 166.343 126.623C166.072 127.651 166.011 128.76 165.999 129.843C166.004 130.926 166.159 132.002 166.535 132.993C167.249 135.019 169.368 136.318 171.627 136.395C170.505 136.55 169.324 136.352 168.263 135.843C167.208 135.309 166.355 134.374 165.845 133.297C165.313 132.221 165.121 131.028 165.064 129.868C165.032 128.705 165.098 127.545 165.375 126.386C165.651 125.237 166.161 124.129 166.876 123.175C167.608 122.236 168.519 121.436 169.552 120.881C171.61 119.751 173.959 119.336 176.211 119.528Z" fill="#2B0C4C"/>
<path id="Vector_88" d="M184.568 121.799C182.816 121.678 181.22 122.408 179.939 123.419C178.661 124.453 177.642 125.809 177.038 127.319C176.418 128.819 176.242 130.498 176.676 132.062C177.11 133.632 178.149 135.011 179.441 136.175C177.936 135.339 176.56 134.039 175.933 132.303C175.277 130.584 175.429 128.622 176.11 126.945C176.805 125.264 177.978 123.793 179.481 122.791C180.956 121.781 182.883 121.279 184.568 121.799Z" fill="#2B0C4C"/>
<path id="Vector_89" d="M192.732 127.3C190.799 129.137 189.111 131.137 188.138 133.49C187.641 134.655 187.348 135.897 187.238 137.17C187.139 138.445 187.212 139.748 187.399 141.077C186.84 139.864 186.486 138.524 186.458 137.148C186.411 135.773 186.689 134.382 187.216 133.104C188.299 130.549 190.34 128.491 192.732 127.3Z" fill="#2B0C4C"/>
<path id="Vector_90" d="M201.705 129.483C201.927 131.878 201.691 134.286 201.19 136.63C200.662 138.967 199.864 141.262 198.611 143.318C199.126 140.97 199.723 138.714 200.214 136.416C200.736 134.126 201.14 131.819 201.705 129.483Z" fill="#2B0C4C"/>
<path id="Vector_91" d="M214.198 134.189C214.328 135.491 214.441 136.797 214.341 138.123C214.254 139.447 213.954 140.782 213.403 142.025C212.84 143.261 212.025 144.389 211.012 145.278C209.998 146.169 208.809 146.806 207.585 147.263C208.629 146.461 209.609 145.641 210.465 144.721C211.299 143.783 211.993 142.747 212.493 141.615C213.011 140.49 213.332 139.274 213.571 138.025C213.794 136.775 213.942 135.479 214.198 134.189Z" fill="#2B0C4C"/>
<path id="Vector_92" d="M222.602 147.186C222.067 148.459 221.368 149.694 220.363 150.719C219.377 151.748 218.055 152.544 216.619 152.831C215.186 153.125 213.728 153.03 212.358 152.727C210.982 152.427 209.689 151.886 208.457 151.262C209.82 151.521 211.155 151.798 212.488 151.958C213.819 152.094 215.15 152.129 216.408 151.855C217.677 151.619 218.819 150.982 219.834 150.151C220.843 149.304 221.735 148.265 222.602 147.186Z" fill="#2B0C4C"/>
<path id="Vector_93" d="M216.874 162.227C215.676 162.626 214.364 162.668 213.098 162.501C211.826 162.339 210.583 161.93 209.439 161.31C208.312 160.674 207.259 159.797 206.606 158.626C205.928 157.473 205.805 156.033 206.231 154.849C206.225 156.111 206.57 157.281 207.266 158.209C207.954 159.138 208.89 159.87 209.923 160.435C210.951 161.014 212.081 161.434 213.245 161.737C214.415 162.033 215.617 162.214 216.874 162.227Z" fill="#2B0C4C"/>
<path id="Vector_94" d="M208.456 169.448C207.088 169.747 205.612 169.47 204.308 168.925C202.99 168.382 201.789 167.545 200.806 166.484C199.84 165.416 199.101 164.085 198.877 162.64C198.627 161.199 198.944 159.728 199.594 158.508C199.309 159.873 199.299 161.226 199.64 162.476C199.986 163.723 200.663 164.856 201.545 165.811C202.416 166.779 203.484 167.58 204.642 168.223C205.812 168.841 207.069 169.354 208.456 169.448Z" fill="#2B0C4C"/>
</g>
<path id="Vector_95" d="M192.99 151.022C187.088 143.423 162.594 133.616 158.547 149.928C154.5 166.24 172.819 167.847 179.026 199.941C181.948 215.047 181.085 224.003 181.085 224.003L198.024 225.371C198.024 225.371 220.903 186.958 192.99 151.022Z" fill="#B3B3B3"/>
<path id="Vector_96" opacity="0.1" d="M192.99 151.022C187.088 143.423 162.594 133.616 158.547 149.928C168.544 138.248 189.885 163.45 196.093 195.545C199.015 210.651 196.093 225.215 196.093 225.215L198.025 225.371C198.025 225.371 220.903 186.958 192.99 151.022Z" fill="#2B0C4C"/>
<path id="Vector_97" d="M200.889 219.465L181.134 217.206C181.134 217.206 170.472 227.141 172.644 230.233C174.816 233.325 180.86 228.628 180.86 228.628C180.86 228.628 178.095 244.352 181.255 246.634C184.414 248.916 187.179 234.413 187.179 234.413C187.179 234.413 184.414 248.491 188.759 248.247C193.103 248.003 193.032 237.033 193.032 237.033C193.032 237.033 192.708 248.954 196.263 246.881C199.817 244.808 197.053 234.413 197.053 234.413C197.053 234.413 196.263 245.265 199.818 244.808C203.372 244.352 202.272 234.958 201.8 232.728C201.327 230.498 201.756 226.02 200.889 219.465Z" fill="#808080"/>
<path id="Vector_98" opacity="0.1" d="M200.889 219.465L181.134 217.206C181.134 217.206 201.014 228.594 199.817 244.809C203.371 244.353 202.271 234.959 201.799 232.729C201.327 230.498 201.756 226.02 200.889 219.465Z" fill="#2B0C4C"/>
<g id="Group_14">
<path id="Vector_99" d="M198.288 169.371C198.785 169.11 199.363 168.972 199.943 169.043C200.532 169.1 201.06 169.375 201.557 169.67C202.531 170.303 203.376 171.125 204.089 172.02C205.538 173.816 206.376 175.952 206.741 178.14C207.094 180.344 207.001 182.585 206.896 184.783C206.865 185.336 206.808 185.89 206.705 186.458C206.66 186.741 206.571 187.03 206.468 187.318L206.249 187.751L206.018 188.11C205.376 189.042 204.613 189.969 203.459 190.572C202.327 191.184 200.658 191.207 199.454 190.48C198.234 189.794 197.464 188.757 196.808 187.748C195.588 185.694 194.902 183.482 194.454 181.373C194.019 179.229 193.709 176.962 194.224 174.635C194.469 173.486 194.941 172.333 195.66 171.407C196.387 170.474 197.352 169.892 198.288 169.371ZM198.433 169.633C197.527 170.151 196.695 170.879 196.364 171.824C195.999 172.749 196.058 173.755 196.215 174.728C196.377 175.709 196.616 176.676 196.858 177.667C197.075 178.654 197.325 179.653 197.577 180.656C198.1 182.692 198.5 184.655 199.291 186.379C199.706 187.199 200.19 187.962 200.765 188.46C201.331 188.943 202.006 189.212 202.868 189.039C203.709 188.854 204.573 188.271 205.199 187.503L205.441 187.216L205.598 186.943C205.68 186.731 205.762 186.514 205.811 186.27C205.922 185.793 205.948 185.278 205.928 184.765C205.85 182.69 205.004 180.69 204.317 178.763C203.61 176.826 203.03 174.898 202.42 172.95C202.097 171.989 201.724 171.011 201.064 170.26C200.746 169.882 200.341 169.558 199.866 169.44C199.395 169.31 198.883 169.401 198.433 169.633Z" fill="#808080"/>
</g>
<path id="Vector_100" d="M181.134 217.206C182.847 217.155 184.502 217.277 186.152 217.404C187.799 217.549 189.437 217.692 191.067 217.897C194.334 218.301 197.567 218.727 200.889 219.465C199.234 219.919 197.543 220.072 195.862 220.118C194.18 220.158 192.498 220.085 190.832 219.883C189.167 219.677 187.512 219.375 185.889 218.937C184.264 218.515 182.666 217.963 181.134 217.206Z" fill="#2B0C4C"/>
<path id="Vector_101" d="M25.7871 195.018C26.9751 196.226 27.9491 197.591 28.8281 199.001C29.7001 200.415 30.4791 201.879 31.1651 203.384C31.8521 204.888 32.4391 206.435 32.9461 208.011C33.4491 209.588 33.8711 211.198 34.0751 212.881C33.0951 211.5 32.2761 210.068 31.5081 208.616C30.7401 207.165 30.0141 205.7 29.3461 204.212C28.6661 202.729 28.0401 201.224 27.4411 199.7C26.8321 198.178 26.2601 196.644 25.7871 195.018Z" fill="#2B0C4C"/>
<path id="Vector_102" d="M41.584 122.927C42.82 123.467 43.855 124.405 44.753 125.393C45.668 126.383 46.443 127.486 47.154 128.622C47.852 129.77 48.433 130.985 48.97 132.181C49.247 132.781 49.512 133.385 49.771 134C50.009 134.607 50.292 135.292 50.208 135.968C50.057 135.304 49.725 134.777 49.338 134.228C48.979 133.674 48.617 133.115 48.28 132.544C47.591 131.399 46.992 130.245 46.301 129.142C45.627 128.028 44.913 126.939 44.151 125.884C43.373 124.843 42.6 123.79 41.584 122.927Z" fill="#2B0C4C"/>
<path id="Vector_103" d="M32.4341 127.636C34.5361 129.649 36.4061 131.852 38.1631 134.152C39.0271 135.312 39.8731 136.489 40.6321 137.729C41.3811 138.962 42.1401 140.252 42.4731 141.685C41.7841 140.411 40.8411 139.327 39.9901 138.172L37.3661 134.754C35.6461 132.449 33.9211 130.14 32.4341 127.636Z" fill="#2B0C4C"/>
<path id="Vector_104" d="M23.7603 137.004C26.1783 138.885 28.3982 140.927 30.8492 142.636C33.2802 144.377 35.9073 145.768 38.7833 146.814C35.7193 146.545 32.7812 145.227 30.2712 143.451C27.7542 141.655 25.6123 139.431 23.7603 137.004Z" fill="#2B0C4C"/>
<path id="Vector_105" d="M23.4951 155.128C24.1721 155.511 24.9231 155.665 25.6661 155.774C26.4111 155.886 27.1641 155.929 27.9151 155.924C29.4161 155.914 30.9141 155.746 32.3691 155.405C33.8251 155.075 35.2521 154.595 36.6011 153.932C37.9421 153.255 39.2191 152.438 40.4411 151.474C39.5021 152.707 38.3251 153.788 36.9781 154.615C35.6361 155.457 34.1291 156.013 32.5921 156.379C31.0471 156.72 29.4531 156.853 27.8781 156.7C26.3331 156.535 24.6781 156.188 23.4951 155.128Z" fill="#2B0C4C"/>
<path id="Vector_106" d="M33.4121 165.769C34.9121 165.571 36.3812 165.31 37.7932 164.919C39.1962 164.514 40.5521 163.965 41.6941 163.129C42.8451 162.309 43.7171 161.164 44.2401 159.84C44.7571 158.51 44.9451 157.03 44.9781 155.517C45.3301 156.981 45.4221 158.568 44.9801 160.091C44.5641 161.616 43.5741 163.003 42.2841 163.936C40.9841 164.861 39.4811 165.408 37.9681 165.676C36.4521 165.956 34.9121 165.957 33.4121 165.769Z" fill="#2B0C4C"/>
<path id="Vector_107" d="M44.5029 171.844C45.9389 171.597 47.209 170.95 48.361 170.177C49.501 169.383 50.5029 168.402 51.2499 167.262C52.0139 166.134 52.4969 164.828 52.6439 163.462C52.7869 162.092 52.6189 160.683 52.2949 159.26C52.9789 160.535 53.4439 161.991 53.4229 163.51C53.4289 165.028 52.9239 166.546 52.0839 167.813C51.2319 169.076 50.0869 170.122 48.7709 170.837C47.4689 171.556 45.9609 171.989 44.5029 171.844Z" fill="#2B0C4C"/>
<path id="Vector_108" opacity="0.1" d="M17.0389 202.386C14.7309 205.886 16.3909 216.61 22.8979 217.206C29.6919 217.829 33.4119 212.88 33.4119 212.88C33.4119 212.88 30.7409 208.969 29.6639 204.914C22.5439 207.657 17.0389 202.386 17.0389 202.386Z" fill="#2B0C4C"/>
</g>
<defs>
<linearGradient id="paint0_linear_43_934" x1="81.6883" y1="164.81" x2="201.112" y2="164.81" gradientUnits="userSpaceOnUse">
<stop stop-color="#C64473"/>
<stop offset="0.3498" stop-color="#B72358"/>
<stop offset="1" stop-color="#930035"/>
</linearGradient>
<linearGradient id="paint1_linear_43_934" x1="119.589" y1="130.481" x2="119.589" y2="252.34" gradientUnits="userSpaceOnUse">
<stop stop-color="white"/>
<stop offset="0.211" stop-color="#FAFAFA"/>
<stop offset="0.4455" stop-color="#EDEDED"/>
<stop offset="0.6913" stop-color="#D7D7D7"/>
<stop offset="0.9434" stop-color="#B8B8B8"/>
<stop offset="1" stop-color="#B0B0B0"/>
</linearGradient>
<linearGradient id="paint2_linear_43_934" x1="79.0102" y1="191.411" x2="137.522" y2="191.411" gradientUnits="userSpaceOnUse">
<stop stop-color="#C64473"/>
<stop offset="0.3498" stop-color="#B72358"/>
<stop offset="1" stop-color="#930035"/>
</linearGradient>
<linearGradient id="paint3_linear_43_934" x1="110.904" y1="6.59339" x2="110.904" y2="163.488" gradientUnits="userSpaceOnUse">
<stop stop-color="white"/>
<stop offset="1" stop-color="#B0B0B0"/>
</linearGradient>
<radialGradient id="paint4_radial_43_934" cx="0" cy="0" r="1" gradientUnits="userSpaceOnUse" gradientTransform="translate(146.932 108.671) scale(42.4755 49.672)">
<stop stop-color="white"/>
<stop offset="1" stop-color="white"/>
</radialGradient>
<radialGradient id="paint5_radial_43_934" cx="0" cy="0" r="1" gradientUnits="userSpaceOnUse" gradientTransform="translate(73.8022 74.639) scale(42.4755 49.6721)">
<stop stop-color="white"/>
<stop offset="1" stop-color="white"/>
</radialGradient>
<linearGradient id="paint6_linear_43_934" x1="156.971" y1="105.539" x2="206.282" y2="98.6091" gradientUnits="userSpaceOnUse">
<stop stop-color="#BC2FB9"/>
<stop offset="0.3399" stop-color="#BC2FB9"/>
<stop offset="1" stop-color="#FF005C"/>
</linearGradient>
<linearGradient id="paint7_linear_43_934" x1="35.097" y1="57.2273" x2="177.774" y2="57.2273" gradientUnits="userSpaceOnUse">
<stop stop-color="#C64473"/>
<stop offset="0.3498" stop-color="#B72358"/>
<stop offset="1" stop-color="#930035"/>
</linearGradient>
<linearGradient id="paint8_linear_43_934" x1="164.445" y1="90.5414" x2="191.56" y2="90.5414" gradientUnits="userSpaceOnUse">
<stop stop-color="#C64473"/>
<stop offset="0.3498" stop-color="#B72358"/>
<stop offset="1" stop-color="#930035"/>
</linearGradient>
<linearGradient id="paint9_linear_43_934" x1="179.871" y1="72.5857" x2="215.684" y2="72.5857" gradientUnits="userSpaceOnUse">
<stop stop-color="#C64473"/>
<stop offset="0.3498" stop-color="#B72358"/>
<stop offset="1" stop-color="#930035"/>
</linearGradient>
<linearGradient id="paint10_linear_43_934" x1="23.3113" y1="86.5422" x2="36.1573" y2="63.6101" gradientUnits="userSpaceOnUse">
<stop stop-color="#C64473"/>
<stop offset="0.3498" stop-color="#B72358"/>
<stop offset="1" stop-color="#930035"/>
</linearGradient>
<linearGradient id="paint11_linear_43_934" x1="103.074" y1="232.794" x2="119.588" y2="232.794" gradientUnits="userSpaceOnUse">
<stop stop-color="#C64473"/>
<stop offset="0.3498" stop-color="#B72358"/>
<stop offset="1" stop-color="#930035"/>
</linearGradient>
<linearGradient id="paint12_linear_43_934" x1="170.868" y1="90.5412" x2="190.611" y2="90.5412" gradientUnits="userSpaceOnUse">
<stop stop-color="#C64473"/>
<stop offset="0.3498" stop-color="#B72358"/>
<stop offset="1" stop-color="#930035"/>
</linearGradient>
<linearGradient id="paint13_linear_43_934" x1="31.9888" y1="92.6512" x2="36.725" y2="92.2911" gradientUnits="userSpaceOnUse">
<stop stop-color="#C64473"/>
<stop offset="0.3498" stop-color="#B72358"/>
<stop offset="1" stop-color="#930035"/>
</linearGradient>
<linearGradient id="paint14_linear_43_934" x1="161.168" y1="122.606" x2="174.531" y2="129.169" gradientUnits="userSpaceOnUse">
<stop stop-color="#C64473"/>
<stop offset="0.3498" stop-color="#B72358"/>
<stop offset="1" stop-color="#930035"/>
</linearGradient>
<linearGradient id="paint15_linear_43_934" x1="48.8336" y1="127.908" x2="44.5035" y2="130.06" gradientUnits="userSpaceOnUse">
<stop stop-color="#C64473"/>
<stop offset="0.3498" stop-color="#B72358"/>
<stop offset="1" stop-color="#930035"/>
</linearGradient>
</defs>
</svg>
