<svg width="309" height="515" viewBox="0 0 309 515" fill="none" xmlns="http://www.w3.org/2000/svg">
<g id="torreextraterrestre">
<g id="Group">
<path id="Vector" d="M176 175.567H133V515.001H176V175.567Z" fill="url(#paint0_linear_43_689)"/>
<path id="Vector_2" opacity="0.3" d="M176 236.834L133 223V175.567H176V236.834Z" fill="#0B0A0C"/>
<g id="Group_2">
<g id="Group_3">
<g id="Clip path group">
<mask id="mask0_43_689" style="mask-type:luminance" maskUnits="userSpaceOnUse" x="48" y="54" width="213" height="112">
<g id="SVGID_00000174592808096849856170000000916997428038596506_">
<path id="Vector_3" d="M260.346 166H48.104C48.104 112.216 95.616 54.8689 154.225 54.8689C212.834 54.8689 260.346 112.216 260.346 166Z" fill="white"/>
</g>
</mask>
<g mask="url(#mask0_43_689)">
<path id="Vector_4" d="M260.346 166H48.104C48.104 112.216 95.616 54.8689 154.225 54.8689C212.834 54.8689 260.346 112.216 260.346 166Z" fill="#08AAAC"/>
</g>
</g>
<g id="Clip path group_2">
<mask id="mask1_43_689" style="mask-type:luminance" maskUnits="userSpaceOnUse" x="48" y="54" width="213" height="112">
<g id="SVGID_00000174592808096849856170000000916997428038596506__2">
<path id="Vector_5" d="M260.346 166H48.104C48.104 112.216 95.616 54.8689 154.225 54.8689C212.834 54.8689 260.346 112.216 260.346 166Z" fill="white"/>
</g>
</mask>
<g mask="url(#mask1_43_689)">
<g id="Group_4">
<path id="Vector_6" d="M57.1878 174.672H250.763C257.266 174.672 262.376 169.97 261.903 164.459C256.981 107.106 210.547 54.8918 153.991 54.8918C97.3188 54.8918 50.8109 105.168 46.0489 164.481C45.6059 169.985 50.6938 174.672 57.1878 174.672Z" fill="#1CACB7"/>
<path id="Vector_7" opacity="0.2" d="M57.1878 174.672H250.763C257.266 174.672 262.376 169.97 261.903 164.459C256.981 107.106 210.547 54.8918 153.991 54.8918C97.3188 54.8918 50.8109 105.168 46.0489 164.481C45.6059 169.985 50.6938 174.672 57.1878 174.672Z" fill="white"/>
<path id="Vector_8" d="M69.927 170.343L241.208 171.425C247.711 171.425 252.821 166.723 252.348 161.212C247.426 103.858 215.665 57.3699 153.99 57.3699C87.033 57.3699 56.876 112.558 56.876 160.152C56.876 165.668 63.433 170.343 69.927 170.343Z" fill="#1CACB7"/>
<path id="Vector_9" opacity="0.2" d="M76.1176 172.207L173.634 173.21C179.662 173.21 208.764 171.748 212.692 155.626C220.095 125.245 205.898 57.3699 154.036 57.3699C91.9726 57.3699 64.0195 110.528 64.0195 154.643C64.0205 170.704 70.0986 172.207 76.1176 172.207Z" fill="white"/>
<path id="Vector_10" opacity="0.2" d="M126.012 170.081C146.023 170.704 197.697 174.446 202.926 151.222C209.787 120.75 201.605 57.2329 153.991 57.3699C101.131 57.5219 66.8126 115.916 80.7706 153.81C85.7236 167.257 119.993 170.081 126.012 170.081Z" fill="white"/>
<path id="Vector_11" opacity="0.2" d="M109.928 139.545C117.186 133.362 119.342 131.869 124.131 109.605C132.646 70.0189 159.929 63.5499 150.375 60.5739C120.259 58.4089 73.03 95.8599 86.095 133.983C89.036 142.563 102.285 143.374 109.928 139.545Z" fill="white"/>
<path id="Vector_12" opacity="0.3" d="M197.83 72.7498C197.83 72.7498 258.807 110.878 242.314 165.369C234.244 192.031 95.0411 188.579 53.2391 174.131C43.8971 170.902 45.9151 163.163 47.0031 156.119C47.7501 151.284 53.0801 135.121 58.3131 149.206C67.6001 174.203 163.985 176.128 191.905 151.842C232.226 116.77 197.83 72.7498 197.83 72.7498Z" fill="#376F89"/>
<path id="Vector_13" opacity="0.4" d="M110.024 144.727C121.654 147.139 159.872 148.605 167.198 136.339C183.72 108.671 177.071 63.28 144.904 60.574C121.778 58.629 74.008 90.88 85.666 124.974C90.293 138.506 104.005 144.727 110.024 144.727Z" fill="url(#paint1_radial_43_689)"/>
<path id="Vector_14" opacity="0.7" d="M198.934 58.3809C247.103 80.0869 284.822 149.103 267.093 177.462C249.364 205.821 217.959 164.383 217.959 164.383C217.959 164.383 258.753 133.05 198.934 58.3809Z" fill="url(#paint2_linear_43_689)"/>
</g>
</g>
</g>
</g>
<path id="Vector_15" opacity="0.3" d="M64.2451 110.435C83.0261 103.061 149.74 78.0191 242.225 107.207C239.011 100.12 235.187 96.1791 235.187 96.1791C235.187 96.1791 125.268 70.6411 95.5391 86.1601C68.5461 100.251 64.2451 110.435 64.2451 110.435Z" fill="#0B0A0C"/>
<path id="Vector_16" d="M240.468 104.526C198.512 87.472 114.084 86.0591 65.8061 107.868L60.8491 109.477C60.8491 109.477 101.683 56.8101 154.299 56.8101C204.134 56.8101 244.589 105.082 244.589 105.082L240.468 104.526Z" fill="url(#paint3_linear_43_689)"/>
<path id="Vector_17" d="M154.004 2.89404H153.66L151.051 53.274L156.164 53.256L154.004 2.89404Z" fill="#8F3C81"/>
<path id="Vector_18" d="M189.536 68.2081C189.536 77.5181 173.479 63.2421 153.672 63.2421C133.865 63.2421 117.808 77.5181 117.808 68.2081C117.808 58.8981 133.865 45.4021 153.672 45.4021C173.48 45.4021 189.536 58.8981 189.536 68.2081Z" fill="#B547B2"/>
<g id="Group_5">
<g id="Clip path group_3">
<mask id="mask2_43_689" style="mask-type:luminance" maskUnits="userSpaceOnUse" x="150" y="0" width="7" height="7">
<g id="SVGID_00000147180551044190216690000014942752659924921507_">
<path id="Vector_19" d="M156.889 3.029C156.889 4.702 155.533 6.058 153.86 6.058C152.187 6.058 150.831 4.702 150.831 3.029C150.831 1.356 152.187 0 153.86 0C155.533 0 156.889 1.356 156.889 3.029Z" fill="white"/>
</g>
</mask>
<g mask="url(#mask2_43_689)">
<path id="Vector_20" d="M153.706 6.05788C155.3 6.05788 156.592 4.76578 156.592 3.17188C156.592 1.57799 155.3 0.285889 153.706 0.285889C152.112 0.285889 150.82 1.57799 150.82 3.17188C150.82 4.76578 152.112 6.05788 153.706 6.05788Z" fill="#B547B2"/>
</g>
</g>
<g id="Clip path group_4">
<mask id="mask3_43_689" style="mask-type:luminance" maskUnits="userSpaceOnUse" x="150" y="0" width="7" height="7">
<g id="SVGID_00000147180551044190216690000014942752659924921507__2">
<path id="Vector_21" d="M156.889 3.029C156.889 4.702 155.533 6.058 153.86 6.058C152.187 6.058 150.831 4.702 150.831 3.029C150.831 1.356 152.187 0 153.86 0C155.533 0 156.889 1.356 156.889 3.029Z" fill="white"/>
</g>
</mask>
<g mask="url(#mask3_43_689)">
<path id="Vector_22" opacity="0.1" d="M156.212 1.733C156.642 2.956 155.761 4.381 154.245 4.914C152.728 5.448 151.15 4.888 150.719 3.665C150.289 2.442 151.17 1.017 152.686 0.483995C154.203 -0.0500045 155.782 0.509996 156.212 1.733Z" fill="white"/>
</g>
</g>
<g id="Clip path group_5">
<mask id="mask4_43_689" style="mask-type:luminance" maskUnits="userSpaceOnUse" x="150" y="0" width="7" height="7">
<g id="SVGID_00000147180551044190216690000014942752659924921507__3">
<path id="Vector_23" d="M156.889 3.029C156.889 4.702 155.533 6.058 153.86 6.058C152.187 6.058 150.831 4.702 150.831 3.029C150.831 1.356 152.187 0 153.86 0C155.533 0 156.889 1.356 156.889 3.029Z" fill="white"/>
</g>
</mask>
<g mask="url(#mask4_43_689)">
<path id="Vector_24" opacity="0.2" d="M154.307 0.785033C154.923 1.46703 154.724 2.65104 153.862 3.43004C153 4.20904 151.802 4.28704 151.186 3.60504C150.57 2.92304 150.769 1.73904 151.631 0.960036C152.493 0.181036 153.691 0.103033 154.307 0.785033Z" fill="white"/>
</g>
</g>
</g>
<g id="Group_6">
<g id="Clip path group_6">
<mask id="mask5_43_689" style="mask-type:luminance" maskUnits="userSpaceOnUse" x="60" y="51" width="185" height="59">
<g id="SVGID_00000056403982862320680140000010779084524984407986_">
<path id="Vector_25" d="M244.589 105.082C200.411 84.5429 112.175 81.9409 60.8491 109.478C62.2181 102.755 97.3931 51.0449 154.299 51.0449C208.747 51.0439 244.589 98.1009 244.589 105.082Z" fill="white"/>
</g>
</mask>
<g mask="url(#mask5_43_689)">
<path id="Vector_26" d="M244.589 105.082C200.411 84.5429 112.175 81.9409 60.8491 109.478C62.2181 102.755 97.3931 51.0449 154.299 51.0449C208.747 51.0439 244.589 98.1009 244.589 105.082Z" fill="url(#paint4_linear_43_689)"/>
</g>
</g>
<g id="Clip path group_7">
<mask id="mask6_43_689" style="mask-type:luminance" maskUnits="userSpaceOnUse" x="60" y="51" width="185" height="59">
<g id="SVGID_00000056403982862320680140000010779084524984407986__2">
<path id="Vector_27" d="M244.589 105.082C200.411 84.5429 112.175 81.9409 60.8491 109.478C62.2181 102.755 97.3931 51.0449 154.299 51.0449C208.747 51.0439 244.589 98.1009 244.589 105.082Z" fill="white"/>
</g>
</mask>
<g mask="url(#mask6_43_689)">
<path id="Vector_28" opacity="0.4" d="M117.779 121.509C98.0301 124.636 70.5781 113.736 60.8491 109.478C62.2181 102.755 122.372 6.05894 201.523 63.2979C147.811 43.3079 116.601 109.477 117.779 121.509Z" fill="url(#paint5_radial_43_689)"/>
</g>
</g>
<g id="Clip path group_8">
<mask id="mask7_43_689" style="mask-type:luminance" maskUnits="userSpaceOnUse" x="60" y="51" width="185" height="59">
<g id="SVGID_00000056403982862320680140000010779084524984407986__3">
<path id="Vector_29" d="M244.589 105.082C200.411 84.5429 112.175 81.9409 60.8491 109.478C62.2181 102.755 97.3931 51.0449 154.299 51.0449C208.747 51.0439 244.589 98.1009 244.589 105.082Z" fill="white"/>
</g>
</mask>
<g mask="url(#mask7_43_689)">
<path id="Vector_30" opacity="0.2" d="M60.8492 109.477C48.1042 68.04 208.469 -38.427 244.589 105.081C208.469 44.014 118.13 40.2449 60.8492 109.477Z" fill="#BF2B52"/>
</g>
</g>
<g id="Clip path group_9">
<mask id="mask8_43_689" style="mask-type:luminance" maskUnits="userSpaceOnUse" x="60" y="51" width="185" height="59">
<g id="SVGID_00000056403982862320680140000010779084524984407986__4">
<path id="Vector_31" d="M244.589 105.082C200.411 84.5429 112.175 81.9409 60.8491 109.478C62.2181 102.755 97.3931 51.0449 154.299 51.0449C208.747 51.0439 244.589 98.1009 244.589 105.082Z" fill="white"/>
</g>
</mask>
<g mask="url(#mask8_43_689)">
<path id="Vector_32" opacity="0.2" d="M206.462 103.372C198.384 64.832 181.141 54.824 166.066 45.402C158.312 40.555 229.724 46.02 244.589 105.082C224.01 104.599 214.108 102.731 206.462 103.372Z" fill="#962245"/>
</g>
</g>
<g id="Clip path group_10">
<mask id="mask9_43_689" style="mask-type:luminance" maskUnits="userSpaceOnUse" x="60" y="51" width="185" height="59">
<g id="SVGID_00000056403982862320680140000010779084524984407986__5">
<path id="Vector_33" d="M244.589 105.082C200.411 84.5429 112.175 81.9409 60.8491 109.478C62.2181 102.755 97.3931 51.0449 154.299 51.0449C208.747 51.0439 244.589 98.1009 244.589 105.082Z" fill="white"/>
</g>
</mask>
<g mask="url(#mask9_43_689)">
<path id="Vector_34" opacity="0.7" d="M233.519 108.807C225.441 70.2669 194.839 60.4659 179.764 51.0439C172.01 46.1969 229.724 46.0199 244.589 105.081C224.01 104.599 241.165 108.166 233.519 108.807Z" fill="#B547B2"/>
</g>
</g>
<g id="Clip path group_11">
<mask id="mask10_43_689" style="mask-type:luminance" maskUnits="userSpaceOnUse" x="60" y="51" width="185" height="59">
<g id="SVGID_00000056403982862320680140000010779084524984407986__6">
<path id="Vector_35" d="M244.589 105.082C200.411 84.5429 112.175 81.9409 60.8491 109.478C62.2181 102.755 97.3931 51.0449 154.299 51.0449C208.747 51.0439 244.589 98.1009 244.589 105.082Z" fill="white"/>
</g>
</mask>
<g mask="url(#mask10_43_689)">
<path id="Vector_36" opacity="0.4" d="M150.344 54.69C118.014 54.239 99.1249 67.098 94.7209 79.346C89.2759 94.49 119.664 86.884 126.966 82.408C134.267 77.933 160.654 54.834 150.344 54.69Z" fill="url(#paint6_radial_43_689)"/>
</g>
</g>
</g>
</g>
<path id="Vector_37" d="M309 160C309 168.284 239.828 175 154.5 175C69.172 175 0 168.284 0 160C0 157.972 20.742 156.36 48.714 155.325C106.37 153.281 201.836 153.274 259.733 155.305C287.87 156.341 309 157.965 309 160Z" fill="url(#paint7_linear_43_689)"/>
<path id="Vector_38" opacity="0.2" d="M309 160C309 168.284 239.828 175 154.5 175C69.172 175 0 168.284 0 160C0 157.972 20.742 156.36 48.714 155.325C106.37 153.281 201.836 153.274 259.733 155.305C287.87 156.341 309 157.965 309 160Z" fill="white"/>
<path id="Vector_39" d="M309 160C309 168.284 265 190 155 190C43 190 0 168.284 0 160C3.063 160.125 41.497 162.539 70.714 163.325C134.508 165.04 174.007 165.586 239.733 163.305C269.249 162.281 295.417 160.834 309 160Z" fill="url(#paint8_linear_43_689)"/>
<path id="Vector_40" opacity="0.2" d="M309 160C309 168.284 265 190 155 190C43 190 0 168.284 0 160C5.724 164.057 35.809 179.216 105.962 179.801C159.75 180.25 172.5 183.813 244.589 175C273.904 171.416 292.625 166.75 309 160Z" fill="#0B0A0C"/>
<path id="Vector_41" d="M222.666 184.334H86.333V190.001H222.666V184.334Z" fill="url(#paint9_linear_43_689)"/>
<path id="Vector_42" opacity="0.3" d="M222.667 190.167L86.333 188.167V184.334H222.667V190.167Z" fill="#0B0A0C"/>
<path id="Vector_43" d="M211.834 190H97.167V195.667H211.834V190Z" fill="url(#paint10_linear_43_689)"/>
<path id="Vector_44" opacity="0.3" d="M211.833 195L97.167 193V190H211.833V195Z" fill="#0B0A0C"/>
<path id="Vector_45" d="M198.166 195.667H110.833V211.5H198.166V195.667Z" fill="url(#paint11_linear_43_689)"/>
<path id="Vector_46" opacity="0.3" d="M198.167 209.75L110.833 206V195.667H198.167V209.75Z" fill="#0B0A0C"/>
<path id="Vector_47" d="M211.834 503.025H97.167V515H211.834V503.025Z" fill="url(#paint12_linear_43_689)"/>
<path id="Vector_48" d="M198.166 487.192H110.833V503.025H198.166V487.192Z" fill="url(#paint13_linear_43_689)"/>
</g>
</g>
<defs>
<linearGradient id="paint0_linear_43_689" x1="133" y1="345.283" x2="176" y2="345.283" gradientUnits="userSpaceOnUse">
<stop stop-color="#EFBD50"/>
<stop offset="0.2463" stop-color="#F4BC71"/>
<stop offset="0.4975" stop-color="#C64200"/>
<stop offset="0.7488" stop-color="#9B1600"/>
<stop offset="1" stop-color="#AA00CE"/>
</linearGradient>
<radialGradient id="paint1_radial_43_689" cx="0" cy="0" r="1" gradientUnits="userSpaceOnUse" gradientTransform="translate(129.896 103.429) scale(48.3373 41.0713)">
<stop stop-color="white"/>
<stop offset="1" stop-color="white"/>
</radialGradient>
<linearGradient id="paint2_linear_43_689" x1="208.344" y1="125.344" x2="266.12" y2="117.224" gradientUnits="userSpaceOnUse">
<stop stop-color="#BC2FB9"/>
<stop offset="0.3399" stop-color="#BC2FB9"/>
<stop offset="1" stop-color="#FF005C"/>
</linearGradient>
<linearGradient id="paint3_linear_43_689" x1="60.849" y1="83.1437" x2="244.589" y2="83.1437" gradientUnits="userSpaceOnUse">
<stop stop-color="#C64200"/>
<stop offset="0.7488" stop-color="#9B1600"/>
<stop offset="1" stop-color="#AA00CE"/>
</linearGradient>
<linearGradient id="paint4_linear_43_689" x1="60.849" y1="80.2608" x2="244.589" y2="80.2608" gradientUnits="userSpaceOnUse">
<stop stop-color="#EFBD50"/>
<stop offset="0.2069" stop-color="#F4BC71"/>
<stop offset="1" stop-color="#C16000"/>
</linearGradient>
<radialGradient id="paint5_radial_43_689" cx="0" cy="0" r="1" gradientUnits="userSpaceOnUse" gradientTransform="translate(131.186 83.6628) scale(56.6656 56.6656)">
<stop stop-color="white"/>
<stop offset="1" stop-color="white"/>
</radialGradient>
<radialGradient id="paint6_radial_43_689" cx="0" cy="0" r="1" gradientUnits="userSpaceOnUse" gradientTransform="translate(123.387 71.5034) scale(23.9008 23.9008)">
<stop stop-color="white"/>
<stop offset="1" stop-color="white"/>
</radialGradient>
<linearGradient id="paint7_linear_43_689" x1="0" y1="164.394" x2="309" y2="164.394" gradientUnits="userSpaceOnUse">
<stop stop-color="#EFBD50"/>
<stop offset="0.2463" stop-color="#F4BC71"/>
<stop offset="0.4975" stop-color="#C64200"/>
<stop offset="0.7488" stop-color="#9B1600"/>
<stop offset="1" stop-color="#AA00CE"/>
</linearGradient>
<linearGradient id="paint8_linear_43_689" x1="0" y1="175" x2="309" y2="175" gradientUnits="userSpaceOnUse">
<stop stop-color="#EFBD50"/>
<stop offset="0.2463" stop-color="#F4BC71"/>
<stop offset="0.4975" stop-color="#C64200"/>
<stop offset="0.7488" stop-color="#9B1600"/>
<stop offset="1" stop-color="#AA00CE"/>
</linearGradient>
<linearGradient id="paint9_linear_43_689" x1="86.3333" y1="187.167" x2="222.667" y2="187.167" gradientUnits="userSpaceOnUse">
<stop stop-color="#EFBD50"/>
<stop offset="0.2463" stop-color="#F4BC71"/>
<stop offset="0.4975" stop-color="#C64200"/>
<stop offset="0.7488" stop-color="#9B1600"/>
<stop offset="1" stop-color="#AA00CE"/>
</linearGradient>
<linearGradient id="paint10_linear_43_689" x1="97.1666" y1="192.834" x2="211.833" y2="192.834" gradientUnits="userSpaceOnUse">
<stop stop-color="#EFBD50"/>
<stop offset="0.2463" stop-color="#F4BC71"/>
<stop offset="0.4975" stop-color="#C64200"/>
<stop offset="0.7488" stop-color="#9B1600"/>
<stop offset="1" stop-color="#AA00CE"/>
</linearGradient>
<linearGradient id="paint11_linear_43_689" x1="110.833" y1="203.584" x2="198.167" y2="203.584" gradientUnits="userSpaceOnUse">
<stop stop-color="#EFBD50"/>
<stop offset="0.2463" stop-color="#F4BC71"/>
<stop offset="0.4975" stop-color="#C64200"/>
<stop offset="0.7488" stop-color="#9B1600"/>
<stop offset="1" stop-color="#AA00CE"/>
</linearGradient>
<linearGradient id="paint12_linear_43_689" x1="97.1666" y1="509.013" x2="211.833" y2="509.013" gradientUnits="userSpaceOnUse">
<stop stop-color="#EFBD50"/>
<stop offset="0.2463" stop-color="#F4BC71"/>
<stop offset="0.4975" stop-color="#C64200"/>
<stop offset="0.7488" stop-color="#9B1600"/>
<stop offset="1" stop-color="#AA00CE"/>
</linearGradient>
<linearGradient id="paint13_linear_43_689" x1="110.833" y1="495.109" x2="198.167" y2="495.109" gradientUnits="userSpaceOnUse">
<stop stop-color="#EFBD50"/>
<stop offset="0.2463" stop-color="#F4BC71"/>
<stop offset="0.4975" stop-color="#C64200"/>
<stop offset="0.7488" stop-color="#9B1600"/>
<stop offset="1" stop-color="#AA00CE"/>
</linearGradient>
</defs>
</svg>
