<svg width="594" height="374" viewBox="0 0 594 374" fill="none" xmlns="http://www.w3.org/2000/svg">
<g id="svg-computers" clip-path="url(#clip0_27_2)">
<g id="tablet">
<path id="Vector" d="M555.236 330.454H405.137C399.676 330.448 394.441 328.316 390.58 324.526C386.718 320.736 384.546 315.597 384.54 310.237V77.8391C384.546 72.4789 386.718 67.34 390.58 63.5497C394.441 59.7595 399.676 57.6275 405.137 57.6215H555.236C560.697 57.6275 565.933 59.7595 569.794 63.5497C573.656 67.34 575.828 72.4789 575.834 77.8391V310.237C575.828 315.597 573.656 320.736 569.794 324.526C565.933 328.316 560.697 330.448 555.236 330.454Z" fill="#E6E6E6"/>
<path id="Vector_2" d="M557.726 69.6855H404.854C403.145 69.6876 401.506 70.355 400.297 71.5415C399.088 72.7279 398.408 74.3365 398.406 76.0144V311.442C398.409 313.12 399.089 314.728 400.298 315.915C401.506 317.101 403.145 317.769 404.854 317.771H557.726C559.435 317.769 561.074 317.102 562.283 315.915C563.491 314.729 564.171 313.12 564.173 311.442V76.0144C564.171 74.3365 563.491 72.7279 562.283 71.5415C561.074 70.355 559.435 69.6876 557.726 69.6855Z" fill="white"/>
<path id="Vector_3" d="M408.806 57.6215C408.807 57.2114 408.973 56.8183 409.268 56.5284C409.564 56.2384 409.964 56.0753 410.382 56.0748H421.097C421.515 56.0748 421.916 56.2378 422.211 56.5278C422.507 56.8179 422.673 57.2113 422.673 57.6215C422.673 58.0317 422.507 58.4251 422.211 58.7152C421.916 59.0052 421.515 59.1682 421.097 59.1682H410.382C409.964 59.1677 409.564 59.0046 409.268 58.7146C408.973 58.4247 408.807 58.0315 408.806 57.6215Z" fill="#E6E6E6"/>
<path id="Vector_4" d="M426.454 57.6215C426.455 57.2114 426.621 56.8183 426.916 56.5284C427.212 56.2384 427.612 56.0753 428.03 56.0748H438.745C439.163 56.0748 439.564 56.2378 439.859 56.5278C440.155 56.8179 440.321 57.2113 440.321 57.6215C440.321 58.0317 440.155 58.4251 439.859 58.7152C439.564 59.0052 439.163 59.1682 438.745 59.1682H428.03C427.612 59.1677 427.212 59.0046 426.916 58.7146C426.621 58.4247 426.455 58.0315 426.454 57.6215Z" fill="#E6E6E6"/>
<path id="Vector_5" d="M532.344 57.6215C532.344 57.2114 532.51 56.8183 532.806 56.5284C533.101 56.2384 533.502 56.0753 533.919 56.0748H544.634C545.052 56.0748 545.453 56.2378 545.749 56.5278C546.044 56.8179 546.21 57.2113 546.21 57.6215C546.21 58.0317 546.044 58.4251 545.749 58.7152C545.453 59.0052 545.052 59.1682 544.634 59.1682H533.919C533.502 59.1677 533.101 59.0046 532.806 58.7146C532.51 58.4247 532.344 58.0315 532.344 57.6215Z" fill="#E6E6E6"/>
<path id="Vector_6" d="M502.474 312.921C502.474 314.548 502.443 316.169 502.367 317.771H404.854C403.145 317.769 401.506 317.101 400.298 315.915C399.089 314.728 398.409 313.12 398.406 311.442V192.943C427.445 197.548 453.865 212.15 472.934 234.134C492.003 256.118 502.475 284.048 502.474 312.921Z" fill="#F2F2F2"/>
<path id="Vector_7" d="M499.163 130.186H462.796C461.141 130.186 459.799 131.503 459.799 133.127V136.797C459.799 138.422 461.141 139.738 462.796 139.738H499.163C500.818 139.738 502.159 138.422 502.159 136.797V133.127C502.159 131.503 500.818 130.186 499.163 130.186Z" fill="#FF9800"/>
<path id="Vector_8" d="M522.276 149.291H439.682C438.027 149.291 436.685 150.608 436.685 152.232V155.902C436.685 157.527 438.027 158.844 439.682 158.844H522.276C523.931 158.844 525.273 157.527 525.273 155.902V152.232C525.273 150.608 523.931 149.291 522.276 149.291Z" fill="#E6E6E6"/>
<path id="Vector_9" d="M522.276 168.396H439.682C438.027 168.396 436.685 169.713 436.685 171.337V175.008C436.685 176.632 438.027 177.949 439.682 177.949H522.276C523.931 177.949 525.273 176.632 525.273 175.008V171.337C525.273 169.713 523.931 168.396 522.276 168.396Z" fill="#E6E6E6"/>
<path id="Vector_10" d="M508.133 301.681C507.66 301.703 507.191 301.581 506.79 301.332C506.39 301.083 506.077 300.719 505.894 300.29C505.711 299.861 505.667 299.387 505.768 298.932C505.869 298.477 506.109 298.064 506.458 297.748L506.616 297.13C506.595 297.08 506.574 297.031 506.553 296.981C506.076 295.875 505.277 294.932 504.255 294.271C503.234 293.609 502.036 293.259 500.812 293.263C499.589 293.268 498.394 293.627 497.377 294.296C496.361 294.965 495.569 295.914 495.1 297.023C493.227 301.451 490.842 305.887 490.255 310.569C489.996 312.639 490.105 314.737 490.577 316.77C486.178 307.35 483.893 297.111 483.879 286.749C483.878 284.148 484.025 281.55 484.319 278.966C484.563 276.847 484.901 274.744 485.333 272.655C487.691 261.324 492.754 250.703 500.106 241.665C503.664 239.759 506.542 236.829 508.351 233.268C509.006 231.988 509.47 230.622 509.726 229.212C509.325 229.264 508.917 229.296 508.515 229.322C508.39 229.328 508.259 229.335 508.134 229.341L508.087 229.343C507.645 229.363 507.208 229.256 506.827 229.038C506.446 228.819 506.137 228.496 505.938 228.109C505.74 227.722 505.659 227.287 505.706 226.856C505.754 226.425 505.927 226.017 506.205 225.68C506.379 225.471 506.552 225.261 506.726 225.052C506.989 224.729 507.259 224.413 507.522 224.09C507.552 224.059 507.581 224.027 507.607 223.993C507.91 223.625 508.213 223.263 508.516 222.895C507.963 222.053 507.22 221.348 506.344 220.835C503.31 219.091 499.125 220.298 496.934 222.992C494.736 225.685 494.322 229.464 495.085 232.829C495.836 235.692 497.077 238.409 498.757 240.864C498.592 241.071 498.421 241.271 498.257 241.478C495.249 245.273 492.628 249.349 490.431 253.646C490.965 248.832 490.328 243.962 488.57 239.436C486.789 235.219 483.451 231.667 480.511 228.021C476.98 223.642 469.739 225.553 469.117 231.105C469.111 231.158 469.105 231.212 469.099 231.266C469.536 231.508 469.963 231.764 470.381 232.036C470.907 232.38 471.314 232.873 471.549 233.448C471.785 234.024 471.838 234.656 471.701 235.261C471.564 235.867 471.244 236.418 470.783 236.842C470.322 237.266 469.741 237.543 469.117 237.638L469.053 237.647C469.209 239.192 469.484 240.723 469.876 242.227C471.011 246.425 473.019 250.348 475.771 253.749C478.524 257.15 481.963 259.956 485.872 261.991C486.129 262.12 486.379 262.25 486.636 262.372C484.428 268.513 483.044 274.909 482.516 281.401C482.218 285.23 482.236 289.077 482.569 292.904L482.549 292.768C481.707 288.513 479.394 284.673 476.002 281.898C470.963 277.835 463.845 276.339 458.409 273.073C457.831 272.709 457.159 272.515 456.473 272.513C455.786 272.512 455.114 272.703 454.534 273.064C453.955 273.426 453.492 273.942 453.202 274.553C452.912 275.163 452.806 275.843 452.896 276.511C452.903 276.558 452.91 276.606 452.918 276.653C453.728 276.977 454.517 277.35 455.28 277.771C455.717 278.012 456.144 278.269 456.563 278.541C457.088 278.885 457.495 279.377 457.731 279.953C457.966 280.528 458.019 281.16 457.882 281.766C457.745 282.371 457.426 282.922 456.965 283.346C456.504 283.77 455.923 284.048 455.298 284.142L455.234 284.152C455.188 284.159 455.149 284.165 455.103 284.172C456.487 287.416 458.43 290.403 460.847 293.001C463.833 296.145 467.441 298.658 471.452 300.385C475.462 302.113 479.789 303.017 484.168 303.045H484.175C485.363 308.115 487.086 313.05 489.314 317.771H507.673C507.739 317.571 507.798 317.364 507.857 317.164C506.158 317.269 504.452 317.169 502.777 316.867C504.139 315.226 505.502 313.573 506.864 311.932C506.894 311.902 506.923 311.869 506.949 311.835C507.64 310.996 508.338 310.162 509.029 309.323L509.029 309.322C509.066 306.748 508.764 304.18 508.133 301.681ZM487.11 261.087L487.119 261.074L487.11 261.1V261.087ZM483.043 297.07L482.885 296.721C482.892 296.469 482.892 296.218 482.885 295.959C482.885 295.888 482.872 295.817 482.872 295.746C482.931 296.192 482.984 296.637 483.049 297.083L483.043 297.07Z" fill="#CCCCCC"/>
<path id="Vector_11" d="M550.084 90.4705H412.496C412.198 90.4641 411.915 90.3435 411.706 90.1346C411.498 89.9257 411.382 89.6451 411.382 89.3529C411.382 89.0606 411.498 88.78 411.706 88.5711C411.915 88.3622 412.198 88.2416 412.496 88.2352H550.084C550.382 88.2416 550.665 88.3622 550.873 88.5711C551.082 88.78 551.198 89.0606 551.198 89.3529C551.198 89.6451 551.082 89.9257 550.873 90.1346C550.665 90.3435 550.382 90.4641 550.084 90.4705Z" fill="#CACACA"/>
<path id="Vector_12" d="M419.836 85.0032C421.685 85.0032 423.183 83.4997 423.183 81.645C423.183 79.7903 421.685 78.2867 419.836 78.2867C417.988 78.2867 416.49 79.7903 416.49 81.645C416.49 83.4997 417.988 85.0032 419.836 85.0032Z" fill="#3F3D56"/>
<path id="Vector_13" d="M431.398 85.0032C433.246 85.0032 434.745 83.4997 434.745 81.645C434.745 79.7903 433.246 78.2867 431.398 78.2867C429.55 78.2867 428.051 79.7903 428.051 81.645C428.051 83.4997 429.55 85.0032 431.398 85.0032Z" fill="#3F3D56"/>
<path id="Vector_14" d="M442.959 85.0032C444.808 85.0032 446.306 83.4997 446.306 81.645C446.306 79.7903 444.808 78.2867 442.959 78.2867C441.111 78.2867 439.613 79.7903 439.613 81.645C439.613 83.4997 441.111 85.0032 442.959 85.0032Z" fill="#3F3D56"/>
<path id="Vector_15" d="M544.706 79.5842H537.217C537.068 79.587 536.927 79.647 536.823 79.751C536.719 79.8551 536.661 79.995 536.661 80.1408C536.661 80.2866 536.719 80.4265 536.823 80.5306C536.927 80.6346 537.068 80.6946 537.217 80.6974H544.706C544.855 80.6946 544.996 80.6346 545.1 80.5306C545.204 80.4265 545.262 80.2866 545.262 80.1408C545.262 79.995 545.204 79.8551 545.1 79.751C544.996 79.647 544.855 79.587 544.706 79.5842Z" fill="#3F3D56"/>
<path id="Vector_16" d="M544.706 81.6736H537.217C537.068 81.6765 536.927 81.7364 536.823 81.8405C536.719 81.9446 536.661 82.0845 536.661 82.2303C536.661 82.376 536.719 82.516 536.823 82.6201C536.927 82.7241 537.068 82.784 537.217 82.7869H544.706C544.855 82.784 544.996 82.7241 545.1 82.6201C545.204 82.516 545.262 82.376 545.262 82.2303C545.262 82.0845 545.204 81.9446 545.1 81.8405C544.996 81.7364 544.855 81.6765 544.706 81.6736Z" fill="#3F3D56"/>
<path id="Vector_17" d="M544.706 83.7603H537.217C537.068 83.7632 536.927 83.8231 536.823 83.9272C536.719 84.0312 536.661 84.1712 536.661 84.3169C536.661 84.4627 536.719 84.6026 536.823 84.7067C536.927 84.8108 537.068 84.8707 537.217 84.8736H544.706C544.855 84.8707 544.996 84.8108 545.1 84.7067C545.204 84.6026 545.262 84.4627 545.262 84.3169C545.262 84.1712 545.204 84.0312 545.1 83.9272C544.996 83.8231 544.855 83.7632 544.706 83.7603Z" fill="#3F3D56"/>
</g>
<g id="computer">
<path id="Vector_18" d="M321.47 193.031H241.699C240.571 193.033 239.489 193.474 238.692 194.258C237.895 195.043 237.448 196.105 237.45 197.213V320.902H325.73V197.213C325.731 196.664 325.621 196.12 325.407 195.612C325.193 195.105 324.879 194.644 324.483 194.255C324.087 193.867 323.617 193.559 323.1 193.349C322.583 193.139 322.029 193.031 321.47 193.031ZM281.853 263.31C279.358 263.298 276.969 262.321 275.205 260.589C273.441 258.858 272.445 256.513 272.433 254.064V239.798C272.435 237.347 273.429 234.997 275.195 233.265C276.961 231.533 279.356 230.56 281.853 230.56C284.35 230.56 286.744 231.533 288.511 233.265C290.277 234.997 291.27 237.347 291.272 239.798V254.064C291.261 256.513 290.265 258.858 288.501 260.589C286.737 262.321 284.347 263.298 281.853 263.31Z" fill="#E6E6E6"/>
<path id="Vector_19" d="M237.176 316.946V328.88C237.177 329.498 237.428 330.091 237.873 330.528C238.319 330.965 238.923 331.211 239.553 331.213H323.627C324.257 331.209 324.859 330.963 325.304 330.526C325.749 330.089 326.001 329.497 326.004 328.88V316.946L237.176 316.946Z" fill="#CCCCCC"/>
<path id="Vector_20" d="M453.562 0H112.575C109.645 0.00457472 106.837 1.14892 104.766 3.18225C102.694 5.21558 101.528 7.97207 101.524 10.8476V236.703C101.526 239.579 102.692 242.337 104.764 244.37C106.836 246.404 109.645 247.548 112.575 247.55H453.562C456.492 247.548 459.302 246.404 461.374 244.37C463.445 242.337 464.611 239.579 464.614 236.703V10.8476C464.609 7.97207 463.443 5.21558 461.371 3.18225C459.3 1.14892 456.492 0.00457293 453.562 0Z" fill="#E6E6E6"/>
<path id="Vector_21" d="M450.716 7.83508H115.424C113.855 7.83843 112.352 8.45237 111.244 9.54221C110.136 10.6321 109.514 12.1088 109.514 13.6485V233.906C109.516 235.443 110.14 236.917 111.248 238.005C112.356 239.092 113.857 239.704 115.424 239.707H450.716C452.282 239.704 453.784 239.092 454.892 238.005C456 236.917 456.623 235.443 456.626 233.906V13.6485C456.626 12.1088 456.004 10.6321 454.896 9.54221C453.788 8.45237 452.284 7.83843 450.716 7.83508Z" fill="white"/>
<path id="Vector_22" d="M456.626 13.6485V233.906C456.623 235.443 456 236.917 454.892 238.005C453.784 239.092 452.283 239.704 450.716 239.707H332.484C319.405 227.801 308.675 213.63 300.832 197.904C300.316 196.891 299.824 195.865 299.357 194.828C292.211 179.607 287.884 163.258 286.578 146.548C286.492 145.523 286.418 144.498 286.369 143.46C286.209 140.807 286.136 138.117 286.136 135.416C286.112 117.448 289.569 99.6393 296.322 82.9386C296.728 81.9014 297.158 80.8762 297.6 79.851C311.191 48.508 335.748 22.966 366.841 7.83508H450.716C452.284 7.83843 453.788 8.45237 454.896 9.54221C456.004 10.6321 456.626 12.1088 456.626 13.6485Z" fill="#FF9800"/>
<path id="Vector_23" d="M414.481 216.856C413.808 216.886 413.142 216.713 412.574 216.36C412.005 216.006 411.56 215.49 411.301 214.88C411.041 214.27 410.978 213.597 411.121 212.951C411.265 212.305 411.607 211.718 412.101 211.27C412.184 210.947 412.243 210.715 412.326 210.392C412.296 210.322 412.267 210.251 412.237 210.181C409.214 203.106 398.968 203.155 395.971 210.24C393.311 216.529 389.924 222.829 389.09 229.479C388.722 232.418 388.877 235.398 389.548 238.285C383.299 224.907 380.055 210.366 380.034 195.648C380.033 191.955 380.242 188.265 380.66 184.595C381.006 181.586 381.486 178.598 382.099 175.632C385.448 159.539 392.639 144.455 403.08 131.619C408.134 128.913 412.22 124.751 414.79 119.694C415.721 117.877 416.379 115.936 416.743 113.934C416.173 114.007 415.594 114.053 415.024 114.09C414.846 114.099 414.659 114.108 414.481 114.117L414.415 114.12C413.788 114.148 413.167 113.997 412.625 113.686C412.084 113.375 411.646 112.917 411.364 112.367C411.081 111.818 410.967 111.2 411.034 110.588C411.101 109.975 411.347 109.396 411.743 108.918C411.989 108.62 412.235 108.323 412.482 108.026C412.855 107.567 413.239 107.118 413.612 106.659C413.656 106.616 413.696 106.57 413.734 106.522C414.164 105.999 414.594 105.485 415.024 104.962C414.239 103.767 413.183 102.765 411.94 102.036C407.631 99.5592 401.687 101.275 398.575 105.1C395.454 108.925 394.865 114.291 395.949 119.071C396.875 123.162 398.893 126.914 401.164 130.482C400.93 130.775 400.687 131.06 400.454 131.353C396.183 136.744 392.46 142.533 389.34 148.636C390.099 141.798 389.193 134.882 386.697 128.455C384.168 122.465 379.426 117.421 375.251 112.243C370.236 106.023 359.952 108.737 359.069 116.622C359.06 116.698 359.052 116.774 359.044 116.851C359.664 117.194 360.271 117.559 360.865 117.944C361.611 118.433 362.189 119.133 362.524 119.95C362.858 120.767 362.933 121.665 362.739 122.525C362.545 123.385 362.091 124.167 361.436 124.769C360.781 125.372 359.956 125.766 359.069 125.9L358.978 125.914C359.199 128.108 359.59 130.282 360.146 132.418C361.76 138.38 364.61 143.951 368.52 148.781C372.429 153.611 377.313 157.597 382.865 160.487C383.23 160.671 383.585 160.854 383.95 161.029C380.814 169.75 378.848 178.834 378.099 188.053C377.676 193.492 377.701 198.955 378.174 204.39L378.146 204.198C376.95 198.154 373.665 192.701 368.847 188.759C361.691 182.989 351.581 180.864 343.861 176.227C340.145 173.994 335.383 176.879 336.031 181.108C336.042 181.176 336.052 181.243 336.063 181.311C337.214 181.771 338.334 182.301 339.418 182.897C340.038 183.241 340.645 183.605 341.239 183.991C341.985 184.48 342.564 185.179 342.898 185.997C343.232 186.814 343.307 187.712 343.113 188.572C342.919 189.432 342.465 190.214 341.81 190.816C341.155 191.419 340.33 191.813 339.443 191.947L339.353 191.961C339.287 191.97 339.231 191.979 339.166 191.988C341.132 196.597 343.892 200.838 347.324 204.528C351.565 208.994 356.689 212.563 362.385 215.015C368.08 217.468 374.226 218.753 380.445 218.792H380.454C382.143 225.993 384.589 233.002 387.753 239.707H413.827C413.921 239.423 414.005 239.129 414.089 238.845C411.676 238.994 409.253 238.852 406.874 238.423C408.809 236.093 410.743 233.744 412.678 231.414C412.721 231.371 412.761 231.325 412.799 231.277C413.781 230.084 414.771 228.901 415.752 227.708L415.753 227.707C415.805 224.052 415.378 220.405 414.481 216.857L414.481 216.856ZM384.622 159.203L384.636 159.185L384.622 159.222V159.203ZM378.847 210.307L378.623 209.812C378.632 209.454 378.632 209.096 378.623 208.729C378.623 208.628 378.604 208.527 378.604 208.426C378.688 209.059 378.763 209.692 378.856 210.325L378.847 210.307Z" fill="#2F2E41"/>
<path id="Vector_24" opacity="0.2" d="M456.933 82.9386V79.851H404.207V44.0662H401.074V79.851H340.643V44.0662H337.51V79.851H297.6C297.158 80.8762 296.728 81.9014 296.322 82.9387H337.51V143.461H286.369C286.418 144.498 286.492 145.523 286.578 146.548H337.51V194.828H299.357C299.824 195.865 300.316 196.891 300.832 197.904H337.51V238.489H340.643V197.904H401.074V238.489H404.207V197.904H456.933V194.828H404.207C404.207 188.488 405.479 182.21 407.951 176.352C410.423 170.495 414.046 165.172 418.614 160.689C423.181 156.206 428.604 152.65 434.571 150.223C440.539 147.797 446.935 146.548 453.394 146.548H456.933V143.46H404.207V82.9386H456.933ZM401.074 194.828H340.643V146.548H401.074V194.828ZM401.074 143.461H340.643V142.254C340.643 126.523 347.01 111.436 358.343 100.312C369.676 89.188 385.047 82.9386 401.074 82.9386L401.074 143.461Z" fill="black"/>
<path id="Vector_25" d="M152.201 227.079C152.208 231.39 151.426 235.668 149.891 239.707H115.424C113.857 239.704 112.356 239.092 111.248 238.005C110.14 236.917 109.516 235.443 109.514 233.906V191.355C111.439 191.049 113.387 190.896 115.338 190.896C120.179 190.896 124.973 191.832 129.445 193.65C133.918 195.468 137.981 198.133 141.405 201.493C144.828 204.853 147.543 208.842 149.395 213.232C151.248 217.622 152.201 222.327 152.201 227.079Z" fill="#FF9800"/>
<path id="Vector_26" d="M241.516 151.59H146.993C145.338 151.59 143.997 152.907 143.997 154.532V159.116C143.997 160.74 145.338 162.057 146.993 162.057H241.516C243.17 162.057 244.512 160.74 244.512 159.116V154.532C244.512 152.907 243.17 151.59 241.516 151.59Z" fill="#E6E6E6"/>
<path id="Vector_27" d="M241.516 130.658H146.993C145.338 130.658 143.997 131.974 143.997 133.599V138.183C143.997 139.807 145.338 141.124 146.993 141.124H241.516C243.17 141.124 244.512 139.807 244.512 138.183V133.599C244.512 131.974 243.17 130.658 241.516 130.658Z" fill="#E6E6E6"/>
<path id="Vector_28" d="M216.191 109.725H172.318C170.663 109.725 169.322 111.041 169.322 112.666V117.25C169.322 118.874 170.663 120.191 172.318 120.191H216.191C217.846 120.191 219.187 118.874 219.187 117.25V112.666C219.187 111.041 217.846 109.725 216.191 109.725Z" fill="#FF9800"/>
<path id="Vector_29" d="M418.654 26.6293H400.711C400.356 26.6362 400.017 26.7798 399.768 27.0291C399.519 27.2784 399.379 27.6137 399.379 27.9628C399.379 28.312 399.519 28.6472 399.768 28.8966C400.017 29.1459 400.356 29.2894 400.711 29.2963H418.654C419.009 29.2894 419.348 29.1459 419.597 28.8966C419.846 28.6472 419.985 28.312 419.985 27.9628C419.985 27.6137 419.846 27.2784 419.597 27.0291C419.348 26.7798 419.009 26.6362 418.654 26.6293Z" fill="#3F3D56"/>
<path id="Vector_30" d="M418.654 21.6304H400.711C400.356 21.6373 400.017 21.7808 399.768 22.0301C399.519 22.2795 399.379 22.6147 399.379 22.9639C399.379 23.313 399.519 23.6483 399.768 23.8976C400.017 24.1469 400.356 24.2904 400.711 24.2974H418.654C419.009 24.2904 419.348 24.1469 419.597 23.8976C419.846 23.6483 419.985 23.313 419.985 22.9639C419.985 22.6147 419.846 22.2795 419.597 22.0301C419.348 21.7808 419.009 21.6373 418.654 21.6304Z" fill="#3F3D56"/>
<path id="Vector_31" d="M141.486 29.4798C145.524 29.4798 148.798 26.195 148.798 22.1431C148.798 18.0911 145.524 14.8063 141.486 14.8063C137.448 14.8063 134.174 18.0911 134.174 22.1431C134.174 26.195 137.448 29.4798 141.486 29.4798Z" fill="#3F3D56"/>
<path id="Vector_32" d="M418.654 16.6248H400.711C400.356 16.6317 400.017 16.7752 399.768 17.0246C399.519 17.2739 399.379 17.6091 399.379 17.9583C399.379 18.3075 399.519 18.6427 399.768 18.892C400.017 19.1414 400.356 19.2849 400.711 19.2918H418.654C419.009 19.2849 419.348 19.1414 419.597 18.892C419.846 18.6427 419.985 18.3075 419.985 17.9583C419.985 17.6091 419.846 17.2739 419.597 17.0246C419.348 16.7752 419.009 16.6317 418.654 16.6248Z" fill="#3F3D56"/>
<path id="Vector_33" d="M192.003 29.4798C196.041 29.4798 199.315 26.195 199.315 22.1431C199.315 18.0911 196.041 14.8063 192.003 14.8063C187.965 14.8063 184.691 18.0911 184.691 22.1431C184.691 26.195 187.965 29.4798 192.003 29.4798Z" fill="#3F3D56"/>
<path id="Vector_34" d="M166.745 29.4798C170.783 29.4798 174.056 26.195 174.056 22.1431C174.056 18.0911 170.783 14.8063 166.745 14.8063C162.706 14.8063 159.433 18.0911 159.433 22.1431C159.433 26.195 162.706 29.4798 166.745 29.4798Z" fill="#3F3D56"/>
<path id="Vector_35" d="M433.861 38.1816H120.13C119.804 38.1748 119.493 38.0428 119.265 37.8139C119.037 37.585 118.909 37.2774 118.909 36.957C118.909 36.6367 119.037 36.3291 119.265 36.1002C119.493 35.8713 119.804 35.7392 120.13 35.7324H433.861C434.188 35.7392 434.498 35.8713 434.726 36.1002C434.955 36.3291 435.083 36.6367 435.083 36.957C435.083 37.2774 434.955 37.585 434.726 37.8139C434.498 38.0428 434.188 38.1748 433.861 38.1816Z" fill="#CACACA"/>
</g>
<g id="iphoneizq">
<path id="Vector_36" d="M182.299 156.994V122.598C182.299 117.318 180.162 112.254 176.358 108.521C172.555 104.787 167.396 102.69 162.017 102.69H87.7734C82.3943 102.69 77.2356 104.787 73.432 108.521C69.6284 112.254 67.4915 117.318 67.4915 122.598V311.3C67.4915 316.58 69.6284 321.644 73.432 325.377C77.2356 329.111 82.3943 331.208 87.7734 331.208H162.017C164.68 331.208 167.318 330.693 169.778 329.693C172.239 328.692 174.475 327.226 176.358 325.377C178.242 323.529 179.735 321.334 180.755 318.919C181.774 316.503 182.299 313.915 182.299 311.3V181.478C182.638 181.478 182.963 181.346 183.203 181.111C183.443 180.875 183.578 180.556 183.578 180.223V158.25C183.578 157.917 183.443 157.598 183.203 157.362C182.963 157.127 182.638 156.994 182.299 156.994Z" fill="#E6E6E6"/>
<path id="Vector_37" d="M177.982 122.734V311.164C177.983 315.078 176.41 318.834 173.605 321.616C170.8 324.399 166.991 325.982 163.003 326.023C162.948 326.028 162.893 326.031 162.837 326.03H88.2328C84.2163 326.029 80.3644 324.463 77.5243 321.675C74.6842 318.888 73.0885 315.107 73.0881 311.164V122.734C73.0885 118.792 74.6842 115.011 77.5243 112.223C80.3644 109.436 84.2163 107.869 88.2328 107.869H97.2865C96.8414 108.942 96.6718 110.106 96.7925 111.258C96.9133 112.41 97.3207 113.516 97.9789 114.477C98.6372 115.439 99.5261 116.227 100.567 116.772C101.609 117.317 102.771 117.602 103.951 117.603H146.484C147.663 117.6 148.824 117.313 149.863 116.767C150.903 116.221 151.79 115.433 152.448 114.472C153.105 113.511 153.512 112.407 153.633 111.255C153.754 110.104 153.585 108.941 153.142 107.869H162.837C166.854 107.869 170.706 109.436 173.546 112.223C176.386 115.011 177.982 118.792 177.982 122.734Z" fill="white"/>
<path id="Vector_38" d="M163.19 320.214C163.19 322.166 163.128 324.102 163.003 326.023C162.948 326.028 162.893 326.031 162.837 326.03H88.2328C84.2163 326.029 80.3644 324.463 77.5243 321.675C74.6842 318.888 73.0885 315.107 73.0881 311.164V227.192C97.3956 228.395 120.303 238.72 137.072 256.034C153.842 273.347 163.193 296.324 163.19 320.214Z" fill="#F2F2F2"/>
<path id="Vector_39" d="M67.9018 176.237C67.4441 176.237 67.0053 176.058 66.6816 175.74C66.3579 175.423 66.1759 174.992 66.1753 174.542V163.019C66.1753 162.57 66.3572 162.138 66.681 161.821C67.0048 161.503 67.4439 161.324 67.9018 161.324C68.3597 161.324 68.7988 161.503 69.1226 161.821C69.4464 162.138 69.6283 162.57 69.6283 163.019V174.542C69.6277 174.992 69.4457 175.423 69.122 175.74C68.7984 176.058 68.3595 176.237 67.9018 176.237Z" fill="#E6E6E6"/>
<path id="Vector_40" d="M134.695 167.036H116.375C114.72 167.036 113.378 168.353 113.378 169.977V174.561C113.378 176.186 114.72 177.502 116.375 177.502H134.695C136.35 177.502 137.692 176.186 137.692 174.561V169.977C137.692 168.353 136.35 167.036 134.695 167.036Z" fill="#FF9800"/>
<path id="Vector_41" d="M160.02 187.969H91.0499C89.395 187.969 88.0535 189.286 88.0535 190.91V195.494C88.0535 197.119 89.395 198.435 91.0499 198.435H160.02C161.675 198.435 163.017 197.119 163.017 195.494V190.91C163.017 189.286 161.675 187.969 160.02 187.969Z" fill="#E6E6E6"/>
<path id="Vector_42" d="M160.02 208.902H91.0499C89.395 208.902 88.0535 210.219 88.0535 211.843V216.427C88.0535 218.051 89.395 219.368 91.0499 219.368H160.02C161.675 219.368 163.017 218.051 163.017 216.427V211.843C163.017 210.219 161.675 208.902 160.02 208.902Z" fill="#E6E6E6"/>
<path id="Vector_43" d="M143.425 315.306C143.11 315.321 142.797 315.239 142.53 315.073C142.263 314.908 142.055 314.665 141.933 314.379C141.811 314.093 141.782 313.777 141.849 313.474C141.916 313.171 142.076 312.895 142.308 312.685L142.414 312.273C142.4 312.24 142.386 312.207 142.372 312.174C142.054 311.437 141.521 310.808 140.841 310.368C140.16 309.927 139.362 309.693 138.546 309.696C137.731 309.699 136.934 309.938 136.257 310.384C135.58 310.83 135.052 311.462 134.739 312.202C133.491 315.153 131.901 318.109 131.51 321.23C131.338 322.609 131.41 324.007 131.725 325.362C128.793 319.084 127.27 312.261 127.26 305.354C127.26 303.621 127.358 301.889 127.554 300.167C127.717 298.755 127.942 297.353 128.23 295.962C129.801 288.41 133.175 281.331 138.075 275.308C140.447 274.038 142.365 272.085 143.57 269.712C144.007 268.859 144.316 267.948 144.487 267.008C144.219 267.043 143.947 267.064 143.68 267.082C143.597 267.086 143.509 267.09 143.426 267.094L143.394 267.096C143.1 267.109 142.809 267.038 142.555 266.892C142.301 266.746 142.095 266.531 141.962 266.273C141.83 266.015 141.776 265.725 141.808 265.438C141.839 265.151 141.955 264.879 142.14 264.654C142.256 264.515 142.371 264.375 142.487 264.236C142.662 264.021 142.842 263.81 143.018 263.595C143.038 263.574 143.057 263.553 143.075 263.53C143.276 263.285 143.478 263.044 143.68 262.798C143.312 262.237 142.816 261.767 142.233 261.425C140.211 260.263 137.422 261.068 135.961 262.863C134.497 264.658 134.22 267.176 134.729 269.419C135.229 271.327 136.057 273.138 137.176 274.774C137.067 274.912 136.952 275.045 136.843 275.183C134.839 277.712 133.092 280.429 131.627 283.293C131.984 280.084 131.559 276.839 130.387 273.823C129.2 271.012 126.975 268.645 125.016 266.215C124.498 265.562 123.794 265.075 122.994 264.815C122.194 264.554 121.333 264.533 120.52 264.753C119.707 264.973 118.979 265.424 118.428 266.05C117.876 266.676 117.526 267.449 117.422 268.27C117.418 268.306 117.414 268.341 117.41 268.377C117.701 268.538 117.986 268.709 118.265 268.89C118.615 269.12 118.887 269.448 119.043 269.832C119.2 270.215 119.236 270.636 119.145 271.04C119.053 271.443 118.84 271.811 118.533 272.093C118.226 272.376 117.839 272.561 117.422 272.624L117.38 272.63C117.483 273.66 117.667 274.68 117.928 275.682C118.685 278.48 120.023 281.094 121.857 283.361C123.692 285.628 125.984 287.498 128.589 288.855C128.76 288.941 128.927 289.027 129.098 289.108C127.627 293.201 126.704 297.464 126.353 301.79C126.154 304.342 126.165 306.906 126.388 309.457L126.375 309.366C125.813 306.53 124.272 303.971 122.011 302.121C118.653 299.414 113.909 298.417 110.286 296.24C109.901 295.998 109.453 295.868 108.996 295.867C108.538 295.866 108.09 295.993 107.703 296.234C107.317 296.475 107.009 296.819 106.816 297.226C106.622 297.633 106.551 298.086 106.612 298.531L106.626 298.626C107.166 298.842 107.692 299.091 108.201 299.371C108.492 299.532 108.777 299.703 109.055 299.884C109.406 300.114 109.677 300.442 109.834 300.825C109.991 301.209 110.026 301.63 109.935 302.034C109.844 302.437 109.631 302.804 109.323 303.087C109.016 303.369 108.629 303.554 108.213 303.617L108.17 303.624C108.139 303.628 108.113 303.632 108.082 303.637C109.005 305.799 110.3 307.79 111.911 309.521C113.901 311.617 116.306 313.292 118.978 314.443C121.651 315.594 124.535 316.197 127.453 316.215H127.458C128.25 319.594 129.398 322.883 130.883 326.03H143.119C143.162 325.896 143.202 325.758 143.241 325.625C142.109 325.695 140.972 325.628 139.856 325.427C140.764 324.334 141.671 323.231 142.579 322.138C142.599 322.118 142.618 322.096 142.636 322.074C143.097 321.514 143.562 320.959 144.022 320.399L144.022 320.398C144.047 318.683 143.846 316.972 143.425 315.306ZM129.414 288.252L129.42 288.243L129.414 288.26V288.252ZM126.703 312.233L126.598 312.001C126.603 311.833 126.603 311.665 126.598 311.493C126.598 311.445 126.589 311.398 126.589 311.351C126.629 311.648 126.664 311.945 126.708 312.242L126.703 312.233Z" fill="#CCCCCC"/>
<path id="Vector_44" d="M67.5565 153.868C67.0988 153.867 66.6599 153.689 66.3363 153.371C66.0126 153.053 65.8306 152.623 65.83 152.173V140.65C65.83 140.2 66.0119 139.769 66.3357 139.452C66.6595 139.134 67.0986 138.955 67.5565 138.955C68.0144 138.955 68.4535 139.134 68.7773 139.452C69.1011 139.769 69.283 140.2 69.283 140.65V152.173C69.2824 152.623 69.1004 153.053 68.7767 153.371C68.453 153.689 68.0142 153.867 67.5565 153.868Z" fill="#E6E6E6"/>
<path id="Vector_45" d="M113.481 109.807C113.481 109.358 113.664 108.927 113.987 108.61C114.311 108.292 114.75 108.113 115.207 108.113H126.947C127.405 108.113 127.844 108.291 128.168 108.609C128.492 108.927 128.674 109.358 128.674 109.807C128.674 110.257 128.492 110.688 128.168 111.006C127.844 111.324 127.405 111.502 126.947 111.502H115.207C114.75 111.502 114.311 111.323 113.987 111.005C113.664 110.687 113.481 110.257 113.481 109.807Z" fill="white"/>
<path id="Vector_46" d="M67.9018 195.895C67.4441 195.894 67.0053 195.716 66.6816 195.398C66.3579 195.08 66.1759 194.65 66.1753 194.2V182.677C66.1753 182.227 66.3572 181.796 66.681 181.478C67.0048 181.161 67.4439 180.982 67.9018 180.982C68.3597 180.982 68.7988 181.161 69.1226 181.478C69.4464 181.796 69.6283 182.227 69.6283 182.677V194.2C69.6277 194.65 69.4457 195.08 69.122 195.398C68.7984 195.716 68.3595 195.894 67.9018 195.895Z" fill="#E6E6E6"/>
<path id="Vector_47" d="M133.508 111.502C134.462 111.502 135.235 110.743 135.235 109.807C135.235 108.872 134.462 108.113 133.508 108.113C132.555 108.113 131.782 108.872 131.782 109.807C131.782 110.743 132.555 111.502 133.508 111.502Z" fill="white"/>
</g>
<path id="Vector_48" d="M593.178 331.208L0.82228 331.416C0.604611 331.416 0.396077 331.33 0.242385 331.179C0.0886922 331.028 0.00238037 330.823 0.00238037 330.609C0.00238037 330.396 0.0886922 330.191 0.242385 330.039C0.396077 329.888 0.604611 329.803 0.82228 329.802L593.178 329.594C593.396 329.594 593.605 329.679 593.759 329.83C593.913 329.982 594 330.187 594 330.401C594 330.615 593.913 330.82 593.759 330.972C593.605 331.123 593.396 331.208 593.178 331.208Z" fill="#CACACA"/>
</g>
<defs>
<clipPath id="clip0_27_2">
<rect width="594" height="374" fill="white"/>
</clipPath>
</defs>
</svg>
