<svg width="641" height="373" viewBox="0 0 641 373" fill="none" xmlns="http://www.w3.org/2000/svg">
<g id="svg_silloncitos">
<path id="Vector" d="M479.639 345.771C557.312 345.771 620.278 328.362 620.278 306.886C620.278 285.41 557.312 268 479.639 268C401.966 268 339 285.41 339 306.886C339 328.362 401.966 345.771 479.639 345.771Z" fill="#D4314E"/>
<g id="sillonchico">
<g id="Group">
<path id="Vector_2" d="M595.073 183.412C590.857 233.436 564.125 267.396 517.89 284.068C468.445 301.897 417.114 289.686 386.698 244.146C374.25 225.509 366.703 201.72 377.678 180.618C386.442 163.773 403.342 152.987 412.876 136.545C424.393 116.682 423.847 91.334 436.761 72.41C455.933 44.3153 501.424 48.745 526.962 61.9148C553.17 75.4265 578.301 100.283 588.726 128.424C595.036 145.456 596.596 165.355 595.073 183.412Z" fill="#F74A5B"/>
<g id="Group_2">
<g id="Group_3">
<path id="Vector_3" d="M441.177 242.842C444.702 245.907 449.053 247.513 453.562 248.466C458.596 249.532 463.779 249.716 468.887 249.131C478.74 248.002 488.58 243.944 495.838 237.023C497.573 235.368 499.14 233.517 500.511 231.545C501.765 229.74 503.296 227.509 503.084 225.206C502.978 224.054 500.447 224.153 499.86 224.774C498.159 226.576 497.155 228.856 495.769 230.898C494.452 232.84 492.897 234.589 491.195 236.193C487.687 239.501 483.539 242.007 479.12 243.862C470.551 247.461 460.716 248.352 451.781 245.735C448.786 244.858 445.806 243.576 443.037 242.132C442.594 241.9 440.334 242.109 441.177 242.842Z" fill="#D4314E"/>
</g>
</g>
<g id="Group_4">
<g id="Group_5">
<path id="Vector_4" d="M517.951 171.359C518.738 178.348 519.661 185.299 519.71 192.351C519.737 196.38 519.424 200.421 518.628 204.372C518.243 206.282 517.698 208.151 517.007 209.97C516.694 210.797 516.332 211.603 515.946 212.396C515.534 213.242 514.939 214.051 515.618 214.92C516.111 215.552 517.255 215.654 517.965 215.393C518.996 215.014 519.689 214.591 520.217 213.603C520.681 212.735 521.049 211.818 521.396 210.897C522.068 209.114 522.554 207.255 522.945 205.39C523.79 201.35 524.006 197.185 523.931 193.065C523.797 185.704 522.601 178.094 519.945 171.225C519.738 170.689 517.876 170.7 517.951 171.359Z" fill="#D4314E"/>
</g>
</g>
<g id="Group_6">
<g id="Group_7">
<path id="Vector_5" d="M505.682 71.2852C506.323 71.6894 506.97 72.085 507.482 72.6549C507.874 73.0917 508.727 73.3438 509.218 73.7053C510.4 74.5748 511.672 75.2627 512.916 76.0352C515.573 77.6847 518.044 79.5995 520.409 81.6476C525.186 85.7854 529.306 90.6958 532.803 95.9682C538.397 104.402 542.55 114.14 544.105 124.201C544.417 126.222 544.58 128.265 544.59 130.31C544.596 131.37 544.535 132.429 544.434 133.484C544.32 134.661 544.144 135.435 544.842 136.45C545.438 137.316 547.26 137.284 548.004 136.655C549.269 135.586 549.363 134.379 549.489 132.786C549.61 131.248 549.585 129.699 549.494 128.16C549.314 125.149 548.759 122.165 548.037 119.243C546.795 114.224 544.983 109.345 542.778 104.679C537.896 94.3486 530.31 84.7711 520.946 78.2775C518.701 76.7206 516.351 75.3387 513.903 74.1355C511.568 72.9881 509.374 71.6357 506.959 70.6529C506.517 70.4735 504.764 70.706 505.682 71.2852Z" fill="#D4314E"/>
</g>
</g>
<g id="Group_8">
<g id="Group_9">
<path id="Vector_6" d="M462.949 268.825C463.882 269.585 464.791 270.013 465.986 270.163C467.562 270.361 469.008 270.751 470.619 270.626C472.181 270.506 473.671 270.322 475.243 270.313C476.622 270.305 478.001 270.254 479.378 270.179C484.99 269.871 490.563 268.956 496.03 267.665C507.098 265.049 517.759 260.376 527.208 254C536.184 247.944 544.03 239.948 549.255 230.357C552.392 224.597 554.468 218.231 555.776 211.807C556.446 208.518 556.861 205.179 557.131 201.833C557.419 198.261 557.628 194.684 556.45 191.253C556.197 190.517 553.984 190.518 553.73 191.253C552.549 194.668 552.59 198.261 552.317 201.833C552.051 205.321 551.576 208.791 550.879 212.218C549.551 218.735 547.232 225.086 543.988 230.878C538.574 240.545 530.309 248.404 521.063 254.295C512.694 259.627 503.457 263.389 493.885 265.847C489.274 267.031 484.57 267.823 479.834 268.263C477.524 268.477 475.22 268.537 472.906 268.654C472.15 268.692 471.412 268.825 470.669 268.962C469.818 269.12 469.395 269.103 468.563 268.913C467.836 268.746 467.117 268.737 466.376 268.736C465.708 268.736 465.227 268.495 464.633 268.182C464.224 267.967 462.179 268.198 462.949 268.825Z" fill="#D4314E"/>
</g>
</g>
<g id="Group_10">
<g id="Group_11">
<path id="Vector_7" d="M574.545 153.563C574.788 155.01 574.813 156.481 575.037 157.934C575.302 159.653 575.659 161.409 575.71 163.146C575.76 164.822 575.563 166.5 575.405 168.166C575.252 169.778 574.68 171.92 575.314 173.444C575.747 174.485 578.671 174.463 579.117 173.444C579.722 172.061 579.536 170.131 579.685 168.622C579.866 166.788 579.96 164.986 579.796 163.146C579.643 161.439 578.833 159.667 578.155 158.114C577.482 156.573 576.93 154.98 576.244 153.449C576.047 153.008 574.452 153.007 574.545 153.563Z" fill="#D4314E"/>
</g>
</g>
<g id="cuerpochico">
<g id="Group_12">
<path id="Vector_8" d="M453.622 95.597L471.819 95.9816L472.235 75.9121L454.039 75.5265C454.039 75.5265 455.651 91.3806 453.622 95.597Z" fill="#F7B6A0"/>
<path id="Vector_9" d="M454.549 90.5559C458.681 90.2151 462.601 90.054 466.654 88.8552C468.595 88.2802 470.374 87.5601 472.013 86.6033L472.235 75.9121L454.039 75.5265C454.039 75.5265 454.932 84.3239 454.549 90.5559Z" fill="#F29381"/>
<g id="Group_13">
<path id="Vector_10" d="M442.315 61.1891C443.463 64.1038 444.639 67.4899 446.642 70.0465C448.926 72.9678 452.28 73.1745 453.825 69.5275C455.277 66.0949 455.228 61.8565 454.601 58.3295C454.258 56.4023 453.616 54.2207 451.831 52.9097C449.048 50.8626 445.378 51.5015 443.308 53.9238C441.368 56.1988 441.307 58.6211 442.315 61.1891Z" fill="#522E3D"/>
<path id="Vector_11" d="M445.246 66.0891C445.438 69.5942 445.95 73.0859 446.863 76.4739C447.791 79.9105 449.058 86.3529 452.895 87.788C454.082 88.2326 455.045 88.1994 456.414 88.1136C461.642 87.7823 467.212 84.2687 470.535 80.3466C476.731 73.0366 476.714 55.3048 470.505 48.4317C464.84 42.1587 446.82 45.3876 445.61 55.3914C445.193 58.8438 445.048 62.4661 445.246 66.0891Z" fill="#F7B6A0"/>
<path id="Vector_12" d="M470.505 48.4316C469.417 47.2272 467.872 46.3767 466.078 45.8521C467.297 52.3947 472.497 56.7749 470.828 66.2948C471.171 71.867 471.842 73.7591 472.114 78.0344C476.672 69.8084 476.133 54.6617 470.505 48.4316Z" fill="#F29381"/>
<g id="Group_14">
<g id="Group_15">
<path id="Vector_13" d="M473.249 64.1883C473.845 63.6664 473.999 62.8883 474.589 62.313C474.803 62.1039 475.049 61.9447 475.259 61.7282C475.443 61.5378 475.686 61.7375 475.934 61.8096C476.689 62.0285 476.893 62.3367 477.25 63.0541C477.661 63.8792 477.865 64.8438 478.099 65.7274C478.115 65.7844 478.267 65.7918 478.274 65.7274C478.435 64.1863 477.945 61.4106 476.303 60.8C474.551 60.1484 471.52 61.9013 472.044 64.0267C472.15 64.4572 472.98 64.4235 473.249 64.1883Z" fill="#F49C81"/>
</g>
</g>
<path id="Vector_14" d="M470.533 61.113C470.764 61.992 470.744 70.217 471.021 70.9939C471.299 71.7727 473.048 70.5369 473.048 70.5369C474.279 69.2237 472.888 62.0622 475.038 61.5842C477.374 61.0652 478.1 64.5284 478.154 66.1338C479.099 63.8151 480.115 61.2985 479.953 58.9284C479.865 57.6572 479.638 54.5836 479.451 52.3019C479.062 47.5941 475.372 42.2457 470.14 42.9846C467.755 43.3217 464.972 46.201 464.099 48.5845C463.163 51.1365 464.881 53.0856 466.609 54.7244C468.772 56.7757 469.47 57.0958 470.533 61.113Z" fill="#522E3D"/>
<g id="Group_16">
<path id="Vector_15" d="M477.069 61.632C479.513 63.7659 478.585 70.5798 474.171 73.1117C472.946 71.9205 472.741 68.4953 472.482 66.8148C472.228 65.1665 472.065 63.5811 472.968 62.1063C473.248 61.651 475.271 60.0616 477.069 61.632Z" fill="#F7B6A0"/>
<g id="Group_17">
<g id="Group_18">
<g id="Group_19">
<path id="Vector_16" d="M473.586 66.4788C473.553 66.815 473.319 67.5141 473.602 67.7856C473.828 68.0023 474.081 68.1783 474.387 68.2544C475.024 68.4126 475.689 68.211 475.966 67.5853C476.205 67.0434 476.238 66.3945 476.262 65.8111C476.281 65.3248 476.212 64.8588 475.776 64.5814C475.612 64.4773 475.321 64.509 475.17 64.6199C474.612 65.0304 474.838 65.9681 474.803 66.5612C474.781 66.9344 474.738 67.3298 474.545 67.6562C474.513 67.7096 474.508 67.713 474.463 67.7515C474.594 67.6391 475.026 67.7605 474.781 67.625C474.461 67.4482 474.506 66.7996 474.451 66.4788C474.399 66.1821 473.615 66.1712 473.586 66.4788Z" fill="#F29381"/>
</g>
</g>
<g id="Group_20">
<g id="Group_21">
<path id="Vector_17" d="M474.972 64.8823C475.876 63.6259 476.266 65.8481 476.258 66.3926C476.245 67.1583 475.688 67.814 475.634 68.5592C475.618 68.7693 476.095 68.7352 476.195 68.6745C477.509 67.8842 477.989 65.82 477.024 64.5754C476.383 63.7488 474.582 63.6535 474.271 64.8352C474.207 65.0751 474.871 65.0222 474.972 64.8823Z" fill="#F29381"/>
</g>
</g>
</g>
</g>
<path id="Vector_18" d="M451.151 53.1232C452.052 53.2736 452.955 53.4174 453.505 53.7382C455.135 54.6903 456.459 56.1863 458.41 56.4549C460.75 56.7757 463.176 55.6912 465.535 55.7197C467.254 55.7417 468.496 56.8605 470.036 57.3966C470.96 56.5549 469.94 54.5582 469.688 53.5468C469.354 52.1966 469.171 50.5941 469.652 49.2695C470.806 46.1052 474.162 47.4089 476.645 47.0471C477.105 45.7188 474.336 43.7229 473.419 42.8498C471.509 41.031 468.742 39.5409 466.158 38.9371C460.923 37.7183 455.396 39.0734 451.99 43.2983C450.627 44.9895 449.428 46.9937 448.736 49.0647C448.473 49.8521 447.935 51.3291 448.455 52.1147C448.863 52.7251 450.005 52.9316 451.151 53.1232Z" fill="#522E3D"/>
<path id="Vector_19" d="M447.014 57.2946C448.478 55.5254 447.514 53.9924 448.259 52.1622C449.531 49.0333 453.284 46.0416 452.762 42.5175C448.637 41.2901 444.183 46.2254 442.472 49.3068C441.405 51.2274 440.911 53.2345 440.941 55.3779C440.956 56.3778 441.465 60.0962 442.437 60.5893C443.76 61.2614 446.287 58.1697 447.014 57.2946Z" fill="#522E3D"/>
<g id="Group_22">
<g id="Group_23">
<g id="Group_24">
<path id="Vector_20" d="M455.663 63.7634C455.778 63.6739 456.001 63.7149 456.128 63.7205C456.508 63.7373 456.748 63.6754 457.112 63.5569C457.872 63.3095 458.604 63.3068 459.398 63.3156C460.66 63.3295 461.947 63.3892 463.088 63.9582C463.173 64.0006 463.566 61.992 463.154 61.7165C463.419 61.894 462.82 61.4984 462.738 61.4467C462.451 61.267 462.152 61.1198 461.842 60.9889C460.981 60.6264 460.337 60.594 459.398 60.6676C457.91 60.7844 456.008 61.1569 455.547 62.8486C455.519 62.9517 455.52 63.8743 455.663 63.7634Z" fill="#522E3D"/>
</g>
</g>
<g id="Group_25">
<g id="Group_26">
<path id="Vector_21" d="M449.944 63.0802C449.744 62.3128 449.062 62.1763 448.379 62.1268C447.798 62.0846 447.212 62.117 446.633 62.177C446.321 62.2092 445.921 62.4883 445.627 62.6107C445.241 62.7706 445.296 62.8335 445.109 63.2671C445.014 63.4865 444.987 64.0108 445.136 64.2132C445.204 64.306 445.272 64.3984 445.34 64.4911C445.357 64.5018 445.374 64.5125 445.392 64.5232C445.823 64.4128 446.193 64.3953 446.633 64.3792C447.121 64.3616 447.654 64.1583 448.148 64.0981C448.543 64.0496 448.964 64.1005 449.35 64.0143C449.509 63.9787 449.7 63.7549 449.878 63.8114C449.992 63.8478 449.96 63.1421 449.944 63.0802Z" fill="#522E3D"/>
</g>
</g>
<path id="Vector_22" d="M448.957 66.9499C449.024 67.8506 448.696 68.6048 448.223 68.6412C447.75 68.6792 447.311 67.9823 447.243 67.0833C447.176 66.1853 447.504 65.4303 447.976 65.394C448.451 65.356 448.889 66.0548 448.957 66.9499Z" fill="#7F482E"/>
<path id="Vector_23" d="M459.004 66.8015C459.074 67.6995 458.743 68.4564 458.271 68.4927C457.797 68.5298 457.36 67.8329 457.291 66.9339C457.224 66.0378 457.553 65.2819 458.025 65.2446C458.498 65.2085 458.937 65.9054 459.004 66.8015Z" fill="#7F482E"/>
<g id="Group_27">
<g id="Group_28">
<path id="Vector_24" d="M449.094 77.07C449.654 78.7731 451.887 78.8706 453.374 78.8843C454.05 78.8904 455.033 78.702 455.594 78.3014C456.261 77.8254 457.211 77.1638 457.407 76.3394C457.512 75.8996 456.382 75.9876 456.202 76.092C455.403 76.5561 454.666 77.6182 453.787 77.869C452.406 78.2632 451.074 77.6994 449.966 76.8876C449.795 76.7623 448.966 76.6794 449.094 77.07Z" fill="#F29381"/>
</g>
</g>
<g id="Group_29">
<g id="Group_30">
<path id="Vector_25" d="M450.305 65.5711C450.339 67.0054 450.728 68.319 449.88 69.5844C449.314 70.4303 448.427 71.1969 448.607 72.3155C448.88 74.0141 451.517 74.2856 452.807 74.0714C454.05 73.8646 453.177 73.0339 452.309 73.1782C451.686 73.2818 451.044 73.1126 450.645 72.5883C450.133 71.9165 450.796 70.9205 451.153 70.3401C451.543 69.7063 451.833 69.1213 451.967 68.3839C452.02 68.0943 451.77 67.5402 451.693 67.2616C451.538 66.7 451.382 66.1403 451.26 65.5711C451.191 65.2513 450.298 65.2337 450.305 65.5711Z" fill="#F29381"/>
</g>
</g>
</g>
</g>
</g>
<path id="Vector_26" d="M384.912 271.612L372.148 290.322L364.38 287.565L372.148 263.187L384.912 271.612Z" fill="#F7B6A0"/>
<path id="Vector_27" d="M349.465 252.95L336.701 271.659L328.933 268.902L336.701 244.525L349.465 252.95Z" fill="#F7B6A0"/>
<path id="Vector_28" d="M349.579 256.405C352.017 256.237 355.929 250.984 357.341 249.059C359.655 245.905 361.622 242.62 363.12 239.003C366.085 231.849 370.135 225.985 374.543 219.639C378.793 213.518 384.043 208.09 388.075 201.772C391.876 195.819 395.475 189.78 399.426 184.031C401.698 180.726 403.135 177.108 405.026 173.635C405.89 172.051 406.676 170.323 407.401 168.761C408.881 165.565 408.65 163.646 405.496 162.608C403.173 161.843 400.988 160.815 398.612 160.176C393.029 158.67 387.117 157.304 381.355 158.636C378.334 159.333 375.618 160.822 373.774 163.416L332.005 246.248C332.005 246.248 340.498 257.033 349.579 256.405Z" fill="#DEE1E3"/>
<path id="Vector_29" d="M459.353 230.198C459.353 230.198 443.872 231.392 436.143 227.083L398.533 191.434L408.469 181.905L459.353 230.198Z" fill="#DEE1E3"/>
<path id="Vector_30" d="M445.713 122.273C448.151 107.265 440.684 106.485 440.684 106.485C432.289 104.311 428.383 117.221 428.383 117.221C428.383 117.221 422.327 145.782 422.408 158.585C422.408 158.585 431.313 164.169 435.517 156.192L445.713 122.273Z" fill="#F7B6A0"/>
<path id="Vector_31" d="M468.914 93.1125L497.028 103.569L481.549 173.613H444.496L434.306 104.962L455.756 93.1125H468.914Z" fill="#F7B6A0"/>
<path id="Vector_32" d="M454.354 93.1125L435.564 102.662L443.329 173.103C450.818 176.95 455.016 174.502 466.595 174.486C470.297 174.479 481.27 176.528 482.879 172.601C483.856 170.213 486.609 165.187 486.524 162.652C486.44 160.111 489.195 155.988 489.399 153.453C489.603 150.921 489.557 148.401 490.784 146.127C493.07 141.887 493.037 135.609 494.077 130.848C495.135 126.013 495.854 123.62 495.856 118.65C495.856 116.011 498.097 113.056 498.738 110.488C499.418 107.758 499.035 104.468 496.371 103.235C494 102.14 491.302 101.455 488.848 100.539L472.695 94.3296C472.696 94.3296 457.941 99.082 454.354 93.1125Z" fill="#FF9800"/>
<path id="Vector_33" d="M385.87 284.292C385.87 284.292 373.774 281.849 366.002 271.496L405.741 184.887C405.741 184.887 411.16 170.351 425.123 174.289C455.722 182.916 483.994 181.682 483.994 181.682C483.994 181.682 496.043 212.771 478.448 226.698C474.055 230.176 464.342 231.257 459.353 230.198C452.915 228.833 448.18 224.385 443.767 219.74C441.048 216.88 438.34 214.026 435.542 211.243C433.759 209.471 431.789 205.968 429.176 205.513C426.035 204.967 426.704 208.618 425.342 210.917C421.634 217.161 419.556 224.268 416.022 230.631C412.174 237.555 407.69 244.099 403.744 250.962C401.908 254.156 399.83 257.042 398.494 260.505C397.205 263.845 395.572 264.808 393.166 267.181C390.984 269.331 390.274 272.405 389.11 275.145C387.932 277.915 386.019 280.018 385.65 283.113C385.828 283.195 386.014 283.211 386.207 283.159" fill="#DEE1E3"/>
<path id="Vector_34" d="M443.05 147.032L447.629 121.823C447.629 121.823 454.288 107.166 442.689 99.4297C442.689 99.4297 430.179 101.417 427.865 113.329L421.595 138.495C421.595 138.495 422.226 144.761 443.05 147.032Z" fill="#FF9800"/>
<path id="Vector_35" d="M489.148 122.736C489.148 122.736 490.834 138.615 489.528 147.218C488.798 152.002 489.657 155.935 490.81 160.529C491.378 162.798 492.489 165.038 492.514 167.413C492.536 169.676 491.919 171.927 491.89 174.228C491.834 178.738 490.854 183.134 491.759 187.583C492.246 189.975 492.582 192.466 492.452 194.912C492.301 197.755 489.879 212.198 489.524 214.989C479.364 215.445 479.823 207.447 476.804 199.702C474.882 194.77 471.315 183.389 466.346 181.241C461.708 179.237 459.819 179.815 454.912 179.242C449.968 178.663 439.679 173.372 435.565 170.527C432.288 168.261 436.561 166.409 435.565 162.356C434.474 157.921 434.356 155.594 435.813 151.481C437.594 146.459 439.219 141.472 440.371 136.259C441.369 131.753 442.381 127.369 445.861 124.1C456.004 114.575 473.402 116.211 485.18 121.037L489.148 122.736Z" fill="#FF9800"/>
<path id="Vector_36" d="M394.849 158.575L438.588 166.091L466.346 181.242L423.799 212.034L382.594 181.905L394.849 158.575Z" fill="#DEE1E3"/>
<path id="Vector_37" d="M438.588 166.091C459.877 169.383 508.128 181.905 509.919 160.697C511.383 143.352 505.598 116.005 497.722 109.784C491.875 105.161 484.017 107.73 480.874 114.661C477.377 122.383 490.784 149.405 492.514 160.485C492.514 160.485 471.852 159.128 438.678 162.597L438.588 166.091Z" fill="#F7B6A0"/>
<path id="Vector_38" d="M515.955 154.78L502.393 111.223C499.635 103.867 494.953 102.632 494.003 102.632C479.514 102.629 478.238 120.708 478.238 120.708L483.994 157.208C483.994 157.208 509.634 162.386 515.955 154.78Z" fill="#FF9800"/>
<path id="Vector_39" d="M447.494 164.601C447.009 163.436 443.145 161.786 441.288 161.178C436.203 159.513 431.672 158.71 426.555 158.728C424.795 158.735 420.972 158.776 419.234 159.236C418.174 159.518 416.255 159.478 416.268 160.721C416.894 161.302 421.287 161.528 424.203 161.579C419.889 161.736 418.674 162.61 418.46 163.128C419.166 164.471 424.409 163.527 427.902 163.645C429.03 163.681 420.975 164.605 424.494 165.826C425.255 166.089 430.686 165.91 433.222 165.974C432.9 166.158 429.3 167.018 429.308 167.326C429.19 168.092 432.565 168.112 434.258 168.085C436.538 168.047 449.411 169.184 447.494 164.601Z" fill="#F7B6A0"/>
<path id="Vector_40" d="M422.986 149.513L390.184 158.359L397.044 159.648C397.044 159.648 429.272 165.109 434.833 158.575C434.833 158.575 430.969 147.645 422.986 149.513Z" fill="#F7B6A0"/>
<g id="Group_31">
<g id="Group_32">
<path id="Vector_41" d="M452.287 96.3246C452.37 96.3009 452.453 96.2773 452.535 96.2529C452.137 96.1398 451.74 96.0267 451.342 95.9138C451.419 96.6085 452.136 96.9327 452.67 97.2738C453.562 97.8434 454.6 98.2227 455.599 98.5523C457.511 99.1832 459.766 99.3794 461.77 99.5039C462.353 99.54 462.935 99.4774 463.51 99.3882C463.94 99.3219 464.483 99.5408 464.929 99.5408C465.986 99.5408 467.108 99.3635 468.133 99.112C469.051 98.8867 469.972 98.3987 470.909 98.3293C471.825 98.2615 472.744 97.917 473.049 96.99C473.355 96.0552 471.419 96.1634 470.974 96.3921C469.855 96.9678 468.556 97.2043 467.345 97.615C465.779 98.1457 464.322 97.8437 462.735 97.9953C459.387 98.3141 455.637 97.644 452.82 95.7156C452.611 95.5728 451.203 95.3519 451.342 95.9138C451.355 95.9652 451.368 96.0162 451.382 96.0671C451.472 96.4116 452.019 96.4011 452.287 96.3246Z" fill="#C57C12"/>
</g>
</g>
<g id="Group_33">
<g id="Group_34">
<path id="Vector_42" d="M488.81 102.462C487.384 103.606 485.833 104.633 484.593 106.008C483.29 107.452 482.478 109.105 481.632 110.842C480.8 112.553 480.612 114.724 480.582 116.6C480.576 116.96 480.466 117.312 480.416 117.666C480.368 118.008 480.569 118.507 480.572 118.864C480.577 119.848 480.799 120.869 480.908 121.85C481.123 123.803 481.558 125.751 481.988 127.666C482.441 129.684 483.253 131.606 483.676 133.638C484.111 135.732 484.765 137.782 485.229 139.873C485.663 141.836 485.914 143.797 486.615 145.692C486.674 145.853 487.223 145.849 487.206 145.653C487.038 143.73 487.228 141.799 487.076 139.873C486.922 137.931 486.484 136.005 486.126 134.094C485.781 132.253 485.746 130.377 485.376 128.535C484.961 126.469 484.504 124.38 484.255 122.287C483.832 118.732 483.508 115.142 484.515 111.637C485.489 108.249 488.13 105.643 489.876 102.685C490.116 102.276 489 102.31 488.81 102.462Z" fill="#C57C12"/>
</g>
</g>
<g id="Group_35">
<g id="Group_36">
<path id="Vector_43" d="M448.148 96.2629C447.26 97.2299 446.159 97.8851 445.419 98.9933C444.489 100.386 443.742 102.005 443.088 103.546C442.852 104.103 442.903 104.901 442.836 105.498C442.733 106.407 442.613 107.331 442.469 108.235C442.337 109.066 442.224 109.909 442.137 110.746C442.057 111.502 442.333 112.332 442.335 113.101C442.341 114.74 442.219 116.338 442.149 117.969C442.073 119.736 442.215 121.521 442.221 123.29C442.224 124.027 442.227 124.762 442.229 125.499C442.231 126.253 442.083 126.964 442.085 127.705C442.091 129.416 442.116 131.17 441.955 132.877C441.931 133.13 442.665 133.146 442.731 132.929C443.612 130.036 443.972 127.198 443.982 124.189C443.987 122.566 443.969 120.948 443.937 119.326C443.902 117.537 444.159 115.773 444.165 113.983C444.171 112.457 443.963 111.021 444.159 109.507C444.371 107.866 444.657 106.232 444.827 104.585C444.992 102.989 446.051 101.426 446.72 99.9881C447.318 98.6998 448.454 97.7645 448.938 96.4286C449.056 96.1049 448.294 96.1039 448.148 96.2629Z" fill="#C57C12"/>
</g>
</g>
<g id="Group_37">
<g id="Group_38">
<path id="Vector_44" d="M444.933 138.335C444.059 139.86 443.54 141.512 442.858 143.126C442.479 144.021 442.182 145.087 441.588 145.855C441.061 146.535 440.75 147.382 440.563 148.217C440.213 149.781 440.146 151.658 440.399 153.236C440.592 154.432 440.877 155.201 442.2 155.245C442.644 155.26 443.575 154.882 442.865 154.45C442.956 154.505 442.625 153.822 442.559 153.617C442.377 153.05 442.248 152.442 442.202 151.85C442.074 150.186 442.165 148.304 442.87 146.778C443.164 146.14 443.517 145.641 443.732 144.96C443.984 144.161 444.253 143.363 444.475 142.555C444.65 141.92 444.874 141.302 445.009 140.658C445.168 139.892 445.123 139.127 445.192 138.352C445.2 138.26 444.968 138.275 444.933 138.335Z" fill="#C57C12"/>
</g>
</g>
<g id="Group_39">
<g id="Group_40">
<path id="Vector_45" d="M462.012 178.73C462.854 180.037 463.885 180.699 465.393 181.058C466.154 181.239 466.961 182.353 467.519 182.875C468.312 183.617 468.974 184.449 469.614 185.326C472.178 188.841 473.58 192.898 475.097 196.937C475.853 198.949 476.233 201.1 476.835 203.161C477.114 204.118 477.507 205.085 477.935 205.984C478.341 206.833 478.514 207.809 478.981 208.619C479.397 209.341 479.633 209.985 480.225 210.599C480.839 211.236 481.275 211.907 481.99 212.452C483.044 213.256 484.649 213.953 485.948 213.388C486.074 213.332 486.196 213.153 486.036 213.049C485.571 212.747 485.059 212.623 484.615 212.262C483.882 211.668 483.278 211.188 482.691 210.431C482.205 209.806 481.764 209.354 481.451 208.613C481.095 207.768 480.792 206.911 480.455 206.054C478.949 202.225 477.862 198.221 477.08 194.172C476.332 190.304 474.071 186.776 471.635 183.788C470.569 182.481 469.099 181.311 467.682 180.418C466.879 179.913 465.923 179.938 465.08 179.515C464.289 179.117 463.643 178.699 462.785 178.436C462.66 178.398 461.802 178.404 462.012 178.73Z" fill="#C57C12"/>
</g>
</g>
<g id="Group_41">
<g id="Group_42">
<path id="Vector_46" d="M476.926 179.021C477.527 179.619 477.99 180.178 478.699 180.667C479.66 181.33 480.385 182.115 481.041 183.088C482.308 184.969 482.534 186.819 482.765 189.005C482.971 190.96 483.354 192.77 483.998 194.639C484.277 195.453 484.636 196.259 485.102 196.982C485.55 197.677 486.132 197.95 486.676 198.502C487.18 199.014 489.978 198.892 489.391 197.935C489.055 197.387 488.489 197.084 488.095 196.573C487.485 195.782 487.093 194.792 486.731 193.868C486.315 192.807 485.926 191.672 485.666 190.563C485.429 189.557 485.446 188.467 485.315 187.444C485.061 185.456 484.046 183.643 482.824 182.108C482.213 181.341 481.501 180.784 480.679 180.27C479.574 179.58 478.436 179.427 477.281 178.885C477.199 178.848 476.769 178.865 476.926 179.021Z" fill="#C57C12"/>
</g>
</g>
<g id="Group_43">
<g id="Group_44">
<path id="Vector_47" d="M462.525 158.505C464.457 159.112 466.866 159.41 468.853 158.987C470.1 158.721 471.258 158.396 472.534 158.27C473.649 158.159 474.718 157.955 475.803 157.676C477.931 157.131 479.911 156.249 481.991 155.575C483.315 155.145 486.423 154.388 486.529 152.65C486.573 151.922 484.989 151.958 484.604 152.103C483.831 152.394 483.248 152.812 482.547 153.235C481.849 153.656 481.057 153.888 480.288 154.133C478.498 154.703 476.796 155.507 474.994 156.055C473.172 156.61 471.345 156.731 469.487 157.088C468.385 157.299 467.431 157.699 466.287 157.754C465.257 157.804 464.23 157.85 463.206 157.705C462.643 157.625 461.49 158.179 462.525 158.505Z" fill="#C57C12"/>
</g>
</g>
<g id="Group_45">
<g id="Group_46">
<path id="Vector_48" d="M424.815 197.675C424.994 199.142 425.333 200.574 425.631 202.02C425.956 203.6 426.014 205.231 426.346 206.8C426.61 208.054 429.359 206.997 428.228 206.414C427.681 206.133 427.216 206.133 426.669 206.414C427.296 206.543 427.924 206.672 428.552 206.8C428.803 205.281 428.153 203.717 427.618 202.327C427.013 200.756 426.336 199.221 425.849 197.605C425.762 197.314 424.775 197.341 424.815 197.675Z" fill="#C0C2C3"/>
</g>
</g>
<g id="Group_47">
<g id="Group_48">
<path id="Vector_49" d="M429.116 206.109C429.812 205.448 430.079 204.521 430.678 203.768C431.012 203.35 431.302 202.962 431.703 202.605C432.069 202.277 432.74 201.372 433.214 201.263C433.592 201.176 434.113 200.769 433.672 200.397C433.207 200.004 432.471 200.043 431.923 200.17C430.721 200.447 429.964 201.681 429.197 202.567C428.843 202.976 428.578 203.555 428.273 204.013C427.906 204.565 427.851 205.208 427.5 205.772C427.142 206.347 428.816 206.393 429.116 206.109Z" fill="#C0C2C3"/>
</g>
</g>
<g id="Group_49">
<g id="Group_50">
<path id="Vector_50" d="M426.643 205.834C428.683 206.951 430.677 208.122 432.326 209.815C433.314 210.829 434.374 211.736 435.275 212.835C436.24 214.01 437.091 215.278 438.106 216.411C438.56 216.917 439.055 217.386 439.522 217.879C439.975 218.358 440.263 218.932 440.698 219.419C441.141 219.915 441.73 220.221 442.142 220.734C442.584 221.286 442.983 221.85 443.484 222.353C444.833 223.709 446.405 224.815 448.044 225.779C452.009 228.11 456.644 229.244 461.177 229.675C464.039 229.948 466.897 229.906 469.759 229.652C470.478 229.588 471.195 229.5 471.912 229.406C472.408 229.391 472.496 229.357 472.178 229.305C472.58 229.333 472.98 229.452 473.388 229.431C474.638 229.366 475.908 229.205 475.878 227.791C475.871 227.414 475.305 227.264 475.023 227.235C474.487 227.179 474.011 227.19 473.507 227.395C473.29 227.458 473.092 227.559 472.912 227.696C473.112 227.669 473.312 227.643 473.512 227.617C473.275 227.566 473.035 227.534 472.794 227.521C471.361 227.389 469.842 227.76 468.404 227.843C465.855 227.99 463.295 227.964 460.759 227.661C456.642 227.17 452.551 225.855 449.128 223.451C448.404 222.942 447.722 222.376 447.069 221.779C446.244 221.024 445.673 219.797 444.712 219.235C444.114 218.886 443.831 218.319 443.418 217.794C443.022 217.29 442.568 216.831 442.118 216.375C440.972 215.214 439.976 213.946 438.934 212.691C438.062 211.64 437.124 210.743 436.117 209.833C435.151 208.96 434.313 207.893 433.133 207.304C431.095 206.287 429.093 204.281 426.643 205.333C426.361 205.454 426.404 205.703 426.643 205.834Z" fill="#DEE1E3"/>
</g>
</g>
<g id="Group_51">
<g id="Group_52">
<path id="Vector_51" d="M426.603 217.144C426.532 218.704 428.192 219.488 428.956 220.614C429.566 221.513 430.312 222.373 431.018 223.198C431.732 224.031 432.84 224.619 433.438 225.527C434.496 227.131 436.413 227.872 438.086 228.643C440.183 229.61 442.442 230.131 444.669 229.315C445.078 229.165 445.124 228.84 444.669 228.704C443.883 228.468 443.08 228.482 442.27 228.388C441.286 228.274 440.169 227.692 439.275 227.292C438.467 226.931 437.539 226.587 436.801 226.09C436.158 225.657 435.815 224.863 435.16 224.434C433.525 223.366 432.227 221.914 430.904 220.495C429.99 219.515 428.032 218.476 427.693 217.144C427.603 216.788 426.621 216.745 426.603 217.144Z" fill="#C0C2C3"/>
</g>
</g>
<g id="Group_53">
<g id="Group_54">
<path id="Vector_52" d="M418.508 150.835C420.453 150.591 422.365 150.088 424.253 149.571C426.313 149.007 428.44 149.003 430.528 148.635C431.648 148.438 430.836 147.777 430.088 147.845C428.191 148.019 426.241 148.314 424.37 148.732C422.299 149.194 420.287 149.961 418.247 150.528C417.845 150.64 418.296 150.861 418.508 150.835Z" fill="#F29381"/>
</g>
</g>
<g id="Group_55">
<path id="Vector_53" d="M453.906 166.46H389.664V169.565H453.906V166.46Z" fill="#001521"/>
<g id="Group_56">
<g id="Group_57">
<path id="Vector_54" d="M371.11 169.565H430.895L425.65 126.918H365.867L371.11 169.565Z" fill="#0B2230"/>
<path id="Vector_55" d="M433.023 169.565H430.895L425.65 126.918H427.779L433.023 169.565Z" fill="#1D394C"/>
</g>
</g>
<path id="Vector_56" d="M398.688 152.028C401.323 151.853 403.318 149.551 403.144 146.888C402.97 144.225 400.693 142.209 398.057 142.385C395.422 142.561 393.427 144.862 393.601 147.525C393.775 150.188 396.052 152.204 398.688 152.028Z" fill="#1D394C"/>
</g>
<path id="Vector_57" d="M372.148 146.37C371.898 143.243 368.79 142.392 366.708 140.277C363.828 141.848 362.492 145.864 362.672 149.748C363.402 151.146 364.043 152.124 365.154 153.471C366.752 155.403 370.635 156.894 371.943 155.873C375.038 153.449 372.332 148.65 372.148 146.37Z" fill="#F7B6A0"/>
<g id="Group_58">
<g id="Group_59">
<path id="Vector_58" d="M396.409 265.07C396.716 264.872 397.19 264.716 397.426 264.431C397.899 263.859 398.417 263.33 398.875 262.746C399.77 261.604 400.395 260.116 401.085 258.837C401.385 258.28 401.969 257.613 402.096 256.997C402.174 256.621 402.376 256.003 402.555 255.672C403.2 254.482 404.155 253.469 404.85 252.289C407.886 247.139 410.622 241.803 414.385 237.128C416.237 234.827 417.28 232.064 418.786 229.528C419.565 228.217 420.445 226.97 421.252 225.676C422.038 224.413 422.454 222.871 423.125 221.533C424.348 219.095 425.092 216.55 426.158 214.045C426.692 212.793 427.105 211.557 427.417 210.232C427.753 208.803 428.504 207.664 428.727 206.193C428.824 205.555 427.174 205.637 426.905 205.948C426.119 206.857 425.347 207.768 424.859 208.882C424.297 210.162 424.103 211.583 423.549 212.88C423.046 214.058 422.264 215.283 421.976 216.535C421.67 217.865 421.093 219.07 420.482 220.279C419.854 221.522 419.203 222.712 418.677 224.008C418.103 225.419 417.204 226.637 416.378 227.909C415.52 229.23 414.727 230.605 413.995 232.002C413.324 233.284 412.86 234.578 411.995 235.753C410.361 237.97 408.748 240.186 407.2 242.47C405.503 244.975 404.124 247.667 402.633 250.298C401.989 251.435 401.393 252.88 400.545 253.87C399.803 254.735 399.639 255.597 399.293 256.62C398.841 257.958 398.086 259.286 397.47 260.56C397.168 261.185 396.889 261.831 396.532 262.425C396.331 262.76 395.853 263.879 395.514 264.038C395.381 264.101 395.225 264.22 395.223 264.387C395.229 264.561 395.216 264.734 395.183 264.905C395.12 265.395 396.214 265.195 396.409 265.07Z" fill="#C0C2C3"/>
</g>
</g>
<g id="Group_60">
<g id="Group_61">
<path id="Vector_59" d="M351.194 256.485C352.536 255.865 353.718 255.012 354.684 253.873C355.734 252.634 356.91 251.527 357.898 250.234C358.959 248.848 360.098 247.635 361.029 246.132C362.074 244.445 363.222 242.832 364.236 241.121C365.072 239.714 365.418 238.072 366.138 236.607C366.949 234.959 367.657 233.312 368.329 231.598C368.956 229.996 369.678 228.413 370.573 226.945C371.625 225.218 372.983 223.626 374.18 221.999C376.437 218.935 378.663 215.871 381.008 212.875C382.085 211.5 383.041 209.997 384.205 208.7C385.352 207.42 386.424 206.006 387.607 204.775C388.137 204.224 388.527 203.609 388.947 202.975C389.42 202.262 390.034 201.638 390.499 200.932C391.508 199.397 392.471 197.835 393.344 196.215C394.174 194.677 394.978 193.041 395.455 191.352C395.691 190.521 395.616 189.484 396.13 188.762C396.663 188.013 396.547 187.306 396.534 186.418C396.521 185.597 397.114 184.862 397.151 184.023C397.179 183.385 396.645 182.843 396.416 182.303C396.111 181.582 394.191 181.691 394.015 182.464C393.889 183.021 393.986 183.467 394.049 184.022C394.127 184.721 393.471 185.392 393.384 186.076C393.279 186.903 393.391 187.568 392.985 188.333C392.474 189.294 392.435 190.319 392.139 191.373C391.674 193.033 390.773 194.655 389.963 196.164C389.121 197.735 388.216 199.407 387.077 200.779C386.51 201.461 386.02 202.194 385.531 202.935C385.096 203.593 384.439 204.106 384.028 204.759C383.102 206.234 381.776 207.358 380.685 208.699C378.399 211.507 376.229 214.481 374.06 217.385C371.713 220.528 369.535 223.826 367.08 226.885C365.95 228.294 365.238 229.826 364.576 231.501C363.901 233.211 363.16 234.836 362.347 236.48C361.605 237.979 361.23 239.592 360.366 241.041C359.363 242.723 358.271 244.346 357.27 246.027C356.39 247.506 355.249 248.699 354.237 250.07C353.756 250.722 353.157 251.265 352.664 251.905C352.182 252.53 351.822 253.23 351.306 253.835C350.662 254.589 349.862 255.123 349.277 255.932C348.743 256.671 350.905 256.618 351.194 256.485Z" fill="#C0C2C3"/>
</g>
</g>
<g id="Group_62">
<g id="Group_63">
<path id="Vector_60" d="M393.821 190.672C394.236 191.089 394.609 191.558 394.963 192.03C395.128 192.25 395.284 192.483 395.413 192.726C395.656 193.183 396.455 193.474 396.857 193.795C397.251 194.111 397.605 194.479 397.958 194.84C398.133 195.023 398.307 195.206 398.479 195.391C398.553 195.469 399.592 196.09 398.83 195.57C399.695 196.16 401.071 196.358 401.99 195.77C403.024 195.108 402.073 194.473 401.233 194.351C402.241 194.498 401.451 194.3 401.158 194.212C401.615 194.35 400.582 193.508 400.479 193.418C399.915 192.919 398.841 192.487 398.465 191.973C397.702 190.931 396.364 190.003 395.071 189.866C394.726 189.83 393.16 190.008 393.821 190.672Z" fill="#C0C2C3"/>
</g>
</g>
<g id="Group_64">
<g id="Group_65">
<path id="Vector_61" d="M398.135 178.952C398.85 179.862 399.565 180.771 400.368 181.605C401.352 182.628 402.539 183.43 403.518 184.463C404.239 183.999 404.96 183.535 405.681 183.071C405.764 183.097 405.847 183.124 405.931 183.15C405.266 182.861 404.192 182.779 403.602 183.299C403.544 183.35 403.487 183.401 403.428 183.452C403.25 183.609 403.085 183.891 403.25 184.128C403.275 184.164 403.3 184.201 403.325 184.237C404.24 185.554 407.999 184.567 406.825 183.506C405.716 182.504 404.463 181.691 403.3 180.757C402.15 179.833 401.125 178.795 399.682 178.363C399.464 178.298 397.659 178.346 398.135 178.952Z" fill="#C0C2C3"/>
</g>
</g>
<g id="Group_66">
<g id="Group_67">
<path id="Vector_62" d="M421.884 169.104C421.341 169.032 420.812 168.891 420.262 168.934C420.092 168.947 419.038 169.176 419.601 169.111C418.188 169.272 416.779 169.767 415.465 170.293C412.53 171.467 410.255 173.826 407.993 175.974C406.859 177.052 406.12 178.8 405.445 180.201C404.738 181.669 404.02 183.137 403.332 184.616C402.645 186.094 402.049 187.615 401.543 189.165C401.037 190.716 400.731 192.306 400.158 193.839C399.03 196.854 397.65 199.796 396.362 202.744C394.997 205.865 393.433 208.897 392.186 212.065C391.589 213.582 391.023 215.107 390.474 216.642C389.946 218.118 389.022 219.417 388.39 220.846C387.155 223.642 386.599 226.726 385.416 229.55C385.25 229.947 386.219 229.904 386.395 229.684C388.25 227.355 389.401 224.712 390.606 222.008C391.211 220.649 392.027 219.443 392.79 218.173C393.616 216.799 394.191 215.22 394.783 213.732C395.924 210.866 397.3 208.148 398.545 205.333C399.868 202.34 401.165 199.336 402.48 196.339C403.684 193.592 404.294 190.712 405.344 187.918C406.434 185.02 407.815 182.133 409.237 179.389C410.017 177.883 410.848 176.703 412.095 175.565C413.285 174.479 414.407 173.307 415.735 172.391C416.871 171.609 418.176 171.052 419.462 170.576C419.933 170.401 420.455 170.292 420.907 170.068C421.056 169.994 421.182 169.876 421.309 169.772C421.541 169.583 421.373 169.729 421.884 169.661C422.402 169.592 422.402 169.174 421.884 169.104Z" fill="#C0C2C3"/>
</g>
</g>
<g id="Group_68">
<g id="Group_69">
<path id="Vector_63" d="M395.818 263.684C394.957 264.227 394.009 264.565 393.188 265.184C392.391 265.784 391.63 266.435 390.886 267.103C389.554 268.299 388.248 269.764 387.803 271.551C387.253 273.761 386.512 275.858 385.791 278.006C385.421 279.108 385.228 280.277 384.9 281.393C384.674 282.164 384.075 282.966 384.513 283.745C384.734 284.137 385.404 284.256 385.802 284.231C386.753 284.172 387.091 283.709 387.344 282.812C387.614 281.853 387.992 280.921 388.248 279.949C388.846 277.677 389.705 275.512 390.323 273.239C390.876 271.205 391.598 269.589 393.082 268.07C393.763 267.372 394.514 266.746 395.237 266.095C395.936 265.466 396.733 264.871 397.296 264.11C397.685 263.583 396.073 263.523 395.818 263.684Z" fill="#C0C2C3"/>
</g>
</g>
<g id="Group_70">
<path id="Vector_64" d="M373.013 289.052L373.773 300.514H337.197C337.197 300.514 335.993 299.145 338.402 295.646L357.787 288.67L365.871 282.887C365.871 282.887 368.205 283.933 367.903 287.431L373.013 289.052Z" fill="#222222"/>
<path id="Vector_65" d="M336.966 298.714C336.726 299.975 337.199 300.514 337.199 300.514H373.775L373.657 298.714H336.966Z" fill="#100F0D"/>
<g id="Group_71">
<g id="Group_72">
<path id="Vector_66" d="M356.934 288.685C356.836 289.351 357.351 289.991 357.639 290.558C357.949 291.167 358.268 291.801 358.77 292.278C358.77 292.112 358.77 291.946 358.77 291.781C358.767 291.783 358.765 291.784 358.762 291.785C358.953 291.714 359.142 291.642 359.331 291.569C359.094 291.588 358.629 291.702 358.633 292.028C358.641 292.443 359.346 292.521 359.627 292.521C359.799 292.521 360.939 292.327 360.585 291.898C360.121 291.338 359.738 290.755 359.371 290.126C358.964 289.424 358.615 288.851 357.86 288.495C357.64 288.393 356.987 288.331 356.934 288.685Z" fill="white"/>
</g>
<g id="Group_73">
<path id="Vector_67" d="M353.114 290.358C353.214 290.806 353.239 291.241 353.401 291.675C353.622 292.275 354.008 293.053 354.522 293.43C354.825 293.653 356.288 293.88 356.257 293.198C356.233 292.668 355.693 291.97 355.373 291.545C355.004 291.053 354.586 290.652 354.154 290.217C354.003 290.064 353.032 289.991 353.114 290.358Z" fill="white"/>
</g>
<g id="Group_74">
<path id="Vector_68" d="M349.03 291.527C348.889 292.661 349.517 293.986 350.186 294.883C350.546 295.365 352.454 295.268 352.078 294.624C351.445 293.539 350.908 292.276 350.011 291.397C349.821 291.21 349.072 291.173 349.03 291.527Z" fill="white"/>
</g>
</g>
</g>
<g id="Group_75">
<path id="Vector_69" d="M337.566 270.388L338.326 281.849H301.75C301.75 281.849 300.547 280.48 302.953 276.982L322.34 270.006L330.423 264.225C330.423 264.225 332.757 265.271 332.457 268.769L337.566 270.388Z" fill="#222222"/>
<path id="Vector_70" d="M301.53 279.994C301.266 281.296 301.75 281.849 301.75 281.849H338.325L338.203 279.994H301.53Z" fill="#100F0D"/>
<g id="Group_76">
<g id="Group_77">
<path id="Vector_71" d="M320.169 270.789C320.071 271.454 320.586 272.094 320.874 272.66C321.186 273.269 321.505 273.903 322.005 274.38C322.005 274.214 322.005 274.049 322.005 273.884C322.004 273.885 322 273.887 321.998 273.888C322.189 273.816 322.378 273.745 322.566 273.672C322.328 273.691 321.864 273.804 321.87 274.132C321.876 274.546 322.582 274.624 322.863 274.624C323.035 274.624 324.173 274.431 323.821 274.002C323.358 273.441 322.973 272.859 322.607 272.228C322.199 271.526 321.851 270.953 321.097 270.599C320.876 270.496 320.222 270.433 320.169 270.789Z" fill="white"/>
</g>
<g id="Group_78">
<path id="Vector_72" d="M316.349 272.46C316.449 272.909 316.475 273.344 316.636 273.779C316.858 274.379 317.244 275.156 317.759 275.535C318.059 275.755 319.523 275.983 319.492 275.301C319.469 274.769 318.928 274.072 318.609 273.647C318.238 273.157 317.821 272.754 317.389 272.321C317.238 272.167 316.267 272.094 316.349 272.46Z" fill="white"/>
</g>
<g id="Group_79">
<path id="Vector_73" d="M312.265 273.63C312.125 274.763 312.753 276.089 313.421 276.986C313.78 277.468 315.689 277.372 315.313 276.727C314.68 275.641 314.142 274.379 313.246 273.499C313.057 273.313 312.307 273.275 312.265 273.63Z" fill="white"/>
</g>
</g>
</g>
</g>
<g id="Group_80">
<g id="Group_81">
<path id="Vector_74" d="M496.678 104.687C497.617 105.662 498.294 106.857 498.784 108.117C499.347 109.566 499.933 111.02 500.422 112.499C501.492 115.741 502.655 118.986 503.85 122.182C506.552 129.409 508.999 136.693 510.926 144.17C511.701 147.177 513.376 150.086 513.303 153.259C513.233 156.357 509.986 158.422 508.447 160.824C506.884 163.265 506.249 166.52 503.995 168.436C501.789 170.311 499.25 170.736 496.57 171.615C494.158 172.406 491.911 173.642 490.436 175.785C489.12 177.697 488.907 180.264 488.932 182.518C488.958 184.845 489.292 187.152 489.288 189.482C489.282 192.541 489.077 195.598 488.869 198.648C488.714 200.91 488.409 203.18 488.504 205.447C488.565 206.895 488.614 208.342 488.575 209.791C488.541 211.088 488.49 212.503 487.981 213.713C487.89 213.928 487.769 214.125 487.63 214.311C487.711 214.208 487.698 214.21 487.593 214.314C487.86 214.081 488.452 214.068 488.715 214.053C488.96 214.039 489.545 214.273 489.272 214.095C488.871 213.833 488.52 213.491 488.181 213.154C487.352 212.33 484.464 212.288 484.168 213.693C483.264 217.977 481.121 221.742 477.657 224.411C474.412 226.911 470.334 228.038 466.356 228.609C463.914 228.96 461.448 229.024 458.995 229.247C455.804 229.537 452.623 229.771 449.417 229.678C448.421 229.649 447.621 229.598 446.686 229.303C445.647 228.976 444.622 228.606 443.599 228.231C442.583 227.858 441.575 227.484 440.543 227.154C439.528 226.829 438.483 226.738 437.441 226.538C437.176 226.487 435.237 226.673 435.776 227.363C437.118 229.081 439.038 229.685 441.028 230.41C442.055 230.784 443.088 231.139 444.129 231.469C445.567 231.925 446.983 232.046 448.486 232.133C452.115 232.342 455.769 232.043 459.38 231.701C462.122 231.442 464.883 231.275 467.608 230.861C472.356 230.138 477.07 228.675 481.029 225.867C485.102 222.978 487.5 218.55 488.475 213.694C487.137 213.873 485.799 214.053 484.462 214.232C485.988 215.724 488.122 216.704 490.261 215.957C491.923 215.376 492.452 213.941 492.777 212.322C493.129 210.572 493.137 208.744 493.136 206.965C493.136 204.761 493.276 202.659 493.504 200.457C493.881 196.806 494.188 193.154 494.262 189.482C494.318 186.701 493.892 183.936 494.029 181.155C494.168 178.319 495.234 175.749 497.806 174.374C500.28 173.052 503.2 172.808 505.727 171.558C508.418 170.227 510.197 167.955 511.324 165.216C511.853 163.927 512.536 162.678 513.235 161.478C513.984 160.193 515.084 159.142 516.046 158.024C518.112 155.625 518.632 153.207 517.82 150.138C517.427 148.652 516.87 147.218 516.368 145.768C515.812 144.161 515.456 142.498 515.006 140.859C513.055 133.742 510.613 126.64 507.771 119.835C506.528 116.86 505.292 113.876 503.946 110.947C502.749 108.344 501.099 105.812 498.789 104.077C498.265 103.683 495.854 103.831 496.678 104.687Z" fill="#D4314E"/>
</g>
</g>
</g>
</g>
<path id="Vector_75" d="M173.137 354.879C250.81 354.879 313.776 337.469 313.776 315.993C313.776 294.517 250.81 277.107 173.137 277.107C95.4644 277.107 32.4982 294.517 32.4982 315.993C32.4982 337.469 95.4644 354.879 173.137 354.879Z" fill="#DBB961"/>
<g id="sillonchica">
<path id="Vector_76" d="M34.271 192.408C38.7537 239.297 63.4744 290.544 118.409 303.365C163.442 313.874 229.173 317.085 268.545 290.503C278.94 283.483 288.308 274.004 295.596 264.379C310.627 244.529 310.021 211.909 296.767 189.433C286.187 171.491 265.778 160.005 254.268 142.489C240.361 121.334 241.02 94.3365 225.427 74.1806C202.278 44.2571 147.353 48.9772 116.515 63.0011C84.8697 77.3953 54.5252 103.869 41.9372 133.842C34.319 151.983 32.4349 173.175 34.271 192.408Z" fill="#F9D373"/>
<g id="Group_82">
<g id="Group_83">
<path id="Vector_77" d="M99.7281 87.1149C98.3324 89.7133 97.88 92.3989 97.908 95.2629C97.936 98.1082 97.8961 100.817 98.6507 103.605C99.4269 106.473 100.788 109.169 102.872 111.462C104.135 112.852 105.543 114.137 106.943 115.416C107.378 115.813 107.832 116.165 108.308 116.523C108.882 116.954 109.138 117.549 109.722 117.976C110.766 118.739 113.725 118.935 114.495 117.704C115.172 116.62 113.928 115.698 113.038 115.054C111.612 114.023 110.343 112.798 109.083 111.61C106.646 109.313 105.111 106.692 104.029 103.697C103.067 101.032 102.898 98.4309 102.664 95.6648C102.434 92.9597 101.728 89.9361 102.538 87.2813C102.766 86.5315 100.078 86.4627 99.7281 87.1149Z" fill="#DBB961"/>
</g>
</g>
<g id="Group_84">
<g id="Group_85">
<path id="Vector_78" d="M124.053 165.045C127.585 179.995 116.324 193.465 117.392 208.318C117.797 213.967 119.707 219.805 123.001 224.658C125.33 228.09 127.797 231.522 130.605 234.66C131.429 235.579 132.252 236.279 133.523 236.667C134.267 236.893 138.535 236.946 137.534 235.451C137.534 235.634 137.534 235.817 137.534 236C137.539 235.985 137.545 235.971 137.55 235.956C138.15 234.407 133.488 234.14 132.997 235.408C133.469 234.188 136.634 234.559 137.384 235.426C137.342 235.378 137.314 235.318 137.285 235.264C137.184 235.078 137.019 234.912 136.893 234.738C136.511 234.214 135.811 233.542 135.238 232.858C133.817 231.162 132.494 229.4 131.192 227.63C130.04 226.067 128.901 224.492 127.823 222.887C126.371 220.724 125.419 218.291 124.582 215.895C121.926 208.296 122.805 200.732 124.954 193.148C126.891 186.315 129.432 179.187 128.373 172.06C128.006 169.594 127.224 167.199 126.105 164.924C125.868 164.444 123.918 164.475 124.053 165.045Z" fill="#DBB961"/>
</g>
</g>
<g id="Group_86">
<g id="Group_87">
<path id="Vector_79" d="M146.873 244.285C148.436 247.318 150.942 250.043 153.297 252.627C155.553 255.102 158.055 257.294 161.032 259.071C166.28 262.205 172.317 264.255 178.441 265.549C191.642 268.339 206.513 268.475 219.402 264.377C222.362 263.436 225.622 262.408 227.714 260.243C228.267 259.671 228.061 259.17 227.299 258.837C226.135 258.329 224.713 258.422 223.542 258.837C220.865 259.786 218.16 261.028 215.537 261.854C212.58 262.784 209.767 263.372 206.827 263.79C200.455 264.696 194.167 264.658 187.77 263.909C181.687 263.197 175.599 261.773 169.987 259.368C167.273 258.205 164.752 256.777 162.473 255.019C159.379 252.634 157.011 249.668 154.183 247.059C152.74 245.727 151.232 244.594 149.454 243.629C148.963 243.363 146.375 243.32 146.873 244.285Z" fill="#DBB961"/>
</g>
</g>
<g id="Group_88">
<path id="Vector_80" d="M237.777 136.533C237.777 137.828 238.505 137.828 238.505 138.477C238.505 139.123 238.505 139.772 238.505 140.421C239.232 142.364 239.959 144.309 239.959 146.254C240.686 147.548 240.686 148.845 240.686 150.141C241.413 152.085 241.413 154.029 241.413 155.974C241.413 159.213 241.413 162.453 241.413 165.694C241.413 165.045 241.413 165.045 241.413 164.397" fill="#9C599F"/>
<g id="Group_89">
<path id="Vector_81" d="M236.62 136.533C236.508 137.248 236.787 137.628 236.895 138.282C236.975 138.763 236.651 139.445 236.586 139.934C236.497 140.609 236.711 141.222 236.887 141.879C237.235 143.171 237.525 144.434 237.565 145.768C237.601 146.95 238.128 148.049 238.132 149.277C238.137 150.55 238.533 151.774 238.621 153.057C238.71 154.369 238.669 155.683 238.648 156.996C238.602 159.896 238.555 162.795 238.508 165.694C238.487 166.989 241.308 167.023 242.186 166.918C243.242 166.791 245.024 166.148 243.922 165.054C243.568 164.703 243.187 164.384 242.825 164.037C242.282 163.517 240.545 163.517 240.002 164.037C239.64 164.384 239.259 164.703 238.905 165.054C237.803 166.148 239.585 166.791 240.641 166.918C241.519 167.023 244.34 166.989 244.319 165.694C244.275 162.966 244.231 160.237 244.187 157.508C244.166 156.186 244.161 154.863 244.071 153.543C243.981 152.24 243.304 150.988 243.249 149.709C243.2 148.562 243 147.471 242.523 146.403C241.998 145.226 241.927 143.821 241.493 142.594C240.997 141.195 240.469 139.921 240.136 138.477C239.96 137.711 239.159 137.318 238.936 136.533C238.741 135.851 236.735 135.788 236.62 136.533Z" fill="#684C9A"/>
</g>
</g>
<g id="cuerpo">
<path id="Vector_82" d="M211.341 59.823C211.661 64.5856 217.672 65.693 221.736 66.2712C225.477 66.8037 227.993 69.34 228.523 72.8237C228.996 75.9473 222.081 77.2029 220.562 79.9482C219.083 82.6248 216.869 85.3304 217.219 88.4937C217.591 91.8811 218.956 93.9055 215.611 96.5472C213.018 98.5988 210.41 100.183 209.822 103.436C208.392 111.388 221.401 119.267 225.366 125.732C226.27 127.21 227.19 130.324 228.755 131.349C230.293 132.355 232.531 131.283 233.915 130.459C238.361 127.805 241.038 123.12 239.951 118.432C238.552 112.417 235.255 107.265 238.097 101.086C240.227 96.4558 246.179 93.9304 247.646 89.0239C248.372 86.5909 248.256 83.9216 246.938 81.6722C245.548 79.294 242.792 77.8995 241.1 75.7028C238.786 72.6947 238.71 68.9189 237.619 65.5164C235.632 59.3136 229.637 55.1473 223.806 51.8219C220.224 49.7805 215.439 49.4172 212.822 52.5248C211.736 53.8169 211.502 60.5845 211.942 61.9587L211.341 59.823Z" fill="#B7793E"/>
<path id="Vector_83" d="M314.069 177.357L314.082 172.365C282.413 169.348 267.924 164.834 267.924 164.834C261.657 161.965 260.491 158.459 257.783 153.2C251.69 141.364 245.339 129.544 239.787 117.49C232.06 107.582 221.865 115.199 218.546 115.196C225.03 130.472 232.576 143.116 242.22 160.818C246.667 168.976 254.603 175.747 264.04 176.811C264.04 176.811 292.873 178.801 314.069 177.357Z" fill="#F6AD96"/>
<g id="Group_90">
<g id="Group_91">
<path id="Vector_84" d="M325.994 166.34C327.573 168.822 318.511 169.784 317.069 170.61C319.119 170.264 326.788 168.421 327.762 170.101C328.233 171.146 321.16 171.937 319.874 172.322C321.132 172.331 326.087 171.637 326.444 172.93C326.451 173.89 321.586 174.297 320.136 174.645C320.504 174.744 325.025 174.348 324.739 175.171C324.526 175.982 321.445 176.681 319.884 176.926C312.845 178.02 305.097 179.419 305.559 175.065C305.903 171.811 306.195 170.027 314.431 164.137C315.85 163.122 316.229 166.059 313.879 168.613C314.676 169.031 325.806 166.041 325.994 166.34Z" fill="#F6AD96"/>
<g id="Group_92">
<g id="Group_93">
<path id="Vector_85" d="M312.966 170.324C313.035 170.259 313.104 170.195 313.173 170.13C313.485 169.836 312.525 169.71 312.313 169.91C312.225 169.992 312.148 170.079 312.075 170.171C312.025 170.233 312.07 170.324 312.132 170.362C312.223 170.419 312.019 170.608 311.93 170.751C311.822 170.923 311.746 171.06 311.79 171.26C311.878 171.652 311.436 172.033 311.122 172.255C310.423 172.748 309.557 172.744 308.756 172.981C307.981 173.21 308.653 173.597 309.144 173.606C310.299 173.625 311.69 173.15 312.573 172.501C312.905 172.258 313.393 171.714 313.247 171.299C313.064 170.777 313.833 170.343 313.025 170.061C313.074 170.142 313.123 170.222 313.171 170.303C313.201 170.209 313.232 170.117 313.24 170.02C313.265 169.726 312.271 169.706 312.244 170.02C312.238 170.092 312.232 170.164 312.226 170.237C312.206 170.473 312.848 170.435 312.966 170.324Z" fill="#F2937C"/>
</g>
</g>
</g>
</g>
<path id="Vector_86" d="M228.34 110.917C228.34 110.917 213.3 112.53 219.249 131.337L234.757 166.605C234.757 166.605 254.989 163.919 259.656 153.161L242.75 120.087C242.75 120.087 238.764 112.257 228.34 110.917Z" fill="#FF9800"/>
<path id="Vector_87" d="M198.889 104.68L167.97 114.823L184.993 182.771H225.741L228.145 110.847L213.359 104.68H198.889Z" fill="#F7B6A0"/>
<path id="Vector_88" d="M215.193 105.486H196.902V86.0132H215.193C215.193 86.0132 213.246 101.355 215.193 105.486Z" fill="#F7B6A0"/>
<path id="Vector_89" d="M214.545 102.848C213.804 96.9572 215.194 86.0132 215.194 86.0132H196.902V92.3274C200.389 98.5059 206.658 103.649 214.545 102.848Z" fill="#F2937C"/>
<path id="Vector_90" d="M193.005 106.135C188.615 107.574 181.355 110.438 176.965 111.884C174.266 112.774 171.299 113.439 168.693 114.5C165.762 115.695 165.342 118.888 166.091 121.535C168.495 130.032 171.144 138.483 173.213 147.052C174.633 152.926 175.92 158.83 176.901 164.778C177.777 170.079 179.232 175.554 178.151 180.919C177.334 184.977 197.368 183.615 201.437 183.618C214.171 183.633 218.646 184.493 226.882 180.763L228.333 110.927L218.358 106.766C218.358 106.766 208.699 118.173 193.005 106.135Z" fill="#FF9800"/>
<path id="Vector_91" d="M230.527 111.842C231.205 124.717 234.32 132.641 234.744 141.233C234.9 144.385 234.104 147.032 232.84 149.947C229.64 157.335 228.271 166.417 227.694 170.012C225.03 186.586 222.091 186.242 212.351 184.378C206.585 183.273 205.378 163.757 204.346 159C202.757 151.666 204.062 142.846 210.263 137.397C214.692 133.503 220.439 132.412 222.739 126.807C224.425 122.705 216.728 116.933 221.764 115.209C221.851 115.385 224.882 109.275 224.829 109.464" fill="#FF9800"/>
<path id="Vector_92" d="M227.403 78.9767C226.032 84.9301 222.5 95.165 216.996 98.1053C210.324 101.666 196.777 91.3266 193.277 85.8042C188.894 78.8926 190.812 68.1008 194.102 60.968C197.859 52.8402 208.363 49.1 217.494 53.0259C226.62 56.9499 229.203 71.1717 227.403 78.9767Z" fill="#F7B6A0"/>
<path id="Vector_93" d="M194.461 60.6454C195.219 59.1159 196.217 57.7511 197.394 56.5705L196.149 76.4748L194.636 83.9148L193.418 86.1461C193.254 85.9109 193.101 85.6767 192.968 85.4544C188.771 78.4524 190.98 67.7043 194.461 60.6454Z" fill="#F2937C"/>
<g id="Group_94">
<path id="Vector_94" d="M188.761 70.3269C185.852 72.5114 186.835 79.6035 191.999 82.3023C193.457 81.0792 193.752 77.5246 194.084 75.7822C194.411 74.0733 194.629 72.4283 193.588 70.8796C193.266 70.404 190.908 68.7244 188.761 70.3269Z" fill="#F7B6A0"/>
<g id="Group_95">
<g id="Group_96">
<g id="Group_97">
<path id="Vector_95" d="M191.763 75.4088C191.697 75.6988 191.728 76.3484 191.443 76.5385C191.378 76.5813 191.295 76.6291 191.218 76.6525C191.671 76.5128 191.827 76.8267 191.688 76.6532C191.434 76.3355 191.408 75.8936 191.379 75.5187C191.332 74.8922 191.641 73.8879 190.961 73.4564C190.773 73.3375 190.434 73.3076 190.23 73.4154C189.83 73.6275 189.62 73.9785 189.624 74.5357C189.63 75.2003 189.683 75.8866 189.94 76.5159C190.204 77.1634 190.93 77.3491 191.642 77.2883C192.029 77.2551 192.381 77.0692 192.672 76.8521C193.117 76.5208 192.846 75.8499 192.807 75.4086C192.779 75.0783 191.833 75.0973 191.763 75.4088Z" fill="#F2937C"/>
</g>
</g>
<g id="Group_98">
<g id="Group_99">
<path id="Vector_96" d="M192.022 73.6919C191.665 72.4106 189.68 72.6267 188.828 73.3173C187.412 74.4643 188.226 76.8903 189.675 77.6687C189.802 77.7367 190.363 77.7697 190.354 77.5459C190.324 76.8817 189.853 76.2173 189.696 75.5652C189.544 74.9348 190.103 72.4088 191.174 73.7423C191.295 73.8924 192.093 73.95 192.022 73.6919Z" fill="#F2937C"/>
</g>
</g>
</g>
</g>
<path id="Vector_97" d="M204.556 50.462C205.096 51.0217 205.447 51.7469 205.637 52.4032C206.563 53.9924 208.936 60.3342 209.419 61.3228C210.731 64.0064 208.196 65.5935 205.973 66.8826C205.274 67.2892 204.562 67.6879 203.859 68.1005C201.754 69.3397 199.733 70.6856 198.357 72.6248C197.448 73.9069 196.15 77.6663 193.869 77.422C194.178 75.3917 194.253 71.1574 191.037 70.0438C190.651 69.832 189.211 69.697 187.538 71.7346C187.538 71.7346 185.172 51.0534 204.556 50.462Z" fill="#B7793E"/>
<path id="Vector_98" d="M209.887 62.3708L204.556 50.4623C208.117 47.5799 217.98 50.0962 217.983 50.0973C221.393 50.9675 233.742 59.0838 236.123 68.7522C236.123 68.7522 239.431 82.9275 224.204 88.89C227.763 80.3769 228.971 74.6336 226.367 68.1904C223.698 68.4996 217.746 66.8434 215.897 65.6377C213.865 64.3151 211.096 63.0009 209.42 61.3234" fill="#B7793E"/>
<path id="Vector_99" d="M226.882 180.763C226.882 180.763 205.676 181.558 178.151 180.919C167.337 195.659 160.801 208.336 162.832 223.324C162.832 223.324 167.127 235.458 188.13 236.597L230.459 230.725L267.861 231.954C267.861 231.954 304.273 196.404 280.907 190.177L235.771 195.388L226.882 180.763Z" fill="#DEE1E3"/>
<g id="Group_100">
<g id="Group_101">
<path id="Vector_100" d="M228.903 186.506C227.041 186.351 225.114 186.308 223.289 185.932C222.387 185.746 221.512 185.403 220.576 185.39C219.385 185.374 218.202 185.391 217.021 185.241C212.461 184.664 207.798 184.478 203.195 184.334C198.856 184.198 194.591 184.907 190.256 184.913C189.264 184.914 188.276 184.957 187.289 185.046C186.253 185.139 185.213 185.58 184.19 185.598C182.089 185.634 180.075 185.524 178.255 186.616C179.616 186.694 180.977 186.771 182.338 186.849C182.284 186.757 182.23 186.666 182.176 186.574C181.615 185.623 178.753 185.623 178.192 186.574C178.137 186.666 178.084 186.757 178.029 186.849C177.173 188.3 181.144 188.014 181.763 187.798C182.556 187.522 183.352 187.615 184.19 187.624C185.212 187.636 186.208 187.519 187.181 187.248C189.039 186.731 191.108 186.978 193.025 186.856C197.093 186.596 201.114 186.222 205.196 186.417C207.348 186.52 209.492 186.554 211.645 186.619C213.796 186.685 215.945 187.118 218.094 187.089C218.915 187.078 219.774 186.974 220.565 187.148C221.379 187.327 222.195 187.493 223.03 187.564C225.024 187.735 226.899 187.873 228.903 187.711C230.177 187.607 230.175 186.611 228.903 186.506Z" fill="#102E4D"/>
</g>
</g>
<g id="Group_102">
<g id="Group_103">
<path id="Vector_101" d="M226.423 123.883C227.477 127.413 229.736 130.143 231.828 133.228C232.946 134.877 234.128 136.704 234.555 138.609C234.962 140.424 234.086 142.132 233.183 143.705C232.37 145.121 231.861 146.682 230.835 147.994C229.006 150.334 226.018 151.367 223.732 153.219C223.524 153.387 223.474 153.536 223.568 153.768C223.593 153.831 223.619 153.894 223.644 153.958C223.759 154.243 224.386 154.294 224.651 154.292C226.816 154.28 228.597 152.957 230.285 151.867C231.48 151.095 232.61 150.232 233.58 149.239C234.863 147.923 235.379 146.445 236.236 144.927C237.148 143.31 237.987 141.636 238.028 139.798C238.071 137.852 236.798 135.971 235.734 134.354C233.299 130.654 230.083 127.42 227.493 123.819C227.343 123.611 226.33 123.572 226.423 123.883Z" fill="#C57C12"/>
</g>
</g>
<g id="Group_104">
<g id="Group_105">
<path id="Vector_102" d="M203.201 190.294C204.337 190.189 205.338 189.849 206.356 189.399C207.721 188.797 208.556 188.413 210.129 188.757C212.624 189.302 214.551 191.014 217.074 191.592C219.508 192.149 222.001 191.968 224.32 191.14C225.361 190.769 226.298 190.116 227.059 189.394C227.912 188.585 227.939 187.892 227.092 187.11C226.786 186.827 226.043 186.827 225.663 186.946C224.446 187.326 223.637 187.767 222.773 188.621C222.166 189.221 221.411 189.651 220.546 189.881C218.704 190.37 216.835 189.364 215.253 188.674C213.099 187.735 210.673 187.134 208.258 187.319C207.27 187.395 206.386 187.65 205.537 188.104C204.54 188.639 203.805 189.431 202.658 189.731C201.819 189.952 202.768 190.334 203.201 190.294Z" fill="#C84947"/>
</g>
</g>
<g id="Group_106">
<g id="Group_107">
<path id="Vector_103" d="M190.661 111.588C191.209 112.838 192.553 113.585 193.786 114.258C195.288 115.078 196.864 115.704 198.522 116.226C201.931 117.301 205.482 117.495 209.067 117.404C212.359 117.322 215.361 116.432 218.157 114.915C219.407 114.237 220.584 113.457 221.578 112.496C221.985 112.103 222.448 111.657 222.597 111.128C222.807 110.379 222.364 110.205 221.736 109.806C221.349 109.56 220.62 109.486 220.202 109.719C219.841 109.921 219.401 110.001 219.069 110.248C218.703 110.521 218.441 110.993 218.169 111.339C217.495 112.201 216.422 112.863 215.464 113.451C213.446 114.689 211.05 115.548 208.603 115.639C205.78 115.743 203.075 115.541 200.348 114.862C197.255 114.091 194.783 112.565 191.989 111.25C191.722 111.124 190.434 111.069 190.661 111.588Z" fill="#C57C12"/>
</g>
</g>
<g id="Group_108">
<g id="Group_109">
<path id="Vector_104" d="M233.126 147.668C231.53 150.534 230.588 153.649 229.425 156.668C228.695 158.562 228.137 160.526 227.686 162.484C227.025 165.359 226.52 168.262 226.158 171.179C225.956 172.8 225.769 174.432 225.837 176.064C225.871 176.864 225.931 177.661 226.018 178.457C226.106 179.267 226.384 179.973 226.519 180.763C226.557 180.984 227.239 180.989 227.246 180.763C227.289 179.367 227.593 177.874 227.749 176.468C227.914 174.977 228.022 173.485 228.168 171.992C228.456 169.031 228.944 166.084 229.551 163.162C229.983 161.081 230.412 158.989 231.015 156.941C231.915 153.884 232.699 150.767 233.695 147.736C233.761 147.535 233.208 147.52 233.126 147.668Z" fill="#C57C12"/>
</g>
</g>
<g id="Group_110">
<path id="Vector_105" d="M244.255 184.611L244.377 189.869C224.223 193.162 208.059 193.996 172.647 189.738C163.221 188.606 158.654 186.52 157.425 177.518C154.526 156.301 161.899 123.677 166.381 117.972C166.772 116.555 177.5 109.46 181.295 121.63C181.295 121.63 182.364 142.04 177.042 167.956C177.042 167.956 174.304 173.263 181.496 173.263C181.496 173.263 213.448 181.958 244.255 184.611Z" fill="#F7B6A0"/>
<path id="Vector_106" d="M241.651 184.14L259.656 182.951L275.057 187.266C275.057 187.266 278.053 188.501 276.443 189.868L244.377 189.915C244.377 189.915 239.854 189.142 241.651 184.14Z" fill="#F7B6A0"/>
</g>
<path id="Vector_107" d="M171.551 113.885C171.551 113.885 161.221 114.185 154.832 135.679L151.408 162.808C151.408 162.808 175.292 170.597 183.12 166.612L184.793 124.239C184.793 124.239 184.294 112.732 171.551 113.885Z" fill="#FF9800"/>
<g id="Group_111">
<path id="Vector_108" d="M212.501 80.7142C212.327 81.5022 210.492 81.84 208.405 81.4739C206.318 81.1047 204.765 80.1656 204.941 79.3787C205.118 78.5886 206.95 78.248 209.039 78.6169C211.127 78.9871 212.678 79.9252 212.501 80.7142Z" fill="#F39D94"/>
<path id="Vector_109" d="M226.355 83.1593C226.179 83.9473 224.674 84.3458 222.991 84.0499C221.31 83.7518 220.088 82.8735 220.264 82.0845C220.439 81.2944 221.944 80.8979 223.628 81.1939C225.309 81.492 226.531 82.3703 226.355 83.1593Z" fill="#F39D94"/>
<path id="Vector_110" d="M223.831 77.0448C223.084 76.9565 222.313 77.7972 222.114 78.918C221.908 80.0378 222.353 81.0174 223.105 81.1005C223.852 81.1877 224.62 80.3509 224.824 79.2283C225.02 78.1067 224.58 77.1279 223.831 77.0448Z" fill="#7F482E"/>
<path id="Vector_111" d="M210.926 74.7577C210.176 74.6747 209.408 75.5112 209.206 76.6349C209.005 77.7554 209.448 78.7342 210.198 78.8225C210.946 78.9056 211.715 78.067 211.914 76.9433C212.118 75.8217 211.674 74.8481 210.926 74.7577Z" fill="#7F482E"/>
<g id="Group_112">
<g id="Group_113">
<path id="Vector_112" d="M218.01 76.3349C217.158 76.9204 217.333 78.3328 217.619 79.1364C217.82 79.6985 218.143 80.1923 218.488 80.6918C218.796 81.1376 219.142 81.574 219.156 82.1143C219.198 83.6381 216.092 83.7705 214.937 83.7593C215.196 83.8453 215.454 83.9312 215.713 84.0174C215.698 83.9829 215.683 83.9489 215.667 83.9149C215.516 83.5742 214.582 83.6241 214.346 83.8396C214.84 83.6963 214.926 83.6586 214.605 83.7258C214.447 83.7663 214.355 83.831 214.243 83.9333C213.844 84.2973 214.665 84.4627 214.938 84.4621C216.583 84.4588 219.177 84.2106 220.155 82.8473C220.789 81.9645 219.846 80.9616 219.322 80.2637C218.865 79.6538 218.538 79.0348 218.407 78.3045C218.312 77.7699 218.16 76.8882 218.548 76.4341C218.683 76.2755 218.109 76.2664 218.01 76.3349Z" fill="#F2937C"/>
</g>
</g>
<path id="Vector_113" d="M212.195 87.5183C212.195 87.5183 214.916 90.3833 218.204 88.4169" stroke="#EE756D" stroke-width="4.989" stroke-miterlimit="10" stroke-linecap="round" stroke-linejoin="round"/>
<g id="Group_114">
<g id="Group_115">
<path id="Vector_114" d="M207.953 73.4733C209.081 73.0774 210.276 72.7866 211.447 73.2062C212.408 73.5499 212.956 74.3171 213.767 74.8283C214.088 75.0301 215.753 75.1807 215.469 74.515C214.966 73.3375 213.029 72.5091 211.713 72.2902C210.039 72.0116 208.502 72.298 207.054 73.081C206.402 73.4333 207.644 73.5818 207.953 73.4733Z" fill="#B7793E"/>
</g>
</g>
<g id="Group_116">
<g id="Group_117">
<path id="Vector_115" d="M227.847 76.0385C226.094 74.3434 222.297 73.9166 220.25 75.5068C219.599 76.0133 221.245 76.1325 221.524 76.0635C222.239 75.8854 222.888 75.5689 223.622 75.4461C224.731 75.2604 225.857 75.7914 226.749 76.3189C227.011 76.4739 228.28 76.4573 227.847 76.0385Z" fill="#B7793E"/>
</g>
</g>
</g>
<g id="Group_118">
<g id="Group_119">
<path id="Vector_116" d="M180.46 116.398C180.571 116.919 180.943 117.316 181.195 117.791C181.602 118.558 181.881 119.321 182.068 120.154C182.397 121.624 182.547 123.188 182.65 124.683C182.915 128.54 182.352 132.484 182.182 136.342C182.037 139.648 182.095 142.967 182.036 146.275C182.003 148.161 181.942 150.046 181.902 151.932C181.864 153.729 181.65 156.19 182.582 157.81C182.76 158.121 183.612 158.082 183.807 157.81C184.977 156.179 184.896 153.812 185.16 151.932C185.44 149.937 185.418 147.87 185.524 145.862C185.704 142.454 185.913 139.04 186.019 135.629C186.142 131.661 186.77 127.522 186.163 123.577C185.759 120.953 185.405 117.032 182.168 115.97C181.88 115.876 180.34 115.837 180.46 116.398Z" fill="#C57C12"/>
</g>
</g>
<g id="Group_120">
<path id="Vector_117" d="M286.509 192.666H208.943V195.972H286.509V192.666Z" fill="#001521"/>
<g id="Group_121">
<g id="Group_122">
<path id="Vector_118" d="M308.913 195.972H236.727L243.061 150.548H315.246L308.913 195.972Z" fill="#0B2230"/>
<path id="Vector_119" d="M234.157 195.972H236.727L243.061 150.548H240.487L234.157 195.972Z" fill="#1D394C"/>
</g>
</g>
<path id="Vector_120" d="M281.761 172.168C281.761 175.011 279.174 177.315 275.987 177.315C272.797 177.315 270.214 175.011 270.214 172.168C270.214 169.327 272.797 167.022 275.987 167.022C279.174 167.022 281.761 169.327 281.761 172.168Z" fill="#1D394C"/>
</g>
<g id="Group_123">
<path id="Vector_121" d="M254.427 224.019L269.996 225.245L269.75 235.808L254.193 235.436L254.427 224.019Z" fill="#F6AD96"/>
<path id="Vector_122" d="M265.267 235.837C271.984 237.487 291.151 236.104 298.124 233.745C306.568 230.889 305.984 215.819 295.351 217.979C285.716 219.935 275.589 223.444 265.763 224.155C265.763 224.155 259.913 228.199 265.267 235.837Z" fill="#282621"/>
</g>
<path id="Vector_123" d="M265.267 235.837C267.669 231.427 266.314 222.221 266.314 222.221L257.92 218.29C247.559 211.107 235.264 206.44 225.12 199.02C217.265 193.276 209.58 183.687 198.164 184.705C190.444 185.393 185.123 190.566 180.695 195.756C173.317 204.407 162.833 211.464 162.833 223.324C162.833 233.341 177.739 240.861 185.778 239.73C191.723 238.894 200.653 232.216 203.954 228.193L212.822 218.441C212.822 218.441 216.347 228.679 250.585 235.103C250.585 235.103 260.761 237.045 265.267 235.837Z" fill="#DEE1E3"/>
<g id="Group_124">
<g id="Group_125">
<path id="Vector_124" d="M204.375 185.344C206.745 186.154 208.847 188.079 210.776 189.508C213.014 191.168 215.392 192.604 217.776 194.081C221.94 196.66 225.751 199.719 229.533 202.717C231.362 204.166 233.101 205.698 234.909 207.166C237.368 209.162 240.042 210.949 242.752 212.665C245.403 214.342 248.134 215.917 250.867 217.485C252.26 218.285 253.679 219.047 255.088 219.823C255.837 220.237 256.578 220.662 257.34 221.056C258.272 221.539 259.348 221.698 260.341 222.037C260.513 222.095 261.955 222.152 261.594 221.718C261.207 221.255 261.024 220.792 260.56 220.368C259.98 219.837 259.275 219.455 258.59 219.037C257.226 218.204 255.865 217.365 254.477 216.564C251.756 214.992 249.047 213.405 246.402 211.732C241.528 208.651 237.185 205.048 232.611 201.64C228.546 198.611 224.3 195.681 219.811 193.164C217.14 191.667 214.571 190.096 211.977 188.493C209.7 187.086 207.458 185.736 204.733 185.142C204.602 185.113 204.071 185.24 204.375 185.344Z" fill="#C0C2C3"/>
</g>
</g>
<g id="Group_126">
<path id="Vector_125" d="M234.761 224.669L220.289 229.928L224.01 239.955L238.754 235.52L234.761 224.669Z" fill="#F6AD96"/>
<path id="Vector_126" d="M228.302 238.81C222.428 242.149 203.654 245.854 196.211 245.427C187.196 244.909 182.78 230.357 193.656 229.633C203.511 228.974 214.347 229.672 223.973 227.773C223.973 227.773 230.9 230.106 228.302 238.81Z" fill="#282621"/>
</g>
<g id="Group_127">
<g id="Group_128">
<path id="Vector_127" d="M226.457 226.191C228.621 225.976 230.544 225.161 232.481 224.319C235.077 223.189 237.656 221.973 240.124 220.634C244.867 218.058 249.36 215.242 253.593 212.031C258.8 208.081 263.972 204 268.946 199.817C271.895 197.336 274.806 194.978 278.195 192.97C279.761 192.042 281.395 191.206 283.036 190.39C284.688 189.569 286.938 188.919 288.263 187.705C289.335 186.724 286.541 186.582 285.995 186.715C284.122 187.17 282.411 188.168 280.714 188.992C279.084 189.784 277.479 190.616 275.908 191.497C272.592 193.358 269.586 195.504 266.827 197.983C263.911 200.602 260.767 202.997 257.652 205.422C255.329 207.231 253.155 209.212 250.749 210.932C248.861 212.282 246.677 213.49 244.56 214.527C241.847 215.856 239.266 217.362 236.622 218.796C234.225 220.096 231.865 221.449 229.477 222.762C227.948 223.603 226.18 224.298 225.061 225.58C224.603 226.106 226.248 226.212 226.457 226.191Z" fill="#BCBFC1"/>
</g>
</g>
<g id="Group_129">
<g id="Group_130">
<path id="Vector_128" d="M288.329 201.668C289.444 201.668 289.444 200.854 288.329 200.854C287.214 200.854 287.214 201.668 288.329 201.668Z" fill="#DEE1E3"/>
</g>
</g>
<path id="Vector_129" d="M301.468 185.197C317.094 187.011 313.053 199.943 307.574 204.422C292.823 216.482 271.545 225.563 252.981 231.954C252.35 232.172 234.761 238.023 231.818 239.069C235.476 231.201 227.315 225.713 227.315 225.713C227.315 225.713 248.09 216.749 262.026 203.687C262.026 203.687 282.853 181.684 301.468 185.197Z" fill="#DEE1E3"/>
<g id="Group_131">
<g id="Group_132">
<path id="Vector_130" d="M206.395 226.718C207.528 225.375 208.987 224.153 210.687 223.408C211.47 223.065 212.088 222.803 212.9 223.104C213.713 223.404 214.483 223.827 215.205 224.272C217.979 225.984 221.348 228.871 225.059 227.788C225.491 227.662 226.28 227.224 225.654 226.798C224.89 226.277 223.959 226.2 223.1 225.86C222.122 225.473 221.218 224.935 220.334 224.402C218.438 223.261 216.574 222.078 214.276 221.705C210.111 221.029 206.838 223.397 204.907 226.539C204.619 227.007 206.119 227.046 206.395 226.718Z" fill="#B9BABB"/>
</g>
</g>
<g id="Group_133">
<g id="Group_134">
<path id="Vector_131" d="M167.966 208.004C169.936 206.457 171.576 204.598 173.307 202.841C175.14 200.98 177.048 199.178 178.993 197.411C180.574 195.974 182.05 194.463 183.451 192.885C184.151 192.096 184.863 191.48 185.783 190.894C186.678 190.322 187.041 189.838 187.684 189.079C187.734 189.021 187.517 189.008 187.477 189.041C186.725 189.65 185.594 190.111 184.726 190.624C183.805 191.168 182.856 191.67 181.954 192.239C179.696 193.664 177.789 195.31 175.854 197.058C174.028 198.707 172.256 200.402 170.528 202.132C168.848 203.813 166.989 205.573 165.933 207.63C165.556 208.364 167.593 208.297 167.966 208.004Z" fill="#B5B7B8"/>
</g>
</g>
<g id="Group_135">
<path id="Vector_132" d="M286.509 192.666H264.963V195.972H286.509V192.666Z" fill="#001521"/>
<g id="Group_136">
<g id="Group_137">
<path id="Vector_133" d="M264.963 150.548V195.972H308.913L315.246 150.548H264.963Z" fill="#0B2230"/>
</g>
</g>
<path id="Vector_134" d="M281.761 172.168C281.761 175.011 279.174 177.315 275.987 177.315C272.797 177.315 270.214 175.011 270.214 172.168C270.214 169.327 272.797 167.022 275.987 167.022C279.174 167.022 281.761 169.327 281.761 172.168Z" fill="#1D394C"/>
</g>
<path id="Vector_135" d="M203.669 71.0338C201.992 75.9922 198.449 79.7517 198.117 85.1533C197.688 92.0649 201.72 96.28 204.396 102.273C207.053 108.23 204.599 111.004 201.465 116.24C197.314 123.177 204.246 126.651 204.134 133.274C204.029 139.778 197.105 139.122 191.734 138.461C183.934 137.5 180.176 131.57 179.248 125.201C178.851 122.463 177.607 122.003 174.056 122.418C170.61 122.819 169.756 124.122 167.5 121.276C164.01 116.878 162.918 111.336 165.433 106.376C167.998 101.321 173.127 98.2462 172.314 92.2758C171.554 86.6927 172.309 83.724 177.881 80.6887C182.924 77.9413 183.976 75.3014 183.475 70.0348C183.04 65.4424 184.545 63.0045 188.245 59.8097C190.419 57.9344 195.385 54.6516 198.496 56.2691C202.662 58.4407 204.955 67.2367 203.669 71.0338Z" fill="#B7793E"/>
</g>
<g id="Group_138">
<g id="Group_139">
<path id="Vector_136" d="M157.14 128.413C156.205 130.277 154.902 131.955 153.985 133.819C153.079 135.663 152.529 137.606 152.082 139.571C151.214 143.382 150.781 147.261 150.023 151.089C149.335 154.56 148.341 158.04 148.923 161.584C149.356 164.221 152.864 163.615 153.954 165.598C154.559 166.7 154.445 168.225 154.428 169.418C154.404 171.102 154.374 172.78 154.284 174.464C154.105 177.83 153.819 181.884 155.973 184.855C156.87 186.093 158.285 186.999 159.665 187.764C161.099 188.558 162.95 188.676 164.55 189.079C167.466 189.813 166.185 193.022 165.326 194.737C163.779 197.825 161.855 200.546 160.777 203.825C159.493 207.73 158.5 211.925 158.147 215.989C157.843 219.5 158.334 223.063 159.406 226.441C160.492 229.863 162.411 233.129 166.428 234.233C166.723 234.314 168.111 234.374 168.034 233.83C167.878 232.743 167.29 232.031 166.787 231.038C166.123 229.728 165.297 228.551 164.767 227.174C163.693 224.382 163.373 221.346 163.386 218.41C163.4 215.28 164.087 212.242 164.768 209.185C165.5 205.898 166.397 202.587 168.16 199.605C169.522 197.303 171.015 195.045 171.516 192.441C172.056 189.638 169.895 187.929 167.107 187.168C165.697 186.783 164.109 186.776 162.868 186.041C161.176 185.038 160.37 183.945 159.716 182.278C158.275 178.607 159.227 174.68 158.832 170.891C158.53 167.983 158.756 164.822 155.399 163.338C154.074 162.753 152.998 162.778 152.491 161.373C151.744 159.302 151.962 157.082 152.272 154.966C152.908 150.635 153.55 146.305 154.179 141.971C154.853 137.332 156.394 132.965 157.631 128.442C157.667 128.309 157.198 128.297 157.14 128.413Z" fill="#DBB961"/>
</g>
</g>
<g id="Group_140">
<g id="Group_141">
<path id="Vector_137" d="M172.94 238.285C174.464 239.022 175.807 239.898 177.483 240.382C179.358 240.923 181.38 241.21 183.344 241.273C184.205 241.301 185.071 241.103 185.897 240.914C186.9 240.685 187.097 240.746 187.648 241.546C188.497 242.778 188.655 244.111 189.977 245.071C192.663 247.023 196.887 247.058 200.163 247.065C204.351 247.074 208.626 246.15 212.65 245.203C216.696 244.251 220.662 243.035 224.602 241.785C228.258 240.624 232.45 240.82 235.786 238.859C236.897 238.206 237.756 237.351 238.62 236.46C239.002 236.066 239.395 235.687 239.83 235.34C239.974 235.224 240.498 235.03 240.211 235.001C241.024 235.083 241.903 235.655 242.606 235.996C243.52 236.439 244.423 236.887 245.369 237.274C247.452 238.128 249.876 237.969 252.107 237.843C254.275 237.721 256.402 237.943 258.568 237.939C260.272 237.936 263.105 237.756 263.961 236.151C264.507 235.129 261.791 235.263 261.305 235.475C260.29 235.919 258.935 235.784 257.835 235.765C256.412 235.741 254.998 235.575 253.574 235.59C252.579 235.601 251.585 235.683 250.591 235.722C250.156 235.738 249.704 235.758 249.268 235.732C248.326 235.676 249.385 235.892 248.472 235.513C246.483 234.686 244.704 233.501 242.543 233.028C239.284 232.313 236.391 233.121 234.215 235.335C233.386 236.177 232.562 237.093 231.465 237.669C229.808 238.539 227.617 238.719 225.763 239.04C221.742 239.737 217.944 241.154 214.04 242.234C210.017 243.348 205.925 244.284 201.732 244.708C199.115 244.972 194.544 245.21 192.704 243.164C191.755 242.109 191.2 240.826 189.931 240.021C188.403 239.051 186.42 239.183 184.705 239.589C182.695 240.066 180.839 239.775 178.82 239.384C176.96 239.024 175.448 238.059 173.515 237.854C173.27 237.828 172.392 238.021 172.94 238.285Z" fill="#DBB961"/>
</g>
</g>
<g id="Group_142">
<g id="Group_143">
<path id="Vector_138" d="M158.977 70.2316C155.64 71.8756 152.751 74.1762 150.999 77.2373C149.231 80.3266 148.62 83.8713 148.623 87.306C148.625 91.3201 150.493 95.1775 150.139 99.1843C150.029 100.426 149.471 101.722 148.984 102.877C148.502 104.022 147.87 105.213 146.713 105.922C145.499 106.666 148.25 107.118 148.696 107.049C151.952 106.546 152.673 103.361 153.24 100.887C154.114 97.0652 152.156 93.3967 151.64 89.6328C150.652 82.434 153.258 75.0109 159.869 70.5323C160.273 70.2584 159.204 70.12 158.977 70.2316Z" fill="#DBB961"/>
</g>
</g>
<g id="Group_144">
<g id="Group_145">
<path id="Vector_139" d="M94.733 130.084C93.4814 131.491 92.7888 133.373 92.0511 135.028C91.1645 137.016 90.1873 138.971 89.2861 140.954C87.6166 144.627 86.1108 148.348 84.8622 152.153C82.3207 159.9 80.7624 168.119 80.2387 176.17C79.969 180.316 80.1962 184.443 80.2143 188.59C80.232 192.732 80.2236 196.874 80.7895 200.992C81.3432 205.024 82.0504 209.051 82.6259 213.085C83.186 217.014 83.9505 220.885 85.233 224.68C87.554 231.55 91.4447 238.083 96.0853 243.917C96.4284 244.349 98.3347 244.396 98.056 243.68C95.2351 236.438 91.1164 229.652 89.0843 222.148C88.0221 218.225 87.6079 214.173 87.1684 210.165C86.7248 206.115 85.9407 202.088 85.623 198.032C85.3 193.905 85.4639 189.759 85.4226 185.626C85.3803 181.458 85.376 177.348 85.7869 173.189C86.5931 165.035 88.3122 156.937 90.831 149.066C91.8469 145.892 93.0026 142.739 94.2265 139.624C94.8285 138.093 95.4498 136.567 96.0215 135.026C96.2656 134.369 96.5283 133.72 96.5761 133.026C96.641 132.091 96.6122 131.252 97.0095 130.359C97.377 129.534 95.1404 129.626 94.733 130.084Z" fill="#DBB961"/>
</g>
</g>
</g>
</g>
</svg>
