<svg width="125" height="120" viewBox="0 0 125 120" fill="none" xmlns="http://www.w3.org/2000/svg">
<path d="M42.2561 0.0279966C37.6204 -0.161188 32.9908 0.606936 28.7489 2.37762C15.4751 7.91885 5.15186 19.3697 1.50254 32.6004C-2.14678 45.831 0.954087 60.5634 9.68726 71.4841C12.4335 74.9184 15.6785 77.9669 18.9118 81.0026C24.5172 86.2656 30.1227 91.5289 35.7282 96.7919C44.0416 104.598 52.6754 112.605 63.5891 116.682C83.2078 124.01 107.977 115.426 117.866 97.8715C122.568 89.5229 124.05 79.9116 124.663 70.4795C125.268 61.1786 125.041 51.5474 121.138 42.9839C118.529 37.2576 114.359 32.2389 109.501 28.0065C101.894 21.3795 92.5074 16.5784 82.4622 14.1768C72.6997 11.8427 60.0166 0.752327 42.2561 0.0279966Z" fill="white"/>
</svg>
