<svg width="500" height="500" viewBox="0 0 500 500" fill="none" xmlns="http://www.w3.org/2000/svg">
<path d="M500 420.71H0V420.989H500V420.71Z" fill="#EBEBEB"/>
<path d="M449.901 438.689H416.779V438.968H449.901V438.689Z" fill="#EBEBEB"/>
<path d="M331.22 441.721H322.527V442H331.22V441.721Z" fill="#EBEBEB"/>
<path d="M415.778 428.317H396.586V428.596H415.778V428.317Z" fill="#EBEBEB"/>
<path d="M95.652 430.193H52.459V430.472H95.652V430.193Z" fill="#EBEBEB"/>
<path d="M110.889 430.193H104.556V430.472H110.889V430.193Z" fill="#EBEBEB"/>
<path d="M225.147 434.91H131.471V435.19H225.147V434.91Z" fill="#EBEBEB"/>
<path d="M237.014 370.894H43.915C40.768 370.894 38.207 368.033 38.207 364.518V61.3278C38.207 57.8126 40.768 54.952 43.915 54.952H237.014C240.16 54.952 242.721 57.8126 242.721 61.3278V364.518C242.721 368.033 240.16 370.894 237.014 370.894ZM43.915 55.2324C40.905 55.2324 38.457 57.9668 38.457 61.329V364.519C38.457 367.881 40.905 370.616 43.915 370.616H237.014C240.023 370.616 242.471 367.881 242.471 364.519V61.3278C242.471 57.9668 240.023 55.2312 237.014 55.2312L43.915 55.2324Z" fill="#EBEBEB"/>
<path d="M453.31 370.894H260.212C257.065 370.894 254.505 368.033 254.505 364.518V61.3278C254.505 57.8126 257.066 54.952 260.212 54.952H453.31C456.458 54.952 459.018 57.8126 459.018 61.3278V364.518C459.019 368.033 456.458 370.894 453.31 370.894ZM260.212 55.2324C257.203 55.2324 254.755 57.9668 254.755 61.329V364.519C254.755 367.881 257.203 370.616 260.212 370.616H453.31C456.32 370.616 458.768 367.881 458.768 364.519V61.3278C458.768 57.9668 456.32 55.2312 453.31 55.2312L260.212 55.2324Z" fill="#EBEBEB"/>
<path d="M413.272 90.1521H364.543V157.158H413.272V90.1521Z" fill="#F5F5F5"/>
<path d="M410.403 93.3523H367.406V153.955H410.403V93.3523Z" fill="#EBEBEB"/>
<path d="M405.19 138.66V153.955H372.62V138.66C372.62 130.357 378.005 123.461 385.081 122.069C381.185 120.357 378.407 116.118 378.407 111.158C378.407 104.679 383.105 99.4322 388.906 99.4322C394.707 99.4322 399.404 104.68 399.404 111.158C399.404 116.118 396.64 120.358 392.73 122.069C399.804 123.461 405.19 130.356 405.19 138.66Z" fill="#E0E0E0"/>
<path d="M126.514 105.764H85.942V136.188H126.514V105.764Z" fill="#E0E0E0"/>
<path d="M106.228 96.1247L73.67 105.764L106.228 115.404L138.787 105.764L106.228 96.1247Z" fill="#EBEBEB"/>
<path d="M123.027 129.071V110.642C123.027 110.282 122.81 109.965 122.499 109.872L106.415 104.994C106.036 104.875 105.641 105.13 105.537 105.556C105.433 105.981 105.659 106.42 106.04 106.536L121.596 111.254V129.048C120.859 129.358 120.331 130.146 120.331 131.078C120.331 132.279 121.202 133.252 122.277 133.252C123.352 133.252 124.223 132.279 124.223 131.078C124.223 130.173 123.73 129.399 123.027 129.071Z" fill="#F5F5F5"/>
<path d="M210.589 65.387L203.883 109.144H239.247L210.589 65.387Z" fill="#E0E0E0"/>
<path d="M264.656 109.144H216.447L210.589 65.387H258.797L264.656 109.144Z" fill="#F5F5F5"/>
<path d="M259.87 73.406H211.662L210.589 65.387H258.797L259.87 73.406Z" fill="#EBEBEB"/>
<path d="M226.288 81.6562H222.135L221.507 76.9681H225.661L226.288 81.6562Z" fill="#E0E0E0"/>
<path d="M232.618 81.6562H228.464L227.837 76.9681H231.991L232.618 81.6562Z" fill="#E0E0E0"/>
<path d="M238.948 81.6562H234.794L234.166 76.9681H238.32L238.948 81.6562Z" fill="#E0E0E0"/>
<path d="M245.277 81.6562H241.124L240.496 76.9681H244.65L245.277 81.6562Z" fill="#E0E0E0"/>
<path d="M251.607 81.6562H247.453L246.826 76.9681H250.98L251.607 81.6562Z" fill="#E0E0E0"/>
<path d="M257.937 81.6562H253.783L253.155 76.9681H257.309L257.937 81.6562Z" fill="#E0E0E0"/>
<path d="M220.855 88.3515H216.702L216.074 83.6645H220.228L220.855 88.3515Z" fill="#E0E0E0"/>
<path d="M227.185 88.3515H223.031L222.404 83.6645H226.557L227.185 88.3515Z" fill="#E0E0E0"/>
<path d="M233.515 88.3515H229.361L228.733 83.6645H232.887L233.515 88.3515Z" fill="#E0E0E0"/>
<path d="M239.844 88.3515H235.691L235.063 83.6645H239.217L239.844 88.3515Z" fill="#E0E0E0"/>
<path d="M246.174 88.3515H242.02L241.393 83.6645H245.546L246.174 88.3515Z" fill="#E0E0E0"/>
<path d="M252.504 88.3515H248.35L247.722 83.6645H251.876L252.504 88.3515Z" fill="#E0E0E0"/>
<path d="M258.833 88.3515H254.68L254.052 83.6645H258.206L258.833 88.3515Z" fill="#E0E0E0"/>
<path d="M221.752 95.0479H217.598L216.971 90.361H221.124L221.752 95.0479Z" fill="#E0E0E0"/>
<path d="M228.082 95.0479H223.928L223.3 90.361H227.454L228.082 95.0479Z" fill="#E0E0E0"/>
<path d="M234.411 95.0479H230.258L229.63 90.361H233.784L234.411 95.0479Z" fill="#E0E0E0"/>
<path d="M240.741 95.0479H236.587L235.96 90.361H240.113L240.741 95.0479Z" fill="#E0E0E0"/>
<path d="M247.071 95.0479H242.917L242.289 90.361H246.443L247.071 95.0479Z" fill="#E0E0E0"/>
<path d="M253.4 95.0479H249.247L248.619 90.361H252.773L253.4 95.0479Z" fill="#E0E0E0"/>
<path d="M259.73 95.0479H255.576L254.949 90.361H259.102L259.73 95.0479Z" fill="#E0E0E0"/>
<path d="M222.648 101.744H218.495L217.867 97.0563H222.021L222.648 101.744Z" fill="#E0E0E0"/>
<path d="M228.978 101.744H224.824L224.197 97.0563H228.351L228.978 101.744Z" fill="#E0E0E0"/>
<path d="M235.308 101.744H231.154L230.526 97.0563H234.68L235.308 101.744Z" fill="#E0E0E0"/>
<path d="M241.637 101.744H237.484L236.856 97.0563H241.01L241.637 101.744Z" fill="#E0E0E0"/>
<path d="M247.967 101.744H243.813L243.186 97.0563H247.34L247.967 101.744Z" fill="#E0E0E0"/>
<path d="M254.297 101.744H250.143L249.515 97.0563H253.669L254.297 101.744Z" fill="#E0E0E0"/>
<path d="M448.444 311.058H411.964C410.756 311.058 409.777 309.965 409.777 308.615V250.403C409.777 249.053 410.756 247.96 411.964 247.96H448.444C449.652 247.96 450.631 249.053 450.631 250.403V308.616C450.63 309.965 449.651 311.058 448.444 311.058Z" fill="#E0E0E0"/>
<path d="M442.654 304.846H406.174C404.966 304.846 403.987 303.752 403.987 302.403V244.189C403.987 242.84 404.966 241.746 406.174 241.746H442.654C443.862 241.746 444.841 242.84 444.841 244.189V302.403C444.841 303.752 443.862 304.846 442.654 304.846Z" fill="#F5F5F5"/>
<path d="M437.72 251.681H411.109C410.373 251.681 409.777 251.015 409.777 250.193C409.777 249.371 410.373 248.705 411.109 248.705H437.72C438.456 248.705 439.052 249.371 439.052 250.193C439.052 251.015 438.455 251.681 437.72 251.681Z" fill="#EBEBEB"/>
<path d="M437.72 259.381H411.109C410.373 259.381 409.777 258.716 409.777 257.893C409.777 257.071 410.373 256.406 411.109 256.406H437.72C438.456 256.406 439.052 257.071 439.052 257.893C439.052 258.716 438.455 259.381 437.72 259.381Z" fill="#EBEBEB"/>
<path d="M437.72 267.083H411.109C410.373 267.083 409.777 266.417 409.777 265.595C409.777 264.773 410.373 264.107 411.109 264.107H437.72C438.456 264.107 439.052 264.773 439.052 265.595C439.052 266.417 438.455 267.083 437.72 267.083Z" fill="#EBEBEB"/>
<path d="M437.72 274.784H411.109C410.373 274.784 409.777 274.118 409.777 273.296C409.777 272.474 410.373 271.808 411.109 271.808H437.72C438.456 271.808 439.052 272.474 439.052 273.296C439.052 274.118 438.455 274.784 437.72 274.784Z" fill="#EBEBEB"/>
<path d="M437.72 282.485H411.109C410.373 282.485 409.777 281.82 409.777 280.998C409.777 280.175 410.373 279.51 411.109 279.51H437.72C438.456 279.51 439.052 280.175 439.052 280.998C439.052 281.819 438.455 282.485 437.72 282.485Z" fill="#EBEBEB"/>
<path d="M437.72 290.186H411.109C410.373 290.186 409.777 289.52 409.777 288.698C409.777 287.876 410.373 287.21 411.109 287.21H437.72C438.456 287.21 439.052 287.876 439.052 288.698C439.052 289.52 438.455 290.186 437.72 290.186Z" fill="#EBEBEB"/>
<path d="M431.72 297.888H411.109C410.373 297.888 409.777 297.222 409.777 296.4C409.777 295.578 410.373 294.912 411.109 294.912H431.72C432.456 294.912 433.052 295.578 433.052 296.4C433.052 297.221 432.455 297.888 431.72 297.888Z" fill="#EBEBEB"/>
<path d="M77.254 345.044L66.155 337.225L54.787 345.044V303.294H77.254V345.044Z" fill="#E0E0E0"/>
<path d="M78.3838 313.306C85.2132 305.678 85.2132 293.31 78.3838 285.681C71.5543 278.053 60.4817 278.053 53.6522 285.681C46.8228 293.31 46.8228 305.678 53.6522 313.306C60.4817 320.935 71.5543 320.935 78.3838 313.306Z" fill="#F5F5F5"/>
<path d="M76.5149 311.219C82.3122 304.743 82.3122 294.244 76.5149 287.769C70.7176 281.293 61.3184 281.293 55.5211 287.769C49.7238 294.244 49.7238 304.743 55.5211 311.219C61.3184 317.694 70.7176 317.694 76.5149 311.219Z" fill="#EBEBEB"/>
<path d="M250 427.561C357.082 427.561 443.889 422.492 443.889 416.238C443.889 409.985 357.082 404.915 250 404.915C142.918 404.915 56.111 409.985 56.111 416.238C56.111 422.492 142.918 427.561 250 427.561Z" fill="#F5F5F5"/>
<path d="M112.781 141.549C112.781 141.549 107.781 143.395 106.198 150.252C104.616 157.109 108.825 171.878 109.489 178.867C110.154 185.856 102.505 200.033 122.417 201.318C142.329 202.603 145.229 148.229 135.999 144.427C126.769 140.626 112.781 141.549 112.781 141.549Z" fill="#263238"/>
<path d="M135.064 145.22C140.615 142.604 143.003 160.698 141.025 173.758" stroke="#263238" stroke-width="0.5" stroke-miterlimit="10" stroke-linecap="round" stroke-linejoin="round"/>
<path d="M182.33 137.912L184.704 131.39C184.704 131.39 183.715 130.197 188.264 128.022C192.813 125.846 195.601 124.659 197.471 125.253C199.341 125.846 201.912 130.046 201.715 131.507C201.517 132.968 189.056 134.946 189.056 134.946L187.276 139.983L182.33 137.912Z" fill="#E4897B"/>
<path d="M143.78 171.254C143.78 171.254 165.538 164.723 169.099 161.378C172.659 158.033 182.725 133.165 182.725 133.165L190.044 136.132C190.044 136.132 182.549 165.034 176.22 171.721C169.891 178.408 145.561 190.275 145.561 190.275L143.78 171.254Z" fill="#FFA71E"/>
<path opacity="0.6" d="M143.78 171.254C143.78 171.254 165.538 164.723 169.099 161.378C172.659 158.033 182.725 133.165 182.725 133.165L190.044 136.132C190.044 136.132 182.549 165.034 176.22 171.721C169.891 178.408 145.561 190.275 145.561 190.275L143.78 171.254Z" fill="white"/>
<path d="M104.421 393.064L109.251 395.904C109.251 395.904 111.591 392.574 116.591 387.204V387.194C117.991 385.714 119.461 384.074 120.991 382.314C124.051 378.804 127.361 374.794 130.831 370.484C131.851 369.214 132.891 367.914 133.941 366.594C146.031 351.384 159.101 333.504 163.991 321.414C165.511 317.654 166.251 314.464 165.921 312.074C164.931 304.854 162.121 293.984 158.911 283.484C154.031 267.434 148.541 252.224 148.541 252.224L135.051 275.074C135.051 275.074 139.191 284.944 142.961 295.454C146.671 305.774 150.021 316.724 148.781 319.574C148.661 319.854 148.511 320.184 148.341 320.534C146.101 325.174 139.901 335.684 132.861 347.294C132.151 348.464 131.431 349.644 130.711 350.824C126.931 357.024 123.001 363.394 119.361 369.244C117.941 371.544 116.561 373.764 115.251 375.864C109.051 385.834 104.421 393.064 104.421 393.064Z" fill="#E4897B"/>
<path opacity="0.2" d="M134.216 366.594C127.836 374.614 121.706 381.894 117.146 387.194C116.496 383.934 115.836 380.074 115.316 375.864C120.586 367.404 127.036 356.964 132.896 347.294C132.845 352.414 133.035 359.984 134.216 366.594Z" fill="black"/>
<path d="M110.141 300.474C111.811 311.864 114.191 322.184 115.741 328.334C116.671 332.024 117.301 334.204 117.301 334.204C117.211 345.694 118.131 358.004 119.361 369.244C119.871 373.824 120.421 378.224 120.991 382.314C123.091 397.454 125.301 408.324 125.301 408.324L131.051 407.574L130.831 370.484L130.711 350.824L130.551 324.074L130.491 319.414L130.211 299.074L129.801 269.074L109.801 260.074C107.121 271.474 108.121 286.754 110.141 300.474Z" fill="#E4897B"/>
<path opacity="0.2" d="M163.66 300.66C158.55 304.19 151.65 306.31 146.93 307.45C145.84 303.72 144.43 299.53 142.96 295.45C139.19 284.94 135.05 275.07 135.05 275.07L148.54 252.22C148.54 252.22 154.03 267.43 158.91 283.48C160.7 289.32 162.36 295.28 163.66 300.66Z" fill="black"/>
<path opacity="0.2" d="M130.38 311.66C122.89 311.46 116.76 310.96 111.79 310.32C111.21 307.19 110.64 303.88 110.14 300.47C108.12 286.75 107.12 271.47 109.8 260.07L129.8 269.07L130.21 299.07L130.38 311.66Z" fill="black"/>
<path d="M164.628 298.672C152.118 306.022 115.321 309.14 115.321 309.14L109.301 292.22L109.957 308.956H108.174C108.174 308.956 94.726 263.461 112.591 233.64L144.591 231.17L148.091 247.65C148.091 247.65 157.107 271.272 164.628 298.672Z" fill="#263238"/>
<path d="M141.164 415.693C140.22 415.128 139.18 414.74 138.096 414.548C138.096 414.548 134.562 411.915 131.758 402.874L127.552 402.392C126.093 402.25 124.701 403.035 124.067 404.356C123.978 404.536 123.916 404.728 123.884 404.926C123.816 405.947 123.814 406.972 123.878 407.994C123.914 411.183 125.262 418.162 125.262 418.162L125.995 418.058L125.381 411.638C125.182 409.457 127.2 411.762 128.005 414.027C128.811 416.291 130.17 418.63 134.934 418.073C140.488 417.395 142.756 416.852 141.164 415.693Z" fill="#2E353A"/>
<path d="M130.596 399.667C130.596 399.667 132.096 403.761 134.096 408.261C136.096 412.761 138.096 414.548 138.096 414.548C138.096 414.548 134.622 415.676 132.747 413.498C130.872 411.32 127.665 403.453 124.068 404.357C124.068 404.357 124.331 403.418 124.87 402.527C125.409 401.636 130.596 399.667 130.596 399.667Z" fill="#E4897B"/>
<path d="M105.929 412.137C105.727 411.055 105.328 410.02 104.753 409.081C104.753 409.081 104.383 404.69 109.295 396.599L106.869 393.13C106.008 391.944 104.498 391.421 103.089 391.822C102.895 391.874 102.711 391.955 102.541 392.063C101.731 392.689 100.962 393.366 100.239 394.091C97.875 396.232 93.541 401.866 93.541 401.866L94.105 402.346L98.506 397.631C100.007 396.037 99.618 399.075 98.457 401.179C97.295 403.283 96.445 405.851 100.019 409.049C104.207 412.759 106.117 414.097 105.929 412.137Z" fill="#2E353A"/>
<path d="M110.928 393.603C110.928 393.603 108.856 397.44 106.812 401.92C104.767 406.4 104.754 409.082 104.754 409.082C104.754 409.082 101.607 407.228 101.996 404.38C102.385 401.532 106.15 393.917 103.09 391.823C103.09 391.823 103.968 391.398 104.992 391.211C106.015 391.023 110.928 393.603 110.928 393.603Z" fill="#E4897B"/>
<path d="M112.303 230.368L112.121 235.196L145.193 233.911L145.408 228.201L112.303 230.368Z" fill="#263238"/>
<path opacity="0.2" d="M112.303 230.368L112.121 235.196L145.193 233.911L145.408 228.201L112.303 230.368Z" fill="white"/>
<path d="M123.458 228.748L121.819 228.77L121.931 237.117L123.569 237.095L123.458 228.748Z" fill="#263238"/>
<path d="M137.725 228.778L130.49 229.151L130.773 234.638L138.009 234.265L137.725 228.778Z" fill="white"/>
<path d="M143.669 227.306L142.03 227.327L142.141 235.675L143.779 235.653L143.669 227.306Z" fill="#263238"/>
<path d="M103.318 232.407L110.877 236.731C110.877 236.731 113.174 237.352 115.026 240.319C116.879 243.286 114.22 254.758 112.78 254.758C111.34 254.758 103.207 252.978 103.317 251.395C103.428 249.813 106.58 242.296 106.58 242.296L99.273 237.747L103.318 232.407Z" fill="#E4897B"/>
<path d="M112.121 230.363C112.121 230.363 110.13 201.041 103.318 184.284C103.318 184.284 117.275 176.761 143.78 171.254C143.78 171.254 151.361 189.698 145.408 228.517L112.121 230.363Z" fill="#FFA71E"/>
<path opacity="0.6" d="M134.113 202.262C134.634 202.262 135.056 201.84 135.056 201.319C135.056 200.798 134.634 200.376 134.113 200.376C133.592 200.376 133.17 200.798 133.17 201.319C133.17 201.84 133.592 202.262 134.113 202.262Z" fill="white"/>
<path opacity="0.6" d="M135.999 212.697C135.999 213.218 135.577 213.64 135.056 213.64C134.535 213.64 134.113 213.218 134.113 212.697C134.113 212.176 134.535 211.754 135.056 211.754C135.577 211.754 135.999 212.176 135.999 212.697Z" fill="white"/>
<path opacity="0.6" d="M135.999 223.505C135.999 224.026 135.577 224.448 135.056 224.448C134.535 224.448 134.113 224.026 134.113 223.505C134.113 222.984 134.535 222.562 135.056 222.562C135.577 222.562 135.999 222.985 135.999 223.505Z" fill="white"/>
<path d="M103.318 184.284C97.099 187.703 74.55 213.616 76.33 221.33C78.11 229.044 103.318 241.11 103.318 241.11L107.654 233.64C107.654 233.64 91.134 221.33 90.342 219.352C89.551 217.374 108.524 202.447 108.524 202.447C108.524 202.447 108.962 195.443 108.173 190.584C107.385 185.725 103.318 184.284 103.318 184.284Z" fill="#FFA71E"/>
<path opacity="0.6" d="M103.318 184.284C97.099 187.703 74.55 213.616 76.33 221.33C78.11 229.044 103.318 241.11 103.318 241.11L107.654 233.64C107.654 233.64 91.134 221.33 90.342 219.352C89.551 217.374 108.524 202.447 108.524 202.447C108.524 202.447 108.962 195.443 108.173 190.584C107.385 185.725 103.318 184.284 103.318 184.284Z" fill="white"/>
<path d="M115.026 189.484C115.026 189.484 108.703 179.137 122.549 175.574C136.395 172.011 140.615 180.319 140.615 180.319L133.716 179.132L132.85 195.616C132.85 195.616 128.765 187.11 118.276 183.484L115.026 189.484Z" fill="#FFA71E"/>
<path opacity="0.6" d="M115.026 189.484C115.026 189.484 108.703 179.137 122.549 175.574C136.395 172.011 140.615 180.319 140.615 180.319L133.716 179.132L132.85 195.616C132.85 195.616 128.765 187.11 118.276 183.484L115.026 189.484Z" fill="white"/>
<path d="M130.733 187.505C123.925 184.47 117.425 179.863 117.425 179.863C120.675 176.803 120.085 172.283 119.255 169.463C118.805 167.903 118.275 166.863 118.275 166.863L127.845 168.653C127.595 170.233 127.485 171.563 127.475 172.683C127.455 173.913 127.565 174.883 127.745 175.643C128.395 178.503 130.025 178.543 130.025 178.543C131.705 181.684 130.733 187.505 130.733 187.505Z" fill="#E4897B"/>
<path opacity="0.2" d="M127.475 172.684C127.455 173.914 127.565 174.884 127.745 175.644C123.945 175.144 121.065 172.104 119.255 169.464C118.805 167.904 118.275 166.864 118.275 166.864L127.845 168.654C127.595 170.234 127.485 171.564 127.475 172.684Z" fill="black"/>
<path d="M125.582 141.714C135.887 141.714 136.753 146.694 137.344 155.278C138.082 166.004 135.687 173.618 125.28 171.305C111.147 168.162 111.753 141.714 125.582 141.714Z" fill="#E4897B"/>
<path d="M131.962 154.8C131.962 154.8 133.111 156.978 134.377 158.259C134.377 158.259 133.662 159.39 132.18 159.196L131.962 154.8Z" fill="#DE5753"/>
<path d="M126.867 154.108C126.882 154.792 126.524 155.355 126.067 155.364C125.611 155.374 125.229 154.827 125.215 154.143C125.201 153.459 125.558 152.896 126.015 152.887C126.471 152.877 126.852 153.424 126.867 154.108Z" fill="#263238"/>
<path d="M125.825 152.924L127.301 152.309C127.301 152.309 126.586 153.577 125.825 152.924Z" fill="#263238"/>
<path d="M135.368 153.786C135.382 154.47 135.025 155.032 134.568 155.042C134.112 155.052 133.73 154.505 133.716 153.821C133.701 153.137 134.06 152.574 134.515 152.565C134.972 152.555 135.354 153.102 135.368 153.786Z" fill="#263238"/>
<path d="M134.327 152.602L135.802 151.987C135.802 151.987 135.088 153.254 134.327 152.602Z" fill="#263238"/>
<path d="M126.796 148.357C126.796 148.357 124.457 148.047 123.181 149.608" stroke="#263238" stroke-width="0.708" stroke-miterlimit="10" stroke-linecap="round" stroke-linejoin="round"/>
<path d="M132.85 148.019C132.85 148.019 134.322 147.478 136.167 148.711" stroke="#263238" stroke-width="0.708" stroke-miterlimit="10" stroke-linecap="round" stroke-linejoin="round"/>
<path d="M116.623 156.227C116.623 156.227 120.532 149.394 119.954 144.11C119.954 144.11 125.825 138.055 133.736 144.039C133.736 144.039 137.043 149.732 137.248 154.157C137.248 154.157 138.894 139.287 124.579 138.924C110.287 138.561 110.278 159.504 117.657 165.761C117.657 165.761 114.205 160.501 116.623 156.227Z" fill="#263238"/>
<path d="M117.979 157.988C117.926 156.647 116.548 154.375 114.054 154.641C111.473 154.917 110.231 160.212 116.647 161.5C117.568 161.685 118.089 160.786 117.979 157.988Z" fill="#E4897B"/>
<path d="M131.054 163.707C131.054 163.707 127.564 164.496 126.12 161.377" stroke="#263238" stroke-width="0.708" stroke-miterlimit="10" stroke-linecap="round" stroke-linejoin="round"/>
<path d="M119.954 144.11C119.954 144.11 129.469 139.885 135.768 145.464C135.768 145.464 138.242 138.12 129.803 135.615C121.363 133.109 112.781 141.549 112.781 141.549L119.954 144.11Z" fill="#263238"/>
<path d="M119.954 144.11C119.954 144.11 114.398 149.591 115.202 160.505C116.006 171.418 114.949 178.32 112.78 185.15C110.611 191.98 116.288 194.019 116.288 194.019C116.288 194.019 109.819 195.615 108.486 188.692C107.612 184.15 109.692 174.309 108.645 162.587C107.598 150.864 111.779 142.58 119.954 144.11Z" fill="#263238"/>
<path d="M274.449 119.778C269.369 119.778 265.251 123.896 265.251 128.976C265.251 134.056 269.369 138.174 274.449 138.174C279.529 138.174 283.647 134.056 283.647 128.976C283.647 123.896 279.529 119.778 274.449 119.778ZM274.449 128.086C272.974 128.086 271.779 126.89 271.779 125.416C271.779 123.942 272.975 122.746 274.449 122.746C275.924 122.746 277.119 123.941 277.119 125.416C277.119 126.891 275.924 128.086 274.449 128.086Z" fill="#FFA71E"/>
<path opacity="0.6" d="M274.449 119.778C269.369 119.778 265.251 123.896 265.251 128.976C265.251 134.056 269.369 138.174 274.449 138.174C279.529 138.174 283.647 134.056 283.647 128.976C283.647 123.896 279.529 119.778 274.449 119.778ZM274.449 128.086C272.974 128.086 271.779 126.89 271.779 125.416C271.779 123.942 272.975 122.746 274.449 122.746C275.924 122.746 277.119 123.941 277.119 125.416C277.119 126.891 275.924 128.086 274.449 128.086Z" fill="white"/>
<path d="M365.49 418.162H183.408C179.274 418.162 175.922 414.811 175.922 410.677V139.345C175.922 135.211 179.273 131.86 183.408 131.86H365.49C369.624 131.86 372.975 135.211 372.975 139.345V410.677C372.976 414.811 369.625 418.162 365.49 418.162Z" fill="#FFA71E"/>
<path opacity="0.8" d="M362.544 148.505H186.355V404.54H362.544V148.505Z" fill="white"/>
<path d="M321.309 145.295H227.589C226.522 145.295 225.658 144.43 225.658 143.364V131.348C225.658 130.281 226.523 129.417 227.589 129.417H321.309C322.376 129.417 323.24 130.282 323.24 131.348V143.364C323.24 144.43 322.375 145.295 321.309 145.295Z" fill="#FFA71E"/>
<path opacity="0.4" d="M321.309 145.295H227.589C226.522 145.295 225.658 144.43 225.658 143.364V131.348C225.658 130.281 226.523 129.417 227.589 129.417H321.309C322.376 129.417 323.24 130.282 323.24 131.348V143.364C323.24 144.43 322.375 145.295 321.309 145.295Z" fill="white"/>
<path d="M310.524 160.048H282.278C281.073 160.048 279.992 159.42 279.456 158.408C278.472 156.551 276.555 155.398 274.453 155.398C272.35 155.398 270.433 156.551 269.451 158.406C268.915 159.419 267.833 160.048 266.628 160.048H238.373C236.708 160.048 235.353 158.693 235.353 157.028V140.198C235.353 138.533 236.708 137.178 238.373 137.178H310.523C312.188 137.178 313.543 138.533 313.543 140.198V157.028C313.544 158.693 312.189 160.048 310.524 160.048ZM274.454 153.398C277.297 153.398 279.892 154.959 281.224 157.471C281.41 157.822 281.824 158.048 282.279 158.048H310.525C311.087 158.048 311.545 157.59 311.545 157.028V140.198C311.545 139.635 311.088 139.178 310.525 139.178H238.375C237.813 139.178 237.355 139.636 237.355 140.198V157.028C237.355 157.591 237.813 158.048 238.375 158.048H266.63C267.086 158.048 267.5 157.821 267.685 157.471C269.014 154.958 271.608 153.398 274.454 153.398Z" fill="#263238"/>
<g opacity="0.2">
<path d="M310.524 160.048H282.278C281.073 160.048 279.992 159.42 279.456 158.408C278.472 156.551 276.555 155.398 274.453 155.398C272.35 155.398 270.433 156.551 269.451 158.406C268.915 159.419 267.833 160.048 266.628 160.048H238.373C236.708 160.048 235.353 158.693 235.353 157.028V140.198C235.353 138.533 236.708 137.178 238.373 137.178H310.523C312.188 137.178 313.543 138.533 313.543 140.198V157.028C313.544 158.693 312.189 160.048 310.524 160.048ZM274.454 153.398C277.297 153.398 279.892 154.959 281.224 157.471C281.41 157.822 281.824 158.048 282.279 158.048H310.525C311.087 158.048 311.545 157.59 311.545 157.028V140.198C311.545 139.635 311.088 139.178 310.525 139.178H238.375C237.813 139.178 237.355 139.636 237.355 140.198V157.028C237.355 157.591 237.813 158.048 238.375 158.048H266.63C267.086 158.048 267.5 157.821 267.685 157.471C269.014 154.958 271.608 153.398 274.454 153.398Z" fill="white"/>
</g>
<path d="M306.243 141.09H242.694C242.054 141.09 241.535 140.571 241.535 139.931V135.432C241.535 134.792 242.054 134.273 242.694 134.273H306.243C306.883 134.273 307.402 134.792 307.402 135.432V139.931C307.403 140.571 306.884 141.09 306.243 141.09Z" fill="#FFA71E"/>
<path opacity="0.6" d="M306.204 141.09H242.655C242.015 141.09 241.496 140.571 241.496 139.931V135.432C241.496 134.792 242.015 134.273 242.655 134.273H306.204C306.844 134.273 307.363 134.792 307.363 135.432V139.931C307.363 140.571 306.844 141.09 306.204 141.09Z" fill="white"/>
<path opacity="0.3" d="M290.807 288.335H273.011V306.131H290.807V288.335Z" fill="black"/>
<path opacity="0.3" d="M288.733 313.298H275.086C273.94 313.298 273.012 312.369 273.012 311.224C273.012 310.078 273.941 309.15 275.086 309.15H288.733C289.879 309.15 290.807 310.079 290.807 311.224C290.807 312.37 289.879 313.298 288.733 313.298Z" fill="black"/>
<path opacity="0.3" d="M346.008 292.143H300.233C299.182 292.143 298.329 291.291 298.329 290.239C298.329 289.188 299.181 288.335 300.233 288.335H346.008C347.06 288.335 347.912 289.187 347.912 290.239C347.912 291.29 347.06 292.143 346.008 292.143Z" fill="black"/>
<path opacity="0.3" d="M336.008 302.143H300.233C299.182 302.143 298.329 301.291 298.329 300.239C298.329 299.188 299.181 298.335 300.233 298.335H336.008C337.06 298.335 337.912 299.187 337.912 300.239C337.912 301.29 337.06 302.143 336.008 302.143Z" fill="black"/>
<path opacity="0.3" d="M346.008 312.143H300.233C299.182 312.143 298.329 311.291 298.329 310.239C298.329 309.188 299.181 308.335 300.233 308.335H346.008C347.06 308.335 347.912 309.187 347.912 310.239C347.912 311.29 347.06 312.143 346.008 312.143Z" fill="black"/>
<path opacity="0.3" d="M320.008 322.143H300.233C299.182 322.143 298.329 321.291 298.329 320.239C298.329 319.188 299.181 318.335 300.233 318.335H320.008C321.06 318.335 321.912 319.187 321.912 320.239C321.912 321.29 321.06 322.143 320.008 322.143Z" fill="black"/>
<path opacity="0.3" d="M327.058 174.866H221.341C219.437 174.866 217.894 173.323 217.894 171.419C217.894 169.515 219.437 167.972 221.341 167.972H327.058C328.962 167.972 330.505 169.515 330.505 171.419C330.505 173.323 328.962 174.866 327.058 174.866Z" fill="black"/>
<path opacity="0.3" d="M344.69 195.286H274.915C273.864 195.286 273.011 194.434 273.011 193.382C273.011 192.331 273.863 191.478 274.915 191.478H344.69C345.741 191.478 346.594 192.33 346.594 193.382C346.593 194.434 345.741 195.286 344.69 195.286Z" fill="black"/>
<path opacity="0.3" d="M334.69 205.286H274.915C273.864 205.286 273.011 204.434 273.011 203.382C273.011 202.331 273.863 201.478 274.915 201.478H334.69C335.741 201.478 336.594 202.33 336.594 203.382C336.593 204.434 335.741 205.286 334.69 205.286Z" fill="black"/>
<path opacity="0.3" d="M344.69 215.286H274.915C273.864 215.286 273.011 214.434 273.011 213.382C273.011 212.331 273.863 211.478 274.915 211.478H344.69C345.741 211.478 346.594 212.33 346.594 213.382C346.593 214.434 345.741 215.286 344.69 215.286Z" fill="black"/>
<path opacity="0.3" d="M324.69 225.286H274.915C273.864 225.286 273.011 224.434 273.011 223.382C273.011 222.331 273.863 221.478 274.915 221.478H324.69C325.741 221.478 326.594 222.33 326.594 223.382C326.593 224.434 325.741 225.286 324.69 225.286Z" fill="black"/>
<path opacity="0.3" d="M278.004 237.206L279.102 239.432L281.558 239.789L279.781 241.521L280.2 243.967L278.004 242.812L275.807 243.967L276.226 241.521L274.449 239.789L276.905 239.432L278.004 237.206Z" fill="black"/>
<path opacity="0.3" d="M290.418 237.206L291.516 239.432L293.972 239.789L292.195 241.521L292.614 243.967L290.418 242.812L288.221 243.967L288.64 241.521L286.863 239.789L289.319 239.432L290.418 237.206Z" fill="black"/>
<path opacity="0.3" d="M302.832 237.206L303.93 239.432L306.386 239.789L304.609 241.521L305.029 243.967L302.832 242.812L300.635 243.967L301.054 241.521L299.277 239.789L301.733 239.432L302.832 237.206Z" fill="black"/>
<path opacity="0.3" d="M315.246 237.206L316.344 239.432L318.8 239.789L317.023 241.521L317.443 243.967L315.246 242.812L313.049 243.967L313.469 241.521L311.691 239.789L314.147 239.432L315.246 237.206Z" fill="black"/>
<path opacity="0.3" d="M327.66 237.206L328.758 239.432L331.214 239.789L329.437 241.521L329.857 243.967L327.66 242.812L325.463 243.967L325.883 241.521L324.105 239.789L326.561 239.432L327.66 237.206Z" fill="black"/>
<path opacity="0.3" d="M278.004 249.947L279.102 252.173L281.558 252.53L279.781 254.262L280.2 256.708L278.004 255.553L275.807 256.708L276.226 254.262L274.449 252.53L276.905 252.173L278.004 249.947Z" fill="black"/>
<path opacity="0.3" d="M290.418 249.947L291.516 252.173L293.972 252.53L292.195 254.262L292.614 256.708L290.418 255.553L288.221 256.708L288.64 254.262L286.863 252.53L289.319 252.173L290.418 249.947Z" fill="black"/>
<path opacity="0.3" d="M302.832 249.947L303.93 252.173L306.386 252.53L304.609 254.262L305.029 256.708L302.832 255.553L300.635 256.708L301.054 254.262L299.277 252.53L301.733 252.173L302.832 249.947Z" fill="black"/>
<path opacity="0.1" d="M315.246 249.947L316.344 252.173L318.8 252.53L317.023 254.262L317.443 256.708L315.246 255.553L313.049 256.708L313.469 254.262L311.691 252.53L314.147 252.173L315.246 249.947Z" fill="black"/>
<path opacity="0.1" d="M327.66 249.947L328.758 252.173L331.214 252.53L329.437 254.262L329.857 256.708L327.66 255.553L325.463 256.708L325.883 254.262L324.105 252.53L326.561 252.173L327.66 249.947Z" fill="black"/>
<path opacity="0.3" d="M278.004 262.688L279.102 264.914L281.558 265.271L279.781 267.003L280.2 269.449L278.004 268.294L275.807 269.449L276.226 267.003L274.449 265.271L276.905 264.914L278.004 262.688Z" fill="black"/>
<path opacity="0.3" d="M290.418 262.688L291.516 264.914L293.972 265.271L292.195 267.003L292.614 269.449L290.418 268.294L288.221 269.449L288.64 267.003L286.863 265.271L289.319 264.914L290.418 262.688Z" fill="black"/>
<path opacity="0.3" d="M302.832 262.688L303.93 264.914L306.386 265.271L304.609 267.003L305.029 269.449L302.832 268.294L300.635 269.449L301.054 267.003L299.277 265.271L301.733 264.914L302.832 262.688Z" fill="black"/>
<path opacity="0.3" d="M315.246 262.688L316.344 264.914L318.8 265.271L317.023 267.003L317.443 269.449L315.246 268.294L313.049 269.449L313.469 267.003L311.691 265.271L314.147 264.914L315.246 262.688Z" fill="black"/>
<path opacity="0.1" d="M327.66 262.688L328.758 264.914L331.214 265.271L329.437 267.003L329.857 269.449L327.66 268.294L325.463 269.449L325.883 267.003L324.105 265.271L326.561 264.914L327.66 262.688Z" fill="black"/>
<path opacity="0.3" d="M290.807 338.335H273.011V356.131H290.807V338.335Z" fill="black"/>
<path opacity="0.3" d="M288.733 363.298H275.086C273.94 363.298 273.012 362.369 273.012 361.224C273.012 360.078 273.941 359.15 275.086 359.15H288.733C289.879 359.15 290.807 360.079 290.807 361.224C290.807 362.37 289.879 363.298 288.733 363.298Z" fill="black"/>
<path opacity="0.3" d="M346.008 342.143H300.233C299.182 342.143 298.329 341.291 298.329 340.239C298.329 339.188 299.181 338.335 300.233 338.335H346.008C347.06 338.335 347.912 339.187 347.912 340.239C347.912 341.29 347.06 342.143 346.008 342.143Z" fill="black"/>
<path opacity="0.3" d="M336.008 352.143H300.233C299.182 352.143 298.329 351.291 298.329 350.239C298.329 349.188 299.181 348.335 300.233 348.335H336.008C337.06 348.335 337.912 349.187 337.912 350.239C337.912 351.29 337.06 352.143 336.008 352.143Z" fill="black"/>
<path opacity="0.3" d="M346.008 362.143H300.233C299.182 362.143 298.329 361.291 298.329 360.239C298.329 359.188 299.181 358.335 300.233 358.335H346.008C347.06 358.335 347.912 359.187 347.912 360.239C347.912 361.29 347.06 362.143 346.008 362.143Z" fill="black"/>
<path opacity="0.3" d="M320.008 372.143H300.233C299.182 372.143 298.329 371.291 298.329 370.239C298.329 369.188 299.181 368.335 300.233 368.335H320.008C321.06 368.335 321.912 369.187 321.912 370.239C321.912 371.29 321.06 372.143 320.008 372.143Z" fill="black"/>
<path d="M261.649 191.479H197.471V276.697H261.649V191.479Z" fill="white"/>
<path d="M258.65 194.478H200.47V273.698H258.65V194.478Z" fill="#FFA71E"/>
<path opacity="0.4" d="M258.65 194.478H200.47V273.698H258.65V194.478Z" fill="white"/>
<path d="M258.65 256.018V273.698H254.13C252.78 272.448 251.38 271.348 250.02 270.568C249.24 270.118 248.48 269.778 247.74 269.578C240.95 267.738 250.7 249.538 250.7 249.538C250.7 249.538 250.7 249.538 250.71 249.548C252.97 250.288 255.81 252.848 258.65 256.018Z" fill="#FFA71E"/>
<path opacity="0.6" d="M258.65 256.018V273.698H254.13C252.78 272.448 251.38 271.348 250.02 270.568C249.24 270.118 248.48 269.778 247.74 269.578C240.95 267.738 250.7 249.538 250.7 249.538C250.7 249.538 250.7 249.538 250.71 249.548C252.97 250.288 255.81 252.848 258.65 256.018Z" fill="white"/>
<path opacity="0.2" d="M258.65 273.638V273.698H254.13C252.78 272.448 251.38 271.348 250.02 270.568L251.36 262.198C251.36 262.198 252.98 263.428 254.81 265.918V265.928C256.18 267.788 257.65 270.348 258.65 273.638Z" fill="black"/>
<path d="M246.19 248.838C246.05 249.558 245.91 250.288 245.75 251.008C245.57 251.868 245.37 252.718 245.16 253.568C242.98 262.338 239.38 270.018 234.22 273.698H216.58C211.45 271.088 210.47 266.668 210.64 262.098C210.75 258.988 211.39 255.818 211.62 253.118C211.7 252.098 211.73 251.148 211.65 250.298C211.52 248.878 211.25 247.168 210.92 245.278C209.39 236.568 206.4 223.998 207.89 217.548C209.7 209.708 215.42 207.588 215.42 207.588C215.42 207.588 217.36 207.458 220.34 207.478C222.54 207.488 225.31 207.588 228.27 207.868C228.34 207.878 228.41 207.878 228.48 207.888C231.65 208.198 235.04 208.728 238.21 209.608C238.45 209.678 238.7 209.748 238.94 209.818C239.57 210.008 240.2 210.208 240.81 210.428C240.8 210.438 240.81 210.438 240.81 210.438C241.21 210.578 241.6 210.728 241.99 210.888L242 210.898C242.48 211.088 242.92 211.408 243.34 211.828C247.88 216.398 249.04 233.448 246.19 248.838Z" fill="#263238"/>
<path d="M240.921 211.792C247.273 208.799 250.006 229.504 247.742 244.449" stroke="#263238" stroke-width="0.5" stroke-miterlimit="10" stroke-linecap="round" stroke-linejoin="round"/>
<path d="M255.29 273.698H209.65C209.46 272.838 209.27 271.978 209.07 271.128C207.83 265.888 206.35 260.838 204.6 256.508C204.59 256.498 204.59 256.498 204.59 256.498C204.59 256.498 206.67 255.178 210.43 253.608C210.81 253.438 211.2 253.278 211.62 253.118C213.2 252.488 215.04 251.838 217.1 251.218C217.31 251.158 217.53 251.098 217.76 251.028C219.31 250.578 220.98 250.158 222.78 249.788H222.79C226.17 249.078 229.95 248.548 234.07 248.368C234.07 248.368 234.06 248.368 234.07 248.358C236.81 248.228 239.7 248.258 242.73 248.498C242.74 248.498 242.74 248.498 242.74 248.498C243.87 248.578 245.02 248.688 246.19 248.838C247.66 249.018 249.17 249.248 250.7 249.538C250.7 249.538 250.7 249.538 250.71 249.548C250.88 249.818 253.66 254.238 254.81 265.918V265.928C255.05 268.228 255.22 270.808 255.29 273.698Z" fill="#FFA71E"/>
<path d="M217.369 260.137C217.369 260.137 212.151 247.279 228.447 245.827C244.743 244.375 247.966 254.54 247.966 254.54L240.396 251.919L236.357 270.371C236.357 270.371 233.324 260.008 222.153 253.966L217.369 260.137Z" fill="#FFA71E"/>
<path opacity="0.6" d="M217.369 260.137C217.369 260.137 212.151 247.279 228.447 245.827C244.743 244.375 247.966 254.54 247.966 254.54L240.396 251.919L236.357 270.371C236.357 270.371 233.324 260.008 222.153 253.966L217.369 260.137Z" fill="white"/>
<path d="M235.753 262.196C229.649 255.602 221.585 251.022 221.585 251.022C225.484 247.721 225.082 242.521 224.304 239.248C223.884 237.438 223.341 236.218 223.341 236.218L234.169 238.841C233.788 240.631 233.582 242.145 233.503 243.424C233.406 244.828 233.473 245.944 233.633 246.823C234.203 250.13 236.063 250.275 236.063 250.275C237.793 253.964 235.753 262.196 235.753 262.196Z" fill="#E4897B"/>
<path opacity="0.2" d="M233.503 243.424C233.406 244.828 233.473 245.944 233.633 246.823C229.321 246.022 226.213 242.374 224.304 239.248C223.884 237.438 223.341 236.218 223.341 236.218L234.169 238.841C233.788 240.632 233.582 242.145 233.503 243.424Z" fill="black"/>
<path d="M230.07 207.781C241.863 207.781 242.854 213.48 243.53 223.302C244.375 235.577 241.634 244.29 229.725 241.642C213.551 238.045 214.244 207.781 230.07 207.781Z" fill="#E4897B"/>
<path d="M237.371 222.755C237.371 222.755 238.686 225.247 240.135 226.713C240.135 226.713 239.316 228.007 237.621 227.785L237.371 222.755Z" fill="#DE5753"/>
<path d="M231.54 221.963C231.556 222.746 231.147 223.389 230.625 223.4C230.103 223.411 229.667 222.785 229.65 222.003C229.633 221.22 230.043 220.577 230.565 220.565C231.087 220.555 231.523 221.18 231.54 221.963Z" fill="#263238"/>
<path d="M230.348 220.608L232.037 219.904C232.037 219.904 231.219 221.355 230.348 220.608Z" fill="#263238"/>
<path d="M241.268 221.594C241.284 222.377 240.875 223.02 240.353 223.031C239.831 223.042 239.395 222.416 239.378 221.634C239.361 220.851 239.771 220.207 240.293 220.196C240.815 220.186 241.252 220.812 241.268 221.594Z" fill="#263238"/>
<path d="M240.076 220.239L241.765 219.535C241.765 219.535 240.947 220.986 240.076 220.239Z" fill="#263238"/>
<path d="M231.458 215.382C231.458 215.382 228.781 215.028 227.322 216.813" stroke="#263238" stroke-width="0.708" stroke-miterlimit="10" stroke-linecap="round" stroke-linejoin="round"/>
<path d="M238.386 214.995C238.386 214.995 240.071 214.376 242.182 215.787" stroke="#263238" stroke-width="0.708" stroke-miterlimit="10" stroke-linecap="round" stroke-linejoin="round"/>
<path d="M219.817 224.388C219.817 224.388 224.29 216.568 223.629 210.522C223.629 210.522 230.348 203.593 239.401 210.441C239.401 210.441 243.185 216.955 243.42 222.019C243.42 222.019 245.303 205.003 228.922 204.587C212.567 204.172 212.557 228.137 221.001 235.297C221.001 235.297 217.05 229.278 219.817 224.388Z" fill="#263238"/>
<path d="M221.369 226.403C221.309 224.868 219.731 222.268 216.877 222.573C213.923 222.889 212.502 228.948 219.844 230.422C220.898 230.633 221.495 229.605 221.369 226.403Z" fill="#E4897B"/>
<path d="M236.331 232.948C236.331 232.948 232.337 233.85 230.684 230.282" stroke="#263238" stroke-width="0.708" stroke-miterlimit="10" stroke-linecap="round" stroke-linejoin="round"/>
<path d="M223.629 210.522C223.629 210.522 234.518 205.687 241.725 212.072C241.725 212.072 244.556 203.668 234.899 200.801C225.241 197.934 215.42 207.592 215.42 207.592L223.629 210.522Z" fill="#263238"/>
<path d="M223.629 210.522C223.629 210.522 217.271 216.794 218.191 229.284C219.111 241.773 217.902 249.671 215.42 257.487C212.938 265.303 219.434 267.636 219.434 267.636C219.434 267.636 212.031 269.462 210.506 261.54C209.506 256.343 211.886 245.081 210.688 231.666C209.49 218.251 214.274 208.772 223.629 210.522Z" fill="#263238"/>
<path opacity="0.2" d="M211.76 273.698H209.65C209.46 272.838 209.27 271.978 209.07 271.128L210.66 269.738L210.69 269.708C210.69 269.708 211.24 271.228 211.76 273.698Z" fill="black"/>
<path d="M210.67 273.698H200.47V259.668C202.14 258.168 203.56 257.068 204.59 256.498C204.59 256.498 204.59 256.498 204.6 256.508C204.88 256.608 209.28 258.318 210.15 263.708C210.45 265.568 210.6 267.718 210.66 269.738C210.7 271.158 210.69 272.528 210.67 273.698Z" fill="#FFA71E"/>
<path opacity="0.6" d="M210.67 273.698H200.47V259.668C202.14 258.168 203.56 257.068 204.59 256.498C204.59 256.498 204.59 256.498 204.6 256.508C204.88 256.608 209.28 258.318 210.15 263.708C210.45 265.568 210.6 267.718 210.66 269.738C210.7 271.158 210.69 272.528 210.67 273.698Z" fill="white"/>
<path opacity="0.3" d="M261.649 286.632H197.471V371.731H261.649V286.632Z" fill="black"/>
<path opacity="0.3" d="M250.865 299.817H207.09C206.039 299.817 205.186 298.965 205.186 297.913C205.186 296.862 206.038 296.009 207.09 296.009H250.865C251.916 296.009 252.769 296.861 252.769 297.913C252.768 298.965 251.916 299.817 250.865 299.817Z" fill="white"/>
<path opacity="0.3" d="M250.865 310.461H207.09C206.039 310.461 205.186 309.609 205.186 308.557C205.186 307.506 206.038 306.653 207.09 306.653H250.865C251.916 306.653 252.769 307.505 252.769 308.557C252.768 309.609 251.916 310.461 250.865 310.461Z" fill="white"/>
<path opacity="0.3" d="M230.865 321.106H207.09C206.039 321.106 205.186 320.254 205.186 319.202C205.186 318.151 206.038 317.298 207.09 317.298H230.865C231.916 317.298 232.769 318.15 232.769 319.202C232.768 320.254 231.916 321.106 230.865 321.106Z" fill="white"/>
<path opacity="0.3" d="M250.865 331.75H207.09C206.039 331.75 205.186 330.898 205.186 329.846C205.186 328.795 206.038 327.942 207.09 327.942H250.865C251.916 327.942 252.769 328.794 252.769 329.846C252.768 330.898 251.916 331.75 250.865 331.75Z" fill="white"/>
<path opacity="0.3" d="M250.865 342.395H207.09C206.039 342.395 205.186 341.543 205.186 340.491C205.186 339.44 206.038 338.587 207.09 338.587H250.865C251.916 338.587 252.769 339.439 252.769 340.491C252.768 341.542 251.916 342.395 250.865 342.395Z" fill="white"/>
<path opacity="0.3" d="M220.865 353.039H207.09C206.039 353.039 205.186 352.187 205.186 351.135C205.186 350.084 206.038 349.231 207.09 349.231H220.865C221.916 349.231 222.769 350.083 222.769 351.135C222.768 352.187 221.916 353.039 220.865 353.039Z" fill="white"/>
<path opacity="0.3" d="M240.865 363.684H207.09C206.039 363.684 205.186 362.832 205.186 361.78C205.186 360.729 206.038 359.876 207.09 359.876H240.865C241.916 359.876 242.769 360.728 242.769 361.78C242.768 362.831 241.916 363.684 240.865 363.684Z" fill="white"/>
<path d="M404.531 355.888C402.855 355.198 401.096 355.367 399.3 356.396C394.455 359.172 392.421 370.548 391.567 379.367C391.884 366.819 393.945 349.457 402.173 340.012L401.419 339.356C394.533 347.259 391.849 360.225 390.916 371.594C390.793 366.755 390.489 361.511 389.851 356.517C390.07 345.812 390.999 336.088 393.447 332.777L392.643 332.183C390.483 335.104 389.441 342.519 389.018 351.22C387.785 344.735 385.827 339.204 382.764 336.386L382.087 337.122C385.754 340.494 387.764 348.175 388.833 356.677C388.808 357.883 388.791 359.1 388.784 360.321C387.827 355.347 386.552 351.21 384.855 349.56C379.155 344.019 372.463 349.48 372.397 349.535L373.037 350.304C373.283 350.1 379.108 345.367 384.158 350.278C386.374 352.433 387.847 359.464 388.811 366.882C388.935 375.77 389.377 384.128 389.68 388.991C389.642 389.755 389.614 390.195 389.611 390.237L389.76 390.247C389.869 391.93 389.95 393.01 389.97 393.285L390.854 393.218C390.902 393.831 390.939 394.24 390.952 394.374L391.947 394.276C391.94 394.202 391.803 392.717 391.686 390.272L391.949 390.274C391.951 389.988 392.281 361.568 399.795 357.262C401.33 356.383 402.752 356.235 404.146 356.811C408.549 358.63 410.895 367.05 410.918 367.135L411.883 366.871C411.785 366.507 409.386 357.896 404.531 355.888Z" fill="#263238"/>
<path d="M378.519 356.802C374.151 357.108 370.768 363.016 370.625 363.267L371.496 363.759C371.528 363.702 374.758 358.066 378.59 357.799C380.204 357.696 381.735 358.567 383.15 360.414C389.051 368.117 387.863 390.021 387.851 390.242L388.849 390.299C388.902 389.385 390.07 367.803 383.944 359.807C382.31 357.675 380.476 356.656 378.519 356.802Z" fill="#263238"/>
<g opacity="0.2">
<path d="M404.531 355.888C402.855 355.198 401.096 355.367 399.3 356.396C394.455 359.172 392.421 370.548 391.567 379.367C391.884 366.819 393.945 349.457 402.173 340.012L401.419 339.356C394.533 347.259 391.849 360.225 390.916 371.594C390.793 366.755 390.489 361.511 389.851 356.517C390.07 345.812 390.999 336.088 393.447 332.777L392.643 332.183C390.483 335.104 389.441 342.519 389.018 351.22C387.785 344.735 385.827 339.204 382.764 336.386L382.087 337.122C385.754 340.494 387.764 348.175 388.833 356.677C388.808 357.883 388.791 359.1 388.784 360.321C387.827 355.347 386.552 351.21 384.855 349.56C379.155 344.019 372.463 349.48 372.397 349.535L373.037 350.304C373.283 350.1 379.108 345.367 384.158 350.278C386.374 352.433 387.847 359.464 388.811 366.882C388.935 375.77 389.377 384.128 389.68 388.991C389.642 389.755 389.614 390.195 389.611 390.237L389.76 390.247C389.869 391.93 389.95 393.01 389.97 393.285L390.854 393.218C390.902 393.831 390.939 394.24 390.952 394.374L391.947 394.276C391.94 394.202 391.803 392.717 391.686 390.272L391.949 390.274C391.951 389.988 392.281 361.568 399.795 357.262C401.33 356.383 402.752 356.235 404.146 356.811C408.549 358.63 410.895 367.05 410.918 367.135L411.883 366.871C411.785 366.507 409.386 357.896 404.531 355.888Z" fill="white"/>
<path d="M378.519 356.802C374.151 357.108 370.768 363.016 370.625 363.267L371.496 363.759C371.528 363.702 374.758 358.066 378.59 357.799C380.204 357.696 381.735 358.567 383.15 360.414C389.051 368.117 387.863 390.021 387.851 390.242L388.849 390.299C388.902 389.385 390.07 367.803 383.944 359.807C382.31 357.675 380.476 356.656 378.519 356.802Z" fill="white"/>
</g>
<path d="M406.272 361.046C406.272 361.046 402.357 362.489 403.521 365.897C404.685 369.304 417.064 374.912 417.064 374.912C417.064 374.912 422.249 370.16 417.487 362.431C412.726 354.702 406.377 358.607 406.272 361.046Z" fill="#263238"/>
<path d="M389.252 354.559C389.252 354.559 393.421 354.385 393.658 357.977C393.895 361.57 384.627 371.51 384.627 371.51C384.627 371.51 378.013 369.119 379.433 360.153C380.854 351.188 388.216 352.349 389.252 354.559Z" fill="#263238"/>
<path d="M385.723 337.361C385.723 337.361 388.502 337.063 388.279 335.37C388.055 333.677 377.474 329.32 371.232 336.366C371.232 336.366 375.229 343.232 381.008 343.322C386.785 343.411 385.723 337.361 385.723 337.361Z" fill="#263238"/>
<path d="M390.902 333.25C390.902 333.25 388.385 334.467 387.68 332.912C386.975 331.357 393.65 322.063 402.675 324.741C402.675 324.741 402.914 332.682 398.058 335.815C393.202 338.948 390.902 333.25 390.902 333.25Z" fill="#263238"/>
<path d="M377.742 359.676C377.742 359.676 379.66 358.127 377.59 357.371C375.52 356.615 365.362 356.83 365.256 366.892C365.256 366.892 377.086 368.858 378.551 365.025C380.016 361.193 377.742 359.676 377.742 359.676Z" fill="#263238"/>
<path d="M401.867 337.109C401.867 337.109 399.949 335.56 402.019 334.804C404.089 334.048 414.247 334.263 414.352 344.325C414.352 344.325 402.522 346.291 401.057 342.458C399.593 338.625 401.867 337.109 401.867 337.109Z" fill="#263238"/>
<path d="M395.613 345.214C395.613 345.214 395.444 343.331 396.964 344.069C398.484 344.807 403.779 350.52 398.29 355.941C398.29 355.941 390.901 350.469 392.233 347.619C393.565 344.769 395.613 345.214 395.613 345.214Z" fill="#263238"/>
<path d="M376.028 347.897C376.028 347.897 377.175 346.394 375.495 346.208C373.816 346.022 366.29 348.031 368.042 355.544C368.042 355.544 377.211 354.855 377.604 351.734C377.997 348.613 376.028 347.897 376.028 347.897Z" fill="#263238"/>
<path d="M407.003 418.162H375.544L372.15 383.719H410.397L407.003 418.162Z" fill="#FFA71E"/>
<path opacity="0.2" d="M407.003 418.162H375.544L372.15 383.719H410.397L407.003 418.162Z" fill="white"/>
<path d="M412.077 379.919H370.471V387.519H412.077V379.919Z" fill="#FFA71E"/>
<path opacity="0.5" d="M412.077 379.919H370.471V387.519H412.077V379.919Z" fill="white"/>
</svg>
