<svg width="750" height="500" viewBox="0 0 750 500" fill="none" xmlns="http://www.w3.org/2000/svg">
<path d="M531.928 327.744C534.453 310.922 552.607 298.188 569.284 301.54C569.591 290.252 575.333 279.907 584.665 274.857C593.997 269.806 606.268 270.76 614.815 277.048C623.362 283.336 626.598 295.384 624.945 304.221C633.055 296.373 645.944 293.928 656.364 298.261C666.784 302.594 674.139 313.458 674.293 324.742C682.161 320.663 692.313 321.449 699.459 326.693C706.604 331.936 710.401 341.385 708.87 350.114C723.04 348.761 735.586 365.263 730.494 378.555H501.049C503.16 348.269 512.566 329.883 531.928 327.744Z" fill="#EBEBEB"/>
<path d="M72.024 326.78C74.549 309.958 92.703 297.224 109.38 300.576C109.687 289.288 115.429 278.943 124.761 273.893C134.093 268.843 146.364 269.796 154.911 276.084C163.458 282.372 166.694 294.42 165.041 303.257C173.151 295.409 186.04 292.964 196.46 297.297C206.88 301.63 214.235 312.494 214.389 323.778C222.257 319.699 232.409 320.485 239.554 325.729C246.699 330.972 250.496 340.421 248.965 349.15C263.135 347.797 275.681 364.298 270.589 377.591H41.145C43.257 347.305 52.662 328.919 72.024 326.78Z" fill="#EBEBEB"/>
<path d="M257.981 105.398C258.35 102.717 254.567 100.512 251.724 100.283C250.368 100.174 248.96 100.381 247.676 99.933C244.893 98.963 243.782 95.368 241.067 94.223C239.037 93.367 236.7 94.129 234.732 95.119C232.764 96.109 230.819 97.356 228.621 97.497C226.709 97.619 224.632 96.91 222.959 97.844C221.712 98.54 221.059 99.977 219.91 100.824C218.786 101.653 217.319 101.829 215.924 101.905C214.529 101.981 213.085 101.995 211.815 102.577C210.545 103.159 209.494 104.502 209.758 105.873L257.981 105.398Z" fill="#F5F5F5"/>
<path d="M104.359 150.781C104.728 148.101 100.945 145.895 98.102 145.666C96.746 145.557 95.338 145.764 94.054 145.316C91.271 144.346 90.16 140.751 87.445 139.606C85.415 138.75 83.078 139.512 81.11 140.502C79.142 141.492 77.198 142.739 74.999 142.88C73.087 143.002 71.01 142.293 69.337 143.228C68.09 143.924 67.437 145.361 66.288 146.208C65.164 147.037 63.697 147.213 62.302 147.289C60.907 147.365 59.463 147.379 58.193 147.961C56.923 148.542 55.872 149.886 56.136 151.257L104.359 150.781Z" fill="#EBEBEB"/>
<path d="M569.831 89.34C570.166 86.907 566.732 84.905 564.151 84.697C562.92 84.598 561.642 84.786 560.476 84.38C557.95 83.5 556.941 80.236 554.477 79.197C552.634 78.42 550.513 79.112 548.727 80.011C546.941 80.91 545.175 82.041 543.18 82.169C541.444 82.28 539.559 81.636 538.04 82.484C536.908 83.116 536.315 84.42 535.272 85.189C534.251 85.942 532.92 86.101 531.654 86.17C530.388 86.239 529.077 86.252 527.924 86.78C526.771 87.308 525.817 88.527 526.057 89.772L569.831 89.34Z" fill="#EBEBEB"/>
<path d="M681.758 128.717C682.324 124.607 676.523 121.225 672.164 120.874C670.085 120.706 667.926 121.024 665.957 120.338C661.69 118.851 659.986 113.339 655.823 111.583C652.71 110.27 649.127 111.439 646.11 112.958C643.093 114.477 640.111 116.388 636.74 116.604C633.808 116.792 630.623 115.704 628.058 117.137C626.146 118.204 625.145 120.407 623.383 121.707C621.659 122.978 619.41 123.248 617.272 123.364C615.133 123.48 612.919 123.502 610.971 124.394C609.023 125.286 607.412 127.345 607.816 129.449L681.758 128.717Z" fill="#E0E0E0"/>
<path d="M631.995 187.48C632.526 183.622 627.081 180.449 622.99 180.119C621.039 179.962 619.012 180.26 617.164 179.616C613.159 178.22 611.56 173.047 607.652 171.399C604.731 170.167 601.367 171.264 598.535 172.689C595.703 174.114 592.904 175.908 589.74 176.111C586.988 176.287 583.999 175.266 581.591 176.611C579.797 177.613 578.857 179.68 577.203 180.9C575.585 182.093 573.475 182.346 571.467 182.455C569.459 182.564 567.381 182.585 565.553 183.422C563.725 184.259 562.213 186.192 562.592 188.166L631.995 187.48Z" fill="#F5F5F5"/>
<path d="M57.22 378.145C55.079 373.139 55.767 364.234 60.14 360.991C64.513 357.748 71.108 357.947 75.277 361.449C76.363 355.866 80.689 351.035 86.119 349.344C91.549 347.652 97.854 349.171 101.918 353.149C102.78 344.716 111.932 338.145 120.198 340.026C128.464 341.907 133.872 351.791 131 359.767C139.311 361.447 144.823 369.84 143.118 378.146H57.22V378.145Z" fill="#455A64"/>
<path d="M721.192 378.145C723.333 373.139 722.645 364.234 718.272 360.991C713.899 357.748 707.304 357.947 703.135 361.449C702.05 355.866 697.723 351.035 692.293 349.344C686.863 347.652 680.558 349.171 676.494 353.149C675.632 344.716 666.48 338.145 658.214 340.026C649.948 341.907 644.54 351.791 647.412 359.767C639.101 361.447 633.589 369.84 635.294 378.146H721.192V378.145Z" fill="#455A64"/>
<path d="M256.515 438.499C256.438 438.524 255.96 437.183 255.108 435.052C254.258 432.921 253.001 430.01 251.397 426.902C249.788 423.795 248.14 421.086 246.892 419.16C245.646 417.233 244.829 416.068 244.894 416.02C244.923 415.998 245.16 416.265 245.565 416.767C245.973 417.266 246.533 418.013 247.198 418.955C248.529 420.837 250.24 423.535 251.86 426.663C253.475 429.793 254.688 432.748 255.453 434.922C255.837 436.009 256.122 436.897 256.294 437.519C256.468 438.14 256.549 438.488 256.515 438.499Z" fill="#263238"/>
<path d="M252.985 407.135C253.021 407.133 253.087 407.572 253.176 408.367C253.282 409.267 253.415 410.392 253.572 411.729C253.929 414.563 254.543 418.463 255.528 422.707C256.519 426.951 257.691 430.722 258.623 433.422C259.072 434.691 259.45 435.759 259.752 436.613C260.024 437.366 260.158 437.789 260.125 437.803C260.092 437.817 259.894 437.42 259.564 436.689C259.23 435.96 258.787 434.887 258.276 433.547C257.252 430.869 256.017 427.093 255.02 422.825C254.03 418.558 253.469 414.625 253.205 411.77C253.072 410.342 252.995 409.184 252.972 408.382C252.947 407.581 252.95 407.137 252.985 407.135Z" fill="#263238"/>
<path d="M264.4 418.741C264.481 418.763 264.224 419.83 263.955 421.573C263.683 423.315 263.448 425.744 263.535 428.429C263.629 431.115 264.026 433.523 264.414 435.242C264.8 436.963 265.128 438.01 265.048 438.038C264.992 438.059 264.539 437.05 264.056 435.331C263.572 433.616 263.108 431.175 263.013 428.446C262.925 425.718 263.223 423.252 263.591 421.508C263.958 419.761 264.343 418.724 264.4 418.741Z" fill="#263238"/>
<path d="M239.916 426.443C239.923 426.408 240.192 426.434 240.677 426.512C241.164 426.58 241.856 426.76 242.687 427.051C243.522 427.335 244.476 427.787 245.48 428.384C246.471 429.002 247.503 429.778 248.469 430.722C249.423 431.679 250.21 432.703 250.837 433.688C251.444 434.686 251.906 435.636 252.198 436.468C252.498 437.296 252.685 437.986 252.757 438.472C252.84 438.957 252.869 439.226 252.834 439.232C252.74 439.252 252.529 438.189 251.856 436.603C251.527 435.807 251.044 434.901 250.432 433.945C249.8 433.003 249.026 432.019 248.101 431.091C247.164 430.176 246.173 429.413 245.224 428.79C244.262 428.188 243.351 427.714 242.552 427.394C240.962 426.737 239.897 426.537 239.916 426.443Z" fill="#263238"/>
<path d="M617.259 450.545C617.183 450.57 616.704 449.229 615.853 447.098C615.003 444.967 613.746 442.056 612.142 438.948C610.533 435.841 608.885 433.132 607.638 431.206C606.392 429.279 605.575 428.114 605.64 428.066C605.669 428.044 605.906 428.311 606.311 428.813C606.719 429.312 607.279 430.059 607.944 431.001C609.276 432.883 610.986 435.581 612.606 438.71C614.221 441.84 615.434 444.795 616.199 446.969C616.583 448.056 616.868 448.944 617.04 449.566C617.213 450.186 617.293 450.534 617.259 450.545Z" fill="#263238"/>
<path d="M613.73 419.181C613.766 419.179 613.832 419.618 613.921 420.413C614.027 421.313 614.16 422.438 614.317 423.775C614.674 426.609 615.288 430.509 616.273 434.753C617.264 438.997 618.436 442.768 619.368 445.468C619.817 446.737 620.195 447.805 620.498 448.659C620.769 449.411 620.904 449.835 620.871 449.849C620.838 449.863 620.64 449.466 620.31 448.735C619.976 448.006 619.533 446.933 619.022 445.593C617.998 442.915 616.763 439.139 615.766 434.871C614.776 430.604 614.215 426.671 613.951 423.816C613.818 422.388 613.741 421.23 613.718 420.428C613.691 419.627 613.694 419.183 613.73 419.181Z" fill="#263238"/>
<path d="M625.144 430.786C625.225 430.808 624.968 431.875 624.699 433.618C624.427 435.36 624.192 437.789 624.279 440.474C624.373 443.159 624.77 445.568 625.158 447.287C625.544 449.008 625.872 450.055 625.792 450.083C625.736 450.104 625.283 449.095 624.8 447.376C624.316 445.661 623.852 443.22 623.757 440.491C623.669 437.763 623.967 435.297 624.335 433.553C624.703 431.806 625.087 430.77 625.144 430.786Z" fill="#263238"/>
<path d="M600.66 438.488C600.666 438.453 600.936 438.479 601.421 438.557C601.908 438.625 602.6 438.805 603.431 439.096C604.266 439.38 605.22 439.832 606.224 440.429C607.215 441.047 608.247 441.823 609.213 442.767C610.167 443.724 610.953 444.748 611.582 445.733C612.189 446.731 612.651 447.681 612.943 448.513C613.243 449.341 613.43 450.031 613.502 450.517C613.585 451.002 613.614 451.271 613.579 451.277C613.485 451.297 613.274 450.234 612.601 448.648C612.272 447.852 611.789 446.946 611.177 445.99C610.545 445.048 609.771 444.064 608.846 443.136C607.909 442.221 606.918 441.458 605.969 440.835C605.008 440.233 604.096 439.759 603.297 439.439C601.706 438.783 600.641 438.583 600.66 438.488Z" fill="#263238"/>
<path d="M450.356 413.462C450.407 413.555 448.917 414.301 446.813 415.931C445.755 416.737 444.585 417.808 443.384 419.087C442.208 420.39 441.017 421.914 439.952 423.637C438.908 425.374 438.1 427.132 437.482 428.775C436.896 430.429 436.481 431.961 436.25 433.27C435.767 435.887 435.788 437.553 435.682 437.55C435.646 437.55 435.627 437.136 435.625 436.383C435.617 436.006 435.624 435.545 435.682 435.013C435.733 434.481 435.759 433.869 435.888 433.207C436.075 431.871 436.459 430.304 437.031 428.612C437.635 426.932 438.445 425.134 439.508 423.365C440.592 421.609 441.818 420.065 443.034 418.758C444.275 417.474 445.491 416.414 446.592 415.635C447.121 415.217 447.653 414.913 448.102 414.623C448.548 414.328 448.955 414.11 449.293 413.945C449.963 413.603 450.34 413.43 450.356 413.462Z" fill="#263238"/>
<path d="M445.773 425.18C445.882 425.308 443.553 426.766 442.021 429.647C440.441 432.503 440.49 435.251 440.323 435.229C440.264 435.231 440.163 434.557 440.276 433.465C440.384 432.377 440.764 430.88 441.564 429.399C442.369 427.921 443.417 426.786 444.27 426.102C445.122 425.413 445.742 425.129 445.773 425.18Z" fill="#263238"/>
<path d="M422.911 421.334C422.935 421.307 423.147 421.462 423.514 421.768C423.887 422.067 424.379 422.557 424.936 423.205C426.054 424.496 427.338 426.544 428.114 429.055C428.88 431.57 428.966 433.986 428.764 435.682C428.667 436.532 428.534 437.213 428.393 437.669C428.261 438.128 428.172 438.375 428.137 438.366C428.046 438.344 428.299 437.323 428.397 435.651C428.501 433.983 428.359 431.649 427.616 429.207C426.862 426.769 425.671 424.758 424.649 423.435C423.63 422.107 422.848 421.403 422.911 421.334Z" fill="#263238"/>
<path d="M495.54 170.802H314.77V193.809H495.54V170.802Z" fill="#455A64"/>
<path d="M514.893 193.809H295.062V216.816H514.893V193.809Z" fill="#455A64"/>
<path d="M527.223 216.816H281.858V239.823H527.223V216.816Z" fill="#455A64"/>
<path d="M542.684 239.823H267.154V262.83H542.684V239.823Z" fill="#455A64"/>
<path d="M561.552 263.11H250.938V286.117H561.552V263.11Z" fill="#455A64"/>
<path d="M576.806 286.117H231.872V309.124H576.806V286.117Z" fill="#455A64"/>
<path d="M592.522 309.124H216.433V332.131H592.522V309.124Z" fill="#455A64"/>
<path d="M608.595 332.131H200.993V355.138H608.595V332.131Z" fill="#455A64"/>
<path d="M625.74 355.138H183.083V378.145H625.74V355.138Z" fill="#455A64"/>
<path d="M494.558 171.078C494.558 171.222 454.383 171.338 404.835 171.338C355.271 171.338 315.104 171.221 315.104 171.078C315.104 170.934 355.271 170.818 404.835 170.818C454.383 170.818 494.558 170.935 494.558 171.078Z" fill="#263238"/>
<path d="M514.6 193.809C514.6 193.953 465.451 194.069 404.836 194.069C344.2 194.069 295.061 193.952 295.061 193.809C295.061 193.665 344.2 193.549 404.836 193.549C465.451 193.548 514.6 193.665 514.6 193.809Z" fill="#263238"/>
<path d="M527.223 216.816C527.223 216.96 472.4 217.076 404.788 217.076C337.153 217.076 282.341 216.959 282.341 216.816C282.341 216.673 337.152 216.556 404.788 216.556C472.4 216.556 527.223 216.672 527.223 216.816Z" fill="#263238"/>
<path d="M543.22 239.894C543.22 240.038 481.709 240.154 405.85 240.154C329.964 240.154 268.467 240.037 268.467 239.894C268.467 239.75 329.964 239.634 405.85 239.634C481.709 239.634 543.22 239.75 543.22 239.894Z" fill="#263238"/>
<path d="M561.553 263.11C561.553 263.254 491.853 263.37 405.894 263.37C319.905 263.37 250.22 263.253 250.22 263.11C250.22 262.967 319.905 262.85 405.894 262.85C491.853 262.849 561.553 262.966 561.553 263.11Z" fill="#263238"/>
<path d="M576.806 286.117C576.806 286.261 500.003 286.377 405.283 286.377C310.53 286.377 233.744 286.26 233.744 286.117C233.744 285.973 310.531 285.857 405.283 285.857C500.003 285.856 576.806 285.973 576.806 286.117Z" fill="#263238"/>
<path d="M592.522 309.124C592.522 309.268 508.235 309.384 404.285 309.384C300.299 309.384 216.029 309.267 216.029 309.124C216.029 308.981 300.298 308.864 404.285 308.864C508.234 308.863 592.522 308.98 592.522 309.124Z" fill="#263238"/>
<path d="M608.595 332.131C608.595 332.275 517.343 332.391 404.804 332.391C292.226 332.391 200.993 332.275 200.993 332.131C200.993 331.987 292.226 331.871 404.804 331.871C517.343 331.871 608.595 331.987 608.595 332.131Z" fill="#263238"/>
<path d="M625.74 355.138C625.74 355.282 526.55 355.398 404.222 355.398C281.851 355.398 182.683 355.281 182.683 355.138C182.683 354.994 281.851 354.878 404.222 354.878C526.55 354.878 625.74 354.994 625.74 355.138Z" fill="#263238"/>
<path d="M382.068 170.802C380.537 170.802 338.683 378.146 338.683 378.146H353.485L389.724 170.802H382.068Z" fill="#263238"/>
<path d="M420.576 170.802L456.808 378.145H472.041L426.752 170.802H420.576Z" fill="#263238"/>
<path d="M389.724 170.802L353.485 378.145H456.808L420.576 170.802H389.724Z" fill="#455A64"/>
<path d="M455.454 373.593C455.454 373.737 432.714 373.853 404.67 373.853C376.616 373.853 353.881 373.736 353.881 373.593C353.881 373.449 376.616 373.333 404.67 373.333C432.714 373.332 455.454 373.449 455.454 373.593Z" fill="#263238"/>
<path d="M455.454 365.508C455.454 365.652 432.714 365.768 404.67 365.768C376.616 365.768 353.881 365.652 353.881 365.508C353.881 365.364 376.616 365.248 404.67 365.248C432.714 365.248 455.454 365.365 455.454 365.508Z" fill="#263238"/>
<path d="M455.454 357.424C455.454 357.568 432.714 357.684 404.67 357.684C376.616 357.684 353.881 357.567 353.881 357.424C353.881 357.28 376.616 357.164 404.67 357.164C432.714 357.164 455.454 357.28 455.454 357.424Z" fill="#263238"/>
<path d="M455.454 349.34C455.454 349.484 432.714 349.6 404.67 349.6C376.616 349.6 353.881 349.483 353.881 349.34C353.881 349.196 376.616 349.08 404.67 349.08C432.714 349.079 455.454 349.196 455.454 349.34Z" fill="#263238"/>
<path d="M455.454 341.255C455.454 341.399 432.714 341.515 404.67 341.515C376.616 341.515 353.881 341.398 353.881 341.255C353.881 341.111 376.616 340.995 404.67 340.995C432.714 340.995 455.454 341.112 455.454 341.255Z" fill="#263238"/>
<path d="M455.454 333.171C455.454 333.315 432.714 333.431 404.67 333.431C376.616 333.431 353.881 333.314 353.881 333.171C353.881 333.027 376.616 332.911 404.67 332.911C432.714 332.911 455.454 333.027 455.454 333.171Z" fill="#263238"/>
<path d="M455.454 325.087C455.454 325.231 432.714 325.347 404.67 325.347C376.616 325.347 353.881 325.23 353.881 325.087C353.881 324.943 376.616 324.827 404.67 324.827C432.714 324.826 455.454 324.943 455.454 325.087Z" fill="#263238"/>
<path d="M455.454 317.002C455.454 317.146 432.714 317.262 404.67 317.262C376.616 317.262 353.881 317.145 353.881 317.002C353.881 316.859 376.616 316.742 404.67 316.742C432.714 316.742 455.454 316.859 455.454 317.002Z" fill="#263238"/>
<path d="M446.309 308.918C446.309 309.062 428.401 309.178 406.316 309.178C384.223 309.178 366.319 309.061 366.319 308.918C366.319 308.775 384.223 308.658 406.316 308.658C428.401 308.658 446.309 308.774 446.309 308.918Z" fill="#263238"/>
<path d="M446.309 302.285C446.309 302.429 428.401 302.545 406.316 302.545C384.223 302.545 366.319 302.428 366.319 302.285C366.319 302.142 384.223 302.025 406.316 302.025C428.401 302.024 446.309 302.141 446.309 302.285Z" fill="#263238"/>
<path d="M446.309 295.651C446.309 295.795 428.401 295.911 406.316 295.911C384.223 295.911 366.319 295.794 366.319 295.651C366.319 295.508 384.223 295.391 406.316 295.391C428.401 295.391 446.309 295.508 446.309 295.651Z" fill="#263238"/>
<path d="M446.309 289.018C446.309 289.162 428.401 289.278 406.316 289.278C384.223 289.278 366.319 289.161 366.319 289.018C366.319 288.875 384.223 288.758 406.316 288.758C428.401 288.758 446.309 288.874 446.309 289.018Z" fill="#263238"/>
<path d="M446.309 282.385C446.309 282.529 428.401 282.645 406.316 282.645C384.223 282.645 366.319 282.528 366.319 282.385C366.319 282.242 384.223 282.125 406.316 282.125C428.401 282.125 446.309 282.241 446.309 282.385Z" fill="#263238"/>
<path d="M446.309 275.752C446.309 275.896 428.401 276.012 406.316 276.012C384.223 276.012 366.319 275.895 366.319 275.752C366.319 275.609 384.223 275.492 406.316 275.492C428.401 275.491 446.309 275.608 446.309 275.752Z" fill="#263238"/>
<path d="M446.309 269.118C446.309 269.262 428.401 269.378 406.316 269.378C384.223 269.378 366.319 269.261 366.319 269.118C366.319 268.975 384.223 268.858 406.316 268.858C428.401 268.858 446.309 268.974 446.309 269.118Z" fill="#263238"/>
<path d="M446.309 262.485C446.309 262.629 428.401 262.745 406.316 262.745C384.223 262.745 366.319 262.628 366.319 262.485C366.319 262.341 384.223 262.225 406.316 262.225C428.401 262.225 446.309 262.341 446.309 262.485Z" fill="#263238"/>
<path d="M446.309 255.852C446.309 255.996 428.401 256.112 406.316 256.112C384.223 256.112 366.319 255.995 366.319 255.852C366.319 255.709 384.223 255.592 406.316 255.592C428.401 255.591 446.309 255.708 446.309 255.852Z" fill="#263238"/>
<path d="M439.54 249.218C439.54 249.362 423.927 249.478 404.672 249.478C385.41 249.478 369.8 249.361 369.8 249.218C369.8 249.075 385.41 248.958 404.672 248.958C423.927 248.958 439.54 249.075 439.54 249.218Z" fill="#263238"/>
<path d="M438.031 242.585C438.031 242.729 422.756 242.845 403.918 242.845C385.073 242.845 369.801 242.728 369.801 242.585C369.801 242.442 385.073 242.325 403.918 242.325C422.756 242.325 438.031 242.441 438.031 242.585Z" fill="#263238"/>
<path d="M437.26 235.952C437.26 236.096 422.503 236.212 404.303 236.212C386.097 236.212 371.343 236.095 371.343 235.952C371.343 235.809 386.097 235.692 404.303 235.692C422.503 235.691 437.26 235.808 437.26 235.952Z" fill="#263238"/>
<path d="M435.754 229.318C435.754 229.462 421.525 229.578 403.976 229.578C386.421 229.578 372.195 229.461 372.195 229.318C372.195 229.174 386.421 229.058 403.976 229.058C421.525 229.058 435.754 229.175 435.754 229.318Z" fill="#263238"/>
<path d="M434.798 222.685C434.798 222.829 421.104 222.945 404.215 222.945C387.32 222.945 373.629 222.828 373.629 222.685C373.629 222.541 387.32 222.425 404.215 222.425C421.104 222.425 434.798 222.541 434.798 222.685Z" fill="#263238"/>
<path d="M431.067 216.052C431.067 216.07 430.883 216.088 430.533 216.104C430.124 216.117 429.618 216.133 429.002 216.153C427.597 216.174 425.692 216.202 423.373 216.236C418.62 216.283 412.053 216.312 404.801 216.312C397.546 216.312 390.979 216.283 386.226 216.236C383.907 216.202 382.002 216.174 380.597 216.153C379.981 216.133 379.475 216.117 379.067 216.104C378.717 216.087 378.533 216.069 378.533 216.052C378.533 216.034 378.717 216.017 379.067 216C379.476 215.987 379.981 215.971 380.597 215.951C382.002 215.93 383.907 215.902 386.226 215.868C390.979 215.821 397.546 215.792 404.801 215.792C412.053 215.792 418.62 215.821 423.373 215.868C425.693 215.902 427.597 215.93 429.002 215.951C429.618 215.971 430.124 215.987 430.533 216C430.884 216.016 431.067 216.034 431.067 216.052Z" fill="#263238"/>
<path d="M429.064 209.419C429.064 209.563 418.205 209.679 404.813 209.679C391.416 209.679 380.559 209.562 380.559 209.419C380.559 209.275 391.416 209.159 404.813 209.159C418.205 209.158 429.064 209.275 429.064 209.419Z" fill="#263238"/>
<path d="M429.064 202.785C429.064 202.929 418.205 203.045 404.813 203.045C391.416 203.045 380.559 202.928 380.559 202.785C380.559 202.641 391.416 202.525 404.813 202.525C418.205 202.525 429.064 202.641 429.064 202.785Z" fill="#263238"/>
<path d="M427.869 196.152C427.869 196.296 416.824 196.412 403.203 196.412C389.577 196.412 378.534 196.295 378.534 196.152C378.534 196.008 389.577 195.892 403.203 195.892C416.824 195.892 427.869 196.008 427.869 196.152Z" fill="#263238"/>
<path d="M427.869 189.519C427.869 189.663 416.824 189.779 403.203 189.779C389.577 189.779 378.534 189.662 378.534 189.519C378.534 189.375 389.577 189.259 403.203 189.259C416.824 189.258 427.869 189.375 427.869 189.519Z" fill="#263238"/>
<path d="M429.064 182.885C429.064 183.029 418.205 183.145 404.813 183.145C391.416 183.145 380.559 183.028 380.559 182.885C380.559 182.741 391.416 182.625 404.813 182.625C418.205 182.625 429.064 182.742 429.064 182.885Z" fill="#263238"/>
<path d="M427.869 176.252C427.869 176.396 417.866 176.512 405.529 176.512C393.188 176.512 383.187 176.395 383.187 176.252C383.187 176.108 393.188 175.992 405.529 175.992C417.866 175.992 427.869 176.108 427.869 176.252Z" fill="#263238"/>
<path d="M448.383 112.056H363.663V170.802H448.383V112.056Z" fill="#455A64"/>
<path d="M451.345 139.384H361.283C360.626 139.384 360.094 138.852 360.094 138.195V137.499C360.094 136.842 360.626 136.31 361.283 136.31H451.345C452.002 136.31 452.534 136.842 452.534 137.499V138.195C452.534 138.852 452.002 139.384 451.345 139.384Z" fill="#455A64"/>
<path d="M451.345 124.965H361.283C360.626 124.965 360.094 124.433 360.094 123.776V123.08C360.094 122.423 360.626 121.891 361.283 121.891H451.345C452.002 121.891 452.534 122.423 452.534 123.08V123.776C452.534 124.432 452.002 124.965 451.345 124.965Z" fill="#455A64"/>
<path d="M413.217 145.01H397.075V170.801H413.217V145.01Z" fill="#263238"/>
<path d="M450.514 139.384C450.514 139.528 430.603 139.644 406.048 139.644C381.484 139.644 361.577 139.527 361.577 139.384C361.577 139.24 381.484 139.124 406.048 139.124C430.604 139.123 450.514 139.24 450.514 139.384Z" fill="#263238"/>
<path d="M450.514 136.498C450.514 136.642 430.603 136.759 406.048 136.759C381.484 136.759 361.577 136.642 361.577 136.498C361.577 136.354 381.484 136.238 406.048 136.238C430.604 136.238 450.514 136.354 450.514 136.498Z" fill="#263238"/>
<path d="M450.514 122.079C450.514 122.223 430.603 122.339 406.048 122.339C381.484 122.339 361.577 122.222 361.577 122.079C361.577 121.935 381.484 121.819 406.048 121.819C430.604 121.819 450.514 121.936 450.514 122.079Z" fill="#263238"/>
<path d="M450.514 125.153C450.514 125.297 430.603 125.413 406.048 125.413C381.484 125.413 361.577 125.296 361.577 125.153C361.577 125.009 381.484 124.893 406.048 124.893C430.604 124.893 450.514 125.009 450.514 125.153Z" fill="#263238"/>
<path d="M382.747 171.178C382.603 171.178 382.487 164.074 382.487 155.313C382.487 146.549 382.604 139.446 382.747 139.446C382.891 139.446 383.007 146.548 383.007 155.313C383.007 164.074 382.891 171.178 382.747 171.178Z" fill="#263238"/>
<path d="M426.667 171.283C426.523 171.283 426.407 164.132 426.407 155.313C426.407 146.491 426.523 139.341 426.667 139.341C426.811 139.341 426.927 146.491 426.927 155.313C426.927 164.132 426.81 171.283 426.667 171.283Z" fill="#263238"/>
<path d="M719.674 378.145C719.674 378.289 565.346 378.405 375.017 378.405C184.622 378.405 30.327 378.288 30.327 378.145C30.327 378.002 184.622 377.885 375.017 377.885C565.346 377.885 719.674 378.001 719.674 378.145Z" fill="#263238"/>
<path d="M202.293 185.641C202.293 185.641 219.25 188.082 227.567 186.98C235.884 185.878 241.175 185.001 241.175 185.001C241.175 185.001 250.348 181.388 256.961 180.195C263.574 179.003 282.164 174.419 282.164 174.419L284.614 184.375C284.614 184.375 253.834 197.879 245.123 200.169C236.412 202.459 209.477 210.64 199.473 206.87C189.469 203.1 202.293 185.641 202.293 185.641Z" fill="#E4897B"/>
<path d="M279.788 174.902L292.554 170.699L300.75 168.911L310.471 167.586C310.471 167.586 311.688 169.261 309.818 170.479C307.948 171.697 302.677 172.302 302.677 172.302C302.677 172.302 299.635 173.524 299.092 174.62C298.549 175.716 299.095 175.401 299.095 175.401C299.095 175.401 302.81 176.559 303.516 177.299C304.222 178.039 304.49 182.07 304.49 182.07L304.181 188.155C304.181 188.155 302.037 189.335 301.05 186.604L300.106 187.133C300.106 187.133 298.391 185.872 298.464 184.544L294.203 183.7C294.203 183.7 285.697 186.309 283.041 186.163C280.384 186.017 279.169 184.927 279.169 184.927L279.788 174.902Z" fill="#E4897B"/>
<path d="M291.798 175.443C291.444 176.23 291.774 177.189 292.369 177.814C292.964 178.439 293.775 178.803 294.564 179.152C295.996 179.784 297.427 180.417 298.859 181.049C299.336 181.26 299.857 181.515 300.047 182C300.266 182.56 299.924 183.217 299.42 183.545C298.483 184.156 297.247 183.861 296.173 183.546C293.598 182.791 291.023 182.035 288.448 181.28" fill="#E4897B"/>
<path d="M288.447 181.281C288.457 181.246 288.797 181.311 289.404 181.456C290.011 181.602 290.884 181.828 291.96 182.119C293.079 182.43 294.347 182.782 295.731 183.167C296.443 183.365 297.172 183.604 297.926 183.641C298.659 183.689 299.47 183.429 299.764 182.758C299.91 182.434 299.875 182.101 299.656 181.853C299.439 181.599 299.083 181.43 298.725 181.27C297.997 180.943 297.293 180.626 296.617 180.322C295.282 179.691 294.053 179.222 293.07 178.609C292.072 178 291.593 177.052 291.568 176.403C291.528 175.737 291.785 175.425 291.798 175.444C291.846 175.458 291.671 175.786 291.769 176.378C291.86 176.966 292.316 177.766 293.265 178.297C294.198 178.828 295.472 179.281 296.811 179.883C297.492 180.178 298.2 180.486 298.932 180.803C299.298 180.968 299.716 181.14 300.051 181.516C300.403 181.889 300.464 182.524 300.241 182.969C300.042 183.426 299.639 183.773 299.214 183.946C298.784 184.131 298.326 184.173 297.903 184.15C297.049 184.099 296.297 183.833 295.597 183.627C294.225 183.203 292.966 182.814 291.857 182.472C290.794 182.136 289.937 181.855 289.348 181.65C288.758 181.445 288.437 181.316 288.447 181.281Z" fill="#87544C"/>
<path d="M301.382 178.662C300.587 179.507 300.282 180.782 300.608 181.896C299.771 182.287 298.936 183.25 298.683 184.138C298.43 185.026 298.505 185.891 300.106 187.134L301.05 186.605C301.05 186.605 302.097 185.693 302.703 184.561C303.309 183.429 304.358 181.22 304.358 181.22" fill="#E4897B"/>
<path d="M304.357 181.219C304.411 181.245 304.162 181.87 303.698 182.906C303.463 183.424 303.186 184.044 302.845 184.744C302.463 185.452 301.914 186.14 301.214 186.793L301.198 186.808L301.171 186.823C300.87 186.994 300.553 187.174 300.23 187.358L300.082 187.442L299.947 187.336C299.607 187.07 299.257 186.773 298.949 186.404C298.611 186.001 298.335 185.484 298.319 184.931C298.306 184.387 298.464 183.902 298.687 183.477C299.15 182.645 299.806 182.038 300.519 181.708L300.408 181.954C300.122 180.843 300.436 179.91 300.742 179.381C301.061 178.839 301.36 178.638 301.381 178.662C301.42 178.696 301.186 178.95 300.951 179.486C300.724 180.01 300.51 180.878 300.805 181.837L300.855 182L300.694 182.083C300.102 182.386 299.508 182.969 299.123 183.705C298.938 184.067 298.816 184.498 298.831 184.908C298.847 185.318 299.051 185.714 299.349 186.072C299.617 186.395 299.942 186.676 300.261 186.93L299.977 186.909C300.302 186.73 300.621 186.554 300.925 186.387L300.883 186.417C301.539 185.826 302.095 185.17 302.468 184.536C302.807 183.902 303.122 183.311 303.414 182.765C303.956 181.771 304.304 181.194 304.357 181.219Z" fill="#87544C"/>
<path d="M297.767 180.171C297.629 180.114 297.827 179.359 297.919 178.424C298.021 177.489 297.983 176.71 298.13 176.683C298.265 176.651 298.547 177.455 298.437 178.478C298.334 179.501 297.892 180.23 297.767 180.171Z" fill="#87544C"/>
<path d="M154.844 65.505C151.339 65.549 150.794 65.825 147.373 66.593C143.953 67.361 140.612 68.915 138.289 71.54C135.436 74.764 134.421 79.21 134.009 83.495C133.503 88.755 133.749 94.053 133.753 99.337C133.754 101.803 133.618 104.499 131.979 106.342C130.487 108.019 128.032 108.631 126.651 110.4C124.777 112.8 125.576 116.236 125.207 119.258C124.763 122.89 122.544 126.08 121.801 129.663C121.055 133.263 121.847 136.982 122.636 140.573C122.855 141.569 123.096 142.61 123.76 143.384C124.492 144.237 125.637 144.631 126.754 144.752C129.427 145.042 132.081 143.972 134.342 142.516C136.603 141.06 138.587 139.214 140.802 137.688C145.745 134.284 151.723 132.577 157.709 132.142C163.695 131.707 169.711 132.492 175.583 133.736C177.603 134.164 179.947 134.573 181.533 133.251C183.203 131.859 183.122 129.315 182.895 127.153C182.385 122.277 181.77 117.126 178.787 113.235C177.332 111.338 175.264 109.585 175.186 107.195C175.123 105.266 176.426 103.533 176.589 101.61C176.754 99.662 175.744 97.834 175.245 95.944C174.272 92.251 175.268 88.351 175.158 84.534C175.008 79.352 172.703 74.265 168.905 70.735C165.107 67.206 159.865 65.279 154.686 65.508" fill="#263238"/>
<path d="M126.765 123.881C126.765 123.881 126.989 119.793 129.736 118.208C132.482 116.624 143.165 112.804 143.165 112.804L143.015 106.198L160.976 112.197C160.976 112.197 167.339 114.723 171.247 114.934C175.155 115.145 180.12 118.824 180.436 121.843L172.831 131.623L176.105 169.015L133.96 164.79L126.765 123.881Z" fill="#E4897B"/>
<path d="M136.516 115.284C140.372 121.281 145.917 126.841 153.021 126.234C154.21 126.132 155.396 126.002 156.547 125.856C162.699 125.074 167.564 120.264 168.473 114.13L172.666 115.072L183.226 173.645C183.226 173.645 136.688 179.488 136.516 179.022C128.194 156.485 138.179 131.118 138.179 131.118C135.786 123.16 132.367 119.977 130.823 117.582L136.516 115.284Z" fill="#FFA71E"/>
<path d="M180.436 121.843C180.436 121.843 184.575 165.308 182.77 171.492C180.964 177.676 176.047 168.56 176.047 168.56L173.85 129.79C173.85 129.79 177.585 121.359 180.436 121.843Z" fill="#E4897B"/>
<path d="M171.366 95.018C172.644 91.157 174.555 84.473 173.853 80.467C173.151 76.461 171.112 72.62 167.879 70.153C163.447 66.77 157.39 66.329 151.879 67.179C148.107 67.761 144.231 68.997 141.647 71.806C139.99 73.607 138.991 75.932 138.428 78.314C137.865 80.695 137.712 83.152 137.561 85.594C137.47 87.068 137.855 90.174 138.683 91.619" fill="#FFA71E"/>
<path d="M139.013 90.645C139.013 90.645 137.417 76.907 146.333 71.616C155.057 66.438 164.163 68.397 167.396 72.562C173.639 80.606 172.086 86.218 172.086 86.218L140.895 93.513L139.013 90.645Z" fill="#263238"/>
<path d="M172.056 85.915C172.056 85.838 172.055 85.761 172.054 85.684C171.98 77.745 165.524 71.222 157.585 71.291C157.2 71.294 156.807 71.305 156.407 71.324C155.764 71.354 155.143 71.419 154.545 71.512C147.654 72.587 142.654 78.666 142.557 85.64C142.478 91.317 142.43 98.879 142.692 101.127L142.996 114.902C142.985 120.014 146.99 124.234 152.096 124.49C157.465 124.759 162.004 120.558 162.151 115.185L162.274 110.7C168.2 110.089 171.07 104.462 171.638 97.654C171.939 94.031 172.109 93.757 172.056 85.915Z" fill="#E4897B"/>
<path d="M142.822 90.537C142.667 90.464 136.526 88.443 136.516 94.777C136.506 101.111 142.867 99.814 142.878 99.633C142.889 99.451 142.822 90.537 142.822 90.537Z" fill="#E4897B"/>
<path d="M140.947 97.23C140.919 97.209 140.836 97.307 140.65 97.392C140.468 97.475 140.155 97.532 139.825 97.408C139.156 97.161 138.594 96.098 138.566 94.957C138.551 94.38 138.672 93.832 138.877 93.378C139.071 92.915 139.371 92.592 139.708 92.532C140.043 92.455 140.282 92.657 140.359 92.836C140.444 93.013 140.403 93.14 140.437 93.15C140.455 93.166 140.573 93.044 140.522 92.783C140.496 92.657 140.422 92.508 140.273 92.386C140.121 92.262 139.898 92.199 139.663 92.224C139.175 92.257 138.734 92.706 138.509 93.204C138.257 93.705 138.107 94.322 138.124 94.969C138.163 96.245 138.814 97.441 139.729 97.707C140.174 97.824 140.546 97.69 140.739 97.541C140.936 97.383 140.969 97.241 140.947 97.23Z" fill="#9B665C"/>
<path d="M169.277 88.005C169.1 88.179 168.082 87.371 166.599 87.326C165.118 87.259 164.005 87.985 163.85 87.798C163.774 87.715 163.958 87.397 164.444 87.067C164.922 86.739 165.729 86.432 166.652 86.467C167.575 86.503 168.341 86.869 168.776 87.232C169.221 87.597 169.364 87.927 169.277 88.005Z" fill="#263238"/>
<path d="M155.421 88.193C155.244 88.367 154.224 87.559 152.743 87.514C151.263 87.447 150.148 88.173 149.993 87.986C149.917 87.903 150.1 87.585 150.588 87.256C151.066 86.928 151.873 86.621 152.796 86.655C153.72 86.691 154.485 87.057 154.92 87.42C155.362 87.785 155.507 88.116 155.421 88.193Z" fill="#263238"/>
<path d="M155.253 83.568C155.121 83.943 153.88 83.922 152.502 84.232C151.114 84.508 150.029 85.022 149.707 84.743C149.561 84.606 149.671 84.261 150.081 83.869C150.485 83.479 151.209 83.07 152.11 82.879C153.011 82.689 153.874 82.761 154.445 82.945C155.022 83.128 155.307 83.389 155.253 83.568Z" fill="#263238"/>
<path d="M163.963 82.829C164.358 82.45 165.811 82.405 167.208 82.729C168.605 83.053 169.417 83.622 169.022 84C168.627 84.379 167.174 84.423 165.777 84.1C164.38 83.776 163.568 83.207 163.963 82.829Z" fill="#263238"/>
<path d="M157.978 100.841C158 100.928 157.795 101.081 157.4 101.123C157.014 101.167 156.433 101.064 155.941 100.672C155.45 100.278 155.222 99.734 155.181 99.347C155.135 98.953 155.24 98.72 155.329 98.722C155.517 98.717 155.649 99.567 156.37 100.135C157.083 100.713 157.942 100.656 157.978 100.841Z" fill="#263238"/>
<path d="M162.272 110.701C162.272 110.701 154.682 110.625 152.924 109.269C152.924 109.269 154.172 112.977 162.217 112.798L162.272 110.701Z" fill="#9B665C"/>
<path d="M166.324 90.563C166.229 91.228 166.714 91.856 167.406 91.968C168.097 92.08 168.735 91.633 168.83 90.968C168.925 90.304 168.44 89.674 167.75 89.562C167.057 89.451 166.419 89.898 166.324 90.563Z" fill="#263238"/>
<path d="M152.722 90.563C152.627 91.228 153.111 91.856 153.804 91.968C154.495 92.08 155.133 91.633 155.228 90.968C155.323 90.303 154.838 89.674 154.147 89.562C153.455 89.451 152.817 89.898 152.722 90.563Z" fill="#263238"/>
<path d="M159.415 96.289C159.442 96.198 159.86 96.294 160.492 96.204C160.649 96.181 160.819 96.145 160.995 96.091C161.159 96.039 161.382 95.957 161.49 95.877C161.545 95.831 161.539 95.82 161.539 95.805C161.541 95.783 161.52 95.703 161.473 95.6C161.376 95.374 161.276 95.141 161.174 94.903C160.37 92.983 159.846 91.373 160.003 91.307C160.161 91.241 160.94 92.744 161.744 94.664C161.842 94.905 161.939 95.139 162.032 95.368C162.077 95.49 162.145 95.644 162.126 95.86C162.108 96.085 161.941 96.272 161.81 96.348C161.674 96.435 161.551 96.472 161.443 96.507C161.332 96.542 161.222 96.569 161.115 96.589C160.901 96.629 160.699 96.644 160.516 96.64C159.777 96.62 159.386 96.356 159.415 96.289Z" fill="#263238"/>
<path d="M167.747 72.044C164.143 69.376 157.795 68.105 153.364 69.084C148.933 70.063 144.73 74.413 142.843 78.394C140.844 82.613 141.086 87.501 141.978 92.058C142.126 92.813 142.41 93.697 143.176 93.912C143.725 94.067 144.326 93.782 144.692 93.359C145.058 92.936 145.24 92.396 145.413 91.871C146.121 89.728 146.828 87.585 147.535 85.443C147.885 84.381 148.272 83.265 149.142 82.53C149.641 82.108 150.261 81.848 150.848 81.549C154.548 79.666 157.166 75.937 157.601 71.93C157.999 74.513 159.791 76.86 162.233 77.997C163.683 78.672 165.371 78.966 166.551 80.021C167.939 81.261 169.364 83.289 169.948 85.023C170.585 86.913 171.637 89.679 172.037 92.235C172.211 90.547 172.806 86.711 172.98 85.023C172.982 85.025 174.029 76.696 167.747 72.044Z" fill="#263238"/>
<path d="M174.57 450.492L175.213 484.388L134.834 485.439C134.974 481.405 155.671 472.774 155.671 472.774L154.406 451.074L174.57 450.492Z" fill="#FFA71E"/>
<g opacity="0.6">
<path d="M168.113 470.622C168.9 470.825 169.462 471.728 169.3 472.558C169.138 473.387 168.264 473.992 167.473 473.804C166.683 473.616 165.977 472.552 166.226 471.748C166.476 470.943 167.54 470.291 168.264 470.672" fill="white"/>
</g>
<g opacity="0.6">
<path d="M175.213 484.389L175.02 480.975L136.377 483.259C136.377 483.259 134.598 484.123 134.833 485.44L175.213 484.389Z" fill="white"/>
</g>
<path d="M155.011 472.577C155.022 472.783 156.01 472.85 156.996 473.487C157.998 474.097 158.519 474.976 158.699 474.889C158.88 474.844 158.556 473.621 157.35 472.872C156.15 472.112 154.964 472.389 155.011 472.577Z" fill="#263238"/>
<path d="M150.82 474.516C150.78 474.717 151.642 475.045 152.332 475.898C153.046 476.73 153.238 477.667 153.434 477.653C153.62 477.68 153.728 476.471 152.85 475.427C151.981 474.376 150.819 474.32 150.82 474.516Z" fill="#263238"/>
<path d="M148.54 479.872C148.72 479.911 148.97 478.875 148.437 477.761C147.911 476.642 146.971 476.222 146.892 476.395C146.785 476.567 147.398 477.157 147.822 478.079C148.267 478.99 148.344 479.857 148.54 479.872Z" fill="#263238"/>
<path d="M155.248 467.598C155.335 467.783 156.233 467.476 157.349 467.526C158.466 467.552 159.343 467.921 159.441 467.741C159.552 467.589 158.687 466.849 157.371 466.809C156.057 466.759 155.148 467.439 155.248 467.598Z" fill="#263238"/>
<path d="M156.09 462.57C156.09 462.655 156.872 462.762 158.112 462.506C158.729 462.378 159.454 462.147 160.211 461.772C160.589 461.584 160.975 461.361 161.357 461.098C161.54 460.968 161.757 460.837 161.955 460.586C162.169 460.366 162.279 459.816 162.019 459.488C161.804 459.169 161.436 459.039 161.144 459.04C160.846 459.037 160.606 459.106 160.388 459.169C159.941 459.294 159.523 459.461 159.141 459.652C158.378 460.039 157.763 460.518 157.307 460.979C156.392 461.909 156.09 462.687 156.159 462.725C156.25 462.791 156.691 462.134 157.626 461.362C158.093 460.978 158.691 460.577 159.404 460.254C159.761 460.095 160.147 459.955 160.556 459.85C160.981 459.722 161.345 459.709 161.459 459.905C161.501 459.98 161.507 460.009 161.42 460.142C161.33 460.265 161.16 460.388 160.98 460.517C160.629 460.77 160.274 460.99 159.927 461.182C159.231 461.565 158.564 461.832 157.991 462.015C156.844 462.382 156.084 462.458 156.09 462.57Z" fill="#263238"/>
<path d="M156.354 462.858C156.425 462.888 156.798 462.14 156.839 460.804C156.857 460.142 156.772 459.342 156.508 458.499C156.374 458.079 156.194 457.65 155.962 457.23C155.715 456.819 155.413 456.269 154.646 456.197C154.246 456.192 153.922 456.526 153.815 456.808C153.688 457.097 153.668 457.342 153.626 457.588C153.563 458.083 153.584 458.565 153.659 459.01C153.807 459.904 154.177 460.642 154.575 461.169C155.39 462.241 156.219 462.466 156.234 462.396C156.297 462.291 155.6 461.912 154.972 460.877C154.662 460.367 154.381 459.691 154.285 458.909C154.236 458.519 154.232 458.105 154.293 457.688C154.346 457.238 154.498 456.872 154.66 456.914C154.861 456.905 155.21 457.234 155.384 457.587C155.6 457.96 155.775 458.342 155.912 458.719C156.183 459.474 156.311 460.201 156.354 460.816C156.439 462.053 156.246 462.83 156.354 462.858Z" fill="#263238"/>
<path d="M194.029 449.894L193.389 483.657L233.609 484.703C233.47 480.685 212.854 472.088 212.854 472.088L214.114 450.473L194.029 449.894Z" fill="#FFA71E"/>
<g opacity="0.6">
<path d="M200.461 469.944C199.677 470.146 199.118 471.046 199.279 471.872C199.44 472.698 200.311 473.3 201.098 473.113C201.885 472.925 202.589 471.866 202.34 471.065C202.091 470.263 201.031 469.614 200.31 469.993" fill="white"/>
</g>
<g opacity="0.6">
<path d="M193.389 483.657L193.581 480.257L232.072 482.532C232.072 482.532 233.843 483.392 233.609 484.704L193.389 483.657Z" fill="white"/>
</g>
<path d="M213.511 471.891C213.5 472.096 212.516 472.163 211.533 472.798C210.535 473.405 210.016 474.281 209.837 474.195C209.657 474.15 209.979 472.932 211.181 472.186C212.377 471.429 213.558 471.704 213.511 471.891Z" fill="#263238"/>
<path d="M217.686 473.823C217.726 474.023 216.867 474.35 216.18 475.2C215.468 476.029 215.278 476.963 215.082 476.949C214.897 476.976 214.789 475.772 215.664 474.732C216.529 473.683 217.687 473.627 217.686 473.823Z" fill="#263238"/>
<path d="M219.957 479.158C219.777 479.197 219.529 478.165 220.06 477.055C220.584 475.941 221.52 475.522 221.599 475.695C221.706 475.867 221.095 476.454 220.673 477.372C220.229 478.28 220.152 479.143 219.957 479.158Z" fill="#263238"/>
<path d="M213.275 466.932C213.188 467.117 212.294 466.811 211.182 466.86C210.069 466.886 209.196 467.253 209.098 467.074C208.988 466.923 209.849 466.186 211.16 466.146C212.47 466.097 213.376 466.773 213.275 466.932Z" fill="#263238"/>
<path d="M212.436 461.924C212.436 462.009 211.657 462.115 210.422 461.861C209.808 461.733 209.085 461.504 208.331 461.13C207.954 460.943 207.57 460.72 207.189 460.459C207.007 460.33 206.79 460.199 206.593 459.949C206.38 459.729 206.27 459.182 206.529 458.856C206.743 458.538 207.11 458.409 207.401 458.409C207.698 458.407 207.936 458.475 208.154 458.538C208.599 458.663 209.015 458.829 209.396 459.019C210.156 459.404 210.769 459.882 211.223 460.341C212.135 461.268 212.435 462.042 212.367 462.08C212.276 462.145 211.838 461.491 210.906 460.722C210.441 460.339 209.845 459.94 209.135 459.618C208.779 459.459 208.395 459.32 207.987 459.216C207.564 459.088 207.201 459.075 207.087 459.271C207.045 459.346 207.04 459.375 207.126 459.508C207.215 459.63 207.385 459.753 207.565 459.881C207.915 460.132 208.268 460.352 208.614 460.544C209.307 460.926 209.972 461.191 210.543 461.374C211.685 461.737 212.442 461.813 212.436 461.924Z" fill="#263238"/>
<path d="M212.173 462.211C212.103 462.241 211.73 461.496 211.69 460.165C211.672 459.505 211.757 458.709 212.02 457.869C212.154 457.451 212.332 457.023 212.564 456.605C212.81 456.196 213.11 455.648 213.874 455.576C214.272 455.571 214.595 455.904 214.701 456.184C214.827 456.472 214.848 456.716 214.889 456.961C214.951 457.454 214.931 457.934 214.856 458.378C214.708 459.269 214.34 460.003 213.944 460.529C213.132 461.597 212.307 461.821 212.292 461.751C212.229 461.646 212.923 461.268 213.549 460.238C213.858 459.73 214.138 459.057 214.233 458.278C214.282 457.89 214.286 457.477 214.225 457.061C214.173 456.613 214.021 456.249 213.86 456.29C213.66 456.281 213.312 456.609 213.139 456.961C212.924 457.332 212.75 457.713 212.613 458.088C212.343 458.84 212.215 459.564 212.173 460.177C212.09 461.409 212.281 462.182 212.173 462.211Z" fill="#263238"/>
<path d="M140.491 284.763C140.491 284.763 137.914 301.968 138.407 315.039C138.9 328.11 142.549 377.128 144.356 393.406C145.463 403.379 146.183 422.393 147.147 434.816C147.886 444.341 150.818 467.298 150.818 467.298L178.249 467.123C178.249 467.123 176.619 407.715 176.641 404.7C176.663 401.685 175.213 327.601 175.213 327.601C175.213 327.601 189.132 374.979 189.95 384.033C190.768 393.087 190.299 420.744 190.807 431.805C191.315 442.866 190.987 467.79 190.987 467.79H216.321C216.036 466.447 219.221 397.245 219.568 390.213C219.915 383.181 207.282 283.195 207.282 283.195L140.491 284.763Z" fill="#263238"/>
<path d="M157.083 301.403C157.119 301.408 157.099 301.716 157.031 302.275C157.002 302.556 156.953 302.897 156.852 303.284C156.756 303.672 156.674 304.124 156.497 304.597C156.203 305.564 155.715 306.67 155.055 307.833C154.37 308.981 153.499 310.176 152.427 311.29C151.34 312.39 150.167 313.291 149.036 314.005C147.889 314.693 146.795 315.21 145.836 315.527C145.367 315.716 144.918 315.809 144.533 315.915C144.148 316.026 143.809 316.084 143.529 316.12C142.972 316.202 142.664 316.23 142.658 316.194C142.639 316.094 143.87 315.91 145.707 315.183C146.629 314.829 147.677 314.291 148.78 313.599C149.866 312.882 150.996 311.996 152.054 310.927C153.096 309.844 153.953 308.692 154.643 307.588C155.306 306.469 155.818 305.407 156.149 304.477C156.83 302.622 156.983 301.387 157.083 301.403Z" fill="#455A64"/>
<path d="M176.663 325.701C176.643 325.66 176.96 325.53 177.39 325.126C177.813 324.726 178.328 324.008 178.57 322.986C178.828 321.965 178.767 320.691 178.624 319.272C178.498 317.83 178.362 316.271 178.219 314.634C177.946 311.342 177.728 308.359 177.597 306.198C177.465 304.037 177.42 302.698 177.491 302.692C177.563 302.686 177.738 304.015 177.964 306.168C178.19 308.321 178.465 311.299 178.738 314.591C178.866 316.229 178.989 317.789 179.102 319.232C179.219 320.654 179.25 321.999 178.926 323.08C178.619 324.165 178.014 324.903 177.522 325.28C177.021 325.661 176.67 325.726 176.663 325.701Z" fill="#455A64"/>
<path d="M209.455 311.779C209.462 311.81 209.179 311.911 208.649 312.024C208.119 312.139 207.336 312.241 206.362 312.243C204.43 312.261 201.663 311.734 199.153 310.07C196.644 308.403 195.085 306.057 194.351 304.269C193.975 303.371 193.765 302.609 193.665 302.077C193.563 301.544 193.547 301.245 193.578 301.239C193.672 301.217 193.868 302.404 194.687 304.117C195.487 305.82 197.036 308.036 199.442 309.636C201.849 311.232 204.493 311.798 206.372 311.875C208.269 311.964 209.439 311.685 209.455 311.779Z" fill="#455A64"/>
<path d="M153.636 467.298C153.627 467.299 153.606 467.169 153.572 466.914C153.539 466.634 153.494 466.259 153.437 465.781C153.327 464.755 153.17 463.291 152.969 461.421C152.57 457.634 152.032 452.149 151.399 445.37C150.132 431.811 148.541 413.064 147.112 392.334C145.687 371.597 144.693 352.807 144.091 339.202C143.789 332.399 143.571 326.894 143.447 323.088C143.389 321.208 143.344 319.737 143.313 318.705C143.304 318.225 143.297 317.847 143.291 317.565C143.289 317.308 143.292 317.176 143.301 317.176C143.31 317.176 143.324 317.307 143.344 317.563C143.362 317.845 143.386 318.221 143.417 318.701C143.472 319.731 143.549 321.201 143.649 323.079C143.842 326.911 144.118 332.406 144.458 339.184C145.155 352.782 146.206 371.565 147.631 392.298C149.06 413.023 150.593 431.771 151.766 445.337C152.358 452.098 152.837 457.579 153.171 461.402C153.33 463.277 153.454 464.743 153.541 465.771C153.576 466.25 153.604 466.627 153.624 466.909C153.641 467.166 153.645 467.298 153.636 467.298Z" fill="#455A64"/>
<path d="M193.687 467.966C193.678 467.966 193.668 467.84 193.658 467.594C193.65 467.322 193.638 466.961 193.624 466.502C193.606 465.512 193.581 464.103 193.548 462.304C193.508 458.658 193.491 453.381 193.525 446.861C193.575 440.333 193.635 432.574 193.702 423.961C193.757 415.343 193.823 405.867 193.623 395.928C193.571 393.442 193.491 390.988 193.383 388.571C193.248 386.154 193.174 383.769 192.783 381.474C192.025 376.863 190.937 372.465 189.882 368.292C187.739 359.948 185.546 352.501 183.637 346.271C181.72 340.042 180.07 335.033 178.894 331.583C178.312 329.881 177.857 328.548 177.537 327.612C177.392 327.177 177.278 326.834 177.192 326.576C177.117 326.342 177.083 326.22 177.091 326.217C177.099 326.214 177.15 326.329 177.242 326.558C177.34 326.812 177.471 327.149 177.636 327.576C177.975 328.474 178.481 329.797 179.086 331.517C180.322 334.948 182.026 339.943 183.99 346.162C185.946 352.383 188.176 359.824 190.348 368.173C191.417 372.351 192.516 376.748 193.288 381.395C193.688 383.729 193.764 386.129 193.902 388.546C194.013 390.969 194.093 393.428 194.145 395.916C194.346 405.867 194.265 415.345 194.184 423.964C194.075 432.576 193.978 440.335 193.896 446.863C193.836 453.359 193.787 458.626 193.754 462.302C193.745 464.101 193.737 465.51 193.732 466.5C193.725 466.959 193.719 467.32 193.714 467.592C193.703 467.84 193.696 467.966 193.687 467.966Z" fill="#455A64"/>
<path d="M158.919 226.748L126.78 236.887C124.155 252.257 123.402 267.946 124.543 283.496C124.998 289.695 126.165 296.615 131.206 300.252C134.881 302.903 139.725 303.112 144.257 303.147C148.597 303.18 153.219 303.063 156.83 300.656C161.812 297.335 163.314 290.773 163.993 284.824C166.211 265.403 163.989 245.627 158.919 226.748Z" fill="#263238"/>
<path d="M90.3761 256.371C86.8481 263.419 92.6371 271.695 100.435 270.547C100.793 270.494 101.117 270.37 101.435 270.333C105.662 269.847 130.373 239.325 131.95 237.121L114.2 224.303L90.3761 256.371Z" fill="#E4897B"/>
<path d="M224.805 213.485L217.848 186.881L199.941 184.252C198.416 184.028 196.868 184.001 195.336 184.176C191.69 184.593 184.524 185.573 178.34 187.382C165.516 191.133 138.028 198.367 138.028 198.367L130.394 219.657V229.486L138.212 233.226L141.581 249.776L139.494 302.692C139.494 302.692 154.09 307.676 163.141 305.257C183.735 299.753 211.521 305.919 211.521 305.919L205.976 251.081L204.088 220.406L224.805 213.485Z" fill="#FFA71E"/>
<path d="M194.435 193.45L184.606 194.065C192.849 208.039 202.761 235.427 206.211 251.279C208.761 232.245 200.954 207.671 194.435 193.45Z" fill="#263238"/>
<path d="M137.122 197.804C136.6 198.11 133.003 199.687 126.134 206.555C119.265 213.424 107.38 230.394 107.38 230.394L132.208 246.228L139.193 237.732L137.122 197.804Z" fill="#FFA71E"/>
<g opacity="0.3">
<path d="M146.095 211.124C145.342 227.95 143.457 244.725 140.458 261.298L141.244 261.917C143.22 261.559 144.865 260.108 145.905 258.391C146.945 256.673 147.464 254.697 147.919 252.741C151.128 238.979 151.783 224.06 146.095 211.124Z" fill="black"/>
</g>
<path d="M144.967 198.275C142.492 198.981 140.172 200.221 138.212 201.888C139.881 210.702 139.192 255.206 139.192 255.206C139.192 255.206 139.192 260.226 140.764 262.512C151.566 249.35 148.37 212.158 144.967 198.275Z" fill="#263238"/>
<g opacity="0.3">
<path d="M170.262 193.826C162.139 194.237 153.759 191.282 146.008 193.749C141.559 195.164 137.835 198.241 134.543 201.551C130.766 205.349 127.325 209.671 125.659 214.762C123.11 222.548 124.795 231.766 120.09 238.473L121.077 238.495C125.412 232.811 126.451 225.305 129.727 218.951C133.52 211.593 140.102 206.138 146.508 200.896C147.323 200.229 148.222 199.529 149.275 199.494C150.806 199.444 151.966 200.771 153.221 201.649C155.567 203.29 158.634 203.456 161.488 203.223C164.072 203.012 166.762 202.461 168.735 200.781C170.71 199.099 171.67 196.002 170.262 193.826Z" fill="black"/>
</g>
<path d="M188.968 266.84C188.955 266.874 188.47 266.723 187.603 266.422C186.735 266.124 185.491 265.657 183.965 265.052C180.912 263.844 176.747 262.035 172.269 259.785C167.791 257.53 163.856 255.264 161.066 253.533C159.671 252.668 158.555 251.947 157.798 251.428C157.039 250.912 156.629 250.612 156.648 250.581C156.667 250.551 157.115 250.793 157.906 251.256C158.782 251.769 159.907 252.427 161.256 253.216C164.088 254.863 168.039 257.07 172.503 259.319C176.968 261.562 181.095 263.418 184.106 264.711C185.544 265.323 186.743 265.834 187.677 266.232C188.52 266.591 188.981 266.806 188.968 266.84Z" fill="#263238"/>
<g opacity="0.3">
<path d="M159.1 252.068C167.816 256.314 177.094 259.406 186.614 261.24C187.819 261.472 189.079 261.706 190.048 262.459C191.016 263.212 191.563 264.666 190.903 265.7C190.027 267.071 187.966 266.736 186.418 266.236C181.458 264.633 177.022 261.699 172.381 259.327C167.739 256.955 163.616 255.102 159.1 252.068Z" fill="black"/>
</g>
<path d="M100.392 248.292L95.754 260.955C95.754 260.955 81.325 260.494 80.24 262.751L104.471 272.625L112.507 253.19L100.392 248.292Z" fill="#FFA71E"/>
<path d="M103.674 262.959C104.091 263.278 104.2 263.938 103.898 264.367C103.596 264.797 102.926 264.913 102.504 264.601C102.082 264.289 101.926 263.502 102.275 263.109C102.623 262.716 103.417 262.622 103.752 263.026" fill="#E0E0E0"/>
<g opacity="0.6">
<path d="M104.47 272.626L105.203 270.635L81.697 261.912C81.697 261.912 80.427 261.942 80.239 262.751L104.47 272.626Z" fill="white"/>
</g>
<path d="M95.411 260.672C95.367 260.792 95.936 261.087 96.363 261.704C96.806 262.311 96.898 262.945 97.025 262.943C97.143 262.964 97.255 262.185 96.725 261.446C96.203 260.704 95.43 260.553 95.411 260.672Z" fill="#263238"/>
<path d="M92.4411 260.688C92.3671 260.792 92.7981 261.201 92.9961 261.866C93.2131 262.524 93.0941 263.107 93.2141 263.15C93.3181 263.214 93.6821 262.554 93.4201 261.733C93.1661 260.909 92.4901 260.576 92.4411 260.688Z" fill="#263238"/>
<path d="M89.758 263.141C89.855 263.21 90.261 262.686 90.221 261.914C90.187 261.142 89.733 260.659 89.643 260.737C89.537 260.807 89.754 261.301 89.777 261.935C89.815 262.569 89.646 263.082 89.758 263.141Z" fill="#263238"/>
<path d="M96.788 257.904C96.794 258.032 97.403 258.09 98.053 258.408C98.71 258.713 99.139 259.149 99.242 259.073C99.345 259.015 99.016 258.37 98.244 258.007C97.477 257.637 96.768 257.787 96.788 257.904Z" fill="#263238"/>
<path d="M126.34 183.197C130.689 174.182 137.014 169.015 137.014 169.015C143.172 169.489 151.219 188.555 150.509 191.397C149.798 194.239 137.297 205.864 133.508 208.943C129.718 212.022 128.118 216.715 125.986 224.295C123.854 231.874 109.889 261.219 109.889 261.219L96.7941 255.313C96.7941 255.313 106.845 220.208 110.634 210.023C110.634 210.023 125.316 185.32 126.34 183.197Z" fill="#455A64"/>
<path d="M113.34 242.979C113.766 240.825 116.484 239.953 117.973 241.566C118.334 241.958 118.556 242.431 118.505 242.997C118.299 245.261 116.771 245.671 116.771 245.671C116.771 245.671 115.555 245.671 113.616 244.881C113.062 244.655 113.193 243.726 113.34 242.979Z" fill="#E4897B"/>
<path d="M117.735 245.671C117.581 245.583 118.467 244.576 118.45 243.164C118.423 242.48 118.096 241.899 117.781 241.579C117.465 241.248 117.172 241.14 117.194 241.061C117.2 241.001 117.563 240.979 118.02 241.298C118.468 241.605 118.937 242.288 118.971 243.144C118.998 243.989 118.654 244.684 118.356 245.1C118.049 245.525 117.786 245.714 117.735 245.671Z" fill="#9B665C"/>
<path d="M108.265 246.714C108.136 246.427 108.011 246.229 108.011 246.229C108.011 246.229 109.933 246.875 110.538 245.827C111.145 244.777 108.672 241.651 108.672 241.651C108.672 241.651 107.019 238.636 103.308 237.922C103.308 237.922 99.7681 237.036 98.7381 239.097C98.7381 239.097 93.4141 246.138 93.4141 248.199C93.4141 250.26 94.4441 253.179 96.8491 254.725L98.3611 251.462C98.3611 251.462 103.686 254.681 105.092 253.008C105.545 252.468 105.092 251.123 105.092 251.123C105.092 251.123 105.814 251.968 106.789 251.485C107.764 251.002 107.281 248.785 107.281 248.785C108.17 248.536 108.644 247.555 108.265 246.714Z" fill="#E4897B"/>
<path d="M96.07 245.535C96.043 245.531 96.062 245.32 96.336 245.114C96.602 244.907 97.088 244.799 97.639 244.815C98.753 244.809 100.301 245.28 101.639 246.325C102.984 247.367 103.859 248.634 104.426 249.552C104.99 250.48 105.264 251.092 105.206 251.127C105.141 251.167 104.754 250.62 104.121 249.758C103.485 248.904 102.588 247.718 101.322 246.739C100.058 245.754 98.656 245.271 97.62 245.183C97.098 245.124 96.691 245.169 96.441 245.288C96.19 245.401 96.108 245.556 96.07 245.535Z" fill="#9B665C"/>
<path d="M99.653 252.174C99.584 252.297 98.771 251.993 97.833 251.47C96.89 250.949 96.234 250.339 96.322 250.223C96.408 250.11 97.163 250.504 98.089 251.016C99.014 251.533 99.724 252.046 99.653 252.174Z" fill="#9B665C"/>
<path d="M99.357 242.534C99.325 242.489 99.934 242.13 101.002 242.246C102.061 242.348 103.416 243.015 104.578 244.079C105.758 245.14 106.53 246.378 106.937 247.32C107.348 248.267 107.439 248.902 107.378 248.918C107.234 248.99 106.508 246.496 104.229 244.466C103.116 243.449 101.898 242.794 100.944 242.61C99.991 242.411 99.38 242.62 99.357 242.534Z" fill="#9B665C"/>
<path d="M101.582 240.15C101.56 240.101 102.114 239.841 103.052 239.969C103.979 240.085 105.209 240.682 106.133 241.775C107.047 242.865 107.512 244.061 107.803 244.905C108.088 245.759 108.203 246.302 108.139 246.326C108.069 246.352 107.829 245.849 107.461 245.041C107.088 244.24 106.583 243.119 105.736 242.112C104.89 241.114 103.809 240.526 102.982 240.331C102.15 240.123 101.596 240.238 101.582 240.15Z" fill="#9B665C"/>
<path d="M96.323 254.497C96.25 254.593 94.802 253.356 93.907 251.231C93.464 250.179 93.271 249.143 93.281 248.387C93.283 247.623 93.535 247.177 93.596 247.213C93.664 247.244 93.56 247.664 93.648 248.369C93.73 249.07 93.965 250.028 94.387 251.029C95.229 253.041 96.449 254.387 96.323 254.497Z" fill="#9B665C"/>
<path d="M223.602 228.553L228.326 241.185C228.326 241.185 242.752 240.626 243.852 242.875L219.689 252.914L211.521 233.535L223.602 228.553Z" fill="#FFA71E"/>
<path d="M220.419 243.242C220.004 243.564 219.9 244.224 220.204 244.652C220.509 245.08 221.179 245.192 221.599 244.877C222.019 244.562 222.169 243.774 221.818 243.383C221.467 242.992 220.673 242.904 220.341 243.31" fill="#E0E0E0"/>
<g opacity="0.6">
<path d="M219.689 252.914L218.942 250.928L242.388 242.045C242.388 242.045 243.658 242.066 243.851 242.874L219.689 252.914Z" fill="white"/>
</g>
<path d="M228.666 240.899C228.711 241.019 228.143 241.317 227.721 241.938C227.282 242.548 227.195 243.183 227.067 243.181C226.949 243.203 226.832 242.425 227.357 241.682C227.875 240.936 228.647 240.78 228.666 240.899Z" fill="#263238"/>
<path d="M231.636 240.894C231.71 240.997 231.283 241.41 231.089 242.076C230.876 242.736 230.999 243.317 230.879 243.361C230.776 243.426 230.407 242.769 230.663 241.946C230.913 241.12 231.587 240.783 231.636 240.894Z" fill="#263238"/>
<path d="M234.336 243.329C234.239 243.399 233.83 242.877 233.865 242.105C233.894 241.332 234.344 240.847 234.435 240.924C234.542 240.993 234.328 241.489 234.309 242.123C234.275 242.757 234.448 243.269 234.336 243.329Z" fill="#263238"/>
<path d="M227.27 238.14C227.265 238.268 226.656 238.33 226.008 238.653C225.353 238.962 224.927 239.402 224.824 239.326C224.72 239.269 225.045 238.622 225.814 238.253C226.58 237.877 227.29 238.023 227.27 238.14Z" fill="#263238"/>
<path d="M179.418 168.773C179.418 168.773 204.216 175.432 207.769 181.353C211.322 187.274 219.675 214.991 222.129 221.314C224.805 228.21 227.271 235.373 227.271 235.373L213.83 242.126C213.83 242.126 200.354 216.774 199.407 210.109C198.46 203.444 195.513 200.301 195.513 200.301L179.111 192.485C179.111 192.485 178.874 187.274 179.111 181.827C179.347 176.38 179.418 168.773 179.418 168.773Z" fill="#455A64"/>
<path d="M178.735 173.22C181.254 171.52 182.51 168.46 183.057 165.471C183.605 162.482 183.585 159.404 184.251 156.439C184.747 154.229 183.303 151.064 184.97 149.53C187.055 147.611 186.372 143.516 185.142 141.613C183.804 139.542 180.878 138.313 180.583 137.636C179.811 135.859 181.102 133.593 180.212 131.873C178.119 127.828 174.731 128.949 174.731 128.949C172.836 127.284 170.285 125.091 166.661 124.749C162.733 124.378 157.057 124.547 154.017 127.062C150.977 129.577 148.723 131.293 148.239 135.209" fill="#263238"/>
<path d="M177.996 146.622C175.86 137.182 166.835 130.964 157.254 132.335L156.302 132.471C146.124 134.538 142.193 144.338 144.541 154.455L149.043 188.194L156.575 193.006C162.524 196.807 170.204 196.532 175.866 192.316L174.326 182.723C174.326 182.723 183.974 179.778 182.685 169.895C182.063 165.122 179.982 155.4 177.996 146.622Z" fill="#E4897B"/>
<path d="M176.75 152.983C176.883 153.723 176.365 154.446 175.595 154.599C174.826 154.751 174.094 154.277 173.961 153.536C173.828 152.796 174.345 152.072 175.115 151.92C175.885 151.767 176.617 152.243 176.75 152.983Z" fill="#263238"/>
<path d="M176.339 149.296C176.191 149.505 175.011 148.867 173.495 149.088C171.978 149.287 170.977 150.226 170.786 150.064C170.693 149.993 170.824 149.636 171.258 149.214C171.685 148.795 172.449 148.337 173.394 148.206C174.339 148.076 175.183 148.31 175.691 148.601C176.208 148.891 176.413 149.201 176.339 149.296Z" fill="#263238"/>
<path d="M162.482 155.336C162.615 156.076 162.097 156.799 161.327 156.952C160.558 157.105 159.826 156.63 159.693 155.889C159.56 155.149 160.078 154.425 160.847 154.273C161.617 154.12 162.349 154.596 162.482 155.336Z" fill="#263238"/>
<path d="M161.263 151.836C161.138 152.06 159.894 151.555 158.412 151.938C156.926 152.3 156.032 153.342 155.825 153.201C155.725 153.141 155.815 152.772 156.203 152.305C156.581 151.841 157.292 151.304 158.217 151.071C159.142 150.84 160.007 150.981 160.543 151.214C161.088 151.449 161.326 151.734 161.263 151.836Z" fill="#263238"/>
<path d="M168.813 164.618C168.794 164.533 169.713 164.235 171.212 163.822C171.593 163.727 171.949 163.597 171.976 163.324C172.027 163.031 171.806 162.637 171.553 162.213C171.055 161.328 170.534 160.401 169.987 159.429C167.797 155.459 166.152 152.173 166.313 152.086C166.474 151.999 168.379 155.146 170.569 159.116C171.1 160.096 171.607 161.03 172.09 161.925C172.299 162.344 172.623 162.807 172.508 163.416C172.445 163.72 172.191 163.971 171.952 164.073C171.715 164.184 171.497 164.22 171.307 164.259C169.783 164.56 168.831 164.704 168.813 164.618Z" fill="#263238"/>
<path d="M160.361 148.448C160.243 148.875 158.703 148.796 156.928 149.15C155.146 149.469 153.742 150.105 153.475 149.751C153.355 149.581 153.577 149.171 154.13 148.724C154.678 148.278 155.572 147.825 156.638 147.622C157.704 147.422 158.702 147.516 159.375 147.731C160.054 147.945 160.41 148.246 160.361 148.448Z" fill="#263238"/>
<path d="M175.123 145.516C174.906 145.899 173.81 145.69 172.552 145.853C171.288 145.972 170.266 146.416 169.969 146.091C169.837 145.932 169.955 145.563 170.373 145.17C170.784 144.78 171.512 144.405 172.379 144.307C173.246 144.211 174.038 144.416 174.526 144.706C175.02 144.997 175.217 145.331 175.123 145.516Z" fill="#263238"/>
<path d="M148.858 134.388C149.199 136.569 150.552 138.57 152.448 139.701C154.344 140.832 156.747 141.07 158.829 140.334C160.444 139.763 162.132 138.629 163.714 139.285C165.378 139.974 165.807 142.247 167.338 143.198C169.525 144.556 172.326 142.503 174.879 142.834C176.851 143.09 178.315 144.7 179.808 146.013C181.301 147.326 183.405 148.464 185.197 147.603C184.805 145.93 184.408 144.24 183.644 142.702C182.88 141.163 181.706 139.766 180.136 139.069C179.276 138.687 178.321 138.523 177.504 138.055C175.739 137.045 175.025 134.908 173.778 133.302C172.17 131.232 169.512 130.024 166.895 130.174C164.718 130.299 162.614 131.296 160.441 131.104C158.835 130.963 157.326 130.177 155.715 130.131C152.577 130.041 150.097 132.681 148.238 135.211" fill="#263238"/>
<path d="M159.3 137.158C157.872 136.986 154.937 136.55 154.015 135.484C152.012 133.167 148.926 131.861 146.087 132.478C143.247 133.095 140.861 135.798 140.76 138.917C137.298 139.499 134.266 142.219 133.128 145.762C131.99 149.305 132.794 153.528 135.15 156.389C135.767 157.138 136.514 157.866 136.685 158.842C136.896 160.051 136.154 161.155 135.682 162.259C134.395 165.269 135.127 169.001 136.939 171.763C138.751 174.525 139.858 175.42 141.852 175.712C145.754 176.282 143.261 184.347 149.441 183.355L147.133 161.014C147.302 161.074 147.502 161.118 147.746 161.134C151.537 161.375 150.873 154.152 149.729 152.239C150.864 150.852 152.011 149.445 152.781 147.79C153.551 146.135 153.787 141.922 153.277 140.123C154.608 139.989 159.927 137.233 159.3 137.158Z" fill="#263238"/>
<path d="M147.67 161.075C147.491 161.026 140.605 160.04 141.785 166.753C142.965 173.467 149.462 170.897 149.44 170.703C149.417 170.509 147.67 161.075 147.67 161.075Z" fill="#E4897B"/>
<path d="M146.941 168.52C146.908 168.504 146.838 168.622 146.657 168.748C146.48 168.87 146.159 168.989 145.786 168.919C145.031 168.783 144.236 167.762 143.991 166.558C143.866 165.95 143.892 165.346 144.024 164.826C144.143 164.299 144.4 163.9 144.746 163.774C145.087 163.629 145.377 163.799 145.492 163.973C145.615 164.145 145.596 164.286 145.634 164.292C145.656 164.305 145.758 164.154 145.655 163.886C145.604 163.758 145.497 163.613 145.317 163.512C145.133 163.409 144.884 163.384 144.64 163.455C144.128 163.582 143.746 164.14 143.601 164.711C143.428 165.289 143.384 165.971 143.524 166.654C143.805 167.999 144.72 169.144 145.74 169.253C146.234 169.293 146.603 169.082 146.779 168.888C146.958 168.685 146.967 168.528 146.941 168.52Z" fill="#87544C"/>
<path d="M138.228 173.598C139.194 174.35 139.805 175.54 139.854 176.763C139.903 177.986 139.389 179.221 138.486 180.048C139.114 180.458 139.912 180.595 140.641 180.419C141.038 181.225 139.939 181.996 139.835 182.888C139.772 183.424 140.098 183.949 140.538 184.26C140.978 184.572 141.517 184.707 142.047 184.808C143.624 185.108 145.248 185.157 146.84 184.953C147.768 184.834 148.788 184.559 149.271 183.757C149.672 183.091 149.585 182.251 149.484 181.48C149.233 179.558 148.982 177.636 148.731 175.715C148.657 175.148 148.564 174.541 148.17 174.126C147.72 173.653 147.009 173.566 146.359 173.507C143.529 173.25 140.699 172.993 137.869 172.736" fill="#263238"/>
<path d="M174.327 182.723C174.327 182.723 165.145 182.789 159.284 179.64C159.284 179.64 163.358 187.406 174.811 185.805L174.327 182.723Z" fill="#87544C"/>
<path d="M170.314 169.033C170.339 169.091 170.078 169.285 169.575 169.404C169.077 169.525 168.334 169.526 167.588 169.252C166.842 168.976 166.277 168.494 165.977 168.078C165.671 167.661 165.599 167.344 165.655 167.316C165.782 167.236 166.422 168.289 167.768 168.763C169.099 169.276 170.269 168.89 170.314 169.033Z" fill="#263238"/>
<path d="M126.765 123.881C126.765 123.881 127.003 161.695 130.319 167.142C133.635 172.59 150.688 194.38 150.688 194.38C150.688 194.38 151.398 199.591 153.056 201.249C153.056 201.249 158.824 203.343 159.136 202.845C159.448 202.346 159.51 201.036 159.51 201.036C159.51 201.036 162.317 201.597 162.753 201.161C163.189 200.725 163.252 199.914 163.252 199.914C163.252 199.914 166.059 199.54 166.371 198.854C166.683 198.168 166.059 194.426 166.059 194.426C166.059 194.426 165.622 190.871 165.123 190.497C164.624 190.123 158.137 186.63 155.767 186.318C153.397 186.006 152.274 184.197 152.274 184.197L140.985 163.677L138.178 131.119C138.179 131.116 132.336 116.615 126.765 123.881Z" fill="#E4897B"/>
<path d="M175.951 181.783C175.951 181.783 175.782 183.21 175.378 183.441C174.974 183.672 171.398 186.672 170.474 187.595C169.55 188.518 166.678 193.041 166.678 193.041C166.678 193.041 166.695 197.357 167.661 197.351C168.627 197.344 168.512 197.518 169.089 196.595C169.666 195.672 169.551 194.172 169.551 194.172L171.916 191.172C171.916 191.172 171.974 193.537 171.685 194.056C171.397 194.575 169.724 196.998 169.724 196.998C169.724 196.998 168.106 196.941 167.965 197.748C167.824 198.555 167.965 199.825 167.965 199.825L171.108 199.594C171.108 199.594 172.55 199.998 173.762 199.075C174.973 198.152 177.281 197.46 177.454 197.344C177.627 197.229 179.127 197.69 179.646 196.652C180.165 195.614 180.163 194.961 180.163 194.961C180.163 194.961 182.357 183.615 182.357 183.384C182.357 183.153 182.107 175.61 182.107 175.61C182.107 175.61 179.29 180.395 175.951 181.783Z" fill="#E4897B"/>
</svg>
