<svg width="357" height="357" viewBox="0 0 357 357" fill="none" xmlns="http://www.w3.org/2000/svg">
<path d="M306.644 120.299C294.401 115.011 288.23 120.795 288.23 120.795L288.222 120.793C288.222 120.793 287.272 111.353 274.166 108.888C266.197 107.389 257.3 103.568 253.206 99.1282L213.154 154.913L211.382 159.957L238.426 176.291C238.36 177.447 238.407 178.616 238.502 179.771C238.537 180.198 238.579 180.626 238.635 181.051C238.533 181.113 238.429 181.175 238.323 181.236C236.959 182.02 235.347 182.327 233.864 182.854C230.451 184.066 227.162 185.592 223.845 187.039C217.348 189.874 210.851 192.708 204.354 195.542C199.441 197.686 194.501 199.845 189.748 202.319L189.744 202.317C189.243 202.03 188.664 201.85 188.265 201.433C187.331 200.456 187.768 198.61 186.706 197.773C186.32 197.469 185.806 197.37 185.405 197.086C184.587 196.507 184.46 195.363 184.408 194.362C184.082 188.114 183.755 181.866 183.429 175.618C183.156 170.39 181.408 165.657 179.54 160.751C176.12 151.769 171.58 143.209 165.959 135.412C165.5 134.695 165.011 133.996 164.496 133.318C164.678 129.655 164.126 126.327 163.236 123.985C161.387 119.122 155.419 114.474 155.419 114.474C155.938 116.215 156.278 118.028 156.48 119.856C155.481 116.727 154.852 113.83 155.184 110.827C156.811 111.565 157.835 111.806 158.042 111.852L158.117 111.862C158.528 111.887 163.661 112.419 170.533 108.286C171.33 110.047 171.853 111.722 172.198 113.216C183.124 107.497 189.083 96.8136 191.409 91.4971C198.029 76.3638 201.977 53.7386 188.681 39.9963C184.868 36.0558 180.608 32.7081 175.66 30.2802C172.034 28.5009 167.522 25.9336 163.37 26.5957C158.733 24.9155 153.535 26.4034 148.837 27.8275C128.33 34.0444 117.045 54.5488 115.506 74.8714C115.497 74.988 115.488 75.1048 115.48 75.2212C115.472 75.3403 115.463 75.4596 115.456 75.5788C115.185 79.6667 115.047 83.8571 115.192 88.0409C115.219 88.8262 115.27 89.6102 115.318 90.3943C116.297 92.0037 117.382 93.5508 118.602 95.0009C120.9 97.7325 123.558 100.139 126.45 102.236C126.277 102.533 126.097 102.824 125.909 103.11C125.886 102.966 125.864 102.822 125.843 102.677C125.843 102.677 118.994 105.611 113.617 112.266C113.617 112.266 113.654 112.379 113.727 112.593C111.924 112.792 110.145 113.179 108.405 113.802C102.031 116.083 97.0512 121.323 93.7892 127.255C90.5274 133.186 88.7946 139.82 87.2375 146.408C84.3292 158.711 81.9251 171.134 80.0322 183.634C79.1034 189.768 79.1544 196.67 77.5407 202.633C76.0945 207.977 74.1705 213.33 72.7328 218.751C71.2301 224.417 69.755 230.114 69.0714 235.936C69.0102 236.457 68.9688 236.97 68.9466 237.474C68.3116 237.003 67.7112 236.488 67.1535 235.924C66.7437 236.648 66.3431 237.585 65.9425 238.821C63.2711 247.062 61.5199 255.07 61.0088 262.584L35.3903 262.335L35.2367 278.142L62.0544 278.403L39.0723 278.179L38.9485 290.926L35.1128 290.889L35.0242 300.018L24.5654 299.917L24.407 316.218L24.2876 328.51L284.164 331.035L284.284 318.744L284.442 302.442L222.67 301.842C222.755 301.44 222.679 300.997 222.525 300.609C222.243 299.902 221.736 299.311 221.202 298.769C220.697 298.256 220.16 297.774 219.618 297.299C217.941 295.83 216.4 294.253 214.804 292.699C213.981 291.897 213.152 291.103 212.318 290.313C212.219 290.219 211.662 289.719 211.103 289.207L211.147 289.056C211.584 287.541 211.822 285.966 211.886 284.379C212.207 283.772 212.501 283.119 212.397 282.448C212.325 281.98 212.067 281.57 211.783 281.185C211.409 277.523 210.175 273.948 208.348 271.012C205.499 266.435 201.353 263.173 196.923 261.254C195.901 260.811 194.865 260.44 193.826 260.141C193.128 259.94 189.607 259.594 185.711 259.307C185.537 258.695 185.358 258.085 185.173 257.477C185.094 257.215 184.994 256.964 184.913 256.703C184.517 256.516 184.123 256.344 183.726 256.153C181.504 255.083 179.301 253.955 177.107 252.796C172.868 247.635 168.732 242.121 165.366 236.801C161.779 231.131 158.29 226.306 154.879 222.33C154.938 222.199 154.991 222.065 155.038 221.927C155.543 220.439 154.983 218.469 153.486 217.994C152.847 217.792 152.058 217.842 151.633 217.324C151.136 216.717 151.509 215.786 151.266 215.041C150.937 214.029 149.68 213.735 148.828 213.098C147.215 211.892 147.185 209.583 146.631 207.617C149.617 203.109 153.214 199.159 157.866 196.381C158.049 196.271 158.234 196.164 158.42 196.058C158.476 198.63 158.38 201.182 158.782 203.761C159.316 207.195 160.423 210.528 160.607 214.016C160.739 216.534 160.432 219.256 161.772 221.393C162.742 222.94 164.424 223.898 165.557 225.33C167.814 228.184 167.638 232.553 170.268 235.068C172.888 237.574 177.402 237.047 180.212 234.754C181.123 234.012 181.888 233.135 182.538 232.17C184.987 231.717 187.349 230.767 189.631 229.738C200.181 224.981 209.869 218.548 219.146 211.678C223.801 208.231 228.364 204.663 232.932 201.102C238.146 197.036 244.632 193.61 251.181 191.298C253.5 190.48 255.827 189.801 258.108 189.282C258.967 189.086 261.589 188.836 264.673 188.266L294.025 198.909L328.542 141.583L332.598 130.04C326.627 130.943 318.888 125.586 306.644 120.299ZM201.192 301.568C201.887 301.674 202.582 301.633 203.243 301.361C203.737 301.158 204.189 300.82 204.456 300.357C204.657 300.009 204.732 299.609 204.713 299.208C205.466 299.615 206.311 299.847 207.167 299.818C207.618 299.802 208.118 299.694 208.37 299.319C208.585 298.999 208.554 298.574 208.458 298.2C208.423 298.06 208.347 297.936 208.295 297.802C208.773 298 209.27 298.147 209.788 298.179C210.359 298.213 210.954 298.139 211.45 297.854C211.939 297.573 212.313 297.062 212.338 296.5C212.919 297.012 213.516 297.508 214.122 297.986C215.662 299.202 217 300.636 218.589 301.802L201.092 301.632L201.192 301.568Z" fill="#F3936B"/>
<path d="M222.67 301.842C222.636 302.004 222.576 302.159 222.485 302.301C222.148 302.823 221.455 303.029 220.839 302.945C220.223 302.861 219.666 302.538 219.149 302.194C218.958 302.067 218.773 301.937 218.59 301.802L201.093 301.632L201.193 301.568C200.096 301.4 198.998 300.864 198.028 300.289C194.737 298.339 191.673 296.049 189.509 292.896C189.323 292.626 189.144 292.35 188.972 292.067C188.302 290.962 187.518 289.956 186.865 288.836C185.938 287.248 185.017 285.672 184.179 284.017C182.949 281.592 181.581 279.538 179.706 277.723C175.225 273.387 150.471 257.349 135.787 239.606C134.526 240.594 133.171 241.443 131.619 241.764C129.406 242.222 126.706 241.171 126.15 238.981L126.129 238.892C122.617 239.909 118.905 240.175 115.291 240.603C109.088 241.337 102.984 242.548 96.7315 242.9C91.3252 243.204 85.917 242.983 80.592 241.967C76.5933 241.204 72.293 239.955 68.9468 237.474C68.3118 237.003 67.7114 236.488 67.1537 235.924C66.7439 236.648 66.3433 237.586 65.9427 238.821C63.2713 247.062 61.5201 255.07 61.009 262.584L35.3904 262.335L35.2368 278.142L39.0725 278.179L38.9487 290.926L35.113 290.889L35.0244 300.018L24.5655 299.917L24.4072 316.218L24.2878 328.51L284.164 331.035L284.284 318.744L284.442 302.442L222.67 301.842Z" fill="#6F626E"/>
<path d="M171.702 229.193C169.084 226.182 169.039 221.542 170.701 217.915C172.362 214.287 175.436 211.507 178.644 209.136C182.147 206.548 185.886 204.329 189.748 202.319L189.744 202.317C189.243 202.03 188.664 201.851 188.265 201.433C187.331 200.456 187.768 198.61 186.706 197.773C186.32 197.469 185.807 197.37 185.405 197.086C184.587 196.507 184.461 195.363 184.408 194.362C184.082 188.114 183.755 181.866 183.429 175.618C183.156 170.39 181.408 165.657 179.54 160.751C176.12 151.769 171.58 143.209 165.96 135.412C165.5 134.695 165.011 133.996 164.496 133.318C164.413 134.988 164.177 136.727 163.751 138.474L161.773 132.623L153.938 142.299L139.293 134.068L135.29 143.565C121.628 134.439 114.667 115.324 113.727 112.594C111.924 112.792 110.144 113.18 108.404 113.802C102.031 116.083 97.051 121.323 93.789 127.255C90.5272 133.186 88.7944 139.82 87.2374 146.408C84.329 158.712 81.9249 171.134 80.0321 183.634C79.1032 189.768 79.1542 196.67 77.5405 202.633C76.0943 207.977 74.1704 213.33 72.7326 218.751C71.2299 224.417 69.7548 230.114 69.0712 235.936C69.01 236.457 68.9686 236.97 68.9464 237.474C72.2927 239.956 76.593 241.204 80.5916 241.967C85.9167 242.983 91.3249 243.204 96.7312 242.9C102.983 242.548 109.088 241.337 115.29 240.603C118.904 240.175 122.616 239.909 126.129 238.892L126.15 238.981C126.706 241.171 129.406 242.222 131.619 241.765C133.171 241.443 134.526 240.594 135.787 239.606C136.324 239.185 136.844 238.739 137.355 238.297C142.272 234.045 147.189 229.794 152.106 225.542C153.185 224.609 154.304 223.617 154.88 222.33C154.938 222.199 154.991 222.065 155.038 221.927C155.543 220.439 154.984 218.469 153.486 217.994C152.847 217.792 152.058 217.842 151.633 217.324C151.136 216.717 151.509 215.786 151.266 215.041C150.937 214.029 149.68 213.735 148.828 213.098C147.215 211.892 147.185 209.583 146.631 207.617C149.618 203.109 153.214 199.159 157.866 196.381C158.049 196.271 158.234 196.164 158.42 196.058C158.477 198.63 158.381 201.182 158.782 203.761C159.316 207.195 160.423 210.528 160.607 214.016C160.739 216.534 160.432 219.256 161.772 221.393C162.742 222.94 164.424 223.898 165.557 225.33C167.815 228.184 167.638 232.553 170.268 235.068C172.889 237.574 177.402 237.047 180.212 234.754C181.123 234.012 181.888 233.135 182.538 232.17C181.843 232.298 181.141 232.387 180.432 232.426C177.223 232.601 173.81 231.618 171.702 229.193Z" fill="#FFA71E"/>
<path d="M293.618 192.124L251.748 177.863C252.734 179.543 253.238 181.938 252.773 183.951L264.674 188.266L294.026 198.909L328.543 141.583L332.598 130.04L293.618 192.124Z" fill="#FFA71E"/>
<path d="M239.843 171.031L213.154 154.913L211.382 159.957L238.427 176.291C238.489 175.208 238.651 174.136 238.968 173.099C239.188 172.382 239.482 171.688 239.843 171.031Z" fill="#FFA71E"/>
<path d="M306.644 120.299C294.401 115.011 288.23 120.795 288.23 120.795L288.222 120.793C288.222 120.793 287.272 111.353 274.166 108.888C266.197 107.389 257.3 103.568 253.206 99.1282L213.154 154.913L239.843 171.031C240.381 170.049 241.066 169.148 241.868 168.367C243.361 166.911 244.998 165.214 246.865 164.252C247.285 164.035 247.745 163.86 248.218 163.876C248.851 163.898 249.457 164.29 249.735 164.859C250.075 165.552 249.922 166.394 249.595 167.095C249.137 168.079 248.484 169.013 247.891 169.921C247.712 170.195 245.937 172.725 245.696 172.588C246.926 173.29 248.101 174.092 249.181 175.011C249.783 175.522 250.366 176.064 250.879 176.662C251.105 176.925 251.317 177.199 251.512 177.487C251.593 177.607 251.672 177.733 251.748 177.863L293.618 192.124L332.598 130.04C326.627 130.943 318.888 125.586 306.644 120.299Z" fill="#E8E5EA"/>
<path d="M304.323 165.39L270.209 153.771L260.292 169.717L294.406 181.337L304.323 165.39Z" fill="white"/>
<path d="M266.377 142.348L274.738 130.685L247.609 114.285L239.853 125.992L266.377 142.348Z" fill="white"/>
<path d="M135.29 143.566L139.293 134.068L153.938 142.299C153.676 142.012 129.36 124.959 125.909 103.11C125.886 102.966 125.864 102.822 125.843 102.677C125.843 102.677 118.993 105.611 113.617 112.266C113.617 112.266 113.653 112.38 113.727 112.594C114.667 115.324 121.628 134.439 135.29 143.566Z" fill="#E8E5EA"/>
<path d="M153.938 142.299L161.773 132.624L163.751 138.474C164.177 136.727 164.413 134.988 164.496 133.318C164.679 129.655 164.127 126.327 163.237 123.985C161.388 119.122 155.419 114.475 155.419 114.475C155.939 116.215 156.278 118.028 156.48 119.856C157.686 130.794 153.938 142.299 153.938 142.299Z" fill="#E8E5EA"/>
<path d="M24.4131 316.207L24.2938 328.499L284.183 331.02L284.302 318.728L24.4131 316.207Z" fill="#4E4B63"/>
<path d="M187.954 305.493C189.424 305.49 190.645 305.424 191.034 305.38C194.063 305.04 196.951 304.084 199.701 302.485C200.165 302.215 200.63 301.931 201.092 301.632L201.192 301.568C200.096 301.4 198.998 300.864 198.027 300.289C194.737 298.339 191.672 296.049 189.508 292.896C189.414 294.642 189.273 296.387 189.085 298.125C188.816 300.609 188.429 303.065 187.954 305.493Z" fill="#D68159"/>
<path d="M210.763 286.452C210.478 286.978 210.187 287.51 209.852 288.006C209.832 288.036 210.469 288.629 211.103 289.208L211.147 289.056C211.584 287.541 211.822 285.967 211.886 284.379L211.788 284.561C211.446 285.191 211.105 285.822 210.763 286.452Z" fill="#D68159"/>
<path d="M199.169 275.697C200.803 275.239 202.642 275.069 204.319 275.321C207.449 275.789 209.78 278.564 211.6 280.942C211.661 281.022 211.723 281.103 211.783 281.185C211.409 277.523 210.175 273.948 208.348 271.013C205.499 266.436 201.353 263.173 196.923 261.254C195.901 260.812 194.865 260.441 193.826 260.141C193.128 259.94 189.607 259.594 185.711 259.308C186.151 260.857 186.555 262.421 186.924 263.997C192.316 269.77 196.945 274.119 199.169 275.697Z" fill="#D68159"/>
<path d="M188.972 292.067C188.301 290.962 187.518 289.956 186.864 288.836C185.938 287.248 185.017 285.672 184.179 284.017C182.949 281.592 181.58 279.538 179.705 277.723C175.225 273.387 150.471 257.349 135.787 239.606C134.526 240.594 133.171 241.443 131.619 241.764C129.406 242.222 126.706 241.171 126.15 238.981L126.129 238.892C122.617 239.909 118.905 240.175 115.29 240.603C109.088 241.337 102.983 242.548 96.7313 242.9C91.325 243.204 85.9169 242.983 80.5918 241.967C76.5931 241.204 72.2928 239.955 68.9466 237.474C68.3116 237.003 67.7112 236.488 67.1535 235.924C66.7437 236.648 66.3431 237.586 65.9425 238.821C63.2711 247.062 61.5199 255.07 61.0088 262.584L141.162 263.363L141.008 279.17L137.172 279.133L137.049 291.88L140.884 291.917L140.708 310.077C156.554 309.966 173.214 309.076 187.569 307.371C187.703 306.747 187.831 306.121 187.954 305.493C188.429 303.065 188.815 300.609 189.085 298.125C189.273 296.386 189.414 294.642 189.509 292.896C189.323 292.626 189.143 292.35 188.972 292.067Z" fill="#5F5F77"/>
<path d="M186.924 263.997C186.555 262.421 186.151 260.857 185.712 259.308C185.538 258.695 185.358 258.085 185.174 257.477C185.094 257.215 184.995 256.964 184.913 256.703C184.517 256.516 184.123 256.344 183.726 256.153C181.505 255.083 179.301 253.955 177.107 252.796C180.423 256.833 183.801 260.654 186.924 263.997Z" fill="#5F5F77"/>
<path d="M185.752 92.7694C186.458 90.7483 187.068 88.7201 187.577 86.6847C186.126 90.9881 184.031 95.2036 180.952 98.9699C177.303 103.432 173.73 106.364 170.533 108.287C171.331 110.047 171.853 111.722 172.199 113.216C173.153 112.174 181.271 105.608 185.752 92.7694Z" fill="#351C13"/>
<path d="M166.56 103.558L166.481 103.619L166.39 103.662C166.259 103.708 166.118 103.726 165.978 103.739C165.834 103.744 165.694 103.758 165.549 103.748C165.405 103.743 165.262 103.747 165.118 103.731L164.686 103.7L164.253 103.655C163.965 103.63 163.676 103.588 163.388 103.555L161.652 103.334C161.071 103.271 160.491 103.188 159.897 103.162C160.456 103.348 161.02 103.515 161.595 103.635C161.882 103.7 162.169 103.76 162.459 103.811C162.75 103.857 163.041 103.904 163.334 103.943C163.921 104.005 164.511 104.064 165.111 104.036C165.409 104.028 165.711 103.995 166.008 103.928C166.156 103.885 166.304 103.842 166.439 103.758L166.534 103.684L166.609 103.591L166.614 103.37L166.56 103.558Z" fill="#D68159"/>
<path d="M162.372 108.556C162.19 108.763 162.031 108.992 161.897 109.235C161.768 109.48 161.667 109.745 161.635 110.022L162.154 109.403L162.671 108.809C162.845 108.613 163.017 108.413 163.189 108.209C163.361 108.005 163.531 107.797 163.691 107.567C163.428 107.672 163.194 107.823 162.975 107.991C162.757 108.16 162.554 108.349 162.372 108.556Z" fill="#D68159"/>
<path d="M168.212 88.2922C168.275 88.8959 168.47 89.4458 168.722 89.9943C169.022 90.6482 169.489 91.4117 169.252 92.1577C169.105 92.6217 168.686 92.9427 168.27 93.1947C168.678 93.047 169.059 92.8213 169.384 92.5333C169.547 92.389 169.7 92.2244 169.783 92.0229C170.124 91.1913 169.298 90.319 168.987 89.6072C168.679 88.9028 168.538 88.1213 168.475 87.3592C168.415 86.631 168.429 85.8996 168.454 85.1701C168.476 84.5134 168.4 83.8233 168.297 83.1724C168.333 83.4007 168.261 83.6955 168.246 83.9271C168.23 84.1787 168.215 84.4303 168.203 84.6822C168.179 85.1664 168.169 85.6428 168.182 86.1257C168.2 86.8477 168.137 87.5723 168.212 88.2922Z" fill="#D68159"/>
<path d="M165.34 93.2391C165.223 93.0818 165.164 92.9551 165.122 92.8229C165.077 92.6938 165.055 92.5554 165.029 92.412L164.951 91.96C164.919 91.8013 164.886 91.6386 164.821 91.4585C164.693 91.6074 164.625 91.7786 164.581 91.9539C164.54 92.1299 164.533 92.3146 164.565 92.4994C164.597 92.6824 164.667 92.8715 164.807 93.0216C164.943 93.1708 165.146 93.2675 165.34 93.2391Z" fill="#D68159"/>
<path d="M150.009 88.2579C154.666 89.1132 158.921 87.4347 159.515 84.5087C160.108 81.5827 156.815 78.5174 152.159 77.662C147.502 76.8066 143.247 78.4851 142.653 81.411C142.06 84.3371 145.353 87.4024 150.009 88.2579Z" fill="#D68159"/>
<path d="M150.837 63.334C154.957 64.0085 158.975 65.4671 161.532 65.2883C162.871 65.1947 164.137 63.5921 164.49 61.1903C164.49 61.1903 163.162 61.782 160.729 61.5928C158.297 61.4037 152.879 60.9275 150.569 61.277C148.259 61.6264 144.232 64.2835 143.335 65.9518C143.335 65.9518 146.718 62.6595 150.837 63.334Z" fill="#2A1714"/>
<path d="M163.696 64.7173C163.453 65.0522 163.145 65.3345 162.807 65.6152C163.216 65.4611 163.6 65.2097 163.909 64.8835C164.216 64.5574 164.45 64.1717 164.628 63.7706C164.79 63.3638 164.906 62.9435 164.955 62.5186C165.005 62.0948 165.017 61.6678 164.94 61.2533C164.795 62.0872 164.61 62.8909 164.295 63.648C164.135 64.025 163.931 64.3788 163.696 64.7173Z" fill="#2A1714"/>
<path d="M164.215 64.9718C163.953 65.3027 163.63 65.5825 163.272 65.8281C163.661 65.639 164.03 65.3852 164.321 65.0548C164.609 64.7243 164.832 64.346 165.01 63.9528C165.325 63.1528 165.475 62.298 165.405 61.4662C165.374 61.8833 165.304 62.296 165.216 62.7021C165.123 63.1076 165.008 63.5085 164.843 63.8916C164.684 64.2767 164.469 64.6377 164.215 64.9718Z" fill="#2A1714"/>
<path d="M172.035 97.9011C170.312 97.3084 167.908 95.6985 165.224 95.8868C165.224 95.8868 163.673 95.1026 160.087 95.3669C156.575 95.6257 155.384 95.0424 154.742 93.8663C154.742 93.8663 154.603 95.3362 156.824 96.0698C157.32 96.9829 159.24 99.8353 164.204 100.637C170.233 101.612 172.053 98.4872 172.053 98.4872L171.496 98.3895C171.699 98.4193 171.886 98.4518 172.053 98.4872C172.659 98.6163 174.198 98.3834 174.648 98.0715C174.648 98.0715 173.758 98.4938 172.035 97.9011Z" fill="#C03F33"/>
<path d="M178.734 68.7503C180.172 69.8031 183.048 69.8542 185.705 70.6633C188.363 71.4723 189.184 75.6825 189.184 75.6825C189.248 73.8327 187.823 69.9846 186.591 68.8603C185.358 67.7359 182.008 66.293 180.513 65.6224C179.018 64.952 178.447 63.9452 178.447 63.9452C177.804 66.2817 177.981 68.1991 178.734 68.7503Z" fill="#2A1714"/>
<path d="M177.453 66.2757C177.416 66.7072 177.416 67.1439 177.482 67.5514C177.548 67.9596 177.684 68.3245 177.87 68.6088C177.77 68.2328 177.69 67.8655 177.665 67.472C177.647 67.0783 177.652 66.6813 177.692 66.2784C177.775 65.471 177.951 64.6658 178.161 63.8466C177.969 64.202 177.825 64.6 177.705 65.008C177.582 65.4166 177.502 65.8443 177.453 66.2757Z" fill="#2A1714"/>
<path d="M177.521 68.6438C177.398 68.2928 177.307 67.9227 177.271 67.5268C177.239 67.1303 177.241 66.723 177.284 66.3127C177.322 65.9022 177.397 65.4928 177.486 65.0867C177.578 64.6818 177.683 64.2768 177.812 63.8816C177.477 64.6242 177.262 65.4644 177.165 66.3113C177.13 66.7356 177.127 67.1619 177.179 67.5665C177.233 67.9723 177.359 68.3344 177.521 68.6438Z" fill="#2A1714"/>
<path d="M180.983 84.2899C177.798 83.697 174.789 85.3604 174.262 88.0049C173.736 90.6492 175.891 93.2737 179.077 93.8666C182.262 94.4595 185.271 92.7961 185.798 90.1518C186.325 87.5072 184.169 84.8827 180.983 84.2899Z" fill="#D68159"/>
<path d="M177.753 79.6598C177.974 79.4667 178.205 79.2863 178.442 79.1221C178.754 78.9603 179.065 78.7424 179.397 78.6495C180.053 78.3788 180.743 78.346 181.407 78.4327C182.049 78.543 182.654 78.8477 183.163 79.3004L183.163 79.2998L183.166 79.3036L183.212 79.3437L183.284 79.4121C183.564 79.6547 184.299 80.2037 185.192 80.1786C184.898 79.6317 183.585 77.4455 181.275 77.2725C178.633 77.0748 177.571 79.8223 177.571 79.8223C177.571 79.8223 177.63 79.757 177.753 79.6598Z" fill="#D68159"/>
<path d="M185.745 80.0876C185.556 80.1457 185.371 80.1736 185.192 80.1786C184.299 80.2035 183.564 79.6546 183.284 79.4121L183.211 79.3437L183.166 79.3036L183.163 79.2998L183.163 79.3004C182.654 78.8477 182.049 78.543 181.407 78.4327C180.743 78.346 180.053 78.3788 179.397 78.6495C179.065 78.7424 178.754 78.9601 178.442 79.1221C178.205 79.2863 177.975 79.4668 177.752 79.6598L177.571 79.8223C177.904 79.7656 178.215 79.6563 178.527 79.5812C178.842 79.5346 179.147 79.4268 179.452 79.4073C180.06 79.3067 180.652 79.3272 181.224 79.4143C181.801 79.4941 182.344 79.7284 182.873 80.021C183.4 80.3265 183.9 80.7214 184.386 81.2114C185.307 81.4907 185.745 80.0876 185.745 80.0876Z" fill="#2A1714"/>
<path d="M152.611 73.326L152.731 73.297L152.804 73.2812L152.811 73.2792L152.81 73.2799C153.641 73.0994 154.523 73.0968 155.364 73.2881C156.221 73.5105 157.056 73.8531 157.741 74.3963C158.107 74.631 158.392 74.9698 158.703 75.2584C158.921 75.5151 159.123 75.7834 159.309 76.0593C159.417 76.2034 159.46 76.2897 159.46 76.2897C159.46 76.2897 159.391 73.3122 156.049 72.2938C153.127 71.4035 150.524 72.7939 149.916 73.1574C151.005 73.5854 152.158 73.4195 152.611 73.326Z" fill="#D68159"/>
<path d="M152.842 74.0659C153.626 74.04 154.4 74.0735 155.146 74.2626C155.89 74.4431 156.628 74.6926 157.331 75.0598C157.698 75.2158 158.024 75.4517 158.391 75.6369C158.742 75.8467 159.076 76.0873 159.46 76.2896C159.412 76.2123 159.361 76.1355 159.31 76.0593C159.124 75.7834 158.921 75.5151 158.704 75.2584C158.392 74.9698 158.108 74.631 157.741 74.3963C157.056 73.8531 156.221 73.5104 155.365 73.2881C154.524 73.0968 153.642 73.0994 152.81 73.2799L152.811 73.2792L152.804 73.2812L152.731 73.297L152.612 73.326C152.158 73.4195 151.005 73.5854 149.916 73.1574C149.698 73.0718 149.483 72.9626 149.276 72.824C149.276 72.824 149.182 74.2969 150.443 74.4612C151.262 74.2366 152.055 74.1046 152.842 74.0659Z" fill="#2A1714"/>
<path d="M147.967 111.771C147.598 109.895 137.379 100.755 138.183 74.52C138.656 59.0754 154.035 46.1484 162.265 47.6168C167.869 48.6166 172.031 47.588 173.544 46.1656C174.938 44.8548 175.537 43.6945 174.682 41.3405C175.781 43.355 176.799 45.0437 178.443 45.9383C183.848 48.8792 186.499 54.0081 187.923 59.9797C190.072 68.9979 189.771 77.9068 187.577 86.6847C187.069 88.7201 186.458 90.7483 185.753 92.7694C181.271 105.608 173.153 112.174 172.199 113.216C183.125 107.498 189.083 96.814 191.409 91.4975C198.03 76.3642 201.977 53.7389 188.681 39.9966C184.868 36.0562 180.609 32.7084 175.66 30.2806C172.034 28.5013 167.522 25.934 163.371 26.596C158.734 24.9158 153.535 26.4037 148.837 27.8278C128.33 34.0444 117.045 54.5488 115.506 74.8714C115.497 74.988 115.488 75.1048 115.48 75.2212C115.472 75.3403 115.463 75.4596 115.456 75.5789C115.185 79.6667 115.047 83.8571 115.192 88.0409C115.219 88.8262 115.27 89.6102 115.318 90.3944C116.297 92.0037 117.382 93.5508 118.602 95.0009C120.9 97.7325 123.558 100.139 126.45 102.236C129.828 104.686 133.524 106.713 137.338 108.341C140.753 109.799 144.322 110.961 147.967 111.771Z" fill="#2A1714"/>
<path d="M62.0546 278.403L39.0725 278.18L38.9485 290.926L137.049 291.88L137.172 279.133L62.0546 278.403Z" fill="#386368"/>
<path d="M126.866 280.184L126.767 290.413L129.014 290.435L129.114 280.206L126.866 280.184Z" fill="white"/>
<path d="M97.503 279.912L97.4037 290.141L98.6437 290.153L98.7429 279.924L97.503 279.912Z" fill="white"/>
<path d="M95.1783 279.89L95.0791 290.118L96.319 290.13L96.4182 279.902L95.1783 279.89Z" fill="white"/>
<path d="M92.8474 279.848L92.7482 290.077L93.9881 290.089L94.0873 279.86L92.8474 279.848Z" fill="white"/>
<path d="M107.184 279.994L107.085 290.222L120.569 290.353L120.668 280.124L107.184 279.994Z" fill="white"/>
<path d="M137.049 291.88L38.9485 290.926L35.1129 290.889L35.0242 300.018L34.9127 311.501L140.684 312.529L140.708 310.077L140.884 291.917L137.049 291.88Z" fill="#FFA71E"/>
<path d="M66.3371 293.244L66.1771 309.735L109.485 310.155L109.645 293.664L66.3371 293.244Z" fill="white"/>
<path d="M44.1923 291.975L44.0117 310.587L46.4349 310.611L46.6154 291.999L44.1923 291.975Z" fill="white"/>
<path d="M129.389 292.795L129.208 311.407L131.631 311.431L131.812 292.818L129.389 292.795Z" fill="white"/>
<path d="M61.0089 262.584L35.3904 262.335L35.2368 278.142L62.0545 278.403L141.008 279.17L141.162 263.363L61.0089 262.584Z" fill="#4E4B63"/>
<path d="M94.3149 264.478L94.1922 277.124L123.867 277.412L123.989 264.766L94.3149 264.478Z" fill="white"/>
<path d="M44.4692 263.178L44.3307 277.452L46.7539 277.476L46.8923 263.202L44.4692 263.178Z" fill="white"/>
<path d="M129.669 264.012L129.531 278.286L131.954 278.309L132.092 264.035L129.669 264.012Z" fill="white"/>
<path d="M171.488 315.893L241.883 316.577L265.623 307.784L195.228 307.1L171.488 315.893Z" fill="white"/>
<path d="M255.778 169.755C255.698 169.755 255.617 169.732 255.545 169.684C255.353 169.556 255.301 169.295 255.43 169.102L285.864 123.566C285.993 123.375 286.253 123.323 286.446 123.451C286.638 123.58 286.69 123.84 286.561 124.034L256.127 169.569C256.046 169.689 255.913 169.755 255.778 169.755Z" fill="#392724"/>
<path d="M322.04 135.516L321.95 135.506C317.521 134.548 313.462 132.271 309.538 130.069C304.928 127.482 300.16 124.807 294.909 124.412C294.678 124.394 294.504 124.192 294.522 123.962C294.539 123.73 294.737 123.557 294.972 123.574C300.409 123.984 305.259 126.705 309.949 129.337C313.82 131.508 317.822 133.754 322.128 134.686C322.354 134.735 322.498 134.958 322.45 135.185C322.407 135.381 322.233 135.516 322.04 135.516Z" fill="#392724"/>
<path d="M317.936 139.193C313.491 139.193 309.348 136.999 305.467 134.729L305.079 134.502C301.138 132.191 297.063 129.803 292.586 129.657C292.355 129.649 292.173 129.455 292.181 129.223C292.188 128.991 292.409 128.835 292.613 128.817C297.304 128.971 301.472 131.414 305.504 133.777L305.891 134.004C309.961 136.386 314.316 138.684 318.923 138.315C319.153 138.302 319.356 138.468 319.375 138.699C319.393 138.93 319.22 139.133 318.989 139.151C318.636 139.18 318.285 139.193 317.936 139.193Z" fill="#392724"/>
<path d="M316.913 147.463L316.846 147.457C312.014 146.68 307.82 143.933 303.763 141.277L302.664 140.559C298.239 137.683 293.451 135.037 288.417 135.204C288.165 135.204 287.991 135.028 287.984 134.797C287.976 134.566 288.158 134.372 288.39 134.364C293.659 134.188 298.581 136.905 303.121 139.856L304.223 140.576C308.206 143.183 312.325 145.88 316.98 146.63C317.208 146.666 317.364 146.881 317.327 147.11C317.294 147.316 317.116 147.463 316.913 147.463Z" fill="#392724"/>
<path d="M310.948 155.268L310.869 155.261C305.626 154.252 300.846 151.66 296.224 149.154C291.942 146.832 287.514 144.431 282.76 143.324C282.534 143.271 282.394 143.045 282.447 142.82C282.499 142.594 282.724 142.452 282.95 142.506C287.815 143.639 292.293 146.068 296.624 148.416C301.19 150.892 305.912 153.452 311.027 154.436C311.255 154.48 311.404 154.7 311.36 154.928C311.321 155.129 311.146 155.268 310.948 155.268Z" fill="#392724"/>
<path d="M276.87 124.4C276.719 124.4 276.573 124.318 276.498 124.175C274.462 120.294 270.825 117.022 265.38 114.175C263.161 113.016 260.817 112.002 258.55 111.02C256.168 109.99 253.705 108.925 251.368 107.683C251.163 107.574 251.085 107.32 251.194 107.115C251.303 106.911 251.557 106.833 251.762 106.942C254.069 108.167 256.517 109.226 258.883 110.25C261.164 111.237 263.523 112.257 265.768 113.431C271.37 116.361 275.124 119.747 277.242 123.785C277.35 123.991 277.271 124.244 277.065 124.352L276.87 124.4Z" fill="#392724"/>
<path d="M271.305 123.684C271.165 123.684 271.029 123.615 270.95 123.489C269.466 121.143 266.925 119.339 262.954 117.812C262.027 117.455 261.086 117.13 260.145 116.804C257.872 116.017 255.522 115.204 253.406 113.95C253.206 113.832 253.141 113.575 253.259 113.376C253.376 113.177 253.634 113.109 253.834 113.229C255.877 114.439 258.186 115.238 260.419 116.01C261.37 116.34 262.32 116.668 263.256 117.028C267.404 118.623 270.074 120.534 271.659 123.04C271.783 123.235 271.724 123.495 271.528 123.619C271.459 123.662 271.381 123.684 271.305 123.684Z" fill="#392724"/>
<path d="M262.656 148.319C262.556 148.319 262.455 148.284 262.375 148.211C255.212 141.752 246.6 136.694 237.47 133.586C237.251 133.511 237.133 133.273 237.208 133.053C237.283 132.834 237.521 132.719 237.74 132.791C246.978 135.936 255.69 141.053 262.937 147.588C263.11 147.743 263.123 148.008 262.968 148.18C262.885 148.272 262.771 148.319 262.656 148.319Z" fill="#392724"/>
<path d="M259.194 155.163C259.106 155.163 259.019 155.136 258.943 155.079C251.202 149.309 242.793 144.418 233.951 140.542C233.738 140.449 233.642 140.201 233.735 139.989C233.828 139.777 234.073 139.68 234.287 139.773C243.189 143.675 251.653 148.598 259.445 154.407C259.631 154.546 259.669 154.808 259.531 154.994C259.448 155.105 259.322 155.163 259.194 155.163Z" fill="#392724"/>
<path d="M254.539 157.013C254.452 157.013 254.364 156.986 254.289 156.93C246.757 151.343 238.414 147.043 229.492 144.149C229.272 144.078 229.151 143.841 229.223 143.62C229.294 143.4 229.532 143.279 229.751 143.351C238.759 146.272 247.183 150.614 254.789 156.256C254.975 156.394 255.014 156.657 254.876 156.843C254.794 156.954 254.667 157.013 254.539 157.013Z" fill="#392724"/>
<path d="M151.391 259.822L151.234 259.792C140.49 255.485 128.572 255.444 117.046 255.404C107.293 255.37 97.2076 255.336 87.7294 252.759C87.506 252.698 87.3736 252.468 87.4347 252.244C87.4958 252.02 87.7272 251.889 87.9498 251.949C97.3212 254.496 107.35 254.532 117.049 254.564C128.654 254.605 140.654 254.645 151.546 259.013C151.761 259.099 151.866 259.343 151.779 259.559C151.714 259.723 151.557 259.822 151.391 259.822Z" fill="#392724"/>
<path d="M137.402 251.707C134.487 251.707 131.771 250.158 129.58 248.91L123.922 245.683C123.72 245.569 123.65 245.312 123.765 245.11C123.88 244.91 124.135 244.84 124.338 244.954L129.996 248.18C132.136 249.402 134.802 250.925 137.544 250.866C137.794 250.865 137.967 251.047 137.972 251.278C137.976 251.51 137.792 251.701 137.56 251.706L137.402 251.707Z" fill="#392724"/>
<path d="M145.482 227.534C145.372 227.534 145.262 227.491 145.179 227.405C145.019 227.238 145.024 226.973 145.191 226.812L152.508 219.772C152.675 219.612 152.94 219.617 153.101 219.783C153.262 219.951 153.257 220.216 153.09 220.377L145.773 227.417C145.691 227.495 145.587 227.534 145.482 227.534Z" fill="#392724"/>
<path d="M132.86 235.888C132.75 235.888 132.64 235.845 132.558 235.76C132.397 235.592 132.403 235.327 132.57 235.166C133.878 233.91 134.937 232.365 135.961 230.871C136.207 230.513 136.452 230.156 136.701 229.802C140.124 224.924 144.26 220.614 148.994 216.992C149.179 216.852 149.442 216.886 149.582 217.07C149.723 217.254 149.688 217.518 149.504 217.659C144.839 221.228 140.762 225.476 137.387 230.283C137.141 230.635 136.897 230.991 136.653 231.346C135.605 232.874 134.521 234.455 133.151 235.771C133.07 235.85 132.965 235.888 132.86 235.888Z" fill="#392724"/>
<path d="M129.184 230.827C129.076 230.827 128.968 230.785 128.885 230.702C128.722 230.538 128.724 230.271 128.889 230.109L139.239 219.887C139.404 219.724 139.669 219.726 139.833 219.89C139.995 220.055 139.994 220.321 139.829 220.484L129.479 230.706C129.397 230.787 129.291 230.827 129.184 230.827Z" fill="#392724"/>
<path d="M168.665 219.473L168.509 219.442C168.293 219.356 168.189 219.112 168.275 218.897C169.696 215.357 171.306 211.346 174.079 208.286C176.571 205.538 179.838 203.728 182.406 202.458C182.614 202.355 182.865 202.441 182.968 202.648C183.071 202.856 182.986 203.108 182.778 203.211C180.276 204.448 177.098 206.207 174.702 208.85C172.029 211.798 170.517 215.566 169.054 219.21C168.988 219.374 168.831 219.473 168.665 219.473Z" fill="#392724"/>
<path d="M176.62 201.718C176.507 201.718 176.394 201.673 176.311 201.583C176.154 201.413 176.165 201.147 176.335 200.99C177.601 199.82 179.003 198.799 180.502 197.956C180.705 197.841 180.96 197.913 181.074 198.115C181.188 198.317 181.116 198.574 180.914 198.687C179.471 199.499 178.122 200.481 176.904 201.606C176.823 201.681 176.722 201.718 176.62 201.718Z" fill="#392724"/>
<path d="M165.067 215.29L164.896 215.254C164.685 215.16 164.589 214.911 164.683 214.7C166.296 211.076 168.53 207.811 171.323 204.996C171.487 204.833 171.753 204.83 171.916 204.994C172.081 205.157 172.082 205.423 171.919 205.587C169.198 208.329 167.021 211.51 165.45 215.041C165.381 215.197 165.228 215.29 165.067 215.29Z" fill="#392724"/>
<path d="M161.824 192.621C161.673 192.621 161.527 192.539 161.452 192.396C161.344 192.191 161.424 191.937 161.629 191.829C165.49 189.81 168.356 185.553 169.296 180.443C169.764 177.898 169.776 175.253 169.786 172.693L169.9 146.176C169.901 145.945 170.089 145.758 170.32 145.758H170.321C170.553 145.759 170.74 145.947 170.74 146.18L170.626 172.697C170.615 175.293 170.604 177.976 170.121 180.596C169.135 185.956 166.106 190.434 162.018 192.574L161.824 192.621Z" fill="#392724"/>
<path d="M145.201 204.697C145.057 204.697 144.917 204.624 144.839 204.491C141.036 198.04 140.434 190.341 139.853 182.896C139.274 175.492 138.675 167.835 134.895 161.532C134.776 161.334 134.84 161.075 135.039 160.957C135.238 160.835 135.495 160.903 135.615 161.101C139.497 167.573 140.103 175.33 140.689 182.83C141.264 190.18 141.858 197.781 145.562 204.065C145.679 204.265 145.613 204.522 145.413 204.64L145.201 204.697Z" fill="#392724"/>
<path d="M122.348 229.356C122.184 229.356 122.029 229.259 121.961 229.098C119.918 224.236 117.805 219.207 117.392 213.801C117.258 212.048 117.309 210.269 117.358 208.548C117.417 206.491 117.479 204.365 117.217 202.307C116.889 199.714 116.04 197.162 115.219 194.694C115.021 194.101 114.824 193.507 114.633 192.913C111.875 184.32 110.478 175.385 110.48 166.361C110.48 166.129 110.668 165.941 110.9 165.941C111.132 165.941 111.32 166.129 111.32 166.361C111.317 175.298 112.701 184.146 115.432 192.657C115.622 193.248 115.819 193.839 116.015 194.429C116.849 196.935 117.711 199.526 118.05 202.202C118.319 204.324 118.257 206.483 118.197 208.572C118.148 210.271 118.098 212.028 118.229 213.737C118.631 219.008 120.717 223.972 122.735 228.774C122.824 228.987 122.724 229.233 122.51 229.323L122.348 229.356Z" fill="#392724"/>
</svg>
