<svg width="600" height="483" viewBox="0 0 600 483" fill="none" xmlns="http://www.w3.org/2000/svg">
<g clip-path="url(#clip0_6_8169)">
<path opacity="0.3" d="M489.98 377.766C479.761 386.674 470.092 392.419 462.452 396.958C372.651 450.309 266.392 434.758 243.809 430.959C210.461 425.351 146.001 414.511 99.3968 369.131C28.8888 300.476 39.8679 192.312 94.5586 120.911C104.562 107.85 157.405 35.362 264.808 23.7371C329.808 16.7019 405.576 30.8911 460.445 68.9543C575.62 148.852 567.421 310.261 489.98 377.766Z" fill="#FFA71E"/>
<path d="M92.2763 137.322C91.8342 137.154 91.5256 136.787 91.5238 136.366C91.5172 134.975 91.5463 133.561 91.6099 132.162C91.6359 131.588 92.2281 131.148 92.9327 131.179C94.6414 131.248 94.0591 132.63 94.0766 136.394C94.0798 136.969 93.5102 137.429 92.805 137.421C92.6166 137.419 92.4377 137.384 92.2763 137.322Z" fill="#FFA71E"/>
<path d="M93.232 119.147C93.7709 116.512 94.4457 113.863 95.2375 111.274C95.4077 110.718 96.0998 110.388 96.7841 110.537C98.6464 110.95 97.3398 111.759 95.7504 119.525C95.6347 120.09 94.9773 120.464 94.2816 120.36C93.5766 120.254 93.1175 119.706 93.232 119.147ZM100.077 98.8484C101.267 96.3523 102.599 93.8489 103.992 91.4954C104.739 90.2296 107.014 91.2142 106.295 92.4265C104.908 94.7737 103.623 97.1891 102.459 99.6323C102.205 100.165 101.465 100.422 100.808 100.205C100.143 99.9858 99.8257 99.3758 100.077 98.8484ZM111.821 80.1669C113.6 77.9423 115.511 75.7485 117.503 73.6457C118.53 72.5623 120.555 73.8585 119.533 74.9368C117.582 76.997 115.709 79.1469 113.967 81.3257C113.05 82.4723 110.906 81.3097 111.821 80.1669ZM128.057 65.3717C127.555 64.9607 127.55 64.3013 128.046 63.8994C130.353 62.0268 132.784 60.2058 135.27 58.4868C136.548 57.6035 138.218 59.2023 136.941 60.0856C134.505 61.7697 132.123 63.554 129.862 65.3885C129.366 65.7911 128.557 65.7834 128.057 65.3717ZM147.708 52.179C147.317 51.6945 147.477 51.0506 148.065 50.7405C150.802 49.2963 153.643 47.9236 156.51 46.6606C157.986 46.0138 159.229 47.8468 157.753 48.4976C154.944 49.7353 152.159 51.08 149.478 52.4953C148.891 52.8049 148.098 52.6634 147.708 52.179ZM170.957 43.1343C170.666 43.0236 170.425 42.826 170.297 42.5642C170.033 42.0272 170.35 41.4248 171.005 41.2194C174.054 40.2619 177.186 39.3922 180.314 38.6334C180.987 38.4703 181.703 38.7847 181.915 39.3369C182.126 39.8887 181.753 40.4677 181.081 40.6311C178.015 41.3741 174.946 42.2271 171.957 43.1654C171.622 43.2704 171.262 43.251 170.957 43.1343ZM195.608 37.6911C195.237 37.5495 194.952 37.2674 194.875 36.9155C194.75 36.3475 195.211 35.8127 195.905 35.7205C199.135 35.2915 202.428 34.9618 205.694 34.7411C206.395 34.6923 207.022 35.1189 207.092 35.693C207.162 36.2658 206.651 36.7692 205.949 36.8165C202.749 37.0332 199.522 37.3564 196.358 37.7767C196.094 37.8119 195.835 37.7776 195.608 37.6911ZM220.437 35.4873C220.457 34.9126 221.044 34.4681 221.749 34.4939C225.027 34.6144 228.347 34.8432 231.616 35.1737C233.299 35.3477 233.019 37.4096 231.344 37.2405C228.143 36.9165 224.89 36.6926 221.678 36.5745C220.975 36.5492 220.418 36.0631 220.437 35.4873ZM300.183 62.8143C292.96 57.5384 291.236 57.516 292.395 56.2685C292.817 55.8134 293.616 55.7322 294.182 56.0829C296.812 57.7232 299.397 59.4696 301.867 61.2733C303.135 62.1984 301.455 63.7416 300.183 62.8143ZM245.91 38.3665C246.073 37.8094 246.761 37.4735 247.447 37.6164C250.637 38.2811 253.841 39.0563 256.969 39.9214C258.577 40.3664 257.793 42.3371 256.188 41.8928C253.122 41.0453 249.982 40.285 246.856 39.6338C246.163 39.4886 245.748 38.9179 245.91 38.3665ZM279.468 50.527C271.122 46.5618 269.41 46.8189 270.231 45.3949C270.751 44.4918 272.081 44.919 271.927 44.9153C274.911 46.0924 277.871 47.3768 280.724 48.731C281.338 49.0227 281.554 49.661 281.207 50.1567C280.876 50.6302 280.122 50.8287 279.468 50.527Z" fill="#FFA71E"/>
<path d="M314.636 75.2834C311.929 72.5224 310.187 71.5386 311.49 70.622C312.018 70.2499 312.825 70.3001 313.291 70.7412C316.229 73.503 317.725 74.6235 316.432 75.4611C316.044 75.7123 315.079 75.7345 314.636 75.2834Z" fill="#FFA71E"/>
<path d="M342.269 152.906C341.773 152.717 341.457 152.282 341.527 151.819C341.733 150.461 341.906 149.084 342.042 147.727C342.099 147.154 342.716 146.736 343.418 146.793C344.119 146.852 344.644 147.36 344.587 147.933C344.447 149.318 344.271 150.723 344.062 152.109C343.975 152.678 343.338 153.075 342.639 152.995C342.508 152.981 342.384 152.95 342.269 152.906Z" fill="#FFA71E"/>
<path d="M162.894 229.967C159.709 228.664 156.553 227.236 153.513 225.722C152.907 225.421 152.707 224.779 153.066 224.289C154.081 222.911 154.688 224.295 164.007 228.108C164.642 228.368 164.907 228.994 164.599 229.508C164.062 230.405 162.741 229.962 162.894 229.967ZM178.115 234.149C178.732 232.62 179.745 233.875 189.765 235.955C190.453 236.095 190.875 236.665 190.713 237.221C190.55 237.779 189.862 238.115 189.176 237.973C185.747 237.261 182.301 236.42 178.932 235.473C178.257 235.283 177.898 234.689 178.115 234.149ZM139.274 217.509C136.512 215.674 133.806 213.719 131.233 211.699C130.721 211.297 130.698 210.637 131.183 210.226C132.548 209.067 132.766 210.523 140.865 215.903C141.417 216.269 141.508 216.925 141.069 217.369C140.629 217.812 139.826 217.874 139.274 217.509ZM205.831 240.431C205.346 240.246 205.031 239.826 205.085 239.371C205.152 238.8 205.775 238.389 206.477 238.454C209.931 238.773 213.435 238.975 216.892 239.055C217.598 239.071 218.162 239.55 218.154 240.125C218.147 240.7 217.569 241.153 216.864 241.137C213.335 241.055 209.758 240.849 206.233 240.523C206.091 240.51 205.955 240.478 205.831 240.431ZM233.43 240.476C233.039 240.327 232.745 240.021 232.687 239.646C232.598 239.075 233.093 238.561 233.793 238.498C237.226 238.192 240.685 237.762 244.075 237.219C244.765 237.109 245.443 237.477 245.59 238.041C245.737 238.606 245.298 239.153 244.609 239.263C241.149 239.817 237.618 240.256 234.114 240.569C233.872 240.591 233.637 240.555 233.43 240.476ZM260.271 235.58C259.967 235.464 259.717 235.252 259.595 234.974C259.355 234.43 259.699 233.838 260.362 233.652C263.619 232.739 266.868 231.702 270.018 230.568C270.659 230.338 271.416 230.577 271.711 231.104C272.004 231.631 271.723 232.245 271.082 232.476C267.868 233.633 264.553 234.691 261.229 235.623C260.904 235.714 260.563 235.691 260.271 235.58ZM285.065 226.008C284.845 225.924 284.651 225.789 284.512 225.609C284.134 225.118 284.311 224.477 284.906 224.177C287.83 222.705 290.712 221.11 293.472 219.44C294.033 219.1 294.833 219.199 295.26 219.664C295.687 220.128 295.578 220.78 295.016 221.12C292.2 222.825 289.259 224.452 286.274 225.955C285.897 226.144 285.443 226.152 285.065 226.008ZM306.238 211.998C304.834 210.835 306.614 210.724 313.287 204.351C314.373 203.313 316.328 204.68 315.24 205.719C312.963 207.894 310.542 210.014 308.044 212.021C307.548 212.419 306.74 212.413 306.238 211.998ZM323.685 194.766C322.006 193.881 323.695 193.461 328.464 186.014C329.237 184.807 331.509 185.789 330.731 187.003C329.104 189.544 327.325 192.055 325.445 194.465C325.064 194.953 324.265 195.077 323.685 194.766ZM335.892 174.739C335.292 174.51 334.99 173.942 335.215 173.43C336.383 170.773 337.425 168.052 338.309 165.346C338.49 164.792 339.189 164.471 339.87 164.628C340.553 164.789 340.957 165.361 340.777 165.915C339.875 168.677 338.812 171.452 337.62 174.164C337.383 174.702 336.653 174.974 335.989 174.772C335.955 174.762 335.923 174.751 335.892 174.739Z" fill="#FFA71E"/>
<path d="M119.457 201.106C116.672 198.234 115.244 197.063 116.585 196.276C117.98 195.457 118.598 196.89 121.449 199.832C121.89 200.287 121.801 200.941 121.251 201.292C120.701 201.644 119.898 201.56 119.457 201.106Z" fill="#FFA71E"/>
<path d="M135.638 175.694L153.915 174.898C158.975 180.598 165.172 185.696 172.376 189.929C171.847 204.436 170.567 205.423 172.391 206.047L192.779 213.031C193.375 213.235 194.057 213.11 194.478 212.721L206.479 201.611C215.183 202.826 223.908 202.839 232.337 201.759L244.621 213.023C245.052 213.417 245.737 213.55 246.328 213.353L266.548 206.614C267.138 206.417 267.505 205.934 267.459 205.411L266.166 190.485C273.066 186.455 279.208 181.487 284.273 175.684L302.561 176.699C303.202 176.735 303.793 176.435 304.033 175.952L312.24 159.438C312.48 158.956 312.315 158.397 311.83 158.046L298.001 148.061C299.339 140.981 299.203 133.863 297.733 126.966C310.763 117.137 312.469 117.228 311.704 115.752C302.91 99.5784 303.601 98.286 301.599 98.3727L283.322 99.1686C278.262 93.4684 272.065 88.37 264.861 84.1368C265.39 69.6385 266.67 68.6442 264.847 68.0186C244.446 61.3685 244.049 60.1505 242.759 61.3455L230.758 72.4557C222.054 71.2401 213.329 71.2274 204.9 72.3071C192.772 61.6359 192.732 60.105 190.909 60.7129C171.043 67.6729 169.638 67.0429 169.778 68.6551L171.071 83.5813C164.171 87.611 158.028 92.5789 152.964 98.3827C135.482 97.7101 133.952 96.6062 133.203 98.1145C125.439 114.571 123.911 114.939 125.406 116.02L139.236 126.005C137.897 133.085 138.034 140.204 139.504 147.1C126.517 156.896 124.765 156.83 125.533 158.314C134.327 174.488 133.636 175.78 135.638 175.694Z" fill="#FFA71E"/>
<path opacity="0.69" d="M197.385 134.372C198.98 124.845 209.803 118.287 221.512 119.754C233.218 121.224 241.448 130.167 239.853 139.694C238.257 149.221 227.434 155.779 215.726 154.312C204.015 152.845 195.79 143.897 197.385 134.372ZM220.995 122.842C211.492 121.651 202.509 126.905 201.18 134.847C199.869 142.672 206.626 150.021 216.243 151.224C225.859 152.429 234.748 147.043 236.058 139.219C237.37 131.382 230.594 124.044 220.995 122.842Z" fill="white"/>
<path opacity="0.69" d="M196.447 177.398C193.559 176.296 190.787 174.998 188.184 173.524C187.401 173.081 187.135 172.256 187.509 171.581C187.554 171.501 187.608 171.423 187.671 171.347C188.264 170.641 189.458 170.473 190.331 170.967C193.325 172.662 196.56 174.108 199.944 175.269C225.441 184.002 254.443 174.765 265.63 154.664C265.916 154.151 266.19 153.63 266.452 153.103C277.041 131.796 264.223 107.401 238.12 98.453C212.052 89.524 182.185 99.371 171.612 120.619C165.327 133.269 169.109 142.227 168.387 143.524C167.607 144.927 165.046 144.607 164.749 143.078C163.128 134.72 164.402 125.883 168.943 117.724C188.537 82.5189 250.893 83.959 269.583 120.013C275.336 131.109 275.485 143.292 270.004 154.32C269.721 154.891 269.424 155.455 269.114 156.013C263.433 166.222 253.371 174.132 240.567 178.4C227.064 182.9 212.129 182.81 198.514 178.146C197.819 177.908 197.129 177.659 196.447 177.398Z" fill="white"/>
<path d="M340.993 81.1812C343.245 83.3794 345.936 85.2964 349.005 86.8267L349.155 92.994C349.171 93.6783 349.878 93.4136 358.089 95.7389C358.849 95.9417 358.765 95.3541 363.24 90.628C366.811 90.8705 370.347 90.6172 373.726 89.9225L379.102 94.1987C379.7 94.6732 379.972 94.072 387.764 90.9086C387.997 90.8098 388.128 90.5999 388.091 90.3858L387.041 84.2748C389.696 82.4102 392.01 80.1814 393.859 77.6402C400.974 77.3988 401.628 77.8058 401.878 77.165C404.447 70.1481 405.051 69.9573 404.407 69.5573L398.45 65.8535C398.743 62.8971 398.437 59.9685 397.598 57.1709L402.762 52.7195C403.335 52.2259 402.609 51.9996 398.789 45.5475C398.427 44.9614 398.013 45.4205 390.777 46.1463C388.525 43.948 385.834 42.0313 382.764 40.5009L382.615 34.3336C382.598 33.6484 381.892 33.914 373.68 31.5886C372.925 31.3867 373.027 31.9497 368.53 36.6998C364.959 36.457 361.422 36.7106 358.043 37.4052L352.667 33.1291C352.479 32.9792 352.196 32.9449 351.964 33.0435L344.006 36.4193C343.773 36.5179 343.641 36.7278 343.678 36.9421L344.729 43.0529C342.074 44.9175 339.759 47.1463 337.911 49.6874C330.796 49.9287 330.141 49.5216 329.892 50.1627C327.323 57.1768 326.719 57.3697 327.363 57.7703L333.32 61.474C333.027 64.4305 333.333 67.359 334.172 70.1566C329.347 74.4929 328.532 74.5892 328.904 75.1905L332.981 81.7801C333.345 82.369 333.793 81.9032 340.993 81.1812Z" fill="#FFA71E"/>
<path opacity="0.69" d="M356.574 63.1644C356.908 58.9036 361.341 55.6782 366.488 55.9546C371.633 56.2303 375.529 59.9018 375.196 64.163C374.863 68.4137 370.415 71.6484 365.281 71.3732C360.147 71.0971 356.242 67.416 356.574 63.1644ZM359.349 63.3128C359.116 66.2975 361.859 68.882 365.461 69.0756C371.248 69.3855 374.646 63.706 370.806 60.0852C366.982 56.4811 359.726 58.4902 359.349 63.3128Z" fill="white"/>
<path d="M319.054 75.2211C318.696 74.2273 318.38 73.2077 318.116 72.1905C318.009 71.7759 318.327 71.3679 318.827 71.2788C320.087 71.0543 319.908 72.2189 320.831 74.7823C320.977 75.1886 320.698 75.616 320.208 75.7371C319.719 75.8581 319.201 75.6292 319.054 75.2211Z" fill="#FFA71E"/>
<path d="M317.072 61.9661C317.175 59.93 317.469 57.8102 317.981 55.6888C318.222 54.691 320.039 54.997 319.799 55.9896C318.473 61.4856 319.508 62.8207 317.958 62.7657C317.443 62.747 317.05 62.3872 317.072 61.9661ZM322.364 46.99C321.903 46.8044 321.712 46.3452 321.936 45.9638C323.047 44.0733 324.349 42.239 325.806 40.5121C326.509 39.6805 328.029 40.5585 327.326 41.3915C325.924 43.0527 324.672 44.8169 323.603 46.6356C323.209 47.3046 322.252 46.9875 322.364 46.99ZM334.342 34.1947C334.224 34.1496 334.115 34.0837 334.026 33.997C333.693 33.6748 333.738 33.1905 334.127 32.9146C336.059 31.5459 338.135 30.2929 340.297 29.1903C340.733 28.9686 341.305 29.0809 341.573 29.4413C341.841 29.802 341.705 30.2752 341.269 30.4971C339.189 31.5581 337.192 32.764 335.333 34.081C335.049 34.2821 334.66 34.3163 334.342 34.1947ZM351.466 26.3938C351.234 26.3055 351.047 26.1389 350.967 25.9214C350.817 25.5162 351.092 25.0869 351.582 24.963C354.011 24.3465 356.519 23.8852 359.037 23.5923C359.545 23.5338 360.013 23.8259 360.084 24.246C360.155 24.6655 359.802 25.0537 359.295 25.1127C356.874 25.3943 354.461 25.8375 352.125 26.4304C351.898 26.4878 351.665 26.4698 351.466 26.3938ZM370.397 24.1356C370.455 23.7145 370.914 23.4114 371.422 23.459C373.956 23.6963 376.478 24.0992 378.921 24.6568C380.101 24.9211 379.614 26.4068 378.429 26.1367C376.079 25.6004 373.651 25.2127 371.214 24.9847C370.693 24.9343 370.341 24.5482 370.397 24.1356Z" fill="#FFA71E"/>
<path d="M392.53 31.5807C389.73 29.983 388.496 29.8181 389.124 28.9218C389.381 28.5553 389.938 28.4241 390.391 28.6431C391.471 29.1618 392.545 29.7248 393.582 30.3167C394.004 30.5571 394.11 31.035 393.82 31.3844C393.533 31.7281 392.961 31.8245 392.53 31.5807Z" fill="#FFA71E"/>
<path d="M412.525 58.6934C412.092 55.8898 411.418 55.0275 412.644 54.8172C413.146 54.731 413.636 54.998 413.74 55.4128C413.994 56.4257 414.204 57.4641 414.363 58.4987C414.428 58.9192 414.069 59.3038 413.561 59.3573C413.055 59.4113 412.589 59.1145 412.525 58.6934Z" fill="#FFA71E"/>
<path d="M349.905 101.095C350.388 99.8845 351.485 101.131 358.091 102.044C359.297 102.209 358.998 103.726 357.785 103.558C355.315 103.217 352.862 102.714 350.494 102.065C350.015 101.935 349.742 101.503 349.905 101.095ZM368.957 103.278C368.916 102.856 369.295 102.485 369.806 102.451C376.536 101.993 377.692 100.824 378.056 102.068C378.176 102.48 377.87 102.895 377.372 102.994C374.945 103.479 372.45 103.812 369.957 103.981C369.446 104.015 369 103.701 368.957 103.278ZM387.509 99.098C386.785 97.9687 388.616 98.1851 393.996 94.8587C394.979 94.2524 396.089 95.4811 395.105 96.089C393.1 97.3282 390.966 98.4479 388.762 99.4161C388.311 99.6145 387.749 99.4728 387.509 99.098ZM402.585 89.2119C401.383 88.4053 403.176 88.0117 406.551 83.208C407.167 82.3312 408.771 83.1011 408.154 83.9796C406.898 85.7668 405.463 87.4889 403.889 89.0986C403.566 89.4285 402.982 89.4776 402.585 89.2119ZM411.128 74.2718C412.961 68.8944 412.044 67.5812 413.582 67.7368C414.091 67.7878 414.452 68.1706 414.39 68.5915C414.086 70.6524 413.589 72.7038 412.911 74.6893C412.772 75.0971 412.26 75.3347 411.767 75.2192C411.276 75.1041 410.988 74.6803 411.128 74.2718Z" fill="#FFA71E"/>
<path d="M339.459 97.6937C338.404 97.1307 337.363 96.5271 336.365 95.8996C335.958 95.6431 335.878 95.1618 336.188 94.8239C336.968 93.9742 337.743 94.952 340.463 96.4032C340.894 96.633 341.018 97.1077 340.741 97.4642C340.459 97.8256 339.881 97.9199 339.459 97.6937Z" fill="#FFA71E"/>
<path opacity="0.69" d="M354.576 80.06C353.812 79.6985 353.658 78.9837 354.021 78.4641C354.406 77.9135 355.263 77.7269 355.921 78.0439C357.155 78.6349 358.477 79.1209 359.851 79.4881C360.151 79.5181 367.217 81.8523 375.25 78.4566C391.181 71.6979 389.298 52.2259 372.242 47.6733C362.43 45.0535 351.928 49.008 347.717 56.5763C343.476 64.1981 348.27 68.1641 345.336 68.7261C344.588 68.8703 343.841 68.4847 343.667 67.865C342.73 64.524 342.911 61.0244 344.189 57.7437C348.066 47.7811 361.025 42.259 373.096 45.482C386.085 48.9492 392.713 61.1081 386.888 71.575C382.191 80.0171 370.376 84.7184 358.997 81.6794L358.997 81.6793C357.457 81.2678 355.969 80.7231 354.576 80.06Z" fill="white"/>
<path d="M379.832 176.185C379.377 175.464 378.088 175.578 377.826 176.361C376.852 179.263 374.496 184.326 369.551 186.124C369.302 186.215 369.067 186.306 368.838 186.398C368.614 185.842 368.611 185.195 369.148 184.515C370.685 182.57 367.91 179.914 367.91 179.914C367.91 179.914 367.727 182.253 365.579 183.727C363.729 184.996 362.84 187.82 364.105 190.136C366.781 198.743 370.788 210.126 355.179 218.441C339.57 226.757 317.588 202.747 317.588 202.747L328.498 231.385C328.498 231.385 345.338 241.675 364.926 227.206C384.513 212.737 371.53 191.683 371.53 191.683C371.53 191.683 386.47 186.693 379.832 176.185Z" fill="url(#paint0_linear_6_8169)"/>
<path d="M314.854 160.669C314.854 160.669 319.377 143.873 296.141 148.32C296.141 148.32 284.862 146.794 284.289 155.608C284.289 155.608 277.018 159.575 282.341 167.203C282.341 167.203 260.734 160.293 251.32 175.974C241.906 191.656 250.56 200.284 259.631 202.532C259.631 202.532 252.282 205.587 255.761 212.487C259.239 219.386 276.858 224.25 287.265 215.859C287.265 215.859 316.879 219.1 316.286 201.78C316.286 201.78 330.059 194.415 315.593 180.101C301.126 165.788 314.854 160.669 314.854 160.669Z" fill="#263238"/>
<path d="M316.13 199.601C311.461 198.442 297.866 196.302 284.935 206.183C282.742 207.859 281.846 210.406 282.628 212.79C286.101 223.378 295.265 254.658 287.23 268.193C287.23 268.193 301.389 281.117 316.837 270.7C316.837 270.7 323.768 245.688 332.846 234.708C339.114 227.127 322.852 206.241 318.738 201.195C318.115 200.431 317.197 199.866 316.13 199.601Z" fill="#FFA71E"/>
<path d="M303.239 178.566C303.239 178.566 296.333 194.739 295.814 201.874C295.814 201.874 303.446 204.748 310.637 199.898C310.637 199.898 311.392 183.744 312.482 180.851L303.239 178.566Z" fill="url(#paint1_linear_6_8169)"/>
<path d="M312.83 156.515C312.83 156.515 330.892 177.444 320.095 183.523C309.299 189.602 296.441 174.729 296.441 174.729C296.441 174.729 292.251 163.274 296.633 159.388C301.015 155.502 312.83 156.515 312.83 156.515Z" fill="url(#paint2_linear_6_8169)"/>
<path d="M304.47 151.514C304.47 151.514 312.768 153.142 313.931 156.25C315.093 159.359 302.164 162.241 298.541 162.382L295.622 174.926C295.622 174.926 286.993 163.126 290.412 156.311C293.83 149.496 304.47 151.514 304.47 151.514Z" fill="url(#paint3_linear_6_8169)"/>
<path d="M299.943 173.189C299.943 173.189 292.913 166.447 290.116 170.842C287.32 175.237 296.444 178.537 299.603 176.379L299.943 173.189Z" fill="url(#paint4_linear_6_8169)"/>
<path d="M334.871 323.216C334.818 324.352 337.225 333.358 338.536 338.163C339.063 340.096 338.696 342.119 337.507 343.839L292.127 407.08C291.578 407.845 291.178 408.674 290.935 409.54C290.104 412.508 288.379 419.782 289.279 426.398L291.627 430.435L281.474 428.527L279.265 405.95L282.139 404.499C284.622 403.245 286.556 401.371 287.663 399.145C291.766 390.891 301.956 369.883 304.583 359.644C307.568 348.008 323.174 338.557 323.174 338.557L320.432 333.19L334.871 323.216Z" fill="url(#paint5_linear_6_8169)"/>
<path d="M270.19 420.758C270.19 420.758 275.673 413.56 276.318 410.759C276.963 407.957 278.759 403.009 282.139 404.499C282.139 404.499 283.732 418.109 283.183 423.427C282.634 428.745 290.444 428.573 290.444 428.573C290.444 428.573 292.596 428.824 294.172 430.129C295.26 431.03 294.482 432.593 292.946 432.675C290.391 432.811 286.331 432.847 282.069 432.165C280.579 431.927 279.475 430.877 279.385 429.623L278.26 413.959L271.344 421.19L270.19 420.758Z" fill="url(#paint6_linear_6_8169)"/>
<path d="M307.761 333.29C307.761 333.29 306.161 389.859 305.944 397.893C305.727 405.927 307.476 423.732 317.203 429.054L312.97 431.649C312.97 431.649 307.681 427.926 302.513 420.762C296.708 412.714 294.952 411.243 294.952 411.243L296.879 407.977C297.722 406.547 297.97 404.929 297.582 403.37C295.483 394.946 288.47 366.928 286.557 360.894C284.299 353.771 284.139 344.259 291.994 336.297C299.85 328.336 307.761 333.29 307.761 333.29Z" fill="url(#paint7_linear_6_8169)"/>
<path d="M298.779 434.198C298.477 434.201 298.221 434.022 298.178 433.774C297.854 431.888 296.507 424.328 295.404 422.37C294.141 420.127 290.015 410.691 295.406 409.889C295.406 409.889 308.81 426.104 311.383 428.29C313.956 430.476 317.203 429.054 317.203 429.054C317.203 429.054 319.71 429.667 321.6 431.668C322.5 432.62 321.662 434.017 320.202 434.029L311.174 434.1C308.552 434.121 306.194 432.802 305.219 430.787C303.63 427.5 300.9 422.679 297.718 420.54L299.371 433.648C299.408 433.94 299.134 434.196 298.779 434.198Z" fill="url(#paint8_linear_6_8169)"/>
<path d="M318.974 264.601C318.974 264.601 316.94 269.971 320.065 278.814L339.454 334.876C339.759 335.757 339.185 336.678 338.143 336.988C332.344 338.711 313.279 343.583 287.253 342.097C285.943 342.022 284.844 341.254 284.56 340.193C282.845 333.802 276.994 311.995 275.789 307.515C271.199 290.442 266.073 272.031 288.621 260.898C299.012 264.584 308.704 266.756 318.974 264.601Z" fill="#263238"/>
<path d="M283.085 208.296C283.085 208.296 261.025 223.476 255.55 244.218C250.076 264.961 287.786 267.166 287.786 267.166C287.786 267.166 292.905 262.432 298.983 264.121C305.06 265.809 299.453 255.86 292.342 255.886C285.231 255.912 288.525 260.567 278.466 256.795C268.667 253.119 262.61 241.753 287.612 224.522C289.061 223.524 290.218 222.25 290.914 220.799C295.771 210.675 291.919 204.039 283.085 208.296Z" fill="url(#paint9_linear_6_8169)"/>
<path d="M66.1713 348.481C64.2284 350.862 56.5064 404.76 55.2978 424.666C55.2161 426.012 56.5166 427.135 58.1444 427.135C59.5483 427.135 60.7428 426.288 60.9594 425.14L75.0835 350.195L66.1713 348.481Z" fill="#6C6C6C"/>
<path d="M128.256 348.481C130.199 350.862 137.921 404.76 139.129 424.666C139.211 426.012 137.911 427.135 136.283 427.135C134.879 427.135 133.685 426.288 133.468 425.14L119.344 350.195L128.256 348.481Z" fill="#6C6C6C"/>
<path d="M54.4902 344.275L54.4836 344.862C54.437 349.09 58.8364 352.559 64.3451 352.637L129.629 353.556C135.059 353.632 139.584 350.384 139.848 346.221L139.882 345.683C140.157 341.342 135.704 337.684 130.042 337.6L64.7297 336.631C59.1401 336.548 54.5375 339.984 54.4902 344.275Z" fill="#FFA71E"/>
<path d="M167.942 419.511C156.794 419.511 151.862 418.72 149.656 417.997C150.085 419.513 151.715 420.71 153.776 420.71H193.213C194.541 420.71 195.379 419.657 195.062 418.704C190.566 419.004 181.018 419.511 167.942 419.511Z" fill="#263238"/>
<path d="M195.062 418.704C194.998 418.512 194.904 418.323 194.739 418.149C191.735 414.973 185.7 409.985 177.491 410.081C165.466 410.221 161.273 411.301 151.928 410.142L149.723 416.192C149.499 416.809 149.494 417.425 149.656 417.997C151.862 418.719 156.794 419.511 167.942 419.511C181.018 419.511 190.566 419.003 195.062 418.704Z" fill="#263238"/>
<path d="M154.634 403.622L151.928 411.242C151.928 411.242 157.923 413.502 163.196 411.688L164.231 405.085L154.634 403.622Z" fill="#6C6C6C"/>
<path d="M236.371 414.712C227.681 420.494 223.24 422.437 220.977 423.021C222.453 423.975 224.625 424.057 226.231 422.989L256.974 402.536C258.009 401.847 257.87 400.596 256.905 400.021C253.626 402.584 246.565 407.93 236.371 414.712Z" fill="#263238"/>
<path d="M256.905 400.021C256.71 399.905 256.495 399.807 256.235 399.757C251.502 398.851 243.043 398.111 236.716 402.443C227.447 408.789 224.992 411.801 216.834 415.748L219.67 421.586C219.96 422.181 220.42 422.661 220.977 423.021C223.24 422.437 227.681 420.494 236.371 414.712C246.565 407.93 253.626 402.584 256.905 400.021Z" fill="#263238"/>
<path d="M96.7444 316.796C96.7444 316.796 163.485 321.309 177.177 326.645C190.868 331.982 166.004 406.779 166.004 406.779C166.004 406.779 162.276 408.264 153.983 406.129C153.983 406.129 162.488 350.932 156.159 338.963L83.8957 329.176L96.7444 316.796Z" fill="#263238"/>
<path d="M210.203 405.241C210.822 405.709 216.834 415.748 216.834 415.748C216.834 415.748 223.527 414.549 224.891 411.042L218.869 401.981L210.203 405.241Z" fill="url(#paint10_linear_6_8169)"/>
<path d="M56.5471 316.334C56.5471 316.334 54.3721 320.668 54.4609 326.426C54.5836 334.39 62.316 340.852 71.9226 341.249L150.821 344.228C152.488 344.291 153.897 345.246 154.315 346.583C156.169 352.521 165.231 370.756 209.53 407.142C210.709 408.11 212.545 408.275 213.948 407.541L220.254 404.242C220.916 403.896 221.128 403.178 220.732 402.618L174.793 337.663C172.38 334.366 168.502 331.984 163.991 331.029L96.7446 316.796L56.5471 316.334Z" fill="#263238"/>
<path d="M134.301 214.869C134.301 214.869 125.849 227.242 117.232 233.237L135.043 241.465C135.043 241.465 139.057 228.366 148.226 224.53L134.301 214.869Z" fill="url(#paint11_linear_6_8169)"/>
<path d="M55.1139 316.796C55.1139 316.796 76.4138 321.094 96.7444 316.796C96.7444 316.796 125.193 285.131 136.199 276.512C136.199 276.512 153.755 299.45 192.83 302.701L195.01 298.669C195.01 298.669 163.901 286.795 154.324 268.55C144.748 250.305 140.901 242.524 132.188 237.764C126.762 234.8 123.513 232.774 121.834 231.669C120.915 231.063 119.646 230.995 118.643 231.501C109.397 236.166 65.8891 260.839 55.1139 316.796Z" fill="#FFA71E"/>
<path d="M135.044 276.066C134.634 276.066 134.228 275.914 133.959 275.623C127.176 268.3 123.399 260.228 123.241 259.888C122.971 259.305 123.322 258.651 124.027 258.427C124.733 258.203 125.521 258.494 125.792 259.078C125.829 259.158 129.594 267.192 136.127 274.247C136.586 274.743 136.474 275.452 135.875 275.833C135.627 275.99 135.334 276.066 135.044 276.066Z" fill="#263238"/>
<path d="M190.481 296.563L194.879 295.592L208.234 293.032C209.841 292.723 211.531 292.959 212.927 293.687L224.41 299.668L192.7 299.624L190.481 296.563Z" fill="url(#paint12_linear_6_8169)"/>
<path d="M147.721 196.314C147.721 196.314 155.935 207.62 157.36 213.869C158.785 220.118 161.073 224.024 152.484 226.25C143.895 228.477 135.913 225.659 130.903 219.826C130.903 219.826 123.08 210.849 123.86 206.738C124.641 202.628 147.721 196.314 147.721 196.314Z" fill="url(#paint13_linear_6_8169)"/>
<path d="M133.19 214.99L134.301 214.869C134.301 214.869 128.485 207.591 132.291 205.786C136.096 203.981 151.605 199.552 154.299 194.494C156.895 189.619 153.011 184.11 148.328 182.961C148.032 182.888 147.719 183.033 147.612 183.273L147.337 183.887C147.149 184.308 146.438 184.325 146.221 183.914C146.015 183.524 145.341 183.508 145.129 183.895C144.299 185.41 141.811 187.998 134.353 190C123.77 192.841 117.178 197.258 117.989 203.484C118.041 203.879 117.568 204.151 117.13 203.99C116.265 203.674 114.953 203.624 113.43 205.003C110.782 207.401 112.856 212.647 120.089 216.36C120.433 216.536 120.494 216.938 120.187 217.155C119.105 217.923 117.583 219.633 122.476 221.158C127.482 222.718 130.214 222.19 131.223 221.855C131.495 221.765 131.65 221.532 131.594 221.294L130.309 215.838C130.242 215.556 130.477 215.286 130.821 215.249L133.19 214.99Z" fill="#263238"/>
<path d="M133.646 216.111C133.646 216.111 130.021 208.712 126.215 211.313C122.408 213.913 129.733 219.662 133.114 219.585L133.646 216.111Z" fill="url(#paint14_linear_6_8169)"/>
<path d="M191.135 303.256C191.187 303.258 191.239 303.259 191.292 303.259L259.484 303.203C261.169 303.202 262.534 302.071 262.532 300.678C262.531 299.284 261.158 298.133 259.476 298.158L191.284 298.214C189.599 298.215 188.234 299.345 188.236 300.739C188.238 302.088 189.522 303.19 191.135 303.256Z" fill="#6C6C6C"/>
<path d="M285.892 247.96C285.868 247.999 285.845 248.037 285.823 248.077L257.131 299.299C256.421 300.565 257.084 302.067 258.61 302.653C260.137 303.239 261.977 302.694 262.659 301.421L291.351 250.199C292.061 248.933 291.398 247.431 289.872 246.845C288.392 246.277 286.645 246.777 285.892 247.96Z" fill="#6C6C6C"/>
<path d="M459.416 411.441C459.416 411.441 460.167 414.897 460.464 419.001C460.591 420.75 459.026 422.269 456.92 422.438C449.588 423.027 432.897 424.114 422.24 422.841C420.747 422.663 420.154 421.144 421.257 420.293C425.652 416.903 436.264 410.309 453.732 408.867L459.416 411.441Z" fill="#263238"/>
<path d="M463.061 403.648L459.354 411.172C458.845 412.204 457.582 412.844 456.245 412.729C455.337 412.65 454.262 412.506 453.216 412.243C451.124 411.717 449.944 409.881 450.57 408.146L453.368 400.396L463.061 403.648Z" fill="url(#paint15_linear_6_8169)"/>
<path d="M526.443 417.433C526.443 417.433 519.019 422.576 516.127 429.174C515.331 430.988 517.013 432.899 519.344 432.899H534.621C536.857 432.899 538.571 431.234 538.182 429.411C537.208 424.855 534.402 417.452 526.443 417.433Z" fill="#263238"/>
<path d="M535.639 410.74C535.639 410.74 534.14 416.235 532.987 419.867C532.778 420.526 531.928 420.888 531.153 420.659C528.841 419.974 526.96 419.671 525.592 419.823C524.96 419.894 524.408 419.458 524.4 418.93L524.256 409.802L535.639 410.74Z" fill="url(#paint16_linear_6_8169)"/>
<path d="M496.157 287.078L451.002 401.141C451.002 401.141 459.663 405.838 463.789 405.642L517.423 313.974C517.423 313.974 526.808 370.457 522.261 411.007L537.623 411.977C537.623 411.977 562.602 308.35 543.682 272.858L496.157 287.078Z" fill="#263238"/>
<path d="M517.133 312.988C517.151 312.988 517.169 312.987 517.188 312.985C517.427 312.96 517.597 312.779 517.567 312.581L515.815 301.065C515.785 300.867 515.568 300.728 515.326 300.751C515.087 300.776 514.917 300.957 514.947 301.155L516.699 312.671C516.727 312.854 516.916 312.988 517.133 312.988Z" fill="#263238"/>
<path d="M487.692 186.708C487.692 186.708 524.276 189.398 519.1 210.982C519.1 210.982 539.323 242.493 548.778 279.613C549.085 280.821 548.108 281.999 546.639 282.208L485.714 290.845C484.033 291.083 482.412 290.215 481.985 288.849L467.428 242.265L461.756 263.923L443.732 260.035L458.905 196.393C458.905 196.393 461.022 187.107 487.692 186.708Z" fill="#FFA71E"/>
<path d="M467.119 240.182C467.15 240.182 467.183 240.179 467.216 240.173C467.46 240.129 467.615 239.929 467.562 239.726L462.484 220.418C462.43 220.216 462.192 220.088 461.944 220.131C461.7 220.175 461.544 220.375 461.597 220.578L466.676 239.886C466.722 240.062 466.91 240.182 467.119 240.182Z" fill="#263238"/>
<path d="M470.796 297.638C472.715 296.764 474.962 296.522 477.087 296.96L481.326 297.834C482.227 298.02 483.12 297.506 483.224 296.742L487.61 264.413C493.095 266.57 501.008 266.312 503.617 266.154L493.521 304.267H458.191L470.796 297.638Z" fill="url(#paint17_linear_6_8169)"/>
<path d="M376.925 227.514L377.993 224.575C378.607 222.884 380.117 221.516 382.096 220.857L401.41 214.426C401.41 214.426 401.701 212.375 397.329 210.982C392.956 209.588 393.978 205.533 393.978 205.533C393.978 205.533 399.952 207.79 408.697 211.368C413.698 213.414 416.504 217.028 417.992 219.747L461.756 263.923L456.618 266.847C449.861 270.691 440.568 268.802 436.729 262.805L413.02 225.161C401.117 228.122 389.072 228.688 376.925 227.514Z" fill="url(#paint18_linear_6_8169)"/>
<path d="M475.84 166.1L487.092 192.176C487.092 192.176 477.128 198.625 469.857 196.445L464.187 181.497C464.187 181.497 468.517 163.229 475.84 166.1Z" fill="url(#paint19_linear_6_8169)"/>
<path d="M442.257 156.735C442.257 157.137 453.096 182.142 453.096 182.142L470.207 176.714L464.187 151.751C464.187 151.751 442.257 150.008 442.257 156.735Z" fill="url(#paint20_linear_6_8169)"/>
<path d="M461.185 157.832L465.598 170.768C465.654 170.934 465.683 171.101 465.683 171.273C465.685 172.328 465.369 175.958 460.903 175.465C456.851 175.017 453.145 174.658 450.788 175.577C449.73 175.989 449.224 176.998 449.619 177.909C450.605 180.181 452.94 185.266 455.782 189.427C456.359 190.272 457.625 190.6 458.691 190.198C461.905 188.988 468.597 186.277 473.363 183.053C474.009 182.616 474.319 181.929 474.165 181.25C473.415 177.941 471.182 167.877 471.083 164.992C470.99 162.285 474.659 160.218 476.274 159.442C476.804 159.187 477.181 158.767 477.324 158.275C477.831 156.532 478.261 152.588 472.186 151.719C470.915 151.537 470.086 150.53 470.344 149.483C470.858 147.399 470.693 144.332 465.914 143.203C461.056 142.055 458 144.476 456.445 146.333C455.816 147.083 454.64 147.327 453.633 146.954C453.059 146.742 452.367 146.733 451.622 147.252C450.619 147.953 449.092 147.74 448.355 146.841C446.938 145.114 444.365 143.391 440.008 144.558C432.277 146.629 432.647 154.01 435.481 158.022C438.314 162.034 446.542 159.394 450.437 156.735C453.398 154.714 457.907 155.923 459.898 156.619C460.529 156.839 460.999 157.287 461.185 157.832Z" fill="#263238"/>
<path d="M472.633 169.715C472.633 169.715 468.057 162.549 471.083 160.299C474.108 158.048 479.234 158.417 479.096 164.021C478.925 170.991 472.633 169.715 472.633 169.715Z" fill="url(#paint21_linear_6_8169)"/>
<path d="M500.067 266.639C502.564 266.639 504.346 266.482 504.539 266.465L504.863 266.435L518.185 215.008C518.237 214.805 518.081 214.606 517.836 214.562C517.589 214.517 517.351 214.648 517.298 214.851L504.115 265.744C502.132 265.888 491.546 266.47 485.957 263.191L497.497 218.512L495.088 214.753C494.971 214.57 494.696 214.5 494.475 214.597C494.253 214.695 494.169 214.922 494.286 215.105L496.541 218.622L484.948 263.508L485.179 263.652C489.218 266.164 495.722 266.639 500.067 266.639Z" fill="#263238"/>
<path d="M130.28 426.861C129.989 426.861 129.693 426.799 129.408 426.67C128.287 426.159 127.77 424.782 128.252 423.594L174.586 309.474C175.068 308.287 176.367 307.739 177.489 308.249C178.609 308.76 179.127 310.137 178.645 311.324L132.311 425.444C131.951 426.33 131.136 426.861 130.28 426.861Z" fill="#263238"/>
<path d="M182.478 426.861C181.622 426.861 180.807 426.33 180.447 425.444L134.113 311.324C133.631 310.136 134.149 308.76 135.269 308.249C136.39 307.738 137.689 308.286 138.172 309.474L184.506 423.594C184.989 424.782 184.471 426.158 183.35 426.669C183.065 426.799 182.769 426.861 182.478 426.861Z" fill="#263238"/>
<path d="M444.738 426.861C444.447 426.861 444.151 426.799 443.867 426.669C442.746 426.159 442.228 424.782 442.71 423.594L489.044 309.474C489.527 308.287 490.825 307.739 491.947 308.249C493.068 308.76 493.586 310.137 493.103 311.324L446.769 425.444C446.41 426.33 445.595 426.861 444.738 426.861Z" fill="#263238"/>
<path d="M496.936 426.861C496.08 426.861 495.265 426.33 494.905 425.444L448.571 311.324C448.089 310.136 448.606 308.76 449.727 308.249C450.847 307.738 452.147 308.286 452.63 309.474L498.964 423.594C499.446 424.782 498.928 426.158 497.808 426.669C497.523 426.799 497.227 426.861 496.936 426.861Z" fill="#263238"/>
<path d="M513.181 302.873C513.398 302.227 513.103 301.559 512.378 301.052C511.652 300.544 510.572 300.251 509.432 300.251H123.273C121.774 300.251 120.378 300.692 119.571 301.421C118.763 302.15 118.655 303.066 119.283 303.851L123.468 309.078C124.426 310.275 126.503 311.042 128.787 311.042H506.782C508.907 311.042 510.734 310.172 511.138 308.968L513.181 302.873Z" fill="#263238"/>
<path d="M397.29 170.286C397.29 170.286 315.419 136.792 342.194 112.13C368.968 87.4691 418.885 97.3263 421.414 123.282C423.943 149.238 363.187 143.149 397.29 170.286Z" fill="white"/>
<path d="M348.294 118.5C348.294 118.878 348.664 119.183 349.119 119.183H385.252C385.707 119.183 386.077 118.878 386.077 118.5C386.077 118.122 385.707 117.816 385.252 117.816H349.119C348.664 117.816 348.294 118.122 348.294 118.5Z" fill="url(#paint22_linear_6_8169)"/>
<path d="M395.98 119.183H406.702C407.157 119.183 407.527 118.878 407.527 118.5C407.527 118.122 407.157 117.816 406.702 117.816H395.98C395.524 117.816 395.155 118.122 395.155 118.5C395.155 118.878 395.525 119.183 395.98 119.183Z" fill="url(#paint23_linear_6_8169)"/>
<path d="M347.077 124.556C347.077 124.934 347.446 125.24 347.902 125.24H361.469C361.925 125.24 362.295 124.934 362.295 124.556C362.295 124.179 361.925 123.873 361.469 123.873H347.902C347.446 123.873 347.077 124.179 347.077 124.556Z" fill="url(#paint24_linear_6_8169)"/>
<path d="M380.552 124.556C380.552 124.934 380.921 125.24 381.377 125.24H405.484C405.94 125.24 406.31 124.934 406.31 124.556C406.31 124.179 405.94 123.873 405.484 123.873H381.377C380.921 123.873 380.552 124.179 380.552 124.556Z" fill="url(#paint25_linear_6_8169)"/>
<path d="M346.685 131.297H382.751C383.206 131.297 383.576 130.992 383.576 130.614C383.576 130.236 383.206 129.93 382.751 129.93H346.685C346.229 129.93 345.859 130.236 345.859 130.614C345.859 130.992 346.229 131.297 346.685 131.297Z" fill="url(#paint26_linear_6_8169)"/>
<path d="M391.781 131.297H404.267C404.723 131.297 405.093 130.992 405.093 130.614C405.093 130.236 404.723 129.93 404.267 129.93H391.781C391.325 129.93 390.956 130.236 390.956 130.614C390.956 130.992 391.325 131.297 391.781 131.297Z" fill="url(#paint27_linear_6_8169)"/>
</g>
<defs>
<linearGradient id="paint0_linear_6_8169" x1="386.498" y1="156.023" x2="342.378" y2="241.419" gradientUnits="userSpaceOnUse">
<stop stop-color="#F9B776"/>
<stop offset="1" stop-color="#F47960"/>
</linearGradient>
<linearGradient id="paint1_linear_6_8169" x1="314.224" y1="209.891" x2="306.258" y2="188.527" gradientUnits="userSpaceOnUse">
<stop stop-color="#F9B776"/>
<stop offset="1" stop-color="#F47960"/>
</linearGradient>
<linearGradient id="paint2_linear_6_8169" x1="314.79" y1="160.724" x2="298.586" y2="203.092" gradientUnits="userSpaceOnUse">
<stop stop-color="#F9B776"/>
<stop offset="1" stop-color="#F47960"/>
</linearGradient>
<linearGradient id="paint3_linear_6_8169" x1="239.524" y1="129.073" x2="291.469" y2="170.9" gradientUnits="userSpaceOnUse">
<stop stop-color="#2B3582"/>
<stop offset="1" stop-color="#150E42"/>
</linearGradient>
<linearGradient id="paint4_linear_6_8169" x1="304.285" y1="156.706" x2="288.082" y2="199.074" gradientUnits="userSpaceOnUse">
<stop stop-color="#F9B776"/>
<stop offset="1" stop-color="#F47960"/>
</linearGradient>
<linearGradient id="paint5_linear_6_8169" x1="252.486" y1="461.835" x2="313.165" y2="329.562" gradientUnits="userSpaceOnUse">
<stop stop-color="#F9B776"/>
<stop offset="1" stop-color="#F47960"/>
</linearGradient>
<linearGradient id="paint6_linear_6_8169" x1="270.166" y1="418.611" x2="294.533" y2="418.331" gradientUnits="userSpaceOnUse">
<stop stop-color="#2B3582"/>
<stop offset="1" stop-color="#150E42"/>
</linearGradient>
<linearGradient id="paint7_linear_6_8169" x1="345.927" y1="370.95" x2="226.992" y2="418.39" gradientUnits="userSpaceOnUse">
<stop stop-color="#F9B776"/>
<stop offset="1" stop-color="#F47960"/>
</linearGradient>
<linearGradient id="paint8_linear_6_8169" x1="292.8" y1="422.078" x2="321.848" y2="421.744" gradientUnits="userSpaceOnUse">
<stop stop-color="#2B3582"/>
<stop offset="1" stop-color="#150E42"/>
</linearGradient>
<linearGradient id="paint9_linear_6_8169" x1="260.358" y1="272.833" x2="349.692" y2="112.868" gradientUnits="userSpaceOnUse">
<stop stop-color="#F9B776"/>
<stop offset="1" stop-color="#F47960"/>
</linearGradient>
<linearGradient id="paint10_linear_6_8169" x1="210.203" y1="408.865" x2="224.891" y2="408.865" gradientUnits="userSpaceOnUse">
<stop stop-color="#F9B776"/>
<stop offset="1" stop-color="#F47960"/>
</linearGradient>
<linearGradient id="paint11_linear_6_8169" x1="128.613" y1="237.478" x2="133.799" y2="221.683" gradientUnits="userSpaceOnUse">
<stop stop-color="#F9B776"/>
<stop offset="1" stop-color="#F47960"/>
</linearGradient>
<linearGradient id="paint12_linear_6_8169" x1="190.481" y1="296.284" x2="224.41" y2="296.284" gradientUnits="userSpaceOnUse">
<stop stop-color="#F9B776"/>
<stop offset="1" stop-color="#F47960"/>
</linearGradient>
<linearGradient id="paint13_linear_6_8169" x1="150.723" y1="206.727" x2="124.342" y2="238.505" gradientUnits="userSpaceOnUse">
<stop stop-color="#F9B776"/>
<stop offset="1" stop-color="#F47960"/>
</linearGradient>
<linearGradient id="paint14_linear_6_8169" x1="145.481" y1="202.377" x2="119.101" y2="234.154" gradientUnits="userSpaceOnUse">
<stop stop-color="#F9B776"/>
<stop offset="1" stop-color="#F47960"/>
</linearGradient>
<linearGradient id="paint15_linear_6_8169" x1="455.419" y1="414.764" x2="457.711" y2="393.124" gradientUnits="userSpaceOnUse">
<stop stop-color="#F9B776"/>
<stop offset="1" stop-color="#F47960"/>
</linearGradient>
<linearGradient id="paint16_linear_6_8169" x1="528.114" y1="422.144" x2="530.347" y2="401.056" gradientUnits="userSpaceOnUse">
<stop stop-color="#F9B776"/>
<stop offset="1" stop-color="#F47960"/>
</linearGradient>
<linearGradient id="paint17_linear_6_8169" x1="503.617" y1="284.34" x2="458.191" y2="284.34" gradientUnits="userSpaceOnUse">
<stop stop-color="#F9B776"/>
<stop offset="1" stop-color="#F47960"/>
</linearGradient>
<linearGradient id="paint18_linear_6_8169" x1="461.756" y1="237.19" x2="376.925" y2="237.19" gradientUnits="userSpaceOnUse">
<stop stop-color="#F9B776"/>
<stop offset="1" stop-color="#F47960"/>
</linearGradient>
<linearGradient id="paint19_linear_6_8169" x1="492.297" y1="197.794" x2="468.394" y2="168.177" gradientUnits="userSpaceOnUse">
<stop stop-color="#F9B776"/>
<stop offset="1" stop-color="#F47960"/>
</linearGradient>
<linearGradient id="paint20_linear_6_8169" x1="449.481" y1="156.911" x2="477.973" y2="202.435" gradientUnits="userSpaceOnUse">
<stop stop-color="#F9B776"/>
<stop offset="1" stop-color="#F47960"/>
</linearGradient>
<linearGradient id="paint21_linear_6_8169" x1="503.39" y1="188.841" x2="479.488" y2="159.224" gradientUnits="userSpaceOnUse">
<stop stop-color="#F9B776"/>
<stop offset="1" stop-color="#F47960"/>
</linearGradient>
<linearGradient id="paint22_linear_6_8169" x1="363.011" y1="104.126" x2="402.897" y2="304.456" gradientUnits="userSpaceOnUse">
<stop stop-color="#53D8FF"/>
<stop offset="1" stop-color="#3840F7"/>
</linearGradient>
<linearGradient id="paint23_linear_6_8169" x1="395.3" y1="97.697" x2="435.187" y2="298.03" gradientUnits="userSpaceOnUse">
<stop stop-color="#53D8FF"/>
<stop offset="1" stop-color="#3840F7"/>
</linearGradient>
<linearGradient id="paint24_linear_6_8169" x1="349.532" y1="106.81" x2="389.418" y2="307.14" gradientUnits="userSpaceOnUse">
<stop stop-color="#53D8FF"/>
<stop offset="1" stop-color="#3840F7"/>
</linearGradient>
<linearGradient id="paint25_linear_6_8169" x1="386.159" y1="99.5172" x2="426.045" y2="299.847" gradientUnits="userSpaceOnUse">
<stop stop-color="#53D8FF"/>
<stop offset="1" stop-color="#3840F7"/>
</linearGradient>
<linearGradient id="paint26_linear_6_8169" x1="357.353" y1="105.253" x2="397.239" y2="305.583" gradientUnits="userSpaceOnUse">
<stop stop-color="#53D8FF"/>
<stop offset="1" stop-color="#3840F7"/>
</linearGradient>
<linearGradient id="paint27_linear_6_8169" x1="388.839" y1="98.9838" x2="428.725" y2="299.314" gradientUnits="userSpaceOnUse">
<stop stop-color="#53D8FF"/>
<stop offset="1" stop-color="#3840F7"/>
</linearGradient>
<clipPath id="clip0_6_8169">
<rect width="600" height="483" fill="white"/>
</clipPath>
</defs>
</svg>
