<svg width="360" height="333" viewBox="0 0 360 333" fill="none" xmlns="http://www.w3.org/2000/svg">
<path d="M83.9491 90.6945C83.6755 91.5504 78.9696 98.4075 72.1865 100.742C65.4034 103.076 60.3554 105.652 62.2404 108.726C64.1254 111.801 72.4594 110.123 72.4594 110.123C72.4594 110.123 55.5509 127.127 71.4686 136.843C90.882 148.692 111.168 106.278 111.168 106.278L83.9491 90.6945Z" fill="#EBEBEB"/>
<path d="M107.973 112.1C107.92 112.18 101.519 108.653 93.6792 104.222C85.8362 99.7888 79.5233 96.1318 79.5766 96.0519C79.6291 95.9719 86.0285 99.4991 93.8714 103.931C101.712 108.362 108.026 112.021 107.973 112.1Z" fill="#E0E0E0"/>
<path d="M104.967 117.186C104.915 117.267 98.0014 113.514 89.5277 108.805C81.0511 104.094 74.2241 100.212 74.2759 100.132C74.3278 100.051 81.2398 103.803 89.717 108.514C98.1915 113.223 105.02 117.106 104.967 117.186Z" fill="#E0E0E0"/>
<path d="M101.34 122.006C101.287 122.086 93.5251 117.861 84.0031 112.571C74.4782 107.278 66.8023 102.924 66.8541 102.843C66.9067 102.762 74.6676 106.986 84.1925 112.28C93.7137 117.57 101.392 121.926 101.34 122.006Z" fill="#E0E0E0"/>
<path d="M96.8112 127.97C96.7572 128.049 90.7409 124.655 83.3753 120.39C76.0068 116.123 70.079 112.601 70.133 112.521C70.187 112.441 76.2019 115.835 83.5704 120.102C90.9367 124.367 96.8652 127.89 96.8112 127.97Z" fill="#E0E0E0"/>
<path d="M91.4904 133.729C91.4343 133.807 85.8319 130.463 78.979 126.262C72.1239 122.058 66.6137 118.589 66.6699 118.51C66.726 118.431 72.3269 121.775 79.182 125.978C86.035 130.18 91.5466 133.651 91.4904 133.729Z" fill="#E0E0E0"/>
<path d="M84.6965 137.724C84.6842 137.745 84.3826 137.612 83.8483 137.355C83.3134 137.099 82.548 136.713 81.6106 136.224C79.7342 135.246 77.1746 133.841 74.4077 132.201C71.6407 130.559 69.192 128.994 67.4482 127.825C66.5762 127.241 65.8778 126.758 65.4026 126.416C64.9274 126.074 64.6711 125.876 64.6862 125.857C64.7014 125.838 64.985 126 65.4862 126.309C66.0449 126.659 66.7526 127.101 67.5972 127.628C69.377 128.745 71.8438 130.276 74.6057 131.915C77.3676 133.552 79.9013 134.987 81.7416 136.017C82.6128 136.506 83.3429 136.916 83.9189 137.241C84.4315 137.532 84.7087 137.704 84.6965 137.724Z" fill="#E0E0E0"/>
<path d="M68.7759 110.511C68.7485 110.592 66.96 110.067 65.0239 108.92C63.0814 107.783 61.8106 106.505 61.879 106.448C61.9546 106.373 63.3161 107.518 65.2212 108.633C67.1199 109.759 68.8176 110.415 68.7759 110.511Z" fill="#E0E0E0"/>
<path d="M109.907 105.395C109.917 105.402 109.834 105.528 109.665 105.763C109.47 106.024 109.22 106.361 108.91 106.778C108.25 107.658 107.275 108.917 106.056 110.463C103.618 113.556 100.179 117.78 96.2532 122.354C92.3241 126.928 88.6536 130.984 85.9486 133.881C84.5964 135.329 83.4912 136.492 82.715 137.286C82.3457 137.66 82.0476 137.962 81.8165 138.196C81.6077 138.401 81.4939 138.505 81.4845 138.497C81.4752 138.489 81.5702 138.37 81.761 138.15C81.9785 137.906 82.2593 137.59 82.6078 137.199C83.3789 136.346 84.4452 135.167 85.7513 133.724C88.4037 130.789 92.0397 126.712 95.9659 122.142C99.8885 117.571 103.358 113.373 105.848 110.318C107.072 108.815 108.072 107.587 108.795 106.699C109.128 106.297 109.397 105.973 109.605 105.721C109.793 105.501 109.896 105.389 109.907 105.395Z" fill="#E0E0E0"/>
<path d="M104.404 101.767C104.484 101.825 97.7414 109.964 89.3455 119.944C80.9467 129.928 74.075 137.972 73.9951 137.914C73.9152 137.856 80.6566 129.719 89.0554 119.735C97.4513 109.755 104.324 101.71 104.404 101.767Z" fill="#E0E0E0"/>
<path d="M96.7277 97.7428C96.7385 97.7488 96.6629 97.8874 96.5088 98.1471C96.3324 98.4348 96.1035 98.8078 95.8183 99.2726C95.2078 100.244 94.2955 101.635 93.1111 103.321C90.7553 106.699 87.2503 111.215 83.119 116.011C78.9905 120.811 75.0867 125.026 72.2693 128.082C70.8732 129.58 69.7335 130.804 68.9127 131.685C68.5296 132.084 68.2222 132.406 67.986 132.653C67.7707 132.872 67.6534 132.984 67.644 132.976C67.6339 132.968 67.7326 132.842 67.9299 132.609C68.1531 132.351 68.4432 132.016 68.8039 131.599C69.6031 130.701 70.7127 129.454 72.0713 127.927C74.8375 124.831 78.709 120.593 82.8317 115.799C86.9573 111.01 90.4875 106.526 92.8944 103.188C94.104 101.522 95.0487 100.154 95.6959 99.204C96.0055 98.7532 96.2539 98.3908 96.4455 98.1125C96.6197 97.864 96.7169 97.7368 96.7277 97.7428Z" fill="#E0E0E0"/>
<path d="M90.4291 94.4055C90.5098 94.4628 84.7627 101.5 77.5951 110.121C70.4247 118.745 64.5487 125.688 64.4681 125.631C64.3875 125.574 70.1331 118.538 77.3035 109.914C84.4711 101.292 90.3485 94.3482 90.4291 94.4055Z" fill="#E0E0E0"/>
<path d="M85.6908 91.551C85.7124 91.5637 85.4964 91.8973 85.086 92.4901C84.8844 92.7891 84.6288 93.1488 84.3048 93.5497C83.9844 93.9526 83.6366 94.4242 83.1996 94.907C82.3615 95.9007 81.2793 97.0216 80.0035 98.199C78.7118 99.3605 77.2171 100.569 75.5445 101.716C73.8619 102.849 72.1677 103.807 70.5823 104.601C68.9861 105.375 67.5058 105.995 66.2299 106.437C65.6006 106.679 65.0102 106.845 64.499 107.008C63.9893 107.173 63.5414 107.291 63.1728 107.38C62.4384 107.564 62.0301 107.655 62.0237 107.633C62.0172 107.61 62.4118 107.476 63.131 107.253C63.4918 107.146 63.9309 107.01 64.4321 106.828C64.9346 106.649 65.5149 106.469 66.1341 106.214C67.3891 105.745 68.8471 105.107 70.4218 104.324C71.9849 103.522 73.6589 102.565 75.3271 101.441C76.9846 100.305 78.4728 99.1148 79.7674 97.9746C81.0454 96.8191 82.1398 95.7235 82.998 94.7552C83.4458 94.285 83.8058 93.8268 84.1399 93.4365C84.4776 93.0482 84.749 92.7012 84.9679 92.4148C85.4129 91.8474 85.6692 91.5384 85.6908 91.551Z" fill="#E0E0E0"/>
<path d="M118.628 82.1797H28.3356V90.9983H118.628V82.1797Z" fill="#E0E0E0"/>
<path d="M56.9614 90.6945C56.6878 91.5504 51.9811 98.4075 45.1987 100.742C38.4156 103.076 33.3677 105.652 35.2526 108.726C37.1376 111.801 45.4716 110.123 45.4716 110.123C45.4716 110.123 28.5631 127.127 44.4809 136.843C63.8942 148.692 84.1802 106.278 84.1802 106.278L56.9614 90.6945Z" fill="#F5F5F5"/>
<path d="M80.9849 112.1C80.9316 112.18 74.5315 108.653 66.6914 104.222C58.8485 99.7888 52.5355 96.1318 52.5888 96.0519C52.6421 95.9719 59.0407 99.4991 66.8837 103.931C74.7238 108.362 81.0382 112.021 80.9849 112.1Z" fill="#E0E0E0"/>
<path d="M77.9796 117.186C77.927 117.267 71.0143 113.514 62.5399 108.805C54.0634 104.094 47.2363 100.212 47.2882 100.132C47.3407 100.051 54.2527 103.803 62.7293 108.514C71.203 113.223 78.0322 117.106 77.9796 117.186Z" fill="#E0E0E0"/>
<path d="M74.3523 122.006C74.2997 122.086 66.5374 117.861 57.0154 112.571C47.4905 107.278 39.8146 102.924 39.8664 102.843C39.919 102.762 47.6798 106.986 57.2047 112.28C66.726 117.57 74.4041 121.926 74.3523 122.006Z" fill="#E0E0E0"/>
<path d="M69.8235 127.97C69.7695 128.049 63.7531 124.655 56.3875 120.39C49.0191 116.123 43.0913 112.601 43.1453 112.521C43.1993 112.441 49.2142 115.835 56.5827 120.102C63.9483 124.367 69.8775 127.89 69.8235 127.97Z" fill="#E0E0E0"/>
<path d="M64.5026 133.729C64.4465 133.807 58.8441 130.463 51.9912 126.262C45.1361 122.058 39.6259 118.589 39.6821 118.51C39.7382 118.431 45.3391 121.775 52.1942 125.978C59.0472 130.18 64.5588 133.651 64.5026 133.729Z" fill="#E0E0E0"/>
<path d="M57.7087 137.724C57.6965 137.745 57.3948 137.612 56.8606 137.355C56.3256 137.099 55.561 136.713 54.6228 136.224C52.7465 135.246 50.1869 133.841 47.4199 132.201C44.653 130.559 42.2042 128.994 40.4604 127.825C39.5885 127.241 38.8901 126.758 38.4149 126.416C37.9397 126.074 37.6834 125.876 37.6985 125.857C37.7136 125.838 37.9973 126 38.4984 126.309C39.0571 126.659 39.7649 127.101 40.6094 127.628C42.3893 128.745 44.856 130.276 47.6179 131.915C50.3798 133.552 52.9135 134.987 54.7538 136.017C55.625 136.506 56.3551 136.916 56.9311 137.241C57.4438 137.532 57.721 137.704 57.7087 137.724Z" fill="#E0E0E0"/>
<path d="M41.7881 110.511C41.7607 110.592 39.9722 110.067 38.0369 108.92C36.0943 107.783 34.8235 106.505 34.8919 106.448C34.9675 106.373 36.329 107.518 38.2342 108.633C40.1321 109.759 41.8298 110.415 41.7881 110.511Z" fill="#E0E0E0"/>
<path d="M82.9195 105.395C82.9296 105.402 82.8461 105.528 82.6769 105.763C82.4825 106.024 82.2326 106.361 81.9223 106.778C81.2621 107.658 80.2872 108.917 79.0682 110.463C76.631 113.556 73.1916 117.78 69.2654 122.354C65.3364 126.928 61.6658 130.984 58.9615 133.881C57.6094 135.329 56.5042 136.492 55.728 137.286C55.3586 137.66 55.0606 137.962 54.8294 138.196C54.6206 138.401 54.5069 138.505 54.4975 138.497C54.4882 138.489 54.5832 138.37 54.774 138.15C54.9914 137.906 55.2722 137.59 55.6207 137.199C56.3918 136.346 57.4582 135.167 58.7642 133.724C61.4167 130.789 65.0527 126.712 68.9789 122.142C72.9022 117.571 76.3711 113.373 78.8609 110.318C80.0849 108.815 81.085 107.587 81.8078 106.699C82.1412 106.297 82.4098 105.973 82.6186 105.721C82.805 105.501 82.9087 105.389 82.9195 105.395Z" fill="#E0E0E0"/>
<path d="M77.4166 101.767C77.4965 101.825 70.7537 109.964 62.3578 119.944C53.959 129.928 47.0873 137.972 47.0074 137.914C46.9274 137.856 53.6688 129.719 62.0676 119.735C70.4635 109.755 77.3359 101.71 77.4166 101.767Z" fill="#E0E0E0"/>
<path d="M69.7399 97.7428C69.7507 97.7488 69.6751 97.8874 69.5211 98.1471C69.3447 98.4348 69.1157 98.8078 68.8306 99.2726C68.22 100.244 67.3078 101.635 66.1234 103.321C63.7675 106.699 60.2626 111.215 56.1312 116.011C52.0027 120.811 48.0989 125.026 45.2815 128.082C43.8854 129.58 42.7457 130.804 41.9249 131.685C41.5426 132.084 41.2344 132.406 40.9983 132.653C40.783 132.872 40.6656 132.984 40.6562 132.976C40.6469 132.968 40.7455 132.842 40.9421 132.609C41.1653 132.351 41.4554 132.016 41.8162 131.599C42.6154 130.701 43.7242 129.454 45.0835 127.927C47.8498 124.831 51.7212 120.593 55.8439 115.799C59.9702 111.01 63.4997 106.526 65.9074 103.188C67.117 101.522 68.0616 100.154 68.7089 99.204C69.0178 98.7532 69.2669 98.3908 69.4584 98.1125C69.6319 97.864 69.7291 97.7368 69.7399 97.7428Z" fill="#E0E0E0"/>
<path d="M63.4414 94.4055C63.522 94.4628 57.775 101.5 50.6074 110.121C43.4369 118.745 37.561 125.688 37.4803 125.631C37.3997 125.574 43.1453 118.538 50.3158 109.914C57.4834 101.292 63.3607 94.3482 63.4414 94.4055Z" fill="#E0E0E0"/>
<path d="M58.703 91.551C58.7246 91.5637 58.5086 91.8973 58.0982 92.4901C57.8966 92.7891 57.641 93.1488 57.317 93.5497C56.9966 93.9526 56.6489 94.4242 56.2118 94.907C55.3738 95.9007 54.2916 97.0216 53.0158 98.199C51.7241 99.3605 50.2294 100.569 48.5568 101.716C46.8742 102.849 45.18 103.807 43.5946 104.601C41.9983 105.375 40.518 105.995 39.2422 106.437C38.6129 106.679 38.0225 106.845 37.512 107.008C37.0015 107.173 36.5537 107.291 36.1858 107.38C35.4514 107.564 35.0431 107.655 35.0366 107.633C35.0302 107.61 35.4247 107.476 36.144 107.253C36.5047 107.146 36.9439 107.01 37.445 106.828C37.9469 106.649 38.5279 106.469 39.1464 106.214C40.4014 105.745 41.8594 105.107 43.434 104.324C44.9971 103.522 46.6711 102.565 48.3394 101.441C49.9968 100.305 51.485 99.1148 52.7796 97.9746C54.0583 96.8191 55.152 95.7235 56.0102 94.7552C56.4581 94.285 56.8181 93.8268 57.1522 93.4365C57.4898 93.0482 57.7613 92.7012 57.9802 92.4148C58.4251 91.8474 58.6814 91.5384 58.703 91.551Z" fill="#E0E0E0"/>
<path d="M76.4215 38.0533H70.6471V43.3946H76.4215V38.0533Z" fill="#E0E0E0"/>
<path d="M100.578 50.5028H46.7589V81.9227H100.578V50.5028Z" fill="#F5F5F5"/>
<path d="M46.7589 50.5028C46.7589 50.5028 54.9979 42.5414 75.6554 42.8598C96.3129 43.1781 100.577 50.5028 100.577 50.5028H46.7589Z" fill="#F5F5F5"/>
<path d="M100.37 51.0143C100.37 51.1082 88.2713 51.1841 73.35 51.1841C58.4237 51.1841 46.3277 51.1082 46.3277 51.0143C46.3277 50.9204 58.4237 50.8444 73.35 50.8444C88.2713 50.8438 100.37 50.9204 100.37 51.0143Z" fill="#E0E0E0"/>
<path d="M112.488 55.3153H100.37V51.0143H112.488C113.586 51.0143 114.478 51.8381 114.478 52.8544V53.4745C114.478 54.4915 113.587 55.3153 112.488 55.3153Z" fill="#E0E0E0"/>
<path d="M34.8408 51.0143H46.9584V55.3153H34.8408C33.7421 55.3153 32.8507 54.4915 32.8507 53.4745V52.8544C32.8507 51.8381 33.7413 51.0143 34.8408 51.0143Z" fill="#E0E0E0"/>
<path d="M79.5262 39.5937H67.8103C67.0234 39.5937 66.3854 39.0036 66.3854 38.2757V37.8315C66.3854 37.1035 67.0234 36.5135 67.8103 36.5135H79.5269C80.3138 36.5135 80.9518 37.1035 80.9518 37.8315V38.2757C80.951 39.0036 80.3131 39.5937 79.5262 39.5937Z" fill="#E0E0E0"/>
<path d="M336.007 241.146H25.1438V318.281H336.007V241.146Z" fill="#F5F5F5"/>
<path d="M338.155 237.944H21.1889V247.33H338.155V237.944Z" fill="#E0E0E0"/>
<path d="M119.2 259.911H37.4364V283.268H119.2V259.911Z" fill="#EBEBEB"/>
<path d="M78.318 273.539C79.4819 273.539 80.4255 272.666 80.4255 271.589C80.4255 270.513 79.4819 269.64 78.318 269.64C77.1541 269.64 76.2106 270.513 76.2106 271.589C76.2106 272.666 77.1541 273.539 78.318 273.539Z" fill="#E0E0E0"/>
<path d="M119.2 288.192H37.4364V311.549H119.2V288.192Z" fill="#EBEBEB"/>
<path d="M78.318 301.82C79.4819 301.82 80.4255 300.947 80.4255 299.87C80.4255 298.794 79.4819 297.921 78.318 297.921C77.1541 297.921 76.2106 298.794 76.2106 299.87C76.2106 300.947 77.1541 301.82 78.318 301.82Z" fill="#E0E0E0"/>
<path d="M319.48 259.911H237.717V283.268H319.48V259.911Z" fill="#EBEBEB"/>
<path d="M278.598 273.539C279.762 273.539 280.706 272.666 280.706 271.589C280.706 270.513 279.762 269.64 278.598 269.64C277.434 269.64 276.491 270.513 276.491 271.589C276.491 272.666 277.434 273.539 278.598 273.539Z" fill="#E0E0E0"/>
<path d="M319.48 288.192H237.717V311.549H319.48V288.192Z" fill="#EBEBEB"/>
<path d="M278.598 301.82C279.762 301.82 280.706 300.947 280.706 299.87C280.706 298.794 279.762 297.921 278.598 297.921C277.434 297.921 276.491 298.794 276.491 299.87C276.491 300.947 277.434 301.82 278.598 301.82Z" fill="#E0E0E0"/>
<path d="M121.738 318.414C121.738 318.414 121.728 318.07 121.723 317.386C121.72 316.693 121.714 315.675 121.707 314.345C121.699 311.66 121.686 307.718 121.671 302.659C121.653 292.502 121.626 277.865 121.594 259.911V259.777H121.739C150.497 259.766 187.828 259.753 228.491 259.738H228.499H228.686V259.911C228.681 280.628 228.677 300.409 228.673 318.414V318.575H228.498C197.163 318.543 170.456 318.516 151.574 318.497C142.156 318.478 134.692 318.463 129.574 318.453C127.029 318.445 125.069 318.438 123.736 318.433C123.081 318.429 122.582 318.426 122.239 318.424C121.904 318.421 121.738 318.414 121.738 318.414C121.738 318.414 121.918 318.407 122.26 318.405C122.608 318.403 123.114 318.399 123.777 318.395C125.118 318.391 127.09 318.384 129.65 318.375C134.778 318.365 142.255 318.35 151.69 318.331C170.544 318.312 197.21 318.285 228.499 318.253L228.325 318.414C228.321 300.409 228.316 280.628 228.311 259.911L228.498 260.084H228.491C187.826 260.07 150.496 260.056 121.738 260.046L121.884 259.911C121.851 277.83 121.825 292.439 121.807 302.576C121.791 307.648 121.779 311.6 121.77 314.292C121.763 315.633 121.758 316.66 121.754 317.358C121.749 318.051 121.738 318.414 121.738 318.414Z" fill="#EBEBEB"/>
<path d="M73.615 209.932C73.615 214.01 70.0409 217.316 65.6323 217.316C61.2238 217.316 57.649 214.01 57.649 209.932C57.649 205.853 61.223 202.548 65.6323 202.548C70.0409 202.548 73.615 205.854 73.615 209.932Z" fill="#E0E0E0"/>
<path d="M81.2074 217.195C85.6165 217.195 89.1907 213.888 89.1907 209.81C89.1907 205.732 85.6165 202.425 81.2074 202.425C76.7983 202.425 73.224 205.732 73.224 209.81C73.224 213.888 76.7983 217.195 81.2074 217.195Z" fill="#F5F5F5"/>
<path d="M50.0566 217.194C54.4652 217.194 58.0392 213.888 58.0392 209.81C58.0392 205.732 54.4652 202.426 50.0566 202.426C45.6479 202.426 42.0739 205.732 42.0739 209.81C42.0739 213.888 45.6479 217.194 50.0566 217.194Z" fill="#F5F5F5"/>
<path d="M39.4459 211.399H91.5883C91.5883 211.399 91.0519 231.288 77.053 233.721L76.8348 237.945H53.3527V233.645C53.3527 233.645 39.4452 230.352 39.4459 211.399Z" fill="#EBEBEB"/>
<path d="M77.053 233.721C77.053 233.791 71.7307 233.847 65.1665 233.847C58.6001 233.847 53.2786 233.791 53.2786 233.721C53.2786 233.652 58.6001 233.595 65.1665 233.595C71.7307 233.595 77.053 233.652 77.053 233.721Z" fill="white"/>
<path d="M89.5694 221.648C89.5694 221.648 89.4564 221.665 89.2354 221.686C89.0042 221.704 88.6781 221.73 88.2526 221.764C87.3922 221.809 86.0926 221.913 84.4668 221.594C83.6604 221.434 82.769 221.161 81.9173 220.651C81.0749 220.144 80.2483 219.408 79.7551 218.4C79.5146 217.897 79.38 217.328 79.3908 216.736C79.4174 216.146 79.6241 215.536 80.0503 215.037C80.2634 214.79 80.537 214.574 80.8632 214.437C81.1901 214.303 81.5645 214.256 81.9274 214.306C82.6546 214.42 83.3011 214.879 83.6734 215.492C84.0506 216.115 84.1133 216.872 83.9729 217.584C83.8346 218.303 83.502 218.989 83.075 219.629C82.2002 220.898 80.8452 221.967 79.1921 222.53C77.5476 223.109 75.6108 223.102 73.8634 222.477C72.99 222.166 72.162 221.709 71.4427 221.113C70.745 220.511 70.0783 219.798 69.7997 218.886C69.6614 218.437 69.6535 217.94 69.8076 217.482C69.9574 217.025 70.2842 216.593 70.7638 216.36C71.7394 215.899 72.9619 216.241 73.6639 216.969C74.3882 217.701 74.7108 218.672 74.8807 219.627C75.0485 220.593 75.0046 221.594 74.785 222.565C74.3429 224.502 73.1851 226.363 71.4118 227.615C70.5319 228.244 69.5059 228.707 68.4166 228.973C67.3243 229.229 66.1774 229.297 65.0455 229.182C62.7811 228.963 60.6283 227.952 59.189 226.377C58.4748 225.591 57.9413 224.651 57.7526 223.639C57.5561 222.632 57.7944 221.554 58.4194 220.722C59.0213 219.887 60.0559 219.266 61.1705 219.319C62.2548 219.378 63.2887 219.981 63.7344 220.894C63.9677 221.346 63.9821 221.879 63.8402 222.348C63.6905 222.82 63.3888 223.238 63.0166 223.565C62.2714 224.226 61.3217 224.618 60.3734 224.851C56.5531 225.815 52.4894 224.743 50.0026 222.454C49.3877 221.877 48.8837 221.201 48.5964 220.455C48.299 219.713 48.2573 218.901 48.4553 218.162C48.6497 217.424 49.0889 216.741 49.7369 216.304C50.3791 215.857 51.2021 215.711 51.9494 215.805C52.7011 215.899 53.3981 216.251 53.8524 216.774C54.3067 217.293 54.5508 217.939 54.5573 218.57C54.5695 219.204 54.3247 219.809 53.9467 220.283C53.5702 220.762 53.0784 221.124 52.5737 221.406C51.557 221.974 50.485 222.244 49.5151 222.47C48.5374 222.687 47.628 222.814 46.8065 222.886C45.1613 223.029 43.8754 222.949 43.0135 222.866C42.151 222.777 41.706 222.682 41.706 222.682C41.706 222.682 41.8198 222.689 42.0401 222.716C42.2597 222.744 42.588 222.78 43.0193 222.815C43.8797 222.882 45.162 222.945 46.7964 222.789C47.6122 222.709 48.5158 222.576 49.4849 222.353C50.4475 222.122 51.5059 221.847 52.4952 221.286C52.9862 221.008 53.4593 220.654 53.8157 220.195C54.1735 219.74 54.3996 219.169 54.3852 218.573C54.3766 217.978 54.1411 217.367 53.712 216.881C53.2836 216.393 52.6327 216.066 51.9242 215.981C51.2201 215.895 50.4518 216.036 49.8571 216.454C49.2559 216.863 48.8419 217.506 48.6605 218.208C48.4754 218.913 48.5165 219.679 48.8023 220.387C49.0795 221.099 49.5655 221.749 50.1646 222.308C52.5902 224.531 56.5834 225.578 60.3086 224.628C61.2317 224.401 62.1425 224.018 62.8402 223.396C63.1886 223.089 63.4608 222.707 63.5947 222.284C63.72 221.859 63.7078 221.397 63.4997 220.993C63.1066 220.176 62.1425 219.612 61.1604 219.563C60.6665 219.532 60.174 219.675 59.7355 219.899C59.3057 220.139 58.9248 220.466 58.6418 220.862C58.0572 221.645 57.834 222.644 58.0205 223.599C58.1998 224.557 58.7088 225.459 59.3993 226.218C60.7896 227.737 62.8769 228.722 65.0786 228.933C66.1781 229.045 67.2926 228.979 68.351 228.731C69.4066 228.473 70.3973 228.026 71.249 227.419C72.9662 226.208 74.0952 224.398 74.5265 222.516C74.7403 221.572 74.7842 220.601 74.623 219.666C74.461 218.739 74.1434 217.806 73.476 217.134C72.8402 216.465 71.7206 216.17 70.8862 216.569C70.4758 216.768 70.187 217.141 70.051 217.552C69.912 217.965 69.9163 218.41 70.043 218.826C70.2958 219.666 70.9344 220.361 71.609 220.945C72.3031 221.522 73.1045 221.967 73.9512 222.271C75.6468 222.881 77.5195 222.892 79.1158 222.335C80.7214 221.793 82.0454 220.756 82.8994 219.526C83.3162 218.905 83.6417 218.239 83.7763 217.551C83.9138 216.87 83.8526 216.153 83.507 215.579C83.1643 215.007 82.5588 214.577 81.8993 214.473C81.5695 214.426 81.234 214.467 80.9359 214.587C80.6393 214.71 80.3858 214.906 80.1857 215.137C79.7846 215.6 79.5816 216.183 79.5535 216.743C79.5406 217.307 79.6651 217.857 79.8941 218.344C80.3642 219.321 81.1663 220.048 81.9886 220.551C82.8194 221.057 83.6928 221.333 84.4906 221.499C86.094 221.83 87.39 221.743 88.2497 221.714C88.6752 221.691 89.0028 221.673 89.2339 221.661C89.455 221.648 89.5694 221.648 89.5694 221.648Z" fill="white"/>
<path d="M277.487 11.4172H221.895V50.6693H277.487V11.4172Z" fill="#F5F5F5"/>
<path d="M156.174 93.5051L221.895 50.6686H277.487L346.04 93.5051V99.4758H156.174V93.5051Z" fill="#F5F5F5"/>
<path d="M346.04 93.5051H156.174V99.4758H346.04V93.5051Z" fill="#EBEBEB"/>
<path d="M233.619 51.0482L205.229 93.5051H252.418L244.039 51.0482V11.4172H233.389L233.619 51.0482Z" fill="#FAFAFA"/>
<path d="M276.697 51.0482C276.697 51.1441 264.252 51.2214 248.903 51.2214C233.548 51.2214 221.105 51.1435 221.105 51.0482C221.105 50.9523 233.548 50.8751 248.903 50.8751C264.252 50.8744 276.697 50.9523 276.697 51.0482Z" fill="#E0E0E0"/>
<path d="M25.1438 151.638H5.71463V169.61H25.1438V151.638Z" fill="#FAFAFA"/>
<path d="M25.1438 171.767H5.71463V189.739H25.1438V171.767Z" fill="#FAFAFA"/>
<path d="M47.0347 151.638H27.6055V169.61H47.0347V151.638Z" fill="#FAFAFA"/>
<path d="M47.0347 171.767H27.6055V189.739H47.0347V171.767Z" fill="#FAFAFA"/>
<path d="M68.9263 151.638H49.4971V169.61H68.9263V151.638Z" fill="#FAFAFA"/>
<path d="M68.9263 171.767H49.4971V189.739H68.9263V171.767Z" fill="#FAFAFA"/>
<path d="M90.8172 151.638H71.388V169.61H90.8172V151.638Z" fill="#FAFAFA"/>
<path d="M90.8172 171.767H71.388V189.739H90.8172V171.767Z" fill="#FAFAFA"/>
<path d="M112.373 151.638H92.9441V169.61H112.373V151.638Z" fill="#FAFAFA"/>
<path d="M112.373 171.767H92.9441V189.739H112.373V171.767Z" fill="#FAFAFA"/>
<path d="M134.264 151.638H114.835V169.61H134.264V151.638Z" fill="#FAFAFA"/>
<path d="M134.264 171.767H114.835V189.739H134.264V171.767Z" fill="#FAFAFA"/>
<path d="M156.156 151.638H136.727V169.61H156.156V151.638Z" fill="#FAFAFA"/>
<path d="M156.156 171.767H136.727V189.739H156.156V171.767Z" fill="#FAFAFA"/>
<path d="M178.047 151.638H158.617V169.61H178.047V151.638Z" fill="#FAFAFA"/>
<path d="M178.047 171.767H158.617V189.739H178.047V171.767Z" fill="#FAFAFA"/>
<path d="M199.603 151.638H180.174V169.61H199.603V151.638Z" fill="#FAFAFA"/>
<path d="M199.603 171.767H180.174V189.739H199.603V171.767Z" fill="#FAFAFA"/>
<path d="M221.494 151.638H202.064V169.61H221.494V151.638Z" fill="#FAFAFA"/>
<path d="M221.494 171.767H202.064V189.739H221.494V171.767Z" fill="#FAFAFA"/>
<path d="M243.385 151.638H223.956V169.61H243.385V151.638Z" fill="#FAFAFA"/>
<path d="M243.385 171.767H223.956V189.739H243.385V171.767Z" fill="#FAFAFA"/>
<path d="M265.276 151.638H245.847V169.61H265.276V151.638Z" fill="#FAFAFA"/>
<path d="M265.276 171.767H245.847V189.739H265.276V171.767Z" fill="#FAFAFA"/>
<path d="M286.832 151.638H267.403V169.61H286.832V151.638Z" fill="#FAFAFA"/>
<path d="M286.832 171.767H267.403V189.739H286.832V171.767Z" fill="#FAFAFA"/>
<path d="M308.723 151.638H289.294V169.61H308.723V151.638Z" fill="#FAFAFA"/>
<path d="M308.723 171.767H289.294V189.739H308.723V171.767Z" fill="#FAFAFA"/>
<path d="M330.615 151.638H311.185V169.61H330.615V151.638Z" fill="#FAFAFA"/>
<path d="M330.615 171.767H311.185V189.739H330.615V171.767Z" fill="#FAFAFA"/>
<path d="M352.506 151.638H333.076V169.61H352.506V151.638Z" fill="#FAFAFA"/>
<path d="M352.506 171.767H333.076V189.739H352.506V171.767Z" fill="#FAFAFA"/>
<path d="M337.409 318.282C337.409 318.378 266.928 318.455 180.007 318.455C93.0557 318.455 22.5907 318.377 22.5907 318.282C22.5907 318.187 93.0557 318.109 180.007 318.109C266.928 318.108 337.409 318.186 337.409 318.282Z" fill="#263238"/>
<path d="M196.313 98.9549L203.056 98.9196C205.435 101.715 208.653 103.955 212.529 105.27C223.675 109.052 236.025 103.759 240.113 93.4485C244.201 83.1381 238.479 71.7149 227.333 67.9333C216.187 64.1518 203.837 69.4445 199.749 79.7548C198.042 84.0598 198.051 88.5574 199.445 92.6133L199.439 92.604L196.313 98.9549Z" fill="white"/>
<path d="M196.313 98.9549C196.313 98.9549 196.391 98.8111 196.53 98.536C196.673 98.2543 196.878 97.85 197.145 97.3206C197.682 96.2496 198.472 94.6759 199.5 92.6299L199.382 92.6373L199.389 92.6466C199.408 92.6759 199.45 92.6845 199.482 92.6666C199.508 92.6512 199.518 92.6213 199.51 92.5946C198.678 90.1185 198.097 86.7019 198.933 82.8131C199.14 81.8461 199.429 80.8544 199.825 79.8601C200.272 78.885 200.696 77.8594 201.331 76.8924C202.529 74.931 204.169 73.0349 206.258 71.4332C208.341 69.8308 210.867 68.5254 213.69 67.7309C216.507 66.9337 219.618 66.6526 222.745 67.0349C228.997 67.7435 235.243 71.3959 238.578 77.0289C240.264 79.8913 241.237 83.0722 241.258 86.2124C241.319 89.3486 240.566 92.4102 239.198 95.0988C237.838 97.7981 235.806 100.079 233.497 101.841C231.178 103.604 228.557 104.838 225.921 105.555C223.281 106.276 220.632 106.479 218.179 106.298C217.872 106.27 217.567 106.242 217.266 106.215C216.963 106.192 216.664 106.162 216.374 106.096C215.788 105.988 215.213 105.881 214.648 105.775C213.548 105.452 212.467 105.193 211.488 104.786C207.529 103.226 204.813 100.872 203.107 98.8843C203.095 98.8697 203.075 98.8617 203.057 98.8617C200.881 98.889 199.206 98.9103 198.063 98.9243C197.498 98.933 197.067 98.9396 196.764 98.9443C196.469 98.9489 196.313 98.9549 196.313 98.9549C196.313 98.9549 196.451 98.9596 196.736 98.9616C197.034 98.9629 197.459 98.9649 198.016 98.9676C199.169 98.9703 200.86 98.9736 203.056 98.9782L203.005 98.9556C204.701 100.97 207.421 103.36 211.409 104.953C212.394 105.368 213.484 105.636 214.593 105.965C215.164 106.074 215.744 106.184 216.336 106.297C216.629 106.363 216.931 106.395 217.237 106.419C217.542 106.448 217.85 106.477 218.159 106.506C220.638 106.698 223.319 106.501 225.991 105.778C228.661 105.059 231.319 103.817 233.67 102.035C236.014 100.255 238.077 97.9459 239.459 95.2114C240.85 92.4881 241.616 89.3852 241.557 86.2044C241.537 83.0196 240.553 79.7941 238.843 76.891C238.655 76.5241 238.407 76.1904 238.169 75.8527L237.454 74.8431L236.644 73.904C236.378 73.589 236.11 73.2766 235.799 73.0009C235.499 72.7159 235.2 72.4308 234.902 72.1471C234.613 71.8554 234.261 71.6263 233.944 71.3639C233.615 71.1148 233.304 70.8444 232.962 70.6146C232.614 70.3929 232.266 70.1711 231.919 69.9506C229.121 68.2197 225.953 67.1348 222.783 66.7672C219.613 66.3835 216.46 66.6733 213.608 67.4858C210.752 68.2963 208.197 69.6236 206.094 71.2507C203.985 72.877 202.332 74.8004 201.128 76.7871C200.491 77.7675 200.066 78.8051 199.62 79.7915C199.225 80.7971 198.937 81.8001 198.733 82.7771C197.909 86.7072 198.52 90.1484 199.381 92.6319L199.501 92.58L199.495 92.5707C199.475 92.542 199.434 92.5327 199.403 92.5513C199.391 92.558 199.382 92.568 199.377 92.5787C198.374 94.6566 197.603 96.2543 197.078 97.3426C196.825 97.87 196.633 98.2723 196.498 98.5527C196.371 98.8231 196.313 98.9549 196.313 98.9549Z" fill="#263238"/>
<path d="M208.985 87.4671L211.987 84.3955L218.357 89.1248L227.817 79.0748L230.912 81.8621L218.213 94.7851L208.985 87.4671Z" fill="#FFA71E"/>
<path d="M175.022 96.8863L120.739 99.8813C117.356 111.028 116.872 121.789 120.565 132.833C121.62 135.985 123.176 139.314 126.758 141.147C129.962 142.788 134.122 142.885 138.023 142.846C156.938 142.66 175.843 140.607 194.089 136.758C190.494 134.911 188.428 131.533 188.903 128.276C190.457 131.464 194.87 133.645 199.421 133.777C203.971 133.909 208.47 132.132 211.257 129.422C195.821 122.922 175.39 110.166 175.022 96.8863Z" fill="#263238"/>
<path d="M210.935 117.971C210.934 117.983 210.772 117.986 210.462 117.982C210.154 117.975 209.697 117.973 209.111 117.941C207.938 117.89 206.242 117.771 204.159 117.508C200.018 116.982 194.222 115.806 188.592 112.872C185.797 111.394 183.37 109.617 181.434 107.761C179.497 105.903 178.029 103.993 177.029 102.277C176.024 100.563 175.422 99.0775 175.104 98.0305C174.92 97.5137 174.848 97.0935 174.771 96.8171C174.704 96.538 174.676 96.3902 174.689 96.3875C174.724 96.3795 174.88 96.9629 175.244 97.9906C175.602 99.0189 176.237 100.477 177.261 102.158C178.28 103.842 179.753 105.714 181.681 107.538C183.609 109.361 186.014 111.109 188.778 112.571C194.346 115.474 200.083 116.681 204.198 117.266C206.266 117.559 207.954 117.715 209.121 117.807C209.673 117.851 210.12 117.885 210.466 117.913C210.774 117.939 210.935 117.959 210.935 117.971Z" fill="#263238"/>
<path d="M220.329 215.123C220.129 215.173 204.319 210.523 204.319 210.523L199.349 214.151L212.905 219.599C212.905 219.599 218.889 220.23 221.759 221.795C224.628 223.36 220.329 215.123 220.329 215.123Z" fill="#263238"/>
<path d="M217.899 216.023C217.899 216.023 217.925 216.169 218.004 216.429C218.462 217.954 220.716 223.404 230.074 226.545C241.032 230.223 264.925 231.251 268.885 230.674C276.558 229.558 283.721 224.022 283.424 222.636" fill="#263238"/>
<path d="M283.425 222.636C283.159 224.89 268.276 225.237 250.181 223.411C232.087 221.585 217.634 218.277 217.9 216.024C218.166 213.77 233.05 213.423 251.144 215.249C269.238 217.075 283.691 220.383 283.425 222.636Z" fill="#455A64"/>
<path d="M260.447 221.067C261.65 219.947 263.357 219.283 262.464 217.984C262.22 218.421 261.017 218.412 260.598 218.752C260.18 219.091 259.02 218.687 258.451 218.549C257.747 218.378 257.365 217.722 257.408 217.13C257.45 216.538 257.818 215.998 258.186 215.486C258.937 214.441 259.729 213.416 260.559 212.413C260.861 212.048 261.176 211.669 261.248 211.235C261.32 210.8 261.065 210.295 260.545 210.167C260.079 210.052 259.597 210.266 259.189 210.48C257.394 211.42 255.638 212.611 254.981 214.257C254.568 215.292 254.624 216.43 254.125 217.44C253.625 218.449 252.184 219.32 250.978 218.832C250.236 218.533 249.881 217.841 249.687 217.189C249.492 216.537 249.381 215.841 248.893 215.298C248.406 214.755 247.365 214.458 246.738 214.896C245.668 215.642 247.035 217.283 246.118 218.152C245.727 218.521 245.028 218.595 244.454 218.447C243.879 218.301 243.403 217.975 242.962 217.643C239.944 215.376 237.725 212.42 236.632 209.212C236.493 208.802 236.366 208.378 236.072 208.025C235.778 207.672 235.271 207.398 234.75 207.454C233.92 207.544 233.547 208.355 233.546 209.031C233.541 210.942 235.06 212.611 236.51 214.124C238.179 215.865 239.848 217.606 241.516 219.348L243.792 221.779L253.572 223.769L260.192 222.505L260.447 221.067Z" fill="#FF725E"/>
<g opacity="0.6">
<path d="M260.447 221.067C261.65 219.947 263.357 219.283 262.464 217.984C262.22 218.421 261.017 218.412 260.598 218.752C260.18 219.091 259.02 218.687 258.451 218.549C257.747 218.378 257.365 217.722 257.408 217.13C257.45 216.538 257.818 215.998 258.186 215.486C258.937 214.441 259.729 213.416 260.559 212.413C260.861 212.048 261.176 211.669 261.248 211.235C261.32 210.8 261.065 210.295 260.545 210.167C260.079 210.052 259.597 210.266 259.189 210.48C257.394 211.42 255.638 212.611 254.981 214.257C254.568 215.292 254.624 216.43 254.125 217.44C253.625 218.449 252.184 219.32 250.978 218.832C250.236 218.533 249.881 217.841 249.687 217.189C249.492 216.537 249.381 215.841 248.893 215.298C248.406 214.755 247.365 214.458 246.738 214.896C245.668 215.642 247.035 217.283 246.118 218.152C245.727 218.521 245.028 218.595 244.454 218.447C243.879 218.301 243.403 217.975 242.962 217.643C239.944 215.376 237.725 212.42 236.632 209.212C236.493 208.802 236.366 208.378 236.072 208.025C235.778 207.672 235.271 207.398 234.75 207.454C233.92 207.544 233.547 208.355 233.546 209.031C233.541 210.942 235.06 212.611 236.51 214.124C238.179 215.865 239.848 217.606 241.516 219.348L243.792 221.779L253.572 223.769L260.192 222.505L260.447 221.067Z" fill="white"/>
</g>
<path d="M263.219 224.605C263.434 223.386 264.631 222.319 266.112 222.028C266.611 221.929 267.147 221.908 267.592 221.702C268.038 221.496 268.347 221.005 268.06 220.66C267.777 220.319 267.157 220.347 266.658 220.414C265.516 220.566 264.375 220.718 263.233 220.87C264.153 220.014 265.073 219.16 265.992 218.305C266.356 217.966 266.741 217.504 266.477 217.109C266.221 216.727 265.553 216.716 265.028 216.802C263.231 217.096 261.584 217.944 260.496 219.136C259.524 220.201 258.973 221.533 257.736 222.4C256.619 223.184 255.001 223.474 253.575 223.147C252.148 222.82 250.957 221.886 250.51 220.744C250.321 220.259 250.242 219.718 249.828 219.335C249.042 218.609 247.442 218.92 246.754 219.707C246.066 220.493 246.054 221.534 246.151 222.495C243.009 218.708 239.499 214.749 234.251 213.079C233.328 212.786 232.327 212.569 231.352 212.708C230.377 212.847 229.444 213.425 229.287 214.215C229.104 215.133 229.974 215.975 230.914 216.515C232.705 217.542 234.902 217.988 236.838 218.827C238.774 219.666 240.878 220.92 240.757 222.69C240.757 222.69 250.204 224.016 254.883 224.13C259.563 224.242 263.219 224.605 263.219 224.605Z" fill="#FF725E"/>
<g opacity="0.8">
<path d="M263.219 224.605C263.434 223.386 264.631 222.319 266.112 222.028C266.611 221.929 267.147 221.908 267.592 221.702C268.038 221.496 268.347 221.005 268.06 220.66C267.777 220.319 267.157 220.347 266.658 220.414C265.516 220.566 264.375 220.718 263.233 220.87C264.153 220.014 265.073 219.16 265.992 218.305C266.356 217.966 266.741 217.504 266.477 217.109C266.221 216.727 265.553 216.716 265.028 216.802C263.231 217.096 261.584 217.944 260.496 219.136C259.524 220.201 258.973 221.533 257.736 222.4C256.619 223.184 255.001 223.474 253.575 223.147C252.148 222.82 250.957 221.886 250.51 220.744C250.321 220.259 250.242 219.718 249.828 219.335C249.042 218.609 247.442 218.92 246.754 219.707C246.066 220.493 246.054 221.534 246.151 222.495C243.009 218.708 239.499 214.749 234.251 213.079C233.328 212.786 232.327 212.569 231.352 212.708C230.377 212.847 229.444 213.425 229.287 214.215C229.104 215.133 229.974 215.975 230.914 216.515C232.705 217.542 234.902 217.988 236.838 218.827C238.774 219.666 240.878 220.92 240.757 222.69C240.757 222.69 250.204 224.016 254.883 224.13C259.563 224.242 263.219 224.605 263.219 224.605Z" fill="white"/>
</g>
<path d="M228.607 230.077C228.6 230.117 228.069 230.083 227.245 229.865C226.423 229.649 225.317 229.216 224.239 228.521C223.163 227.823 222.344 227.011 221.842 226.371C221.337 225.731 221.12 225.281 221.158 225.261C221.256 225.193 222.344 226.892 224.454 228.238C226.544 229.607 228.643 229.969 228.607 230.077Z" fill="#263238"/>
<path d="M226.819 231.649C226.812 231.689 226.28 231.654 225.456 231.436C224.634 231.22 223.528 230.787 222.45 230.092C221.374 229.394 220.555 228.583 220.052 227.942C219.547 227.302 219.33 226.852 219.368 226.832C219.466 226.764 220.554 228.463 222.664 229.809C224.755 231.179 226.854 231.541 226.819 231.649Z" fill="#263238"/>
<path d="M290.127 225.025C290.151 225.035 290.084 225.218 289.944 225.542C289.809 225.867 289.573 226.323 289.246 226.869C288.599 227.962 287.518 229.392 286.036 230.725C284.548 232.054 282.969 233.007 281.766 233.57C281.166 233.854 280.665 234.058 280.31 234.172C279.955 234.291 279.756 234.347 279.747 234.325C279.722 234.27 280.485 233.969 281.639 233.355C282.792 232.744 284.316 231.779 285.775 230.476C287.228 229.169 288.32 227.792 289.017 226.745C289.719 225.697 290.069 225.001 290.127 225.025Z" fill="#263238"/>
<path d="M293.584 226.397C293.626 226.413 293.479 226.878 293.107 227.578C292.737 228.277 292.118 229.201 291.267 230.098C290.413 230.993 289.5 231.679 288.796 232.107C288.093 232.537 287.613 232.73 287.591 232.694C287.526 232.601 289.325 231.631 290.984 229.869C292.663 228.124 293.476 226.349 293.584 226.397Z" fill="#263238"/>
<path d="M276.247 182.517L282.933 180.803C282.933 180.803 288.454 181.573 289.877 180.593C291.3 179.614 290.629 179.05 290.629 179.05C293.635 177.999 292.563 176.764 292.563 176.764C292.563 176.764 295.554 176.553 295.607 174.371C295.638 173.102 284.206 170.996 284.206 170.996C284.206 170.996 284.313 169.629 285.479 168.856C286.646 168.083 293.383 169.579 295.452 168.997C297.521 168.415 297.372 166.533 297.372 166.533C297.372 166.533 283.232 163.874 280.254 165.021C277.275 166.169 262.978 171.679 260.801 174.349L265.556 183.523C265.556 183.523 265.848 183.659 268.214 184.257C270.58 184.854 276.247 182.517 276.247 182.517Z" fill="#FFBF9D"/>
<path d="M268.565 180.252C268.566 180.202 269.116 180.211 270.086 180.088C271.049 179.96 272.452 179.678 273.992 178.928C274.761 178.556 275.556 178.064 276.31 177.436C276.695 177.128 277.049 176.769 277.401 176.391C277.751 176.007 278.088 175.57 278.545 175.175C278.98 174.781 279.644 174.435 280.346 174.463C281.009 174.471 281.629 174.589 282.26 174.709C283.526 174.952 284.766 175.347 286.034 175.172C286.858 175.069 287.649 174.772 288.229 174.291C288.816 173.841 289.179 173.092 288.875 172.623L289.058 172.746C285.034 171.845 281.441 171.448 278.905 171.103C277.725 170.944 276.734 170.81 275.926 170.7C275.232 170.597 274.856 170.524 274.861 170.491C274.865 170.458 275.248 170.468 275.949 170.513C276.651 170.559 277.672 170.638 278.95 170.754C281.504 171.004 285.111 171.328 289.202 172.21L289.32 172.235L289.386 172.333C289.665 172.75 289.627 173.269 289.454 173.67C289.282 174.084 288.988 174.432 288.641 174.714C287.95 175.29 287.045 175.624 286.116 175.741C285.407 175.837 284.701 175.769 284.028 175.661C283.387 175.525 282.755 175.391 282.133 175.259C281.522 175.138 280.909 175.023 280.346 175.012C279.804 174.989 279.338 175.223 278.933 175.566C278.527 175.905 278.189 176.324 277.819 176.718C277.442 177.11 277.061 177.48 276.651 177.794C275.846 178.437 275.003 178.929 274.193 179.29C272.567 180.023 271.104 180.249 270.113 180.311C269.112 180.366 268.563 180.28 268.565 180.252Z" fill="#FF9A6C"/>
<path d="M282.238 175.131C282.396 175.182 282.073 176.418 281.344 177.822C280.618 179.229 279.779 180.236 279.637 180.154C279.488 180.069 280.075 178.95 280.784 177.574C281.498 176.202 282.073 175.077 282.238 175.131Z" fill="#FF9A6C"/>
<path d="M289.998 178.793C289.965 178.952 288.112 178.748 285.834 178.516C283.555 178.279 281.699 178.1 281.705 177.939C281.709 177.784 283.595 177.706 285.903 177.946C288.21 178.181 290.031 178.641 289.998 178.793Z" fill="#FF9A6C"/>
<path d="M293.434 176.878C293.41 177.035 291.043 176.854 288.15 176.474C285.255 176.094 282.928 175.658 282.952 175.502C282.976 175.345 285.342 175.526 288.237 175.907C291.131 176.286 293.458 176.722 293.434 176.878Z" fill="#FF9A6C"/>
<path d="M283.949 167.991C284.118 167.992 284.245 168.79 284.118 169.762C283.992 170.735 283.664 171.482 283.499 171.446C283.33 171.41 283.381 170.633 283.502 169.693C283.625 168.755 283.775 167.989 283.949 167.991Z" fill="#FF9A6C"/>
<path d="M204.49 170.986L224.077 180.599L262.306 173.737L267.737 184.136C267.737 184.136 232.798 198.298 223.04 198.453C213.282 198.607 195.546 187.966 195.546 187.966L204.49 170.986Z" fill="#FFBF9D"/>
<path d="M251.718 181.072C251.718 181.072 247.076 180.239 246.236 183.448C245.395 186.658 249.559 187.465 249.559 187.465C249.559 187.465 248.792 189.683 252.806 190.844C256.82 192.004 257.603 187.972 257.603 187.972C257.603 187.972 261.377 189.117 261.662 186.868C262.088 183.535 259.154 183.265 259.154 183.265C259.154 183.265 262.048 180.002 257.319 178.707C252.591 177.412 251.718 181.072 251.718 181.072ZM256.735 180.122C259.466 180.655 257.668 183.805 257.668 183.805C257.668 183.805 260.756 184.455 260.147 186.14C259.539 187.826 256.495 186.726 256.495 186.726C256.495 186.726 257.611 189.605 253.869 189.639C250.127 189.673 251.674 186.692 251.674 186.692C251.674 186.692 248.638 186.955 247.993 184.282C247.348 181.609 252.595 182.405 252.595 182.405C252.753 180.142 253.999 179.586 256.735 180.122Z" fill="#FF725E"/>
<g opacity="0.3">
<path d="M251.718 181.072C251.718 181.072 247.076 180.239 246.236 183.448C245.395 186.658 249.559 187.465 249.559 187.465C249.559 187.465 248.792 189.683 252.806 190.844C256.82 192.004 257.603 187.972 257.603 187.972C257.603 187.972 261.377 189.117 261.662 186.868C262.088 183.535 259.154 183.265 259.154 183.265C259.154 183.265 262.048 180.002 257.319 178.707C252.591 177.412 251.718 181.072 251.718 181.072ZM256.735 180.122C259.466 180.655 257.668 183.805 257.668 183.805C257.668 183.805 260.756 184.455 260.147 186.14C259.539 187.826 256.495 186.726 256.495 186.726C256.495 186.726 257.611 189.605 253.869 189.639C250.127 189.673 251.674 186.692 251.674 186.692C251.674 186.692 248.638 186.955 247.993 184.282C247.348 181.609 252.595 182.405 252.595 182.405C252.753 180.142 253.999 179.586 256.735 180.122Z" fill="black"/>
</g>
<path d="M251.788 180.243C251.788 180.243 247.145 179.406 246.305 182.615C245.465 185.825 249.628 186.632 249.628 186.632C249.628 186.632 248.862 188.85 252.875 190.01C256.889 191.171 257.676 187.143 257.676 187.143C257.676 187.143 261.45 188.288 261.734 186.039C262.161 182.702 259.227 182.435 259.227 182.435C259.227 182.435 262.12 179.173 257.392 177.878C252.664 176.583 251.788 180.243 251.788 180.243ZM256.804 179.289C259.539 179.826 257.737 182.976 257.737 182.976C257.737 182.976 260.826 183.625 260.217 185.307C259.608 186.988 256.564 185.892 256.564 185.892C256.564 185.892 257.68 188.771 253.938 188.809C250.196 188.846 251.743 185.859 251.743 185.859C251.743 185.859 248.707 186.122 248.062 183.452C247.417 180.783 252.665 181.576 252.665 181.576C252.806 179.312 254.069 178.756 256.804 179.289Z" fill="#FF725E"/>
<path d="M253.902 150.465C253.902 150.465 249.231 151.147 249.625 154.429C250.019 157.711 254.231 157.156 254.231 157.156C254.231 157.156 254.328 159.484 258.529 159.307C262.729 159.131 261.979 155.093 261.979 155.093C261.979 155.093 265.949 154.978 265.387 152.775C264.558 149.507 261.7 150.179 261.7 150.179C261.7 150.179 263.217 146.199 258.294 146.474C253.372 146.749 253.902 150.465 253.902 150.465ZM258.268 147.989C261.032 147.628 260.503 151.157 260.503 151.157C260.503 151.157 263.646 150.792 263.696 152.569C263.745 154.345 260.478 154.272 260.478 154.272C260.478 154.272 262.589 156.627 259.084 157.839C255.579 159.052 255.933 155.762 255.933 155.762C255.933 155.762 253.176 156.968 251.585 154.659C249.992 152.349 255.218 151.442 255.218 151.442C254.532 149.263 255.498 148.348 258.268 147.989Z" fill="#FF725E"/>
<g opacity="0.3">
<path d="M253.902 150.465C253.902 150.465 249.231 151.147 249.625 154.429C250.019 157.711 254.231 157.156 254.231 157.156C254.231 157.156 254.328 159.484 258.529 159.307C262.729 159.131 261.979 155.093 261.979 155.093C261.979 155.093 265.949 154.978 265.387 152.775C264.558 149.507 261.7 150.179 261.7 150.179C261.7 150.179 263.217 146.199 258.294 146.474C253.372 146.749 253.902 150.465 253.902 150.465ZM258.268 147.989C261.032 147.628 260.503 151.157 260.503 151.157C260.503 151.157 263.646 150.792 263.696 152.569C263.745 154.345 260.478 154.272 260.478 154.272C260.478 154.272 262.589 156.627 259.084 157.839C255.579 159.052 255.933 155.762 255.933 155.762C255.933 155.762 253.176 156.968 251.585 154.659C249.992 152.349 255.218 151.442 255.218 151.442C254.532 149.263 255.498 148.348 258.268 147.989Z" fill="black"/>
</g>
<path d="M253.661 149.664C253.661 149.664 248.988 150.342 249.382 153.624C249.777 156.906 253.988 156.351 253.988 156.351C253.988 156.351 254.085 158.678 258.286 158.502C262.487 158.326 261.742 154.291 261.742 154.291C261.742 154.291 265.712 154.176 265.149 151.973C264.319 148.701 261.462 149.376 261.462 149.376C261.462 149.376 262.979 145.396 258.057 145.672C253.135 145.947 253.661 149.664 253.661 149.664ZM258.025 147.184C260.794 146.825 260.262 150.355 260.262 150.355C260.262 150.355 263.405 149.991 263.453 151.763C263.501 153.536 260.235 153.466 260.235 153.466C260.235 153.466 262.346 155.821 258.843 157.037C255.339 158.253 255.691 154.956 255.691 154.956C255.691 154.956 252.934 156.161 251.343 153.856C249.751 151.551 254.976 150.639 254.976 150.639C254.275 148.467 255.257 147.546 258.025 147.184Z" fill="#FF725E"/>
<path d="M246.595 166.271C246.595 166.271 243.645 166.389 243.469 168.367C243.292 170.344 244.118 173.584 249.241 174.29C254.364 174.997 254.982 169.098 254.982 169.098C254.982 169.098 253.502 166.006 246.595 166.271Z" fill="#E0E0E0"/>
<g opacity="0.21">
<path d="M249.501 171.602C252.336 171.725 254.023 170.593 254.866 169.76C254.955 169.352 254.986 169.098 254.986 169.098C254.986 169.098 253.502 166.006 246.595 166.271C246.595 166.271 243.645 166.389 243.469 168.366C243.469 168.501 243.469 168.64 243.446 168.774C244.524 169.866 246.586 171.471 249.501 171.602Z" fill="#263238"/>
</g>
<path d="M247.16 164.98L246.316 168.399C246.316 168.399 247.787 170.005 249.929 169.895C252.07 169.784 252.066 169.041 252.066 169.041L252.95 165.54C252.95 165.54 251.055 164.258 248.975 164.204C246.895 164.151 247.16 164.98 247.16 164.98Z" fill="#E0E0E0"/>
<path d="M231.201 189.299C231.201 189.299 229.329 191.412 230.805 192.852C232.281 194.292 235.442 195.881 239.426 192.82C243.41 189.759 239.069 185.401 239.069 185.401C239.069 185.401 235.591 184.359 231.201 189.299Z" fill="#E0E0E0"/>
<g opacity="0.21">
<path d="M237.434 190.848C239.422 188.975 239.635 187.057 239.526 185.921C239.255 185.588 239.072 185.397 239.072 185.397C239.072 185.397 235.591 184.359 231.201 189.299C231.201 189.299 229.33 191.412 230.806 192.851C230.915 192.941 231.026 193.033 231.121 193.139C232.717 193.123 235.385 192.771 237.434 190.848Z" fill="#263238"/>
</g>
<path d="M230.537 188.048L232.73 190.909C232.73 190.909 235.004 190.965 236.343 189.414C237.681 187.864 237.08 187.371 237.08 187.371L234.847 184.429C234.847 184.429 232.55 184.88 231.121 186.279C229.692 187.678 230.537 188.048 230.537 188.048Z" fill="#E0E0E0"/>
<path d="M264.334 189.15C264.334 189.15 266.332 190.453 267.525 189.243C268.719 188.032 269.953 185.518 266.976 182.654C263.999 179.789 260.372 183.374 260.372 183.374C260.372 183.374 259.658 186.095 264.334 189.15Z" fill="#E0E0E0"/>
<g opacity="0.21">
<path d="M265.337 184.298C264.119 183.253 262.456 182.774 260.811 182.995C260.536 183.213 260.371 183.374 260.371 183.374C260.371 183.374 259.657 186.096 264.333 189.15C264.333 189.15 266.331 190.453 267.525 189.243C267.605 189.159 267.684 189.071 267.764 188.975C267.653 187.181 266.781 185.5 265.337 184.298Z" fill="#263238"/>
</g>
<path d="M263.254 189.755L265.677 187.907C265.596 186.852 265.031 185.88 264.123 185.236C262.655 184.311 262.255 184.797 262.255 184.797L259.757 186.682C260.11 187.733 260.756 188.678 261.631 189.422C262.98 190.407 263.254 189.755 263.254 189.755Z" fill="#E0E0E0"/>
<path d="M252.678 212.032C252.678 212.032 247.589 213.905 244.189 207.939C240.79 201.974 241.303 196.394 245.916 195.122C250.53 193.85 252.042 195.99 252.989 197.533C253.935 199.076 256.195 202.529 256.601 205.648C256.813 207.407 255.758 211.149 252.678 212.032Z" fill="#AE7461"/>
<path opacity="0.3" d="M252.595 210.306C253.584 209.897 254.398 209.193 254.907 208.307L254.881 208.343L254.916 208.293L254.995 208.18C255.046 208.106 255.077 208.016 255.115 207.933L255.16 207.867L255.121 207.924C255.414 207.139 255.489 206.299 255.339 205.481C255.285 204.991 255.153 204.511 254.948 204.056C254.743 203.601 254.362 203.232 253.88 203.021C253.325 202.826 252.702 202.881 252.197 203.171C251.7 203.462 251.317 203.893 251.104 204.401C250.897 204.864 250.808 205.366 250.621 205.839C250.467 206.325 250.111 206.737 249.632 206.983C249.223 207.155 248.746 207.127 248.322 207.271C247.576 207.552 247.164 208.297 247.355 209.021C247.548 209.681 248.217 210.129 248.905 210.374C250.097 210.8 251.422 210.776 252.595 210.306Z" fill="#6F4439"/>
<path opacity="0.3" d="M247.375 195.807C246.306 195.953 245.319 196.425 244.572 197.147L244.597 197.111L244.562 197.161L244.464 197.259C244.41 197.336 244.334 197.396 244.275 197.466L244.23 197.532L244.269 197.475C243.75 198.147 243.42 198.928 243.311 199.747C243.217 200.229 243.199 200.721 243.257 201.207C243.319 201.697 243.576 202.149 243.978 202.473C244.454 202.802 245.067 202.908 245.638 202.759C246.203 202.605 246.699 202.287 247.056 201.853C247.393 201.46 247.627 200.999 247.934 200.585C248.227 200.156 248.692 199.851 249.227 199.739C249.667 199.681 250.123 199.823 250.571 199.789C251.373 199.712 251.992 199.101 252.023 198.355C252.032 197.671 251.53 197.077 250.934 196.66C249.913 195.957 248.637 195.651 247.375 195.807Z" fill="#6F4439"/>
<path opacity="0.3" d="M248.208 203.612C248.005 203.615 247.806 203.653 247.619 203.725L246.452 204.092C246.151 204.188 245.81 204.317 245.711 204.609C245.652 204.8 245.729 205.005 245.902 205.123C246.073 205.237 246.29 205.273 246.493 205.221L246.443 205.224C247.082 205.195 247.702 205.013 248.242 204.696C248.399 204.614 248.532 204.501 248.637 204.366C248.741 204.228 248.763 204.05 248.695 203.894C248.601 203.725 248.414 203.616 248.208 203.612Z" fill="#6F4439"/>
<path d="M243.263 198.041C243.285 198.054 243.139 198.395 242.981 198.97C242.57 200.48 242.613 202.064 243.104 203.554C243.291 204.124 243.459 204.463 243.434 204.469C243.377 204.4 243.33 204.324 243.294 204.243C243.182 204.03 243.085 203.81 243.002 203.585C242.446 202.086 242.403 200.466 242.879 198.944C242.95 198.716 243.035 198.492 243.137 198.274C243.165 198.192 243.208 198.113 243.263 198.041Z" fill="white"/>
<path d="M244.639 196.444C244.673 196.464 244.521 196.658 244.31 196.864C244.098 197.07 243.905 197.205 243.861 197.179C243.817 197.153 243.978 196.965 244.194 196.758C244.41 196.551 244.609 196.417 244.639 196.444Z" fill="white"/>
<path d="M245.867 208.96C245.383 208.689 245.038 208.248 244.912 207.737C245.084 207.933 245.241 208.139 245.38 208.355C245.557 208.546 245.721 208.748 245.867 208.96Z" fill="white"/>
<path d="M259.24 166.575C259.24 166.575 255.248 164.844 257.16 159.712C259.073 154.58 262.896 151.784 266.245 153.588C269.594 155.392 269.069 157.392 268.612 158.756C268.155 160.12 267.208 163.25 265.452 165.189C264.453 166.272 261.497 167.761 259.24 166.575Z" fill="#AE7461"/>
<path opacity="0.3" d="M260.289 165.58C261.094 165.891 261.989 165.945 262.832 165.733L262.795 165.74L262.845 165.731L262.961 165.711C263.036 165.698 263.11 165.666 263.184 165.64L263.25 165.629L263.192 165.639C263.851 165.365 264.426 164.944 264.863 164.411C265.144 164.111 265.375 163.775 265.551 163.414C265.728 163.051 265.752 162.642 265.619 162.264C265.438 161.854 265.06 161.547 264.597 161.433C264.138 161.323 263.654 161.352 263.215 161.517C262.806 161.66 262.439 161.888 262.036 162.047C261.642 162.232 261.185 162.266 260.765 162.14C260.43 162.013 260.185 161.739 259.86 161.588C259.271 161.338 258.571 161.524 258.216 162.027C257.905 162.496 257.989 163.105 258.212 163.614C258.599 164.496 259.345 165.201 260.289 165.58Z" fill="#6F4439"/>
<path opacity="0.3" d="M266.615 154.757C265.933 154.257 265.09 153.981 264.22 153.973L264.257 153.967L264.206 153.976H264.089C264.011 153.989 263.931 153.981 263.854 153.988L263.788 153.999L263.845 153.989C263.133 154.078 262.456 154.33 261.875 154.721C261.518 154.936 261.197 155.197 260.919 155.496C260.642 155.8 260.497 156.188 260.513 156.586C260.567 157.025 260.837 157.416 261.246 157.644C261.656 157.866 262.13 157.961 262.603 157.915C263.038 157.881 263.459 157.754 263.891 157.693C264.325 157.615 264.774 157.7 265.14 157.929C265.419 158.136 265.58 158.462 265.848 158.686C266.339 159.079 267.067 159.078 267.558 158.684C267.996 158.312 268.096 157.712 268.033 157.159C267.917 156.218 267.408 155.356 266.615 154.757Z" fill="#6F4439"/>
<path opacity="0.3" d="M262.12 159.51C262.007 159.402 261.873 159.315 261.724 159.253L260.849 158.821C260.622 158.71 260.352 158.597 260.112 158.704C259.958 158.778 259.87 158.932 259.89 159.091C259.912 159.247 260.009 159.384 260.153 159.466L260.124 159.44C260.495 159.771 260.952 160.007 261.45 160.126C261.588 160.165 261.734 160.176 261.877 160.158C262.022 160.138 262.147 160.052 262.209 159.929C262.266 159.785 262.231 159.624 262.12 159.51Z" fill="#6F4439"/>
<path d="M262.931 153.756C262.935 153.775 262.638 153.883 262.186 154.115C261.001 154.724 260.019 155.62 259.345 156.706C259.086 157.122 258.964 157.4 258.945 157.39C258.958 157.321 258.98 157.254 259.011 157.19C259.085 157.011 259.17 156.838 259.268 156.669C259.913 155.542 260.917 154.626 262.145 154.045C262.328 153.958 262.518 153.881 262.711 153.816C262.782 153.785 262.855 153.765 262.931 153.756Z" fill="white"/>
<path d="M264.703 153.623C264.709 153.653 264.502 153.677 264.255 153.676C264.007 153.674 263.817 153.644 263.809 153.605C263.801 153.567 264.01 153.551 264.259 153.554C264.509 153.557 264.704 153.592 264.703 153.623Z" fill="white"/>
<path d="M257.437 161.185C257.342 160.773 257.432 160.343 257.687 159.993C257.658 160.194 257.612 160.393 257.552 160.588C257.53 160.789 257.491 160.989 257.437 161.185Z" fill="white"/>
<path d="M242.634 166.818C240.299 167.979 237.387 167.169 236.131 165.008C234.876 162.848 235.752 160.154 238.087 158.993C240.412 157.837 243.31 158.634 244.575 160.777C245.846 162.93 244.989 165.629 242.662 166.804C242.652 166.809 242.643 166.813 242.634 166.818Z" fill="#FF9A6C"/>
<g opacity="0.5">
<path d="M242.634 166.818C240.299 167.979 237.387 167.169 236.131 165.008C234.876 162.848 235.752 160.154 238.087 158.993C240.412 157.837 243.31 158.634 244.575 160.777C245.846 162.93 244.989 165.629 242.662 166.804C242.652 166.809 242.643 166.813 242.634 166.818Z" fill="#FF725E"/>
</g>
<path d="M242.188 166.056C239.852 167.218 236.94 166.407 235.685 164.247C234.429 162.086 235.305 159.393 237.641 158.232C239.966 157.075 242.864 157.873 244.129 160.016C245.4 162.169 244.543 164.868 242.215 166.042C242.207 166.047 242.197 166.052 242.188 166.056Z" fill="#FF9A6C"/>
<g opacity="0.3">
<path d="M241.248 164.47C239.89 165.152 238.191 164.686 237.453 163.43C236.716 162.174 237.219 160.602 238.577 159.92C239.936 159.238 241.635 159.703 242.372 160.96L242.373 160.961C243.109 162.218 242.606 163.788 241.248 164.47Z" fill="white"/>
</g>
<path d="M240.768 163.626C239.419 163.87 238.337 163.572 238.35 162.962C237.881 162.16 238.203 161.159 239.069 160.725C239.935 160.291 241.017 160.589 241.487 161.39C241.487 161.391 241.488 161.392 241.488 161.392C241.957 162.19 241.639 163.187 240.777 163.622C240.774 163.624 240.771 163.625 240.768 163.626Z" fill="#FF9A6C"/>
<path d="M268.402 169.346C270.522 168.379 273.088 169.185 274.134 171.145C275.18 173.107 274.309 175.48 272.19 176.448C270.069 177.416 267.503 176.61 266.457 174.649C265.41 172.688 266.281 170.314 268.402 169.346Z" fill="#FF9A6C"/>
<g opacity="0.5">
<path d="M268.402 169.346C270.522 168.379 273.088 169.185 274.134 171.145C275.18 173.107 274.309 175.48 272.19 176.448C270.069 177.416 267.503 176.61 266.457 174.649C265.41 172.688 266.281 170.314 268.402 169.346Z" fill="#FF725E"/>
</g>
<path d="M271.936 175.721C269.86 176.754 267.271 176.034 266.155 174.113C265.039 172.192 265.818 169.798 267.894 168.766C269.961 167.738 272.537 168.447 273.661 170.351C274.791 172.266 274.029 174.664 271.96 175.709C271.952 175.713 271.944 175.717 271.936 175.721Z" fill="#FF9A6C"/>
<g opacity="0.3">
<path d="M267.545 171.616C267.938 170.401 269.322 169.711 270.634 170.075C271.948 170.439 272.693 171.719 272.3 172.933C271.907 174.148 270.523 174.837 269.21 174.473C267.897 174.109 267.152 172.83 267.545 171.616Z" fill="white"/>
</g>
<path d="M270.674 173.561C269.904 173.945 268.942 173.679 268.526 172.966C268.111 172.254 268.398 171.364 269.169 170.98C269.938 170.596 270.898 170.86 271.315 171.57C271.733 172.282 271.448 173.172 270.679 173.559C270.677 173.56 270.675 173.56 270.674 173.561Z" fill="#FF9A6C"/>
<path d="M229.222 197.338C229.005 199.456 229.877 201.545 231.576 202.978C233.186 204.389 235.439 204.987 237.613 204.58C237.804 200.746 234.598 197.495 230.453 197.319C230.042 197.302 229.63 197.315 229.222 197.36V197.338Z" fill="#455A64"/>
<path d="M231.101 198.798C231.174 198.748 232.466 200.304 234.351 201.969C236.235 203.632 237.954 204.789 237.9 204.851C237.472 204.678 237.072 204.453 236.711 204.18C234.886 202.963 233.258 201.512 231.875 199.871C231.561 199.55 231.299 199.189 231.101 198.798Z" fill="#263238"/>
<path d="M244.774 144.797C243.232 146.375 242.582 148.533 243.019 150.621C243.398 152.643 244.819 154.367 246.825 155.242C249.454 152.273 248.983 147.895 245.773 145.462C245.455 145.221 245.116 145.005 244.76 144.815L244.774 144.797Z" fill="#455A64"/>
<path d="M245.337 147.006C245.429 147.006 245.46 148.969 245.896 151.344C246.332 153.72 246.964 155.598 246.88 155.617C246.649 155.242 246.474 154.84 246.36 154.421C245.683 152.437 245.314 150.374 245.266 148.294C245.22 147.864 245.244 147.43 245.337 147.006Z" fill="#263238"/>
<path d="M289.428 182.318C287.079 180.641 284.017 180.079 281.154 180.8C278.373 181.457 276.11 183.321 275.084 185.801C279.497 188.645 285.566 187.643 288.642 183.561C288.94 183.167 289.202 182.75 289.428 182.318Z" fill="#455A64"/>
<path d="M286.426 183.212C286.441 183.326 283.714 183.538 280.444 184.309C277.173 185.08 274.623 186.013 274.576 185.908C275.078 185.595 275.625 185.348 276.201 185.174C277.548 184.67 278.932 184.256 280.344 183.938C281.753 183.606 283.186 183.368 284.633 183.227C285.227 183.144 285.831 183.139 286.426 183.212Z" fill="#263238"/>
<path d="M241.096 178.684C241.08 179.632 239.491 180.375 237.547 180.346C235.603 180.318 234.039 179.525 234.054 178.589C234.017 178.95 234.01 179.313 234.034 179.673C234.018 180.621 235.58 181.411 237.522 181.441C239.464 181.471 241.058 180.725 241.074 179.778C241.106 179.414 241.114 179.049 241.096 178.684Z" fill="#455A64"/>
<path d="M237.588 178C239.144 178.022 240.454 178.534 240.906 179.223C241.024 179.065 241.091 178.877 241.096 178.684C241.112 177.736 239.55 176.946 237.608 176.916C235.666 176.886 234.072 177.632 234.055 178.589C234.054 178.782 234.114 178.972 234.228 179.133C234.709 178.452 236.033 177.977 237.588 178Z" fill="#263238"/>
<path d="M261.858 170.25C262.265 170.612 261.991 171.483 261.247 172.196C260.504 172.91 259.571 173.194 259.169 172.836C259.312 172.986 259.467 173.125 259.633 173.252C260.04 173.614 260.971 173.329 261.714 172.617C262.457 171.905 262.732 171.031 262.326 170.669C262.18 170.52 262.024 170.38 261.858 170.25Z" fill="#455A64"/>
<path d="M260.242 171.299C260.837 170.728 261.552 170.432 262.022 170.523C261.997 170.419 261.94 170.324 261.859 170.25C261.452 169.887 260.521 170.172 259.778 170.884C259.035 171.596 258.76 172.47 259.171 172.837C259.254 172.91 259.359 172.958 259.472 172.977C259.356 172.541 259.647 171.869 260.242 171.299Z" fill="#263238"/>
<path d="M267.28 136.613C267.555 137.348 266.553 138.335 265.042 138.817C263.532 139.299 262.084 139.093 261.812 138.366C261.893 138.654 261.998 138.936 262.125 139.209C262.4 139.945 263.847 140.15 265.356 139.67C266.865 139.189 267.87 138.2 267.594 137.463C267.509 137.174 267.404 136.89 267.28 136.613Z" fill="#455A64"/>
<path d="M264.362 136.996C265.571 136.609 266.738 136.664 267.296 137.079C267.339 136.926 267.334 136.763 267.28 136.613C267.005 135.877 265.558 135.672 264.049 136.152C262.54 136.633 261.536 137.622 261.812 138.367C261.87 138.516 261.974 138.647 262.11 138.742C262.276 138.091 263.154 137.38 264.362 136.996Z" fill="#263238"/>
<path d="M270.357 191.071L260.389 198.503C260.083 198.731 260.019 199.141 260.245 199.439C260.889 200.289 261.873 201.102 263.289 201.827C270.489 205.513 275.011 198.607 274.01 194.582C273.689 193.291 272.691 191.971 271.256 191.041C270.984 190.865 270.616 190.878 270.357 191.071Z" fill="#FF725E"/>
<path opacity="0.3" d="M270.357 191.071L260.389 198.503C260.083 198.731 260.019 199.141 260.245 199.439C260.889 200.289 261.873 201.102 263.289 201.827C270.489 205.513 275.011 198.607 274.01 194.582C273.689 193.291 272.691 191.971 271.256 191.041C270.984 190.865 270.616 190.878 270.357 191.071Z" fill="black"/>
<path d="M269.829 190.625L259.862 198.056C259.555 198.285 259.491 198.694 259.717 198.993C260.361 199.843 261.345 200.656 262.761 201.382C269.961 205.067 274.483 198.162 273.483 194.136C273.162 192.845 272.163 191.526 270.728 190.595C270.456 190.418 270.088 190.432 269.829 190.625Z" fill="#FF725E"/>
<path opacity="0.3" d="M268.991 191.513C269.249 191.168 272.498 192.248 272.485 194.754C272.472 197.261 271.708 199.131 270.506 199.191C269.304 199.251 267.801 197.207 267.741 195.333C267.679 193.458 268.683 191.926 268.991 191.513Z" fill="black"/>
<path opacity="0.3" d="M260.9 197.927C260.919 197.44 263.655 196.058 265.473 196.369C267.291 196.68 269.396 199.461 269.32 200.2C269.242 200.964 265.853 201.371 264.159 200.841C262.466 200.31 260.872 198.646 260.9 197.927Z" fill="black"/>
<path d="M264.215 197.167C263.996 196.953 261.906 198.235 262.374 198.672C262.844 199.111 264.686 197.628 264.215 197.167Z" fill="#FF725E"/>
<path d="M266.928 198.196C267.222 198.12 268.251 200.19 267.486 200.22C266.722 200.25 266.635 198.274 266.928 198.196Z" fill="#FF725E"/>
<path d="M265.691 197.61C266.054 197.677 265.723 200.383 264.74 200.289C263.755 200.195 265.327 197.543 265.691 197.61Z" fill="#FF725E"/>
<path d="M268.867 194.503C268.69 193.989 271.379 193.377 271.459 193.915C271.539 194.453 269.102 195.185 268.867 194.503Z" fill="#FF725E"/>
<path d="M268.847 193.506C269.147 193.736 270.526 192.707 270.13 192.387C269.734 192.066 268.548 193.277 268.847 193.506Z" fill="#FF725E"/>
<path d="M268.709 195.551C268.684 195.756 271.098 196.271 271.024 195.833C270.95 195.395 268.772 195.037 268.709 195.551Z" fill="#FF725E"/>
<path d="M268.39 196.401C268.125 196.792 269.58 198.289 269.954 197.971C270.329 197.654 268.769 195.843 268.39 196.401Z" fill="#FF725E"/>
<path d="M267.837 192.431C267.841 192.435 267.783 192.499 267.673 192.611C267.564 192.724 267.4 192.883 267.194 193.076C266.782 193.462 266.193 193.976 265.506 194.507C264.819 195.037 264.167 195.482 263.683 195.788C263.441 195.941 263.243 196.061 263.103 196.141C262.964 196.221 262.886 196.263 262.882 196.258C262.878 196.254 262.95 196.202 263.084 196.114C263.23 196.017 263.419 195.891 263.646 195.74C264.119 195.422 264.763 194.972 265.449 194.443C266.133 193.915 266.728 193.408 267.15 193.034C267.35 192.854 267.518 192.705 267.648 192.589C267.766 192.483 267.833 192.426 267.837 192.431Z" fill="white"/>
<path d="M173.625 137.911C173.625 137.911 183.661 145.288 186.853 149.88C190.045 154.472 215.577 170.556 215.222 171.125C214.867 171.693 199.619 194.982 199.619 194.982L191.146 191.023L173.624 138.727" fill="#FFA71E"/>
<path d="M137.957 223.961C137.957 223.961 118.922 251.744 116.998 262.328L137.957 270.266V223.961Z" fill="#FFA71E"/>
<path d="M125.313 134.07C125.313 134.768 121.728 143.497 121.728 143.497L103.044 162.525L139.09 216.814L142.675 225.019L198.158 222.051C198.158 222.051 190.232 183.123 189.666 176.664C189.1 170.205 173.625 137.91 173.625 137.91L154.942 139.83L149.469 138.084L125.313 134.07Z" fill="#FFA71E"/>
<path d="M136.803 224.228C136.104 223.969 132.478 235.179 126.315 255.677C120.151 276.176 124.368 318.064 124.368 318.064H220.055C220.055 318.064 213.726 271.689 205.459 249.142C197.3 226.89 197.731 212.906 195.919 213.051C194.106 213.195 136.803 224.228 136.803 224.228Z" fill="#263238"/>
<path d="M192.427 192.936C192.421 192.937 192.404 192.887 192.378 192.788C192.349 192.668 192.313 192.523 192.27 192.346C192.183 191.957 192.052 191.382 191.864 190.647C191.489 189.178 190.904 187.058 189.964 184.503C189.025 181.951 187.788 178.932 185.988 175.785C184.095 172.684 181.76 169.395 179.114 166.085C173.825 159.45 168.25 154.009 163.901 150.414C161.744 148.593 159.867 147.265 158.579 146.336C157.939 145.906 157.432 145.565 157.058 145.315C156.902 145.205 156.773 145.115 156.667 145.041C156.58 144.978 156.537 144.944 156.541 144.938C156.545 144.934 156.594 144.958 156.689 145.012C156.8 145.078 156.936 145.159 157.1 145.257C157.485 145.495 158.007 145.819 158.666 146.228C159.983 147.124 161.892 148.428 164.078 150.231C168.487 153.791 174.111 159.223 179.416 165.879C182.072 169.202 184.402 172.5 186.293 175.634C188.093 178.818 189.306 181.853 190.218 184.425C191.129 187 191.676 189.137 192.009 190.619C192.176 191.36 192.284 191.939 192.347 192.333C192.375 192.513 192.398 192.66 192.418 192.782C192.429 192.883 192.434 192.936 192.427 192.936Z" fill="#263238"/>
<path d="M103.044 162.525C103.044 162.525 99.5213 166.279 100.809 174.746C102.096 183.213 116.997 221.562 116.997 221.562L149.659 211.375L132.353 179.544L120.36 165.639L103.044 162.525Z" fill="#FFA71E"/>
<path d="M191.141 184.811C191.128 184.814 191.089 184.71 191.025 184.512C190.953 184.274 190.867 183.986 190.763 183.64C190.528 182.827 190.213 181.742 189.832 180.426C189.036 177.715 187.873 173.987 186.418 169.92C184.959 165.852 183.486 162.218 182.375 159.605C181.832 158.338 181.384 157.295 181.048 156.513C180.908 156.178 180.791 155.899 180.695 155.669C180.618 155.474 180.583 155.37 180.595 155.365C180.606 155.36 180.665 155.456 180.764 155.641C180.878 155.865 181.017 156.135 181.182 156.459C181.541 157.173 182.033 158.216 182.621 159.513C183.797 162.107 185.312 165.735 186.774 169.811C188.232 173.887 189.356 177.634 190.088 180.365C190.454 181.729 190.732 182.839 190.904 183.609C190.981 183.961 191.045 184.254 191.097 184.497C191.138 184.7 191.154 184.808 191.141 184.811Z" fill="#263238"/>
<path d="M116.997 221.563C116.996 221.558 117.047 221.538 117.149 221.501C117.266 221.46 117.417 221.409 117.606 221.344C118.03 221.206 118.626 221.011 119.39 220.761C120.972 220.256 123.249 219.53 126.113 218.615C131.898 216.794 140.05 214.229 149.603 211.223L149.503 211.448C146.711 206.36 143.646 200.774 140.438 194.928C138.738 191.822 137.079 188.79 135.477 185.863C134.709 184.379 133.798 183.012 132.968 181.63C132.126 180.257 131.293 178.918 130.466 177.621C128.809 175.027 127.153 172.607 125.413 170.471C124.533 169.411 123.631 168.427 122.685 167.552C121.744 166.673 120.704 165.975 119.661 165.378C117.576 164.184 115.469 163.46 113.579 163.034C111.685 162.599 109.998 162.467 108.626 162.455C107.25 162.433 106.188 162.569 105.468 162.639C105.124 162.689 104.854 162.729 104.653 162.758C104.469 162.784 104.374 162.794 104.373 162.788C104.371 162.782 104.464 162.76 104.646 162.724C104.846 162.686 105.114 162.635 105.456 162.571C106.175 162.477 107.24 162.32 108.626 162.32C110.007 162.311 111.71 162.424 113.627 162.846C115.54 163.258 117.678 163.974 119.799 165.17C120.855 165.765 121.926 166.474 122.886 167.362C123.85 168.243 124.767 169.233 125.658 170.298C127.421 172.44 129.093 174.864 130.762 177.458C131.595 178.756 132.433 180.095 133.278 181.467C134.109 182.843 135.032 184.224 135.799 185.703C137.405 188.631 139.067 191.662 140.769 194.767C143.971 200.619 147.028 206.21 149.814 211.304L149.905 211.47L149.715 211.53C140.144 214.487 131.977 217.012 126.181 218.803C123.304 219.679 121.016 220.377 119.426 220.862C118.655 221.091 118.053 221.269 117.625 221.396C117.432 221.451 117.279 221.494 117.158 221.528C117.053 221.555 116.999 221.568 116.997 221.563Z" fill="#263238"/>
<path d="M147.948 155.895C147.9 155.98 142.019 153.263 134.812 149.827C127.603 146.39 121.8 143.536 121.846 143.451C121.894 143.366 127.774 146.082 134.983 149.519C142.191 152.954 147.995 155.809 147.948 155.895Z" fill="#263238"/>
<path d="M155.042 140.27C155.145 140.262 155.463 143.137 155.752 146.689C156.041 150.242 156.191 153.128 156.088 153.135C155.985 153.143 155.667 150.269 155.378 146.715C155.089 143.163 154.938 140.277 155.042 140.27Z" fill="#263238"/>
<path d="M163.749 152.232C163.751 152.238 163.673 152.266 163.519 152.314C163.346 152.365 163.121 152.433 162.836 152.519C162.233 152.691 161.349 152.962 160.215 153.319C157.948 154.036 154.693 155.149 150.734 156.667C146.776 158.186 142.108 160.099 136.998 162.365C135.728 162.961 134.316 163.37 133.109 164.108C132.52 164.483 131.99 164.97 131.775 165.598C131.538 166.218 131.622 166.924 131.899 167.55C132.482 168.83 133.697 169.803 134.765 170.892C135.307 171.433 135.855 171.979 136.405 172.528C136.93 173.098 137.458 173.673 137.989 174.25C140.076 176.59 142.006 178.958 143.725 181.333C145.473 183.691 147.036 186.04 148.481 188.3C151.349 192.832 153.684 197.04 155.563 200.607C157.437 204.178 158.865 207.105 159.828 209.137C160.295 210.14 160.662 210.926 160.921 211.483C161.035 211.739 161.126 211.942 161.195 212.097C161.255 212.236 161.283 212.309 161.276 212.311C161.271 212.313 161.231 212.246 161.16 212.111C161.082 211.959 160.98 211.761 160.852 211.511C160.577 210.961 160.189 210.184 159.695 209.192C158.692 207.177 157.227 204.268 155.325 200.715C153.418 197.165 151.061 192.975 148.183 188.461C146.733 186.211 145.168 183.871 143.42 181.524C141.703 179.159 139.778 176.802 137.701 174.472C137.172 173.897 136.647 173.326 136.125 172.758C135.577 172.211 135.033 171.668 134.493 171.129C133.441 170.048 132.193 169.065 131.558 167.679C131.256 166.995 131.157 166.201 131.43 165.491C131.682 164.768 132.284 164.228 132.907 163.834C134.191 163.059 135.593 162.664 136.849 162.076C141.973 159.824 146.657 157.932 150.633 156.44C154.611 154.949 157.885 153.87 160.169 153.191C161.312 152.853 162.204 152.603 162.814 152.452C163.104 152.38 163.333 152.324 163.508 152.28C163.666 152.243 163.747 152.227 163.749 152.232Z" fill="#263238"/>
<path opacity="0.3" d="M148.106 176.044C149.484 176.044 150.601 175.011 150.601 173.737C150.601 172.462 149.484 171.429 148.106 171.429C146.728 171.429 145.611 172.462 145.611 173.737C145.611 175.011 146.728 176.044 148.106 176.044Z" fill="black"/>
<path opacity="0.3" d="M171.508 167.092C172.886 167.092 174.003 166.059 174.003 164.784C174.003 163.51 172.886 162.477 171.508 162.477C170.131 162.477 169.014 163.51 169.014 164.784C169.014 166.059 170.131 167.092 171.508 167.092Z" fill="black"/>
<path opacity="0.3" d="M163.749 196.146C163.749 197.421 162.632 198.454 161.254 198.454C159.876 198.454 158.759 197.42 158.759 196.146C158.759 194.872 159.877 193.838 161.254 193.838C162.631 193.838 163.749 194.872 163.749 196.146Z" fill="black"/>
<path opacity="0.3" d="M184.405 191.097C185.783 191.097 186.9 190.064 186.9 188.789C186.9 187.515 185.783 186.481 184.405 186.481C183.027 186.481 181.91 187.515 181.91 188.789C181.91 190.064 183.027 191.097 184.405 191.097Z" fill="black"/>
<path d="M201.894 224.744C201.938 224.654 202.681 224.883 203.605 225.113C204.528 225.348 205.294 225.498 205.282 225.596C205.273 225.689 204.463 225.69 203.507 225.448C202.549 225.209 201.851 224.828 201.894 224.744Z" fill="#FF9A6C"/>
<path d="M122.156 219.954C122.278 220.554 132.791 234.343 141.202 234.343C149.612 234.343 191.058 222.852 191.058 222.852L186.263 210.971L144.788 216.736L142.744 213.533L122.156 219.954Z" fill="#FFBF9D"/>
<path d="M186.263 210.971C186.476 210.806 194.172 207.727 198.424 206.867C202.676 206.007 205.448 206.366 208.251 207.737C211.053 209.109 217.186 210.654 218.521 211.916C219.532 212.872 218.605 214.539 216.719 214.369C214.834 214.2 207.584 212.702 207.431 212.718C207.4 212.721 207.361 212.791 207.32 212.901C206.994 213.761 207.274 214.719 207.994 215.342L212.905 219.6C212.905 219.6 212.975 221.506 211.617 221.858C210.259 222.21 209.158 222.753 209.158 222.753C209.158 222.753 208.606 225.325 206.455 225.542C204.304 225.759 197.78 223.829 197.465 223.789C197.15 223.749 191.059 222.853 191.059 222.853L186.263 210.971Z" fill="#FFBF9D"/>
<path d="M204.318 221.748C204.364 221.657 205.407 222.036 206.733 222.354C208.058 222.68 209.167 222.824 209.159 222.924C209.155 223.014 208.002 223.024 206.638 222.689C205.272 222.361 204.273 221.829 204.318 221.748Z" fill="#FF9A6C"/>
<path d="M195.114 223.116C197.443 224.119 199.77 225.122 202.099 226.124C202.598 226.339 203.141 226.56 203.681 226.459C204.489 226.309 204.939 225.526 205.277 224.83" fill="#FFBF9D"/>
<path d="M127 80.4734C134.227 75.3446 141.532 74.4435 150.772 74.574C155.986 74.6479 156.794 71.884 160.515 72.9243C164.236 73.9646 167.558 75.914 169.697 78.8997C172.237 82.4455 174.337 86.3949 174.695 90.6266C175.063 94.9736 175.43 99.3499 174.925 103.685C174.92 103.728 174.915 103.771 174.91 103.815C174.087 110.635 168.289 116.036 160.942 116.988L157.984 117.372C151.332 117.385 144.588 117.387 138.162 115.804C131.736 114.221 128.704 130.148 126.276 124.456C118.066 105.199 119.686 85.6629 127 80.4734Z" fill="#263238"/>
<path d="M153.664 76.4195L148.859 75.7595L130.168 82.0046C127.498 82.0512 125.31 83.9799 125.132 86.4455L126.578 134.473L149.599 147.901V155.242L155.496 153.424L152.79 147.168C152.81 142.643 152.765 136.902 152.765 136.902C152.765 136.902 165.153 136.15 168.731 122.857C170.51 116.246 171.178 105.226 171.408 96.1931C171.616 88.0619 164.512 76.7732 153.664 76.4195Z" fill="#FFBF9D"/>
<path d="M164.461 107.25C164.41 108.166 163.53 108.881 162.495 108.85C161.462 108.818 160.664 108.053 160.715 107.137C160.765 106.221 161.646 105.505 162.678 105.536C163.714 105.567 164.511 106.334 164.461 107.25Z" fill="#263238"/>
<path d="M167.946 100.61C167.693 100.816 166.368 99.7342 164.357 99.577C162.35 99.3939 160.784 100.233 160.587 99.9873C160.489 99.878 160.764 99.4904 161.447 99.1088C162.12 98.7285 163.238 98.3962 164.49 98.5014C165.743 98.6086 166.756 99.1195 167.321 99.605C167.898 100.094 168.07 100.519 167.946 100.61Z" fill="#263238"/>
<path d="M154.499 114.844C154.499 114.738 155.768 114.639 157.816 114.561C158.334 114.553 158.829 114.498 158.946 114.181C159.099 113.847 158.933 113.319 158.736 112.746C158.36 111.558 157.968 110.312 157.556 109.007C155.931 103.688 154.801 99.3306 155.033 99.2726C155.265 99.214 156.771 103.478 158.397 108.796C158.785 110.107 159.157 111.357 159.51 112.551C159.654 113.107 159.931 113.746 159.602 114.437C159.43 114.781 159.029 115.008 158.692 115.064C158.354 115.131 158.065 115.112 157.81 115.106C155.762 115.044 154.496 114.951 154.499 114.844Z" fill="#263238"/>
<path d="M152.789 136.887C152.789 136.887 142.932 136.685 133.726 130.505C133.726 130.505 138.048 140.266 152.751 140.174L152.789 136.887Z" fill="#FF9A6C"/>
<path d="M167.484 94.0638C167.103 94.4907 165.591 94.0638 163.779 94.0578C161.968 93.9979 160.435 94.3702 160.078 93.9293C159.921 93.7155 160.159 93.2886 160.826 92.8817C161.483 92.4761 162.585 92.1404 163.83 92.1624C165.075 92.1864 166.158 92.5607 166.792 92.9902C167.437 93.4212 167.651 93.856 167.484 94.0638Z" fill="#263238"/>
<path d="M142.08 105.917C141.997 106.83 142.764 107.649 143.794 107.747C144.822 107.845 145.725 107.186 145.809 106.272C145.892 105.359 145.125 104.539 144.097 104.441C143.067 104.343 142.164 105.004 142.08 105.917Z" fill="#263238"/>
<path d="M140.708 99.0895C140.928 99.3259 142.399 98.4195 144.415 98.5154C146.431 98.5853 147.859 99.6123 148.09 99.3932C148.203 99.2973 147.987 98.8784 147.367 98.4148C146.755 97.954 145.696 97.4844 144.44 97.4325C143.183 97.3819 142.104 97.7615 141.474 98.1711C140.831 98.5833 140.599 98.9823 140.708 99.0895Z" fill="#263238"/>
<path d="M142.124 93.1541C142.498 93.5957 144.077 93.2274 145.948 93.2913C147.822 93.3013 149.388 93.7329 149.775 93.3066C149.946 93.0988 149.72 92.6633 149.049 92.2304C148.388 91.8001 147.265 91.4218 145.978 91.3952C144.691 91.3705 143.556 91.7036 142.883 92.1078C142.2 92.5127 141.96 92.9396 142.124 93.1541Z" fill="#263238"/>
<path d="M126.86 109.209C126.952 108.206 125.92 105.738 124.862 105.497C122.039 104.855 116.861 104.653 116.182 111.373C115.255 120.557 126.822 119.362 126.865 119.1C126.901 118.896 126.544 112.676 126.86 109.209Z" fill="#FFBF9D"/>
<path d="M123.06 115.67C123.019 115.637 122.875 115.767 122.571 115.866C122.273 115.962 121.774 116.003 121.275 115.779C120.262 115.332 119.534 113.716 119.654 112.056C119.713 111.217 119.982 110.438 120.369 109.806C120.74 109.161 121.257 108.732 121.794 108.691C122.331 108.624 122.675 108.949 122.772 109.217C122.879 109.486 122.797 109.664 122.848 109.684C122.873 109.71 123.077 109.549 123.035 109.163C123.012 108.977 122.918 108.75 122.702 108.553C122.483 108.354 122.142 108.232 121.769 108.237C120.998 108.22 120.244 108.812 119.819 109.505C119.352 110.198 119.028 111.072 118.961 112.013C118.837 113.869 119.686 115.69 121.084 116.198C121.765 116.426 122.368 116.282 122.69 116.091C123.019 115.891 123.092 115.69 123.06 115.67Z" fill="#FF9A6C"/>
<path d="M124.456 105.769L126.9 108.269C138.147 98.9243 160.31 75.3519 159.07 76.7585C159.07 76.7585 151.69 73.6942 143.529 74.7352C135.369 75.7761 119.845 79.0822 119.777 87.944C119.71 96.8058 124.456 105.769 124.456 105.769Z" fill="#263238"/>
<path d="M171.992 84.3909C171.148 82.6892 172.072 80.6306 173.642 79.3759C175.213 78.1211 177.297 77.4978 179.328 76.941C181.359 76.3842 183.455 75.8368 185.129 74.6886C188.449 72.4115 189.329 68.2896 188.867 64.6326C187.983 57.6436 183.048 51.3299 176.497 47.238C169.947 43.1461 161.917 41.1208 153.884 40.5048C137.177 39.2227 122.126 44.5687 109.321 54.0392C107.22 55.5937 105.898 57.9826 105.782 60.3809C105.69 62.2837 106.898 64.0312 108.15 65.5897C112.003 70.3895 116.52 73.7109 121.826 77.3053L120.338 85.1528L171.992 84.3909Z" fill="#FFA71E"/>
<path d="M184.136 61.248C184.152 61.262 183.979 61.4798 183.612 61.8308C183.247 62.1824 182.679 62.6579 181.927 63.1841C181.174 63.7096 180.234 64.2783 179.173 64.8737C178.115 65.4718 176.938 66.1038 175.765 66.8437C174.594 67.585 173.546 68.3822 172.737 69.2287C171.925 70.0725 171.349 70.9523 170.987 71.7362C170.258 73.3219 170.398 74.4381 170.317 74.4288C170.299 74.4302 170.243 74.1618 170.263 73.6709C170.282 73.1814 170.402 72.4688 170.741 71.6443C171.083 70.8224 171.654 69.9 172.477 69.0182C173.297 68.1331 174.365 67.3099 175.553 66.558C176.743 65.8075 177.931 65.1814 178.996 64.6C180.063 64.0206 181.007 63.4798 181.771 62.9856C183.303 62.0013 184.091 61.2067 184.136 61.248Z" fill="#263238"/>
<path d="M176.008 53.4099C176.051 53.4718 174.83 54.1285 173.127 55.4991C172.704 55.8441 172.243 56.2244 171.788 56.6713C171.309 57.0955 170.857 57.6003 170.366 58.1185C169.427 59.1868 168.48 60.4268 167.644 61.8168C166.825 63.2161 166.203 64.6206 165.733 65.928C165.524 66.5893 165.307 67.2134 165.177 67.8148C165.013 68.4095 164.915 68.9736 164.827 69.4891C164.493 71.5544 164.55 72.8591 164.47 72.8584C164.444 72.8591 164.424 72.5347 164.408 71.946C164.396 71.6509 164.393 71.2906 164.431 70.8731C164.462 70.4555 164.472 69.9766 164.565 69.4558C164.636 68.9317 164.721 68.3589 164.874 67.7535C164.992 67.1408 165.2 66.5054 165.403 65.8321C165.861 64.5008 166.484 63.0702 167.315 61.6496C168.163 60.239 169.134 58.9843 170.101 57.9127C170.606 57.3926 171.073 56.8884 171.569 56.4675C172.039 56.0233 172.516 55.649 172.955 55.312C173.38 54.9603 173.812 54.6953 174.175 54.4462C174.536 54.1931 174.866 54.0013 175.142 53.8528C175.687 53.5477 175.994 53.3892 176.008 53.4099Z" fill="#263238"/>
<path d="M157.273 49.8401C157.299 49.8434 157.281 50.1465 157.226 50.6899C157.169 51.2334 157.094 52.0199 157.015 52.9916C156.855 54.935 156.732 57.6277 156.841 60.5987C156.954 63.5704 157.279 66.249 157.584 68.1778C157.735 69.1421 157.869 69.922 157.967 70.4601C158.062 70.9989 158.102 71.2993 158.077 71.3046C158.052 71.3093 157.962 71.0182 157.823 70.4868C157.681 69.9553 157.507 69.1801 157.321 68.2164C156.949 66.2903 156.58 63.5997 156.465 60.6107C156.356 57.6223 156.522 54.915 156.751 52.9696C156.864 51.9966 156.979 51.2114 157.081 50.6726C157.181 50.1332 157.248 49.8368 157.273 49.8401Z" fill="#263238"/>
<path d="M145.05 46.4195C145.076 46.4209 145.084 46.8018 145.077 47.4885C145.066 48.1751 145.063 49.1688 145.081 50.3955C145.114 52.8484 145.292 56.237 145.812 59.9487C146.338 63.6603 147.104 66.9789 147.753 69.3572C148.075 70.5467 148.352 71.5071 148.554 72.1678C148.751 72.8298 148.849 73.2001 148.824 73.2074C148.8 73.2147 148.655 72.8584 148.414 72.207C148.17 71.557 147.853 70.6053 147.496 69.4192C146.781 67.0489 145.969 63.7222 145.441 59.9926C144.919 56.2637 144.781 52.8564 144.816 50.3955C144.833 49.1648 144.875 48.1691 144.932 47.4831C144.984 46.7971 145.025 46.4189 145.05 46.4195Z" fill="#263238"/>
<path d="M121.968 54.243C121.987 54.227 122.26 54.4835 122.737 54.9603C123.216 55.4358 123.886 56.1418 124.695 57.0309C126.313 58.8071 128.452 61.3406 130.609 64.2723C132.764 67.2074 134.525 69.9793 135.715 72.0246C136.311 73.0469 136.775 73.8834 137.076 74.4701C137.381 75.0555 137.538 75.3839 137.515 75.3952C137.492 75.4058 137.291 75.0982 136.948 74.5327C136.568 73.9133 136.076 73.1101 135.484 72.1438C134.237 70.1338 132.448 67.3919 130.3 64.4668C128.15 61.5444 126.052 58.9969 124.489 57.1854C123.736 56.3209 123.109 55.6017 122.626 55.0476C122.184 54.5454 121.949 54.259 121.968 54.243Z" fill="#263238"/>
<path d="M120.739 99.8814C117.993 91.1954 119.436 85.1521 121.238 78.955C121.238 78.955 143.464 66.6872 161.783 70.564C161.783 70.564 173.225 72.6899 174.7 78.1811L175.022 96.8864C175.022 96.8864 173.773 89.4844 157.113 88.8983C140.452 88.3123 120.739 99.8814 120.739 99.8814Z" fill="#FFA71E"/>
<path d="M145.94 119.313C146.076 118.701 146.49 118.179 146.992 117.835C147.998 117.147 149.39 117.167 150.354 117.881C151.319 118.596 151.798 119.962 151.511 121.183C150.885 121.869 149.976 122.299 149.006 122.312C148.855 122.314 148.705 122.31 148.553 122.296C147.823 122.23 147.097 121.952 146.577 121.416C146.057 120.88 145.772 120.068 145.94 119.313Z" fill="#FF9A6C"/>
<path d="M147.416 116.309C147.704 116.328 147.465 118.092 148.928 119.538C150.387 120.987 152.45 121.028 152.431 121.276C152.443 121.39 151.931 121.566 151.069 121.486C150.222 121.414 149.026 121.019 148.131 120.135C147.239 119.25 146.951 118.174 146.985 117.442C147.014 116.696 147.287 116.284 147.416 116.309Z" fill="#263238"/>
<path d="M174.224 78.253C174.213 78.2577 174.11 78.0952 173.928 77.7828C173.83 77.6296 173.737 77.4265 173.582 77.2107C173.424 76.9909 173.246 76.7425 173.047 76.4668C172.199 75.3839 170.67 73.9779 168.363 72.8657C166.074 71.7329 163.066 70.8937 159.659 70.4681C156.251 70.0352 152.436 69.9773 148.498 70.4688C146.528 70.7066 144.626 71.0755 142.812 71.5104C140.998 71.9433 139.281 72.4821 137.642 72.9856C134.37 74.0046 131.464 75.0322 129.042 75.936C126.618 76.8384 124.678 77.6156 123.335 78.1484C122.689 78.4042 122.173 78.6086 121.788 78.7612C121.433 78.899 121.244 78.9656 121.239 78.955C121.234 78.9443 121.411 78.8557 121.757 78.6979C122.136 78.5307 122.641 78.3063 123.276 78.0259C124.602 77.4545 126.528 76.6426 128.943 75.7096C131.356 74.7752 134.258 73.7215 137.532 72.6832C139.17 72.1711 140.891 71.6236 142.719 71.1821C144.545 70.7399 146.462 70.3649 148.449 70.1251C152.42 69.629 156.272 69.6976 159.708 70.1518C163.144 70.5987 166.181 71.4718 168.49 72.6493C170.816 73.8068 172.346 75.2673 173.167 76.3882C173.357 76.6739 173.528 76.9303 173.679 77.1581C173.825 77.3819 173.91 77.5917 173.996 77.7508C174.157 78.0765 174.236 78.2483 174.224 78.253Z" fill="#263238"/>
</svg>
