<svg width="807" height="534" viewBox="0 0 807 534" fill="none" xmlns="http://www.w3.org/2000/svg">
<g clip-path="url(#clip0_19_2039)">
<path d="M737.017 464.572L589.566 464.086L62.3912 462.356C62.3912 462.356 3.47037 380.544 50.2587 289.132C63.2665 263.717 73.7311 249.339 83.3629 239.566C83.3659 239.566 83.3659 239.563 83.3659 239.563C99.5568 223.127 113.397 219.699 133.025 198.704C143.716 187.268 156.124 170.622 171.565 143.824C190.584 110.813 212.517 88.4673 235.368 74.0896C285.388 42.625 339.825 49.3553 377.848 66.0857C433.237 90.4637 448.017 131.896 579.264 107.719C710.509 83.5422 756.874 179.948 738.024 273.604C735.958 283.863 735.153 292.865 735.263 300.904C735.34 306.698 735.897 311.993 736.803 316.896C746.104 367.278 792.278 376.487 737.017 464.572Z" fill="#EBF3FA"/>
<path d="M778.949 464.572H30.8193C30.2325 464.572 29.7526 464.064 29.7526 463.443V462.384C29.7526 461.763 30.2325 461.255 30.8193 461.255H778.949C779.536 461.255 780.016 461.763 780.016 462.384V463.443C780.016 464.064 779.536 464.572 778.949 464.572Z" fill="#2E3552"/>
<path d="M737.017 464.572L589.566 464.086C585.805 389.07 514.007 317.209 410.183 344.915C305.191 372.933 304.707 234.705 236.638 211.38C169.046 188.214 84.5476 238.853 83.3661 239.562C108.375 214.177 127.777 219.818 171.565 143.824C232.219 38.5644 322.456 41.7107 377.848 66.0854C433.237 90.4633 448.017 131.896 579.265 107.719C710.509 83.5419 756.875 179.948 738.024 273.603C719.173 367.258 805.117 356.02 737.017 464.572Z" fill="#233862"/>
<path d="M241.344 297.745C241.344 297.745 243.524 294.945 244.696 294.551C245.868 294.158 248.137 292.299 248.432 293.066C248.728 293.832 246.908 295.013 247.004 295.889C247.1 296.764 252.792 298.17 252.757 299.096C252.722 300.023 251.418 302.262 249.246 302.006C247.076 301.748 241.57 300.365 240.439 300.963C239.308 301.56 241.344 297.745 241.344 297.745Z" fill="#FFB27D"/>
<path d="M182.642 284.123C185.856 288.694 189.619 292.304 193.485 295.149C205.773 304.201 219.103 305.549 219.103 305.549C222.298 304.466 232.111 303.336 237.91 302.346H237.912C240.44 301.917 242.204 301.512 242.323 301.152L242.177 295.805C242.177 295.805 220.893 294.613 217.369 292.883C211.811 287.813 206.901 281.231 203.702 276.089C200.999 271.745 197.975 268.538 192.988 266.655C185.777 263.933 172.664 269.931 182.642 284.123Z" fill="#AEC3FF"/>
<path d="M192.4 291.785L193.485 295.149C205.773 304.201 219.103 305.549 219.103 305.549C221.67 305.549 232.111 303.336 237.91 302.346C237.68 302.367 222.121 303.654 218.683 303.277C215.218 302.898 199.09 288.099 199.09 288.099L192.4 291.785Z" fill="#94B0ED"/>
<path d="M206.295 461.255H182.774C181.088 460.045 183.228 448.215 183.228 448.215C183.228 448.215 189.648 445.636 190.757 450.88C191.869 456.121 198.933 457.787 202.672 458.426C205.231 458.867 206.039 460.355 206.295 461.255Z" fill="#233862"/>
<path d="M171.411 461.255H147.889C146.204 460.045 148.344 448.215 148.344 448.215C148.344 448.215 154.763 445.636 155.872 450.88C156.984 456.121 164.049 457.787 167.788 458.426C170.346 458.867 171.155 460.355 171.411 461.255Z" fill="#233862"/>
<path d="M199.967 340.571C199.967 340.571 198.91 354.536 197.667 371.323C195.978 394.126 191.423 450.665 191.423 450.665C191.423 450.665 188.436 453.363 181.821 451.887C181.821 451.887 176.191 432.382 174.507 410.12C174.481 409.755 174.455 409.388 174.429 409.02C172.862 386.357 170.427 338.636 170.427 338.636L199.967 340.571Z" fill="#F99746"/>
<path d="M200.327 335.745C200.327 335.745 198.909 354.536 197.667 371.323L174.507 410.12C174.481 409.755 174.455 409.388 174.429 409.02C172.863 386.358 170.427 338.636 170.427 338.636L200.327 335.745Z" fill="#ED7D2B"/>
<path d="M193.577 335.745C193.577 335.745 176.781 380.012 171.411 396.791C167.586 408.744 156.799 450.674 156.799 450.674C156.799 450.674 152.108 452.185 148.166 449.264C148.166 449.264 144.153 406.426 152.26 394.346C156.56 387.938 153.328 327.729 170.766 327.213C188.204 326.698 193.577 335.745 193.577 335.745Z" fill="#F99746"/>
<path d="M186.075 270.489C183.51 271.918 181.008 272.008 178.838 271.52C176.854 271.078 175.15 270.15 173.936 269.329C172.69 268.486 171.958 267.752 171.958 267.752C171.958 267.752 172.045 267.619 172.191 267.358C172.948 265.986 175.245 261.054 174.223 253.13C174.21 253.026 174.951 253.173 176.071 253.453C179.404 254.289 186.104 256.301 186.401 256.39C186.408 256.39 186.412 256.39 186.412 256.39C186.412 256.39 186.494 258.057 186.77 261.045C186.793 261.308 186.818 261.583 186.845 261.868C186.88 262.218 186.914 262.59 186.955 262.972C187.265 266.078 186.075 270.489 186.075 270.489Z" fill="#FFB27D"/>
<path d="M186.77 261.045C181.795 262.252 174.369 254.475 174.369 254.475C174.912 254.048 175.482 253.709 176.071 253.453C179.404 254.289 186.104 256.301 186.401 256.39C186.408 256.39 186.412 256.39 186.412 256.39C186.412 256.39 186.494 258.057 186.77 261.045Z" fill="#ED975D"/>
<path d="M188.461 255.969C188.461 255.969 186.415 256.747 183.806 257.118C179.992 257.663 174.976 257.341 173.4 252.455C170.746 244.231 167.356 239.3 175.166 235.941C179.347 234.144 182.022 234.048 183.839 234.734C185.417 235.326 186.348 236.509 187.052 237.68C188.569 240.197 191.62 254.53 188.461 255.969Z" fill="#FFB27D"/>
<path d="M193.2 238.329C188.677 241.771 182.422 238.388 180.477 239.303C178.535 240.217 178.186 243.666 178.151 244.761C178.116 245.858 177.98 246.783 175.342 246.127C174.91 246.02 174.598 246.051 174.384 246.187C173.29 246.874 174.688 250.206 175.11 250.927C175.11 250.927 175.717 253.314 174.37 254.475C174.207 254.614 171.561 255.839 165.185 245.507C164.182 243.886 163.226 240.232 164.774 236.715C166.319 233.197 172.782 229.797 178.262 227.996C180.315 227.32 181.838 227.345 183.029 227.807C185.016 228.576 186.075 230.564 187.126 232.561C188.889 235.915 193.2 238.329 193.2 238.329Z" fill="#A9453D"/>
<path d="M202.594 328.29C202.231 333.364 201.217 336.997 198.999 336.997C198.999 336.997 189.13 340.675 177.336 340.773C175.031 340.791 171.766 340.316 169.058 339.836C166.293 339.34 164.103 338.839 164.103 338.839C161.732 338.26 159.115 336.709 159.466 333.847C159.664 332.226 159.802 330.115 159.898 327.661C160.158 321.03 160.114 311.892 160.147 303.146C160.17 297.773 160.219 292.551 160.389 288.146C160.389 288.146 158.061 270.842 160.647 268.004C163.674 264.682 172.567 263.662 173.124 263.789C173.291 263.752 173.458 263.708 173.63 263.677C173.63 263.677 181.204 268.196 186.829 264.851C186.829 264.851 186.883 264.862 186.988 264.877C188.359 265.106 195.198 266.78 197.559 269.424C198.374 270.333 201.626 275.92 201.715 282.055C201.839 290.607 201.523 300.324 201.523 300.326C201.608 301.715 201.748 303.505 201.903 305.55C202.068 307.728 202.25 310.189 202.404 312.754C202.481 314.047 202.553 315.367 202.611 316.686C202.786 320.759 202.839 324.856 202.594 328.29Z" fill="#AEC3FF"/>
<path d="M188.52 250.66C188.52 250.66 188.683 251.724 186.345 252.574C186.345 252.574 184.382 253.288 184.024 252.196C184.024 252.196 185.583 250.624 188.52 250.66Z" fill="white"/>
<path d="M167.849 295.962C167.849 295.962 167.865 320.713 159.897 327.661C160.157 321.03 160.114 311.892 160.147 303.146L167.849 295.962Z" fill="#94B0ED"/>
<path d="M143.353 342.295C143.353 342.295 139.296 349.039 139.068 351.62C138.913 353.375 139.286 360.293 140.113 360.317C141.281 360.351 142.449 356.048 142.901 354.931C143.353 353.814 143.88 352.936 144.332 352.936C144.784 352.936 143.353 357.244 144.332 356.765C145.312 356.287 146.97 352.301 147.12 351.342C147.271 350.383 146.236 347.317 146.741 346.109C147.246 344.902 143.353 342.295 143.353 342.295Z" fill="#FFB27D"/>
<path d="M161.419 267.066C161.419 267.066 155.937 269.808 151.34 290.105C147.875 305.408 141.243 344.48 141.243 344.48L146.853 346.923C146.853 346.923 167.398 296.985 170.337 289.962C173.275 282.939 161.419 267.066 161.419 267.066Z" fill="#AEC3FF"/>
<path d="M738.024 273.603C734.471 291.26 734.642 305.187 736.803 316.895C728.744 318.104 720.144 319.442 711.035 320.917C646.149 331.422 655.943 248.198 600.851 218.419C545.759 188.636 495.564 241.717 423.541 248.169C351.517 254.618 355.11 184.641 273.669 172.56C192.231 160.477 133.025 198.704 133.025 198.704C143.716 187.268 156.124 170.622 171.565 143.824C177.882 132.861 184.518 123.075 191.408 114.365C191.741 113.94 192.078 113.516 192.415 113.098C194.144 110.943 195.888 108.859 197.651 106.837C198.013 106.416 198.38 106.001 198.747 105.586C256.924 39.8703 330.252 45.1393 377.848 66.0854C433.237 90.4633 448.017 131.896 579.264 107.719C710.509 83.5416 756.875 179.948 738.024 273.603Z" fill="#2B478B"/>
<path d="M738.024 273.603C735.958 283.862 735.153 292.864 735.263 300.904H735.26C710.962 294.471 699.928 280.758 695.408 264.98V264.977C694.514 261.873 693.877 258.694 693.439 255.469C692.234 246.571 692.552 237.365 693.32 228.694C693.384 227.958 693.455 227.229 693.525 226.503C693.623 225.502 693.724 224.51 693.828 223.528C693.883 223.003 693.941 222.485 693.999 221.966C694.657 216.053 695.395 210.521 695.83 205.657V205.654C696.136 202.235 696.292 199.15 696.163 196.503C696.096 195.12 695.949 193.852 695.707 192.725C695.646 192.436 695.576 192.155 695.499 191.886C694.217 187.317 690.948 185.149 686.436 184.462H686.433C671.344 182.164 642.4 196.416 627.754 192.725C615.009 189.514 618.707 176.536 616.586 163.894C615.943 160.061 614.768 156.26 612.435 152.773C610.822 150.353 608.649 148.081 605.714 146.056C584.593 131.474 456.95 156.753 374.304 163.558C291.659 170.363 326.554 107.167 319.208 88.6937C311.86 70.2231 292.577 100.363 264.19 98.4181C247.228 97.2547 239.135 84.3157 235.368 74.0888C285.388 42.6241 339.825 49.3544 377.848 66.0849C433.237 90.4628 448.017 131.895 579.264 107.718C666.187 91.7073 715.88 128.587 734.051 182.53C734.112 182.708 734.171 182.883 734.229 183.062C734.648 184.319 735.049 185.586 735.432 186.859C735.435 186.869 735.438 186.879 735.441 186.888C737.142 192.546 738.511 198.376 739.548 204.341C739.588 204.555 739.625 204.772 739.661 204.986C739.854 206.107 740.032 207.232 740.197 208.363C740.261 208.781 740.322 209.202 740.381 209.623C743.258 230.074 742.389 251.912 738.024 273.603Z" fill="#1C51A5"/>
<path d="M367.324 389.933C367.814 390.527 367.876 391.19 367.634 391.899C367.634 391.902 367.632 391.906 367.629 391.909C367.181 393.219 365.701 394.683 363.982 396.145C363.763 396.332 363.567 396.503 363.397 396.661C363.352 396.703 363.308 396.744 363.265 396.786C363.231 396.818 363.197 396.852 363.164 396.883C361.561 398.447 362.165 398.806 359.285 401.98C356.001 405.598 353.74 405.663 353.097 405.333C352.552 405.053 353.658 403.134 354.883 400.978C354.942 400.874 355 400.769 355.061 400.663C355.224 400.377 355.387 400.086 355.549 399.797C356.984 397.202 356.616 395.984 356.275 392.122C355.998 388.983 351.663 374.587 351.663 374.587L357.956 373.439C357.956 373.439 359.851 384.903 361.939 386.668C363.056 387.609 364.306 387.621 365.379 388.319C365.455 388.367 365.529 388.417 365.602 388.468C366.213 388.896 366.834 389.337 367.324 389.933Z" fill="#FFB27D"/>
<path d="M367.324 389.933C367.814 390.527 367.876 391.19 367.634 391.899C367.634 391.902 367.632 391.906 367.629 391.909C367.081 393.218 365.638 394.674 363.976 396.131C363.759 396.322 363.567 396.497 363.397 396.661C363.352 396.702 363.308 396.744 363.266 396.786C363.231 396.818 363.197 396.852 363.164 396.882C361.561 398.447 362.165 398.805 359.285 401.98C356.001 405.598 353.74 405.663 353.097 405.333C352.552 405.052 353.658 403.134 354.883 400.977C355.522 400.729 358.492 399.453 360.737 396.411C362.714 393.739 364.033 390.307 365.379 388.318C365.455 388.367 365.529 388.416 365.602 388.468C366.213 388.896 366.834 389.337 367.324 389.933Z" fill="#233862"/>
<path d="M316.58 385.772C316.191 387.828 313.422 387.485 310.329 386.685C307.235 385.884 307.971 386.836 303.568 386.32C299.165 385.804 297.831 384.066 297.697 383.373C297.576 382.758 299.752 382.541 302.086 382.256C302.379 382.221 302.674 382.183 302.968 382.144C305.603 381.794 307.532 379.994 309.925 378.516C312.192 377.116 315.575 371.412 315.575 371.412L321.613 371.918C321.613 371.918 318.444 377.013 317.219 379.228C316.498 380.531 316.536 382.254 316.626 383.585C316.673 384.308 316.718 385.047 316.58 385.772Z" fill="#FFB27D"/>
<path d="M310.329 386.685C307.235 385.884 307.971 386.836 303.568 386.32C299.165 385.804 297.831 384.066 297.697 383.373C297.576 382.758 299.752 382.541 302.086 382.256L302.107 382.304C302.107 382.304 304.748 384.286 308.413 384.379C311.4 384.455 314.564 383.55 316.626 383.585C316.673 384.308 316.718 385.047 316.58 385.771C316.191 387.828 313.422 387.485 310.329 386.685Z" fill="#233862"/>
<path d="M339.719 344.895L345.364 360.976L352.733 381.973C352.733 381.973 354.733 382.177 356.648 381.594C358.411 381.054 360.434 379.643 360.434 379.643C360.434 379.643 358.388 357.098 354.571 344.156C353.593 340.835 352.497 338.148 351.287 336.635C345.369 329.231 339.719 344.895 339.719 344.895Z" fill="#ED7D2B"/>
<path d="M345.459 319.357C349.156 318.094 359.703 319.715 370.298 321.911L372.516 318.037L395.401 316.145C395.401 316.145 402.952 333.875 398.818 345.172C398.211 346.832 397.223 347.87 394.95 348.258C394.949 348.259 385.231 349.948 377.006 349.051C365.685 347.816 352.898 342.033 351.254 341.685C348.564 341.115 347.073 344.42 344.382 350.401C341.692 356.382 319.095 376.889 319.095 376.889C319.095 376.889 315.622 376.925 314.188 376.355C312.645 375.743 312.081 374.947 312.081 374.947C312.081 374.947 337.119 322.205 345.459 319.357Z" fill="#F99746"/>
<path d="M368.409 282.169C375.31 288.774 392.142 300.491 392.24 300.45C392.24 300.45 397.628 304.287 401.509 302.766C407.977 300.231 413.334 290.398 405.137 278.737C401.049 272.921 397.522 270.885 398.738 263.521C400.056 255.543 397.13 245.259 388.423 244.351C387.695 244.275 383.306 243.405 380.099 244.279C371.927 246.504 356.918 277.409 368.409 282.169Z" fill="#A9453D"/>
<path d="M378.646 277.526C378.606 277.541 382.392 280.429 385.3 279.852C388.035 279.312 390.873 275.467 390.837 275.455C389.723 275.118 388.718 273.767 389.291 266.686L388.77 266.748L380.019 267.806C380.019 267.806 379.993 270.692 379.789 273.396C379.619 275.666 379.156 277.326 378.646 277.526Z" fill="#FFB27D"/>
<path d="M380.019 267.806C380.019 267.806 379.993 270.692 379.789 273.396C384.619 273.67 387.527 269.237 388.77 266.748L380.019 267.806Z" fill="#ED975D"/>
<path d="M378.211 270.226C378.211 270.226 389.597 271.414 390.187 263.896C390.778 256.378 392.645 251.468 385.4 250.391C378.155 249.314 376.516 252.059 375.742 254.517C374.969 256.976 375.265 269.723 378.211 270.226Z" fill="#FFB27D"/>
<path d="M379.431 249.204C379.431 249.204 380.865 258.389 387.35 260.569C392.08 262.159 394.223 261.11 394.223 261.11C394.223 261.11 391.945 257.912 391.136 253.468C390.898 252.158 390.018 251.08 388.821 250.663C385.459 249.493 381.386 246.291 379.431 249.204Z" fill="#A9453D"/>
<path d="M381.577 251.163C381.577 251.163 379.431 251.669 377.529 254.601C376.49 256.203 375.286 260.241 375.492 262.029C375.492 262.029 373.499 253.528 376.405 250.366C379.486 247.012 381.577 251.163 381.577 251.163Z" fill="#A9453D"/>
<path d="M399.316 302.706C399.114 303.619 398.939 304.458 398.798 305.233C398.566 306.484 398.407 307.563 398.294 308.512C397.945 311.477 398.052 313.234 397.816 315.158C397.685 316.231 397.446 317.359 396.965 318.775C396.494 320.152 384.12 321.38 377.08 320.884C374.846 320.732 373.141 320.398 372.538 319.844C370.604 318.065 370.307 320.67 370.117 310.852C370.059 307.926 370.013 303.894 369.933 298.314C369.918 297.274 369.979 296.244 370.105 295.23C371.387 284.688 379.431 275.904 379.431 275.904C379.431 275.904 380.364 280.842 389.95 274.818C390.29 274.607 398.835 277.822 400.632 281.736C402.444 285.68 400.445 297.692 399.316 302.706Z" fill="#F9DDBF"/>
<path d="M345.364 360.976L352.733 381.973C352.733 381.973 354.733 382.177 356.648 381.594C358.411 381.054 360.435 379.643 360.435 379.643C360.435 379.643 358.388 357.098 354.571 344.156L345.364 360.976Z" fill="#F99746"/>
<path d="M380.839 265.792C380.839 265.792 380.362 267.028 379.101 267.028C377.84 267.028 377.5 266.829 377.261 266.546C377.023 266.263 376.786 265.719 376.786 265.719C376.786 265.719 378.875 265.282 380.839 265.792Z" fill="white"/>
<path d="M397.228 292.793C397.228 292.793 389.151 306.957 380.838 308.794C375.525 309.967 371.981 310.57 370.117 310.852C370.059 307.926 370.012 303.895 369.933 298.315C369.918 297.274 369.979 296.244 370.105 295.23C373.098 294.847 379.917 293.34 386.302 287.41L397.228 292.793Z" fill="#EDC39D"/>
<path d="M379.43 275.904C379.43 275.904 372.659 276.126 369.057 278.766C366.423 280.696 359.263 288.987 359.263 288.987L359.807 292.792L362.425 294.57L372.219 291.476L379.43 275.904Z" fill="#F9DDBF"/>
<path d="M330.714 294.59C327.864 284.801 333.048 274.418 342.294 271.4C351.54 268.382 361.346 273.871 364.197 283.66C367.048 293.449 361.863 303.832 352.617 306.85C343.371 309.868 333.565 304.379 330.714 294.59Z" fill="#AEC3FF"/>
<path d="M336.429 285.753C337.767 285.711 338.82 284.529 338.781 283.113C338.741 281.696 337.625 280.582 336.287 280.623C334.949 280.665 333.896 281.847 333.936 283.264C333.975 284.68 335.092 285.795 336.429 285.753Z" fill="#94B0ED"/>
<path d="M351.59 275.386C351.59 274.894 351.967 274.495 352.431 274.495C352.896 274.495 353.272 274.894 353.272 275.386C353.272 275.878 352.896 276.276 352.431 276.276C351.967 276.276 351.59 275.878 351.59 275.386Z" fill="#94B0ED"/>
<path d="M351.59 283.311C351.59 282.395 352.292 281.653 353.157 281.653C354.022 281.653 354.723 282.395 354.723 283.311C354.723 284.227 354.022 284.97 353.157 284.97C352.292 284.97 351.59 284.227 351.59 283.311Z" fill="#94B0ED"/>
<path d="M343.398 288.987C343.398 287.613 344.451 286.499 345.749 286.499C347.047 286.499 348.099 287.613 348.099 288.987C348.099 290.361 347.047 291.476 345.749 291.476C344.451 291.476 343.398 290.361 343.398 288.987Z" fill="#94B0ED"/>
<path d="M344.965 302.728C344.965 302 345.522 301.41 346.21 301.41C346.898 301.41 347.456 302 347.456 302.728C347.456 303.456 346.898 304.047 346.21 304.047C345.522 304.047 344.965 303.457 344.965 302.728Z" fill="#94B0ED"/>
<path d="M356.208 295.032C356.208 294.626 356.519 294.296 356.903 294.296C357.287 294.296 357.598 294.625 357.598 295.032C357.598 295.439 357.287 295.768 356.903 295.768C356.519 295.768 356.208 295.439 356.208 295.032Z" fill="#94B0ED"/>
<path d="M359.807 296.987L358.22 294.923C358.22 294.923 357.146 293.909 356.367 293.737C355.588 293.564 353.942 292.559 353.782 292.842C353.623 293.126 355.047 295.145 355.047 295.145L355.119 295.156C353.485 296.457 349.358 295.308 348.849 295.839C348.232 296.483 349.699 297.874 350.486 298.655C351.273 299.437 353.524 300.739 355.279 300.161C356.561 299.738 358.58 299.308 358.58 299.308L359.807 296.987Z" fill="#FFB27D"/>
<path d="M392.764 279.515C392.764 279.515 381.392 294.602 376.777 295.599C374.069 296.184 359.469 296.08 359.469 296.08L357.15 300.467C357.15 300.467 369.12 305.723 377.955 305.39C388.964 304.976 400.475 289.141 400.475 288.14C400.475 287.139 398.212 278.281 392.764 279.515Z" fill="#F9DDBF"/>
<path d="M331.532 297.719C331.301 297.622 331.088 297.422 330.934 297.174C330.533 296.529 329.72 295.044 329.907 293.885C330.153 292.359 332.504 290.404 333.064 291.351C333.624 292.297 333.626 295.812 333.154 296.696C332.746 297.459 332.302 298.043 331.532 297.719Z" fill="#FFB27D"/>
<path d="M693.983 266.522C718.352 240.721 718.352 198.89 693.983 173.089C669.613 147.288 630.103 147.288 605.733 173.089C581.364 198.89 581.364 240.721 605.733 266.522C630.102 292.323 669.613 292.323 693.983 266.522Z" fill="#F99746"/>
<path d="M739.662 204.987C739.625 204.773 739.588 204.556 739.548 204.342C731.419 207.79 722.2 211.474 712.134 215.285H712.131C710.772 215.804 709.401 216.322 708.008 216.84C703.491 218.529 698.814 220.24 693.999 221.967C682.984 225.914 671.249 229.935 659.05 233.917C655.141 235.194 651.269 236.435 647.447 237.644C628.774 243.555 611.221 248.662 595.755 252.738H595.752C560.138 262.132 535.659 266.066 534.428 261.84C533.29 257.948 552.18 248.003 582.117 235.917C584.277 235.045 586.493 234.16 588.767 233.266H588.771C588.731 233.052 588.688 232.845 588.648 232.634C588.633 232.553 588.618 232.475 588.605 232.394C588.596 232.346 588.587 232.297 588.578 232.245C588.569 232.197 588.562 232.151 588.553 232.106C588.541 232.064 588.535 232.018 588.526 231.976C588.526 231.97 588.523 231.96 588.52 231.954C588.517 231.918 588.507 231.886 588.501 231.85C588.495 231.808 588.489 231.766 588.48 231.724C588.477 231.685 588.468 231.643 588.462 231.601C588.456 231.565 588.449 231.529 588.443 231.494C588.407 231.29 588.373 231.082 588.339 230.878C588.309 230.674 588.275 230.467 588.245 230.263C588.229 230.172 588.214 230.078 588.202 229.987C588.199 229.968 588.196 229.948 588.193 229.932C588.183 229.874 588.174 229.812 588.165 229.754C588.159 229.712 588.153 229.673 588.147 229.634C588.144 229.592 588.138 229.553 588.132 229.511C588.128 229.508 588.128 229.505 588.128 229.498C588.125 229.488 588.125 229.479 588.125 229.469V229.456C588.122 229.44 588.122 229.424 588.119 229.404C588.116 229.394 588.116 229.388 588.113 229.378V229.375L588.104 229.317C588.101 229.288 588.095 229.262 588.092 229.229H588.089C582.576 231.413 577.309 233.565 572.335 235.665C539.846 249.388 519.554 261.031 521.069 266.209C522.823 272.246 553.882 267.855 597.855 256.352H597.861C616.301 251.527 637.022 245.448 658.805 238.364C659.273 238.215 659.741 238.066 660.21 237.91C671.761 234.138 682.923 230.308 693.525 226.504C698.324 224.776 703.01 223.056 707.567 221.345C709.153 220.749 710.723 220.156 712.281 219.563C719.023 216.993 725.457 214.456 731.526 211.974C734.507 210.755 737.399 209.55 740.197 208.364C740.032 207.232 739.855 206.108 739.662 204.987ZM734.229 183.062C726.534 184.838 718.24 186.912 709.465 189.248C708.219 189.582 706.961 189.919 705.694 190.262C705.765 190.405 705.826 190.544 705.89 190.686C705.896 190.699 705.899 190.712 705.906 190.725C705.912 190.735 705.918 190.745 705.921 190.758C705.924 190.768 705.93 190.777 705.937 190.787C705.992 190.904 706.044 191.017 706.092 191.13C706.102 191.153 706.108 191.169 706.117 191.189C706.126 191.208 706.135 191.224 706.144 191.244C706.169 191.296 706.191 191.344 706.212 191.396C706.236 191.448 706.261 191.503 706.282 191.555C706.282 191.558 706.285 191.558 706.285 191.558C706.285 191.558 706.289 191.558 706.289 191.561C706.377 191.753 706.457 191.947 706.543 192.142C706.546 192.151 706.549 192.164 706.555 192.174C706.561 192.19 706.567 192.203 706.57 192.216C706.589 192.255 706.601 192.287 706.616 192.323C706.653 192.404 706.69 192.488 706.723 192.569C706.754 192.641 706.785 192.712 706.815 192.783C706.821 192.796 706.824 192.806 706.831 192.819C706.901 192.987 706.968 193.152 707.036 193.321C707.063 193.386 707.088 193.45 707.115 193.515C707.127 193.541 707.14 193.567 707.149 193.593C707.158 193.606 707.164 193.622 707.17 193.639C707.188 193.681 707.204 193.723 707.219 193.765C707.256 193.846 707.289 193.93 707.32 194.015C708.235 193.762 709.144 193.516 710.047 193.273C719.229 190.787 727.756 188.636 735.432 186.86C735.049 185.586 734.648 184.319 734.229 183.062Z" fill="#F9DDBF"/>
<path d="M610.271 207.797C615.039 207.797 618.903 203.705 618.903 198.658C618.903 193.61 615.039 189.518 610.271 189.518C605.503 189.518 601.639 193.61 601.639 198.658C601.639 203.705 605.503 207.797 610.271 207.797Z" fill="#ED7D2B"/>
<path d="M670.557 171.366C670.822 169.637 669.713 168.008 668.08 167.727C666.447 167.446 664.908 168.621 664.643 170.35C664.378 172.079 665.487 173.708 667.12 173.989C668.753 174.269 670.292 173.095 670.557 171.366Z" fill="#ED7D2B"/>
<path d="M670.17 205.001C673.252 205.001 675.75 202.356 675.75 199.094C675.75 195.831 673.252 193.187 670.17 193.187C667.089 193.187 664.59 195.831 664.59 199.094C664.59 202.356 667.089 205.001 670.17 205.001Z" fill="#ED7D2B"/>
<path d="M635.411 219.312C635.411 214.416 639.159 210.448 643.783 210.448C648.407 210.448 652.155 214.416 652.155 219.312C652.155 224.207 648.407 228.176 643.783 228.176C639.159 228.176 635.411 224.207 635.411 219.312Z" fill="#ED7D2B"/>
<path d="M640.99 268.258C640.99 265.664 642.977 263.561 645.427 263.561C647.878 263.561 649.864 265.664 649.864 268.258C649.864 270.853 647.878 272.956 645.427 272.956C642.977 272.956 640.99 270.853 640.99 268.258Z" fill="#ED7D2B"/>
<path d="M683.515 243.464C684.883 243.464 685.991 242.291 685.991 240.843C685.991 239.395 684.883 238.222 683.515 238.222C682.148 238.222 681.039 239.395 681.039 240.843C681.039 242.291 682.148 243.464 683.515 243.464Z" fill="#ED7D2B"/>
<path d="M639.299 378.396C654.215 370.971 678.421 360.547 709.028 353.058L708.955 352.721C650.326 367.066 611.752 388.631 611.394 388.884L611.413 388.918C610.754 389.296 610.283 390.009 610.225 390.859C610.134 392.184 611.075 393.337 612.327 393.433C612.835 393.472 613.314 393.329 613.712 393.06L613.713 393.061C613.717 393.058 613.748 393.037 613.791 393.007C613.796 393.002 613.802 392.999 613.808 392.995C614.8 392.306 623.982 386.021 639.299 378.396Z" fill="#F9DDBF"/>
<path d="M658.567 351.326C665.94 347.656 677.904 342.504 693.032 338.802L692.996 338.636C664.018 345.726 644.952 356.385 644.775 356.51L644.784 356.527C644.458 356.713 644.226 357.066 644.197 357.486C644.152 358.141 644.617 358.711 645.236 358.758C645.487 358.778 645.724 358.707 645.921 358.574L645.921 358.575C645.923 358.573 645.938 358.563 645.96 358.548C645.962 358.545 645.965 358.544 645.968 358.542C646.459 358.201 650.997 355.095 658.567 351.326Z" fill="#F9DDBF"/>
<path d="M577.405 146.719C589.682 140.607 609.605 132.028 634.797 125.864L634.736 125.586C586.481 137.393 554.732 155.142 554.437 155.351L554.453 155.379C553.91 155.69 553.524 156.277 553.476 156.977C553.4 158.068 554.175 159.016 555.205 159.095C555.623 159.128 556.018 159.01 556.345 158.788L556.346 158.789C556.349 158.787 556.374 158.769 556.41 158.744C556.415 158.741 556.42 158.738 556.424 158.734C557.241 158.167 564.799 152.995 577.405 146.719Z" fill="#F9DDBF"/>
<path d="M449.612 128.042C449.612 126.03 451.153 124.399 453.053 124.399C454.954 124.399 456.494 126.03 456.494 128.042C456.494 130.054 454.954 131.685 453.053 131.685C451.153 131.685 449.612 130.054 449.612 128.042Z" fill="#F9DDBF"/>
<path d="M555.127 305.529C555.127 304.061 556.251 302.871 557.638 302.871C559.025 302.871 560.149 304.061 560.149 305.529C560.149 306.997 559.025 308.188 557.638 308.188C556.251 308.188 555.127 306.997 555.127 305.529Z" fill="#F9DDBF"/>
<path d="M279.78 188.212C279.105 187.671 278.973 186.654 279.484 185.939C279.995 185.225 280.957 185.085 281.631 185.626C282.306 186.167 282.438 187.185 281.927 187.899C281.416 188.613 280.455 188.753 279.78 188.212Z" fill="#F9DDBF"/>
<path d="M330.707 173.807C329.619 172.935 329.406 171.295 330.23 170.144C331.053 168.993 332.602 168.767 333.689 169.639C334.777 170.511 334.99 172.151 334.166 173.302C333.342 174.453 331.794 174.679 330.707 173.807Z" fill="#F9DDBF"/>
<path d="M698.456 387.311C698.456 384.034 700.965 381.377 704.06 381.377C707.155 381.377 709.664 384.034 709.664 387.311C709.664 390.587 707.155 393.244 704.06 393.244C700.965 393.244 698.456 390.587 698.456 387.311Z" fill="#F99746"/>
<path d="M423.453 180.58C435.127 168.22 435.127 148.181 423.453 135.821C411.779 123.461 392.852 123.461 381.177 135.821C369.503 148.181 369.503 168.22 381.177 180.58C392.852 192.939 411.779 192.939 423.453 180.58Z" fill="#F9DDBF"/>
<path d="M386.273 151.167C387.888 149.457 387.888 146.685 386.273 144.975C384.658 143.265 382.039 143.265 380.424 144.975C378.81 146.685 378.81 149.457 380.424 151.167C382.039 152.877 384.658 152.877 386.273 151.167Z" fill="#F2CCAA"/>
<path d="M409.374 134.755C409.374 133.916 410.016 133.235 410.809 133.235C411.601 133.235 412.244 133.916 412.244 134.755C412.244 135.594 411.601 136.274 410.809 136.274C410.016 136.274 409.374 135.594 409.374 134.755Z" fill="#F2CCAA"/>
<path d="M409.374 148.278C409.374 146.715 410.571 145.448 412.047 145.448C413.523 145.448 414.72 146.716 414.72 148.278C414.72 149.841 413.523 151.108 412.047 151.108C410.571 151.108 409.374 149.841 409.374 148.278Z" fill="#F2CCAA"/>
<path d="M395.395 157.964C395.395 155.619 397.191 153.718 399.406 153.718C401.621 153.718 403.417 155.619 403.417 157.964C403.417 160.309 401.621 162.21 399.406 162.21C397.191 162.21 395.395 160.309 395.395 157.964Z" fill="#F2CCAA"/>
<path d="M398.068 181.411C398.068 180.169 399.02 179.161 400.194 179.161C401.368 179.161 402.319 180.168 402.319 181.411C402.319 182.654 401.368 183.661 400.194 183.661C399.02 183.661 398.068 182.654 398.068 181.411Z" fill="#F2CCAA"/>
<path d="M417.254 168.278C417.254 167.584 417.784 167.022 418.44 167.022C419.095 167.022 419.626 167.585 419.626 168.278C419.626 168.971 419.095 169.534 418.44 169.534C417.784 169.534 417.254 168.972 417.254 168.278Z" fill="#F2CCAA"/>
<path d="M492.002 151.631C489.801 144.282 493.805 136.489 500.946 134.223C508.088 131.958 515.662 136.078 517.864 143.426C520.066 150.774 516.062 158.568 508.92 160.833C501.778 163.099 494.204 158.979 492.002 151.631Z" fill="#AEC3FF"/>
<path d="M494.476 143.072C494.476 142.009 495.314 141.146 496.348 141.146C497.382 141.146 498.22 142.009 498.22 143.072C498.22 144.136 497.382 144.998 496.348 144.998C495.314 144.998 494.476 144.136 494.476 143.072Z" fill="#94B0ED"/>
<path d="M508.127 137.215C508.127 136.846 508.417 136.547 508.776 136.547C509.135 136.547 509.426 136.846 509.426 137.215C509.426 137.584 509.135 137.884 508.776 137.884C508.417 137.884 508.127 137.584 508.127 137.215Z" fill="#94B0ED"/>
<path d="M508.127 143.164C508.127 142.477 508.668 141.919 509.337 141.919C510.005 141.919 510.547 142.477 510.547 143.164C510.547 143.852 510.005 144.409 509.337 144.409C508.668 144.409 508.127 143.852 508.127 143.164Z" fill="#94B0ED"/>
<path d="M501.799 147.425C501.799 146.393 502.612 145.557 503.614 145.557C504.617 145.557 505.43 146.393 505.43 147.425C505.43 148.457 504.617 149.293 503.614 149.293C502.612 149.293 501.799 148.457 501.799 147.425Z" fill="#94B0ED"/>
<path d="M503.009 157.74C503.009 157.193 503.44 156.75 503.971 156.75C504.502 156.75 504.933 157.193 504.933 157.74C504.933 158.287 504.502 158.73 503.971 158.73C503.44 158.73 503.009 158.287 503.009 157.74Z" fill="#94B0ED"/>
<path d="M511.693 151.962C511.693 151.657 511.934 151.41 512.23 151.41C512.527 151.41 512.767 151.657 512.767 151.962C512.767 152.268 512.527 152.515 512.23 152.515C511.934 152.515 511.693 152.268 511.693 151.962Z" fill="#94B0ED"/>
<path d="M438.934 165.033C438.934 164.299 439.496 163.703 440.189 163.703C440.882 163.703 441.445 164.299 441.445 165.033C441.445 165.767 440.882 166.362 440.189 166.362C439.495 166.362 438.934 165.767 438.934 165.033Z" fill="#F9DDBF"/>
<path d="M401.748 161.639C401.748 160.69 402.474 159.921 403.371 159.921C404.267 159.921 404.993 160.69 404.993 161.639C404.993 162.588 404.267 163.357 403.371 163.357C402.475 163.357 401.748 162.588 401.748 161.639Z" fill="#F9DDBF"/>
<path d="M234.354 149.842C246.925 143.049 251.914 126.752 245.498 113.443C239.082 100.133 223.69 94.8504 211.119 101.643C198.547 108.436 193.558 124.733 199.974 138.042C206.39 151.352 221.782 156.635 234.354 149.842Z" fill="#71BDD1"/>
<path d="M198.747 105.586C198.38 106.001 198.013 106.416 197.651 106.837C199.151 107.67 200.706 108.545 202.31 109.465C202.337 109.43 202.362 109.394 202.386 109.358L202.411 109.329L202.441 109.29C202.478 109.235 202.518 109.18 202.557 109.125C202.576 109.099 202.597 109.073 202.616 109.047C202.649 109.002 202.686 108.95 202.72 108.904C202.797 108.801 202.873 108.7 202.956 108.6C202.962 108.59 202.968 108.58 202.977 108.571C202.98 108.567 202.983 108.561 202.983 108.558C203.005 108.526 203.026 108.496 203.05 108.47C203.093 108.415 203.136 108.36 203.179 108.308C203.222 108.253 203.265 108.198 203.308 108.143C201.749 107.255 200.229 106.403 198.747 105.586ZM246.405 135.949C246.398 135.956 246.395 135.962 246.395 135.969L246.392 135.972C246.389 135.978 246.386 135.981 246.386 135.988V135.991C246.383 135.997 246.38 136.004 246.38 136.011C246.371 136.023 246.368 136.04 246.365 136.053C246.359 136.059 246.359 136.066 246.353 136.072C246.353 136.075 246.353 136.079 246.35 136.079C246.344 136.101 246.334 136.121 246.325 136.144C246.285 136.247 246.242 136.354 246.2 136.458V136.461C246.19 136.477 246.184 136.493 246.178 136.51C246.175 136.513 246.175 136.516 246.175 136.519C246.172 136.523 246.169 136.529 246.169 136.533C246.166 136.536 246.166 136.539 246.163 136.545C246.154 136.565 246.142 136.584 246.135 136.607C246.126 136.633 246.117 136.655 246.108 136.678C246.102 136.688 246.099 136.701 246.096 136.711C246.087 136.733 246.074 136.759 246.065 136.782C246.056 136.805 246.044 136.824 246.035 136.847C246.022 136.879 246.01 136.912 245.995 136.944C245.982 136.973 245.967 137.005 245.952 137.041C245.943 137.064 245.93 137.09 245.918 137.119C245.906 137.145 245.894 137.171 245.882 137.197C245.842 137.294 245.802 137.382 245.756 137.476L245.759 137.479C257.935 146.286 265.559 152.994 264.686 154.524C263.799 156.076 254.442 151.951 241.168 144.485H241.162C237.688 142.534 233.948 140.356 230.028 137.991C226.098 135.625 221.987 133.075 217.767 130.379C210.733 125.885 204.165 121.474 198.414 117.414C196.299 115.927 194.295 114.478 192.415 113.098C192.079 113.516 191.742 113.94 191.408 114.365C193.474 115.898 195.659 117.479 197.955 119.099C203.7 123.169 210.106 127.482 216.931 131.844C225.112 137.071 232.963 141.769 239.99 145.7H239.993C251.406 152.087 260.653 156.449 265.648 157.764C267.83 158.338 269.204 158.335 269.587 157.661C270.835 155.47 261.368 146.824 246.405 135.949Z" fill="#F9DDBF"/>
<path d="M243.875 122.378C244.347 120.372 243.193 118.341 241.299 117.842C239.404 117.343 237.486 118.564 237.014 120.57C236.543 122.576 237.697 124.607 239.591 125.106C241.486 125.605 243.404 124.384 243.875 122.378Z" fill="#59A1B2"/>
<path d="M221.454 104.741C221.618 104.045 221.217 103.34 220.56 103.167C219.902 102.994 219.237 103.418 219.073 104.114C218.91 104.81 219.31 105.515 219.967 105.688C220.625 105.861 221.29 105.437 221.454 104.741Z" fill="#59A1B2"/>
<path d="M218.817 115.96C219.122 114.664 218.376 113.351 217.152 113.028C215.927 112.706 214.687 113.495 214.383 114.792C214.078 116.088 214.823 117.401 216.048 117.723C217.273 118.046 218.512 117.257 218.817 115.96Z" fill="#59A1B2"/>
<path d="M228.525 127.05C228.982 125.104 227.863 123.135 226.026 122.65C224.188 122.166 222.328 123.351 221.871 125.296C221.413 127.242 222.532 129.211 224.37 129.696C226.207 130.18 228.068 128.995 228.525 127.05Z" fill="#59A1B2"/>
<path d="M221.736 145.917C221.978 144.886 221.385 143.842 220.411 143.586C219.437 143.329 218.451 143.957 218.209 144.988C217.967 146.019 218.56 147.063 219.533 147.319C220.507 147.576 221.493 146.948 221.736 145.917Z" fill="#59A1B2"/>
<path d="M208.38 130.829C208.516 130.254 208.185 129.671 207.641 129.528C207.098 129.385 206.548 129.735 206.413 130.31C206.278 130.886 206.608 131.468 207.152 131.612C207.695 131.755 208.245 131.404 208.38 130.829Z" fill="#59A1B2"/>
<path d="M271.527 167.668C271.473 166.813 272.084 166.074 272.891 166.017C273.698 165.961 274.396 166.607 274.45 167.462C274.504 168.317 273.893 169.056 273.086 169.112C272.279 169.169 271.581 168.523 271.527 167.668Z" fill="#F9DDBF"/>
<path d="M311.391 167.703C311.344 166.965 311.872 166.327 312.569 166.278C313.265 166.229 313.868 166.787 313.914 167.525C313.961 168.262 313.433 168.9 312.737 168.949C312.04 168.998 311.437 168.44 311.391 167.703Z" fill="#F9DDBF"/>
<path d="M334.196 115.752C334.149 115.014 334.676 114.376 335.373 114.327C336.07 114.278 336.672 114.836 336.719 115.574C336.765 116.312 336.238 116.949 335.541 116.999C334.844 117.048 334.242 116.49 334.196 115.752Z" fill="#F9DDBF"/>
<path d="M373.241 108.559C373.195 107.822 373.722 107.184 374.419 107.135C375.115 107.085 375.718 107.644 375.764 108.381C375.811 109.119 375.284 109.757 374.587 109.806C373.89 109.855 373.288 109.297 373.241 108.559Z" fill="#F9DDBF"/>
<path d="M243.564 194.017C243.522 193.349 244 192.771 244.63 192.727C245.261 192.682 245.807 193.188 245.849 193.856C245.891 194.524 245.414 195.102 244.783 195.146C244.152 195.191 243.606 194.685 243.564 194.017Z" fill="#F9DDBF"/>
<path d="M244.406 194.411L244.234 194.205L273.052 167.144L273.102 167.144L312.581 167.658L335.294 115.408L335.361 115.395L374.442 108.234L374.486 108.505L335.473 115.654L312.747 167.935L312.662 167.934L273.149 167.42L244.406 194.411Z" fill="#F9DDBF"/>
<path d="M186.812 150.363C186.812 150.363 186.355 156.316 185.846 157.029C185.124 158.04 181.294 158.409 181.294 158.409C181.294 158.409 184.634 158.58 185.8 159.814C186.521 160.578 187.127 165.226 187.127 165.226C187.127 165.226 187.439 160.304 188.593 159.666C190.689 158.508 196.643 158.409 196.643 158.409C196.643 158.409 190.581 158.008 188.966 157.423C187.126 156.758 186.812 150.363 186.812 150.363Z" fill="#DDE7FE"/>
<path d="M356.976 128.207C356.976 128.207 356.52 134.161 356.01 134.874C355.288 135.884 351.458 136.254 351.458 136.254C351.458 136.254 354.798 136.425 355.963 137.659C356.685 138.423 357.29 143.071 357.29 143.071C357.29 143.071 357.603 138.15 358.757 137.511C360.853 136.353 366.807 136.254 366.807 136.254C366.807 136.254 360.744 135.853 359.13 135.268C357.291 134.602 356.976 128.207 356.976 128.207Z" fill="#F9DDBF"/>
<path d="M690.875 291.004C690.875 291.004 690.418 296.957 689.909 297.671C689.188 298.681 685.358 299.051 685.358 299.051C685.358 299.051 688.697 299.222 689.863 300.456C690.584 301.22 691.19 305.868 691.19 305.868C691.19 305.868 691.502 300.946 692.656 300.308C694.752 299.15 700.707 299.051 700.707 299.051C700.707 299.051 694.644 298.649 693.029 298.065C691.19 297.399 690.875 291.004 690.875 291.004Z" fill="#F9DDBF"/>
<path d="M594.389 334.125C594.133 333.954 594.057 333.596 594.219 333.325C594.38 333.054 594.719 332.973 594.975 333.144C595.231 333.316 595.307 333.674 595.145 333.945C594.983 334.216 594.644 334.297 594.389 334.125Z" fill="#DDE7FE"/>
<path d="M570.499 375.551L553.573 348.128L553.642 348.031L573.401 319.847L597.532 322.42L616.253 313.072L616.393 313.386L597.59 322.776L597.545 322.771L573.554 320.212L553.973 348.141L570.774 375.361L570.499 375.551Z" fill="#F9DDBF"/>
<path d="M625.47 336.615L597.491 322.755L597.631 322.441L625.61 336.301L625.47 336.615Z" fill="#F9DDBF"/>
<path d="M624.757 337.337C624.337 337.055 624.211 336.466 624.477 336.02C624.744 335.575 625.3 335.443 625.721 335.725C626.141 336.006 626.266 336.595 626 337.041C625.734 337.485 625.178 337.618 624.757 337.337Z" fill="#F9DDBF"/>
<path d="M615.274 313.878C614.854 313.597 614.729 313.007 614.994 312.562C615.261 312.117 615.817 311.984 616.238 312.266C616.658 312.548 616.783 313.137 616.517 313.582C616.251 314.027 615.695 314.16 615.274 313.878Z" fill="#F9DDBF"/>
<path d="M597.068 323.838C596.404 323.393 596.207 322.464 596.626 321.761C597.046 321.059 597.924 320.85 598.588 321.294C599.251 321.738 599.449 322.668 599.029 323.37C598.609 324.073 597.731 324.282 597.068 323.838Z" fill="#F9DDBF"/>
<path d="M553.193 348.965C552.702 348.636 552.556 347.949 552.866 347.429C553.177 346.91 553.826 346.755 554.317 347.083C554.808 347.412 554.954 348.1 554.644 348.619C554.333 349.139 553.683 349.294 553.193 348.965Z" fill="#F9DDBF"/>
<path d="M570.11 376.118C569.619 375.79 569.473 375.102 569.784 374.582C570.094 374.063 570.744 373.908 571.234 374.236C571.725 374.565 571.871 375.253 571.561 375.772C571.25 376.292 570.601 376.447 570.11 376.118Z" fill="#F9DDBF"/>
<path d="M572.967 320.721C572.585 320.465 572.471 319.929 572.712 319.525C572.954 319.12 573.46 318.999 573.843 319.255C574.225 319.511 574.339 320.047 574.097 320.452C573.855 320.857 573.349 320.977 572.967 320.721Z" fill="#F9DDBF"/>
<path d="M285.845 115.663C286.514 115.663 287.056 115.089 287.056 114.38C287.056 113.672 286.514 113.098 285.845 113.098C285.176 113.098 284.633 113.672 284.633 114.38C284.633 115.089 285.176 115.663 285.845 115.663Z" fill="#DDE7FE"/>
<path d="M284.633 132.152C284.633 131.646 285.021 131.236 285.498 131.236C285.976 131.236 286.363 131.646 286.363 132.152C286.363 132.658 285.976 133.068 285.498 133.068C285.021 133.068 284.633 132.658 284.633 132.152Z" fill="#DDE7FE"/>
<path d="M423.54 218.887C423.54 218.381 423.927 217.971 424.405 217.971C424.883 217.971 425.27 218.381 425.27 218.887C425.27 219.392 424.883 219.802 424.405 219.802C423.927 219.802 423.54 219.392 423.54 218.887Z" fill="#DDE7FE"/>
<path d="M419.308 233.616C419.308 232.882 419.87 232.288 420.563 232.288C421.256 232.288 421.817 232.882 421.817 233.616C421.817 234.349 421.256 234.944 420.563 234.944C419.87 234.944 419.308 234.349 419.308 233.616Z" fill="#DDE7FE"/>
<path d="M501.464 183.368C501.464 182.863 501.851 182.453 502.329 182.453C502.807 182.453 503.194 182.863 503.194 183.368C503.194 183.874 502.807 184.284 502.329 184.284C501.851 184.284 501.464 183.874 501.464 183.368Z" fill="#DDE7FE"/>
<path d="M421.203 116.916C421.203 116.006 421.9 115.268 422.76 115.268C423.62 115.268 424.317 116.006 424.317 116.916C424.317 117.827 423.62 118.565 422.76 118.565C421.9 118.565 421.203 117.827 421.203 116.916Z" fill="#DDE7FE"/>
<path d="M533.004 240.104C533.004 239.327 533.599 238.698 534.333 238.698C535.067 238.698 535.662 239.327 535.662 240.104C535.662 240.881 535.067 241.511 534.333 241.511C533.599 241.511 533.004 240.881 533.004 240.104Z" fill="#DDE7FE"/>
<path d="M642.708 139.889C642.708 139.112 643.302 138.482 644.036 138.482C644.771 138.482 645.365 139.112 645.365 139.889C645.365 140.666 644.771 141.296 644.036 141.296C643.302 141.296 642.708 140.666 642.708 139.889Z" fill="#DDE7FE"/>
<path d="M662.72 132.307C663.245 132.307 663.671 131.856 663.671 131.299C663.671 130.743 663.245 130.291 662.72 130.291C662.194 130.291 661.767 130.743 661.767 131.299C661.767 131.856 662.194 132.307 662.72 132.307Z" fill="#DDE7FE"/>
<path d="M690.223 162.52C690.223 162.045 690.587 161.659 691.036 161.659C691.485 161.659 691.848 162.044 691.848 162.52C691.848 162.995 691.485 163.38 691.036 163.38C690.587 163.38 690.223 162.995 690.223 162.52Z" fill="#DDE7FE"/>
<path d="M286.818 70.9461C286.818 70.1692 287.413 69.5391 288.146 69.5391C288.88 69.5391 289.475 70.1689 289.475 70.9461C289.475 71.7231 288.88 72.353 288.146 72.353C287.413 72.353 286.818 71.7229 286.818 70.9461Z" fill="#DDE7FE"/>
<path d="M306.829 63.3641C307.355 63.3641 307.781 62.9129 307.781 62.3562C307.781 61.7995 307.355 61.3483 306.829 61.3483C306.304 61.3483 305.877 61.7995 305.877 62.3562C305.877 62.9129 306.304 63.3641 306.829 63.3641Z" fill="#DDE7FE"/>
<path d="M334.333 93.5771C334.333 93.1021 334.697 92.7168 335.146 92.7168C335.595 92.7168 335.958 93.1018 335.958 93.5771C335.958 94.0523 335.594 94.4373 335.146 94.4373C334.697 94.4373 334.333 94.0521 334.333 93.5771Z" fill="#DDE7FE"/>
<path d="M343.908 192.187C344.468 191.684 345.306 191.757 345.781 192.35C346.256 192.942 346.187 193.83 345.627 194.333C345.067 194.835 344.229 194.762 343.754 194.169C343.279 193.577 343.348 192.689 343.908 192.187Z" fill="#DDE7FE"/>
<path d="M362.423 202.023C362.824 201.663 363.424 201.715 363.764 202.14C364.104 202.565 364.055 203.201 363.654 203.56C363.253 203.921 362.652 203.868 362.312 203.443C361.972 203.019 362.021 202.383 362.423 202.023Z" fill="#DDE7FE"/>
<path d="M358.333 245.193C358.675 244.886 359.188 244.931 359.478 245.293C359.768 245.655 359.726 246.198 359.384 246.505C359.042 246.813 358.529 246.768 358.238 246.406C357.948 246.043 357.991 245.5 358.333 245.193Z" fill="#DDE7FE"/>
<path d="M508.914 311.114C509.347 310.419 510.23 310.228 510.886 310.686C511.543 311.144 511.724 312.079 511.291 312.774C510.858 313.469 509.975 313.661 509.318 313.202C508.662 312.744 508.481 311.809 508.914 311.114Z" fill="#DDE7FE"/>
<path d="M530.749 315.339C531.059 314.841 531.692 314.704 532.163 315.033C532.633 315.361 532.762 316.031 532.452 316.529C532.142 317.027 531.509 317.164 531.039 316.835C530.569 316.507 530.439 315.837 530.749 315.339Z" fill="#DDE7FE"/>
<path d="M529.428 338.634C529.428 338.125 529.817 337.712 530.298 337.712C530.779 337.712 531.169 338.125 531.169 338.634C531.169 339.143 530.779 339.556 530.298 339.556C529.817 339.556 529.428 339.143 529.428 338.634Z" fill="#DDE7FE"/>
<path d="M674.066 412.651C674.681 413.162 674.79 414.104 674.307 414.757C673.825 415.408 672.935 415.523 672.318 415.012C671.703 414.501 671.595 413.559 672.077 412.907C672.56 412.255 673.45 412.14 674.066 412.651Z" fill="#DDE7FE"/>
<path d="M668.343 435.23C668.784 435.596 668.862 436.271 668.516 436.738C668.17 437.205 667.533 437.288 667.092 436.922C666.651 436.556 666.573 435.881 666.918 435.414C667.264 434.947 667.902 434.864 668.343 435.23Z" fill="#DDE7FE"/>
<path d="M624.892 439.984C625.268 440.297 625.334 440.873 625.04 441.272C624.745 441.67 624.2 441.74 623.824 441.428C623.447 441.115 623.381 440.539 623.676 440.141C623.971 439.742 624.515 439.672 624.892 439.984Z" fill="#DDE7FE"/>
<path d="M478.53 462.103C479.083 462.103 479.57 461.678 479.659 461.081L508.348 269.411C508.448 268.751 508.021 268.129 507.397 268.025C506.774 267.916 506.187 268.371 506.088 269.032L477.399 460.702C477.299 461.362 477.725 461.984 478.35 462.088C478.41 462.098 478.471 462.103 478.53 462.103Z" fill="#2B478B"/>
<path d="M436.16 462.103C436.713 462.103 437.199 461.678 437.289 461.081L465.979 269.411C466.078 268.751 465.652 268.129 465.027 268.025C464.405 267.916 463.818 268.371 463.719 269.032L435.028 460.702C434.929 461.362 435.355 461.984 435.98 462.088C436.04 462.098 436.1 462.103 436.16 462.103Z" fill="#2B478B"/>
<path d="M461.892 290.179H504.262C504.894 290.179 505.406 289.637 505.406 288.967C505.406 288.297 504.894 287.755 504.262 287.755H461.892C461.259 287.755 460.748 288.297 460.748 288.967C460.748 289.637 461.259 290.179 461.892 290.179Z" fill="#2B478B"/>
<path d="M455.694 328.793H498.064C498.696 328.793 499.208 328.251 499.208 327.581C499.208 326.911 498.696 326.369 498.064 326.369H455.694C455.062 326.369 454.55 326.911 454.55 327.581C454.55 328.251 455.062 328.793 455.694 328.793Z" fill="#2B478B"/>
<path d="M449.376 375.094H491.745C492.378 375.094 492.89 374.552 492.89 373.882C492.89 373.211 492.378 372.67 491.745 372.67H449.376C448.743 372.67 448.231 373.211 448.231 373.882C448.231 374.551 448.743 375.094 449.376 375.094Z" fill="#2B478B"/>
<path d="M443.035 416.167H484.326C484.959 416.167 485.471 415.625 485.471 414.955C485.471 414.285 484.959 413.743 484.326 413.743H443.035C442.402 413.743 441.89 414.285 441.89 414.955C441.89 415.625 442.402 416.167 443.035 416.167Z" fill="#2B478B"/>
<path d="M485.244 206.581C485.244 206.581 510.816 205.949 513.422 204.521C523.819 198.828 536.814 189.925 536.814 189.925L539.309 192.84C539.309 192.84 527.724 210.472 518.782 214.442C511.943 217.478 490.832 220.422 487.936 218.273C485.041 216.124 485.97 212.006 485.244 206.581Z" fill="#FFB27D"/>
<path d="M444.377 357.067C444.377 357.067 441.214 360.123 441.831 362.295C442.449 364.466 445.303 365.914 445.689 368.568C446.074 371.222 447.617 372.669 449.006 372.669C450.395 372.669 455.626 372.669 455.626 372.669C455.626 372.669 456.649 370.802 454.18 370.238C451.711 369.675 450.781 366.557 450.935 363.661C451.089 360.766 450.703 356.906 450.703 356.906L445.457 355.619L444.377 357.067Z" fill="#152949"/>
<path d="M471.149 358.68C471.149 358.68 470.016 371.946 471.405 372.669H489.124C489.124 372.669 489.171 370.14 486.316 369.658C483.462 369.175 478.447 367.406 477.599 363.465C476.75 359.525 471.149 358.68 471.149 358.68Z" fill="#152949"/>
<path d="M485.659 252.116C485.659 252.116 488.96 264.297 489.289 270.046C489.618 275.794 481.318 356.413 480.911 359.061C480.527 361.558 477.598 363.15 477.598 363.15C477.598 363.15 476.252 363.991 474.329 363.416C471.662 362.619 470.819 361.665 470.819 361.665C470.819 361.665 466.832 307.523 469.299 288.182C471.767 268.841 471.796 252.116 471.796 252.116H485.659Z" fill="#ED7D2B"/>
<path d="M463.952 251.613C463.952 251.613 456.137 262.715 455.408 270.22C454.679 277.725 454.265 304.087 452.713 311.403C451.16 318.719 445.457 332.799 445.457 355.619C445.457 355.619 446.05 356.927 447.88 357.624C448.466 357.847 449.25 358.063 450.011 358.248C451.521 358.614 453.069 357.833 453.758 356.365C457.614 348.146 469.896 321.637 470.526 316.134C470.971 312.24 474.849 286.467 483.308 271.343C485.339 267.712 482.062 253.274 482.062 253.274L463.952 251.613Z" fill="#F99746"/>
<path d="M467.476 182.776C467.425 177.917 469.195 175.86 469.331 175.143C468.861 175.447 471.364 172.126 471.552 172.607C476.481 166.414 487.936 175.519 487.936 175.519L477.271 195.624C477.271 195.624 475.782 192.85 474.351 193.969C472.119 195.713 467.559 190.59 467.476 182.776Z" fill="#2C3A64"/>
<path d="M492.842 218.621C482.741 223.546 475.147 206.159 475.807 205.981C476.817 204.734 477.858 200.293 477.118 193.901L477.642 193.94L486.426 194.65C486.426 194.65 486.563 197.623 486.866 200.397C487.066 202.22 487.341 203.958 487.698 204.717C487.803 204.941 489.798 204.859 489.802 204.864C489.95 205.04 495.537 217.307 492.842 218.621Z" fill="#FFB27D"/>
<path d="M453.892 268.408C453.892 268.408 472.935 282.583 490.759 275.387C490.759 275.387 494.872 253.071 497.612 236.684C497.964 234.588 498.291 232.585 498.586 230.74C499.411 225.564 499.967 221.62 500.001 220.221C500.042 218.619 498.508 206.591 495.178 204.835C495.178 204.835 491.845 204.467 488.693 204.87C488.693 204.87 488.943 205.564 489.223 206.643C489.943 209.42 487.962 211.373 485.451 210.268C482.609 209.017 478.326 206.997 476.765 203.692C476.765 203.692 469.034 205.837 465.641 220.221C464.555 224.818 453.23 261.515 453.892 268.408Z" fill="#F9DDBF"/>
<path d="M486.427 194.651C486.427 194.651 486.561 197.623 486.867 200.398C482.05 200.891 478.978 196.451 477.642 193.942L486.427 194.651Z" fill="#ED985F"/>
<path d="M488.324 197.065C488.324 197.065 476.991 198.784 476.119 191.066C475.246 183.349 473.196 178.373 480.395 176.949C487.594 175.525 489.336 178.281 490.201 180.779C491.066 183.278 491.25 196.419 488.324 197.065Z" fill="#FFB27D"/>
<path d="M489.382 176.532C487.367 174.445 486.097 175.131 485.432 175.928C478.808 173.033 475.425 179.072 475.425 179.072C475.286 184.711 471.981 188.372 471.981 188.372C471.981 188.372 474.207 189.491 478.829 187.516C480.241 186.912 481.416 185.608 482.368 184.09C480.833 187.879 478.489 190.775 478.489 190.775C483.867 187.139 485.187 178.184 485.312 177.239C486.082 177.826 487.614 179.119 488.192 180.51C488.978 182.4 489.686 186.412 490.752 186.13C490.752 186.13 492.405 179.663 489.382 176.532Z" fill="#2C3A64"/>
<path d="M484.759 193.015C484.863 193.015 485.832 193.959 487.112 193.695C488.392 193.43 488.38 192.336 488.38 192.336C488.38 192.336 487.506 192.185 486.738 192.336C485.97 192.487 484.759 193.015 484.759 193.015Z" fill="white"/>
<path d="M536.813 189.925C536.813 189.925 537.874 187.641 538.547 185.788C538.845 184.968 543.33 181.639 544.622 181.83C545.915 182.023 546.117 186.886 543.807 188.615C542.621 189.503 539.309 192.841 539.309 192.841L536.813 189.925Z" fill="#FFB27D"/>
<path d="M536.814 189.925C536.814 189.925 537.156 188.379 536.849 187.834C536.542 187.288 537.429 185.027 537.643 184.019C537.643 184.019 538.31 183.788 538.404 184.86C538.462 185.514 538.396 187.24 538.396 187.24L536.814 189.925Z" fill="#FFB27D"/>
<path d="M492.964 204.679L506.115 205.601C506.115 205.601 506.708 216.332 500.002 220.221L492.964 204.679Z" fill="#F9DDBF"/>
<path d="M471.552 172.607C471.552 172.607 467.217 168.265 460.34 170.449C453.462 172.633 456.232 183.96 450.692 185.881C445.151 187.803 447.539 189.958 446.871 192.269C446.202 194.579 442.285 200.304 452.316 201.841C462.346 203.378 469.606 199.333 466.644 191.545C463.683 183.758 464.949 172.899 469.331 175.143C473.713 177.386 471.552 172.607 471.552 172.607Z" fill="#2C3A64"/>
<path d="M479.611 214.723C479.611 214.723 456.941 230.235 455.498 232.94C449.74 243.729 445.07 257.865 445.07 257.865L441.356 257.714C441.356 257.714 442.045 236.082 447.478 227.577C451.632 221.074 467.779 206.376 471.313 206.497C474.847 206.618 476.198 210.603 479.611 214.723Z" fill="#FFB27D"/>
<path d="M445.07 257.866C445.07 257.866 445.87 260.265 446.65 262.07C446.995 262.87 446.106 268.592 445.072 269.435C444.038 270.279 440.614 267.031 441.063 264.073C441.293 262.554 441.356 257.714 441.356 257.714L445.07 257.866Z" fill="#FFB27D"/>
<path d="M445.07 257.865C445.07 257.865 445.874 259.206 446.457 259.355C447.04 259.504 447.946 261.756 448.476 262.624C448.476 262.624 448.166 263.29 447.377 262.612C446.895 262.198 445.776 260.941 445.776 260.941L445.07 257.865Z" fill="#FFB27D"/>
<path d="M481.694 211.797C481.694 211.797 478.737 207.329 475.89 206.254C473.042 205.179 470.88 201.433 457.296 214.849C457.296 214.849 459.015 223.55 465.445 227.433C465.445 227.433 484.449 216.837 481.694 211.797Z" fill="#F9DDBF"/>
<path d="M476.766 203.692C476.766 203.692 470.633 204.55 468.141 206.082C465.65 207.613 471.362 211.015 471.516 211.015C471.669 211.015 475.392 208.207 475.443 208.045C475.494 207.883 476.766 203.692 476.766 203.692Z" fill="#F9DDBF"/>
<path d="M558.049 178.427C558.049 178.868 558.025 179.303 557.983 179.733C557.853 180.979 557.546 182.166 557.085 183.266C556.625 184.371 556.008 185.39 555.264 186.289C553.195 188.804 550.144 190.397 546.74 190.397C546.149 190.397 545.572 190.35 545.004 190.256C544.609 190.193 544.221 190.105 543.841 189.997C542.498 189.623 541.254 188.992 540.158 188.16C538.685 187.044 537.478 185.562 536.652 183.842C536.392 183.299 536.171 182.737 535.991 182.15C535.627 180.979 535.432 179.726 535.432 178.428C535.432 178.18 535.44 177.932 535.455 177.687C535.565 175.744 536.114 173.925 537.001 172.341C538.969 168.817 542.594 166.456 546.74 166.456C547.193 166.456 547.64 166.483 548.08 166.539C549.704 166.743 551.224 167.31 552.564 168.164C553.673 168.869 554.654 169.771 555.474 170.823C555.576 170.953 555.674 171.085 555.771 171.22C557.2 173.225 558.049 175.721 558.049 178.427Z" fill="#71BDD1"/>
<path opacity="0.3" d="M552.565 168.163C549.299 170.684 548.047 175.994 543.896 175.994C540.703 175.994 537.863 177.168 535.456 177.686C535.565 175.743 536.114 173.925 537.002 172.341C541.941 172.44 545.731 169.285 548.081 166.538C549.705 166.742 551.225 167.309 552.565 168.163Z" fill="#5BAABC"/>
<path opacity="0.3" d="M558.049 178.427C558.049 178.868 558.025 179.303 557.983 179.733C556.063 181.21 553.955 183.406 551.878 183.803C548.494 184.445 546.238 184.079 543.201 186.74C542.282 187.548 541.207 187.967 540.159 188.159C538.686 187.044 537.478 185.561 536.653 183.842C536.393 183.299 536.172 182.737 535.992 182.15C537.374 181.929 539.352 181.453 541.379 180.403C545.111 178.474 549.536 179.395 551.964 176.73C553.19 175.386 554.639 173.126 555.772 171.219C557.2 173.225 558.049 175.721 558.049 178.427Z" fill="#5BAABC"/>
<path opacity="0.3" d="M555.264 186.288C553.195 188.804 550.144 190.397 546.74 190.397C546.15 190.397 545.572 190.35 545.004 190.256C544.609 190.193 544.221 190.105 543.841 189.997C545.975 187.231 549.671 186.669 552.138 186.834C553.114 186.897 554.228 186.644 555.264 186.288Z" fill="#5BAABC"/>
<path d="M259.399 260.901H236.297V268.664H259.399V260.901Z" fill="#233862"/>
<path d="M252.465 251.154H243.23V261.508H252.465V251.154Z" fill="#233862"/>
<path d="M282.579 461.254C281.902 461.254 281.313 460.753 281.219 460.062L254.606 264.005C254.504 263.251 255.031 262.557 255.783 262.454C256.533 262.35 257.227 262.879 257.33 263.634L283.942 459.69C284.045 460.444 283.518 461.139 282.766 461.242C282.703 461.25 282.641 461.254 282.579 461.254Z" fill="#233862"/>
<path d="M212.446 461.255C212.384 461.255 212.322 461.25 212.259 461.242C211.507 461.139 210.98 460.445 211.082 459.69L237.695 263.634C237.797 262.879 238.49 262.353 239.242 262.454C239.994 262.557 240.521 263.251 240.419 264.006L213.806 460.062C213.712 460.753 213.123 461.255 212.446 461.255Z" fill="#233862"/>
<path d="M247.526 461.254C246.767 461.254 246.152 460.637 246.152 459.876V263.819C246.152 263.058 246.767 262.441 247.526 262.441C248.285 262.441 248.9 263.058 248.9 263.819V459.876C248.9 460.637 248.285 461.254 247.526 461.254Z" fill="#233862"/>
<path d="M247.526 372.61C247.214 372.61 246.903 372.503 246.649 372.292L225.938 355.07C225.353 354.584 225.272 353.716 225.757 353.13C226.242 352.544 227.108 352.463 227.692 352.949L247.555 369.465L267.509 353.951C268.107 353.484 268.971 353.594 269.437 354.195C269.902 354.797 269.793 355.663 269.193 356.129L248.368 372.32C248.12 372.513 247.823 372.61 247.526 372.61Z" fill="#233862"/>
<path d="M346.831 218.487L355.896 214.856L346.961 189.856L337.896 193.487L346.831 218.487Z" fill="#F99746"/>
<path d="M307.006 232.82L346.324 217.069L338.404 194.907L299.086 210.659L307.006 232.82Z" fill="#AEC3FF"/>
<path d="M267.065 246.584L306.841 232.116L299.404 211.305L260.38 227.877L267.065 246.584Z" fill="#AEC3FF"/>
<path d="M226.88 259.904L266.712 245.594L260.898 229.327L221.996 246.239L226.88 259.904Z" fill="#AEC3FF"/>
<path d="M223.676 258.913L226.162 257.917L222.801 248.513L220.316 249.509L223.676 258.913Z" fill="#060633"/>
<path d="M222.662 260.016L225.147 259.021L221.343 248.377L218.858 249.373L222.662 260.016Z" fill="#F99746"/>
<path d="M261.028 227.622L259.741 228.137L266.426 246.845L267.714 246.329L261.028 227.622Z" fill="#F99746"/>
<path d="M299.866 210.289L298.575 210.795L306.375 233.083L307.666 232.577L299.866 210.289Z" fill="#F99746"/>
</g>
<defs>
<clipPath id="clip0_19_2039">
<rect width="807" height="534" fill="white"/>
</clipPath>
</defs>
</svg>
