<svg width="399" height="338" viewBox="0 0 399 338" fill="none" xmlns="http://www.w3.org/2000/svg">
<path d="M63.726 29C57.4799 29 51.3667 31.2125 46.9552 35.0785C42.5337 38.945 40 44.2863 40 49.7536V288.246C40 293.709 42.5332 299.055 46.9552 302.921C51.3672 306.783 57.4799 309 63.726 309H336.273C342.523 309 348.633 306.783 353.048 302.921C357.466 299.055 360 293.709 360 288.246V49.7536C360 44.2863 357.466 38.945 353.048 35.0785C348.633 31.2125 342.523 29 336.273 29H63.726ZM126.484 57.0771C135.363 57.0771 142.562 63.3785 142.562 71.1483C142.562 78.9209 135.363 85.2209 126.484 85.2209C117.6 85.2209 110.396 78.9209 110.396 71.1483C110.396 63.3785 117.6 57.0771 126.484 57.0771ZM77.3916 57.0771C86.2791 57.0771 93.4696 63.3785 93.4696 71.1483C93.4696 78.9209 86.2791 85.2209 77.3916 85.2209C68.5162 85.2209 61.3167 78.9209 61.3167 71.1483C61.3167 63.3785 68.5162 57.0771 77.3916 57.0771ZM338.902 280.717H61.3167V105.216H338.902L338.902 280.717Z" fill="#616E7D"/>
<path d="M61.3167 280.717H338.902V105.216H61.3167V280.717ZM288.747 156.707C288.747 156.11 289.027 155.529 289.511 155.108C289.987 154.686 290.652 154.444 291.338 154.444H306.491C307.178 154.444 307.839 154.688 308.316 155.108C308.803 155.529 309.079 156.11 309.079 156.707V201.741H333.025C333.708 201.741 334.369 201.985 334.846 202.405C335.333 202.826 335.61 203.409 335.61 204.004V215.094C335.61 215.688 335.333 216.272 334.846 216.693C334.369 217.113 333.708 217.355 333.025 217.355H291.338C290.652 217.355 289.987 217.113 289.511 216.693C289.027 216.272 288.747 215.689 288.747 215.094V156.707ZM206.017 156.935C206.103 155.742 207.225 154.816 208.595 154.816H228.697C229.848 154.816 230.858 155.477 231.177 156.44L237.715 175.931L237.734 175.984C238.93 179.905 240.103 183.992 241.193 188.092C242.446 183.888 243.752 179.667 245.03 175.844L245.052 175.791L252.173 156.387C252.519 155.449 253.511 154.817 254.633 154.817H274.339C275.718 154.817 276.837 155.756 276.916 156.957L280.578 215.343C280.617 215.963 280.369 216.571 279.872 217.021C279.389 217.473 278.712 217.729 278 217.729H263.248C261.862 217.729 260.724 216.767 260.67 215.553L259.678 193.205L262.256 193.117L259.678 193.201C259.561 190.406 259.443 187.331 259.345 184.153C258.372 187.017 257.38 189.823 256.408 192.401L248.295 215.187C247.959 216.131 246.957 216.774 245.825 216.774H234.044C232.881 216.774 231.864 216.098 231.556 215.113L224.426 192.507C223.777 190.471 223.125 188.288 222.48 186.051C222.363 188.609 222.22 191.111 222.064 193.423L220.881 215.57C220.824 216.775 219.682 217.729 218.303 217.729H204.339C203.636 217.729 202.94 217.466 202.454 217.013C201.968 216.562 201.713 215.94 201.758 215.321L206.017 156.935ZM141.936 157.078C141.936 156.482 142.213 155.9 142.702 155.48C143.176 155.057 143.84 154.815 144.527 154.815H195.8C196.483 154.815 197.151 155.057 197.625 155.48C198.111 155.9 198.387 156.481 198.387 157.078V168.167C198.387 168.761 198.111 169.345 197.625 169.766C197.151 170.186 196.483 170.427 195.8 170.427H180.179V215.464C180.179 216.06 179.9 216.643 179.416 217.063C178.939 217.486 178.275 217.728 177.588 217.728H162.438C161.752 217.728 161.088 217.486 160.611 217.063C160.127 216.643 159.847 216.06 159.847 215.464V170.427H144.526C143.839 170.427 143.174 170.186 142.701 169.766C142.212 169.345 141.935 168.763 141.935 168.167V157.078H141.936ZM69.0408 157.078C69.0408 156.482 69.3176 155.9 69.8072 155.48C70.2809 155.057 70.9454 154.815 71.6318 154.815H86.7849C87.4683 154.815 88.1327 155.057 88.6096 155.48C89.0928 155.9 89.3722 156.481 89.3722 157.078V177.251H109.039V157.078C109.039 156.482 109.319 155.9 109.802 155.48C110.279 155.057 110.944 154.815 111.63 154.815H126.676C127.356 154.815 128.023 155.057 128.497 155.48C128.986 155.9 129.26 156.481 129.26 157.078V215.464C129.26 216.06 128.986 216.643 128.497 217.063C128.023 217.486 127.356 217.728 126.676 217.728H111.63C110.944 217.728 110.279 217.486 109.802 217.063C109.319 216.643 109.039 216.06 109.039 215.464V193.293H89.3722V215.464C89.3722 216.06 89.0928 216.643 88.6096 217.063C88.1327 217.486 87.4683 217.728 86.7849 217.728H71.6318C70.9454 217.728 70.2809 217.486 69.8072 217.063C69.3176 216.643 69.0408 216.06 69.0408 215.464V157.078Z" fill="white"/>
<path d="M110.396 71.1483C110.396 78.9209 117.6 85.2209 126.484 85.2209C135.363 85.2209 142.562 78.9209 142.562 71.1483C142.562 63.3785 135.363 57.0771 126.484 57.0771C117.6 57.0771 110.396 63.3785 110.396 71.1483Z" fill="#FFA71E"/>
<path d="M61.3167 71.1483C61.3167 78.9209 68.5167 85.2209 77.3916 85.2209C86.2791 85.2209 93.4696 78.9209 93.4696 71.1483C93.4696 63.3785 86.2791 57.0771 77.3916 57.0771C68.5161 57.0771 61.3167 63.3785 61.3167 71.1483Z" fill="#FF9000"/>
<path d="M109.802 217.064C110.279 217.487 110.944 217.728 111.63 217.728H126.676C127.356 217.728 128.023 217.486 128.497 217.064C128.986 216.644 129.26 216.061 129.26 215.464V157.078C129.26 156.482 128.986 155.9 128.497 155.48C128.023 155.058 127.356 154.815 126.676 154.815H111.63C110.944 154.815 110.279 155.057 109.802 155.48C109.319 155.9 109.039 156.481 109.039 157.078V177.251H89.3722V157.078C89.3722 156.482 89.0928 155.9 88.6096 155.48C88.1327 155.058 87.4683 154.815 86.7849 154.815H71.6318C70.9453 154.815 70.2809 155.057 69.8072 155.48C69.3176 155.9 69.0408 156.481 69.0408 157.078V215.464C69.0408 216.06 69.3176 216.643 69.8072 217.063C70.2809 217.486 70.9453 217.728 71.6318 217.728H86.7849C87.4683 217.728 88.1327 217.486 88.6096 217.063C89.0928 216.643 89.3722 216.06 89.3722 215.464V193.293H109.039V215.464C109.039 216.061 109.319 216.644 109.802 217.064Z" fill="#616E7D"/>
<path d="M160.612 217.064C161.089 217.487 161.753 217.728 162.44 217.728H177.589C178.276 217.728 178.94 217.486 179.417 217.064C179.901 216.644 180.18 216.061 180.18 215.464V170.427H195.801C196.484 170.427 197.152 170.187 197.626 169.767C198.112 169.345 198.388 168.761 198.388 168.167V157.078C198.388 156.482 198.112 155.9 197.626 155.48C197.152 155.058 196.484 154.815 195.801 154.815H144.528C143.841 154.815 143.176 155.057 142.703 155.48C142.214 155.9 141.937 156.481 141.937 157.078V168.167C141.937 168.763 142.214 169.345 142.703 169.766C143.177 170.186 143.841 170.427 144.528 170.427H159.85V215.464C159.849 216.061 160.128 216.644 160.612 217.064Z" fill="#616E7D"/>
<path d="M260.669 215.552C260.723 216.766 261.862 217.728 263.247 217.728H277.999C278.712 217.728 279.389 217.472 279.872 217.02C280.368 216.57 280.616 215.962 280.578 215.342L276.916 156.956C276.837 155.755 275.718 154.816 274.338 154.816H254.633C253.511 154.816 252.519 155.448 252.173 156.386L245.052 175.79L245.029 175.843C243.752 179.667 242.445 183.887 241.192 188.091C240.102 183.991 238.929 179.904 237.734 175.983L237.715 175.931L231.176 156.439C230.858 155.476 229.847 154.815 228.697 154.815H208.594C207.224 154.815 206.102 155.741 206.016 156.934L201.757 215.32C201.712 215.939 201.966 216.561 202.453 217.011C202.939 217.465 203.635 217.728 204.338 217.728H218.302C219.681 217.728 220.823 216.774 220.88 215.569L222.063 193.422C222.218 191.109 222.362 188.607 222.479 186.05C223.124 188.286 223.776 190.469 224.425 192.506L231.555 215.112C231.863 216.096 232.88 216.772 234.043 216.772H245.824C246.955 216.772 247.957 216.13 248.294 215.186L256.406 192.4C257.379 189.822 258.371 187.015 259.344 184.152C259.442 187.329 259.559 190.404 259.677 193.2L262.255 193.116L259.677 193.204L260.669 215.552Z" fill="#616E7D"/>
<path d="M309.079 201.742V156.707C309.079 156.111 308.802 155.53 308.316 155.108C307.839 154.688 307.177 154.445 306.491 154.445H291.338C290.651 154.445 289.987 154.687 289.51 155.108C289.027 155.53 288.747 156.111 288.747 156.707V215.094C288.747 215.689 289.026 216.272 289.51 216.694C289.987 217.114 290.651 217.356 291.338 217.356H333.024C333.708 217.356 334.369 217.113 334.846 216.694C335.332 216.272 335.609 215.688 335.609 215.094V204.004C335.609 203.409 335.332 202.827 334.846 202.405C334.369 201.985 333.708 201.742 333.024 201.742H309.079Z" fill="#616E7D"/>
</svg>
