<svg width="500" height="500" viewBox="0 0 500 500" fill="none" xmlns="http://www.w3.org/2000/svg">
<path d="M252.022 484.892C382.526 484.892 488.32 433.68 488.32 370.506C488.32 307.332 382.526 256.12 252.022 256.12C121.518 256.12 15.724 307.332 15.724 370.506C15.724 433.68 121.518 484.892 252.022 484.892Z" fill="#FFA71E"/>
<path opacity="0.75" d="M252.022 484.892C382.526 484.892 488.32 433.68 488.32 370.506C488.32 307.332 382.526 256.12 252.022 256.12C121.518 256.12 15.724 307.332 15.724 370.506C15.724 433.68 121.518 484.892 252.022 484.892Z" fill="white"/>
<path d="M419.109 289.623C353.162 257.7 257.936 248.597 175.278 262.3L475.212 408.147C504.025 368.021 485.327 321.677 419.109 289.623Z" fill="#FAFAFA"/>
<path d="M415.342 287.865C413.982 287.235 412.614 286.61 411.23 285.998L317.621 331.517L321.596 333.45L415.342 287.865Z" fill="#E0E0E0"/>
<path d="M230.156 288.985L234.131 290.918L300.647 258.574C298.434 258.35 296.217 258.136 293.994 257.943L230.156 288.985Z" fill="#E0E0E0"/>
<path d="M480.489 341.248C479.939 340.237 479.367 339.228 478.758 338.223L405.086 374.047L409.061 375.98L480.489 341.248Z" fill="#E0E0E0"/>
<path opacity="0.2" d="M344.678 377.883C341.934 376.663 336.826 374.33 329.043 376.348C322.837 377.957 307.546 379.024 302.261 382.668C294.308 388.151 292.934 392.765 283.454 400.895C277.033 406.402 264.903 416.502 256.272 417.347C251.751 417.79 247.586 416.968 243.485 415.775C251.834 398.966 244.556 380.117 221.623 366.876C187.998 347.463 133.48 347.463 99.855 366.876C66.23 386.29 66.23 417.765 99.855 437.179C120.786 449.263 149.81 453.821 176.853 450.861C184.054 455.834 204.015 467.597 217.402 469.525C228.871 471.177 237.876 467.394 246.919 460.412C249.904 458.107 264.831 444.943 264.831 444.943C264.831 444.943 269.209 445.953 273.711 444.359C278.813 442.552 281.406 438.281 284.955 434.453C294.295 424.378 302.758 415.609 314.334 408.247C318.79 405.413 324.363 401.68 327.413 399.323C331.726 395.991 329.809 392.328 327.413 390.703C331.708 386.014 352.549 381.384 344.678 377.883Z" fill="#FFA71E"/>
<path opacity="0.05" d="M386.851 343.358C383.206 343.168 378.877 343.013 376.481 345.349C373.804 347.958 374.94 351.979 377.435 354.185C381.918 358.149 388.986 358.981 394.672 359.819C412.258 362.41 430.465 362.414 448.145 360.4C453.999 359.733 459.992 359.345 465.607 357.42C469.719 356.01 476.288 353.011 476.416 347.831C476.47 345.656 473.9 343.543 472.046 342.619C465.616 339.415 459.113 338.928 451.991 339.259C442.668 339.693 433.331 342.024 424.102 343.726C416.804 345.072 409.89 345.063 402.497 344.569C398.273 344.287 394.101 343.465 389.852 343.473C388.957 343.474 387.934 343.414 386.851 343.358Z" fill="black"/>
<path opacity="0.05" d="M294.751 297.011C297.338 297.957 299.778 299.088 302.408 300.35C306.787 302.452 310.768 305.282 315.239 307.264C322.491 310.48 330.496 312.237 338.425 311.094C342.704 310.477 346.711 309.544 350.473 307.334C354.005 305.259 355.034 300.542 352.243 297.429C349.009 293.821 341.903 291.726 337.392 290.462C332.366 289.054 327.331 288.176 322.206 287.261C315.551 286.072 308.927 284.725 302.407 282.911C298.86 281.924 295.287 280.971 291.868 279.59C288.299 278.149 285.214 276.774 281.273 276.453C276.781 276.087 268.76 277.659 268.803 283.553C268.82 285.96 271.246 288.072 273.124 289.412C277.892 292.814 284.544 294.187 290.132 295.587C291.76 295.995 293.279 296.473 294.751 297.011Z" fill="black"/>
<path d="M417.163 24.11L425.543 28.948C425.501 28.574 425.473 28.202 425.473 27.839V25.411C425.473 21.091 428.506 19.34 432.248 21.5C433.763 22.375 435.157 23.761 436.286 25.383C436.899 19.951 441.161 17.927 446.338 20.916C451.935 24.148 456.473 32.007 456.473 38.471V42.103C456.473 43.777 456.163 45.187 455.615 46.311L462.576 50.33C464.652 51.528 466.334 54.442 466.334 56.838C466.334 59.235 464.652 60.206 462.576 59.008L417.165 32.79C415.09 31.592 413.407 28.678 413.407 26.281C413.405 23.883 415.087 22.912 417.163 24.11Z" fill="#F5F5F5"/>
<path d="M370.295 41.445L376.866 45.239C376.833 44.946 376.811 44.654 376.811 44.369V42.465C376.811 39.077 379.189 37.704 382.123 39.398C383.311 40.084 384.404 41.171 385.289 42.443C385.769 38.183 389.112 36.596 393.171 38.94C397.56 41.474 401.118 47.637 401.118 52.705V55.553C401.118 56.866 400.875 57.971 400.445 58.852L405.903 62.003C407.53 62.943 408.85 65.227 408.85 67.107C408.85 68.986 407.531 69.748 405.903 68.808L370.295 48.25C368.668 47.31 367.348 45.025 367.348 43.146C367.348 41.268 368.668 40.506 370.295 41.445Z" fill="#F5F5F5"/>
<path d="M76.683 413.94C71.28 415.761 68.913 422.546 66.141 423.801C72.985 425.426 79.467 424.301 81.958 420.975C84.449 417.65 82.23 412.07 76.683 413.94Z" fill="#FFA71E"/>
<path opacity="0.3" d="M76.683 413.94C71.28 415.761 68.913 422.546 66.141 423.801C72.985 425.426 79.467 424.301 81.958 420.975C84.449 417.65 82.23 412.07 76.683 413.94Z" fill="white"/>
<path d="M84.4579 411.62C83.9839 412.114 83.6199 412.695 83.2329 413.257C82.7179 414.004 82.1819 414.736 81.6249 415.452C80.6949 416.647 79.6539 417.745 78.4789 418.701C77.3319 419.634 76.0819 420.414 74.7649 421.082C73.3919 421.778 71.9779 422.25 70.5329 422.758C70.4849 422.775 70.4569 422.912 70.5279 422.906C73.4429 422.665 76.3259 421.165 78.5839 419.376C79.8469 418.375 80.9579 417.209 81.9419 415.934C82.9229 414.663 83.9349 413.234 84.5539 411.746C84.5779 411.687 84.5389 411.535 84.4579 411.62Z" fill="#FFA71E"/>
<path d="M295.801 459.853C290.246 460.387 285.418 455.273 282.44 455.261C287.904 451.072 294.144 449.485 297.7 451.459C301.255 453.433 301.505 459.305 295.801 459.853Z" fill="#FFA71E"/>
<path opacity="0.3" d="M295.801 459.853C290.246 460.387 285.418 455.273 282.44 455.261C287.904 451.072 294.144 449.485 297.7 451.459C301.255 453.433 301.505 459.305 295.801 459.853Z" fill="white"/>
<path d="M303.675 458.816C303.054 458.564 302.497 458.191 301.926 457.844C301.167 457.382 300.396 456.943 299.611 456.526C298.302 455.83 296.933 455.266 295.501 454.882C294.103 454.508 292.675 454.311 291.231 454.241C289.726 454.168 288.275 454.312 286.78 454.436C286.73 454.44 286.651 454.329 286.717 454.306C289.418 453.355 292.592 453.542 295.325 454.237C296.854 454.626 298.312 455.223 299.701 455.969C301.085 456.712 302.562 457.583 303.709 458.666C303.755 458.708 303.781 458.859 303.675 458.816Z" fill="#FFA71E"/>
<path d="M119.981 437.878C124.268 441.451 131.139 439.948 133.606 441.617C131.455 435.077 127.195 430.248 123.145 429.874C119.095 429.5 115.58 434.209 119.981 437.878Z" fill="#FFA71E"/>
<path opacity="0.3" d="M119.981 437.878C124.268 441.451 131.139 439.948 133.606 441.617C131.455 435.077 127.195 430.248 123.145 429.874C119.095 429.5 115.58 434.209 119.981 437.878Z" fill="white"/>
<path d="M114.062 432.582C114.717 432.724 115.388 432.73 116.055 432.765C116.942 432.812 117.827 432.884 118.71 432.981C120.183 433.144 121.632 433.45 123.032 433.94C124.397 434.419 125.688 435.062 126.92 435.818C128.204 436.606 129.322 437.543 130.486 438.489C130.525 438.52 130.653 438.473 130.612 438.417C128.918 436.109 126.19 434.474 123.541 433.507C122.059 432.966 120.518 432.637 118.951 432.47C117.389 432.303 115.678 432.191 114.121 432.438C114.057 432.448 113.95 432.558 114.062 432.582Z" fill="#FFA71E"/>
<path d="M262.797 377.685C267.921 379.894 274.083 376.503 276.923 377.403C273.004 371.743 267.549 368.322 263.56 369.113C259.57 369.904 257.535 375.417 262.797 377.685Z" fill="#FFA71E"/>
<path opacity="0.3" d="M262.797 377.685C267.921 379.894 274.083 376.503 276.923 377.403C273.004 371.743 267.549 368.322 263.56 369.113C259.57 369.904 257.535 375.417 262.797 377.685Z" fill="white"/>
<path d="M255.618 374.288C256.287 374.238 256.931 374.054 257.581 373.898C258.445 373.691 259.314 373.509 260.188 373.352C261.647 373.09 263.123 372.972 264.604 373.045C266.049 373.117 267.47 373.366 268.865 373.742C270.32 374.133 271.658 374.715 273.042 375.291C273.088 375.31 273.197 375.228 273.142 375.186C270.862 373.454 267.783 372.66 264.968 372.485C263.393 372.387 261.822 372.509 260.272 372.794C258.727 373.078 257.055 373.455 255.631 374.134C255.575 374.16 255.504 374.296 255.618 374.288Z" fill="#FFA71E"/>
<path d="M110.418 380.041C105.294 382.25 99.132 378.859 96.293 379.759C100.212 374.099 105.667 370.678 109.657 371.469C113.646 372.26 115.68 377.773 110.418 380.041Z" fill="#FFA71E"/>
<path opacity="0.3" d="M110.418 380.041C105.294 382.25 99.132 378.859 96.293 379.759C100.212 374.099 105.667 370.678 109.657 371.469C113.646 372.26 115.68 377.773 110.418 380.041Z" fill="white"/>
<path d="M117.597 376.644C116.928 376.594 116.284 376.41 115.634 376.254C114.77 376.047 113.901 375.865 113.027 375.708C111.568 375.446 110.092 375.328 108.611 375.401C107.166 375.473 105.746 375.722 104.35 376.098C102.895 376.489 101.557 377.071 100.173 377.646C100.127 377.665 100.018 377.583 100.073 377.541C102.353 375.809 105.432 375.015 108.247 374.84C109.822 374.742 111.393 374.864 112.943 375.149C114.488 375.433 116.16 375.81 117.584 376.489C117.641 376.517 117.712 376.652 117.597 376.644Z" fill="#FFA71E"/>
<path d="M53.625 364.36C48.389 366.617 42.094 363.152 39.193 364.072C43.197 358.289 48.771 354.793 52.847 355.602C56.922 356.41 59.001 362.043 53.625 364.36Z" fill="#FFA71E"/>
<path opacity="0.3" d="M53.625 364.36C48.389 366.617 42.094 363.152 39.193 364.072C43.197 358.289 48.771 354.793 52.847 355.602C56.922 356.41 59.001 362.043 53.625 364.36Z" fill="white"/>
<path d="M60.959 360.889C60.276 360.838 59.617 360.65 58.953 360.49C58.07 360.278 57.183 360.092 56.289 359.932C54.799 359.664 53.29 359.543 51.777 359.618C50.301 359.691 48.849 359.946 47.424 360.33C45.937 360.73 44.571 361.324 43.156 361.912C43.109 361.932 42.997 361.848 43.054 361.805C45.383 360.035 48.53 359.224 51.405 359.046C53.014 358.946 54.619 359.071 56.203 359.361C57.782 359.651 59.49 360.037 60.945 360.731C61.004 360.759 61.076 360.898 60.959 360.889Z" fill="#FFA71E"/>
<path d="M444.37 148.994C451.304 150.707 454.017 151.311 457.088 157.274C460.16 163.237 464.799 185.085 466.138 189.627C467.477 194.169 467.867 195.823 466.982 200.779C466.059 205.942 462.545 215.035 461.013 220.034C460.304 222.347 459.793 224.604 459.243 226.981C458.669 229.459 457.474 231.691 456.565 234.069C456.145 235.167 455.31 236.172 454.385 236.891C453.776 237.365 452.986 237.379 452.408 237.824C451.81 238.285 451.655 239.075 450.867 239.422C449.991 239.808 449.021 239.491 448.252 239.895C447.447 240.318 446.755 240.955 445.868 241.291C445.069 241.594 444.483 241.701 443.856 242.327C443.342 242.84 442.81 244.015 441.933 243.885C440.95 243.739 440.837 242.775 440.826 241.946C440.807 240.485 441.687 238.682 442.613 237.574C443.686 236.29 444.445 234.773 445.665 233.617C446.769 232.57 447.459 230.978 447.976 229.541C448.337 228.536 448.305 227.225 446.959 227.757C445.372 228.384 443.657 229.785 441.811 229.374C440.534 229.09 440.512 228.072 441.305 227.26C442.633 225.901 443.781 224.523 444.905 222.973C446.023 221.432 446.966 219.785 448.125 218.279C448.727 217.496 449.439 216.758 450.146 216.057C452.124 214.093 452.188 211.286 452.528 208.692C453.004 205.07 453.382 201.435 453.736 197.799C453.783 197.312 454.097 196.266 453.926 195.792L446.253 174.475L444.37 148.994Z" fill="#F0F0F0"/>
<path d="M398.961 328.102C401.041 326.62 402.734 326.043 403.042 327.197C403.35 328.351 402.727 331.685 402.727 331.685L401.619 334.747L401.463 337.509C401.463 337.509 400.773 339.164 400.734 339.279C400.696 339.395 398.656 334.747 398.656 334.747C398.656 334.747 396.058 329.585 398.961 328.102Z" fill="#E0E0E0"/>
<path opacity="0.2" d="M398.961 328.102C401.041 326.62 402.734 326.043 403.042 327.197C403.35 328.351 402.727 331.685 402.727 331.685L401.619 334.747L401.463 337.509C401.463 337.509 400.773 339.164 400.734 339.279C400.696 339.395 398.656 334.747 398.656 334.747C398.656 334.747 396.058 329.585 398.961 328.102Z" fill="black"/>
<path d="M452.632 324.341C452.632 324.341 440.362 304.267 434.178 292.301C429.607 283.456 429.231 281.763 428.267 276.065C426.197 263.821 425.712 260.951 425.712 260.951L420.731 285.27C421.234 287.958 422.259 293.278 422.171 296.377C422.049 300.494 421.409 306.268 419.861 314.365C417.398 327.242 415.16 334.205 415.16 334.205C414.157 334.826 411.321 334.825 408.868 334.64C405.467 334.383 401.888 333.042 401.888 333.042C401.888 333.042 401.127 304.088 401.002 296.127C400.853 286.571 400.819 282.822 400.747 277.574C400.632 269.221 400.009 257.104 401.021 241.81C403.033 211.384 410.589 197.792 410.589 197.792L445.966 194.58C448.43 204.969 454.442 206.431 454.456 220.466C454.459 223.653 452.46 229.885 452.183 234.816C451.285 250.809 448.705 275.88 448.705 275.88C452.411 279.531 455.099 282.802 457.408 290.993C458.81 295.965 463.209 311.812 464.527 316.265C459.085 317.519 452.632 324.341 452.632 324.341Z" fill="#E0E0E0"/>
<path opacity="0.18" d="M409.547 235.337C404.898 232.523 404.014 225.958 407.092 216.724L406.197 216.426C402.896 226.33 404.033 233.371 409.372 236.327C406.947 249.972 406.226 262.751 406.058 277.186C405.871 293.346 405.682 321.084 405.598 334.123C405.903 334.192 406.218 334.258 406.539 334.319C406.623 321.364 406.813 293.436 407.001 277.197C407.248 255.875 408.691 238.191 415.11 215.943L414.204 215.681C412.211 222.592 410.697 229.062 409.547 235.337ZM447.224 222.23C447.852 223.818 450.216 225.994 451.704 225.994H451.733C452.156 225.986 453.318 225.37 453.851 224.9C453.943 224.431 454.062 223.799 454.143 223.338C453.397 224.145 451.97 225.046 451.714 225.051H451.7C450.709 225.051 448.634 223.227 448.101 221.883C447.848 221.243 447.782 220.387 447.697 219.303C447.605 218.12 447.49 216.646 447.072 214.935L446.157 215.158C446.557 216.797 446.664 218.167 446.757 219.377C446.848 220.541 446.919 221.459 447.224 222.23ZM437.617 278.474C436.498 271.723 435.068 249.812 435.364 236.974C438.844 235.327 440.867 232.825 441.786 229.824C444.802 223.07 443.657 216.786 441.507 213.091L440.691 213.566C442.683 216.988 443.759 222.778 441.095 229.063C437.85 234.781 430.674 235.442 430.674 235.442L425.712 260.952L428.267 276.066L427.775 261.139L433.736 237.654C433.97 237.571 434.189 237.479 434.412 237.389C434.157 250.334 435.575 271.922 436.687 278.629C437.729 284.908 452.133 312.247 456.64 320.694C456.885 320.496 457.135 320.297 457.394 320.099C452.834 311.532 438.616 284.491 437.617 278.474ZM431.808 230.702C433.182 230.436 434.267 229.546 436.454 226.896C438.118 224.878 437.992 223.394 437.784 220.936C437.708 220.034 437.621 219.011 437.595 217.741L436.652 217.761C436.68 219.06 436.768 220.099 436.846 221.015C437.052 223.459 437.146 224.575 435.727 226.296C433.706 228.746 432.749 229.559 431.63 229.776C430.545 229.991 425.79 229.074 424.54 228.161C423.819 227.631 422.752 221.31 422.177 215.757L421.24 215.855C421.53 218.662 422.586 227.9 423.984 228.921C425.225 229.829 429.306 230.747 431.206 230.747C431.444 230.747 431.649 230.732 431.808 230.702Z" fill="black"/>
<path d="M378.592 346.872C378.008 346.783 377.966 348.98 378.122 349.718C378.278 350.456 380.512 353.003 384.712 354.132C388.913 355.261 395.452 354.695 397.981 354.756C400.51 354.817 402.892 356.128 406.386 356.783C409.492 357.366 413.773 356.829 415.328 355.514C416.091 354.869 416.055 353.902 416.078 353.217C416.134 351.593 416.002 351.256 415.807 351.257L378.592 346.872Z" fill="#E0E0E0"/>
<path d="M416.091 347.614C416.296 349.23 416.198 350.77 415.854 352.373C415.25 353.548 413.586 354.111 412.431 354.375C409.384 355.07 407.122 354.755 403.868 353.903C401.918 353.393 399.792 352.843 397.414 352.823C394.801 352.8 391.187 353.017 388.606 352.593C386.401 352.23 384.236 351.843 382.246 350.837C380.566 349.987 378.944 348.93 378.576 347.172C378.655 344.007 380.413 342.604 382.277 341.724C384.245 340.794 386.72 340.902 388.911 340.847C391.624 340.778 392.631 341.005 395.395 340.434C396.849 340.134 398.86 340.827 399.614 339.282C400.504 337.457 400.037 333.882 400.428 331.931C400.492 331.612 400.595 331.261 400.878 331.102C401.287 330.873 401.778 331.178 402.155 331.455C403.948 332.773 405.862 333.413 408.045 333.804C413.861 334.845 415.561 332.859 415.561 332.859L415.908 331.654C415.908 331.654 417.174 331.932 416.574 334.668C416.041 337.097 415.831 338.249 415.598 341.549C415.384 344.554 415.888 346.017 416.091 347.614Z" fill="#E0E0E0"/>
<path opacity="0.1" d="M416.091 347.614C416.296 349.23 416.198 350.77 415.854 352.373C415.25 353.548 413.586 354.111 412.431 354.375C409.384 355.07 407.122 354.755 403.868 353.903C401.918 353.393 399.792 352.843 397.414 352.823C394.801 352.8 391.187 353.017 388.606 352.593C386.401 352.23 384.236 351.843 382.246 350.837C380.566 349.987 378.944 348.93 378.576 347.172C378.655 344.007 380.413 342.604 382.277 341.724C384.245 340.794 386.72 340.902 388.911 340.847C391.624 340.778 392.631 341.005 395.395 340.434C396.849 340.134 398.86 340.827 399.614 339.282C400.504 337.457 400.037 333.882 400.428 331.931C400.492 331.612 400.595 331.261 400.878 331.102C401.287 330.873 401.778 331.178 402.155 331.455C403.948 332.773 405.862 333.413 408.045 333.804C413.861 334.845 415.561 332.859 415.561 332.859L415.908 331.654C415.908 331.654 417.174 331.932 416.574 334.668C416.041 337.097 415.831 338.249 415.598 341.549C415.384 344.554 415.888 346.017 416.091 347.614Z" fill="black"/>
<path d="M389.93 340.833C387.817 341.667 388.241 345.349 388.241 345.349C388.241 345.349 392.006 346.196 395.084 345.573C399.004 344.78 400.761 342.233 400.827 339.043C400.893 335.853 398.863 331.983 398.321 330.706C397.907 329.732 398.036 328.697 398.961 328.102C397.076 329.233 396.934 330.516 397.462 332.064C397.991 333.613 398.85 336.756 398.453 337.993C398.057 339.23 394.893 340.65 389.93 340.833Z" fill="#E0E0E0"/>
<path opacity="0.1" d="M389.93 340.833C387.817 341.667 388.241 345.349 388.241 345.349C388.241 345.349 392.006 346.196 395.084 345.573C399.004 344.78 400.761 342.233 400.827 339.043C400.893 335.853 398.863 331.983 398.321 330.706C397.907 329.732 398.036 328.697 398.961 328.102C397.076 329.233 396.934 330.516 397.462 332.064C397.991 333.613 398.85 336.756 398.453 337.993C398.057 339.23 394.893 340.65 389.93 340.833Z" fill="black"/>
<path d="M452.232 323.168C450.96 324.862 449.551 326.048 452.949 328.44C455.57 330.285 455.692 331.719 456.469 333.624C457.246 335.529 456.964 339.33 456.964 339.33C456.964 339.33 461.754 332.517 460.543 328.009C459.333 323.501 452.232 323.168 452.232 323.168Z" fill="#E0E0E0"/>
<path opacity="0.1" d="M452.232 323.168C450.96 324.862 449.551 326.048 452.949 328.44C455.57 330.285 455.692 331.719 456.469 333.624C457.246 335.529 456.964 339.33 456.964 339.33C456.964 339.33 461.754 332.517 460.543 328.009C459.333 323.501 452.232 323.168 452.232 323.168Z" fill="black"/>
<path d="M467.115 319.632C467.935 320.905 469.897 322.033 471.52 323.105C472.663 323.859 473.841 324.601 474.148 325.939C474.182 326.088 473.435 326.895 473.45 327.046C473.514 327.693 473.419 328.354 473.323 329.001C472.991 331.249 471.713 332.876 471.38 335.125C471.245 336.043 471.093 336.887 470.815 337.762C470.503 338.745 470.558 339.944 470.462 340.967C470.356 342.089 470.251 343.212 470.157 344.335C470.12 344.775 469.98 345.335 470.061 345.775C470.149 346.249 462.392 349.879 459.267 351.267C459.086 351.35 458.906 351.412 458.704 351.483C455.88 352.34 453.097 350.769 453.097 350.769C447.022 348.363 447.468 346.149 447.468 346.149C447.468 346.149 447.351 343.577 450.515 341.937C450.914 341.731 451.31 341.556 451.702 341.434C451.725 341.425 451.747 341.416 451.759 341.406C454.387 340.536 456.539 341.302 456.539 341.302C456.539 341.302 456.896 340.631 457.042 338.487C457.18 336.453 457.295 336.204 457.237 334.165C457.2 332.875 456.24 330.642 455.519 329.579C454.27 327.738 452.923 325.422 452.07 324.107C451.11 322.961 451.096 319.776 456.32 316.266C461.319 312.908 464.89 313.741 465.542 315.224C465.54 315.225 466.278 318.334 467.115 319.632Z" fill="#E0E0E0"/>
<path opacity="0.1" d="M467.115 319.632C467.935 320.905 469.897 322.033 471.52 323.105C472.663 323.859 473.841 324.601 474.148 325.939C474.182 326.088 473.435 326.895 473.45 327.046C473.514 327.693 473.419 328.354 473.323 329.001C472.991 331.249 471.713 332.876 471.38 335.125C471.245 336.043 471.093 336.887 470.815 337.762C470.503 338.745 470.558 339.944 470.462 340.967C470.356 342.089 470.251 343.212 470.157 344.335C470.12 344.775 469.98 345.335 470.061 345.775C470.149 346.249 462.392 349.879 459.267 351.267C459.086 351.35 458.906 351.412 458.704 351.483C455.88 352.34 453.097 350.769 453.097 350.769C447.022 348.363 447.468 346.149 447.468 346.149C447.468 346.149 447.351 343.577 450.515 341.937C450.914 341.731 451.31 341.556 451.702 341.434C451.725 341.425 451.747 341.416 451.759 341.406C454.387 340.536 456.539 341.302 456.539 341.302C456.539 341.302 456.896 340.631 457.042 338.487C457.18 336.453 457.295 336.204 457.237 334.165C457.2 332.875 456.24 330.642 455.519 329.579C454.27 327.738 452.923 325.422 452.07 324.107C451.11 322.961 451.096 319.776 456.32 316.266C461.319 312.908 464.89 313.741 465.542 315.224C465.54 315.225 466.278 318.334 467.115 319.632Z" fill="black"/>
<path opacity="0.1" d="M453.224 343.437C453.688 342.413 454.071 341.938 455.462 341.072C456.124 341.164 456.537 341.303 456.537 341.303C455.903 341.892 453.663 342.688 453.224 343.437Z" fill="black"/>
<path d="M474.85 327.273C476.201 327.89 475.004 330.071 473.259 333.323C471.524 336.557 471.146 338.5 471.384 341.487C471.623 344.474 470.879 345.91 469.561 346.908C468.242 347.906 458.57 351.818 458.57 351.818C458.57 351.818 461.91 348.431 462.626 341.897C463.342 335.363 464.088 331.175 467.43 328.415C470.774 325.655 474.85 327.273 474.85 327.273Z" fill="#E0E0E0"/>
<g opacity="0.18">
<path d="M474.85 327.273C476.201 327.89 475.004 330.071 473.259 333.323C471.524 336.557 471.146 338.5 471.384 341.487C471.623 344.474 470.879 345.91 469.561 346.908C468.242 347.906 458.57 351.818 458.57 351.818C458.57 351.818 461.91 348.431 462.626 341.897C463.342 335.363 464.088 331.175 467.43 328.415C470.774 325.655 474.85 327.273 474.85 327.273Z" fill="black"/>
</g>
<path d="M447.464 346.147C447.582 347.426 451.162 350.133 455.475 350.215C459.925 350.299 460.189 349.38 461.007 344.342C461.825 339.303 462.492 332.304 464.766 329.36C467.04 326.415 469.973 324.72 474.146 325.94C474.62 326.188 475.888 327.527 475.361 328.731C475.361 328.731 475.401 327.77 473.689 327.22C472.221 326.748 470.453 326.741 467.922 328.799C464.968 331.201 464.154 337.017 463.679 342.021C463.204 347.026 461.497 351.791 457.336 352.115C453.175 352.439 450.003 351.122 447.427 348.725C447.034 347.362 447.464 346.147 447.464 346.147Z" fill="#E0E0E0"/>
<path d="M412.12 117.244C410.874 115.802 410.872 113.512 411.567 111.737C412.262 109.962 413.714 108.084 417.953 105.89C422.988 103.285 436.83 101.433 443.677 110.486C444.664 111.791 431.042 137.392 431.715 142.702C428.184 138.988 416.522 125.927 416.522 125.927C413.759 124.751 412.089 123.753 411.506 121.147C411.34 120.405 411.375 118.506 412.12 117.244Z" fill="#E0E0E0"/>
<path d="M414.194 124.486C414.194 124.486 410.465 130.582 410.877 131.079C411.289 131.576 413.64 132.906 413.64 132.906L414.194 124.486Z" fill="#E0E0E0"/>
<path d="M418.83 113.375C416.328 114.557 414.157 116.477 413.379 121.971C413.176 123.407 414.296 125.37 413.787 127.28C411.608 135.457 414.194 142.275 415.785 143.78C416.859 144.795 422.475 145.246 425.422 144.426C429.109 143.399 437.117 139.782 440.937 134.019C445.43 127.239 446.481 118.123 441.477 114.463C434.436 109.312 421.501 112.113 418.83 113.375Z" fill="#F0F0F0"/>
<path d="M437.986 137.884L439.445 147.985C441.698 148.468 441.913 151.135 440.792 153.156L441.314 155.995L425.91 158.823L424.184 144.699L437.986 137.884Z" fill="#F0F0F0"/>
<path d="M416.084 143.986C417.39 144.711 420.271 145.247 424.184 144.701L423.954 142.703C423.954 142.703 422.296 143.359 420.135 143.798C417.987 144.232 416.107 143.989 416.084 143.986Z" fill="#E0E0E0"/>
<path d="M415.128 116.307C414.99 119.869 417.224 120.99 418.815 121.692C418.245 122.722 417.936 124.752 418.161 125.89C418.518 127.695 419.204 129.174 420.98 129.771C422.068 130.136 422.388 129.657 422.775 128.8C423.327 127.581 424.018 125.71 426.636 126.07C429.638 126.483 430.429 131.002 428.68 133.962C427.909 135.267 426.632 136.163 425.297 136.239C424.101 136.307 423.254 135.275 423.254 135.275C423.254 135.275 423.452 139.222 428.525 141.558C428.525 141.558 433.644 144.439 438.893 142.889C440.855 140.552 443.174 138.129 445.57 134.669C451.108 126.671 452.211 112.026 442.777 109.4C442.327 109.275 433.786 108.082 429.62 108.985C416.841 111.755 415.151 115.69 415.128 116.307Z" fill="#E0E0E0"/>
<path d="M451.559 156.242C450.18 151.745 445.61 149.372 444.218 148.968C442.826 148.564 439.446 147.985 439.446 147.985C440.226 149.77 438.906 150.942 436.599 151.479C433.62 152.172 429.094 152.251 426.012 150.202L424.748 149.421C424.748 149.421 416.995 151.399 414.802 152.416C414.132 152.727 410.426 153.977 404.585 167.076C402.088 172.677 402.836 178.37 407.417 182.407C407.676 185.96 408.003 193.477 408.003 193.477C406.097 205.28 404.6 214.139 404.6 214.139C404.6 214.139 407.361 221.393 429.065 221.316C445.874 221.257 454.114 213.178 454.114 213.178C453.914 209.041 447.655 194.578 448.294 189.74C449.297 182.647 455.769 169.973 451.559 156.242Z" fill="#E0E0E0"/>
<g opacity="0.1">
<path d="M451.559 156.242C450.18 151.745 445.61 149.372 444.218 148.968C442.826 148.564 439.446 147.985 439.446 147.985C440.226 149.77 438.906 150.942 436.599 151.479C433.62 152.172 429.094 152.251 426.012 150.202L424.748 149.421C424.748 149.421 416.995 151.399 414.802 152.416C414.132 152.727 410.426 153.977 404.585 167.076C402.088 172.677 402.836 178.37 407.417 182.407C407.676 185.96 408.003 193.477 408.003 193.477C406.097 205.28 404.6 214.139 404.6 214.139C404.6 214.139 407.361 221.393 429.065 221.316C445.874 221.257 454.114 213.178 454.114 213.178C453.914 209.041 447.655 194.578 448.294 189.74C449.297 182.647 455.769 169.973 451.559 156.242Z" fill="black"/>
</g>
<path d="M375.987 169.502L375.988 169.503C375.657 169.329 375.315 168.982 375.224 168.727L366.773 145.246C366.682 144.991 366.804 144.719 367.044 144.638L378.267 138.403C378.501 138.265 378.841 138.171 379.172 138.345C379.503 138.519 379.95 138.752 380.041 139.007L388.517 162.827C388.608 163.082 388.486 163.354 388.246 163.436L377.023 169.671C376.782 169.751 376.319 169.675 375.987 169.502Z" fill="#EBEBEB"/>
<path opacity="0.2" d="M375.987 169.502L375.988 169.503C375.657 169.329 375.315 168.982 375.224 168.727L366.773 145.246C366.682 144.991 366.804 144.719 367.044 144.638L378.267 138.403C378.508 138.265 378.841 138.171 379.172 138.345C379.503 138.519 379.95 138.752 380.041 139.007L388.517 162.827C388.608 163.082 388.486 163.354 388.246 163.436L377.023 169.671C376.782 169.751 376.319 169.675 375.987 169.502Z" fill="black"/>
<path d="M376.944 169.691C376.689 169.734 376.287 169.657 375.987 169.501C375.657 169.327 375.314 168.984 375.223 168.724L366.773 145.244C366.727 145.117 366.737 144.986 366.781 144.879L367.96 145.168C367.91 145.273 367.9 145.404 367.944 145.537L376.419 169.356C376.504 169.582 376.726 169.717 376.944 169.691Z" fill="#EBEBEB"/>
<path opacity="0.4" d="M376.944 169.691C376.689 169.734 376.287 169.657 375.987 169.501C375.657 169.327 375.314 168.984 375.223 168.724L366.773 145.244C366.727 145.117 366.737 144.986 366.781 144.879L367.96 145.168C367.91 145.273 367.9 145.404 367.944 145.537L376.419 169.356C376.504 169.582 376.726 169.717 376.944 169.691Z" fill="black"/>
<path d="M367.947 145.535L376.423 169.355C376.514 169.61 376.782 169.751 377.023 169.67L388.246 163.435C388.487 163.354 388.608 163.081 388.517 162.826L380.041 139.006C379.95 138.751 379.682 138.61 379.441 138.691L368.218 144.926C367.978 145.007 367.857 145.28 367.947 145.535Z" fill="#EBEBEB"/>
<path opacity="0.3" d="M367.947 145.535L376.423 169.355C376.514 169.61 376.782 169.751 377.023 169.67L388.246 163.435C388.487 163.354 388.608 163.081 388.517 162.826L380.041 139.006C379.95 138.751 379.682 138.61 379.441 138.691L368.218 144.926C367.978 145.007 367.857 145.28 367.947 145.535Z" fill="black"/>
<path d="M369.522 146.9L379.511 141.317C379.717 141.247 379.947 141.368 380.025 141.587L386.845 160.785C386.923 161.003 386.819 161.237 386.612 161.306L376.663 167.018C376.457 167.088 376.227 166.967 376.149 166.748L369.289 147.421C369.212 147.204 369.316 146.97 369.522 146.9Z" fill="white"/>
<path d="M373.566 142.551C373.715 142.468 373.909 142.529 373.999 142.686C374.09 142.843 374.042 143.037 373.894 143.12C373.745 143.202 373.551 143.142 373.461 142.985C373.37 142.828 373.417 142.633 373.566 142.551Z" fill="#E0E0E0"/>
<path d="M373.118 143.863C373.672 143.572 374.639 143.014 375.176 142.71C375.267 142.658 375.383 142.69 375.436 142.781C375.488 142.872 375.456 142.988 375.364 143.039L373.298 144.186C373.206 144.237 373.089 144.204 373.036 144.113C372.983 144.022 373.023 143.913 373.118 143.863Z" fill="#E0E0E0"/>
<path d="M372.596 144.153C372.68 144.107 372.789 144.141 372.839 144.229C372.89 144.317 372.863 144.426 372.78 144.473C372.697 144.519 372.588 144.485 372.537 144.397C372.486 144.309 372.512 144.2 372.596 144.153Z" fill="#E0E0E0"/>
<path d="M382.347 164.671C382.669 164.562 383.029 164.751 383.151 165.093C383.273 165.435 383.11 165.8 382.788 165.908C382.466 166.017 382.106 165.828 381.984 165.486C381.862 165.145 382.025 164.78 382.347 164.671Z" fill="#E0E0E0"/>
<path d="M417.211 151.54C410.679 153.134 406.663 153.011 402.247 161.509C397.207 171.208 390.209 184.548 388.981 186.625C387.272 189.514 386.954 193.525 388.43 196.179C389.808 198.657 394.569 201.641 399.525 196.042C405.419 189.384 414.798 174.228 414.798 174.228C414.798 174.228 424.114 161.937 417.211 151.54Z" fill="#F0F0F0"/>
<path d="M392.748 199.668C388.006 199.093 382.87 191.458 379.743 186.535C374.475 178.244 373.349 176.656 370.892 172.525C369.022 169.381 367.147 166.047 366.715 165.29C366.304 164.571 366.184 163.715 366.172 162.899C366.156 161.814 366.193 161.504 366.005 160.435C365.892 159.793 365.657 159.159 365.714 158.51C365.769 157.89 366.085 157.323 366.193 156.71C366.325 155.963 366.14 155.2 366.111 154.442C366.092 153.943 366.23 153.443 366.404 152.968C366.95 151.477 368.291 149.467 368.291 149.467L372.187 160.288C372.494 161.141 373.794 162.484 374.456 161.364C374.629 161.071 374.685 160.723 374.718 160.384C374.825 159.29 374.733 158.177 374.935 157.096C375.06 156.43 375.319 155.766 375.754 155.239C376.036 154.897 376.876 154.107 377.345 154.518C377.486 154.642 377.555 154.828 377.594 155.011C377.702 155.525 377.531 156.013 377.598 156.509C377.685 157.146 377.913 157.784 378.035 158.418C378.284 159.709 378.436 161.018 378.492 162.331C378.533 163.298 378.521 164.269 378.633 165.23C378.769 166.401 379.121 167.403 379.79 168.362C381.021 170.128 395.297 183.993 395.297 183.993L392.748 199.668Z" fill="#F0F0F0"/>
<path d="M330.34 150.576L302.03 156.877L310.468 204.598C310.468 204.598 303.821 211.769 300.217 219.827C297.602 225.674 288.997 248.85 287.543 252.533C286.09 256.216 284.82 259.433 284.82 259.433C284.65 260.603 286.379 263.766 289.229 264.58C292.079 265.393 296.259 265.997 296.632 264.921C296.632 264.921 297.3 261.313 300.951 256.185C304.602 251.057 329.138 214.497 330.451 212.072C332.42 208.433 334.672 205.326 334.348 193.672C334.02 181.842 331.809 156.479 330.34 150.576Z" fill="#F0F0F0"/>
<path opacity="0.15" d="M302.328 215.736C301.567 217.052 300.844 218.424 300.217 219.827C299.584 221.242 298.571 223.433 297.516 226.432C297.953 230.453 298.64 236.013 298.888 237.114L301.067 237.1C301.536 241.946 303.631 249.148 304.245 251.404L311.924 240.047C310.102 231.443 304.129 219.879 302.328 215.736Z" fill="black"/>
<path d="M331.994 157.113C331.994 157.113 332.702 163.202 334.28 178.505C335.858 193.808 337.04 200.128 332.658 209.484C328.276 218.839 321.003 229.256 318.666 232.401C318.666 232.401 306.66 231.738 298.917 220.517L305.116 206.695L291.767 162.141L331.994 157.113Z" fill="#E0E0E0"/>
<path opacity="0.18" d="M327.434 161.251C327.434 161.251 329.696 166.232 325.551 172.043C322.448 176.394 319.045 178.341 319.045 178.341C319.045 178.341 323.446 204.068 324.283 209.163C325.277 215.212 324.647 223.669 324.647 223.669L315.881 176.679L327.434 161.251Z" fill="black"/>
<path d="M281.274 264.92C280.759 265.71 280.541 266.548 280.541 267.437C280.541 268.13 281.175 270.112 282.808 271.747C283.988 272.929 284.999 274.706 285.67 277.01C286.224 278.91 286.178 282.704 288.303 285.548C290.428 288.392 296.384 291.965 304.159 289.919C307.974 288.915 308.513 286.716 308.12 285.665L281.274 264.92Z" fill="#E0E0E0"/>
<path d="M297.838 262.249C297.438 264.92 296.369 269.424 301.369 276.323C303.835 279.725 309.008 281.556 308.12 285.664C306.059 288.649 301.995 289.512 297.286 288.831C294.265 288.394 292.116 287.039 290.289 285.322C288.362 283.511 288.429 281.696 287.325 278.161C286.556 275.698 285.963 273.985 285.015 272.272C283.991 270.421 280.827 268.681 281.272 264.919C281.396 263.868 282.879 262.778 283.453 260.952C284.197 258.589 284.682 257.489 285.524 257.642L285.285 258.248C286.049 259.018 288.068 259.96 288.521 260.8C289.269 262.189 288.963 264.113 289.477 264.118C289.992 264.123 290.187 261.455 291.086 261.084C295.06 259.447 297.838 262.249 297.838 262.249Z" fill="#E0E0E0"/>
<path opacity="0.1" d="M297.838 262.249C297.438 264.92 296.369 269.424 301.369 276.323C303.835 279.725 309.008 281.556 308.12 285.664C306.059 288.649 301.995 289.512 297.286 288.831C294.265 288.394 292.116 287.039 290.289 285.322C288.362 283.511 288.429 281.696 287.325 278.161C286.556 275.698 285.963 273.985 285.015 272.272C283.991 270.421 280.827 268.681 281.272 264.919C281.396 263.868 282.879 262.778 283.453 260.952C284.197 258.589 284.682 257.489 285.524 257.642L285.285 258.248C286.049 259.018 288.068 259.96 288.521 260.8C289.269 262.189 288.963 264.113 289.477 264.118C289.992 264.123 290.187 261.455 291.086 261.084C295.06 259.447 297.838 262.249 297.838 262.249Z" fill="black"/>
<path opacity="0.2" d="M303.046 278.152C302.428 277.583 301.848 276.983 301.37 276.323C296.37 269.424 297.438 264.92 297.839 262.249C297.839 262.249 295.061 259.447 291.09 261.085C290.19 261.456 289.996 264.124 289.481 264.119C289.481 270.022 293.603 277.207 295.205 279.253C298.027 277.559 301.622 277.742 303.046 278.152Z" fill="black"/>
<path d="M289.81 267.33C292.312 265.637 295.532 266.015 297.483 266.688C297.61 266.87 297.676 267.352 297.588 267.765C295.592 267.116 292.834 266.98 290.433 268.334C289.724 268.589 289.241 267.67 289.81 267.33Z" fill="#E6E6E6"/>
<path d="M290.943 271.499C293.445 269.806 296.409 270.192 298.36 270.866C298.487 271.048 298.713 271.42 298.799 271.934C296.803 271.285 293.966 271.149 291.565 272.503C290.857 272.759 290.374 271.84 290.943 271.499Z" fill="#E6E6E6"/>
<path d="M292.664 275.252C295.091 273.454 297.995 273.616 299.973 274.205C300.107 274.382 300.365 274.678 300.629 275.254C298.607 274.691 295.669 274.773 293.328 276.228C292.632 276.514 292.11 275.616 292.664 275.252Z" fill="#E6E6E6"/>
<path d="M294.979 278.855C297.406 277.057 300.615 277.132 302.592 277.722C302.785 277.864 303.009 277.971 303.482 278.547C301.46 277.984 297.984 278.377 295.642 279.832C294.946 280.117 294.425 279.22 294.979 278.855Z" fill="#E6E6E6"/>
<path d="M328.04 278.38C327.408 272.351 323.298 236.976 322.372 219.127C319.951 198.428 314.27 177.268 314.27 177.268C314.27 177.268 318.819 174.98 323.189 169.24C329.548 160.886 329.712 153.635 329.712 153.635L326.262 153.252L288.743 153.198C288.594 159.392 287.995 168.071 288.503 176.126C289.546 192.647 304.278 222.429 304.278 222.429C304.031 224.693 301.989 234.249 303.95 242.754C307.043 256.173 314.134 273.212 315.601 280.467L316.842 286.604C321.696 287.518 326.226 287.509 330.408 284.724C330.409 284.726 328.453 282.317 328.04 278.38Z" fill="#F0F0F0"/>
<path d="M287.943 151.385C287.039 158.3 286.314 163.997 286.191 169.099C286.068 174.201 287.224 181.222 289.277 188.361C291.329 195.499 297.419 212.808 298.193 215.328C298.966 217.848 300.448 234.258 300.448 234.258C300.448 234.258 314.97 238.066 325.059 232.033C325.059 232.033 324.342 215.614 323.609 211.427C322.876 207.239 315.882 176.681 315.882 176.681C315.882 176.681 332.576 171.039 331.994 153.402L287.943 151.385Z" fill="#E0E0E0"/>
<path d="M314.524 290.335C314.524 290.335 314.31 292.689 314.648 293.329C314.986 293.969 316.871 294.706 318.875 295.518C320.492 296.173 321.643 296.377 323.488 299.367C324.423 300.883 326.397 303.661 329.65 305.44C333.033 307.291 337.546 307.229 341.653 306.174C346.361 304.965 347.515 303.82 347.41 301.38L314.524 290.335Z" fill="#E0E0E0"/>
<path d="M327.473 279.809C328.227 279.793 328.898 280.271 329.147 280.982C330.13 283.783 332.699 287.597 336.17 290.793C340.065 294.378 343.152 294.169 346.412 297.314C347.315 298.185 347.724 300.045 347.409 301.38C346.748 303.336 342.554 304.949 339.567 305.267C334.592 305.796 332.222 305.06 329.802 303.743C324.768 301.004 324.438 296.942 321.368 295.171C319.598 294.15 315.552 293.016 314.531 291.282C313.528 287.57 315.015 286.461 314.8 283.774C314.545 280.582 315.065 280.217 315.517 280.074L315.852 281.711C317.04 281.765 318.378 281.962 319.578 282.756C320.779 283.55 321.236 286.182 321.713 285.935C322.061 285.754 321.659 284.243 321.453 283.068C321.33 282.367 321.624 281.659 322.209 281.254C323.891 280.091 326.083 279.837 327.473 279.809Z" fill="#E0E0E0"/>
<path opacity="0.1" d="M327.473 279.809C328.227 279.793 328.898 280.271 329.147 280.982C330.13 283.783 332.699 287.597 336.17 290.793C340.065 294.378 343.152 294.169 346.412 297.314C347.315 298.185 347.724 300.045 347.409 301.38C346.748 303.336 342.554 304.949 339.567 305.267C334.592 305.796 332.222 305.06 329.802 303.743C324.768 301.004 324.438 296.942 321.368 295.171C319.598 294.15 315.552 293.016 314.531 291.282C313.528 287.57 315.015 286.461 314.8 283.774C314.545 280.582 315.065 280.217 315.517 280.074L315.852 281.711C317.04 281.765 318.378 281.962 319.578 282.756C320.779 283.55 321.236 286.182 321.713 285.935C322.061 285.754 321.659 284.243 321.453 283.068C321.33 282.367 321.624 281.659 322.209 281.254C323.891 280.091 326.083 279.837 327.473 279.809Z" fill="black"/>
<path opacity="0.2" d="M331.786 297.22C335.492 293.671 338.885 293.639 340.707 293.822C339.288 293.127 337.801 292.293 336.171 290.793C332.7 287.598 330.131 283.784 329.148 280.983C328.898 280.272 328.227 279.794 327.474 279.81C326.084 279.839 323.892 280.092 322.212 281.255C321.627 281.66 321.333 282.369 321.456 283.069C321.662 284.244 322.063 285.755 321.715 285.936C323.186 289.952 326.862 293.62 331.786 297.22Z" fill="black"/>
<path d="M322.503 288.185C325.071 284.634 330.551 284.659 331.389 285.247C331.856 285.714 332.005 286.126 332.005 286.126C329.942 285.571 325.89 286.04 323.432 288.915C322.853 289.398 322.085 288.7 322.503 288.185Z" fill="#E6E6E6"/>
<path d="M324.898 291.007C327.466 287.456 332.705 287.481 333.542 288.069C334.009 288.536 334.302 288.948 334.302 288.948C332.239 288.393 328.285 288.862 325.827 291.737C325.249 292.22 324.481 291.522 324.898 291.007Z" fill="#E6E6E6"/>
<path d="M327.624 294.049C330.191 290.498 335.518 290.372 336.356 290.96C336.868 291.402 337.363 291.797 337.363 291.797C335.3 291.242 331.011 291.904 328.553 294.779C327.974 295.262 327.206 294.564 327.624 294.049Z" fill="#E6E6E6"/>
<path d="M331.258 296.848C333.825 293.297 339.498 293.051 340.335 293.639C340.967 293.873 341.908 294.398 341.908 294.398C339.845 293.843 334.645 294.704 332.187 297.579C331.608 298.061 330.84 297.363 331.258 296.848Z" fill="#E6E6E6"/>
<path d="M325.319 98.532C336.387 100.597 337.459 104.503 339.039 112.853C340.69 121.575 342.091 137.957 342.091 137.957C342.091 137.957 347.358 157.975 348.664 160.298C350.857 164.201 354.083 164.277 357.453 169.147C359.826 172.577 362.749 174.818 359.59 175.145C358.012 175.308 356.12 173.088 354.942 172.273C354.421 171.913 353.297 171.077 352.619 171.484C351.968 171.875 352.149 173.104 352.281 173.714C352.739 175.842 353.91 177.822 355.02 179.663C356.47 182.067 359.409 185.036 359.015 188.082C358.576 191.47 355.829 187.841 354.361 187.461C352.927 187.09 351.609 187.299 350.272 186.333C349.74 185.949 349.346 185.151 348.746 184.894C348.386 184.74 347.866 184.783 347.478 184.731C342.829 184.113 340.906 178.427 339.842 174.614C339.187 172.269 338.776 169.849 338.078 167.519C337.276 164.841 336.582 162.012 335.334 159.507C329.49 147.774 328.184 144.187 327.003 140.746C325.819 137.305 325.319 98.532 325.319 98.532Z" fill="#F0F0F0"/>
<path d="M331.91 115.953C331.304 110.521 331.059 102.107 325.318 98.5321C325.318 98.5321 319.539 97.3241 317.277 97.1761C317.277 97.1761 312.003 96.7201 305.589 97.1761C301.814 97.4441 293.853 98.8751 293.853 98.8751L286.906 132.429C286.906 132.429 285.448 149.526 286.716 162.126C296.399 168.623 322.013 168.351 332.576 162.355C331.994 151.385 332.673 122.785 331.91 115.953Z" fill="#FAFAFA"/>
<path d="M304.632 62.457C304.632 62.457 301.759 61.56 299.497 64.486C297.522 67.04 298.547 72.437 299.482 78.08C300.418 83.723 301.71 86.841 302.394 88.436C303.078 90.03 304.693 90.589 304.693 90.589L305.042 84.006L305.159 79.409C305.159 79.409 308.409 75.624 308.987 72.36C309.73 68.159 308.973 66.357 308.973 66.357L304.632 62.457Z" fill="#E0E0E0"/>
<path d="M308.379 70.2321C307.876 77.0101 312.963 82.9121 319.741 83.4151C326.519 83.9181 332.421 78.8311 332.924 72.0531C333.427 65.2751 328.34 59.3731 321.562 58.8701C314.784 58.3681 308.882 63.4551 308.379 70.2321Z" fill="#E0E0E0"/>
<path d="M299.252 85.1C301.566 86.851 303.926 84.5261 303.926 84.5261L303.082 98.1521C303.082 98.1521 303.523 100.268 308.331 102.89C314.27 106.129 322.927 105.097 318.744 98.2321L319.122 95.0101C319.122 95.0101 321.417 95.2581 323.246 95.1101C326.297 94.8721 328.598 92.848 329.753 89.655C331.607 84.52 331.87 76.6141 330.637 66.2711C327.463 63.3921 316.409 62.129 308.97 66.075C308.849 72.101 306.978 74.639 306.82 76.82C306.298 77.647 304.369 78.225 303.976 78.519C303.7 77.072 303.504 76.7341 302.654 75.6921C301.795 74.6571 298.87 73.105 297.122 76.173C295.352 79.297 297.252 83.592 299.252 85.1Z" fill="#F0F0F0"/>
<path d="M319.122 95.0091C315.564 94.5111 310.454 92.5781 308.633 90.5881C306.858 88.6481 306.119 86.8831 305.589 85.0061C305.589 88.0261 306.264 90.4381 308.345 92.6821C310.426 94.9261 315.206 96.3381 318.889 96.9991L319.122 95.0091Z" fill="#E0E0E0"/>
<path d="M333.57 58.675C333.491 58.493 333.351 58.322 333.157 58.302C333.005 58.287 332.861 58.37 332.731 58.45C332.261 58.737 331.211 59.489 329.905 60.051C330.249 58.867 330.358 57.616 330.235 56.39C330.159 55.636 330.082 53.899 329.176 53.643C328.637 53.491 328.124 53.912 327.686 54.262C323.732 57.427 319.043 55.458 314.589 55.255C310.866 55.086 306.266 56.25 304.309 59.732C303.414 61.325 303.147 63.056 304.575 64.316C305.794 65.391 307.419 65.96 308.972 66.356C316.272 68.217 326.039 71.525 332.044 65.05C332.928 64.097 333.571 63.038 333.8 61.753C333.994 60.667 333.966 59.731 333.587 58.719C333.583 58.705 333.577 58.69 333.57 58.675Z" fill="#E0E0E0"/>
<path d="M317.44 77.5759C317.435 76.7629 316.796 76.1069 316.014 76.1099C315.231 76.1129 314.602 76.7749 314.607 77.5869C314.612 78.3999 315.251 79.0559 316.033 79.0529C316.816 79.0509 317.446 78.3889 317.44 77.5759ZM326.759 76.0289C325.972 76.0319 325.338 76.6979 325.343 77.5159C325.348 78.3339 325.991 78.9949 326.778 78.9919C327.566 78.9889 328.2 78.3229 328.195 77.5049C328.19 76.6869 327.547 76.0259 326.759 76.0289ZM314.63 72.4709C313.76 72.7469 313.261 73.6999 313.517 74.5989L316.669 73.5989C316.414 72.6999 315.501 72.1949 314.63 72.4709ZM328.13 72.5319C327.269 72.2069 326.332 72.658 326.037 73.538L329.155 74.7129C329.451 73.8329 328.991 72.8559 328.13 72.5319ZM321.801 84.1129L326.138 83.3809L321.614 76.0429L321.801 84.1129ZM318.396 88.4619C319.498 88.7969 320.646 88.1419 320.96 87.0009L316.97 85.7889C316.655 86.9309 317.294 88.1279 318.396 88.4619Z" fill="#E0E0E0"/>
<path opacity="0.1" d="M317.44 77.5759C317.435 76.7629 316.796 76.1069 316.014 76.1099C315.231 76.1129 314.602 76.7749 314.607 77.5869C314.612 78.3999 315.251 79.0559 316.033 79.0529C316.816 79.0509 317.446 78.3889 317.44 77.5759ZM326.759 76.0289C325.972 76.0319 325.338 76.6979 325.343 77.5159C325.348 78.3339 325.991 78.9949 326.778 78.9919C327.566 78.9889 328.2 78.3229 328.195 77.5049C328.19 76.6869 327.547 76.0259 326.759 76.0289ZM314.63 72.4709C313.76 72.7469 313.261 73.6999 313.517 74.5989L316.669 73.5989C316.414 72.6999 315.501 72.1949 314.63 72.4709ZM328.13 72.5319C327.269 72.2069 326.332 72.658 326.037 73.538L329.155 74.7129C329.451 73.8329 328.991 72.8559 328.13 72.5319ZM318.396 88.4619C319.498 88.7969 320.646 88.1419 320.96 87.0009L316.97 85.7889C316.655 86.9309 317.294 88.1279 318.396 88.4619Z" fill="black"/>
<path d="M270.407 139.261C269.415 143.711 270.398 145.357 274.753 155.419C276.9 160.001 281.934 169.198 283.88 172.454C286.513 176.858 287.23 178.142 289.614 180.013C292.291 180.644 298.422 176.227 298.549 172.374C297.036 171.499 296.059 170.002 296.059 170.002C297.488 170.754 300.397 171.439 301.28 171.462C303.27 171.514 303.76 170.376 303.76 169.747C303.76 169.023 302.819 168.95 301.071 168.015C299.572 167.213 298.543 166.136 296.128 164.842C294.473 163.955 293.848 164.039 292.719 162.841C290.94 160.953 289.517 157.229 287.792 152.212C285.928 146.79 284.808 142.097 284.808 142.097L293.921 119.47C293.921 119.47 297.245 107.081 293.853 98.874C286.906 99.51 283.602 101.754 280.584 109.018C278.41 114.254 270.936 135.709 270.407 139.261Z" fill="#F0F0F0"/>
<path d="M112.727 101.694C112.327 100.17 112.525 98.5289 111.76 97.1019C111.085 95.8419 109.76 94.6289 108.681 93.7039C107.514 92.7029 106.172 91.8279 104.612 91.5769C103.1 91.3339 101.88 91.8899 100.498 92.1499C99.826 85.9519 87.362 83.8169 85.938 90.4419C83.176 89.4639 80.204 90.7379 79.691 93.8499C77.451 92.5479 76.117 91.1959 73.286 91.4549C70.67 91.6929 68.964 93.2629 68.33 95.7909C65.612 94.0899 63.116 92.7629 59.867 92.5019C57.035 92.2739 54.675 93.9079 52.575 95.7149C50.8 97.2429 49.284 99.0699 48.417 101.269C48.131 101.994 46.753 107.127 47.927 107.516C43.972 106.206 39.248 107.749 36.829 111.141C34.41 114.534 34.49 119.503 37.018 122.815C33.001 122.522 28.675 123.92 26.301 127.173C23.926 130.426 24.207 135.616 27.466 137.982C28.715 138.889 30.545 139.949 30.025 141.403C29.772 142.11 29.027 142.488 28.483 143.005C26.134 145.236 27.931 149.13 29.806 151.772C26.284 151.151 22.634 150.533 19.168 151.414C15.702 152.295 12.456 155.108 12.272 158.68C12.22 159.694 12.411 160.703 12.602 161.701C13.183 164.737 13.79 167.845 15.383 170.495C16.539 172.419 18.582 174.169 20.791 173.77C20.478 176.669 22.815 179.325 25.537 180.369C32.36 182.986 38.607 177.76 45.721 179.542C52 181.114 57.911 186.668 64.017 184.52C67.82 183.182 71.742 179.019 75.017 181.371C76.514 182.447 76.94 184.485 78.131 185.892C82.956 191.594 91.535 182.88 96.136 186.981C98.123 188.752 97.886 191.925 96.367 193.968C93.356 198.019 89.408 195.501 85.505 194.563C80.089 193.262 73.966 196.822 72.417 202.172C74.289 195.706 53.129 191.157 52.674 202.495C49.145 202.1 45.537 202.426 42.136 203.448C39.9 204.12 37.348 205.772 37.733 208.075C33.579 208.418 29.579 210.372 26.756 213.438C24.39 216.008 22.898 220.072 24.887 222.945C25.963 224.5 27.954 225.56 28.204 227.435C24.939 229.25 23.168 233.397 24.115 237.011C24.296 237.702 24.544 238.51 24.104 239.073C23.734 239.546 23.053 239.603 22.453 239.635C20.238 239.751 17.959 240.077 16.064 241.23C14.168 242.382 12.738 244.53 13.005 246.732C13.273 248.934 15.673 250.799 17.758 250.044C16.538 251.349 15.284 252.71 14.709 254.402C14.134 256.094 14.432 258.221 15.881 259.267C17.475 260.418 19.707 259.861 21.492 259.039C24.611 257.603 27.415 255.484 29.647 252.874C30.198 252.23 30.79 251.511 31.625 251.366C32.971 251.132 34.057 252.528 34.385 253.854C34.713 255.18 34.655 256.638 35.356 257.811C36.657 259.988 39.926 260.037 42.164 258.843C44.401 257.649 46.044 255.594 48.104 254.115C48.566 253.783 49.163 253.47 49.677 253.714C50.205 253.964 50.327 254.638 50.505 255.194C51.218 257.417 53.759 258.654 56.091 258.542C58.423 258.43 60.566 257.259 62.513 255.971C63.293 255.455 64.199 254.889 65.098 255.147C66.157 255.451 66.571 256.687 67.211 257.585C68.556 259.472 71.249 259.978 73.491 259.393C75.733 258.808 77.632 257.353 79.452 255.918C79.974 254.609 80.495 253.3 81.017 251.991C81.402 253.707 84.342 255.226 85.906 255.707C88.293 256.441 92.038 256.409 94.356 255.471C97.707 254.114 100.308 250.14 101.3 246.739C103.423 247.458 104.558 249.615 107.125 247.451C109.476 245.47 108.41 243.461 108.744 240.945C111.085 241.137 113.178 242.886 115.537 241.553C117.971 240.178 117.609 237.083 116.894 234.821C120.971 237.637 127.887 236.504 129.118 231.166C131.365 232.039 132.749 234.143 135.797 234.082C137.422 234.05 139.934 233.318 141.136 232.096C142.01 231.208 142.06 229.812 143.234 229.223C144.019 231.038 146.983 231.533 148.692 231.012C151.544 230.142 152.037 227.766 152.858 225.578C152.625 226.198 155.291 228.832 155.921 229.196C157.62 230.176 160.615 230.076 162.46 229.679C164.975 229.138 166.618 227.128 168.714 225.926C169.637 228.104 171.189 230.964 173.813 231.149C176.488 231.337 179.312 228.943 181.991 230.079C184.469 231.132 184.832 233.624 188.111 233.198C192.604 232.614 194.482 230.048 195.648 226.097C198.293 227.078 201.851 228.706 204.756 227.356C208.438 225.645 208.212 222.258 208.243 218.903C210.344 219.633 215.457 219.646 216.243 217.121C217.184 214.097 214.291 211.192 212.499 209.345C213.595 208.358 215.157 207.957 215.634 206.338C216.02 205.029 215.418 203.226 214.719 202.154C213.043 199.585 210.341 199.508 208.056 198.344C212.247 197.655 212.101 193.418 209.426 191.126C211.504 191.001 214.117 191.488 215.798 189.923C217.188 188.629 216.744 187.23 216.827 185.461C218.735 186.365 221.65 186.744 223.625 185.731C225.512 184.763 225.691 183.112 226.522 181.431C229.606 185.24 237.495 186.578 238.525 180.776C241.894 188.278 250.425 188.742 256.04 183.388C256.506 186.666 258.766 188.691 262.149 189.126C267.332 189.793 272.769 188.381 273.239 182.334C278.288 186.209 287.163 185.005 284.496 176.706C288.984 177.928 293.178 176.436 293.247 171.288C293.291 167.951 291.866 166.073 288.406 165.966C288.522 165.064 289.82 164.566 290.351 163.638C291.378 161.845 291.197 159.424 289.779 157.963C288.566 156.712 284.67 156.922 284.108 155.965C283.833 155.497 284.773 153.624 284.704 152.933C284.571 151.591 283.649 150.21 282.538 149.348C280.629 147.866 277.895 148.547 275.554 148.474C276.224 144.938 276.298 139.302 270.915 139.734C273.762 139.814 276.296 141.792 279.336 141.717C282.094 141.649 284.375 140.165 285.583 137.779C286.954 140.213 288.833 141.857 291.751 142.078C295.848 142.388 298.279 139.508 299.065 136.184C299.358 138.463 302.553 139.57 304.552 139.342C307.229 139.036 309.956 135.448 309.795 132.738C312.037 133.612 314.777 134.847 317.144 133.597C320.42 131.867 320.479 127.33 319.861 124.217C322.638 125.561 323.672 120.542 322.807 118.705C320.745 114.326 314.682 113.89 310.574 113.87C309.945 111.238 309.724 109.332 306.887 107.976C305.576 107.349 303.611 106.965 302.157 107.181C301.008 107.352 299.979 108.474 298.918 108.617C297.433 108.818 297.758 108.27 296.184 107.246C294.538 106.175 291.593 105.773 289.681 106.186C288.678 106.403 283.722 109.041 283.716 110.002C283.74 106.331 282.777 99.9479 277.848 100.733C285.918 97.5889 284.224 88.4489 275.361 88.9099C273.931 81.0039 262.908 78.6079 257.407 84.5289C254.788 82.0149 253.867 79.5759 249.761 79.3379C245.772 79.1079 240.09 80.8389 237.294 83.0349C236.82 77.8009 235.61 74.3119 229.868 74.4019C229.627 69.6789 230.207 64.0799 226.068 60.7459C221.736 57.2569 214.721 57.8099 210.637 60.7529C208.934 57.9369 207.401 54.5639 204.723 52.5089C202.241 50.6039 199.263 49.9879 196.246 50.0179C194.907 50.0309 193.027 50.1019 191.746 50.5269C191.144 50.7259 189.045 52.5089 188.612 52.4119C187.366 52.1349 187.262 50.4389 186.675 49.3489C185.38 46.9439 184.121 45.5919 181.846 44.1519C177.611 41.4699 173.121 40.9789 168.921 44.0709C167.056 38.3989 161.488 29.0869 154.188 33.5769C153.35 34.0929 151.536 36.9369 150.403 36.8189C149.819 36.7579 148.806 35.3319 148.304 34.9609C147.1 34.0709 145.834 33.4139 144.379 33.0329C142.003 32.4099 138.454 32.1799 136.279 33.5819C135.062 34.3659 134.221 36.8629 132.97 37.2199C131.579 37.6159 129.075 35.7769 127.59 35.4259C124.233 34.6329 120.75 34.5839 117.901 36.7529C116.788 37.5999 115.306 41.0659 114.155 41.3719C113.567 41.5279 112.379 40.6599 111.811 40.4769C109.892 39.8569 107.682 39.5419 105.683 39.3819C102.943 39.1629 99.943 39.1949 97.674 40.9399C96.338 41.9679 95.205 45.2019 93.982 45.7929C93.067 46.2359 89.57 45.0369 88.402 45.0759C85.408 45.1749 83.817 46.3959 81.959 48.7219C80.459 50.5999 79.404 53.0889 77.187 54.2749C74.733 55.5879 71.744 54.6929 69.113 54.7199C66.27 54.7499 63.164 55.1529 62.511 58.4929C62.047 60.8669 63.533 61.6759 64.787 62.9849C62.005 65.0199 66.053 67.7839 67.701 68.5149C71.156 70.0469 74.497 70.6049 77.851 68.9689C79.957 74.4419 90.947 73.8259 93.933 69.7109C93.775 77.4039 103.146 77.6529 108.455 75.2349C104.593 81.3869 114.412 84.9039 118.94 83.8199C117.081 84.7149 117.539 87.7799 118.455 89.5889C119.241 91.1409 120.471 92.3029 121.913 93.2419C123.192 94.0749 125.025 94.6429 126.056 95.7499C124.422 96.5569 123.348 97.3279 122.488 99.3459C121.804 100.951 121.486 101.88 121.728 103.614C121.623 102.859 118.792 100.908 118.065 100.713C116.542 100.301 113.915 100.57 112.727 101.694Z" fill="#FFA71E"/>
<path opacity="0.5" d="M112.727 101.694C112.327 100.17 112.525 98.5289 111.76 97.1019C111.085 95.8419 109.76 94.6289 108.681 93.7039C107.514 92.7029 106.172 91.8279 104.612 91.5769C103.1 91.3339 101.88 91.8899 100.498 92.1499C99.826 85.9519 87.362 83.8169 85.938 90.4419C83.176 89.4639 80.204 90.7379 79.691 93.8499C77.451 92.5479 76.117 91.1959 73.286 91.4549C70.67 91.6929 68.964 93.2629 68.33 95.7909C65.612 94.0899 63.116 92.7629 59.867 92.5019C57.035 92.2739 54.675 93.9079 52.575 95.7149C50.8 97.2429 49.284 99.0699 48.417 101.269C48.131 101.994 46.753 107.127 47.927 107.516C43.972 106.206 39.248 107.749 36.829 111.141C34.41 114.534 34.49 119.503 37.018 122.815C33.001 122.522 28.675 123.92 26.301 127.173C23.926 130.426 24.207 135.616 27.466 137.982C28.715 138.889 30.545 139.949 30.025 141.403C29.772 142.11 29.027 142.488 28.483 143.005C26.134 145.236 27.931 149.13 29.806 151.772C26.284 151.151 22.634 150.533 19.168 151.414C15.702 152.295 12.456 155.108 12.272 158.68C12.22 159.694 12.411 160.703 12.602 161.701C13.183 164.737 13.79 167.845 15.383 170.495C16.539 172.419 18.582 174.169 20.791 173.77C20.478 176.669 22.815 179.325 25.537 180.369C32.36 182.986 38.607 177.76 45.721 179.542C52 181.114 57.911 186.668 64.017 184.52C67.82 183.182 71.742 179.019 75.017 181.371C76.514 182.447 76.94 184.485 78.131 185.892C82.956 191.594 91.535 182.88 96.136 186.981C98.123 188.752 97.886 191.925 96.367 193.968C93.356 198.019 89.408 195.501 85.505 194.563C80.089 193.262 73.966 196.822 72.417 202.172C74.289 195.706 53.129 191.157 52.674 202.495C49.145 202.1 45.537 202.426 42.136 203.448C39.9 204.12 37.348 205.772 37.733 208.075C33.579 208.418 29.579 210.372 26.756 213.438C24.39 216.008 22.898 220.072 24.887 222.945C25.963 224.5 27.954 225.56 28.204 227.435C24.939 229.25 23.168 233.397 24.115 237.011C24.296 237.702 24.544 238.51 24.104 239.073C23.734 239.546 23.053 239.603 22.453 239.635C20.238 239.751 17.959 240.077 16.064 241.23C14.168 242.382 12.738 244.53 13.005 246.732C13.273 248.934 15.673 250.799 17.758 250.044C16.538 251.349 15.284 252.71 14.709 254.402C14.134 256.094 14.432 258.221 15.881 259.267C17.475 260.418 19.707 259.861 21.492 259.039C24.611 257.603 27.415 255.484 29.647 252.874C30.198 252.23 30.79 251.511 31.625 251.366C32.971 251.132 34.057 252.528 34.385 253.854C34.713 255.18 34.655 256.638 35.356 257.811C36.657 259.988 39.926 260.037 42.164 258.843C44.401 257.649 46.044 255.594 48.104 254.115C48.566 253.783 49.163 253.47 49.677 253.714C50.205 253.964 50.327 254.638 50.505 255.194C51.218 257.417 53.759 258.654 56.091 258.542C58.423 258.43 60.566 257.259 62.513 255.971C63.293 255.455 64.199 254.889 65.098 255.147C66.157 255.451 66.571 256.687 67.211 257.585C68.556 259.472 71.249 259.978 73.491 259.393C75.733 258.808 77.632 257.353 79.452 255.918C79.974 254.609 80.495 253.3 81.017 251.991C81.402 253.707 84.342 255.226 85.906 255.707C88.293 256.441 92.038 256.409 94.356 255.471C97.707 254.114 100.308 250.14 101.3 246.739C103.423 247.458 104.558 249.615 107.125 247.451C109.476 245.47 108.41 243.461 108.744 240.945C111.085 241.137 113.178 242.886 115.537 241.553C117.971 240.178 117.609 237.083 116.894 234.821C120.971 237.637 127.887 236.504 129.118 231.166C131.365 232.039 132.749 234.143 135.797 234.082C137.422 234.05 139.934 233.318 141.136 232.096C142.01 231.208 142.06 229.812 143.234 229.223C144.019 231.038 146.983 231.533 148.692 231.012C151.544 230.142 152.037 227.766 152.858 225.578C152.625 226.198 155.291 228.832 155.921 229.196C157.62 230.176 160.615 230.076 162.46 229.679C164.975 229.138 166.618 227.128 168.714 225.926C169.637 228.104 171.189 230.964 173.813 231.149C176.488 231.337 179.312 228.943 181.991 230.079C184.469 231.132 184.832 233.624 188.111 233.198C192.604 232.614 194.482 230.048 195.648 226.097C198.293 227.078 201.851 228.706 204.756 227.356C208.438 225.645 208.212 222.258 208.243 218.903C210.344 219.633 215.457 219.646 216.243 217.121C217.184 214.097 214.291 211.192 212.499 209.345C213.595 208.358 215.157 207.957 215.634 206.338C216.02 205.029 215.418 203.226 214.719 202.154C213.043 199.585 210.341 199.508 208.056 198.344C212.247 197.655 212.101 193.418 209.426 191.126C211.504 191.001 214.117 191.488 215.798 189.923C217.188 188.629 216.744 187.23 216.827 185.461C218.735 186.365 221.65 186.744 223.625 185.731C225.512 184.763 225.691 183.112 226.522 181.431C229.606 185.24 237.495 186.578 238.525 180.776C241.894 188.278 250.425 188.742 256.04 183.388C256.506 186.666 258.766 188.691 262.149 189.126C267.332 189.793 272.769 188.381 273.239 182.334C278.288 186.209 287.163 185.005 284.496 176.706C288.984 177.928 293.178 176.436 293.247 171.288C293.291 167.951 291.866 166.073 288.406 165.966C288.522 165.064 289.82 164.566 290.351 163.638C291.378 161.845 291.197 159.424 289.779 157.963C288.566 156.712 284.67 156.922 284.108 155.965C283.833 155.497 284.773 153.624 284.704 152.933C284.571 151.591 283.649 150.21 282.538 149.348C280.629 147.866 277.895 148.547 275.554 148.474C276.224 144.938 276.298 139.302 270.915 139.734C273.762 139.814 276.296 141.792 279.336 141.717C282.094 141.649 284.375 140.165 285.583 137.779C286.954 140.213 288.833 141.857 291.751 142.078C295.848 142.388 298.279 139.508 299.065 136.184C299.358 138.463 302.553 139.57 304.552 139.342C307.229 139.036 309.956 135.448 309.795 132.738C312.037 133.612 314.777 134.847 317.144 133.597C320.42 131.867 320.479 127.33 319.861 124.217C322.638 125.561 323.672 120.542 322.807 118.705C320.745 114.326 314.682 113.89 310.574 113.87C309.945 111.238 309.724 109.332 306.887 107.976C305.576 107.349 303.611 106.965 302.157 107.181C301.008 107.352 299.979 108.474 298.918 108.617C297.433 108.818 297.758 108.27 296.184 107.246C294.538 106.175 291.593 105.773 289.681 106.186C288.678 106.403 283.722 109.041 283.716 110.002C283.74 106.331 282.777 99.9479 277.848 100.733C285.918 97.5889 284.224 88.4489 275.361 88.9099C273.931 81.0039 262.908 78.6079 257.407 84.5289C254.788 82.0149 253.867 79.5759 249.761 79.3379C245.772 79.1079 240.09 80.8389 237.294 83.0349C236.82 77.8009 235.61 74.3119 229.868 74.4019C229.627 69.6789 230.207 64.0799 226.068 60.7459C221.736 57.2569 214.721 57.8099 210.637 60.7529C208.934 57.9369 207.401 54.5639 204.723 52.5089C202.241 50.6039 199.263 49.9879 196.246 50.0179C194.907 50.0309 193.027 50.1019 191.746 50.5269C191.144 50.7259 189.045 52.5089 188.612 52.4119C187.366 52.1349 187.262 50.4389 186.675 49.3489C185.38 46.9439 184.121 45.5919 181.846 44.1519C177.611 41.4699 173.121 40.9789 168.921 44.0709C167.056 38.3989 161.488 29.0869 154.188 33.5769C153.35 34.0929 151.536 36.9369 150.403 36.8189C149.819 36.7579 148.806 35.3319 148.304 34.9609C147.1 34.0709 145.834 33.4139 144.379 33.0329C142.003 32.4099 138.454 32.1799 136.279 33.5819C135.062 34.3659 134.221 36.8629 132.97 37.2199C131.579 37.6159 129.075 35.7769 127.59 35.4259C124.233 34.6329 120.75 34.5839 117.901 36.7529C116.788 37.5999 115.306 41.0659 114.155 41.3719C113.567 41.5279 112.379 40.6599 111.811 40.4769C109.892 39.8569 107.682 39.5419 105.683 39.3819C102.943 39.1629 99.943 39.1949 97.674 40.9399C96.338 41.9679 95.205 45.2019 93.982 45.7929C93.067 46.2359 89.57 45.0369 88.402 45.0759C85.408 45.1749 83.817 46.3959 81.959 48.7219C80.459 50.5999 79.404 53.0889 77.187 54.2749C74.733 55.5879 71.744 54.6929 69.113 54.7199C66.27 54.7499 63.164 55.1529 62.511 58.4929C62.047 60.8669 63.533 61.6759 64.787 62.9849C62.005 65.0199 66.053 67.7839 67.701 68.5149C71.156 70.0469 74.497 70.6049 77.851 68.9689C79.957 74.4419 90.947 73.8259 93.933 69.7109C93.775 77.4039 103.146 77.6529 108.455 75.2349C104.593 81.3869 114.412 84.9039 118.94 83.8199C117.081 84.7149 117.539 87.7799 118.455 89.5889C119.241 91.1409 120.471 92.3029 121.913 93.2419C123.192 94.0749 125.025 94.6429 126.056 95.7499C124.422 96.5569 123.348 97.3279 122.488 99.3459C121.804 100.951 121.486 101.88 121.728 103.614C121.623 102.859 118.792 100.908 118.065 100.713C116.542 100.301 113.915 100.57 112.727 101.694Z" fill="white"/>
<path opacity="0.3" d="M27.467 137.982C28.716 138.889 30.546 139.949 30.026 141.403C29.931 141.669 29.754 141.882 29.556 142.08C30.566 142.123 31.531 142.051 32.389 141.834C33.269 141.611 33.806 141.007 34.697 141.25C35.906 141.58 37.067 143.704 37.936 144.475C41.869 147.962 48.018 147.576 49.963 142.516C52.748 143.789 55.563 144.651 58.831 144.392C60.818 144.234 63.119 143.535 64.693 142.256C65.217 141.83 66.236 140.02 66.864 139.852C67.639 139.645 68.855 140.68 69.584 141.043C71.848 142.169 73.695 142.64 76.192 141.908C77.92 141.401 80.12 140.513 79.663 138.41C77.408 140.538 75.824 140.678 73.018 138.907C70.731 137.464 69.884 135.6 69.222 133.106C67.797 134.05 66.425 135.784 64.423 135.325C62.745 134.94 62.736 133.478 61.944 132.408C60.836 134.696 60.666 136.203 58.173 137.502C56.422 138.414 54.611 138.558 52.698 138.23C50.833 137.91 48.337 136.526 48.398 134.338C45.296 139.325 33.611 134.117 37.049 129.63C34.681 132.008 31.049 129.329 30.191 126.78C29.809 125.643 29.813 124.802 30.055 124.117C28.583 124.838 27.274 125.843 26.302 127.175C23.928 130.425 24.208 135.615 27.467 137.982ZM64.789 62.9849C62.007 65.0199 66.055 67.7839 67.703 68.5149C71.158 70.0469 74.499 70.6049 77.854 68.9689C79.96 74.4419 90.949 73.8259 93.936 69.7109C93.778 77.4039 103.149 77.6529 108.458 75.2349C104.596 81.3869 114.415 84.9039 118.943 83.8199C117.084 84.7149 117.542 87.7799 118.459 89.5889C119.245 91.1409 120.474 92.3029 121.917 93.2419C123.196 94.0749 125.029 94.6429 126.06 95.7499C131.628 94.6959 133.944 96.9739 136.12 100.957C136.648 101.924 136.873 102.015 137.821 102.314C138.688 102.587 140.022 102.298 140.937 102.315C143.364 102.358 147.514 103.01 149.111 105.114C147.823 101.783 145.995 100.469 142.854 98.8999C140.033 97.4909 139.826 95.3879 142.21 93.3989C140.041 92.7229 137.284 91.8489 135.639 90.2259C133.504 88.1209 133.764 85.4369 133.628 82.7219C130.866 82.9829 127.782 82.9659 126.029 80.3629C124.262 77.7369 126.021 75.5489 126.388 73.0009C122.53 73.7549 117.218 74.3039 113.737 71.7999C111.468 70.1679 112.366 68.8429 112.477 66.5709C107.456 67.8699 94.522 68.5469 95.556 59.8899C94.702 62.6089 92.1 64.9049 89.086 64.8049C87.729 64.7599 85.429 64.0429 85.819 62.3139C83.857 63.6579 77.13 64.7059 76.479 61.1969C76.128 59.3049 78.072 58.3179 79.54 57.8879C78.37 56.7779 77.408 55.7829 77.239 54.2429C77.221 54.2529 77.207 54.2659 77.189 54.2749C74.735 55.5879 71.746 54.6929 69.115 54.7199C66.272 54.7499 63.166 55.1529 62.513 58.4929C62.049 60.8669 63.535 61.6759 64.789 62.9849ZM20.792 173.768C20.479 176.667 22.816 179.323 25.538 180.367C32.361 182.984 38.608 177.758 45.723 179.54C52.001 181.112 57.913 186.666 64.019 184.518C67.822 183.18 71.744 179.017 75.019 181.369C76.516 182.445 76.942 184.483 78.133 185.89C82.958 191.592 91.537 182.878 96.138 186.979C97.382 188.088 97.754 189.745 97.485 191.332C100.255 190.03 101.691 186.833 104.882 186.295C102.376 186.398 98.955 185.622 97.411 183.133C96.792 182.136 96.359 180.823 97.444 179.957C95.715 180.128 94.135 181.292 92.516 181.866C91.241 182.318 87.896 183.024 86.573 182.372C84.791 181.493 86.497 179.729 87.429 178.627C85.843 178.419 84.258 179.167 82.635 179.091C80.883 179.008 78.784 178.553 77.363 177.448C76.02 176.404 74.609 174.538 74.564 172.789C73.662 173.075 66.695 178.018 66.663 174.888C64.192 177.531 61.328 179.219 57.582 177.725C55.675 176.965 54.05 174.666 53.839 172.625C51.24 173.789 43.304 175.994 43.915 170.444C40.086 172.492 35.257 176.698 30.487 173.902C27.926 172.401 29.167 169.519 29.866 167.493C27.572 167.913 22.998 169.515 21.809 166.409C21.186 164.781 22.445 163.401 23.22 162.201C20.069 162.186 16.552 162.06 15.541 158.412C15.035 156.589 15.827 153.294 17.591 151.962C14.775 153.188 12.429 155.661 12.273 158.681C12.221 159.695 12.412 160.704 12.603 161.702C13.184 164.738 13.791 167.846 15.384 170.496C16.541 172.417 18.584 174.167 20.792 173.768ZM323.034 119.471C322.978 119.587 322.916 119.703 322.823 119.815C321.939 120.886 318.682 120.863 317.639 120.094C317.5 122.09 318.519 124.078 316.722 125.729C314.14 128.101 310.034 126.232 307.48 124.927C307.131 126.748 306.794 129.327 305.187 130.526C302.368 132.63 299.21 129.463 296.737 128.457C296.78 130.384 296.088 132.003 294.018 132.532C290.067 133.542 288.686 130.539 285.975 128.784C284.444 129.996 284.532 131.672 282.057 132.037C279.555 132.406 277.546 130.862 275.899 129.213C274.875 128.188 273.966 126.263 272.761 125.59C271.795 127.301 270.299 129.378 268.42 130.165C263.512 132.219 260.145 127.771 256.479 125.822C256.096 127.493 254.369 128.584 252.615 128.437C249.382 128.166 249.054 124.333 246.635 123.639C245.363 125.347 244.056 126.445 241.974 127.103C237.914 128.386 235.712 125.952 232.483 123.977C231.4 130.895 238.95 134.856 244.78 132.219C244.355 135.03 244.285 138.532 247.636 139.454C250.983 140.375 256.474 139.388 258.555 136.506C258.657 142.427 268.615 142.468 271.171 137.938C272.12 138.892 273.082 139.7 274.072 140.43C275.763 141.02 277.452 141.762 279.337 141.715C282.095 141.647 284.376 140.163 285.584 137.777C286.955 140.211 288.834 141.855 291.752 142.076C295.849 142.386 298.28 139.506 299.066 136.182C299.359 138.461 302.554 139.568 304.553 139.34C307.23 139.034 309.957 135.446 309.796 132.736C312.038 133.61 314.778 134.845 317.145 133.595C320.421 131.865 320.48 127.328 319.862 124.215C322.312 125.4 323.404 121.636 323.034 119.471ZM280.966 172.065C280.84 175.12 279.869 178.239 276.056 177.242C273.996 176.703 272.865 174.73 271.235 173.796C271.343 178.135 268.118 182.945 263.334 180.625C261.096 179.54 260.701 177.112 259.271 175.488C255.74 177.618 253.046 178.207 249.069 176.214C246.745 175.049 244.354 173.86 244.407 170.95C241.306 174.042 237.68 177.067 232.795 175.383C229.356 174.197 229.501 171.734 229.391 168.672C225.591 170.724 220.796 172.02 216.934 169.321C214.797 167.827 214.516 166.065 213.67 163.825C209.114 166.083 205.137 165.723 202.111 161.282C200.495 158.91 199.92 151.634 204.175 151.413C199.775 151.416 195.347 149.859 198.55 144.613C200.789 140.946 204.886 138.856 209.004 138.332C202.617 134.994 210.129 128.9 213.268 127.094L212.605 126.21C208.098 129.039 203.012 131.469 198.894 134.844C196.897 136.481 195.495 138.75 193.483 140.358C189.682 143.396 185.944 146.111 182.537 149.667C178.775 153.593 175.436 158.572 172.108 162.904C169.988 165.665 167.226 168.255 165.543 171.299C163.343 175.277 160.969 178.915 158.824 182.923C157.745 184.939 157.219 186.616 156.302 189.988C155.946 191.299 155.35 193.52 155.313 194.924C157.116 192.782 158.842 191.087 160.974 189.257C163.682 186.932 161.682 185.19 163.372 182.672C164.957 180.312 168.513 180.112 170.998 180.798C171.029 176.166 173.79 169.485 178.908 169.084C182.045 168.839 184.205 169.429 185.405 171.898C187.018 169.402 191.91 169.389 193.837 171.321C195.696 173.184 195.735 175.953 196.062 178.392C198.01 176.144 199.99 174.418 202.955 174.819C206.622 175.315 207.643 177.959 209.055 180.752C213.366 175.929 216.003 181.215 216.565 185.567C216.617 185.972 216.709 186.355 216.825 186.724C216.817 186.323 216.805 185.902 216.825 185.458C218.733 186.362 221.648 186.741 223.623 185.728C225.51 184.76 225.689 183.109 226.52 181.428C229.604 185.237 237.492 186.575 238.523 180.773C241.892 188.275 250.423 188.739 256.038 183.385C256.504 186.662 258.765 188.688 262.147 189.123C267.33 189.79 272.768 188.378 273.237 182.331C278.286 186.206 287.161 185.002 284.494 176.703C288.554 177.809 292.364 176.682 293.105 172.646C292.14 173.038 291.017 173.282 289.697 173.333C286.721 173.447 283.792 171.887 280.966 172.065ZM210.654 214.944C207.951 214.674 204.942 214.064 202.869 212.193C205.912 218.868 196.124 223.408 192.269 218.004C192.881 222.561 185.953 224.257 182.693 222.758C180.18 221.602 179.495 219.451 179.443 216.977C176.323 218.798 171.464 218.095 170.294 214.437C169.249 211.17 172.286 209.041 174.477 207.377C172.422 207.106 170.927 205.811 171.092 203.69C171.296 201.069 173.991 198.988 174.115 196.758C171.024 198.567 168.305 202.361 164.068 202.237C165.961 206.704 150.035 213.013 152.203 202.631C152.458 201.41 153.329 200.014 153.245 198.807C149.067 200.399 143.006 200.38 141.645 195.137C141.338 199.147 137.791 204.771 133.348 204.457C131.345 204.316 129.669 203.284 128.928 201.363C128.676 203.033 126.07 205.54 124.441 206.042C122.584 206.615 120.317 205.828 118.541 205.303C119.655 209.162 120.907 213.458 117.736 216.727C115.163 219.378 112.858 218.209 109.659 218.48C110.607 221.927 110.436 228.538 106.108 229.517C103.054 230.207 100.03 228.873 97.165 228.066C98.833 231.262 96.56 237.369 92.245 235.251C93.908 237.159 95.273 237.568 94.261 240.543C92.718 245.074 86.164 244.268 83.458 241.369C82.697 242.365 82.765 243.845 81.852 244.965C79.897 247.364 76.942 248.085 73.999 248.072C70.865 248.059 68.264 247.016 66.823 244.152C63.251 247.976 59.045 249.621 53.687 248.297C51.209 247.685 48.656 245.799 47.924 243.439C46.51 248.89 34.501 250.891 34.665 243.802C32.886 246.237 29.318 248.898 26.127 248.942C23.325 248.981 24.103 246.623 25.919 245.485C23.191 246.672 19.593 247.264 17.407 244.535C16.617 243.55 16.4 242.079 16.752 240.855C16.518 240.969 16.288 241.092 16.065 241.228C14.169 242.38 12.738 244.528 13.006 246.73C13.274 248.932 15.674 250.797 17.759 250.042C16.539 251.347 15.285 252.708 14.71 254.4C14.136 256.092 14.433 258.219 15.882 259.265C17.476 260.416 19.708 259.859 21.493 259.037C24.612 257.601 27.416 255.482 29.648 252.872C30.199 252.228 30.791 251.509 31.626 251.364C32.972 251.13 34.058 252.526 34.386 253.852C34.714 255.178 34.656 256.636 35.357 257.809C36.658 259.986 39.927 260.035 42.165 258.841C44.402 257.647 46.045 255.592 48.106 254.113C48.568 253.781 49.164 253.468 49.678 253.712C50.206 253.962 50.328 254.636 50.506 255.192C51.22 257.415 53.76 258.652 56.092 258.54C58.424 258.428 60.567 257.257 62.514 255.969C63.294 255.453 64.2 254.887 65.099 255.145C66.159 255.449 66.573 256.685 67.212 257.583C68.557 259.47 71.25 259.976 73.492 259.391C75.734 258.806 77.633 257.351 79.453 255.916C79.975 254.607 80.496 253.298 81.018 251.989C81.403 253.705 84.343 255.224 85.907 255.705C88.294 256.439 92.039 256.407 94.357 255.469C97.708 254.112 100.309 250.138 101.301 246.737C103.424 247.456 104.559 249.613 107.126 247.449C109.477 245.468 108.411 243.459 108.746 240.943C111.087 241.135 113.18 242.884 115.539 241.551C117.973 240.176 117.611 237.081 116.896 234.819C120.973 237.635 127.889 236.502 129.12 231.164C131.367 232.037 132.751 234.141 135.799 234.08C137.424 234.047 139.936 233.316 141.139 232.094C142.013 231.206 142.063 229.81 143.237 229.221C144.022 231.036 146.987 231.531 148.695 231.01C151.547 230.14 152.04 227.764 152.861 225.576C152.628 226.196 155.294 228.83 155.924 229.194C157.623 230.174 160.618 230.074 162.463 229.677C164.978 229.136 166.621 227.126 168.717 225.924C169.64 228.102 171.192 230.962 173.816 231.147C176.491 231.335 179.316 228.941 181.994 230.078C184.472 231.131 184.835 233.623 188.114 233.197C192.607 232.613 194.485 230.047 195.651 226.096C198.296 227.077 201.855 228.705 204.759 227.355C208.441 225.644 208.215 222.257 208.246 218.902C210.347 219.632 215.46 219.645 216.246 217.12C216.577 216.057 216.428 215.009 216.025 214.016C214.637 214.813 212.893 215.168 210.654 214.944Z" fill="#FFA71E"/>
<path d="M227.058 114.081C218.489 121.679 208.005 126.51 198.233 132.301C194.08 134.762 190.087 137.38 185.955 139.803C183.375 141.316 179.637 143.129 179.703 138.469C179.806 131.247 186.298 124.894 186.587 117.996C184.533 120.087 183.098 123.704 181.739 126.37C179.534 130.693 177.228 134.902 175.412 139.413C173.016 145.365 171.958 151.851 168.895 157.535C165.769 163.336 161.004 168.336 157.562 174.013C148.41 189.109 142.433 205.691 138.095 222.736C136.981 214.852 132.735 208.077 131.197 200.321C129.598 192.26 129.391 184.103 127.276 176.103C125.095 167.848 121.795 160.015 117.334 152.745C116.569 151.5 115.641 153.46 116.012 154.281C119.403 161.76 122.038 169.521 123.244 177.665C123.872 181.905 124.582 186.001 124.582 190.287C124.582 191.866 124.771 193.436 124.68 195.004C121.504 192.372 118.255 189.669 115.991 186.173C114.159 183.344 113.261 177.72 109.582 176.529C110.918 178.815 111.468 181.592 112.062 184.199C112.965 188.164 114.753 190.812 116.989 194.206C121.993 201.802 127.801 209.599 130.014 218.536C131.699 225.34 131.977 232.714 132.881 239.665C133.484 244.307 132.938 248.084 132.548 252.616C132.654 251.383 129.386 248.025 128.597 247.064C126.953 245.063 124.592 243.691 122.59 242.087C118.207 238.576 113.022 235.903 108.028 233.253C102 230.054 95.245 228.115 90.59 222.781C88.564 220.459 86.866 217.49 83.724 216.562C86.279 217.956 87.452 220.686 88.791 223.108C90.601 226.381 92.765 229.15 96.028 231.141C99.797 233.44 103.614 235.618 107.25 238.14C110.334 240.279 113.962 241.762 116.749 244.243C119.629 246.807 122.438 248.693 124.596 251.949C125.883 253.891 127.141 255.84 128.178 257.931C131.181 263.984 132.4 270.754 133.18 277.41C133.571 280.746 133.835 284.096 134.034 287.449C136.443 328.17 128.672 403.515 127.87 414.214C127.141 417.004 128.619 419.95 132.34 422.098C138.563 425.691 150.929 426.17 157.151 422.577C160.262 420.781 162.067 418.426 162.067 416.072C162.067 416.072 160.267 353.872 153.627 288.728C152.846 281.062 152.165 273.385 151.668 265.695C151.451 262.333 151.366 258.961 151.138 255.601C150.904 252.158 150.842 234.869 152.035 229.755C154.153 220.676 156.766 212.471 162.487 204.971C166.849 199.253 172.908 197.138 179.681 195.548C183.126 194.739 186.674 194.26 189.829 192.608C192.426 191.248 194.8 189.63 197.125 187.841C199.567 185.962 203.111 182.202 206.249 181.606C203.652 181.607 201.846 182.511 199.55 183.688C197.475 184.752 195.699 186.395 193.658 187.608C191.787 188.72 189.834 189.638 187.755 190.383C183.265 191.993 178.791 192.367 174.092 192.603C169.879 192.814 166.583 193.994 163.03 196.292C159.026 198.882 155.81 203.398 152.804 207.043C152.49 204.012 153.579 200.328 154.411 197.436C156.502 190.168 160.367 183.637 164.093 177.102C168.139 170.008 172.785 163.249 178.073 157.023C185.443 148.347 194.013 140.893 203.444 134.536C212.067 128.722 221.249 124.147 227.568 115.591C227.868 115.19 227.792 113.43 227.058 114.081Z" fill="#FFA71E"/>
<path opacity="0.4" d="M227.058 114.081C218.489 121.679 208.005 126.51 198.233 132.301C194.08 134.762 190.087 137.38 185.955 139.803C183.375 141.316 179.637 143.129 179.703 138.469C179.806 131.247 186.298 124.894 186.587 117.996C184.533 120.087 183.098 123.704 181.739 126.37C179.534 130.693 177.228 134.902 175.412 139.413C173.016 145.365 171.958 151.851 168.895 157.535C165.769 163.336 161.004 168.336 157.562 174.013C148.41 189.109 142.433 205.691 138.095 222.736C136.981 214.852 132.735 208.077 131.197 200.321C129.598 192.26 129.391 184.103 127.276 176.103C125.095 167.848 121.795 160.015 117.334 152.745C116.569 151.5 115.641 153.46 116.012 154.281C119.403 161.76 122.038 169.521 123.244 177.665C123.872 181.905 124.582 186.001 124.582 190.287C124.582 191.866 124.771 193.436 124.68 195.004C121.504 192.372 118.255 189.669 115.991 186.173C114.159 183.344 113.261 177.72 109.582 176.529C110.918 178.815 111.468 181.592 112.062 184.199C112.965 188.164 114.753 190.812 116.989 194.206C121.993 201.802 127.801 209.599 130.014 218.536C131.699 225.34 131.977 232.714 132.881 239.665C133.484 244.307 132.938 248.084 132.548 252.616C132.654 251.383 129.386 248.025 128.597 247.064C126.953 245.063 124.592 243.691 122.59 242.087C118.207 238.576 113.022 235.903 108.028 233.253C102 230.054 95.245 228.115 90.59 222.781C88.564 220.459 86.866 217.49 83.724 216.562C86.279 217.956 87.452 220.686 88.791 223.108C90.601 226.381 92.765 229.15 96.028 231.141C99.797 233.44 103.614 235.618 107.25 238.14C110.334 240.279 113.962 241.762 116.749 244.243C119.629 246.807 122.438 248.693 124.596 251.949C125.883 253.891 127.141 255.84 128.178 257.931C131.181 263.984 132.4 270.754 133.18 277.41C133.571 280.746 133.835 284.096 134.034 287.449C136.443 328.17 128.672 403.515 127.87 414.214C127.141 417.004 128.619 419.95 132.34 422.098C138.563 425.691 150.929 426.17 157.151 422.577C160.262 420.781 162.067 418.426 162.067 416.072C162.067 416.072 160.267 353.872 153.627 288.728C152.846 281.062 152.165 273.385 151.668 265.695C151.451 262.333 151.366 258.961 151.138 255.601C150.904 252.158 150.842 234.869 152.035 229.755C154.153 220.676 156.766 212.471 162.487 204.971C166.849 199.253 172.908 197.138 179.681 195.548C183.126 194.739 186.674 194.26 189.829 192.608C192.426 191.248 194.8 189.63 197.125 187.841C199.567 185.962 203.111 182.202 206.249 181.606C203.652 181.607 201.846 182.511 199.55 183.688C197.475 184.752 195.699 186.395 193.658 187.608C191.787 188.72 189.834 189.638 187.755 190.383C183.265 191.993 178.791 192.367 174.092 192.603C169.879 192.814 166.583 193.994 163.03 196.292C159.026 198.882 155.81 203.398 152.804 207.043C152.49 204.012 153.579 200.328 154.411 197.436C156.502 190.168 160.367 183.637 164.093 177.102C168.139 170.008 172.785 163.249 178.073 157.023C185.443 148.347 194.013 140.893 203.444 134.536C212.067 128.722 221.249 124.147 227.568 115.591C227.868 115.19 227.792 113.43 227.058 114.081Z" fill="black"/>
<path d="M318.09 394.75C318.004 394.803 317.919 394.855 317.833 394.906C315.935 396.049 313.958 397.062 311.92 397.933C310.071 398.724 308.222 399.347 306.576 400.586C298.417 406.725 292.644 408.868 283.928 420.91C283.928 420.91 271.394 411.089 270.226 410.193C270.226 410.193 276.714 406.238 276.343 403.148C276.127 401.351 276.641 399.112 277.826 397.709C278.956 396.372 280.765 395.636 283.323 394.744C285.512 393.981 287.743 393.285 289.795 392.188C290.855 391.621 291.856 390.951 292.788 390.191C295.277 388.16 297.827 386.523 300.895 385.475C303.173 384.697 305.707 384.641 308.092 384.808C309.548 384.91 310.996 385.138 312.412 385.49C313.543 385.771 315.161 386.003 315.897 386.99C316.005 387.134 316.093 387.296 316.227 387.416C316.522 387.681 316.959 387.688 317.355 387.72C318.211 387.791 319.064 388.062 319.742 388.589C320.42 389.116 320.907 389.913 320.965 390.77C321.025 391.68 320.604 392.571 319.998 393.252C319.459 393.86 318.783 394.324 318.09 394.75Z" fill="#F28F8F"/>
<path d="M308.661 399.334C311.622 397.481 311.602 393.098 306.749 392.006C301.896 390.915 298.091 391.588 293.22 394.595C288.349 397.602 286.284 398.399 281.207 400.294C276.13 402.19 276.33 403.762 276.33 403.762C276.33 403.762 275.192 399.778 276.558 397.64C277.662 395.911 278.486 395.665 283.912 393.903C289.338 392.141 291.306 390.919 296.218 387.311C300.133 384.435 306.694 382.679 315.047 385.691C325.56 389.482 320.943 393.285 318.757 394.662C315.074 396.98 308.661 399.334 308.661 399.334Z" fill="#455A64"/>
<path d="M216.293 381.739C221.067 385.088 231.851 389.298 239.881 393.505C253.266 400.518 265.92 407.162 271.779 413.732C276.861 419.43 281.624 430.139 267.375 434.111C259.262 436.372 239.356 433.418 230.38 429.738L209.453 416.846L216.293 381.739Z" fill="#37474F"/>
<path d="M338.887 377.482C338.795 377.523 338.703 377.563 338.611 377.603C336.578 378.484 334.483 379.224 332.348 379.816C330.41 380.353 328.495 380.725 326.698 381.734C317.795 386.733 311.789 388.089 301.547 398.864C301.547 398.864 290.431 387.462 289.393 386.419C289.393 386.419 296.35 383.363 296.393 380.25C296.418 378.44 297.225 376.29 298.586 375.057C299.884 373.882 301.774 373.393 304.429 372.85C306.7 372.385 309.004 371.992 311.183 371.178C312.309 370.757 313.391 370.226 314.415 369.597C317.153 367.915 319.897 366.632 323.077 366.001C325.439 365.533 327.957 365.814 330.299 366.298C331.729 366.593 333.133 367.011 334.49 367.548C335.573 367.977 337.147 368.422 337.744 369.499C337.832 369.657 337.898 369.828 338.015 369.965C338.272 370.267 338.704 370.332 339.092 370.417C339.931 370.601 340.74 370.983 341.342 371.595C341.944 372.207 342.321 373.062 342.263 373.919C342.202 374.829 341.666 375.655 340.975 376.25C340.362 376.781 339.63 377.151 338.887 377.482Z" fill="#FFA8A7"/>
<path d="M328.932 380.77C332.114 379.327 332.677 374.98 328.012 373.253C323.347 371.526 319.487 371.687 314.259 374.019C309.031 376.352 306.879 376.866 301.595 378.069C296.311 379.272 296.3 380.857 296.3 380.857C296.3 380.857 295.702 376.757 297.341 374.819C298.665 373.253 299.515 373.118 305.127 372.093C310.739 371.068 312.853 370.119 318.2 367.197C322.463 364.868 329.199 364 337.077 368.097C346.992 373.253 341.91 376.408 339.56 377.482C335.601 379.291 328.932 380.77 328.932 380.77Z" fill="#455A64"/>
<path d="M273.415 431.312C281.651 425.491 302.92 397.928 302.92 397.928C303.734 394.218 301.559 390.825 298.998 388.398C294.717 384.342 291.169 385.154 291.169 385.154C288.174 387.097 285.233 388.253 277.442 391.935C270.908 395.023 260.562 400.261 256.471 407.41C252.381 414.559 273.415 431.312 273.415 431.312Z" fill="#37474F"/>
<path d="M258.995 403.992C266.544 407.917 269.384 412.01 269.384 412.01C269.384 412.01 266.721 404.721 260.586 402.381C260.066 402.864 259.475 403.416 258.995 403.992Z" fill="#263238"/>
<path d="M160.591 399.961C159.497 419.878 164.226 430.75 177.892 438.64C194.747 448.371 202.657 451.095 213.443 453.939C224.806 456.935 239.506 455.726 245.802 449.59C251.655 443.886 246.716 437.648 245.085 434.102C241.087 425.41 210.729 410.618 210.729 410.618C214.734 399.884 217.059 391.936 215.908 383.196L160.591 399.961Z" fill="#455A64"/>
<path d="M243.205 451.58C250.696 447.14 264.593 434.638 264.593 434.638C261.144 434.576 259.021 432.932 254.572 430.13C249.28 426.797 246.03 425.441 237.944 426.7C237.944 426.7 237.106 455.195 243.205 451.58Z" fill="#455A64"/>
<path d="M237.944 426.701C240.131 428.16 241.402 429.184 243.139 431.46C242.096 428.331 241.157 427.323 238.967 425.758L237.944 426.701Z" fill="#37474F"/>
<path d="M216.8 413.731C209.599 409.573 198.643 409.582 190.188 412.433C192.162 409.063 202.658 406.31 212.604 408.087C212.604 408.087 215.43 410.178 216.8 413.731Z" fill="#37474F"/>
<path d="M165.993 401.422L167.315 401.292C167.558 415.223 171.356 425.257 177.813 431.548C183.167 427.847 182.243 421.677 180.466 417.085C177.709 409.959 177.098 402.711 177.073 402.405L178.396 402.299C178.403 402.372 179.021 409.665 181.706 416.605C184.4 423.572 183.361 429.165 178.811 432.476C179.516 433.115 180.247 433.749 181.037 434.378C188.705 440.485 207.782 452.301 227.36 455.481C224.633 455.558 221.853 455.405 219.139 455.042C202.274 450.431 186.921 440.762 180.21 435.416C171.042 428.116 166.509 419.353 165.993 401.422Z" fill="#37474F"/>
<path d="M170.047 279.456C165.984 279.926 163.668 284.875 163.021 291.986C162.242 300.545 157.838 303.161 156.74 307.894C155.026 315.289 158.041 318.213 162.663 319.817C161.07 315.596 163.342 313.45 163.342 313.45C163.342 313.45 161.951 318.666 165.546 321.18C169.141 323.694 175.372 323.739 178.26 323.216C183.703 322.232 185.636 320.398 185.636 320.398C185.636 320.398 189.259 324.146 196.591 322.877C203.923 321.608 207.771 314.288 204.29 309.221C200.809 304.154 191.412 279.455 191.412 279.455H170.047V279.456Z" fill="#37474F"/>
<path d="M199.277 323.482C208.942 325.005 212.884 324.904 220.476 339.815C225.818 350.307 237.385 372.065 237.385 372.065L222.619 382.767C217.233 373.061 211.4 363.455 202.636 349.224L199.277 323.482Z" fill="#FFA8A7"/>
<path d="M212.555 358.536C218.065 349.89 215.747 343.66 213.858 340.033C210.073 332.766 199.275 323.483 199.275 323.483C199.275 323.483 192.264 321.596 183.452 321.742C177.207 321.846 172.225 322.948 168.887 323.914L162 326.812C165.215 330.81 166.71 338.066 166.472 342.692C165.904 353.7 162.39 356.514 162.39 356.514C162.39 356.514 163.844 368.052 164.544 370.797C165.018 372.66 163.996 377.996 163.007 381.512C161.108 388.266 159.724 396.923 159.51 399.023C159.406 400.046 160.012 401.014 160.986 401.345C180.838 408.107 210.105 396.052 218.741 383.197C218.151 379.862 213.937 374.358 213.202 370.797C212.333 366.598 212.107 364.91 212.555 358.536Z" fill="#37474F"/>
<path d="M196.288 361.567C196.288 361.567 192.05 366.856 182.93 365.332C173.811 363.807 172.019 356.925 172.019 356.925C172.019 356.925 171.474 365.779 182.375 367.561C193.111 369.316 196.288 361.567 196.288 361.567Z" fill="#263238"/>
<path d="M174.534 313.45C174.534 313.45 204.226 298.494 205.918 297.455C207.442 296.518 208.939 295.755 209.888 294.241C211.763 291.247 211.706 288.06 210.731 284.66C210.227 282.902 209.167 281.13 208.086 279.654C205.216 275.732 202.784 273.936 198.232 272.233C190.667 269.403 181.129 269.96 174.663 274.809C168.954 279.091 166.132 285.406 165.994 290.419C165.652 302.888 174.012 309.285 174.534 313.45Z" fill="#37474F"/>
<path d="M202.669 282.99C204.612 284.021 208.249 291.927 206.256 305.334C204.701 315.795 200.6 317.764 198.514 318.255C196.428 318.745 193.33 318.579 190.779 318.07V322.155C187.537 326.264 181.882 326.011 174.071 322.707C173.591 317.755 173.78 312.383 174.456 307.661C174.456 307.661 170.647 309.395 167.974 306.373C165.846 303.966 164.805 299.74 167.062 296.202C168.236 294.362 170.469 293.802 172.163 293.957C174.34 294.157 176.318 295.699 176.477 297.792C176.724 300.085 178.88 300.752 180.147 299.089C181.374 297.478 182.143 294.951 182.109 291.984C189.806 292.854 200.178 289.754 202.669 282.99Z" fill="#FFA8A7"/>
<path d="M193.777 309.862C193.579 310.655 192.777 311.137 191.984 310.94C191.191 310.743 190.709 309.94 190.906 309.147C191.104 308.354 191.698 308.706 192.491 308.903C193.284 309.101 193.974 309.07 193.777 309.862Z" fill="#B16668"/>
<path d="M190.779 318.071C183.31 316.189 177.729 311.969 177.076 308.642C177.076 308.642 176.619 311.784 178.538 314.269C181.238 317.766 190.779 321.181 190.779 321.181V318.071Z" fill="#F28F8F"/>
<path d="M192.024 298.177C192.317 299.129 191.811 300.127 190.894 300.407C189.977 300.686 188.996 300.141 188.703 299.189C188.41 298.237 188.878 297.532 189.795 297.252C190.712 296.972 191.732 297.225 192.024 298.177Z" fill="#263238"/>
<path d="M203.982 299.141C203.844 300.128 202.962 300.817 202.013 300.681C201.064 300.545 200.407 299.635 200.545 298.649C200.684 297.663 201.539 297.321 202.488 297.458C203.437 297.594 204.121 298.155 203.982 299.141Z" fill="#263238"/>
<path d="M195.081 296.616L195.285 306.321L201.132 305.202C200.553 302.828 196.724 297.632 195.081 296.616Z" fill="#F28F8F"/>
<path d="M204.548 295.715L200.902 294.081C201.319 293.049 202.473 292.579 203.48 293.03C204.486 293.481 204.964 294.683 204.548 295.715Z" fill="#263238"/>
<path d="M187.499 295.527L191.288 294.259C190.975 293.191 189.873 292.609 188.826 292.959C187.78 293.31 187.186 294.459 187.499 295.527Z" fill="#263238"/>
<path d="M237.388 354.286C237.388 354.286 237.215 352.693 239.264 351.056C241.312 349.419 244.01 348.064 244.755 344.162L247.722 345.724L243.156 354.127L237.388 354.286Z" fill="#FFA71E"/>
<path opacity="0.75" d="M237.388 354.286C237.388 354.286 237.215 352.693 239.264 351.056C241.312 349.419 244.01 348.064 244.755 344.162L247.722 345.724L243.156 354.127L237.388 354.286Z" fill="white"/>
<path d="M237.388 354.286C237.388 354.286 234.153 352.823 227.268 354.526C220.383 356.228 214.778 358.307 201.43 358.535L204.968 360.398L239.523 357.035L237.388 354.286Z" fill="#FFA71E"/>
<path opacity="0.75" d="M237.388 354.286C237.388 354.286 234.153 352.823 227.268 354.526C220.383 356.228 214.778 358.307 201.43 358.535L204.968 360.398L239.523 357.035L237.388 354.286Z" fill="white"/>
<path d="M201.429 358.534L190.601 398.866L194.139 400.729L204.967 360.398L201.429 358.534Z" fill="#FFA71E"/>
<path opacity="0.8" d="M201.429 358.534L190.601 398.866L194.139 400.729L204.967 360.398L201.429 358.534Z" fill="white"/>
<path opacity="0.1" d="M201.429 358.534L190.601 398.866L194.139 400.729L204.967 360.398L201.429 358.534Z" fill="black"/>
<g opacity="0.1">
<path d="M244.834 346.302C244.546 347.144 244.084 347.929 243.494 348.602C242.909 349.28 242.241 349.877 241.578 350.471C240.914 351.068 240.22 351.624 239.698 352.319C239.434 352.663 239.214 353.037 239.054 353.43C238.902 353.813 238.805 354.263 238.851 354.617L238.432 354.695C238.387 354.159 238.529 353.72 238.711 353.285C238.904 352.861 239.156 352.471 239.448 352.121C240.029 351.411 240.761 350.874 241.44 350.31C242.125 349.744 242.811 349.178 243.415 348.532C244.023 347.889 244.512 347.133 244.834 346.302Z" fill="black"/>
<path d="M244.365 348.571C244.111 349.093 243.731 349.542 243.354 349.978C242.972 350.414 242.578 350.836 242.207 351.275C241.837 351.713 241.488 352.169 241.215 352.66C240.942 353.149 240.752 353.681 240.727 354.219L240.302 354.184C240.37 353.565 240.62 352.994 240.94 352.496C241.261 351.995 241.648 351.553 242.049 351.132C242.45 350.711 242.87 350.314 243.276 349.905C243.678 349.495 244.08 349.075 244.365 348.571Z" fill="black"/>
<path d="M214.777 358.306C216.668 358.064 218.542 357.707 220.393 357.255C222.245 356.809 224.074 356.275 225.913 355.768C227.749 355.231 229.656 354.932 231.567 354.806C232.524 354.747 233.486 354.732 234.449 354.809C234.931 354.842 235.412 354.917 235.891 355.024C236.364 355.155 236.852 355.296 237.274 355.645L236.991 355.964C236.676 355.691 236.23 355.539 235.793 355.412C235.344 355.303 234.883 355.222 234.414 355.181C233.479 355.088 232.529 355.085 231.584 355.126C229.69 355.216 227.803 355.475 225.967 355.975C224.122 356.446 222.28 356.947 220.417 357.359C218.556 357.777 216.672 358.099 214.777 358.306Z" fill="black"/>
<path d="M223.928 357.778C224.996 357.592 226.048 357.327 227.104 357.083C228.16 356.837 229.22 356.601 230.292 356.415C231.363 356.229 232.448 356.089 233.544 356.072C234.637 356.057 235.757 356.152 236.816 356.544L236.658 356.94C235.689 356.544 234.612 356.411 233.544 356.391C232.472 356.373 231.394 356.475 230.324 356.625C229.253 356.775 228.189 356.976 227.126 357.187C226.064 357.396 225.002 357.627 223.928 357.778Z" fill="black"/>
</g>
<path d="M247.652 343.729L242.321 353.688L230.704 396.932L232.473 397.863L237.709 385.711L249.412 344.657L247.652 343.729Z" fill="#FFA71E"/>
<path opacity="0.2" d="M244.09 354.619L249.412 344.657L237.709 385.711L232.473 397.863L244.09 354.619Z" fill="black"/>
<path d="M236.756 357.196L202.686 360.719L191.069 403.962L192.838 404.895L226.909 401.372L238.526 358.128L236.756 357.196Z" fill="#FFA71E"/>
<path opacity="0.2" d="M204.455 361.65L192.838 404.895L226.909 401.372L238.526 358.128L204.455 361.65Z" fill="black"/>
<path opacity="0.35" d="M202.686 360.719L204.455 361.65L192.838 404.895L191.069 403.962L202.686 360.719Z" fill="black"/>
<path d="M238.526 358.128L244.09 354.62L232.473 397.864C231.679 400.205 229.767 401.31 226.909 401.373L238.526 358.128Z" fill="#FFA71E"/>
<path opacity="0.35" d="M238.526 358.128L244.09 354.62L232.473 397.864C231.575 400.342 229.602 401.35 226.909 401.373L238.526 358.128Z" fill="black"/>
<path d="M242.124 353.582C241.041 353.005 238.924 353.317 237.388 354.285C235.851 355.254 235.483 356.506 236.566 357.083L238.526 358.127L244.09 354.619C244.09 354.619 243.315 354.216 242.321 353.687C242.258 353.654 242.188 353.616 242.124 353.582Z" fill="#455A64"/>
<path d="M242.321 353.688C242.048 355.339 239.993 356.447 236.756 357.196L238.525 358.128C241.313 357.696 243.123 356.491 244.089 354.62L242.321 353.688Z" fill="#FFA71E"/>
<path d="M162.969 326.454C154.552 329.137 149.888 331.939 148.514 341.425C146.968 352.093 145.681 362.655 145.236 380.346C145.131 384.535 144.79 389.879 154.142 392.089C166.142 394.924 183.676 396.476 188.059 396.841C190.862 397.074 197.039 397.619 199.214 397.358C206.039 396.537 209.675 392.469 211.814 390.346C212.997 389.173 214.151 387.738 214.127 386.072C214.12 385.537 213.989 384.992 214.127 384.475C214.264 383.96 214.648 383.552 214.893 383.079C215.165 382.555 215.264 381.943 215.17 381.36C215.086 380.834 214.851 380.33 214.863 379.798C214.888 378.726 215.869 377.947 216.307 376.968C216.373 376.822 216.427 376.663 216.408 376.504C216.365 376.151 215.989 375.941 215.643 375.861C214.237 375.535 212.256 376.145 211.025 376.899C206.716 379.538 204.25 382.807 198.197 382.983C196.749 383.025 195.004 382.442 195.38 381.042L196.121 378.282C192.662 378.988 190.799 382.394 187.95 382.983C185.425 383.505 164.922 376.666 164.922 376.666L167.94 352.64C167.94 352.64 171.288 333.108 162.969 326.454Z" fill="#FFA8A7"/>
<path d="M242.606 368.537C242.203 369.949 241.023 371.761 240.356 372.935C239.715 374.062 239.81 375.374 240.565 375.698L238.526 382.856C238.526 382.856 239.531 382.965 241.613 380.536C243.695 378.107 245.12 373.573 245.515 371.121C245.91 368.668 246.197 364.283 244.117 363.238L242.606 368.537Z" fill="#FFA8A7"/>
<path d="M173.818 315.602C173.808 316.276 173.804 317.001 173.804 317.001C173.804 317.001 175.071 319.057 179.156 320.553C185.284 322.796 189.905 321.733 190.779 320.195V319.222C190.779 319.222 191.859 319.298 192.265 320.194C192.672 321.09 193.341 322.647 194.301 323.732C195.261 324.818 191.948 329.995 184.803 329.995C177.348 329.995 170.626 324.462 168.007 324.283L167.334 324.566C167.334 324.566 167.314 323.665 168.806 322.178C170.698 320.291 170.909 315.394 173.818 315.602Z" fill="#455A64"/>
<path d="M172.74 318.414C173.08 317.875 173.504 317.526 174.03 317.301C173.914 317.16 173.853 317.076 173.829 317.039C173.419 317.205 173.042 317.489 172.786 317.802C172.141 318.589 171.905 319.609 171.617 320.561C171.459 321.083 171.285 321.607 171.004 322.079C170.723 322.552 170.322 322.928 169.964 323.341C169.655 323.699 169.379 324.148 169.275 324.621C169.356 324.652 169.443 324.691 169.527 324.726C169.762 324.097 170.283 323.591 170.722 323.077C171.264 322.441 171.585 321.712 171.824 320.918C172.08 320.071 172.262 319.172 172.74 318.414ZM177.738 319.963C177.531 319.865 177.361 319.766 177.173 319.668C176.855 319.856 176.587 320.185 176.436 320.501C176.222 320.949 176.167 321.453 176.066 321.934C175.945 322.51 175.723 322.988 175.345 323.441C174.76 324.142 174.186 324.763 173.948 325.672C173.849 326.049 173.818 326.445 173.841 326.838C173.936 326.885 174.033 326.932 174.13 326.979C174.118 326.487 174.182 325.996 174.355 325.519C174.633 324.754 175.212 324.212 175.702 323.584C176.192 322.955 176.326 322.262 176.503 321.502C176.669 320.776 177.05 320.164 177.738 319.963ZM179.869 320.794C179.683 320.732 179.497 320.672 179.308 320.604C179 320.829 178.753 321.168 178.602 321.499C178.196 322.389 178.297 323.439 177.812 324.298C177.593 324.686 177.278 325.01 177.044 325.389C176.835 325.729 176.686 326.104 176.598 326.493C176.497 326.937 176.452 327.556 176.564 328.09C176.678 328.138 176.788 328.188 176.903 328.235C176.859 328.049 176.816 327.864 176.798 327.67C176.759 327.246 176.8 326.815 176.928 326.407C177.172 325.63 177.792 325.118 178.137 324.401C178.479 323.692 178.501 322.897 178.734 322.155C178.934 321.52 179.314 321.083 179.869 320.794ZM175.715 318.802C175.604 318.725 175.518 318.654 175.418 318.579C174.468 319.435 174.235 321.306 173.573 322.255C172.985 323.098 172.098 323.627 171.665 324.593C171.53 324.893 171.441 325.24 171.379 325.596C171.475 325.644 171.57 325.691 171.669 325.742C171.722 325.335 171.83 324.933 172.057 324.533C172.507 323.74 173.316 323.247 173.816 322.493C174.502 321.459 174.678 319.61 175.715 318.802ZM187.899 325.674C187.75 325.108 187.883 324.503 187.892 323.926C187.899 323.465 187.869 323 187.747 322.553C187.668 322.265 187.543 321.99 187.387 321.738C187.297 321.75 187.208 321.761 187.116 321.771C187.398 322.176 187.578 322.643 187.636 323.172C187.724 323.976 187.489 324.805 187.629 325.597C187.688 325.929 187.832 326.235 187.932 326.555C188.079 327.025 188.15 327.52 188.145 328.013C188.141 328.416 188.088 328.819 187.987 329.209C187.948 329.361 187.885 329.503 187.828 329.648C187.946 329.621 188.065 329.596 188.179 329.566C188.287 329.163 188.34 328.739 188.367 328.418C188.406 327.959 188.386 327.491 188.306 327.038C188.219 326.564 188.02 326.136 187.899 325.674ZM193.614 324.289C193.223 323.592 192.538 323.206 192.016 322.629C191.4 321.948 191.607 320.969 191.06 320.256C190.984 320.157 190.885 320.063 190.779 319.974V320.195C190.746 320.254 190.697 320.31 190.653 320.367C190.88 320.581 191.067 320.83 191.152 321.135C191.341 321.812 191.38 322.422 191.878 322.962C192.331 323.453 192.939 323.79 193.318 324.352C193.644 324.834 193.751 325.349 193.811 325.888C193.89 325.771 193.964 325.656 194.029 325.543C193.964 325.098 193.82 324.658 193.614 324.289ZM190.742 324.656C190.385 324.203 190.176 323.771 190.098 323.193C190.041 322.77 190.021 322.334 189.87 321.93C189.768 321.658 189.596 321.433 189.397 321.238C189.319 321.271 189.233 321.3 189.15 321.33C189.42 321.589 189.624 321.916 189.722 322.294C189.906 323.004 189.825 323.747 190.196 324.406C190.559 325.05 191.116 325.524 191.346 326.249C191.558 326.92 191.491 327.564 191.335 328.212C191.458 328.134 191.575 328.052 191.691 327.971C191.777 327.578 191.782 327.16 191.736 326.773C191.637 325.943 191.249 325.299 190.742 324.656ZM183.828 323.459C183.645 324.416 183.828 325.395 183.481 326.323C183.199 327.076 182.848 327.756 182.809 328.576C182.789 328.982 182.829 329.443 182.945 329.873C183.046 329.885 183.145 329.902 183.246 329.912C183.078 329.335 182.984 328.77 183.124 328.126C183.286 327.379 183.758 326.748 183.932 326.006C184.102 325.28 183.996 324.527 184.112 323.794C184.228 323.067 184.542 322.457 184.826 321.801C184.717 321.794 184.61 321.79 184.498 321.78C184.141 322.263 183.934 322.902 183.828 323.459ZM181.021 322.479C180.697 323.493 180.796 324.557 180.18 325.477C179.681 326.223 179.086 326.854 178.896 327.761C178.822 328.115 178.794 328.525 178.813 328.933C178.914 328.966 179.014 329.001 179.116 329.033C179.062 328.605 179.047 328.176 179.165 327.721C179.389 326.856 180.061 326.263 180.498 325.514C180.901 324.824 180.97 324.058 181.101 323.286C181.171 322.872 181.275 322.473 181.479 322.103C181.655 321.784 181.891 321.61 182.148 321.42C182.003 321.389 181.855 321.355 181.707 321.319C181.372 321.634 181.126 322.151 181.021 322.479Z" fill="#37474F"/>
</svg>
