<svg width="347" height="374" viewBox="0 0 347 374" fill="none" xmlns="http://www.w3.org/2000/svg">
<path d="M321.307 237.581C332.428 247.224 353.948 258.009 344.785 324.962C347.077 328.935 331.242 343.929 307.191 350.17C283.139 356.411 241.174 355.543 233.731 345.329C226.286 335.115 202.562 337.572 189.391 345.515C176.221 353.459 134.92 357.891 98.2692 352.218C61.6213 346.543 18.9605 330.635 19.5315 313.614C20.105 296.591 33.8462 290.918 41.8649 291.484C49.8812 292.052 80.2308 295.457 89.394 292.618C98.5548 289.782 166.126 263.113 186.168 248.361C206.21 233.608 210.178 234.353 229.688 249.495C298.401 302.834 312.144 229.638 321.307 237.581Z" fill="#FFA71E"/>
<path d="M282.287 305.458C268.002 306.133 205.077 272.091 198.274 258.272C185.24 266.165 185.24 266.165 185.24 266.165C185.24 266.165 235.671 303.086 204.069 314.472C182.331 322.307 126.715 291.474 126.715 291.474L115.221 296.736C115.221 296.736 170.723 330.395 165.281 338.145C204.399 329.048 282.287 305.458 282.287 305.458Z" fill="#FFA71E"/>
<path d="M256.174 344.988C256.174 344.988 194.669 348.163 127.396 359.591C139.568 338.005 180.572 318.325 235.673 306.263C284.188 295.643 324.248 273.709 342.315 263.848C346.835 276.246 348.889 294.964 344.785 324.965C345.51 326.222 346.403 330.603 346.53 336.201L256.174 344.988Z" fill="#DE5C47"/>
<path d="M238.875 308.166C186.106 319.717 146.284 338.259 132.315 358.769C130.678 359.037 129.041 359.31 127.396 359.591C139.568 338.005 180.572 318.325 235.673 306.263C284.188 295.643 324.248 273.709 342.315 263.848C342.674 264.833 343.011 265.875 343.338 266.941C324.36 277.278 285.533 297.953 238.875 308.166Z" fill="#FCE179"/>
<path d="M345.622 327.62C339.99 330.7 333.728 332.54 327.183 332.947C317.327 333.558 308.178 330.886 298.515 329.595C285.606 327.871 272.609 327.554 259.602 327.552C312.778 292.906 335.161 283.544 346.454 283.452C347.464 294.188 347.147 307.705 344.785 324.962C345.056 325.436 345.351 326.367 345.622 327.62Z" fill="#474747"/>
<path d="M19.5312 313.614C20.0046 299.51 29.5192 293.201 37.3281 291.775C47.0355 309.477 83.5931 321.638 100.843 326.665C120.312 332.34 116.305 339.715 111.151 352.765C111.151 352.765 66.7578 344.009 32.3036 336.847C24.2117 328.386 19.3189 319.913 19.5312 313.614Z" fill="#474747"/>
<path d="M104.279 346.524C131.872 350.366 160.969 345.39 210.216 331.771C221.198 328.734 278.932 324.394 305.467 328.638C334.741 333.317 344.829 324.612 344.829 324.612C344.812 324.73 344.8 324.844 344.783 324.962C347.074 328.935 351.081 364.113 327.032 370.356C302.981 376.597 227.967 374.895 220.524 364.681C213.079 354.467 202.774 355.601 189.601 363.547C183.268 367.365 168.986 370.131 151.796 371.348C149.522 368.775 147.245 365.791 145.022 365.931C142.672 366.079 141.003 369.36 138.987 371.952C126.461 372.254 113.142 371.766 100.629 370.337C99.0401 367.312 97.5418 363.905 95.3578 363.523C92.8931 363.09 90.3308 366.277 87.566 368.335C52.5457 360.754 18.9797 329.914 19.5288 313.617C19.5752 312.282 34.9904 336.878 104.279 346.524Z" fill="#474747"/>
<path d="M327.62 354.455C320.934 357.209 313.457 359.262 306.156 358.181C299.518 357.197 293.52 353.737 286.768 353.152C282.975 352.823 279.286 353.016 275.552 353.8C271.76 354.598 267.858 355.732 263.946 355.628C256.706 355.437 249.707 352.317 242.506 351.517C232.093 350.359 222.776 353.979 214.031 358.926C212.283 358.046 210.436 357.526 208.474 357.376C217.679 351.244 226.62 344.273 237.12 341.013C240.966 339.819 244.941 339.482 248.651 341.407C251.999 343.146 254.622 345.762 257.675 347.912C262.575 351.362 268.951 352.6 274.261 349.097C280.418 345.034 284.742 338.735 293.11 342.858C300.382 346.442 305.58 351.856 314.121 352.356C321.983 352.818 332.354 350.591 338.557 345.627C341.6 343.192 344.146 340.329 346.544 337.335C346.552 339.357 346.452 341.516 346.21 343.726C340.402 348.013 334.209 351.74 327.62 354.455Z" fill="#474747"/>
<path d="M107.051 285.99C108.64 286.452 110.26 286.747 111.905 286.747C116.893 286.742 121.649 284.793 126.227 283.011C137.489 278.623 148.453 273.462 159.027 267.633C169.652 261.774 180.147 255.513 190.196 248.723C194.889 245.553 199.64 242.32 204.814 239.958C206.534 239.172 208.259 238.425 210.053 237.934C215.375 238.863 220.985 242.744 229.687 249.497C234.477 253.216 238.992 256.299 243.265 258.857C243.614 271.337 239.346 279.014 223.96 272.761C201.627 263.681 194.755 267.086 185.594 272.761C176.431 278.436 114.016 316.453 101.99 301.7C98.7715 297.752 96.1019 294.183 93.8935 291.051C97.1561 289.854 101.702 288.113 107.051 285.99Z" fill="#DE5C47"/>
<path d="M101.349 297.254C113.374 312.006 175.791 273.99 184.952 268.315C194.113 262.64 200.985 259.235 223.318 268.315C236.976 273.867 241.869 268.436 242.552 258.413C242.787 258.556 243.028 258.715 243.262 258.855C243.611 271.335 239.343 279.012 223.958 272.759C201.624 263.679 194.752 267.084 185.592 272.759C176.428 278.434 114.014 316.451 101.988 301.698C98.7693 297.75 96.0996 294.181 93.8911 291.049C94.5207 290.82 95.2089 290.563 95.9288 290.292C97.5418 292.461 99.3256 294.773 101.349 297.254Z" fill="#FCE179"/>
<path d="M308.679 258.079C302.51 264.936 290.294 286.895 255.425 270.982C225.883 257.501 214.999 233.233 192.405 243.945C207.3 233.973 212.388 236.07 229.685 249.495C298.4 302.832 312.144 229.635 321.305 237.579C322.537 238.647 323.896 239.728 325.326 240.899C320.146 238.819 313.586 252.624 308.679 258.079Z" fill="#474747"/>
<path d="M199.594 254.012C200.236 255.24 202.325 255.429 204.262 254.435C206.2 253.441 207.249 251.64 206.607 250.411C205.965 249.183 203.877 248.994 201.939 249.988C200.001 250.985 198.952 252.786 199.594 254.012Z" fill="#474747"/>
<path d="M167.497 269.369C168.139 270.597 170.228 270.786 172.165 269.792C174.103 268.798 175.152 266.997 174.51 265.771C173.869 264.542 171.78 264.354 169.842 265.348C167.905 266.342 166.855 268.141 167.497 269.369Z" fill="#474747"/>
<path d="M145.869 277.53C146.511 278.758 148.6 278.947 150.537 277.953C152.475 276.959 153.524 275.158 152.882 273.929C152.241 272.701 150.152 272.512 148.214 273.506C146.279 274.5 145.227 276.301 145.869 277.53Z" fill="#474747"/>
<path d="M124.282 285.093C124.617 286.126 126.205 286.544 127.833 286.029C129.461 285.512 130.51 284.257 130.178 283.224C129.846 282.192 128.255 281.773 126.628 282.288C125 282.804 123.951 284.061 124.282 285.093Z" fill="#474747"/>
<path d="M108.813 289.233C109.148 290.266 110.736 290.684 112.364 290.169C113.992 289.652 115.041 288.397 114.709 287.364C114.377 286.332 112.786 285.913 111.159 286.428C109.528 286.943 108.479 288.201 108.813 289.233Z" fill="#474747"/>
<path d="M174.893 252.046C174.901 253.364 176.262 254.425 177.934 254.416L201.724 254.287C203.396 254.278 204.745 253.202 204.738 251.884C204.731 250.566 203.369 249.505 201.697 249.514L177.907 249.642C176.236 249.652 174.886 250.728 174.893 252.046Z" fill="#474747"/>
<path d="M191.133 242.393C190.13 241.6 188.469 242.006 187.427 243.3L168.988 265.108C167.946 266.404 167.914 268.097 168.917 268.89C169.92 269.683 171.582 269.277 172.624 267.983L191.063 246.175C192.107 244.881 192.136 243.189 191.133 242.393Z" fill="#474747"/>
<path d="M147.748 265.294C147.545 266.566 148.168 267.594 149.82 267.853L169.327 269.195C170.979 269.453 172.482 268.634 172.685 267.359C172.888 266.088 171.714 264.845 170.062 264.586L151.333 263.582C149.683 263.326 147.95 264.023 147.748 265.294Z" fill="#474747"/>
<path d="M163.246 258.664C162.263 257.779 160.554 258.055 159.429 259.283L147.343 273.153C146.218 274.379 146.103 276.091 147.089 276.976C148.072 277.861 149.781 277.585 150.906 276.357L162.992 262.487C164.117 261.261 164.229 259.552 163.246 258.664Z" fill="#474747"/>
<path d="M125.89 275.237C125.859 276.422 126.803 277.409 127.999 277.438L148.436 277.537C149.632 277.568 150.625 276.633 150.657 275.448C150.688 274.263 149.744 273.276 148.548 273.247L128.111 273.148C126.915 273.117 125.922 274.053 125.89 275.237Z" fill="#474747"/>
<path d="M142.841 268.602C141.842 267.935 140.395 268.053 139.585 268.851L125.285 281.706C124.475 282.504 124.477 283.807 125.31 284.639C126.164 285.49 127.56 285.519 128.406 284.682L143.175 271.369C144.024 270.532 143.863 269.287 142.841 268.602Z" fill="#474747"/>
<path d="M111.644 280.84C111.163 281.749 111.642 282.726 112.757 283.004L125.51 285.328C127.037 285.7 128.565 285.038 128.858 283.875C129.141 282.755 128.15 281.645 126.701 281.367L114.404 279.643C113.328 279.428 112.11 279.957 111.644 280.84Z" fill="#474747"/>
<path d="M124.06 276.722C123.089 276.325 121.769 276.444 121.054 276.978L110.095 285.911C109.067 286.689 108.789 288.019 109.543 288.909C110.351 289.862 111.971 289.913 113.084 288.989L124.619 278.589C125.363 277.977 125.083 277.14 124.06 276.722Z" fill="#474747"/>
<path d="M20.1388 314.045C24.7631 330.969 55.5495 357.34 87.5683 364.272C90.3331 362.214 92.8955 359.028 95.3602 359.46C97.5442 359.845 99.0425 363.249 100.631 366.274C113.145 367.703 126.464 368.192 138.99 367.89C141.005 365.298 142.675 362.016 145.024 361.869C147.245 361.728 149.524 364.712 151.799 367.285C168.988 366.069 183.271 363.303 189.603 359.485C202.773 351.541 213.081 350.405 220.526 360.619C227.972 370.832 302.986 372.535 327.034 366.294C341.998 362.41 346.098 347.329 346.51 335.527C346.923 347.629 343.787 366.006 327.034 370.354C302.983 376.595 227.969 374.892 220.526 364.678C213.081 354.465 202.776 355.599 189.603 363.544C183.271 367.363 168.988 370.129 151.799 371.345C149.524 368.772 147.248 365.788 145.024 365.929C142.675 366.076 141.005 369.357 138.99 371.95C126.464 372.252 113.145 371.763 100.631 370.334C99.0425 367.309 97.5442 363.902 95.3602 363.52C92.8955 363.087 90.3331 366.274 87.5683 368.332C52.548 360.752 18.9822 329.912 19.5312 313.614C19.5361 313.469 19.7215 313.631 20.1388 314.045Z" fill="#474747"/>
<path d="M329.587 98.6094C329.587 98.6094 335.261 120.536 332.425 133.468C329.587 146.4 310.863 152.585 257.526 152.585C204.189 152.585 53.256 158.77 29.9905 151.461C6.72496 144.151 -9.89084 135.767 6.72496 104.231C92.9739 112.665 329.587 98.6094 329.587 98.6094Z" fill="#E2E4E6"/>
<path d="M317.105 7.35729C328.296 5.18104 330.327 41.9523 329.761 99.3011C317.279 101.55 254.688 107.041 224.048 109.853C193.408 112.666 142.907 124.473 108.862 123.91C74.8183 123.349 13.5358 122.222 4.45801 108.729C6.72746 95.7973 13.5358 88.4876 24.8855 87.9266C36.2352 87.3656 78.7911 73.8705 112.269 54.1924C145.747 34.5144 190.572 5.27777 199.084 0.216797C206.83 -4.38716 244.637 66.3093 294.552 25.1251C299.487 21.0507 308.035 9.12246 317.105 7.35729Z" fill="#FCE179"/>
<path d="M213.957 11.6155C229.739 27.0813 255.85 50.2946 287.412 30.3191C298.735 69.9484 314.631 42.8881 329.765 69.8517C329.878 78.8976 329.863 88.7487 329.758 99.3035C318.208 101.385 263.78 106.241 231.435 109.181C232.699 82.8729 228.623 56.6202 201.483 21.544C205.59 18.1708 209.758 14.8726 213.957 11.6155Z" fill="#FFA71E"/>
<path d="M108.862 123.912C74.8183 123.351 13.5358 122.224 4.45801 108.732C5.97586 100.077 9.53865 93.9573 15.1244 90.676C147.167 117.574 128.68 75.157 125.776 67.0952C125.776 67.0952 136.877 65.3591 152.648 54.3594C147.919 85.2959 195.202 82.873 195.509 113.698C167.256 118.16 133.695 124.321 108.862 123.912Z" fill="#FFA71E"/>
<path d="M13.5334 91.7689C42.6214 98.7426 68.0954 101.816 85.536 101.818H85.5409C107.279 101.818 121.345 97.5094 127.343 89.01C131.442 83.2018 130.988 76.7988 129.822 72.0449C130.539 71.7403 131.25 71.4187 131.965 71.1116C133.858 78.6124 132.97 85.0758 129.258 90.335C122.796 99.4873 108.089 104.13 85.5433 104.13C66.0821 104.128 36.6793 100.464 11.4421 93.5317C12.4109 92.4678 13.5334 91.7689 13.5334 91.7689Z" fill="white"/>
<path d="M92.6713 64.5973C99.3454 61.3765 105.966 57.8945 112.264 54.1925C113.606 53.4042 114.97 52.5966 116.344 51.7793C118.565 54.7462 125.647 52.923 132.977 48.573C151.208 37.7474 193.13 14.0384 206.468 4.31787C210.451 7.68137 214.158 12.133 221.103 18.3619C204.353 28.4282 150.018 61.0815 134.925 70.183C119.373 79.5626 105.29 79.0355 92.6713 64.5973Z" fill="#FFA71E"/>
<path d="M94.582 63.6325C95.3532 63.2528 96.1145 62.8563 96.8832 62.4694C102.215 68.6282 110.558 71.8393 115.456 71.8393C120.588 71.8393 126.32 69.9508 132.494 66.2246C145.679 58.2741 195.433 28.491 217.642 15.1506C218.204 15.685 218.789 16.2339 219.402 16.7997C197.061 30.2127 147.014 60.1795 133.709 68.2026C127.165 72.1512 121.022 74.1534 115.456 74.1534C109.626 74.1558 102.423 72.6252 94.582 63.6325Z" fill="white"/>
<path d="M210.114 7.70309C197.686 15.8978 170.445 32.1012 152.851 42.3319C146.055 46.2854 139.969 49.823 135.383 52.5458C129.605 55.977 124.165 57.8655 120.066 57.8655C118.726 57.8655 115.449 57.7977 112.355 54.1417C113.123 53.6895 113.909 53.2228 114.69 52.761C116.757 55.1887 118.929 55.5514 120.066 55.5514C123.746 55.5514 128.761 53.779 134.183 50.5581C138.783 47.8281 144.891 44.276 151.67 40.3346C169.137 30.1788 195.619 14.4422 208.406 6.0564C208.962 6.57869 209.533 7.13001 210.114 7.70309Z" fill="white"/>
<path d="M186.69 3.76657C185.616 4.47748 185.328 5.9138 186.043 6.97774L196.334 21.9358C197.051 22.9997 198.501 23.285 199.575 22.5766L204.433 19.363C205.507 18.6521 205.795 17.2157 205.08 16.1518L194.789 1.19377C194.072 0.129826 192.622 -0.155502 191.549 0.552985L186.69 3.76657Z" fill="#F9F9F9"/>
<path d="M173.415 12.208C172.341 12.9189 172.053 14.3552 172.768 15.4191L183.059 30.3772C183.776 31.4411 185.226 31.7264 186.3 31.018L191.158 27.8044C192.232 27.0935 192.52 25.6572 191.805 24.5932L181.514 9.63517C180.797 8.57123 179.347 8.2859 178.273 8.99439L173.415 12.208Z" fill="#F9F9F9"/>
<path d="M160.706 20.2529C159.632 20.9638 159.344 22.4001 160.059 23.4641L170.35 38.4221C171.067 39.486 172.517 39.7714 173.591 39.0629L178.449 35.8493C179.523 35.1384 179.811 33.7021 179.096 32.6381L168.805 17.6801C168.088 16.6162 166.638 16.3308 165.565 17.0393L160.706 20.2529Z" fill="#F9F9F9"/>
<path d="M147.431 28.6919C146.357 29.4028 146.069 30.8391 146.784 31.903L157.075 46.8611C157.792 47.925 159.242 48.2103 160.316 47.5018L165.174 44.2883C166.248 43.5774 166.536 42.141 165.821 41.0771L155.53 26.1191C154.813 25.0551 153.363 24.7698 152.289 25.4783L147.431 28.6919Z" fill="#F9F9F9"/>
<path d="M134.724 36.7365C133.651 37.4474 133.363 38.8838 134.078 39.9477L144.368 54.9057C145.086 55.9697 146.535 56.255 147.609 55.5465L152.468 52.3329C153.541 51.622 153.829 50.1857 153.114 49.1218L142.824 34.1637C142.106 33.0998 140.657 32.8145 139.583 33.523L134.724 36.7365Z" fill="#F9F9F9"/>
<path d="M121.449 45.178C120.376 45.8889 120.088 47.3252 120.803 48.3891L131.093 63.3472C131.811 64.4111 133.26 64.6964 134.334 63.9879L139.193 60.7743C140.266 60.0634 140.554 58.6271 139.839 57.5632L129.549 42.6051C128.831 41.5412 127.382 41.2559 126.308 41.9644L121.449 45.178Z" fill="#F9F9F9"/>
<path d="M108.862 127.512C142.907 128.076 193.408 116.269 224.048 113.456C254.688 110.644 318.062 105.022 330.544 102.773L331.169 105.893C318.684 108.142 254.688 113.887 224.046 116.699C193.406 119.511 142.904 131.318 108.86 130.755C74.8158 130.194 11.4005 127.682 2.32272 114.189C2.4789 113.299 2.97915 112.414 3.35007 111.399C13.975 124.258 75.3868 126.959 108.862 127.512Z" fill="#DE5C47"/>
<path d="M329.822 76.1556C324.216 64.2056 314.062 60.8735 308.703 59.8628C300.673 58.3467 291.619 56.6274 284.74 37.3048C285.396 36.814 286.065 36.3473 286.741 35.9023C293.193 54.5213 301.287 56.1051 309.14 57.5874C314.426 58.5836 321.383 59.0503 329.785 71.8708C329.8 73.2853 329.814 74.7023 329.822 76.1556Z" fill="white"/>
<path d="M294.547 25.1252C299.487 21.0508 308.032 9.12259 317.105 7.35983C321.217 6.55946 324.087 11.0328 326.051 19.8345C322.157 20.4318 313.308 16.9619 306.876 23.6816C294.435 36.6786 260.11 63.8188 221.952 19.1188C239.3 34.442 264.769 49.695 294.547 25.1252Z" fill="#5D5D5D"/>
<path d="M29.9906 145.918C53.2537 153.228 204.189 147.043 257.526 147.043C310.863 147.043 329.59 140.858 332.425 127.926C332.831 126.086 333.045 124.052 333.145 121.936C333.321 126.028 333.172 130.063 332.425 133.47C329.59 146.402 310.863 152.587 257.526 152.587C204.189 152.587 53.2562 158.773 29.9906 151.463C12.2304 145.882 -1.63525 139.663 0.180313 123.007C1.7372 135.596 14.3534 141.005 29.9906 145.918Z" fill="#5D5D5D"/>
<path d="M170.543 88.5215C179.662 94.2716 190.407 100.476 191.707 114.3C192.495 114.175 193.267 114.054 194.045 113.93C191.048 97.004 181.17 92.4774 171.795 86.5677C161.86 80.305 151.086 73.3676 149.871 60.697C149.166 61.2266 148.461 61.7561 147.753 62.2833C150.213 76.1653 160.952 82.4764 170.543 88.5215Z" fill="white"/>
<path d="M234.166 108.932C234.929 108.862 235.698 108.795 236.481 108.722C237.357 79.2823 231.664 55.1405 209.219 24.146C208.618 24.6248 208.008 25.0939 207.413 25.5775C229.136 55.5733 235.222 80.8661 234.166 108.932Z" fill="white"/>
<path d="M197.971 46.6435C198.964 46.525 199.943 46.5057 200.914 46.5347L200.912 46.5129C240.347 47.6591 277.129 48.7279 289.813 49.0978V49.1051C292.903 49.1921 295.545 51.4989 295.926 54.6303C296.307 57.7617 294.294 60.6247 291.314 61.4371V61.4444C279.081 64.791 243.612 74.4922 205.58 84.8946L205.578 84.8728C204.643 85.1267 203.686 85.3395 202.693 85.458C191.878 86.7517 182.051 79.1106 180.748 68.3914C179.442 57.6722 187.154 47.9348 197.971 46.6435Z" fill="#DE5C47"/>
<path d="M183.066 68.1107C184.12 76.76 191.529 83.2815 200.302 83.2815C200.997 83.2815 201.702 83.2404 202.41 83.1558C203.186 83.0639 203.994 82.8995 204.953 82.6383L207.491 81.9443L207.493 81.9661L288.74 59.7443L290.689 59.2026C292.585 58.6852 293.837 56.8378 293.601 54.9057C293.364 52.9737 291.707 51.4745 289.742 51.4189L287.815 51.3657L287.812 51.356L203.186 48.8969L200.172 48.8389C199.535 48.8389 198.891 48.8679 198.242 48.9453C188.73 50.0793 181.919 58.6803 183.066 68.1107ZM198.525 51.2424C199.082 51.1771 199.631 51.1529 200.131 51.1529L203.123 51.211L285.748 53.6121L285.75 53.6242L289.684 53.7354C290.487 53.7548 291.192 54.3931 291.287 55.1838C291.382 55.9721 290.85 56.758 290.062 56.9732L288.125 57.5124L209.419 79.0403L209.416 79.0185L204.338 80.4065C203.491 80.6362 202.793 80.7788 202.132 80.8586C201.519 80.9312 200.909 80.9674 200.307 80.9674C192.715 80.9674 186.302 75.3213 185.389 67.835C184.394 59.6693 190.287 52.2265 198.525 51.2424Z" fill="#5D5D5D"/>
</svg>
